<?xml version="1.0" encoding="utf-8"?>
<!-- Generator: Adobe Illustrator 27.0.1, SVG Export Plug-In . SVG Version: 6.00 Build 0)  -->
<svg version="1.1" id="fish" xmlns="http://www.w3.org/2000/svg" xmlns:xlink="http://www.w3.org/1999/xlink" x="0px" y="0px"
	 viewBox="0 0 333 185.3" style="enable-background:new 0 0 333 185.3;" xml:space="preserve">
<style type="text/css">
	.st0{fill:url(#SVGID_1_);}
	.st1{fill:url(#SVGID_00000169556078020125222060000004895929411551187599_);}
	.st2{fill:url(#SVGID_00000105389285702661127030000015991698171975173299_);}
</style>
<linearGradient id="SVGID_1_" gradientUnits="userSpaceOnUse" x1="218.75" y1="966.5826" x2="333.0009" y2="966.5826" gradientTransform="matrix(1 0 0 -1 0 993.2498)">
	<stop  offset="0" style="stop-color:#A4C3CF"/>
	<stop  offset="0.23" style="stop-color:#9ABCCA"/>
	<stop  offset="0.61" style="stop-color:#81ABBC"/>
	<stop  offset="1" style="stop-color:#6196AC"/>
</linearGradient>
<path class="st0" d="M332.8,36.3c-0.7-2.8-1.4-6.6-1.8-9.8c0.3-3.2,1.1-6.9,1.8-9.8c0.6-2.5-0.3-3-2.4-1.5c-3.1,2.2-8.3,5.2-15.8,7
	c-1.6,0.4-3.1,0.5-4.5,0.4c1.3-0.6,2.8-1.6,2.8-3.3c0-2.9-40.5-30.4-75.3-14.5c-0.2,0.1-0.4,0.2-0.6,0.2c-0.8,0.4-1.5,0.8-2.2,1.2
	c-0.1,0.1-0.2,0.1-0.3,0.2h0c-7.7,4.4-12.6,11.4-15.5,18.4c-0.3,0.7-0.2,1.4,0.2,1.5l0.7,0.2c0,0-0.3,0.2-0.7,0.2
	c-1.6,0.1,0.6,2.3,1,3c2.1,3.8,6.8,10.6,15.1,15.4h0c33.1,21.2,63-3.9,73.8-9.8c4.3-2.3,2-4.3-0.1-5.4c1.8-0.3,3.6-0.3,5.5,0.1
	c7.6,1.8,12.9,5.2,16,7.7C332.6,39.2,333.4,38.8,332.8,36.3L332.8,36.3z"/>
<linearGradient id="SVGID_00000021833589224382128300000003469973402472727703_" gradientUnits="userSpaceOnUse" x1="159.6373" y1="848.3196" x2="275.7914" y2="848.3196" gradientTransform="matrix(1 0 0 -1 0 993.2498)">
	<stop  offset="0" style="stop-color:#A4C3CF"/>
	<stop  offset="0.23" style="stop-color:#9ABCCA"/>
	<stop  offset="0.61" style="stop-color:#81ABBC"/>
	<stop  offset="1" style="stop-color:#6196AC"/>
</linearGradient>
<path style="fill:url(#SVGID_00000021833589224382128300000003469973402472727703_);" d="M270.2,130.7c-5.5-0.5-12.5,10-18.2,9.8
	c-1.2-0.1-3.3-1.4-6.1-3.4c-2.1-13.6-7.6-29.3-20.3-32c-9.7-2.1-23,2.4-29,9.5c-1.9-0.3-5.8-0.2-11.9,0.7
	c-13.4,2-16.1,13.4-19.6,20.6c-1.9,3.8-2.8,5.3-4.8,6.4c-2,1,1.3,1.5,1.3,2.1c0,0.6-1.7,0.9-1.6,1.4c0.3,1.4,1.4,1.4,2.4,3.6
	c3.5,7.8,12.6,23.8,26,26.2c1.4,0.2,2.7,0.4,4,0.5c1.5,1.7,3.2,3,3.2,3s14.6,7.5,23.9,6c-1.9-2.6-4-4.3-6.4-5.5
	c2.3,0.1,4.6,0,6.8-0.4c5.1,2.3,11.3,4.1,18.3,4.5c7.8,0.5,8.8-14.9,8.9-27.8c1.7-1,3.1-1.7,4-1.6c5.7,0.2,15.2,11.8,20.1,9.5
	C277,161.1,278,131.5,270.2,130.7L270.2,130.7z"/>
<linearGradient id="SVGID_00000085241099687375689460000002345787343194104761_" gradientUnits="userSpaceOnUse" x1="-0.2073" y1="932.2252" x2="149.3452" y2="932.2252" gradientTransform="matrix(1 0 0 -1 0 993.2498)">
	<stop  offset="0" style="stop-color:#A4C3CF"/>
	<stop  offset="0.23" style="stop-color:#9ABCCA"/>
	<stop  offset="0.61" style="stop-color:#81ABBC"/>
	<stop  offset="1" style="stop-color:#6196AC"/>
</linearGradient>
<path style="fill:url(#SVGID_00000085241099687375689460000002345787343194104761_);" d="M0,67.6c-3-15.6,27.4-29.9,34.2-30.8
	c13.4-20.8,33-19,34.6-2.9c9.6,1.4,16.9,5.1,16.9,5.1s26.5-13.9,25.5,10c6.4,1.2,13.4,0.4,19.6-4c12.9-9.1,16.8,1.8,18.3,10.5
	c1.2,7.4-2.5,15.6-12.5,12.6s-19.4-6.6-26.3-5.9c6,4,5.3,25.2-25.4,15.9c-6.6,2.9-18.6,6.1-18.6,6.1s2.4,14.8-13,16.3
	C38,101.9,31.6,84.7,31.6,84.7S2.5,80.5,0,67.6L0,67.6z"/>
</svg>
