<?xml version="1.0" encoding="UTF-8"?><svg id="fish" xmlns="http://www.w3.org/2000/svg" xmlns:xlink="http://www.w3.org/1999/xlink" viewBox="0 0 2072.73 1166.38"><defs><style>.cls-1{fill:url(#fishy);}.cls-2{fill:url(#fishy-2);}.cls-3{fill:url(#fishy-3);}</style><linearGradient id="fishy" x1="319.39" y1="113.04" x2="433.64" y2="113.04" gradientUnits="userSpaceOnUse"><stop offset="0" stop-color="#a4c3cf"/><stop offset=".23" stop-color="#9abcca"/><stop offset=".61" stop-color="#81abbc"/><stop offset="1" stop-color="#6196ac"/></linearGradient><linearGradient id="fishy-2" x1="260.29" y1="231.31" x2="376.43" y2="231.31" xlink:href="#fishy"/><linearGradient id="fishy-3" x1="100.43" y1="147.39" x2="249.98" y2="147.39" xlink:href="#fishy"/></defs><path class="cls-1" d="M433.45,122.69c-.66-2.85-1.44-6.58-1.79-9.77,.35-3.19,1.13-6.92,1.79-9.77,.58-2.48-.32-2.98-2.38-1.48-3.11,2.25-8.31,5.24-15.77,6.99-1.63,.38-3.11,.5-4.5,.4,1.35-.58,2.79-1.6,2.82-3.29,.05-2.91-40.52-30.39-75.31-14.46-.19,.08-.38,.16-.57,.25-.78,.36-1.52,.75-2.24,1.15-.1,.05-.2,.1-.3,.16h.02c-7.72,4.4-12.6,11.37-15.48,18.36-.29,.71-.18,1.36,.23,1.46l.74,.17s-.32,.15-.74,.17c-1.62,.07,.63,2.32,.99,2.99,2.07,3.84,6.82,10.59,15.09,15.35h-.01c33.07,21.17,62.97-3.94,73.85-9.84,4.29-2.33,1.98-4.33-.06-5.42,1.79-.31,3.6-.31,5.48,.13,7.61,1.79,12.88,5.18,15.96,7.71,1.97,1.62,2.76,1.21,2.19-1.27Z"/><path class="cls-2" d="M370.8,217.12c-5.48-.51-12.48,9.98-18.21,9.75-1.18-.05-3.27-1.38-6.14-3.39-2.12-13.64-7.64-29.26-20.3-32-9.69-2.1-23.05,2.45-28.97,9.49-1.9-.28-5.84-.2-11.92,.69-13.35,1.97-16.06,13.41-19.57,20.6-1.85,3.79-2.75,5.32-4.78,6.39-1.97,1.04,1.29,1.53,1.29,2.1,0,.63-1.67,.86-1.56,1.45,.26,1.44,1.4,1.4,2.37,3.55,3.52,7.83,12.59,23.77,26,26.15,1.36,.24,2.71,.4,4.05,.53,1.55,1.7,3.17,3.03,3.17,3.03,0,0,14.64,7.51,23.87,5.98-1.85-2.56-4.05-4.28-6.43-5.52,2.28,.06,4.6-.03,6.77-.37,5.14,2.26,11.28,4.07,18.3,4.55,7.83,.54,8.75-14.85,8.86-27.8,1.74-1.04,3.07-1.66,3.95-1.62,5.73,.23,15.23,11.75,20.11,9.53,5.99-2.71,7.02-32.37-.86-33.1Z"/><path class="cls-3" d="M100.64,153.94c-3-15.62,27.45-29.86,34.18-30.8,13.45-20.75,32.96-18.98,34.6-2.88,9.55,1.36,16.91,5.05,16.91,5.05,0,0,26.5-13.89,25.51,9.96,6.44,1.24,13.37,.44,19.64-3.96,12.92-9.06,16.82,1.75,18.28,10.5,1.23,7.37-2.53,15.61-12.47,12.63-9.94-2.98-19.45-6.62-26.27-5.94,5.96,3.98,5.32,25.23-25.41,15.88-6.65,2.94-18.58,6.14-18.58,6.14,0,0,2.38,14.82-13.03,16.31-15.4,1.49-21.73-15.77-21.73-15.77,0,0-29.15-4.2-31.64-17.12Z"/></svg>