<?xml version="1.0" encoding="utf-8"?>
<!-- Generator: Adobe Illustrator 27.0.0, SVG Export Plug-In . SVG Version: 6.00 Build 0)  -->
<svg version="1.1" id="Layer_2_00000113354318671454831250000004335444160284310958_"
	 xmlns="http://www.w3.org/2000/svg" xmlns:xlink="http://www.w3.org/1999/xlink" x="0px" y="0px" viewBox="0 0 69.3 66.4"
	 style="enable-background:new 0 0 69.3 66.4;" xml:space="preserve">
<style type="text/css">
	.st0{fill:#EC8B64;}
	.st1{fill:url(#SVGID_1_);}
	.st2{fill:url(#SVGID_00000082338384674896581020000016703665259031260310_);}
	.st3{fill:url(#SVGID_00000119104767830899622610000011709992064929505683_);}
	.st4{fill:url(#SVGID_00000016069941332242806680000000432563293569494674_);}
	.st5{fill:url(#SVGID_00000111898986606866259830000006667750880844219069_);}
	.st6{fill:url(#SVGID_00000078047344478446698620000011184280461363801254_);}
</style>
<g>
	<g>
		<g>
			<path class="st0" d="M47.6,9.1c-0.2-2-1.1-4.4-3.2-5.2c-0.5-0.2-0.9-0.2-1.3-0.2c-0.4,0-0.5,0-0.7-0.1C42.3,3.5,42.2,3.2,42,3
				c-0.3-0.4-0.6-0.9-1.2-1.3c-0.7-0.4-1.4-0.4-2-0.4c-0.3,0-0.6,0-0.9-0.1c-0.2,0-0.4-0.1-0.6-0.4C36.9,0.5,36.2,0,34.6,0
				c-1.4,0-2.1,0.5-2.7,0.9C31.8,1,31.7,1,31.6,1.1c-0.4,0.2-0.6,0.2-1,0.2c-0.3,0-0.6,0-1,0.1c-0.9,0.1-1.7,0.5-2.3,1.2
				C27.2,2.8,27.1,3,27,3.3c-0.1,0.1-0.1,0.3-0.2,0.3c-0.1,0.1-0.3,0.1-0.7,0.1c-0.3,0-0.6,0-0.9,0.1C24.5,4,23.9,4.4,23.3,5
				c-0.9,1-1.5,2.4-1.6,4.1c-0.2,2.6,0.3,5.4,1.6,8.8c0.6,1.6,1.4,3.2,2.3,4.8l0,0c0.9,1.7,2,3.4,3.2,5.1c0.4,0.5,0.8,1.1,1.1,1.6
				c0.2,0.2,0.4,0.5,0.5,0.7c0.2,0.2,0.4,0.3,0.7,0.3c0.1,0,0.3,0,0.4-0.1c0,0,0,0,0.1,0s0.2-0.1,0.2-0.1s0.1,0,0.1-0.1
				c0,0,0.1,0,0.1-0.1c0.1,0,0.1-0.1,0.2-0.1c0,0,0.1,0,0.1-0.1c0.1,0,0.2-0.1,0.2-0.1h0.1l0,0c0.1,0,0.1,0,0.2-0.1l0,0
				c0.1,0,0.1,0,0.2,0c0.1,0,0.2,0,0.3-0.1c0.1,0,0.1,0,0.2,0h0.1c0.1,0,0.2,0,0.2,0c0.1,0,0.2,0,0.3,0s0.2,0,0.2,0h0.2
				c0.1,0,0.2,0,0.3,0s0.2,0,0.2,0h0.1c0.1,0,0.1,0,0.2,0c0.1,0,0.2,0,0.3,0.1c0.1,0,0.1,0,0.2,0l0,0c0.1,0,0.1,0,0.2,0.1l0,0h0.1
				c0.1,0,0.2,0.1,0.4,0.1h0.1c0.1,0,0.2,0.1,0.2,0.1s0.1,0,0.1,0.1c0,0,0.1,0,0.1,0.1c0.1,0,0.1,0.1,0.2,0.1
				c0.1,0.1,0.3,0.1,0.4,0.1l0,0c0.3,0,0.5-0.1,0.7-0.3c0.2-0.2,0.4-0.5,0.5-0.7c0.4-0.5,0.8-1,1.1-1.6c1.2-1.8,2.3-3.5,3.2-5.1l0,0
				l0,0c0.9-1.6,1.7-3.2,2.3-4.8C47.3,14.6,47.9,11.7,47.6,9.1z M44.4,17.3c-1.2,3-2.9,6.1-5.3,9.6c-0.4,0.6-0.8,1.1-1.2,1.6
				c-0.1-0.1-0.3-0.1-0.4-0.2c0,0-0.1,0-0.1-0.1c-0.1,0-0.1,0-0.2-0.1c-0.1,0-0.1,0-0.2-0.1c-0.1,0-0.1,0-0.2-0.1
				c-0.3-0.1-0.5-0.1-0.8-0.2l0,0h-0.1h-0.1c-0.1,0-0.1,0-0.2,0c-0.1,0-0.1,0-0.2,0h-0.1c-0.1,0-0.1,0-0.2,0c-0.1,0-0.3,0-0.4,0
				c-0.1,0-0.3,0-0.4,0c-0.1,0-0.1,0-0.2,0l0,0H34c-0.1,0-0.1,0-0.2,0c-0.1,0-0.1,0-0.2,0h-0.1h-0.1c0,0,0,0-0.1,0
				c-0.2,0-0.4,0.1-0.6,0.1c-0.1,0-0.1,0-0.2,0.1c-0.1,0-0.1,0-0.2,0.1c-0.1,0-0.1,0-0.2,0.1c-0.1,0-0.1,0-0.2,0.1
				c0,0-0.1,0-0.1,0.1c-0.1,0.1-0.3,0.1-0.4,0.2c-0.4-0.5-0.8-1.1-1.2-1.6c-2.4-3.4-4.2-6.6-5.3-9.6c-1.2-3.1-1.7-5.8-1.5-8.1
				c0.1-0.8,0.3-2.2,1.2-3.1c0.3-0.4,0.7-0.6,1.1-0.7c0.1,0,0.3,0,0.5,0c0.5,0,1.2,0,1.8-0.6c0.3-0.2,0.4-0.6,0.6-0.8
				c0.1-0.1,0.1-0.3,0.2-0.3c0.4-0.4,0.9-0.6,1.2-0.6c0.3,0,0.5,0,0.7,0c0.5,0,1.1,0,1.9-0.5c0.1-0.1,0.3-0.2,0.4-0.2
				c0.5-0.3,0.9-0.6,1.7-0.6c1,0,1.3,0.2,1.7,0.5c0.3,0.2,0.7,0.5,1.3,0.7c0.4,0,0.7,0,1.1,0c0.5,0,0.9,0,1.3,0.2
				c0.2,0.1,0.3,0.4,0.5,0.6c0.2,0.3,0.4,0.7,0.7,1c0.6,0.6,1.3,0.6,1.8,0.6c0.3,0,0.5,0,0.7,0.1c1.3,0.5,2,2.3,2.1,3.8
				C46.1,11.5,45.6,14.2,44.4,17.3z"/>
			
				<linearGradient id="SVGID_1_" gradientUnits="userSpaceOnUse" x1="34.65" y1="39.4424" x2="34.65" y2="66.296" gradientTransform="matrix(1 0 0 -1 0 68)">
				<stop  offset="0" style="stop-color:#F5C4B0"/>
				<stop  offset="0.2583" style="stop-color:#F4BDA7"/>
				<stop  offset="0.6863" style="stop-color:#F1AA8D"/>
				<stop  offset="0.9944" style="stop-color:#EF9977"/>
			</linearGradient>
			<path class="st1" d="M44.4,17.3c-1.2,3-2.9,6.1-5.3,9.6c-0.4,0.6-0.8,1.1-1.2,1.6c-0.1-0.1-0.3-0.1-0.4-0.2c0,0-0.1,0-0.1-0.1
				c-0.1,0-0.1,0-0.2-0.1c-0.1,0-0.1,0-0.2-0.1c-0.1,0-0.1,0-0.2-0.1c-0.3-0.1-0.5-0.1-0.8-0.2l0,0h-0.1l2.5-8.3
				c0.1-0.5-0.1-0.9-0.6-1.1c-0.5-0.1-0.9,0.1-1.1,0.6l-2,6.7l-2-6.7c-0.1-0.4-0.6-0.7-1.1-0.6c-0.5,0.1-0.7,0.6-0.6,1.1l2.5,8.3
				h-0.1c0,0,0,0-0.1,0c-0.2,0-0.4,0.1-0.6,0.1c-0.1,0-0.1,0-0.2,0.1c-0.1,0-0.1,0-0.2,0.1c-0.1,0-0.1,0-0.2,0.1
				c-0.1,0-0.1,0-0.2,0.1c0,0-0.1,0-0.1,0.1c-0.1,0.1-0.3,0.1-0.4,0.2c-0.4-0.5-0.8-1.1-1.2-1.6c-2.4-3.4-4.2-6.6-5.3-9.6
				c-1.2-3.1-1.7-5.8-1.5-8.1c0.1-0.8,0.3-2.2,1.2-3.1c0.3-0.4,0.7-0.6,1.1-0.7c0.1,0,0.3,0,0.5,0c0.5,0,1.2,0,1.8-0.6
				c0.3-0.2,0.4-0.6,0.6-0.8c0.1-0.1,0.1-0.3,0.2-0.3c0.4-0.4,0.9-0.6,1.2-0.6c0.3,0,0.5,0,0.7,0c0.5,0,1.1,0,1.9-0.5
				c0.1-0.1,0.3-0.2,0.4-0.2c0.5-0.3,0.9-0.6,1.7-0.6c1,0,1.3,0.2,1.7,0.5c0.3,0.2,0.7,0.5,1.3,0.7c0.4,0,0.7,0,1.1,0
				c0.5,0,0.9,0,1.3,0.2c0.2,0.1,0.3,0.4,0.5,0.6c0.2,0.3,0.4,0.7,0.7,1c0.6,0.6,1.3,0.6,1.8,0.6c0.3,0,0.5,0,0.7,0.1
				c1.3,0.5,2,2.3,2.1,3.8C46.1,11.5,45.6,14.2,44.4,17.3z"/>
		</g>
		<g>
			<path class="st0" d="M31.1,29.7c-0.2-0.2-0.3-0.5-0.5-0.7c-0.4-0.5-0.8-1.1-1.1-1.6c-1.3-1.7-2.6-3.3-3.9-4.7l0,0
				c-1.3-1.4-2.6-2.6-3.9-3.7c-2.8-2.3-5.4-3.7-7.9-4.3c-0.6-0.1-1.3-0.2-1.9-0.2c-1.8,0-3.2,0.6-4,1.7c-0.3,0.4-0.5,0.8-0.6,1.2
				C7.2,17.8,7.1,17.9,7,18c-0.2,0.1-0.4,0.2-0.7,0.2c-0.5,0.1-1.1,0.3-1.6,0.7c-0.6,0.5-0.8,1.2-1,1.8c-0.1,0.3-0.2,0.6-0.3,0.8
				c-0.1,0.2-0.3,0.3-0.5,0.5c-0.5,0.4-1.2,0.8-1.7,2.3c-0.4,1.3-0.2,2.2,0,2.8c0,0.1,0.1,0.2,0.1,0.3c0.1,0.5,0,0.6-0.1,1.1
				C1.1,28.7,1,29,1,29.4c-0.2,0.9,0,1.8,0.4,2.5c0.2,0.3,0.4,0.5,0.5,0.6s0.2,0.2,0.2,0.3c0.1,0.1,0,0.3-0.1,0.7
				c-0.1,0.3-0.2,0.6-0.2,0.9c0,0.7,0.2,1.4,0.6,2.2c0.7,1.2,1.9,2.2,3.4,2.8c1.9,0.8,4.2,1.2,7,1.2c0.6,0,1.3,0,2-0.1
				c1.7-0.1,3.4-0.3,5.3-0.7l0,0c1.9-0.4,3.8-0.9,5.9-1.5c0.6-0.2,1.2-0.4,1.9-0.6c0.3-0.1,0.6-0.2,0.8-0.3c0.3-0.1,0.5-0.3,0.5-0.6
				c0-0.1,0-0.2,0-0.4c0-0.1,0-0.2-0.1-0.2v-0.1l0,0V36c0-0.1,0-0.1,0-0.2s0-0.1,0-0.2c0-0.1,0-0.1,0-0.2c0-0.1,0-0.1,0-0.2
				c0-0.1,0-0.1,0-0.2c0-0.1,0-0.2,0-0.3s0-0.1,0-0.2c0-0.1,0-0.1,0-0.2v-0.1l0,0v-0.1c0,0,0,0,0-0.1v-0.1l0,0v-0.1
				c0-0.1,0-0.1,0-0.2c0-0.1,0-0.2,0.1-0.3l0,0l0,0l0,0l0,0l0,0c0-0.1,0.1-0.2,0.1-0.3v-0.1v-0.1c0,0,0-0.1,0.1-0.1l0,0
				c0,0,0-0.1,0.1-0.1c0,0,0-0.1,0.1-0.1c0-0.1,0.1-0.1,0.1-0.2l0.1-0.1l0.1-0.1L30,32c0.1-0.1,0.2-0.2,0.2-0.3l0.1-0.1
				c0.1-0.1,0.2-0.2,0.3-0.3l0.1-0.1l0.1-0.1c0.1,0,0.1-0.1,0.2-0.1c0.1-0.1,0.2-0.2,0.2-0.4C31.3,30.3,31.3,30,31.1,29.7z M14.6,39
				c-0.6,0-1.2,0-1.8,0c-2.5,0-4.6-0.4-6.3-1.1c-0.7-0.3-2-1-2.6-2.1c-0.2-0.4-0.4-0.9-0.3-1.3c0-0.1,0.1-0.3,0.1-0.5
				c0.1-0.5,0.3-1.1,0-1.8c-0.2-0.3-0.4-0.6-0.6-0.8c-0.1-0.1-0.2-0.2-0.3-0.3c-0.3-0.5-0.3-1-0.2-1.4c0-0.3,0.1-0.5,0.2-0.7
				c0.2-0.5,0.3-1,0.1-2c0-0.1-0.1-0.3-0.1-0.4c-0.2-0.6-0.3-1,0-1.8c0.3-0.9,0.6-1.1,1-1.4c0.3-0.2,0.7-0.5,1.1-1.1
				c0.2-0.4,0.3-0.7,0.5-1.1c0.2-0.5,0.3-0.9,0.6-1.1C6.1,20,6.4,20,6.7,19.9c0.4-0.1,0.8-0.2,1.1-0.4c0.7-0.4,0.9-1.1,1.1-1.5
				c0.1-0.3,0.2-0.5,0.3-0.6c0.7-0.8,1.8-1,2.7-1c0.5,0,1,0.1,1.5,0.2c2.2,0.5,4.6,1.8,7.2,4c2.5,2.1,4.9,4.7,7.5,8
				c0.4,0.5,0.8,1.1,1.2,1.6c-0.2,0.2-0.3,0.3-0.4,0.5s-0.2,0.3-0.3,0.5c-0.2,0.3-0.4,0.6-0.5,0.8c0,0,0,0.1-0.1,0.1
				c0,0.1-0.1,0.1-0.1,0.2c0,0.1,0,0.1-0.1,0.2c0,0.1,0,0.1-0.1,0.2c0,0.1,0,0.1-0.1,0.2l0,0l0,0c0,0,0,0.1-0.1,0.2
				c0,0.1,0,0.1-0.1,0.2c0,0.1,0,0.1,0,0.2v0.1c0,0.1,0,0.2-0.1,0.3c0,0,0,0.1,0,0.2l0,0c0,0.1,0,0.1,0,0.2v0.1c0,0,0,0,0,0.1v0.1
				v0.1c0,0.1,0,0.1,0,0.2V35c0,0.1,0,0.1,0,0.2l0,0c0,0.1,0,0.2,0,0.4c0,0.1,0,0.1,0,0.2v0.1l0,0V36c0,0,0,0,0,0.1
				c0,0.2,0,0.3,0.1,0.5c-0.6,0.2-1.3,0.4-1.9,0.6C21.4,38.1,17.9,38.8,14.6,39z"/>
			
				<linearGradient id="SVGID_00000059270022783816625290000004821027803673127585_" gradientUnits="userSpaceOnUse" x1="29.3" y1="40.3" x2="2.5402" y2="40.3" gradientTransform="matrix(1 0 0 -1 0 68)">
				<stop  offset="0" style="stop-color:#F5C4B0"/>
				<stop  offset="0.2583" style="stop-color:#F4BDA7"/>
				<stop  offset="0.6863" style="stop-color:#F1AA8D"/>
				<stop  offset="0.9944" style="stop-color:#EF9977"/>
			</linearGradient>
			<path style="fill:url(#SVGID_00000059270022783816625290000004821027803673127585_);" d="M19.7,27.1c-0.3,0.4-0.2,0.9,0.2,1.2
				l5.7,4l-7-0.1c-0.5,0-0.9,0.4-0.9,0.8c0,0.5,0.4,0.9,0.8,0.9l8.7,0.2c0,0,0,0,0,0.1v0.1v0.1c0,0.1,0,0.1,0,0.2v0.1
				c0,0.1,0,0.1,0,0.2l0,0c0,0.1,0,0.2,0,0.4c0,0.1,0,0.1,0,0.2v0.1l0,0v0.1c0,0,0,0,0,0.1c0,0.2,0,0.3,0.1,0.5
				c-0.6,0.2-1.3,0.4-1.9,0.6c-4,1.2-7.5,1.9-10.8,2.1c-0.6,0-1.2,0-1.8,0c-2.5,0-4.6-0.4-6.3-1.1c-0.7-0.3-2-1-2.6-2.1
				c-0.2-0.4-0.4-0.9-0.3-1.3c0-0.1,0.1-0.3,0.1-0.5c0.1-0.5,0.3-1.1,0-1.8c-0.2-0.3-0.4-0.6-0.6-0.8c-0.1-0.1-0.2-0.2-0.3-0.3
				c-0.3-0.5-0.3-1-0.2-1.4c0-0.3,0.1-0.5,0.2-0.7c0.2-0.5,0.3-1,0.1-2c0-0.1-0.1-0.3-0.1-0.4c-0.2-0.6-0.3-1,0-1.8
				c0.3-0.9,0.6-1.1,1-1.4c0.3-0.2,0.7-0.5,1.1-1.1c0.2-0.4,0.3-0.7,0.5-1.1c0.2-0.5,0.3-0.9,0.6-1.1C6.1,20,6.4,20,6.7,19.9
				c0.4-0.1,0.8-0.2,1.1-0.4c0.7-0.4,0.9-1.1,1.1-1.5c0.1-0.3,0.2-0.5,0.3-0.6c0.7-0.8,1.8-1,2.7-1c0.5,0,1,0.1,1.5,0.2
				c2.2,0.5,4.6,1.8,7.2,4c2.5,2.1,4.9,4.7,7.5,8c0.4,0.5,0.8,1.1,1.2,1.6c-0.5,0.5-0.9,1.1-1.3,1.8l-7.2-5
				C20.5,26.6,20,26.7,19.7,27.1z"/>
		</g>
		<g>
			<path class="st0" d="M35,42.6c0-0.3,0-0.6,0-0.9c0-0.3-0.2-0.5-0.4-0.7c-0.1-0.1-0.2-0.1-0.4-0.1l0,0l0,0
				c-1.3-0.1-2.5-0.6-3.4-1.5c-0.1-0.1-0.1-0.1-0.2-0.2c-0.1-0.1-0.1-0.1-0.2-0.2l-0.1-0.1c0,0-0.1-0.1-0.1-0.2
				c0-0.1-0.1-0.1-0.1-0.2c-0.1-0.1-0.2-0.2-0.2-0.3s-0.1-0.1-0.1-0.2l-0.1-0.1c0-0.1-0.1-0.1-0.1-0.2c0-0.1-0.1-0.1-0.1-0.2l0,0
				c0-0.1-0.1-0.1-0.1-0.2l0,0l0,0l0,0c-0.1-0.1-0.1-0.2-0.3-0.3c-0.2-0.2-0.5-0.2-0.8-0.2c-0.3,0.1-0.6,0.2-0.8,0.3l0,0
				c-0.6,0.2-1.2,0.4-1.8,0.6c-2,0.7-3.9,1.4-5.6,2.2l0,0c-1.7,0.8-3.3,1.6-4.7,2.5c-3.1,2-5.2,4-6.5,6.2c-1,1.7-1.7,4.2-0.5,6.1
				c0.3,0.4,0.6,0.7,0.9,0.9C9.6,56,9.7,56,9.7,56.2s0,0.5,0,0.7c0,0.5-0.1,1.1,0.2,1.7c0.3,0.7,0.9,1.1,1.4,1.5
				c0.2,0.2,0.5,0.4,0.7,0.6c0.2,0.2,0.2,0.3,0.3,0.7c0.2,0.6,0.4,1.4,1.7,2.3c1.1,0.8,2,0.8,2.7,0.9c0.1,0,0.2,0,0.4,0
				c0.5,0,0.6,0.2,1,0.4c0.2,0.1,0.5,0.3,0.8,0.5c0.6,0.3,1.2,0.5,1.8,0.5c0.2,0,0.5,0,0.7-0.1c0.3-0.1,0.6-0.2,0.8-0.3
				c0.1-0.1,0.3-0.1,0.3-0.2l0,0c0.1,0,0.3,0.1,0.6,0.3c0.2,0.2,0.5,0.3,0.8,0.5c0.4,0.2,0.9,0.2,1.3,0.2c0.3,0,0.6,0,0.9-0.1
				c1.3-0.3,2.6-1.1,3.7-2.4c1.7-1.9,3-4.6,3.9-8.1c0.4-1.6,0.7-3.4,1-5.2c0.2-1.9,0.4-3.9,0.4-6.1C35.1,43.9,35.1,43.3,35,42.6z
				 M33.3,44.5c-0.1,4.2-0.5,7.8-1.3,10.9c-0.8,3.3-2,5.7-3.5,7.4c-0.9,1-1.8,1.6-2.8,1.8c-0.2,0-0.4,0.1-0.6,0.1
				c-0.3,0-0.5,0-0.7-0.1c-0.1-0.1-0.3-0.2-0.5-0.3c-0.4-0.3-0.9-0.6-1.5-0.6c-0.1,0-0.1,0-0.2,0c-0.4,0-0.7,0.2-0.9,0.3
				c-0.1,0.1-0.3,0.1-0.3,0.2c-0.4,0.1-0.9,0-1.4-0.2c-0.2-0.1-0.4-0.3-0.6-0.4c-0.4-0.3-0.9-0.6-1.8-0.7c-0.2,0-0.3,0-0.4,0
				c-0.6,0-1,0-1.7-0.5c-0.8-0.6-0.9-0.9-1-1.4c-0.1-0.4-0.3-0.9-0.7-1.3c-0.3-0.3-0.6-0.5-0.9-0.8c-0.4-0.3-0.7-0.6-0.9-0.9
				c-0.1-0.2-0.1-0.5,0-0.8c0-0.4,0.1-0.8,0-1.2c-0.2-0.8-0.7-1.2-1.1-1.5C10,54.2,9.9,54,9.8,53.9c-0.8-1.2-0.2-3,0.5-4.3
				c1.2-2,3.1-3.8,6-5.6c2.7-1.7,6-3.2,10-4.6c0.6-0.2,1.3-0.4,1.9-0.6c0,0,0,0,0,0.1s0.1,0.1,0.1,0.2c0,0.1,0.1,0.1,0.1,0.2
				l0.1,0.1l0,0l0.1,0.1c0,0.1,0.1,0.1,0.1,0.1c0,0.1,0.1,0.1,0.1,0.2l0,0c0,0.1,0.1,0.1,0.1,0.2c0,0.1,0.1,0.1,0.1,0.2
				c0.1,0.1,0.2,0.2,0.3,0.3l0.1,0.1c0.5,0.5,1.1,1,1.8,1.3c0.6,0.3,1.4,0.6,2.1,0.7l0,0C33.4,43.2,33.3,43.9,33.3,44.5z"/>
			
				<linearGradient id="SVGID_00000124853028034803922720000009428684707169401505_" gradientUnits="userSpaceOnUse" x1="21.3717" y1="29.2866" x2="21.3717" y2="3.2756" gradientTransform="matrix(1 0 0 -1 0 68)">
				<stop  offset="0" style="stop-color:#F5C4B0"/>
				<stop  offset="0.2583" style="stop-color:#F4BDA7"/>
				<stop  offset="0.6863" style="stop-color:#F1AA8D"/>
				<stop  offset="0.9944" style="stop-color:#EF9977"/>
			</linearGradient>
			<path style="fill:url(#SVGID_00000124853028034803922720000009428684707169401505_);" d="M33.3,44.5c-0.1,4.2-0.5,7.8-1.3,10.9
				c-0.8,3.3-2,5.7-3.5,7.4c-0.9,1-1.8,1.6-2.8,1.8c-0.2,0-0.4,0.1-0.6,0.1c-0.3,0-0.5,0-0.7-0.1c-0.1-0.1-0.3-0.2-0.5-0.3
				c-0.4-0.3-0.9-0.6-1.5-0.6c-0.1,0-0.1,0-0.2,0c-0.4,0-0.7,0.2-0.9,0.3c-0.1,0.1-0.3,0.1-0.3,0.2c-0.4,0.1-0.9,0-1.4-0.2
				c-0.2-0.1-0.4-0.3-0.6-0.4c-0.4-0.3-0.9-0.6-1.8-0.7c-0.2,0-0.3,0-0.4,0c-0.6,0-1,0-1.7-0.5c-0.8-0.6-0.9-0.9-1-1.4
				c-0.1-0.4-0.3-0.9-0.7-1.3c-0.3-0.3-0.6-0.5-0.9-0.8c-0.4-0.3-0.7-0.6-0.9-0.9c-0.1-0.2-0.1-0.5,0-0.8c0-0.4,0.1-0.8,0-1.2
				c-0.2-0.8-0.7-1.2-1.1-1.5C10,54.2,9.9,54,9.8,53.9c-0.8-1.2-0.2-3,0.5-4.3c1.2-2,3.1-3.8,6-5.6c2.7-1.7,6-3.2,10-4.6
				c0.6-0.2,1.3-0.4,1.9-0.6c0,0,0,0,0,0.1s0.1,0.1,0.1,0.2c0,0.1,0.1,0.1,0.1,0.2l0.1,0.1l0,0l0.1,0.1c0,0.1,0.1,0.1,0.1,0.1
				c0,0.1,0.1,0.1,0.1,0.2l0,0c0,0.1,0.1,0.1,0.1,0.2c0,0.1,0.1,0.1,0.1,0.2c0.1,0.1,0.2,0.2,0.3,0.3l0.1,0.1l-7,5.3
				c-0.4,0.3-0.4,0.8-0.2,1.2c0.3,0.4,0.8,0.4,1.2,0.2l5.5-4.2l-2.3,6.6c-0.2,0.4,0.1,0.9,0.5,1.1c0.1,0,0.2,0,0.3,0
				c0.4,0,0.7-0.2,0.8-0.6l2.9-8.2c0.6,0.3,1.3,0.6,2.1,0.7C33.4,43.2,33.3,43.9,33.3,44.5z"/>
		</g>
		<g>
			<path class="st0" d="M60.5,48.7c-1.3-2.2-3.5-4.2-6.5-6.2c-1.4-0.9-3-1.8-4.7-2.5l0,0c-1.7-0.8-3.6-1.5-5.6-2.2
				c-0.6-0.2-1.2-0.4-1.8-0.6c-0.3-0.1-0.6-0.2-0.8-0.3c-0.3-0.1-0.6,0-0.8,0.2c-0.1,0.1-0.2,0.2-0.3,0.3l0,0l0,0c0,0,0,0,0,0.1
				s-0.1,0.1-0.1,0.2c0,0.1-0.1,0.1-0.1,0.2c0,0,0,0.1-0.1,0.1c0,0,0,0.1-0.1,0.1c0,0,0,0.1-0.1,0.1l-0.1,0.1l-0.1,0.1l-0.1,0.1
				c0,0,0,0,0,0.1l-0.1,0.1L39,38.8l-0.1,0.1L38.8,39c-0.1,0.1-0.1,0.1-0.2,0.2l-0.1,0.1c-0.1,0.1-0.1,0.1-0.2,0.2l-0.1,0.1
				c-0.9,0.7-2,1.1-3.1,1.2l0,0l0,0c-0.1,0-0.3,0.1-0.4,0.1c-0.2,0.1-0.4,0.4-0.4,0.7s0,0.6,0,0.9c0,0.6,0,1.3,0,1.9
				c0,2.2,0.2,4.2,0.4,6.1c0.2,1.9,0.5,3.6,1,5.2c0.9,3.5,2.2,6.2,3.9,8.1c1.4,1.5,3.1,2.5,4.6,2.5c0.4,0,0.7,0,1-0.1
				c0.5-0.1,0.9-0.4,1.2-0.6s0.4-0.3,0.6-0.3c0.2,0,0.4,0.1,0.7,0.2C48,65.8,48.4,66,49,66c0.1,0,0.2,0,0.3,0
				c0.8-0.1,1.3-0.5,1.8-0.8c0.3-0.2,0.5-0.3,0.7-0.4s0.3-0.1,0.5-0.1c0.1,0,0.1,0,0.2,0c0.1,0,0.2,0,0.3,0c0.6,0,1.4-0.1,2.4-0.9
				c1.1-0.8,1.4-1.7,1.7-2.3c0-0.1,0.1-0.2,0.1-0.3c0.2-0.4,0.3-0.6,0.7-0.8c0.2-0.2,0.5-0.3,0.7-0.6c0.7-0.6,1.1-1.4,1.1-2.3
				c0-0.3,0-0.6-0.1-0.8c0-0.1-0.1-0.3,0-0.4c0-0.1,0.2-0.3,0.5-0.5c0.2-0.2,0.5-0.4,0.7-0.6c0.5-0.6,0.7-1.3,0.8-2.1
				C61.7,51.7,61.4,50.1,60.5,48.7z M59.9,52.8c-0.1,0.5-0.2,0.9-0.5,1.2c-0.1,0.1-0.2,0.2-0.4,0.4c-0.4,0.3-0.9,0.7-1.1,1.5
				c-0.1,0.4,0,0.7,0,1c0,0.1,0.1,0.3,0,0.4c-0.1,0.6-0.4,1-0.6,1.2c-0.2,0.2-0.4,0.3-0.6,0.5c-0.4,0.3-0.9,0.7-1.2,1.5
				c-0.1,0.1-0.1,0.3-0.2,0.4c-0.2,0.5-0.4,1-1.1,1.5c-0.3,0.3-0.6,0.4-0.8,0.5S53,63,52.8,63c-0.1,0-0.2,0-0.2,0
				c-0.1,0-0.2,0-0.3,0c-0.3,0-0.7,0-1.2,0.2c-0.4,0.2-0.7,0.4-1,0.6c-0.4,0.3-0.8,0.5-1.1,0.6c-0.2,0-0.5-0.1-0.8-0.2
				s-0.7-0.3-1.2-0.3c-0.1,0-0.2,0-0.2,0c-0.7,0-1.2,0.4-1.6,0.6c-0.2,0.2-0.4,0.3-0.6,0.3c-0.2,0.1-0.4,0.1-0.6,0.1
				c-1.2,0-2.5-1-3.3-1.9c-1.5-1.7-2.7-4.2-3.5-7.4c-0.8-3.1-1.2-6.7-1.3-10.9c0-0.7,0-1.4,0-2l0,0c0.7-0.1,1.4-0.4,2.1-0.7
				c0.7-0.3,1.3-0.8,1.8-1.3c0.1-0.1,0.2-0.3,0.4-0.4c0-0.1,0.1-0.1,0.1-0.2c0-0.1,0.1-0.1,0.1-0.2l0,0c0-0.1,0.1-0.1,0.1-0.2
				l0.1-0.1l0.1-0.1l0,0l0.1-0.1c0-0.1,0.1-0.1,0.1-0.2c0.1-0.1,0.1-0.2,0.2-0.3l0,0c0.6,0.2,1.3,0.4,1.9,0.6c4,1.4,7.2,2.9,10,4.6
				c2.9,1.8,4.8,3.7,6,5.6C59.4,50.2,60,51.5,59.9,52.8z"/>
			
				<linearGradient id="SVGID_00000082340080266817153130000003725058942838311352_" gradientUnits="userSpaceOnUse" x1="39.9435" y1="28.59" x2="53.478" y2="5.1477" gradientTransform="matrix(1 0 0 -1 0 68)">
				<stop  offset="0" style="stop-color:#F5C4B0"/>
				<stop  offset="0.2583" style="stop-color:#F4BDA7"/>
				<stop  offset="0.6863" style="stop-color:#F1AA8D"/>
				<stop  offset="0.9944" style="stop-color:#EF9977"/>
			</linearGradient>
			<path style="fill:url(#SVGID_00000082340080266817153130000003725058942838311352_);" d="M59.9,52.8c-0.1,0.5-0.2,0.9-0.5,1.2
				c-0.1,0.1-0.2,0.2-0.4,0.4c-0.4,0.3-0.9,0.7-1.1,1.5c-0.1,0.4,0,0.7,0,1c0,0.1,0.1,0.3,0,0.4c-0.1,0.6-0.4,1-0.6,1.2
				c-0.2,0.2-0.4,0.3-0.6,0.5c-0.4,0.3-0.9,0.7-1.2,1.5c-0.1,0.1-0.1,0.3-0.2,0.4c-0.2,0.5-0.4,1-1.1,1.5c-0.3,0.3-0.6,0.4-0.8,0.5
				S53,63,52.8,63c-0.1,0-0.2,0-0.2,0c-0.1,0-0.2,0-0.3,0c-0.3,0-0.7,0-1.2,0.2c-0.4,0.2-0.7,0.4-1,0.6c-0.4,0.3-0.8,0.5-1.1,0.6
				c-0.2,0-0.5-0.1-0.8-0.2s-0.7-0.3-1.2-0.3c-0.1,0-0.2,0-0.2,0c-0.7,0-1.2,0.4-1.6,0.6c-0.2,0.2-0.4,0.3-0.6,0.3
				c-0.2,0.1-0.4,0.1-0.6,0.1c-1.2,0-2.5-1-3.3-1.9c-1.5-1.7-2.7-4.2-3.5-7.4c-0.8-3.1-1.2-6.7-1.3-10.9c0-0.7,0-1.4,0-2
				c0.7-0.1,1.4-0.4,2.1-0.7l2.9,8.2c0.1,0.4,0.5,0.6,0.8,0.6c0.1,0,0.2,0,0.3,0c0.4-0.2,0.7-0.6,0.5-1.1l-2.3-6.6l5.5,4.2
				c0.4,0.3,0.9,0.2,1.2-0.2s0.2-0.9-0.2-1.2l-7-5.3c0.1-0.1,0.2-0.3,0.4-0.4c0-0.1,0.1-0.1,0.1-0.2c0-0.1,0.1-0.1,0.1-0.2l0,0
				c0-0.1,0.1-0.1,0.1-0.2l0.1-0.1l0.1-0.1l0,0l0.1-0.1c0-0.1,0.1-0.1,0.1-0.2c0.1-0.1,0.1-0.2,0.2-0.3l0,0c0.6,0.2,1.3,0.4,1.9,0.6
				c4,1.4,7.2,2.9,10,4.6c2.9,1.8,4.8,3.7,6,5.6C59.4,50.2,60,51.5,59.9,52.8z"/>
		</g>
		<g>
			<path class="st0" d="M68.2,28.8c-0.1-0.3-0.2-0.6-0.2-0.9c0-0.2,0-0.4,0.1-0.7c0.2-0.6,0.5-1.4,0-2.9C67.7,23,67,22.4,66.4,22
				c-0.1-0.1-0.2-0.2-0.3-0.2c-0.4-0.3-0.4-0.5-0.6-0.9c-0.1-0.2-0.2-0.5-0.4-0.9c-0.4-0.8-1-1.4-1.8-1.8C63,18.1,62.7,18,62.5,18
				c-0.1,0-0.3,0-0.3-0.1c-0.1-0.1-0.2-0.2-0.3-0.6c-0.1-0.3-0.2-0.6-0.4-0.9c-0.4-0.6-1-1.1-1.7-1.4c-0.7-0.3-1.6-0.5-2.5-0.5
				c-0.6,0-1.3,0.1-1.9,0.2c-2.5,0.6-5.1,2-7.9,4.3c-1.3,1.1-2.6,2.3-3.9,3.7l0,0l0,0c-1.3,1.4-2.6,2.9-3.9,4.7
				c-0.4,0.5-0.8,1-1.1,1.6c-0.2,0.2-0.3,0.5-0.5,0.7c-0.1,0.3-0.1,0.6,0,0.8c0,0.1,0.1,0.3,0.2,0.4c0,0,0,0,0.1,0l0.1,0.1l0.1,0.1
				c0.2,0.1,0.3,0.3,0.4,0.4c0.2,0.2,0.3,0.4,0.5,0.7c0,0.1,0.1,0.1,0.1,0.2c0.1,0.1,0.1,0.2,0.2,0.3v0.1l0,0c0,0,0,0.1,0.1,0.1V33
				v0.1c0,0,0,0,0,0.1s0.1,0.2,0.1,0.3l0,0l0,0l0,0l0,0l0,0l0,0l0,0c0,0.1,0,0.1,0,0.2v0.1v0.1V34l0,0v0.1v0.1v0.1l0,0v0.1
				c0,0.1,0,0.1,0,0.2c0,0.1,0,0.1,0,0.2c0,0.1,0,0.2,0,0.3s0,0.1,0,0.2c0,0.1,0,0.1,0,0.2c0,0.1,0,0.1,0,0.2c0,0.1,0,0.1,0,0.2l0,0
				V36v0.1c0,0,0,0,0,0.1v0.1v0.1v0.1c0,0.1,0,0.3,0,0.4c0.1,0.3,0.3,0.5,0.5,0.6c0.3,0.1,0.6,0.2,0.8,0.3l0,0
				c0.6,0.2,1.2,0.4,1.9,0.6c2.1,0.6,4,1.1,5.9,1.5l0,0c1.9,0.4,3.6,0.6,5.3,0.7c0.7,0,1.3,0.1,2,0.1c2.7,0,5-0.4,7-1.2
				c1.8-0.8,3.9-2.4,4-4.6c0-0.5-0.1-1-0.2-1.3c-0.1-0.4-0.2-0.5-0.1-0.7s0.2-0.4,0.4-0.6c0.3-0.4,0.7-0.9,0.8-1.5
				C68.5,30,68.3,29.3,68.2,28.8z M66.7,30.5c0,0.2-0.2,0.4-0.5,0.7c-0.2,0.3-0.5,0.6-0.7,1c-0.3,0.8-0.1,1.4,0,1.9
				c0.1,0.3,0.2,0.5,0.1,0.7c-0.1,1.4-1.6,2.6-2.9,3.2C62,38.3,61,38.6,60,38.8s-2.2,0.3-3.4,0.3c-0.6,0-1.2,0-1.9-0.1
				c-3.2-0.2-6.8-0.9-10.8-2.1c-0.6-0.2-1.3-0.4-1.9-0.6l0,0l0,0c0-0.1,0-0.3,0-0.5c0,0,0,0,0-0.1v-0.1v-0.1c0-0.1,0-0.1,0-0.2
				c0-0.1,0-0.2,0-0.4l0,0c0-0.1,0-0.1,0-0.2v-0.1c0-0.1,0-0.1,0-0.2v-0.1v-0.1c0,0,0,0,0-0.1V34c0-0.1,0-0.1,0-0.2l0,0
				c0-0.1,0-0.1,0-0.2c0-0.1,0-0.2-0.1-0.3v-0.1c0-0.1,0-0.1,0-0.2v-0.1v-0.1v-0.1c0-0.1,0-0.1-0.1-0.1l0,0v-0.1v-0.1
				c0-0.1,0-0.1-0.1-0.2c0-0.1-0.1-0.1-0.1-0.2c0,0,0-0.1-0.1-0.1c-0.1-0.1-0.1-0.2-0.2-0.3c0-0.1-0.1-0.1-0.1-0.2
				c-0.1-0.1-0.1-0.2-0.2-0.3l0,0c-0.1-0.1-0.1-0.2-0.2-0.3c-0.1-0.1-0.1-0.2-0.2-0.3c0-0.1-0.1-0.1-0.1-0.2
				c-0.1-0.1-0.2-0.2-0.2-0.3l-0.1-0.1c0.4-0.5,0.8-1.1,1.2-1.6c2.5-3.4,5-6,7.5-8c2.6-2.2,5-3.4,7.2-4c0.5-0.1,1-0.2,1.5-0.2
				c0.7,0,1.3,0.1,1.8,0.4c0.5,0.2,0.8,0.5,1,0.8c0.1,0.1,0.1,0.3,0.2,0.5c0.2,0.5,0.4,1.1,1.1,1.5c0.3,0.2,0.7,0.2,1,0.3
				c0.1,0,0.3,0,0.4,0.1c0.5,0.2,0.8,0.7,1,1c0.1,0.3,0.2,0.5,0.3,0.7c0.2,0.5,0.3,1,1.1,1.7c0.1,0.1,0.2,0.2,0.3,0.3
				c0.5,0.4,0.8,0.6,1.1,1.5c0.3,0.9,0.2,1.3,0,1.8c-0.1,0.4-0.3,0.8-0.2,1.5c0,0.4,0.1,0.8,0.2,1.1C66.7,29.7,66.8,30.1,66.7,30.5z
				"/>
			
				<linearGradient id="SVGID_00000183237412645502295280000005251420429110540451_" gradientUnits="userSpaceOnUse" x1="45.3756" y1="28.3753" x2="64.0798" y2="47.0796" gradientTransform="matrix(1 0 0 -1 0 68)">
				<stop  offset="0" style="stop-color:#F5C4B0"/>
				<stop  offset="0.2583" style="stop-color:#F4BDA7"/>
				<stop  offset="0.6863" style="stop-color:#F1AA8D"/>
				<stop  offset="0.9944" style="stop-color:#EF9977"/>
			</linearGradient>
			<path style="fill:url(#SVGID_00000183237412645502295280000005251420429110540451_);" d="M66.7,30.5c0,0.2-0.2,0.4-0.5,0.7
				c-0.2,0.3-0.5,0.6-0.7,1c-0.3,0.8-0.1,1.4,0,1.9c0.1,0.3,0.2,0.5,0.1,0.7c-0.1,1.4-1.6,2.6-2.9,3.2C62,38.3,61,38.6,60,38.8
				s-2.2,0.3-3.4,0.3c-0.6,0-1.2,0-1.9-0.1c-3.2-0.2-6.8-0.9-10.8-2.1c-0.6-0.2-1.3-0.4-1.9-0.6l0,0l0,0c0-0.1,0-0.3,0-0.5
				c0,0,0,0,0-0.1v-0.1v-0.1c0-0.1,0-0.1,0-0.2c0-0.1,0-0.2,0-0.4l0,0c0-0.1,0-0.1,0-0.2v-0.1c0-0.1,0-0.1,0-0.2v-0.1v-0.1
				c0,0,0,0,0-0.1l8.7-0.2c0.5,0,0.8-0.4,0.8-0.9s-0.4-0.8-0.9-0.8l-7,0.1l5.7-4c0.4-0.3,0.5-0.8,0.2-1.2c-0.3-0.4-0.8-0.5-1.2-0.2
				l-7.2,5c-0.3-0.7-0.8-1.3-1.3-1.8c0.4-0.5,0.8-1.1,1.2-1.6c2.5-3.4,5-6,7.5-8c2.6-2.2,5-3.4,7.2-4c0.5-0.1,1-0.2,1.5-0.2
				c0.7,0,1.3,0.1,1.8,0.4c0.5,0.2,0.8,0.5,1,0.8c0.1,0.1,0.1,0.3,0.2,0.5c0.2,0.5,0.4,1.1,1.1,1.5c0.3,0.2,0.7,0.2,1,0.3
				c0.1,0,0.3,0,0.4,0.1c0.5,0.2,0.8,0.7,1,1c0.1,0.3,0.2,0.5,0.3,0.7c0.2,0.5,0.3,1,1.1,1.7c0.1,0.1,0.2,0.2,0.3,0.3
				c0.5,0.4,0.8,0.6,1.1,1.5c0.3,0.9,0.2,1.3,0,1.8c-0.1,0.4-0.3,0.8-0.2,1.5c0,0.4,0.1,0.8,0.2,1.1C66.7,29.7,66.8,30.1,66.7,30.5z
				"/>
		</g>
	</g>
	<g>
		<path class="st0" d="M38.3,19.6l-2.5,8.3l-0.3,1c-0.1,0.4-0.4,0.6-0.8,0.6c-0.4,0-0.7-0.2-0.8-0.6l-0.3-1L31,19.6
			c-0.1-0.5,0.1-0.9,0.6-1.1c0.5-0.1,0.9,0.1,1.1,0.6l2,6.7l2-6.7c0.1-0.4,0.6-0.7,1.1-0.6C38.2,18.6,38.4,19.1,38.3,19.6z"/>
	</g>
	<g>
		<path class="st0" d="M29.3,33.4C29.2,33.4,29.2,33.4,29.3,33.4C29.2,33.4,29.2,33.5,29.3,33.4C29.2,33.5,29.2,33.5,29.3,33.4
			C29.3,33.5,29.3,33.5,29.3,33.4L29.3,33.4c-0.1,0.4-0.4,0.6-0.8,0.6l0,0h-1.1l-8.7-0.2c-0.5,0-0.8-0.4-0.8-0.9s0.4-0.8,0.9-0.8
			l7,0.1l-5.7-4c-0.4-0.3-0.5-0.8-0.2-1.2c0.3-0.4,0.8-0.5,1.2-0.2l7.2,5l0,0l0.9,0.6C29.2,32.7,29.3,33.1,29.3,33.4z"/>
	</g>
	<g>
		<path class="st0" d="M31.6,40.8l-0.3,1l0,0L28.4,50c-0.1,0.4-0.5,0.6-0.8,0.6c-0.1,0-0.2,0-0.3,0c-0.4-0.2-0.7-0.6-0.5-1.1
			l2.3-6.6l-5.5,4.2c-0.4,0.3-0.9,0.2-1.2-0.2c-0.3-0.4-0.2-0.9,0.2-1.2l7-5.3l0,0l0.8-0.6c0.3-0.2,0.7-0.2,1,0
			C31.6,40,31.7,40.4,31.6,40.8z"/>
	</g>
	<g>
		<path class="st0" d="M47,46.9c-0.3,0.4-0.8,0.4-1.2,0.2l-5.5-4.2l2.3,6.6c0.2,0.4-0.1,0.9-0.5,1.1c-0.1,0-0.2,0-0.3,0
			c-0.4,0-0.7-0.2-0.8-0.6l-3-8.2l0,0l-0.3-1c-0.1-0.4,0-0.7,0.3-1c0.3-0.2,0.7-0.2,1,0l0.8,0.6l0,0l7,5.3
			C47.2,46,47.3,46.6,47,46.9z"/>
	</g>
	<g>
		<path class="st0" d="M51.5,33c0,0.5-0.4,0.9-0.8,0.9L42,34h-1.1l0,0c-0.3,0-0.7-0.2-0.8-0.5l0,0l0,0l0,0l0,0
			c-0.1-0.3,0-0.7,0.3-0.9l0.9-0.6l0,0l7.2-5c0.4-0.3,0.9-0.2,1.2,0.2c0.3,0.4,0.2,0.9-0.2,1.2l-5.7,4l7-0.1
			C51.1,32.1,51.5,32.5,51.5,33z"/>
	</g>
	<g>
		<path class="st0" d="M42,34.9C42,34.9,42,34.8,42,34.9c0-0.1,0-0.1,0-0.2v-0.1c0-0.1,0-0.1,0-0.2v-0.1v-0.1c0,0,0,0,0-0.1V34
			c0-0.1,0-0.1,0-0.2l0,0c0-0.1,0-0.1,0-0.2c0-0.1,0-0.2-0.1-0.3v-0.1c0-0.1,0-0.1,0-0.2v-0.1v-0.1v-0.1c0-0.1,0-0.1-0.1-0.1l0,0
			v-0.1v-0.1c0-0.1,0-0.1-0.1-0.2c0-0.1-0.1-0.1-0.1-0.2c0,0,0-0.1-0.1-0.1c-0.1-0.1-0.1-0.2-0.2-0.3c0-0.1-0.1-0.1-0.1-0.2
			c-0.1-0.1-0.1-0.2-0.2-0.3l0,0c-0.1-0.1-0.1-0.2-0.2-0.3c-0.1-0.1-0.1-0.2-0.2-0.3c0-0.1-0.1-0.1-0.1-0.2
			c-0.1-0.1-0.2-0.2-0.2-0.3c-0.2-0.3-0.5-0.5-0.8-0.7c-0.2-0.2-0.4-0.3-0.6-0.5c-0.3-0.2-0.5-0.3-0.8-0.4c-0.1-0.1-0.3-0.1-0.4-0.2
			c0,0-0.1,0-0.1-0.1c-0.1,0-0.1,0-0.2-0.1c-0.1,0-0.1,0-0.2-0.1c-0.1,0-0.1,0-0.2-0.1c-0.3-0.1-0.5-0.1-0.8-0.2l0,0h-0.1H36
			c-0.1,0-0.1,0-0.2,0c-0.1,0-0.1,0-0.2,0h-0.1c-0.1,0-0.1,0-0.2,0c-0.1,0-0.3,0-0.4,0c-0.1,0-0.3,0-0.4,0c-0.1,0-0.1,0-0.2,0l0,0
			h-0.1c-0.1,0-0.1,0-0.2,0c-0.1,0-0.1,0-0.2,0h-0.1h-0.1c0,0,0,0-0.1,0c-0.2,0-0.4,0.1-0.6,0.1c-0.1,0-0.1,0-0.2,0.1
			c-0.1,0-0.1,0-0.2,0.1c-0.1,0-0.1,0-0.2,0.1c-0.1,0-0.1,0-0.2,0.1c0,0-0.1,0-0.1,0.1c-0.1,0.1-0.3,0.1-0.4,0.2
			c-0.3,0.1-0.5,0.3-0.8,0.5c-0.2,0.1-0.4,0.3-0.6,0.5c-0.4,0.3-0.8,0.7-1.1,1.1c-0.1,0.2-0.2,0.3-0.3,0.5c-0.2,0.3-0.3,0.5-0.5,0.8
			c0,0,0,0.1-0.1,0.1c0,0.1-0.1,0.1-0.1,0.2c0,0.1,0,0.1-0.1,0.2c0,0.1,0,0.1-0.1,0.2c0,0.1,0,0.1-0.1,0.2l0,0l0,0
			c0,0,0,0.1-0.1,0.2c0,0.1,0,0.1-0.1,0.2c0,0.1,0,0.1,0,0.2v0.1c0,0.1,0,0.2-0.1,0.3c0,0,0,0.1,0,0.2l0,0c0,0.1,0,0.1,0,0.2v0.1
			c0,0,0,0,0,0.1v0.1v0.1c0,0.1,0,0.1,0,0.2v0.1c0,0.1,0,0.1,0,0.2l0,0c0,0.1,0,0.2,0,0.4c0,0.1,0,0.1,0,0.2v0.1l0,0v0.1
			c0,0,0,0,0,0.1c0,0.2,0,0.3,0.1,0.5c0,0.3,0.1,0.6,0.2,0.9l0,0c0.1,0.3,0.2,0.5,0.2,0.8c0.1,0.3,0.2,0.6,0.4,0.8c0,0,0,0,0,0.1
			s0.1,0.1,0.1,0.2c0,0.1,0.1,0.1,0.1,0.2l0.1,0.1l0,0l0.1,0.1c0,0.1,0.1,0.1,0.1,0.1c0,0.1,0.1,0.1,0.1,0.2l0,0
			c0,0.1,0.1,0.1,0.1,0.2c0,0.1,0.1,0.1,0.1,0.2c0.1,0.1,0.2,0.2,0.3,0.3l0.1,0.1c0.5,0.5,1.1,1,1.8,1.3c0.6,0.3,1.3,0.6,2.1,0.7
			c0.3,0.1,0.6,0.1,0.9,0.1c0.1,0,0.3,0,0.4,0c0.1,0,0.3,0,0.4,0c0.3,0,0.6-0.1,0.9-0.1c0.7-0.1,1.4-0.4,2.1-0.7
			c0.7-0.3,1.3-0.8,1.8-1.3c0.1-0.1,0.2-0.3,0.4-0.4c0-0.1,0.1-0.1,0.1-0.2c0-0.1,0.1-0.1,0.1-0.2l0,0c0-0.1,0.1-0.1,0.1-0.2
			l0.1-0.1l0.1-0.1l0,0l0.1-0.1c0-0.1,0.1-0.1,0.1-0.2c0.1-0.1,0.1-0.2,0.2-0.3c0.2-0.3,0.3-0.6,0.4-0.9l0,0
			c0.1-0.2,0.2-0.5,0.2-0.8c0.1-0.3,0.1-0.6,0.2-0.9l0,0c0-0.1,0-0.3,0-0.5c0,0,0,0,0-0.1v-0.1v-0.1c0-0.1,0-0.1,0-0.2
			C42,35.1,42,35,42,34.9z M35,40.9L35,40.9c-0.1,0-0.2,0-0.4,0c-0.1,0-0.2,0-0.4,0l0,0c-1.3-0.1-2.5-0.6-3.5-1.5
			c-0.1-0.1-0.1-0.1-0.2-0.2c-0.1-0.1-0.1-0.1-0.2-0.2l-0.1-0.1c0,0-0.1-0.1-0.1-0.2c0-0.1-0.1-0.1-0.1-0.2
			c-0.1-0.1-0.2-0.2-0.2-0.3s-0.1-0.1-0.1-0.2l-0.1-0.1c0-0.1-0.1-0.1-0.1-0.2c0-0.1-0.1-0.1-0.1-0.2l0,0c0-0.1-0.1-0.1-0.1-0.2l0,0
			l0,0l0,0c-0.1-0.2-0.2-0.5-0.2-0.7c0-0.1,0-0.2-0.1-0.2v-0.1l0,0v-0.1c0-0.1,0-0.1,0-0.2c0-0.1,0-0.1,0-0.2c0-0.1,0-0.1,0-0.2
			c0-0.1,0-0.1,0-0.2c0-0.1,0-0.1,0-0.2c0-0.1,0-0.2,0-0.3s0-0.1,0-0.2c0-0.1,0-0.1,0-0.2v-0.1l0,0v-0.1c0,0,0,0,0-0.1v-0.1l0,0V34
			c0-0.1,0-0.1,0-0.2c0-0.1,0-0.2,0.1-0.3l0,0l0,0l0,0l0,0l0,0c0-0.1,0.1-0.2,0.1-0.3v-0.1V33c0,0,0-0.1,0.1-0.1l0,0
			c0,0,0-0.1,0.1-0.1c0,0,0-0.1,0.1-0.1c0-0.1,0.1-0.1,0.1-0.2l0.1-0.1l0.1-0.1l0.1-0.1c0.1-0.1,0.2-0.2,0.2-0.3l0.1-0.1
			c0.1-0.1,0.2-0.2,0.3-0.3l0.1-0.1l0.1-0.1c0.1,0,0.1-0.1,0.2-0.1c0.2-0.2,0.5-0.4,0.7-0.5c0.1,0,0.2-0.1,0.2-0.1s0.1,0,0.1-0.1
			c0,0,0.1,0,0.1-0.1c0.1,0,0.1-0.1,0.2-0.1c0,0,0.1,0,0.1-0.1c0.1,0,0.2-0.1,0.2-0.1h0.1l0,0c0.1,0,0.1,0,0.2-0.1l0,0
			c0.1,0,0.1,0,0.2,0c0.1,0,0.2,0,0.3-0.1c0.1,0,0.1,0,0.2,0h0.1c0.1,0,0.2,0,0.2,0c0.1,0,0.2,0,0.3,0s0.2,0,0.2,0h0.2
			c0.1,0,0.2,0,0.3,0s0.2,0,0.2,0h0.1c0.1,0,0.1,0,0.2,0c0.1,0,0.2,0,0.3,0.1c0.1,0,0.1,0,0.2,0l0,0c0.1,0,0.1,0,0.2,0.1l0,0h0.1
			c0.1,0,0.2,0.1,0.4,0.1h0.1c0.1,0,0.2,0.1,0.2,0.1s0.1,0,0.1,0.1c0,0,0.1,0,0.1,0.1c0.3,0.2,0.6,0.4,0.9,0.6l0.1,0.1l0.1,0.1
			c0.1,0.1,0.3,0.3,0.4,0.4c0.2,0.2,0.3,0.4,0.5,0.7c0,0.1,0.1,0.1,0.1,0.2c0.1,0.1,0.1,0.2,0.2,0.3V33l0,0c0,0,0,0.1,0.1,0.1v0.1
			v0.1c0,0,0,0,0,0.1s0.1,0.2,0.1,0.3l0,0l0,0l0,0l0,0l0,0l0,0c0,0.1,0,0.1,0,0.2V34v0.1v0.1l0,0v0.1v0.1v0.1l0,0v0.1
			c0,0.1,0,0.1,0,0.2c0,0.1,0,0.1,0,0.2c0,0.1,0,0.2,0,0.3s0,0.1,0,0.2c0,0.1,0,0.1,0,0.2c0,0.1,0,0.1,0,0.2c0,0.1,0,0.1,0,0.2l0,0
			v0.1v0.1c0,0,0,0,0,0.1v0.1v0.1c-0.1,0.3-0.2,0.6-0.3,0.9l0,0c0,0,0,0,0,0.1s-0.1,0.1-0.1,0.2c0,0.1-0.1,0.1-0.1,0.2
			c0,0,0,0.1-0.1,0.1c0,0,0,0.1-0.1,0.1c0,0,0,0.1-0.1,0.1l-0.1,0.1l-0.1,0.1l-0.1,0.1c0,0,0,0,0,0.1l-0.1,0.1l-0.1,0.1L38.1,39
			L38,39.1c-0.1,0.1-0.1,0.1-0.2,0.2l-0.1,0.1c-0.1,0.1-0.1,0.1-0.2,0.2l-0.1,0.1C37.3,40.4,36.2,40.8,35,40.9z"/>
		
			<radialGradient id="SVGID_00000005966565250682208510000006300249383039234201_" cx="34.6471" cy="32.7802" r="5.6975" gradientTransform="matrix(1 0 0 -1 0 68)" gradientUnits="userSpaceOnUse">
			<stop  offset="0" style="stop-color:#F5C4B0"/>
			<stop  offset="0.2583" style="stop-color:#F4BDA7"/>
			<stop  offset="0.6863" style="stop-color:#F1AA8D"/>
			<stop  offset="0.9944" style="stop-color:#EF9977"/>
		</radialGradient>
		<path style="fill:url(#SVGID_00000005966565250682208510000006300249383039234201_);" d="M40.3,35.2c0,0.1,0,0.1,0,0.2
			c0,0.1,0,0.1,0,0.2c0,0.1,0,0.1,0,0.2c0,0.1,0,0.1,0,0.2l0,0v0.1v0.1c0,0,0,0,0,0.1v0.1v0.1c-0.1,0.3-0.2,0.6-0.3,0.9l0,0
			c0,0,0,0,0,0.1s-0.1,0.1-0.1,0.2c0,0.1-0.1,0.1-0.1,0.2c0,0,0,0.1-0.1,0.1c0,0,0,0.1-0.1,0.1c0,0,0,0.1-0.1,0.1l-0.1,0.1l-0.1,0.1
			l-0.1,0.1c0,0,0,0,0,0.1l-0.1,0.1L39,38.8l-0.1,0.1L38.8,39c-0.1,0.1-0.1,0.1-0.2,0.2l-0.1,0.1c-0.1,0.1-0.1,0.1-0.2,0.2l-0.1,0.1
			c-0.9,0.7-2,1.1-3.1,1.2l0,0l0,0c-0.1,0-0.2,0-0.4,0c-0.1,0-0.2,0-0.4,0l0,0l0,0c-1.3-0.1-2.5-0.6-3.4-1.5
			c-0.1-0.1-0.1-0.1-0.2-0.2c-0.1-0.1-0.1-0.1-0.2-0.2l-0.1-0.1c0,0-0.1-0.1-0.1-0.2c0-0.1-0.1-0.1-0.1-0.2
			c-0.1-0.1-0.2-0.2-0.2-0.3s-0.1-0.1-0.1-0.2l-0.1-0.1c0-0.1-0.1-0.1-0.1-0.2c0-0.1-0.1-0.1-0.1-0.2l0,0c0-0.1-0.1-0.1-0.1-0.2l0,0
			l0,0l0,0c-0.1-0.2-0.2-0.5-0.2-0.7c0-0.1,0-0.2-0.1-0.2v-0.1l0,0v-0.1c0-0.1,0-0.1,0-0.2s0-0.1,0-0.2c0-0.1,0-0.1,0-0.2
			c0-0.1,0-0.1,0-0.2c0-0.1,0-0.1,0-0.2c0-0.1,0-0.2,0-0.3s0-0.1,0-0.2c0-0.1,0-0.1,0-0.2v-0.1l0,0v-0.1c0,0,0,0,0-0.1V34l0,0v-0.1
			c0-0.1,0-0.1,0-0.2c0-0.1,0-0.2,0.1-0.3l0,0l0,0l0,0l0,0l0,0l0,0c0-0.1,0.1-0.2,0.1-0.3V33v-0.1c0,0,0-0.1,0.1-0.1l0,0
			c0,0,0-0.1,0.1-0.1c0,0,0-0.1,0.1-0.1c0-0.1,0.1-0.1,0.1-0.2l0.1-0.1l0.1-0.1l0.1-0.1c0.1-0.1,0.2-0.2,0.2-0.3l0.1-0.1
			c0.1-0.1,0.2-0.2,0.3-0.3l0.1-0.1l0.1-0.1c0.1,0,0.1-0.1,0.2-0.1c0.2-0.2,0.5-0.4,0.7-0.5c0.1,0,0.2-0.1,0.2-0.1s0.1,0,0.1-0.1
			c0,0,0.1,0,0.1-0.1c0.1,0,0.1-0.1,0.2-0.1c0,0,0.1,0,0.1-0.1c0.1,0,0.2-0.1,0.2-0.1h0.1l0,0c0.1,0,0.1,0,0.2-0.1l0,0
			c0.1,0,0.1,0,0.2,0c0.1,0,0.2,0,0.3-0.1c0.1,0,0.1,0,0.2,0h0.1c0.1,0,0.2,0,0.2,0c0.1,0,0.2,0,0.3,0s0.2,0,0.2,0h0.2
			c0.1,0,0.2,0,0.3,0s0.2,0,0.2,0h0.1c0.1,0,0.1,0,0.2,0c0.1,0,0.2,0,0.3,0.1c0.1,0,0.1,0,0.2,0l0,0c0.1,0,0.1,0,0.2,0.1l0,0h0.1
			c0.1,0,0.2,0.1,0.4,0.1h0.1c0.1,0,0.2,0.1,0.2,0.1s0.1,0,0.1,0.1c0,0,0.1,0,0.1,0.1c0.3,0.2,0.6,0.4,0.9,0.6l0.1,0.1l0.1,0.1
			c0.1,0.1,0.3,0.3,0.4,0.4c0.2,0.2,0.3,0.4,0.5,0.7c0,0.1,0.1,0.1,0.1,0.2c0.1,0.1,0.1,0.2,0.2,0.3v0.1l0,0c0,0,0,0.1,0.1,0.1v0.1
			v0.1c0,0,0,0,0,0.1s0.1,0.2,0.1,0.3l0,0l0,0l0,0l0,0l0,0l0,0c0,0.1,0,0.1,0,0.2v0.1V34v0.1l0,0v0.1v0.1v0.1l0,0v0.1
			c0,0.1,0,0.1,0,0.2c0,0.1,0,0.1,0,0.2C40.3,35,40.3,35.1,40.3,35.2z"/>
	</g>
</g>
</svg>
