<?xml version="1.0" encoding="utf-8"?>
<!-- Generator: Adobe Illustrator 27.0.1, SVG Export Plug-In . SVG Version: 6.00 Build 0)  -->
<svg version="1.1" id="fish" xmlns="http://www.w3.org/2000/svg" xmlns:xlink="http://www.w3.org/1999/xlink" x="0px" y="0px"
	 viewBox="0 0 354.7 238.3" style="enable-background:new 0 0 354.7 238.3;" xml:space="preserve">
<style type="text/css">
	.st0{fill:url(#SVGID_1_);}
	.st1{fill:url(#SVGID_00000035519058060720165330000002770435909143704205_);}
	.st2{fill:url(#SVGID_00000132805224860820515080000016535791797495980928_);}
	.st3{fill:url(#SVGID_00000027589268017593727490000017430012855796833467_);}
	.st4{fill:url(#SVGID_00000101823387330908363110000008149689493910126994_);}
	.st5{fill:url(#SVGID_00000166648583133379540240000012873361320674906538_);}
	.st6{fill:url(#SVGID_00000109013675846737694710000005332179142322602167_);}
	.st7{fill:url(#SVGID_00000041987572790798588040000000040519818336034197_);}
	.st8{fill:url(#SVGID_00000031902998398018767560000009657031221428058266_);}
	.st9{fill:#82A8A0;}
	.st10{fill:url(#SVGID_00000142137813357493937680000018254801351424483994_);}
	.st11{fill:url(#SVGID_00000049909338457769312060000005844140979622043317_);}
	.st12{fill:url(#SVGID_00000152223351321672058990000004097682611161074842_);}
	.st13{fill:url(#SVGID_00000054239969428963761700000014791806893920120509_);}
	.st14{fill:url(#SVGID_00000082351271089823906900000005209837466808409763_);}
	.st15{fill:url(#SVGID_00000112603366470638897460000012185395615548414369_);}
</style>
<g>
	
		<linearGradient id="SVGID_1_" gradientUnits="userSpaceOnUse" x1="72.6492" y1="818.3806" x2="277.0907" y2="818.3806" gradientTransform="matrix(1 0 0 -1 0 993.247)">
		<stop  offset="0" style="stop-color:#C0D3CF"/>
		<stop  offset="0.28" style="stop-color:#B6CCC7"/>
		<stop  offset="0.76" style="stop-color:#9DBBB4"/>
		<stop  offset="0.99" style="stop-color:#8EB1A9"/>
	</linearGradient>
	<path class="st0" d="M72.7,113c1,43.5,33.6,82.1,73,101.4C185,233.7,230,237,273.7,236.7c5.9-24.8,4.1-51.5-4.9-75.5L72.7,113
		L72.7,113z"/>
	
		<linearGradient id="SVGID_00000106828105915449440930000012758622039526120612_" gradientUnits="userSpaceOnUse" x1="243.7322" y1="778.3548" x2="261.1307" y2="778.3548" gradientTransform="matrix(1 0 0 -1 0 993.247)">
		<stop  offset="0" style="stop-color:#C0D3CF"/>
		<stop  offset="0.28" style="stop-color:#B6CCC7"/>
		<stop  offset="0.76" style="stop-color:#9DBBB4"/>
		<stop  offset="0.99" style="stop-color:#8EB1A9"/>
	</linearGradient>
	<path style="fill:url(#SVGID_00000106828105915449440930000012758622039526120612_);" d="M252.9,214.4c-0.5,0.2-0.8-0.8-0.9-0.8
		c0.1,0-0.5,1.5-0.2,0.8c0.1-0.4,0.2-0.2,0.1-0.2c-0.4-0.2,0.4,0.1,0.1,0c-0.1-0.1-0.4,0-0.5-0.2c0.7,0.9,0.1,0,0,0
		c0.2,0.4,0.3,0.5,0.2,0.3c-0.1-0.3-0.1-0.1,0,0.3c0.2-0.8-0.5,0.7,0-0.2c0-0.1,0.1-0.1,0.1-0.2c-0.3,0.5-0.3,0.6-0.2,0.3
		c-0.1-0.1,0.6-0.3,0.6-0.3c-1.1,0.6,0.5-0.1,1.1,0.3c1.6,1.1,0.2,3.3-0.8,4.2c-0.2,0.1-0.4,0.2-0.6,0.2c0.6-0.1,0.5-0.1-0.4,0
		c-1-0.2-2-0.5-2.6-1.5c1.5,2.5,4.8,3.4,7.3,1.9c2.5-1.5,3.3-4.7,1.9-7.3c-3.2-5.9-12.7-4.7-14.3,1.9c-1.7,7.2,6.7,12.9,12.8,8.9
		c5.1-3.3,5.9-10.9,1.3-15c-4.3-3.9-12.4-2.1-13.1,4.3c-0.3,2.8,1.4,5.7,4.2,6.4c2.2,0.5,4.4-0.2,5.6-2
		C255.8,215.1,254.1,213.9,252.9,214.4L252.9,214.4L252.9,214.4z"/>
	
		<linearGradient id="SVGID_00000072972299614082439310000015037946519683950501_" gradientUnits="userSpaceOnUse" x1="214.2193" y1="778.2192" x2="223.5993" y2="778.2192" gradientTransform="matrix(1 0 0 -1 0 993.247)">
		<stop  offset="0" style="stop-color:#C0D3CF"/>
		<stop  offset="0.28" style="stop-color:#B6CCC7"/>
		<stop  offset="0.76" style="stop-color:#9DBBB4"/>
		<stop  offset="0.99" style="stop-color:#8EB1A9"/>
	</linearGradient>
	<path style="fill:url(#SVGID_00000072972299614082439310000015037946519683950501_);" d="M218.4,216.9c-0.1-0.4,0-0.9,0.2-1.1
		c0.1-0.1,0.5-0.7,0.3-0.4c0,0,0.5-0.4,0.2-0.3c-0.2,0.2,0.3-0.2,0.3-0.1c-0.4,0.1-0.9,0.2-1.3,0.4c-0.6,0-0.1,0,0.1,0
		c-0.5-0.1-0.2-0.1,0,0.1c-0.1-0.1-0.2-0.1-0.2-0.2c0.2,0.2,0.2,0.2,0.1,0c-0.1-0.3,0.1,0.2,0.2,0.3c0.2,0.2-0.2-0.4,0,0
		c0.2,0.6,0-0.5,0,0.1c0,0.6,0-0.5,0,0c0-0.1,0.1-0.2,0.1-0.3c-0.2,0.2-0.1,0.2,0.1-0.1c0.6-0.3,1.3-0.5,1.9-0.8
		c-0.1,0-0.8,0-0.3,0.1c-0.1,0-0.7-0.2-0.4-0.1c0.4,0.1-0.5-0.2,0,0c-0.1-0.1-0.1-0.1-0.2-0.2c0.1,0.2,0.1,0.2,0-0.1
		c-0.8-1.2-2.4-1.7-3.7-1c-1.2,0.7-1.7,2.4-1,3.7c1.6,2.6,5.9,4.5,8,1.5c1.4-2,1-4.7-0.5-6.5c-0.7-0.9-1.7-1.6-2.9-1.9
		c-1.6-0.3-3,0.2-4,1.5c-1.6,2-1.6,5,0.2,6.9C216.8,219.7,218.7,218.4,218.4,216.9L218.4,216.9L218.4,216.9z"/>
	
		<linearGradient id="SVGID_00000056399024791369374060000014253634042376331172_" gradientUnits="userSpaceOnUse" x1="179.8918" y1="778.9714" x2="190.1698" y2="778.9714" gradientTransform="matrix(1 0 0 -1 0 993.247)">
		<stop  offset="0" style="stop-color:#C0D3CF"/>
		<stop  offset="0.28" style="stop-color:#B6CCC7"/>
		<stop  offset="0.76" style="stop-color:#9DBBB4"/>
		<stop  offset="0.99" style="stop-color:#8EB1A9"/>
	</linearGradient>
	<path style="fill:url(#SVGID_00000056399024791369374060000014253634042376331172_);" d="M181.9,215.3c-0.3,2.5,2.8,3.5,4.8,3
		c2.5-0.6,4-3,3.3-5.5c-0.8-2.6-3.8-3.7-6.2-2.8c-1.2,0.5-2.4,1.3-3.1,2.4c-0.9,1.4-1.1,3.4-0.1,4.8c0.6,0.8,1.2,1.5,2.2,1.7
		c0.8,0.2,1.6,0.1,2.4-0.2c1.7-0.7,2.5-2.5,2.1-4.3c0-0.2-0.1-0.3-0.1-0.5c-0.2-0.4,0.1,0.6,0.1,0.6c0-0.4-0.1,0.6-0.1,0.6
		c0-0.1,0-0.1,0.1-0.2c0,0.1-0.5,1.2-0.6,1.1c0,0,0.2-0.2,0.2-0.2c0.3-0.3-0.4,0.3-0.4,0.3s0.2-0.1,0.2-0.1c0.4-0.2-0.4,0.2-0.4,0.2
		c0-0.1,0.8-0.1-0.2,0c0.4,0-0.5-0.1-0.5-0.1c0.1,0,0.2,0,0.2,0.1c-0.4-0.1-0.7-0.3-1-0.6c0.3,0.3-0.4-0.6-0.2-0.3
		c0.2,0.3-0.2-0.7-0.2-0.4s-0.1-0.8-0.1-0.5c0-0.2,0.1-0.6,0.2-0.8c-0.1,0.1-0.2,0.3-0.2,0.4c0,0.2,0.4-0.4,0.2-0.3
		c0,0-0.1,0.1-0.2,0.2c-0.1,0.1,0.4-0.2,0.2-0.2c0,0-0.2,0.1-0.2,0.1c-0.2,0.2,0.5-0.2,0.2-0.1c-0.1,0-0.4,0.1,0,0
		c0.4,0-0.1-0.1,0.3,0c0.4,0.1,0.1,0,0,0c-0.1,0-0.6-0.2-0.1,0C183.3,213.2,182.1,213.9,181.9,215.3L181.9,215.3L181.9,215.3z"/>
	
		<linearGradient id="SVGID_00000145746460135061893300000000132024896209961629_" gradientUnits="userSpaceOnUse" x1="81.5566" y1="784.1185" x2="114.3173" y2="784.1185" gradientTransform="matrix(1 0 0 -1 0 993.247)">
		<stop  offset="0" style="stop-color:#C0D3CF"/>
		<stop  offset="0.28" style="stop-color:#B6CCC7"/>
		<stop  offset="0.76" style="stop-color:#9DBBB4"/>
		<stop  offset="0.99" style="stop-color:#8EB1A9"/>
	</linearGradient>
	<path style="fill:url(#SVGID_00000145746460135061893300000000132024896209961629_);" d="M99.6,200.1c4.5,3.5,9.8,6.3,12.7,11.2
		c3.9,6.6,1.9,16.1-4.3,20.6c-6.2,4.5-15.9,3.4-20.9-2.5c-3.8-4.4-4.8-10.5-5.2-16.2c-0.3-4.4-1.5-27.6,3.4-29.6
		C88.2,182.5,96,197.3,99.6,200.1L99.6,200.1z"/>
	
		<linearGradient id="SVGID_00000158720430566023668580000004094913423221768108_" gradientUnits="userSpaceOnUse" x1="75.3893" y1="931.7153" x2="309.7393" y2="931.7153" gradientTransform="matrix(1 0 0 -1 0 993.247)">
		<stop  offset="0" style="stop-color:#C0D3CF"/>
		<stop  offset="0.28" style="stop-color:#B6CCC7"/>
		<stop  offset="0.76" style="stop-color:#9DBBB4"/>
		<stop  offset="0.99" style="stop-color:#8EB1A9"/>
	</linearGradient>
	<path style="fill:url(#SVGID_00000158720430566023668580000004094913423221768108_);" d="M75.4,37.9C103.2,4,152.7-6.1,195.5,3.4
		s80.2,35.2,114.2,62.8c-10.8,23.4-28.7,43.4-50.7,56.9L75.4,37.9z"/>
	
		<linearGradient id="SVGID_00000037669409132869338150000006111222653055826328_" gradientUnits="userSpaceOnUse" x1="274.6087" y1="834.3054" x2="354.653" y2="834.3054" gradientTransform="matrix(1 0 0 -1 0 993.247)">
		<stop  offset="0" style="stop-color:#C0D3CF"/>
		<stop  offset="0.28" style="stop-color:#B6CCC7"/>
		<stop  offset="0.76" style="stop-color:#9DBBB4"/>
		<stop  offset="0.99" style="stop-color:#8EB1A9"/>
	</linearGradient>
	<path style="fill:url(#SVGID_00000037669409132869338150000006111222653055826328_);" d="M347.4,104.9c2.1,0.4,4.2,0.9,6.2,1.5
		c5.2,1.6-10.8,25.6-13.1,28c-8.6,9.2-18.7,16.8-31.5,18.7c19.5,12.5,29.5,38.1,23.7,60.5c-17.4,2.1-48.1-12.7-54.8-29.9
		C261.9,142.2,306,97.6,347.4,104.9L347.4,104.9z"/>
	
		<linearGradient id="SVGID_00000074401432891166637750000009276252483735306387_" gradientUnits="userSpaceOnUse" x1="0" y1="886.3879" x2="292.4572" y2="886.3879" gradientTransform="matrix(1 0 0 -1 0 993.247)">
		<stop  offset="0" style="stop-color:#C0D3CF"/>
		<stop  offset="0.28" style="stop-color:#B6CCC7"/>
		<stop  offset="0.76" style="stop-color:#9DBBB4"/>
		<stop  offset="0.99" style="stop-color:#8EB1A9"/>
	</linearGradient>
	<path style="fill:url(#SVGID_00000074401432891166637750000009276252483735306387_);" d="M95.2,16.1c34.9-10.2,73.2-5.2,105.6,10.7
		c41.6,20.4,100.9,75.1,90.4,126.5c-12.4,60.2-84.4,47.9-130.4,49.3c-31.9,1-63.9-0.7-95.5-5c-10.1-1.4-20.3-3.1-29.5-7.4
		c-17.9-8.4-30.4-26.3-34.3-45.7C-9.9,87.7,44,31,95.2,16.1L95.2,16.1z"/>
	
		<linearGradient id="SVGID_00000118397178274392379210000009493341465048738207_" gradientUnits="userSpaceOnUse" x1="55.6106" y1="890.1424" x2="114.552" y2="890.1424" gradientTransform="matrix(1 0 0 -1 0 993.247)">
		<stop  offset="0" style="stop-color:#C0D3CF"/>
		<stop  offset="0.28" style="stop-color:#B6CCC7"/>
		<stop  offset="0.76" style="stop-color:#9DBBB4"/>
		<stop  offset="0.99" style="stop-color:#8EB1A9"/>
	</linearGradient>
	<path style="fill:url(#SVGID_00000118397178274392379210000009493341465048738207_);" d="M74.1,131.7c6.7,3.4,14.6,5.1,21.7,3
		c8-2.4,14-9.4,16.7-17.3c8.2-23.9-9.6-59.1-38.4-42.5C50,88.9,48.9,118.8,74.1,131.7L74.1,131.7z"/>
	<path class="st9" d="M68.9,109.9c2.8-4.8,6.8-9.5,12.9-9.5c5.3,0,10.1,3.5,12,8.4c1.9,5,9.8,3.1,8.2-2.3
		C99.5,98,90.8,91.9,81.8,93.1c-7.6,1.1-15.7,7.9-15,16.2C66.9,110.4,68.3,110.9,68.9,109.9L68.9,109.9z"/>
	
		<linearGradient id="SVGID_00000073680510767659862520000002069306707180887717_" gradientUnits="userSpaceOnUse" x1="147.6133" y1="874.0617" x2="196.9635" y2="874.0617" gradientTransform="matrix(1 0 0 -1 0 993.247)">
		<stop  offset="0" style="stop-color:#C0D3CF"/>
		<stop  offset="0.28" style="stop-color:#B6CCC7"/>
		<stop  offset="0.76" style="stop-color:#9DBBB4"/>
		<stop  offset="0.99" style="stop-color:#8EB1A9"/>
	</linearGradient>
	<path style="fill:url(#SVGID_00000073680510767659862520000002069306707180887717_);" d="M189.5,89.4c4.1,0.8,8.4,4.5,7.3,8.5
		c-0.4,1.4-1.3,2.5-2.3,3.6c-3.4,3.8-7.4,7.1-11.8,9.8c5.1,1.2,11.4,4,11,9.2c-0.4,5.3-7.2,7.1-12.5,7.5c3.4,4.3,7,9.8,5.1,14.9
		c-1.5,4.3-6.5,6.6-11,6.3c-4.5-0.3-8.7-2.6-12.4-5.2c-9.9-7-19.7-20.3-13.4-32.7C155.1,100.7,177.7,87.2,189.5,89.4L189.5,89.4z"/>
	
		<linearGradient id="SVGID_00000162335853498178876130000014767639303446328484_" gradientUnits="userSpaceOnUse" x1="123.1182" y1="873.3085" x2="149.0862" y2="873.3085" gradientTransform="matrix(1 0 0 -1 0 993.247)">
		<stop  offset="0" style="stop-color:#C0D3CF"/>
		<stop  offset="0.28" style="stop-color:#B6CCC7"/>
		<stop  offset="0.76" style="stop-color:#9DBBB4"/>
		<stop  offset="0.99" style="stop-color:#8EB1A9"/>
	</linearGradient>
	<path style="fill:url(#SVGID_00000162335853498178876130000014767639303446328484_);" d="M134.5,60.4
		c22.9,37.5,10.9,82.8-11.1,117.6c-1,1.6,1.5,3,2.5,1.5c11.5-18.4,20.4-38.8,22.7-60.6c2.1-20.4-1.7-41.7-13.4-58.8
		C134.9,59.6,134.2,59.9,134.5,60.4L134.5,60.4L134.5,60.4z"/>
	
		<linearGradient id="SVGID_00000004519212018839306960000005015518495591984809_" gradientUnits="userSpaceOnUse" x1="114.2036" y1="776.8239" x2="156.4041" y2="776.8239" gradientTransform="matrix(1 0 0 -1 0 993.247)">
		<stop  offset="0" style="stop-color:#C0D3CF"/>
		<stop  offset="0.28" style="stop-color:#B6CCC7"/>
		<stop  offset="0.76" style="stop-color:#9DBBB4"/>
		<stop  offset="0.99" style="stop-color:#8EB1A9"/>
	</linearGradient>
	<path style="fill:url(#SVGID_00000004519212018839306960000005015518495591984809_);" d="M134.5,204.8c5.5,1.5,11.4,2.2,15.9,5.7
		c6.1,4.7,7.8,14.2,3.7,20.7s-13.4,9-20.3,5.5c-5.1-2.6-8.4-7.9-10.9-13.1c-1.9-4-11.7-25.1-7.9-28.7
		C117.4,192.7,130.1,203.6,134.5,204.8L134.5,204.8z"/>
	
		<linearGradient id="SVGID_00000178898352959162566750000008164986409382645438_" gradientUnits="userSpaceOnUse" x1="270.9941" y1="923.0939" x2="288.3693" y2="923.0939" gradientTransform="matrix(1 0 0 -1 0 993.247)">
		<stop  offset="0" style="stop-color:#C0D3CF"/>
		<stop  offset="0.28" style="stop-color:#B6CCC7"/>
		<stop  offset="0.76" style="stop-color:#9DBBB4"/>
		<stop  offset="0.99" style="stop-color:#8EB1A9"/>
	</linearGradient>
	<path style="fill:url(#SVGID_00000178898352959162566750000008164986409382645438_);" d="M282.4,70.3c0.4-4.3-4.9-6.6-8.3-4.6
		c-2.5,1.4-3.4,4.2-3,6.9c0.4,3,2.4,5.3,5.2,6.3c5.9,2.1,12.1-3.1,12.1-9.1c0-3.1-1.6-6.4-4.5-7.8c-2.7-1.4-6.1-1.4-8.7,0.3
		c-3.4,2.3-4.6,6.7-2.6,10.3c0.9,1.6,2.4,2.8,4,3.5c2.2,0.9,4.3,0.6,6.4-0.3c2.4-1,3.1-4.4,2.2-6.6c-0.9-2.2-3.8-4-6.3-3.1
		c-0.9,0.3-0.4,0.4,1.5,0.1c0.4,0.1,0.8,0.3,1.1,0.6c0.4,0.6,0.5,0.7,0.2,0.2c0.4,0.7,0.5,1.5,0.3,2.4c-0.2,0.7-0.6,1.4-1.3,1.7
		c-0.3,0.2-0.6,0.2-0.9,0.2c0.6,0,0.5,0-0.2-0.1c-0.4-0.1-0.6-0.3-0.9-0.6c0.4,0.4,0.4,0.4,0,0c-0.2-0.6-0.2-0.6,0,0
		c-0.1-0.6-0.1-0.6-0.1,0c0-0.1,0-0.3,0.1-0.4c-0.2,0.5-0.1,0.6,0,0.1c-0.3,0.5-0.3,0.5,0,0.1c-0.4,0.4-0.4,0.4-0.1,0.1
		c-0.5,0.3-0.5,0.3-0.1,0.1c-0.5,0.1-0.5,0.1-0.1,0.1c0.4,0.1,0.4,0.1,0.1,0c-0.3-0.1-0.3-0.1,0.1,0.1c0.4,0.3,0.3,0.3,0-0.1
		c0.2,0.4,0.2,0.3,0-0.1c0.1,0.4,0.1,0.4,0-0.1c0,0.4,0.1,0.4,0.1-0.1c-0.1,0.2-0.2,0.4-0.3,0.6c-0.3,0.2-0.2,0.1,0.1-0.1
		c-0.2,0.1-0.2,0.1,0.1-0.1c0.5-0.2,0.8-0.1,1,0.3C280.4,72.4,282.3,71.6,282.4,70.3L282.4,70.3L282.4,70.3z"/>
	
		<linearGradient id="SVGID_00000042735195606178519080000016226484012743860405_" gradientUnits="userSpaceOnUse" x1="248.4689" y1="944.3343" x2="258.5521" y2="944.3343" gradientTransform="matrix(1 0 0 -1 0 993.247)">
		<stop  offset="0" style="stop-color:#C0D3CF"/>
		<stop  offset="0.28" style="stop-color:#B6CCC7"/>
		<stop  offset="0.76" style="stop-color:#9DBBB4"/>
		<stop  offset="0.99" style="stop-color:#8EB1A9"/>
	</linearGradient>
	<path style="fill:url(#SVGID_00000042735195606178519080000016226484012743860405_);" d="M252.7,44.2c-2.5,0.3-4.3,2.7-4.2,5.2
		c0,1.5,0.7,2.8,2,3.6c1.1,0.6,2.5,0.7,3.8,0.4c2.3-0.6,4.2-2.6,4.3-5c0.1-3.4-4.3-4.7-7-3.7c-1.4,0.5-2.3,1.8-1.9,3.3
		c0.4,1.3,2,2.4,3.3,1.9c0.1,0,0.8-0.2,0.3-0.1c0.1,0,0.7,0,0.4,0c-0.4,0,0.5,0,0,0c0.1,0,0.1,0.1,0.2,0.1c-0.2-0.2-0.2-0.2,0,0.1
		c-0.3-0.6-0.5-1.3-0.8-1.9c0,0.4-0.1,0.4,0,0.1c-0.2,0.6,0.2-0.5,0,0.1c0.2-0.5,0.1-0.2-0.1,0c0.4-0.5-0.1,0-0.2,0.1
		c-0.2,0.1-0.1,0.1,0.2-0.1c-0.1,0-0.2,0.1-0.3,0.1c-0.2,0,0.6,0,0,0c-0.2,0,0.6,0.2,0,0c-0.2-0.1-0.1,0,0.2,0.1
		c-0.1-0.1-0.2-0.1-0.3-0.2c0.3,0.3,0.6,0.6,0.9,0.9c0.1,0.3,0,0.2,0,0c0-0.7,0,0.3,0-0.1c0-0.1,0-0.3,0-0.5c0-0.1,0.1-0.6,0-0.2
		c0.1-0.5,0.2-0.8,0.7-1.2c0.5-0.4,0.6-1.4,0.3-2C254.2,44.3,253.4,44.1,252.7,44.2L252.7,44.2L252.7,44.2z"/>
	
		<linearGradient id="SVGID_00000054974485049878767420000002234742349465867703_" gradientUnits="userSpaceOnUse" x1="221.6893" y1="965.1384" x2="231.1965" y2="965.1384" gradientTransform="matrix(1 0 0 -1 0 993.247)">
		<stop  offset="0" style="stop-color:#C0D3CF"/>
		<stop  offset="0.28" style="stop-color:#B6CCC7"/>
		<stop  offset="0.76" style="stop-color:#9DBBB4"/>
		<stop  offset="0.99" style="stop-color:#8EB1A9"/>
	</linearGradient>
	<path style="fill:url(#SVGID_00000054974485049878767420000002234742349465867703_);" d="M225.5,28.3c0.3,0.1-0.1-0.1-0.2-0.1
		c0.2,0,0.4,0.2,0.6,0.3c0.3,0.1-0.1-0.1-0.2-0.1C225.9,28.6,225.5,28.3,225.5,28.3c0.3,0.2-0.1-0.2-0.1-0.3
		C225.3,28.1,225.5,28.3,225.5,28.3c0.2,0.1-0.1-0.5-0.1-0.3C225.4,28.1,225.4,28.3,225.5,28.3c0.1,0.1,0-0.5,0-0.4
		c0,0.1,0,0.2,0,0.2c0.1,0.2,0.1-0.6,0.1-0.4c0,0.1,0,0.2,0,0.2C225.4,28.1,225.4,28.2,225.5,28.3c-0.1,0.2,0.2-0.6,0.1-0.4
		c-0.1,0.1,0,0.1,0.1-0.2c0.1-0.2,0.2-0.3,0.4-0.4c0.2-0.2,0.3-0.2,0.2-0.1c-0.2,0.1-0.1,0.1,0.4-0.2c-0.4,0.1,0.4,0,0.4,0
		c-0.4,0,0.5,0.1,0.5,0.1c-0.4-0.1,0.4,0.2,0.4,0.2c-0.4-0.2,0.4,0.3,0.4,0.3c-0.1-0.1-0.1-0.1-0.2-0.2c0,0,0.5,0.7,0.3,0.3
		c0,0-0.1-0.2-0.1-0.2c0,0,0.3,0.8,0.2,0.4c0,0-0.1-0.2-0.1-0.2c0,0,0.1,0.9,0.1,0.5c0-0.2,0-0.6,0,0.1c0,0.2,0,0.4-0.2,0.6
		c-0.1,0.3-0.2,0.4-0.1,0.3c0.2-0.3-0.6,0.7-0.4,0.4c0.1-0.1,0-0.1-0.2,0.2c-0.3,0.2-0.4,0.3-0.2,0.2c0-0.1,0.9-0.7,1.1-0.8
		c0.6-0.5,0.9-1.4,1-2.1c0.1-0.8,0-1.6-0.4-2.3c-0.9-1.4-2.5-2.1-4.1-1.7c-2,0.6-3.2,2.3-3.3,4.3c0,0.4,0.1,0.8,0.1,1.3
		c-0.2-1.5-0.1-0.1,0,0.4c0.1,0.5,0.3,1.1,0.6,1.5c1.3,2.3,4.2,3.6,6.6,2.1c1.3-0.8,2-2.1,2.1-3.6c0.1-1.2-0.5-2.3-1.3-3.2
		c-1.4-1.7-4.2-2.2-5.5-0.1C223.8,26.7,224.4,28.1,225.5,28.3L225.5,28.3L225.5,28.3z"/>
</g>
<path class="st9" d="M23.4,148.1c1.4,5.4,6.5,9.1,11.8,10.1c6.5,1.2,12.7-0.4,18.8-2.6c4.7-1.6,2.7-9.1-2.1-7.5
	c-8,2.7-18.3,6.4-24.3-1.8C26.1,144.4,22.7,145.4,23.4,148.1L23.4,148.1L23.4,148.1z"/>
</svg>
