<?xml version="1.0" encoding="UTF-8"?><svg id="fish" xmlns="http://www.w3.org/2000/svg" xmlns:xlink="http://www.w3.org/1999/xlink" viewBox="0 0 2072.73 1166.38"><defs><style>.cls-1{fill:url(#linear-gradient);}.cls-2{fill:#82a8a0;}.cls-3{fill:url(#linear-gradient-8);}.cls-4{fill:url(#linear-gradient-9);}.cls-5{fill:url(#linear-gradient-3);}.cls-6{fill:url(#linear-gradient-4);}.cls-7{fill:url(#linear-gradient-2);}.cls-8{fill:url(#linear-gradient-6);}.cls-9{fill:url(#linear-gradient-7);}.cls-10{fill:url(#linear-gradient-5);}.cls-11{fill:url(#linear-gradient-14);}.cls-12{fill:url(#linear-gradient-15);}.cls-13{fill:url(#linear-gradient-13);}.cls-14{fill:url(#linear-gradient-12);}.cls-15{fill:url(#linear-gradient-10);}.cls-16{fill:url(#linear-gradient-11);}</style><linearGradient id="linear-gradient" x1="173.1" y1="261.24" x2="377.53" y2="261.24" gradientUnits="userSpaceOnUse"><stop offset="0" stop-color="#c0d3cf"/><stop offset=".28" stop-color="#b6ccc7"/><stop offset=".76" stop-color="#9dbbb4"/><stop offset=".99" stop-color="#8eb1a9"/></linearGradient><linearGradient id="linear-gradient-2" x1="344.19" y1="301.27" x2="361.58" y2="301.27" xlink:href="#linear-gradient"/><linearGradient id="linear-gradient-3" x1="314.66" y1="301.4" x2="324.04" y2="301.4" xlink:href="#linear-gradient"/><linearGradient id="linear-gradient-4" x1="280.33" y1="300.65" x2="290.61" y2="300.65" xlink:href="#linear-gradient"/><linearGradient id="linear-gradient-5" x1="182" y1="295.5" x2="214.75" y2="295.5" xlink:href="#linear-gradient"/><linearGradient id="linear-gradient-6" x1="175.83" y1="147.91" x2="410.18" y2="147.91" xlink:href="#linear-gradient"/><linearGradient id="linear-gradient-7" x1="375.05" y1="245.32" x2="455.09" y2="245.32" xlink:href="#linear-gradient"/><linearGradient id="linear-gradient-8" x1="100.43" y1="193.23" x2="392.9" y2="193.23" xlink:href="#linear-gradient"/><linearGradient id="linear-gradient-9" x1="156.06" y1="189.47" x2="214.99" y2="189.47" xlink:href="#linear-gradient"/><linearGradient id="linear-gradient-10" x1="248.06" y1="205.57" x2="297.41" y2="205.57" xlink:href="#linear-gradient"/><linearGradient id="linear-gradient-11" x1="223.56" y1="206.31" x2="249.54" y2="206.31" xlink:href="#linear-gradient"/><linearGradient id="linear-gradient-12" x1="214.65" y1="302.79" x2="256.84" y2="302.79" xlink:href="#linear-gradient"/><linearGradient id="linear-gradient-13" x1="371.45" y1="156.53" x2="388.82" y2="156.53" xlink:href="#linear-gradient"/><linearGradient id="linear-gradient-14" x1="348.91" y1="135.29" x2="358.99" y2="135.29" xlink:href="#linear-gradient"/><linearGradient id="linear-gradient-15" x1="322.13" y1="114.5" x2="331.63" y2="114.5" xlink:href="#linear-gradient"/></defs><g><path class="cls-1" d="M173.1,199.4c.96,43.53,33.61,82.05,72.96,101.35,39.36,19.3,84.41,22.6,128.06,22.32,5.85-24.83,4.14-51.46-4.85-75.51l-196.18-48.15Z"/><path class="cls-7" d="M353.33,300.81c-.45,.19-.77-.8-.87-.78,.13-.03-.47,1.51-.17,.75,.15-.38,.2-.21,.12-.25-.38-.2,.43,.14,.14-.03-.12-.07-.4,0-.52-.17,.66,.89,.07,.01,.03-.05,.24,.44,.3,.54,.16,.29-.13-.26-.11-.14,.05,.34,.21-.8-.45,.71-.05-.21,.04-.08,.08-.15,.12-.23-.27,.46-.34,.57-.19,.32-.14-.07,.57-.32,.6-.34-1.1,.64,.53-.13,1.15,.3,1.64,1.13,.18,3.27-.8,4.19-.21,.08-.42,.16-.62,.24,.58-.15,.46-.15-.35,.01-.99-.21-2.02-.51-2.58-1.47,1.45,2.47,4.78,3.35,7.26,1.9,2.54-1.49,3.27-4.73,1.9-7.26-3.2-5.89-12.74-4.66-14.31,1.87-1.72,7.18,6.7,12.85,12.81,8.91,5.13-3.31,5.94-10.86,1.33-15-4.33-3.88-12.43-2.08-13.07,4.28-.28,2.79,1.37,5.7,4.2,6.4,2.2,.54,4.36-.19,5.64-2.04,.92-1.33-.8-2.48-1.97-1.97h0Z"/><path class="cls-5" d="M318.82,303.25c-.09-.41,.05-.87,.19-1.09,.08-.13,.55-.74,.28-.43,.05-.05,.49-.44,.25-.26-.23,.17,.33-.16,.33-.15-.44,.12-.89,.24-1.33,.36-.62-.03-.12,.01,.07,.05-.49-.09-.2-.09,.05,.08-.08-.06-.16-.11-.24-.17,.17,.18,.19,.19,.06,.03-.11-.34,.1,.23,.18,.32,.2,.22-.17-.44-.02,.02,.2,.59-.02-.54,0,.07,.03,.57-.04-.55-.03,.05,.04-.1,.08-.19,.12-.29-.16,.25-.14,.22,.06-.07,.64-.26,1.27-.53,1.91-.79-.11,0-.81-.04-.29,.06-.06-.01-.69-.2-.4-.11,.35,.11-.53-.19,.02,0-.06-.06-.12-.12-.18-.18,.15,.22,.14,.2-.03-.07-.75-1.25-2.42-1.71-3.69-.97-1.25,.73-1.72,2.44-.97,3.69,1.56,2.58,5.89,4.48,8.01,1.48,1.4-1.97,.98-4.68-.46-6.5-.72-.92-1.71-1.65-2.88-1.89-1.58-.33-2.99,.23-4,1.48-1.65,2.04-1.61,4.97,.24,6.87,1.19,1.22,3.06-.05,2.73-1.59h0Z"/><path class="cls-6" d="M282.36,301.66c-.26,2.54,2.79,3.47,4.77,3.02,2.5-.57,4.04-3.05,3.29-5.54-.79-2.62-3.79-3.7-6.24-2.81-1.24,.45-2.38,1.26-3.09,2.4-.87,1.4-1.11,3.38-.08,4.77,.56,.75,1.21,1.45,2.18,1.67,.81,.19,1.6,.14,2.37-.18,1.68-.71,2.55-2.51,2.11-4.29-.04-.17-.06-.33-.13-.49-.16-.39,.06,.63,.06,.62-.02-.44-.11,.64-.1,.6,.01-.07,.04-.15,.06-.22-.03,.08-.55,1.18-.62,1.1,0,0,.16-.17,.18-.18,.32-.29-.37,.3-.37,.28,0-.02,.2-.12,.22-.13,.38-.19-.43,.18-.43,.17,0-.13,.84-.07-.25,0,.41-.02-.49-.09-.49-.09,.07,.01,.16,.03,.23,.06-.38-.15-.67-.29-.97-.57,.34,.3-.36-.58-.2-.27,.16,.31-.25-.69-.16-.38,.09,.31-.08-.77-.07-.45,0-.24,.08-.64,.21-.83-.07,.1-.2,.31-.23,.43-.04,.16,.36-.36,.2-.27-.04,.03-.15,.13-.18,.18-.09,.15,.4-.23,.23-.18-.05,.02-.17,.09-.21,.13-.18,.16,.48-.18,.25-.11-.1,.03-.37,.07,.02,.02,.41-.05-.13-.1,.26,0,.38,.1,.1,.01,.02-.01-.14-.04-.65-.21-.12,.02-1.3-.57-2.55,.11-2.69,1.54h0Z"/><path class="cls-10" d="M200.08,286.49c4.52,3.45,9.76,6.33,12.66,11.22,3.92,6.62,1.94,16.08-4.3,20.58-6.24,4.49-15.85,3.37-20.88-2.45-3.78-4.37-4.83-10.45-5.21-16.22-.29-4.43-1.53-27.63,3.38-29.59,2.96-1.18,10.71,13.68,14.35,16.46Z"/><path class="cls-8" d="M175.83,124.26c27.8-33.93,77.31-43.95,120.14-34.51,42.83,9.44,80.19,35.16,114.21,62.83-10.84,23.37-28.72,43.43-50.71,56.86L175.83,124.26Z"/><path class="cls-9" d="M447.84,191.27c2.09,.37,4.16,.87,6.23,1.5,5.17,1.6-10.81,25.58-13.07,28.02-8.57,9.25-18.68,16.82-31.48,18.71,19.5,12.46,29.55,38.07,23.71,60.46-17.37,2.06-48.06-12.7-54.76-29.87-16.17-41.51,28-86.1,69.37-78.82Z"/><path class="cls-3" d="M195.66,102.5c34.94-10.17,73.16-5.19,105.62,10.67,41.64,20.35,100.94,75.05,90.38,126.51-12.35,60.2-84.41,47.85-130.37,49.3-31.91,1.01-63.91-.66-95.54-5-10.07-1.38-20.26-3.08-29.47-7.38-17.9-8.36-30.4-26.32-34.29-45.68-11.43-56.86,42.45-113.5,93.68-128.41Z"/><path class="cls-4" d="M174.56,218.08c6.67,3.42,14.55,5.15,21.72,2.98,7.97-2.42,13.99-9.44,16.7-17.31,8.22-23.92-9.56-59.14-38.36-42.49-24.21,14-25.28,43.87-.06,56.82Z"/><path class="cls-2" d="M169.36,196.28c2.82-4.81,6.83-9.5,12.9-9.5,5.27,0,10.12,3.48,12.01,8.39,1.93,5.01,9.84,3.1,8.23-2.27-2.55-8.51-11.28-14.67-20.26-13.4-7.59,1.07-15.74,7.95-14.98,16.21,.1,1.06,1.5,1.6,2.1,.57h0Z"/><path class="cls-15" d="M289.96,175.81c4.12,.78,8.39,4.46,7.26,8.5-.38,1.37-1.33,2.51-2.29,3.56-3.44,3.78-7.41,7.07-11.75,9.76,5.08,1.22,11.37,3.98,11.01,9.19-.36,5.32-7.19,7.11-12.51,7.49,3.38,4.34,6.95,9.75,5.1,14.93-1.52,4.26-6.45,6.58-10.97,6.31-4.52-.26-8.66-2.57-12.36-5.17-9.93-6.96-19.74-20.34-13.37-32.68,5.47-10.6,28.06-24.15,39.87-21.9Z"/><path class="cls-16" d="M234.94,146.73c22.87,37.52,10.92,82.82-11.15,117.58-1,1.57,1.51,3.03,2.49,1.46,11.48-18.4,20.39-38.84,22.68-60.57,2.15-20.44-1.71-41.7-13.38-58.84-.27-.4-.91-.04-.65,.38h0Z"/><path class="cls-14" d="M234.98,291.16c5.48,1.52,11.42,2.24,15.93,5.69,6.1,4.68,7.8,14.2,3.68,20.7-4.12,6.5-13.45,9.03-20.29,5.51-5.14-2.65-8.38-7.89-10.88-13.11-1.92-4-11.72-25.06-7.9-28.71,2.31-2.2,15.03,8.7,19.45,9.93Z"/><path class="cls-13" d="M382.85,156.64c.36-4.32-4.88-6.58-8.31-4.6-2.47,1.43-3.41,4.25-3.02,6.95,.43,2.96,2.41,5.26,5.21,6.27,5.92,2.13,12.1-3.13,12.08-9.11-.01-3.12-1.63-6.38-4.47-7.84-2.67-1.38-6.13-1.37-8.68,.33-3.4,2.27-4.62,6.66-2.6,10.28,.9,1.61,2.36,2.78,4.02,3.49,2.21,.93,4.27,.58,6.42-.34,2.41-1.04,3.09-4.45,2.17-6.62-.94-2.22-3.79-4.04-6.26-3.07-.9,.31-.41,.35,1.47,.14,.44,.12,.81,.34,1.14,.65,.43,.62,.5,.68,.2,.19,.44,.7,.55,1.49,.33,2.35-.19,.72-.62,1.36-1.31,1.66-.28,.16-.58,.22-.91,.18,.58,0,.5-.03-.24-.1-.35-.11-.64-.31-.88-.59,.39,.4,.39,.39,0-.03-.2-.55-.21-.55-.05,0-.06-.59-.08-.6-.06-.02,.02-.14,.04-.29,.06-.43-.16,.53-.15,.55,.03,.07-.29,.46-.3,.5-.04,.1-.4,.37-.42,.41-.07,.12-.47,.26-.5,.29-.09,.1-.53,.13-.55,.15-.07,.06,.39,.1,.43,.11,.11,.03-.32-.09-.28-.07,.13,.06,.35,.29,.34,.27-.02-.07,.23,.36,.22,.33-.04-.08,.14,.38,.14,.35,0-.1,.05,.41,.06,.39,.06-.08-.1,.24-.16,.38-.28,.61-.27,.17-.24,.15,.09-.05-.25,.11-.2,.1,.14-.05,.55-.17,.82-.11,1.02,.28,.7,1.38,2.58,.58,2.69-.73h0Z"/><path class="cls-11" d="M353.14,130.62c-2.49,.34-4.26,2.73-4.23,5.17,.02,1.53,.66,2.82,2,3.6,1.11,.65,2.53,.73,3.76,.42,2.31-.58,4.23-2.58,4.32-5.03,.13-3.35-4.32-4.72-6.96-3.72-1.36,.51-2.3,1.82-1.88,3.32,.36,1.31,1.95,2.4,3.32,1.88,.09-.03,.8-.19,.27-.14,.06,0,.74,0,.4,0-.39,0,.55-.02-.04-.01,.07,.04,.15,.08,.22,.13-.2-.18-.18-.16,.05,.06-.26-.64-.53-1.27-.79-1.91,.03,.43-.09,.41,.05,.05-.21,.56,.16-.47-.03,.05,.18-.49,.11-.16-.08,.04,.44-.48-.06-.04-.19,.08-.18,.09-.12,.06,.19-.08-.09,.03-.19,.06-.28,.08-.22,.04,.56,.03-.05-.02-.23-.02,.56,.16-.03-.04-.19-.06-.12-.03,.2,.09-.12-.06-.22-.13-.33-.22,.31,.31,.63,.63,.94,.94,.13,.27,0,.16,.01-.03,.04-.71-.02,.29,0-.13,0-.15,.01-.31,.02-.46,0-.1,.08-.57,0-.17,.11-.5,.24-.81,.74-1.22,.55-.45,.59-1.4,.26-1.98-.4-.68-1.11-.85-1.84-.75h0Z"/><path class="cls-12" d="M325.9,114.71c.26,.07-.12-.08-.17-.09,.19,.04,.4,.2,.58,.26,.28,.1-.15-.06-.2-.09,.26,.14-.13-.11-.18-.15,.23,.22-.14-.17-.14-.21,0,.01,.13,.23,.15,.26,.13,.15-.12-.45-.11-.25,0,.06,.04,.2,.07,.24,.09,.16,0-.51-.04-.33-.01,.05-.01,.2,0,.25,.07,.21,.12-.58,.06-.39-.02,.08-.03,.16-.05,.23-.01,.06-.06,.17-.05,.23,.01,.22,.26-.57,.16-.39-.08,.12-.03,.07,.13-.16,.09-.16,.22-.28,.38-.37,.24-.17,.29-.21,.16-.13-.2,.12-.06,.07,.44-.17-.41,.11,.43-.04,.44-.04-.4,.02,.47,.08,.48,.08-.38-.08,.42,.19,.43,.19-.35-.18,.35,.29,.36,.29-.06-.05-.13-.11-.17-.17,0,0,.53,.69,.28,.35-.01-.02-.14-.21-.12-.23,0,0,.33,.84,.19,.43,0-.02-.07-.25-.07-.25,.02,0,.1,.95,.07,.51,0-.17,.04-.6-.03,.08,0,.23-.05,.45-.17,.64-.15,.32-.18,.41-.1,.26,.17-.29-.6,.68-.36,.44,.12-.12,.04-.07-.24,.17-.3,.21-.38,.27-.23,.18-.02-.11,.89-.69,1.09-.84,.6-.47,.91-1.38,1-2.09,.1-.78,0-1.64-.43-2.32-.88-1.36-2.51-2.11-4.11-1.67-2,.55-3.19,2.29-3.28,4.3-.02,.43,.07,.83,.13,1.27-.2-1.5-.07-.14,.05,.36,.12,.53,.33,1.05,.59,1.52,1.31,2.31,4.19,3.55,6.62,2.11,1.28-.76,2.03-2.1,2.11-3.57,.06-1.21-.49-2.34-1.26-3.23-1.43-1.65-4.2-2.23-5.53-.14-.62,.97-.02,2.35,1.07,2.63h0Z"/></g><path class="cls-2" d="M123.87,234.51c1.41,5.36,6.5,9.08,11.78,10.11,6.48,1.25,12.74-.43,18.82-2.58,4.68-1.65,2.7-9.12-2.07-7.5-8,2.73-18.27,6.38-24.33-1.81-1.48-2-4.91-.92-4.21,1.77h0Z"/></svg>