<?xml version="1.0" encoding="utf-8"?>
<!-- Generator: Adobe Illustrator 27.0.1, SVG Export Plug-In . SVG Version: 6.00 Build 0)  -->
<svg version="1.1" id="sealife" xmlns="http://www.w3.org/2000/svg" xmlns:xlink="http://www.w3.org/1999/xlink" x="0px" y="0px"
	 viewBox="0 0 482.3 731.5" style="enable-background:new 0 0 482.3 731.5;" xml:space="preserve">
<style type="text/css">
	.st0{fill:url(#SVGID_1_);}
	.st1{fill:url(#SVGID_00000101814998842994821850000004903011114406187693_);}
	.st2{fill:url(#SVGID_00000024688063462747805450000015348770064508516247_);}
	.st3{fill:url(#SVGID_00000168119215159795822690000015560871610716889240_);}
	.st4{fill:url(#SVGID_00000041289298422904839680000009355375761831689399_);}
	.st5{fill:url(#SVGID_00000115504034548947864330000000471217196018945164_);}
	.st6{fill:url(#SVGID_00000108301677616865860600000008563516150886976670_);}
	.st7{fill:url(#SVGID_00000028319450858739574610000004479904051556089499_);}
</style>
<linearGradient id="SVGID_1_" gradientUnits="userSpaceOnUse" x1="232.0316" y1="468.6377" x2="344.549" y2="-83.6897" gradientTransform="matrix(0.9799 0.1995 0.1995 -0.9799 -35.1572 579.6227)">
	<stop  offset="0" style="stop-color:#F6DAC4"/>
	<stop  offset="0.32" style="stop-color:#F4D4BA"/>
	<stop  offset="0.85" style="stop-color:#F1C4A1"/>
	<stop  offset="0.99" style="stop-color:#F1BF99"/>
</linearGradient>
<path class="st0" d="M316.9,728c6.2-37.8-7.9-75.3-14.6-112.1c-7-38.3-10.7-77.2-11.1-116.2c-0.4-36,4.8-73.2-4-108.6
	c-4.5-17.9-13.7-33.9-20.1-51c-6.5-17.2-8.5-35-6.9-53.3c3.3-39.7,19.3-77.1,22.1-117c0.3-4.2-6.2-4.1-6.5,0
	c-2.5,35.8-15.6,69.6-20.7,105c-2.3,16-2.8,32.3,0.3,48.3c3.4,17.6,12,33.4,18.8,49.9c14.6,35.1,11.1,72.2,10.6,109.3
	c-0.5,37.9,2.1,75.8,7.7,113.2c3.2,21.5,7.7,42.7,12.5,63.8c5,22,9.5,44.5,5.7,67C309.9,730.4,316.2,732.1,316.9,728L316.9,728
	L316.9,728z"/>
<linearGradient id="SVGID_00000119830313336966683290000003744033741157569431_" gradientUnits="userSpaceOnUse" x1="206.4095" y1="453.8816" x2="315.4812" y2="-81.5465" gradientTransform="matrix(0.9799 0.1995 0.1995 -0.9799 -35.1572 579.6227)">
	<stop  offset="0" style="stop-color:#F6DAC4"/>
	<stop  offset="0.32" style="stop-color:#F4D4BA"/>
	<stop  offset="0.85" style="stop-color:#F1C4A1"/>
	<stop  offset="0.99" style="stop-color:#F1BF99"/>
</linearGradient>
<path style="fill:url(#SVGID_00000119830313336966683290000003744033741157569431_);" d="M261.6,178.4
	c-8.1,32.6-30.3,59.9-35.9,93.3c-5.9,35.1,3.6,70.3,13.9,103.6c5.4,17.5,11.1,34.9,14.9,52.8c3.9,18.4,5.5,37.1,6.8,55.8
	c2.7,36.8,8.6,72.8,14.7,109.2c6.9,41.3,12.5,83.5,5.8,125.3c-0.7,4.1,5.6,5.8,6.3,1.7c11.8-73.2-12.6-145-18.9-217.5
	c-1.6-18.6-2.5-37.3-5-55.8c-2.4-17.3-6.6-34.2-11.6-51c-10.6-35.4-24-71.2-22.2-108.8c2-39.3,28-69.7,37.3-106.9
	C268.9,176,262.6,174.3,261.6,178.4L261.6,178.4L261.6,178.4z"/>
<linearGradient id="SVGID_00000069379392161005214970000015261832493590472865_" gradientUnits="userSpaceOnUse" x1="151.1062" y1="476.0865" x2="268.5172" y2="-100.2979" gradientTransform="matrix(0.9799 0.1995 0.1995 -0.9799 -35.1572 579.6227)">
	<stop  offset="0" style="stop-color:#F6DAC4"/>
	<stop  offset="0.32" style="stop-color:#F4D4BA"/>
	<stop  offset="0.85" style="stop-color:#F1C4A1"/>
	<stop  offset="0.99" style="stop-color:#F1BF99"/>
</linearGradient>
<path style="fill:url(#SVGID_00000069379392161005214970000015261832493590472865_);" d="M216.6,727.5c-7.2-19.9-5.2-40.2-0.6-60.5
	c4.3-18.6,9.4-36.9,12.5-55.8c6.3-38.8,7.4-78-1.4-116.5c-8.5-37.3-23.8-72.6-32.9-109.7c-9.6-38.9-10.1-79.3,0.2-118.1
	c10.9-40.9,34.9-77.4,41.2-119.6c0.6-4.1-5.6-5.9-6.3-1.7c-5.8,38.2-26.2,71.7-37.9,108.1c-11.9,36.9-14.4,76.6-7.5,114.8
	c6.8,37.7,21.8,73.2,32.2,109.9c11.5,40.8,13.3,81.9,7.2,123.8c-3.2,22.2-9.3,43.6-14.1,65.5c-4.5,20.6-6.2,41.5,1.1,61.6
	C211.7,733.2,218,731.5,216.6,727.5L216.6,727.5L216.6,727.5z"/>
<linearGradient id="SVGID_00000152242105429348933140000004717928592074030763_" gradientUnits="userSpaceOnUse" x1="262.794" y1="493.504" x2="374.5879" y2="-55.3147" gradientTransform="matrix(0.9799 0.1995 0.1995 -0.9799 -35.1572 579.6227)">
	<stop  offset="0" style="stop-color:#F6DAC4"/>
	<stop  offset="0.32" style="stop-color:#F4D4BA"/>
	<stop  offset="0.85" style="stop-color:#F1C4A1"/>
	<stop  offset="0.99" style="stop-color:#F1BF99"/>
</linearGradient>
<path style="fill:url(#SVGID_00000152242105429348933140000004717928592074030763_);" d="M281.9,151.6c3,37-9.9,72.9-8.3,109.8
	c0.8,16.8,5.4,32.3,12.6,47.4c7.4,15.3,16.6,30,21.2,46.4c5.4,19,1.2,37.8-2,56.8c-3.1,18.1-3.3,34.9,1.7,52.7
	c5.4,19.1,11.9,37,14,57c2,19.4,2.3,38.9,4.9,58.3c5.9,43.6,20.8,85.2,35.6,126.4c1.4,3.9,7.7,2.2,6.3-1.7
	c-13.3-37.1-26.7-74.5-33.6-113.4c-3.5-19.8-4.2-39.8-5.8-59.9c-1.4-18.1-4.6-35.4-10.2-52.6c-2.9-8.9-6-17.9-7.7-27.2
	c-1.9-10.3-1.5-20.5-0.1-30.8c2.5-18,7.7-35.9,5.6-54.2c-3.7-32.8-28.6-58.1-34.5-90.3c-7.6-41.5,10.1-82.9,6.7-124.6
	C288.1,147.5,281.6,147.4,281.9,151.6L281.9,151.6L281.9,151.6z"/>
<linearGradient id="SVGID_00000136397627562958539640000006201598247337440148_" gradientUnits="userSpaceOnUse" x1="282.8487" y1="502.8307" x2="393.7296" y2="-41.4839" gradientTransform="matrix(0.9799 0.1995 0.1995 -0.9799 -35.1572 579.6227)">
	<stop  offset="0" style="stop-color:#F6DAC4"/>
	<stop  offset="0.32" style="stop-color:#F4D4BA"/>
	<stop  offset="0.85" style="stop-color:#F1C4A1"/>
	<stop  offset="0.99" style="stop-color:#F1BF99"/>
</linearGradient>
<path style="fill:url(#SVGID_00000136397627562958539640000006201598247337440148_);" d="M309.8,146.5c1.1,19.4-3.6,38.3-6.3,57.4
	c-2.5,17.7-2.2,34.7,3.9,51.7c6.1,17.2,15.4,33.1,19.2,51.2c3.6,17.4,3.7,35.2,6.6,52.7c1.4,8.5,3.6,16.9,7.1,24.9
	c3.7,8.6,8.6,16.6,11.9,25.3c7.3,19.3,2.1,39.2-1.5,58.6c-6.6,34.8-2.6,69.3,4.7,103.7c8.7,41,21,81.5,20.8,123.8
	c0,4.2,6.5,4.2,6.5,0c0.4-73.1-38.2-142.9-27.3-216.3c2.7-18.2,8.7-36.5,6.9-55.1c-1.7-18.1-12.8-32.1-18.4-48.9
	c-6.1-18-6.3-37.2-8.6-55.9c-2.1-16.9-7.2-32.1-14-47.5c-4.5-10.1-9.1-20.3-11.3-31.2c-2.1-10.4-1.8-21-0.6-31.5
	c2.4-21,8.2-41.6,7-62.9C316.1,142.3,309.6,142.3,309.8,146.5L309.8,146.5L309.8,146.5z"/>
<linearGradient id="SVGID_00000031188293718189801740000003274820035996526233_" gradientUnits="userSpaceOnUse" x1="177.5371" y1="502.5261" x2="298.5988" y2="-91.792" gradientTransform="matrix(0.9799 0.1995 0.1995 -0.9799 -35.1572 579.6227)">
	<stop  offset="0" style="stop-color:#F6DAC4"/>
	<stop  offset="0.32" style="stop-color:#F4D4BA"/>
	<stop  offset="0.85" style="stop-color:#F1C4A1"/>
	<stop  offset="0.99" style="stop-color:#F1BF99"/>
</linearGradient>
<path style="fill:url(#SVGID_00000031188293718189801740000003274820035996526233_);" d="M255.8,725.2c-7.3-20.5-1.5-40.5,2.5-60.9
	c4-20.3,7.6-40.8,8.2-61.6c1-39.7-11-78.1-21.7-115.9c-5.4-19.2-10.6-38.4-13.7-58.1c-3.4-21.8-3.8-44-5.3-66
	c-1.4-21.9-5.5-43.5-7-65.4c-1.4-19.9,1.4-38.9,7.2-57.9c11.4-37.4,31-74.1,24.5-114.4c-0.7-4.1-6.9-2.4-6.3,1.7
	c5.9,36.9-11.9,71.7-22.9,105.8c-5.6,17.3-9.6,35.1-9.5,53.4c0.1,21.5,4.6,42.7,6.5,64c1.9,21.5,2.2,43.2,4.4,64.8
	c2.1,19.6,6.2,38.9,11.4,58c10.5,39.1,24.5,77.9,25.9,118.8c0.8,24.3-3.4,48.5-8.1,72.2c-4.2,21.2-9.8,42-2.3,63.2
	C250.9,730.8,257.2,729.2,255.8,725.2L255.8,725.2L255.8,725.2z"/>
<linearGradient id="SVGID_00000057118639825793434010000008423940783365427585_" gradientUnits="userSpaceOnUse" x1="123.9709" y1="483.5965" x2="237.1494" y2="-72.0262" gradientTransform="matrix(0.9799 0.1995 0.1995 -0.9799 -35.1572 579.6227)">
	<stop  offset="0" style="stop-color:#F6DAC4"/>
	<stop  offset="0.32" style="stop-color:#F4D4BA"/>
	<stop  offset="0.85" style="stop-color:#F1C4A1"/>
	<stop  offset="0.99" style="stop-color:#F1BF99"/>
</linearGradient>
<path style="fill:url(#SVGID_00000057118639825793434010000008423940783365427585_);" d="M157.7,696.4
	c11.9-14.9,17.9-33.2,24.5-50.8c7.3-19.6,14.3-39.3,19.8-59.5c10.5-38.8,14.9-79.8,3.8-119c-10-35.2-29.4-66.8-39.4-102
	c-5.2-18.4-7.2-37.6-3.5-56.5c3.7-19.3,12-37.2,20.7-54.8c18.2-37,40.2-79.5,24.4-121.3c-1.5-3.9-7.8-2.2-6.3,1.7
	c14.4,38.1-4.4,77.3-21.2,111.2c-15.9,32.1-30,64.6-24.6,101.2c5.1,35.4,23.5,67,36.2,100c6.9,17.8,12,36,13.4,55.1
	c1.5,20.5-0.5,41.1-4.6,61.2c-4.6,22.4-11.7,44.3-19.4,65.8c-7.6,21.1-14.1,45.1-28.3,62.9C150.5,695,155.1,699.7,157.7,696.4
	L157.7,696.4L157.7,696.4z"/>
<linearGradient id="SVGID_00000125579540476467068720000006792048732258151352_" gradientUnits="userSpaceOnUse" x1="155.0765" y1="623.097" x2="205.3136" y2="376.5022" gradientTransform="matrix(0.9799 0.1995 0.1995 -0.9799 -35.1572 579.6227)">
	<stop  offset="0" style="stop-color:#F6DAC4"/>
	<stop  offset="0.32" style="stop-color:#F4D4BA"/>
	<stop  offset="0.85" style="stop-color:#F1C4A1"/>
	<stop  offset="0.99" style="stop-color:#F1BF99"/>
</linearGradient>
<path style="fill:url(#SVGID_00000125579540476467068720000006792048732258151352_);" d="M371.3,32.4
	c56.6,28.9,112.7,92.5,110.9,159.3c-0.5,17.5-7.8,35.6-22.2,45.4c-18.5,12.7-46.8,7.7-60-10.5c-8.2,17.2-28.6,26.8-47.6,24.9
	c-19-1.9-36-13.9-47.1-29.4c-2.2,12.5-14,21.4-26.2,25c-26.7,8.1-58.2-5-71.5-29.6c1.5,8.1-3.5,16.4-10.4,21s-15.4,6-23.6,6.7
	c-15.6,1.3-31.7,0.2-46-6s-26.8-18-31.2-33c-1.6,9.9-9,18.2-18,22.6c-9,4.4-19.3,5.3-29.3,4.3c-13.7-1.4-27.3-6.6-37.1-16.2
	c-29.4-28.9,1.5-86.9,20.6-113.3c13.9-19.2,31.6-35.6,50.6-49.8c2.1-1.6,4.3-3.2,6.5-4.8c21.9-15.6,45.9-28.6,71.6-36.5
	C232.8-9.8,305.1-1.5,371.3,32.4L371.3,32.4z"/>
</svg>
