<?xml version="1.0" encoding="UTF-8"?><svg id="sealife" xmlns="http://www.w3.org/2000/svg" xmlns:xlink="http://www.w3.org/1999/xlink" viewBox="0 0 2072.73 1166.38"><defs><style>.cls-1{fill:url(#linear-gradient);}.cls-2{fill:url(#linear-gradient-8);}.cls-3{fill:url(#linear-gradient-3);}.cls-4{fill:url(#linear-gradient-4);}.cls-5{fill:url(#linear-gradient-2);}.cls-6{fill:url(#linear-gradient-6);}.cls-7{fill:url(#linear-gradient-7);}.cls-8{fill:url(#linear-gradient-5);}</style><linearGradient id="linear-gradient" x1="331.14" y1="511.14" x2="443.66" y2="1063.48" gradientTransform="translate(163.74 -313.9) rotate(11.51)" gradientUnits="userSpaceOnUse"><stop offset="0" stop-color="#f6dac4"/><stop offset=".32" stop-color="#f4d4ba"/><stop offset=".85" stop-color="#f1c4a1"/><stop offset=".99" stop-color="#f1bf99"/></linearGradient><linearGradient id="linear-gradient-2" x1="305.53" y1="525.9" x2="414.6" y2="1061.32" xlink:href="#linear-gradient"/><linearGradient id="linear-gradient-3" x1="250.2" y1="503.7" x2="367.61" y2="1080.08" xlink:href="#linear-gradient"/><linearGradient id="linear-gradient-4" x1="361.9" y1="486.28" x2="473.69" y2="1035.08" xlink:href="#linear-gradient"/><linearGradient id="linear-gradient-5" x1="381.97" y1="476.95" x2="492.85" y2="1021.26" xlink:href="#linear-gradient"/><linearGradient id="linear-gradient-6" x1="276.65" y1="477.26" x2="397.71" y2="1071.57" xlink:href="#linear-gradient"/><linearGradient id="linear-gradient-7" x1="223.06" y1="496.19" x2="336.24" y2="1051.82" xlink:href="#linear-gradient"/><linearGradient id="linear-gradient-8" x1="254.16" y1="356.72" x2="304.39" y2="603.28" xlink:href="#linear-gradient"/></defs><path class="cls-1" d="M417.31,814.39c6.25-37.76-7.85-75.33-14.57-112.09-7-38.32-10.72-77.23-11.15-116.18-.4-35.99,4.84-73.24-4.04-108.59-4.49-17.87-13.67-33.9-20.13-51.04-6.49-17.22-8.45-35.05-6.91-53.34,3.33-39.7,19.33-77.13,22.07-116.97,.29-4.17-6.21-4.15-6.5,0-2.46,35.79-15.62,69.61-20.68,104.97-2.3,16.03-2.83,32.33,.3,48.29,3.45,17.63,12,33.42,18.82,49.86,14.57,35.15,11.13,72.17,10.61,109.28-.53,37.87,2.08,75.75,7.67,113.2,3.21,21.49,7.71,42.67,12.52,63.84,5,21.99,9.47,44.48,5.74,67.03-.68,4.09,5.58,5.85,6.26,1.73h0Z"/><path class="cls-5" d="M362.09,264.72c-8.14,32.57-30.31,59.87-35.89,93.28-5.86,35.15,3.65,70.26,13.94,103.62,5.4,17.49,11.06,34.94,14.91,52.85,3.95,18.38,5.46,37.1,6.84,55.81,2.73,36.79,8.62,72.8,14.72,109.15,6.93,41.35,12.55,83.55,5.82,125.32-.66,4.09,5.6,5.85,6.26,1.73,11.8-73.24-12.62-145.05-18.86-217.55-1.6-18.62-2.49-37.31-5-55.85-2.35-17.35-6.6-34.24-11.6-50.99-10.58-35.4-24.05-71.2-22.19-108.77,1.95-39.34,28.02-69.7,37.3-106.87,1.01-4.06-5.25-5.79-6.26-1.73h0Z"/><path class="cls-3" d="M317.01,813.89c-7.17-19.91-5.23-40.21-.58-60.46,4.28-18.63,9.36-36.9,12.45-55.79,6.34-38.8,7.37-78.04-1.42-116.54-8.51-37.29-23.78-72.62-32.91-109.74-9.57-38.91-10.08-79.28,.25-118.12,10.87-40.87,34.88-77.36,41.25-119.55,.62-4.09-5.64-5.85-6.26-1.73-5.77,38.25-26.16,71.69-37.88,108.1-11.89,36.93-14.36,76.62-7.52,114.78,6.76,37.71,21.81,73.18,32.17,109.91,11.52,40.81,13.33,81.87,7.21,123.78-3.25,22.23-9.27,43.58-14.11,65.46-4.55,20.58-6.17,41.47,1.09,61.63,1.41,3.9,7.68,2.22,6.26-1.73h0Z"/><path class="cls-4" d="M382.37,237.95c3.01,36.96-9.92,72.88-8.28,109.77,.75,16.79,5.37,32.34,12.61,47.42,7.35,15.31,16.59,29.95,21.22,46.43,5.35,19.03,1.24,37.78-1.97,56.76-3.07,18.11-3.33,34.87,1.7,52.65,5.42,19.14,11.9,37.04,14.01,56.99,2.05,19.4,2.29,38.94,4.92,58.29,5.91,43.6,20.8,85.23,35.59,126.44,1.4,3.91,7.68,2.22,6.26-1.73-13.31-37.1-26.72-74.48-33.56-113.43-3.49-19.85-4.25-39.85-5.83-59.9-1.43-18.07-4.58-35.37-10.17-52.63-2.9-8.94-5.98-17.89-7.7-27.16-1.9-10.26-1.51-20.54-.06-30.83,2.53-17.97,7.68-35.93,5.62-54.23-3.69-32.79-28.61-58.12-34.52-90.28-7.63-41.49,10.06-82.88,6.67-124.56-.34-4.14-6.83-4.17-6.5,0h0Z"/><path class="cls-8" d="M410.29,232.83c1.13,19.45-3.62,38.3-6.29,57.42-2.48,17.73-2.19,34.72,3.88,51.71,6.15,17.22,15.41,33.11,19.19,51.16,3.63,17.35,3.7,35.21,6.64,52.66,1.44,8.55,3.65,16.91,7.07,24.89,3.68,8.57,8.64,16.57,11.93,25.31,7.27,19.3,2.15,39.17-1.55,58.62-6.61,34.82-2.63,69.29,4.67,103.66,8.7,40.95,21.01,81.55,20.75,123.79-.03,4.18,6.47,4.18,6.49,0,.44-73.06-38.22-142.87-27.3-216.28,2.71-18.22,8.69-36.46,6.93-55.08-1.71-18.11-12.75-32.1-18.43-48.88-6.09-18.01-6.27-37.22-8.63-55.91-2.13-16.86-7.16-32.06-13.99-47.54-4.45-10.1-9.08-20.28-11.3-31.16-2.11-10.36-1.81-20.99-.6-31.45,2.43-21.03,8.25-41.59,7-62.93-.24-4.15-6.74-4.18-6.49,0h0Z"/><path class="cls-6" d="M356.2,811.55c-7.28-20.46-1.46-40.46,2.52-60.93,3.95-20.29,7.64-40.85,8.16-61.56,1.01-39.74-11.02-78.09-21.75-115.89-5.44-19.15-10.62-38.44-13.71-58.13-3.42-21.84-3.84-44-5.28-66.02-1.42-21.93-5.52-43.54-7.05-65.43-1.39-19.91,1.43-38.87,7.25-57.9,11.41-37.37,30.97-74.15,24.49-114.36-.66-4.12-6.92-2.37-6.26,1.73,5.94,36.85-11.85,71.71-22.88,105.81-5.61,17.34-9.65,35.11-9.53,53.42,.14,21.5,4.65,42.68,6.54,64.04,1.91,21.55,2.16,43.22,4.43,64.75,2.07,19.65,6.25,38.91,11.35,57.98,10.46,39.07,24.47,77.94,25.86,118.75,.83,24.31-3.41,48.49-8.11,72.25-4.2,21.22-9.83,42.03-2.3,63.22,1.39,3.91,7.67,2.23,6.26-1.73h0Z"/><path class="cls-7" d="M258.12,782.75c11.85-14.9,17.87-33.15,24.46-50.77,7.32-19.56,14.32-39.28,19.8-59.45,10.54-38.84,14.94-79.75,3.81-118.98-9.98-35.17-29.44-66.8-39.36-101.97-5.2-18.43-7.19-37.57-3.52-56.49,3.74-19.29,12.05-37.25,20.66-54.78,18.16-36.99,40.19-79.48,24.38-121.28-1.46-3.87-7.75-2.19-6.26,1.73,14.41,38.12-4.44,77.28-21.21,111.19-15.88,32.09-29.96,64.64-24.65,101.23,5.14,35.42,23.46,67.03,36.2,99.99,6.87,17.77,11.99,36.05,13.44,55.12,1.55,20.5-.49,41.08-4.62,61.17-4.61,22.44-11.66,44.3-19.41,65.83-7.6,21.11-14.14,45.07-28.29,62.87-2.57,3.24,1.99,7.87,4.59,4.59h0Z"/><path class="cls-2" d="M471.79,118.73c56.6,28.94,112.73,92.54,110.91,159.26-.48,17.5-7.79,35.56-22.25,45.43-18.55,12.66-46.84,7.69-59.95-10.54-8.17,17.24-28.61,26.79-47.6,24.88-18.99-1.91-36.04-13.85-47.11-29.4-2.24,12.53-14.04,21.36-26.22,25.04-26.72,8.06-58.25-4.99-71.46-29.58,1.53,8.13-3.47,16.43-10.39,20.96-6.92,4.53-15.38,5.98-23.62,6.66-15.58,1.3-31.69,.17-46.04-6.03-14.35-6.2-26.78-18-31.21-32.99-1.65,9.85-9.01,18.16-17.96,22.57-8.96,4.41-19.32,5.3-29.26,4.26-13.67-1.43-27.27-6.59-37.06-16.24-29.38-28.93,1.47-86.9,20.59-113.29,13.94-19.23,31.58-35.55,50.58-49.8,2.15-1.61,4.31-3.2,6.5-4.76,21.93-15.64,45.89-28.6,71.6-36.54,71.45-22.05,143.68-13.8,209.96,20.09Z"/></svg>