<?xml version="1.0" encoding="utf-8"?>
<!-- Generator: Adobe Illustrator 27.0.1, SVG Export Plug-In . SVG Version: 6.00 Build 0)  -->
<svg version="1.1" id="fish" xmlns="http://www.w3.org/2000/svg" xmlns:xlink="http://www.w3.org/1999/xlink" x="0px" y="0px"
	 viewBox="0 0 219.4 176.2" style="enable-background:new 0 0 219.4 176.2;" xml:space="preserve">
<style type="text/css">
	.st0{fill:url(#SVGID_1_);}
	.st1{fill:url(#SVGID_00000173139699547879411840000013355053600751364754_);}
	.st2{fill:url(#SVGID_00000091727411071933640780000003428440344464124337_);}
	.st3{fill:url(#SVGID_00000067203203027990846060000017748608363922208930_);}
	.st4{fill:url(#SVGID_00000072269212178133948730000009115478773719829415_);}
	.st5{fill:url(#SVGID_00000014612672127606708820000004980072041955680925_);}
	.st6{fill:url(#SVGID_00000100345248274380075420000000621153036529969084_);}
	.st7{fill:url(#SVGID_00000145775698264165202070000011949473352701643962_);}
	.st8{fill:url(#SVGID_00000171692022983272827670000004749025034358727848_);}
	.st9{fill:url(#SVGID_00000062874277959746666660000004613231479191306650_);}
	.st10{fill:url(#SVGID_00000131344560543121598600000012770827567537475224_);}
	.st11{fill:url(#SVGID_00000086680356836388741890000015239861303922737310_);}
	.st12{fill:url(#SVGID_00000166654995221042342490000014550605968201002921_);}
	.st13{fill:url(#SVGID_00000086680757144454390970000012121485905431490482_);}
	.st14{fill:url(#SVGID_00000170264573035518424510000012771792390749271979_);}
	.st15{fill:#E86F3D;}
	.st16{fill:url(#SVGID_00000111166116476763367170000009772211165732975284_);}
	.st17{fill:url(#SVGID_00000059988668489172836410000000106638322535225743_);}
	.st18{fill:url(#SVGID_00000161591078342154280540000011598629784770054040_);}
</style>
<linearGradient id="SVGID_1_" gradientUnits="userSpaceOnUse" x1="61.8107" y1="954.2025" x2="152.9832" y2="954.2025" gradientTransform="matrix(1 0 0 -1 0 989.97)">
	<stop  offset="0" style="stop-color:#F3B69D"/>
	<stop  offset="0.21" style="stop-color:#F1AF93"/>
	<stop  offset="0.55" style="stop-color:#EE9C7A"/>
	<stop  offset="0.98" style="stop-color:#EA7D51"/>
	<stop  offset="0.99" style="stop-color:#EA7D50"/>
</linearGradient>
<path class="st0" d="M61.8,59.4c4.8-5.6,9-11.6,12.5-18.1c4-7.4,7-15.4,11.2-22.6s10-14.1,17.7-17.5c2.4-1.1,5.4-1.8,7.7-0.5
	c1.9,1.1,2.9,3.2,3.6,5.2c2,6.4,1.8,14,6.8,18.5c2.7,2.4,6.3,3.4,9.8,4.5c5.4,1.7,10.7,4.1,15.4,7.4c2,1.4,4,3.1,5.1,5.3
	c1.1,2.3,1.3,4.9,1.4,7.5c0.1,3.1,0.3,6.3-0.9,9.2c-1.7,4-5.7,6.6-9.7,8.3s-8.3,2.7-12.1,4.9L61.8,59.4L61.8,59.4z"/>
<linearGradient id="SVGID_00000044141472222931136450000012876712631475387811_" gradientUnits="userSpaceOnUse" x1="78.5509" y1="950.5804" x2="104.22" y2="950.5804" gradientTransform="matrix(1 0 0 -1 0 989.97)">
	<stop  offset="0" style="stop-color:#F3B69D"/>
	<stop  offset="0.21" style="stop-color:#F1AF93"/>
	<stop  offset="0.55" style="stop-color:#EE9C7A"/>
	<stop  offset="0.98" style="stop-color:#EA7D51"/>
	<stop  offset="0.99" style="stop-color:#EA7D50"/>
</linearGradient>
<path style="fill:url(#SVGID_00000044141472222931136450000012876712631475387811_);" d="M103.7,13c-3.1,3.3-5.6,7.3-7.9,11.3
	c-2.4,4-4.4,8.1-6.4,12.4c-3.9,8.6-7.1,17.4-10.7,26.1c-1.2,2.9,4,4.5,4.8,1.3c2.4-8.8,5.2-17.5,8.5-26c1.7-4.3,3.5-8.6,5.6-12.7
	c2-4.1,4.4-7.9,6.6-11.9C104.4,13.1,103.9,12.7,103.7,13L103.7,13L103.7,13z"/>
<linearGradient id="SVGID_00000075136434563464835100000000432626070769724064_" gradientUnits="userSpaceOnUse" x1="94.114" y1="944.2208" x2="117.2132" y2="944.2208" gradientTransform="matrix(1 0 0 -1 0 989.97)">
	<stop  offset="0" style="stop-color:#F3B69D"/>
	<stop  offset="0.21" style="stop-color:#F1AF93"/>
	<stop  offset="0.55" style="stop-color:#EE9C7A"/>
	<stop  offset="0.98" style="stop-color:#EA7D51"/>
	<stop  offset="0.99" style="stop-color:#EA7D50"/>
</linearGradient>
<path style="fill:url(#SVGID_00000075136434563464835100000000432626070769724064_);" d="M116.2,28.2c-2.7,1.9-5,4.8-7.1,7.3
	c-2.3,2.8-4.3,5.8-6.2,8.8c-1.9,3-3.7,6.2-5.5,9.3c-1.4,2.4-4.9,6.5-2.3,9.1c2.1,2.2,5.2-1,3.3-3.3c0.2,0.9,0.4,1,0.5,0.4
	c0.2-0.4,0.3-0.7,0.5-1.1c0.3-0.7,0.6-1.4,1-2.1c0.6-1.4,1.3-2.8,2-4.2c1.4-2.8,2.8-5.5,4.3-8.2c1.5-2.7,3.2-5.3,4.9-7.8
	c1.7-2.5,3.8-4.8,5.6-7.2C117.5,28.5,116.7,27.8,116.2,28.2L116.2,28.2L116.2,28.2z"/>
<linearGradient id="SVGID_00000039816969523931208550000001682718936620622777_" gradientUnits="userSpaceOnUse" x1="112.5446" y1="939.8614" x2="136.4378" y2="939.8614" gradientTransform="matrix(1 0 0 -1 0 989.97)">
	<stop  offset="0" style="stop-color:#F3B69D"/>
	<stop  offset="0.21" style="stop-color:#F1AF93"/>
	<stop  offset="0.55" style="stop-color:#EE9C7A"/>
	<stop  offset="0.98" style="stop-color:#EA7D51"/>
	<stop  offset="0.99" style="stop-color:#EA7D50"/>
</linearGradient>
<path style="fill:url(#SVGID_00000039816969523931208550000001682718936620622777_);" d="M135.9,37.7c-2.4,0.2-4.7,2.3-6.5,3.8
	c-2.1,1.6-4.1,3.4-6,5.2c-3.9,3.8-7.6,8.1-10.4,12.8c-1.4,2.3,2.2,4.4,3.6,2.1c2.8-4.4,5.8-8.6,9.3-12.4c1.7-1.9,3.5-3.7,5.3-5.4
	c1.7-1.6,4.3-3.1,5.2-5.2C136.5,38.2,136.4,37.6,135.9,37.7L135.9,37.7L135.9,37.7z"/>
<linearGradient id="SVGID_00000071551842105670269970000016428603346333780896_" gradientUnits="userSpaceOnUse" x1="158.6199" y1="907.635" x2="219.3595" y2="907.635" gradientTransform="matrix(1 0 0 -1 0 989.97)">
	<stop  offset="0" style="stop-color:#F3B69D"/>
	<stop  offset="0.21" style="stop-color:#F1AF93"/>
	<stop  offset="0.55" style="stop-color:#EE9C7A"/>
	<stop  offset="0.98" style="stop-color:#EA7D51"/>
	<stop  offset="0.99" style="stop-color:#EA7D50"/>
</linearGradient>
<path style="fill:url(#SVGID_00000071551842105670269970000016428603346333780896_);" d="M170.7,44.7c5.9-7.1,12.8-13.2,18.1-20.6
	c5.3-7.4,9-16.8,7-25.7c15.3,6.7,24.6,24.1,23.4,40.8c-1.2,16.7-11.8,31.9-26.2,40.4c5.3,4.2,10.3,9.1,13,15.3
	c4.4,9.7,2.5,20.9,1.9,31.6c-0.6,10.6,0.8,22.8,9.3,29.2c-4.1,6.9-12.5,10.6-20.5,10.6c-4.4,0-8.8-0.9-12.6-3.2
	c-4.1-2.4-7.2-6.1-9.8-10.1c-7.5-11.9-9.9-26.4-11.3-40.4c-0.8-8.2-1.4-16.4-2.6-24.6c-0.6-3.6-1.8-6.1-1.8-9.9
	C158.6,65.8,162.9,54.1,170.7,44.7L170.7,44.7z"/>
<linearGradient id="SVGID_00000014617620485626206650000015392285485058755223_" gradientUnits="userSpaceOnUse" x1="154.1798" y1="925.3232" x2="204.2973" y2="925.3232" gradientTransform="matrix(1 0 0 -1 0 989.97)">
	<stop  offset="0" style="stop-color:#F3B69D"/>
	<stop  offset="0.21" style="stop-color:#F1AF93"/>
	<stop  offset="0.55" style="stop-color:#EE9C7A"/>
	<stop  offset="0.98" style="stop-color:#EA7D51"/>
	<stop  offset="0.99" style="stop-color:#EA7D50"/>
</linearGradient>
<path style="fill:url(#SVGID_00000014617620485626206650000015392285485058755223_);" d="M203.9,35.7c-5,8.5-11.2,16.3-18.3,23.2
	c-7.4,7.1-16.2,12.5-23.9,19.4c-3.9,3.5-7.4,7.9-7.5,13.3c-0.1,2.9,4.3,2.8,4.4,0c0.3-6,5.5-10.4,9.7-14.1
	c4.9-4.3,10.1-8.1,14.8-12.6c8.7-8.3,15.9-18.1,21.2-28.9C204.4,35.7,204,35.4,203.9,35.7L203.9,35.7L203.9,35.7z"/>
<linearGradient id="SVGID_00000159467118252989614850000012585551260638355389_" gradientUnits="userSpaceOnUse" x1="162.4761" y1="870.6546" x2="205.7651" y2="870.6546" gradientTransform="matrix(1 0 0 -1 0 989.97)">
	<stop  offset="0" style="stop-color:#F3B69D"/>
	<stop  offset="0.21" style="stop-color:#F1AF93"/>
	<stop  offset="0.55" style="stop-color:#EE9C7A"/>
	<stop  offset="0.98" style="stop-color:#EA7D51"/>
	<stop  offset="0.99" style="stop-color:#EA7D50"/>
</linearGradient>
<path style="fill:url(#SVGID_00000159467118252989614850000012585551260638355389_);" d="M205.5,153.9c-2.4-1.2-4.6-2.3-6.5-4.2
	c-1.9-1.9-3.4-4-4.6-6.4c-2.8-5.4-3.7-11.6-4.1-17.6c-0.9-11.5-1-24.1-9.1-33.3c-3.9-4.5-10-8.1-16-8.6c-3-0.2-3.7,4.6-0.7,5.3
	c2.6,0.6,5.1,1.1,7.5,2.3c2.3,1.2,4.4,2.7,6.1,4.5c3.9,4.1,5.9,9.5,7,15c2.5,11.3,1.6,23.7,7.8,33.9c2.6,4.4,7,9.2,12.3,10.1
	C205.6,155,206.1,154.2,205.5,153.9L205.5,153.9L205.5,153.9z"/>
<linearGradient id="SVGID_00000167371132420975637920000014645332209401711549_" gradientUnits="userSpaceOnUse" x1="158.7223" y1="867.9927" x2="184.3832" y2="867.9927" gradientTransform="matrix(1 0 0 -1 0 989.97)">
	<stop  offset="0" style="stop-color:#F3B69D"/>
	<stop  offset="0.21" style="stop-color:#F1AF93"/>
	<stop  offset="0.55" style="stop-color:#EE9C7A"/>
	<stop  offset="0.98" style="stop-color:#EA7D51"/>
	<stop  offset="0.99" style="stop-color:#EA7D50"/>
</linearGradient>
<path style="fill:url(#SVGID_00000167371132420975637920000014645332209401711549_);" d="M184.3,146.6c-4.8-8.5-4.8-18.1-6.5-27.5
	c-1.7-9.6-6.6-18-15.3-22.7c-2.8-1.5-5.3,2.9-2.5,4.2c4.2,2,7.8,5,10.3,8.9c2.5,3.9,3.7,8.3,4.6,12.8c1.7,8.6,2.1,18.4,8.2,25.3
	C183.6,148.3,184.7,147.4,184.3,146.6L184.3,146.6L184.3,146.6z"/>
<linearGradient id="SVGID_00000021093182246759186520000015756395785578110654_" gradientUnits="userSpaceOnUse" x1="153.2381" y1="928.0388" x2="189.8967" y2="928.0388" gradientTransform="matrix(1 0 0 -1 0 989.97)">
	<stop  offset="0" style="stop-color:#F3B69D"/>
	<stop  offset="0.21" style="stop-color:#F1AF93"/>
	<stop  offset="0.55" style="stop-color:#EE9C7A"/>
	<stop  offset="0.98" style="stop-color:#EA7D51"/>
	<stop  offset="0.99" style="stop-color:#EA7D50"/>
</linearGradient>
<path style="fill:url(#SVGID_00000021093182246759186520000015756395785578110654_);" d="M189.1,40.8c-8,5.4-15.4,12-22.4,18.7
	c-6,5.8-14.8,13.1-13.4,22.3c0.4,2.4,4,1.4,3.7-1c-0.6-4.2,1.9-8.1,4.4-11.2c2.7-3.4,5.7-6.6,8.7-9.7c6.2-6.5,12.9-12.3,19.6-18.2
	C190.2,41.2,189.6,40.4,189.1,40.8L189.1,40.8L189.1,40.8z"/>
<linearGradient id="SVGID_00000151501341317719789350000012919279618175909254_" gradientUnits="userSpaceOnUse" x1="152.6183" y1="913.5192" x2="198.5345" y2="913.5192" gradientTransform="matrix(1 0 0 -1 0 989.97)">
	<stop  offset="0" style="stop-color:#F3B69D"/>
	<stop  offset="0.21" style="stop-color:#F1AF93"/>
	<stop  offset="0.55" style="stop-color:#EE9C7A"/>
	<stop  offset="0.98" style="stop-color:#EA7D51"/>
	<stop  offset="0.99" style="stop-color:#EA7D50"/>
</linearGradient>
<path style="fill:url(#SVGID_00000151501341317719789350000012919279618175909254_);" d="M198,61.8c-2.9,4-6.5,7.9-10.5,10.8
	c-3.5,2.6-7.5,4.3-11.6,5.7c-4,1.4-8.1,2.5-12,3.9c-3.8,1.4-8,3.1-10.8,6.1c-1.2,1.3,0.4,3.7,2,2.6c3.7-2.4,7.2-4.7,11.3-6.3
	c4-1.6,8.2-2.9,12.2-4.6c4-1.7,7.7-3.8,10.9-6.7c3.6-3.3,6.2-7.3,8.9-11.4C198.7,61.8,198.2,61.5,198,61.8L198,61.8L198,61.8z"/>
<linearGradient id="SVGID_00000116957864188180799060000004642191131317090751_" gradientUnits="userSpaceOnUse" x1="162.3993" y1="902.9376" x2="195.9104" y2="902.9376" gradientTransform="matrix(1 0 0 -1 0 989.97)">
	<stop  offset="0" style="stop-color:#F3B69D"/>
	<stop  offset="0.21" style="stop-color:#F1AF93"/>
	<stop  offset="0.55" style="stop-color:#EE9C7A"/>
	<stop  offset="0.98" style="stop-color:#EA7D51"/>
	<stop  offset="0.99" style="stop-color:#EA7D50"/>
</linearGradient>
<path style="fill:url(#SVGID_00000116957864188180799060000004642191131317090751_);" d="M195.9,93.5c-0.5-2.6-3.1-5-5.1-6.6
	c-2.3-1.9-4.8-3.4-7.5-4.6c-6.2-2.6-13.4-2.8-19.8-0.6c-2,0.7-1.2,3.9,0.9,3.2c5.9-1.9,12.1-1.9,17.9,0.1c2.5,0.9,4.9,2.2,7,3.8
	c1.1,0.8,2.1,1.7,3.2,2.7c0.9,0.8,1.8,1.9,2.8,2.5C195.7,94,196,93.8,195.9,93.5L195.9,93.5L195.9,93.5z"/>
<linearGradient id="SVGID_00000159446744393840542620000015078148439256035253_" gradientUnits="userSpaceOnUse" x1="116.1807" y1="853.9834" x2="152.0625" y2="853.9834" gradientTransform="matrix(1 0 0 -1 0 989.97)">
	<stop  offset="0" style="stop-color:#F3B69D"/>
	<stop  offset="0.21" style="stop-color:#F1AF93"/>
	<stop  offset="0.55" style="stop-color:#EE9C7A"/>
	<stop  offset="0.98" style="stop-color:#EA7D51"/>
	<stop  offset="0.99" style="stop-color:#EA7D50"/>
</linearGradient>
<path style="fill:url(#SVGID_00000159446744393840542620000015078148439256035253_);" d="M116.2,138.9c1.9,4.7,6,8,10,11.1
	c3.6,2.8,7.4,5.7,12,6.2c1.6,0.1,3.3-0.1,4.6-1.1c1-0.9,1.6-2.2,1.9-3.6c0.9-3.7,0.7-7.7,2.4-11.1c1.4-2.9,3.9-5.1,4.8-8.2
	c1.5-5.3-2.7-11.1-1.1-16.4L116.2,138.9L116.2,138.9z"/>
<linearGradient id="SVGID_00000018937489080750036000000003472924472813573052_" gradientUnits="userSpaceOnUse" x1="66.2143" y1="832.3336" x2="109.6007" y2="832.3336" gradientTransform="matrix(1 0 0 -1 0 989.97)">
	<stop  offset="0" style="stop-color:#F3B69D"/>
	<stop  offset="0.21" style="stop-color:#F1AF93"/>
	<stop  offset="0.55" style="stop-color:#EE9C7A"/>
	<stop  offset="0.98" style="stop-color:#EA7D51"/>
	<stop  offset="0.99" style="stop-color:#EA7D50"/>
</linearGradient>
<path style="fill:url(#SVGID_00000018937489080750036000000003472924472813573052_);" d="M75,162.4c2.2,2.8,4.4,5.5,7.6,8
	c3.1,2.4,7.3,4.5,12.3,5.4c5,0.9,10.9,0.4,14.7-1.7c-5.8-3.5-9-8.5-8.5-13.4c0.2-2,1-3.9,1-5.9c0-1.9-0.7-3.7-1.7-5.5
	c-1.9-3.1-5.1-6.2-10.1-7.9c-2.9-1-6.2-1.4-9.5-1.7c-4.2-0.4-9.5-2-12.1,0.8c-1.7,1.8-2.3,3.9-2.4,5.9C65.8,152.2,71,157.4,75,162.4
	L75,162.4z"/>
<linearGradient id="SVGID_00000183241330383603835000000004610848694218966661_" gradientUnits="userSpaceOnUse" x1="0" y1="890.23" x2="172.8261" y2="890.23" gradientTransform="matrix(1 0 0 -1 0 989.97)">
	<stop  offset="0" style="stop-color:#F3B69D"/>
	<stop  offset="0.21" style="stop-color:#F1AF93"/>
	<stop  offset="0.55" style="stop-color:#EE9C7A"/>
	<stop  offset="0.98" style="stop-color:#EA7D51"/>
	<stop  offset="0.99" style="stop-color:#EA7D50"/>
</linearGradient>
<path style="fill:url(#SVGID_00000183241330383603835000000004610848694218966661_);" d="M46.6,55.3c14.6-3.7,29.6-5.4,44.6-6.6
	c14.8-1.1,29.6-1.7,44.3-0.1c12.1,1.4,25.1,5,31.9,15.1c2.5,3.8,4,8.2,4.7,12.7c3.2,19.7-7.1,39.9-22.6,52.4
	c-15.5,12.6-35.4,18.5-55.1,21.3c-13.2,1.9-26.7,2.5-39.8,0.4c-13.2-2.1-26-7-36.4-15.3C7.2,126.3-1,112.6,0.1,98.4
	C1.8,75.2,26.1,60.5,46.6,55.3L46.6,55.3z"/>
<linearGradient id="SVGID_00000029033296656822510440000006717729396790105015_" gradientUnits="userSpaceOnUse" x1="1.4541" y1="923.1936" x2="65.2215" y2="923.1936" gradientTransform="matrix(1 0 0 -1 0 989.97)">
	<stop  offset="0" style="stop-color:#F3B69D"/>
	<stop  offset="0.21" style="stop-color:#F1AF93"/>
	<stop  offset="0.55" style="stop-color:#EE9C7A"/>
	<stop  offset="0.98" style="stop-color:#EA7D51"/>
	<stop  offset="0.99" style="stop-color:#EA7D50"/>
</linearGradient>
<path style="fill:url(#SVGID_00000029033296656822510440000006717729396790105015_);" d="M1.5,71.6c0.2,6.7,2.7,13.2,8.1,17.7
	c5.3,4.4,12.1,7.1,19,7.5c6.9,0.4,13.9-1.5,19.7-5.4c3.8-2.5,7-5.8,9.8-9.4c2.6-3.3,4.8-7,6.1-11c2.7-8.6,0.4-18.6-5.7-25.1
	c-6-6.4-15.9-9.9-24.4-9.1c-7,0.6-13.8,3.2-19.6,7.2C8.5,47.9,4.9,55.1,2.9,61.7C1.9,64.9,1.4,68.3,1.5,71.6L1.5,71.6z"/>
<path class="st15" d="M21.4,55.1c5.1-3.9,11.9-5.5,18.3-3.5c3.7,1.1,7.4,2.8,10.1,5.6c2.7,2.8,4.3,6.8,3.4,10.6
	c-1-0.3-1.6-1.4-2.1-2.3c-2.5-4.6-7.1-8-12.2-8.9c-5.1-0.9-10.7,0.7-14.4,4.3c-4.7,4.5-6.4,11.2-7.3,17.6c-0.3,2.1-1.5,1-2.3,0
	c-1.4-1.7-1.6-3.7-1.5-5.9c0.1-2,0.2-4,0.7-6C15,61.9,17.7,57.9,21.4,55.1L21.4,55.1z"/>
<linearGradient id="SVGID_00000120542819707076973180000015003592684202590356_" gradientUnits="userSpaceOnUse" x1="78.4306" y1="889.0638" x2="122.6381" y2="889.0638" gradientTransform="matrix(1 0 0 -1 0 989.97)">
	<stop  offset="0" style="stop-color:#F3B69D"/>
	<stop  offset="0.21" style="stop-color:#F1AF93"/>
	<stop  offset="0.55" style="stop-color:#EE9C7A"/>
	<stop  offset="0.98" style="stop-color:#EA7D51"/>
	<stop  offset="0.99" style="stop-color:#EA7D50"/>
</linearGradient>
<path style="fill:url(#SVGID_00000120542819707076973180000015003592684202590356_);" d="M89.4,115.5c-4.4-4.8-7.2-10.6-9.4-16.7
	c-1.6-4.2-3-10.2,1.3-13.6c2.4-1.9,6.8-3.1,9.7-4c7.9-2.6,16.6-3.3,24.8-1.6c3,0.6,6.6,2.2,6.8,5.3c0.1,1.6-0.8,3.1-1.9,4.4
	c-3.3,3.9-8,6.4-12.6,8.8c4.1,0.9,8.7,2.3,10.5,6c1.3,2.6,0.8,5.7-0.3,8.4c-2.9,6.9-7.9,11.8-15.9,10.7c-4.4-0.6-8.5-3-11.7-6.1
	C90.3,116.5,89.9,116,89.4,115.5L89.4,115.5z"/>
<path class="st15" d="M27.6,118.6c5.7,0.7,11.6-0.3,17.1-1.9c-1.8,3.7-3.6,7.4-6.6,10.1c-0.9,0.8-2.1,1.6-3.3,1.8
	c-0.9,0.1-1.8,0-2.6-0.2c-4.1-0.9-8-2.9-11.2-5.6c-2-1.7-7.7-6.7-6.6-9.6C18.8,115.5,22.3,118,27.6,118.6L27.6,118.6z"/>
<linearGradient id="SVGID_00000126296506898190578140000005589862256546418351_" gradientUnits="userSpaceOnUse" x1="69.8857" y1="876.0616" x2="85.6149" y2="876.0616" gradientTransform="matrix(1 0 0 -1 0 989.97)">
	<stop  offset="0" style="stop-color:#F3B69D"/>
	<stop  offset="0.21" style="stop-color:#F1AF93"/>
	<stop  offset="0.55" style="stop-color:#EE9C7A"/>
	<stop  offset="0.98" style="stop-color:#EA7D51"/>
	<stop  offset="0.99" style="stop-color:#EA7D50"/>
</linearGradient>
<path style="fill:url(#SVGID_00000126296506898190578140000005589862256546418351_);" d="M71.1,136.3c1.5-1,2.6-2.6,3.7-4
	c1.2-1.6,2.2-3.2,3.2-4.8c1.9-3.4,3.5-7,4.8-10.8c2.5-7.5,3.5-15.6,2.5-23.4c-0.3-2.3-3.9-2.4-3.7,0c0.6,7.5,0,15-2.1,22.2
	c-1,3.6-2.4,7.1-4.1,10.4c-0.8,1.6-1.7,3.3-2.7,4.8c-0.9,1.5-2.1,3-2.8,4.7C69.7,136,70.5,136.6,71.1,136.3L71.1,136.3L71.1,136.3z"
	/>
<linearGradient id="SVGID_00000173129917460866619310000003936337030454471296_" gradientUnits="userSpaceOnUse" x1="77.4961" y1="904.8592" x2="86.9031" y2="904.8592" gradientTransform="matrix(1 0 0 -1 0 989.97)">
	<stop  offset="0" style="stop-color:#F3B69D"/>
	<stop  offset="0.21" style="stop-color:#F1AF93"/>
	<stop  offset="0.55" style="stop-color:#EE9C7A"/>
	<stop  offset="0.98" style="stop-color:#EA7D51"/>
	<stop  offset="0.99" style="stop-color:#EA7D50"/>
</linearGradient>
<path style="fill:url(#SVGID_00000173129917460866619310000003936337030454471296_);" d="M77.5,64.5c0.4,3.2,1.9,6.3,2.7,9.4
	c0.9,3.3,1.5,6.7,1.9,10.1c0.8,6.8,0.7,13.6-0.2,20.4c-0.3,2.4,4,3,4.3,0.6c1-7.2,0.8-14.3-0.4-21.5c-0.6-3.5-1.5-6.9-2.6-10.2
	c-1.1-3.1-2.2-7-4.4-9.4C78.4,63.4,77.4,63.8,77.5,64.5L77.5,64.5L77.5,64.5z"/>
</svg>
