<?xml version="1.0" encoding="UTF-8"?><svg id="fish" xmlns="http://www.w3.org/2000/svg" xmlns:xlink="http://www.w3.org/1999/xlink" viewBox="0 0 2072.73 1166.38"><defs><style>.cls-1{fill:url(#linear-gradient);}.cls-2{fill:#e86f3d;}.cls-3{fill:url(#linear-gradient-8);}.cls-4{fill:url(#linear-gradient-9);}.cls-5{fill:url(#linear-gradient-3);}.cls-6{fill:url(#linear-gradient-4);}.cls-7{fill:url(#linear-gradient-2);}.cls-8{fill:url(#linear-gradient-6);}.cls-9{fill:url(#linear-gradient-7);}.cls-10{fill:url(#linear-gradient-5);}.cls-11{fill:url(#linear-gradient-14);}.cls-12{fill:url(#linear-gradient-18);}.cls-13{fill:url(#linear-gradient-15);}.cls-14{fill:url(#linear-gradient-16);}.cls-15{fill:url(#linear-gradient-17);}.cls-16{fill:url(#linear-gradient-13);}.cls-17{fill:url(#linear-gradient-12);}.cls-18{fill:url(#linear-gradient-10);}.cls-19{fill:url(#linear-gradient-11);}</style><linearGradient id="linear-gradient" x1="162.24" y1="123.8" x2="253.4" y2="123.8" gradientUnits="userSpaceOnUse"><stop offset="0" stop-color="#f3b69d"/><stop offset=".21" stop-color="#f1af93"/><stop offset=".55" stop-color="#ee9c7a"/><stop offset=".98" stop-color="#ea7d51"/><stop offset=".99" stop-color="#ea7d50"/></linearGradient><linearGradient id="linear-gradient-2" x1="178.97" y1="127.4" x2="204.65" y2="127.4" xlink:href="#linear-gradient"/><linearGradient id="linear-gradient-3" x1="194.54" y1="133.76" x2="217.63" y2="133.76" xlink:href="#linear-gradient"/><linearGradient id="linear-gradient-4" x1="212.96" y1="138.13" x2="236.85" y2="138.13" xlink:href="#linear-gradient"/><linearGradient id="linear-gradient-5" x1="259.03" y1="170.35" x2="319.76" y2="170.35" xlink:href="#linear-gradient"/><linearGradient id="linear-gradient-6" x1="254.59" y1="152.67" x2="304.72" y2="152.67" xlink:href="#linear-gradient"/><linearGradient id="linear-gradient-7" x1="262.9" y1="207.34" x2="306.19" y2="207.34" xlink:href="#linear-gradient"/><linearGradient id="linear-gradient-8" x1="259.15" y1="209.99" x2="284.81" y2="209.99" xlink:href="#linear-gradient"/><linearGradient id="linear-gradient-9" x1="253.66" y1="149.95" x2="290.32" y2="149.95" xlink:href="#linear-gradient"/><linearGradient id="linear-gradient-10" x1="253.04" y1="164.47" x2="298.96" y2="164.47" xlink:href="#linear-gradient"/><linearGradient id="linear-gradient-11" x1="262.82" y1="175.06" x2="296.33" y2="175.06" xlink:href="#linear-gradient"/><linearGradient id="linear-gradient-12" x1="216.6" y1="224" x2="252.48" y2="224" xlink:href="#linear-gradient"/><linearGradient id="linear-gradient-13" x1="166.64" y1="245.65" x2="210.01" y2="245.65" xlink:href="#linear-gradient"/><linearGradient id="linear-gradient-14" x1="100.43" y1="187.75" x2="273.25" y2="187.75" xlink:href="#linear-gradient"/><linearGradient id="linear-gradient-15" x1="101.88" y1="154.78" x2="165.65" y2="154.78" xlink:href="#linear-gradient"/><linearGradient id="linear-gradient-16" x1="178.85" y1="188.92" x2="223.07" y2="188.92" xlink:href="#linear-gradient"/><linearGradient id="linear-gradient-17" x1="170.31" y1="201.92" x2="186.03" y2="201.92" xlink:href="#linear-gradient"/><linearGradient id="linear-gradient-18" x1="177.92" y1="173.13" x2="187.33" y2="173.13" xlink:href="#linear-gradient"/></defs><path class="cls-1" d="M162.24,147.44c4.82-5.55,9.02-11.64,12.48-18.12,3.97-7.43,6.97-15.36,11.21-22.64,4.24-7.28,9.97-14.06,17.66-17.48,2.45-1.09,5.39-1.78,7.73-.47,1.88,1.05,2.9,3.15,3.55,5.2,2.02,6.37,1.81,14.04,6.76,18.54,2.67,2.43,6.31,3.37,9.75,4.47,5.45,1.74,10.74,4.08,15.42,7.38,2.02,1.43,3.98,3.09,5.09,5.3,1.15,2.29,1.29,4.93,1.42,7.49,.15,3.11,.27,6.34-.93,9.22-1.68,4.02-5.66,6.61-9.69,8.29-4.03,1.68-8.34,2.72-12.1,4.93l-68.36-12.12Z"/><path class="cls-7" d="M204.09,101.04c-3.09,3.32-5.6,7.35-7.89,11.26-2.35,4.01-4.45,8.14-6.38,12.37-3.92,8.56-7.07,17.43-10.67,26.12-1.2,2.91,3.97,4.52,4.82,1.33,2.35-8.81,5.18-17.52,8.49-26.02,1.68-4.31,3.52-8.57,5.58-12.72,2.03-4.08,4.41-7.93,6.56-11.94,.17-.32-.25-.68-.52-.4h0Z"/><path class="cls-5" d="M216.62,116.18c-2.73,1.95-5.02,4.76-7.14,7.34-2.28,2.77-4.3,5.76-6.21,8.79-1.91,3.04-3.68,6.16-5.49,9.26-1.42,2.44-4.92,6.49-2.3,9.15,2.13,2.17,5.18-1.03,3.29-3.29,.18,.92,.35,1.04,.51,.39,.16-.35,.32-.71,.48-1.06,.32-.71,.64-1.42,.96-2.13,.64-1.42,1.28-2.84,1.97-4.24,1.37-2.78,2.8-5.54,4.34-8.24,1.52-2.68,3.16-5.29,4.9-7.83,1.73-2.53,3.82-4.76,5.6-7.23,.38-.53-.38-1.28-.9-.9h0Z"/><path class="cls-6" d="M236.3,125.69c-2.41,.2-4.69,2.34-6.54,3.75-2.12,1.62-4.13,3.37-6.04,5.22-3.94,3.81-7.58,8.1-10.43,12.79-1.42,2.33,2.17,4.39,3.64,2.13,2.83-4.36,5.79-8.57,9.28-12.43,1.7-1.88,3.49-3.66,5.34-5.39,1.67-1.57,4.27-3.09,5.25-5.21,.16-.35-.02-.89-.49-.85h0Z"/><path class="cls-10" d="M271.14,132.73c5.85-7.05,12.8-13.17,18.14-20.62,5.33-7.45,8.99-16.8,6.96-25.73,15.31,6.69,24.61,24.09,23.44,40.76-1.17,16.66-11.84,31.91-26.2,40.44,5.28,4.24,10.28,9.14,13.04,15.32,4.35,9.74,2.51,20.94,1.91,31.58-.6,10.65,.84,22.77,9.31,29.25-4.1,6.94-12.48,10.58-20.54,10.59-4.38,0-8.81-.95-12.59-3.16-4.09-2.39-7.24-6.11-9.77-10.11-7.54-11.94-9.9-26.37-11.31-40.43-.82-8.2-1.38-16.44-2.65-24.6-.56-3.63-1.82-6.14-1.84-9.93-.07-12.26,4.32-23.98,12.11-33.36Z"/><path class="cls-8" d="M304.29,123.72c-5.02,8.48-11.2,16.33-18.29,23.17-7.41,7.15-16.25,12.48-23.87,19.37-3.86,3.49-7.41,7.9-7.53,13.33-.07,2.86,4.31,2.84,4.43,0,.26-6.01,5.5-10.42,9.7-14.08,4.89-4.27,10.1-8.15,14.8-12.65,8.72-8.33,15.85-18.09,21.16-28.91,.13-.27-.25-.5-.41-.24h0Z"/><path class="cls-9" d="M305.91,241.93c-2.37-1.23-4.57-2.34-6.51-4.24-1.9-1.85-3.42-4.04-4.63-6.4-2.81-5.44-3.66-11.62-4.15-17.65-.94-11.5-1-24.09-9.07-33.27-3.94-4.48-9.99-8.14-16.02-8.63-3.04-.25-3.67,4.63-.72,5.31,2.58,.6,5.09,1.07,7.49,2.28,2.29,1.16,4.35,2.67,6.12,4.53,3.88,4.09,5.85,9.54,7.04,14.96,2.48,11.31,1.58,23.71,7.75,33.95,2.63,4.36,7.02,9.18,12.27,10.15,.57,.11,1.02-.7,.42-1.01h0Z"/><path class="cls-3" d="M284.7,234.66c-4.83-8.53-4.84-18.12-6.54-27.51-1.74-9.57-6.56-17.99-15.3-22.74-2.8-1.52-5.3,2.89-2.48,4.24,4.19,2,7.81,5.01,10.3,8.95,2.45,3.87,3.67,8.31,4.58,12.77,1.73,8.56,2.08,18.43,8.18,25.27,.62,.69,1.7-.19,1.26-.97h0Z"/><path class="cls-4" d="M289.53,128.79c-8.02,5.42-15.41,11.97-22.36,18.69-5.97,5.77-14.78,13.05-13.36,22.32,.37,2.45,4.03,1.39,3.7-1.02-.58-4.19,1.88-8.09,4.37-11.22,2.7-3.4,5.69-6.59,8.69-9.73,6.18-6.48,12.88-12.32,19.59-18.23,.44-.39-.14-1.15-.63-.82h0Z"/><path class="cls-18" d="M298.39,149.8c-2.92,4-6.48,7.86-10.48,10.81-3.52,2.59-7.49,4.27-11.6,5.67-3.99,1.37-8.06,2.46-12.01,3.95-3.78,1.42-8.01,3.15-10.82,6.15-1.25,1.33,.38,3.7,2.02,2.62,3.7-2.43,7.18-4.68,11.34-6.31,4.04-1.59,8.21-2.86,12.21-4.55,3.97-1.68,7.74-3.77,10.94-6.7,3.62-3.3,6.21-7.32,8.91-11.35,.22-.32-.29-.61-.52-.3h0Z"/><path class="cls-19" d="M296.32,181.47c-.52-2.56-3.14-5.02-5.06-6.63-2.26-1.89-4.76-3.43-7.48-4.57-6.25-2.62-13.39-2.77-19.8-.62-2.04,.68-1.17,3.92,.89,3.24,5.86-1.92,12.06-1.95,17.89,.08,2.52,.88,4.89,2.17,7.03,3.76,1.12,.83,2.15,1.73,3.17,2.68,.89,.83,1.76,1.86,2.81,2.47,.3,.18,.62-.11,.55-.43h0Z"/><path class="cls-17" d="M216.6,226.9c1.87,4.68,6,8.01,9.97,11.12,3.58,2.81,7.43,5.73,11.96,6.17,1.6,.15,3.33-.06,4.55-1.1,1.04-.89,1.56-2.25,1.89-3.58,.91-3.69,.73-7.68,2.37-11.12,1.38-2.88,3.95-5.15,4.81-8.22,1.5-5.34-2.66-11.07-1.13-16.4l-34.42,23.14Z"/><path class="cls-16" d="M175.39,250.45c2.21,2.76,4.45,5.54,7.6,7.98,3.15,2.43,7.33,4.52,12.33,5.4,5,.89,10.89,.4,14.7-1.68-5.83-3.52-8.99-8.49-8.5-13.37,.2-1.98,.97-3.94,.97-5.92,0-1.86-.69-3.71-1.74-5.48-1.87-3.15-5.08-6.19-10.05-7.85-2.9-.97-6.19-1.4-9.48-1.67-4.24-.35-9.52-2.01-12.13,.77-1.69,1.8-2.27,3.89-2.43,5.95-.44,5.68,4.71,10.87,8.72,15.88Z"/><path class="cls-11" d="M147.05,143.29c14.59-3.73,29.62-5.45,44.64-6.6,14.75-1.13,29.62-1.72,44.32-.05,12.09,1.38,25.15,5.04,31.92,15.15,2.54,3.79,3.98,8.22,4.72,12.72,3.24,19.66-7.09,39.85-22.57,52.4-15.48,12.55-35.36,18.46-55.09,21.28-13.19,1.88-26.66,2.5-39.81,.41-13.16-2.09-26.03-7-36.42-15.34-11.11-8.92-19.3-22.6-18.25-36.81,1.72-23.28,26-37.92,46.53-43.16Z"/><path class="cls-13" d="M101.89,159.62c.16,6.73,2.68,13.18,8.11,17.73,5.31,4.45,12.07,7.12,18.99,7.5,6.91,.38,13.93-1.54,19.69-5.39,3.77-2.52,6.98-5.81,9.75-9.4,2.58-3.34,4.83-7,6.09-11.02,2.7-8.59,.42-18.56-5.74-25.13-5.97-6.36-15.85-9.89-24.45-9.12-7.03,.64-13.83,3.21-19.64,7.19-5.75,3.94-9.39,11.13-11.4,17.72-.99,3.25-1.48,6.62-1.41,9.93Z"/><path class="cls-2" d="M121.81,143.13c5.1-3.9,11.94-5.47,18.33-3.51,3.7,1.14,7.35,2.79,10.06,5.56,2.7,2.77,4.32,6.82,3.42,10.59-1.02-.29-1.56-1.37-2.08-2.3-2.5-4.57-7.12-7.95-12.25-8.85-5.13-.9-10.66,.71-14.45,4.28-4.72,4.46-6.38,11.21-7.31,17.63-.31,2.12-1.49,1.01-2.34,0-1.41-1.71-1.61-3.74-1.53-5.88,.08-2,.23-4.01,.66-5.96,1.06-4.76,3.82-8.76,7.48-11.56Z"/><path class="cls-14" d="M189.85,203.56c-4.43-4.79-7.18-10.65-9.45-16.74-1.58-4.23-3-10.2,1.34-13.61,2.39-1.89,6.83-3.07,9.7-4.03,7.94-2.64,16.57-3.26,24.79-1.65,3.04,.6,6.62,2.17,6.82,5.27,.1,1.63-.83,3.14-1.89,4.39-3.32,3.93-8.01,6.41-12.58,8.79,4.08,.93,8.68,2.26,10.51,6.03,1.26,2.59,.81,5.72-.31,8.37-2.89,6.85-7.87,11.76-15.85,10.66-4.43-.62-8.48-2.98-11.71-6.07-.48-.46-.93-.92-1.38-1.4Z"/><path class="cls-2" d="M128.03,206.66c5.74,.69,11.58-.27,17.13-1.87-1.76,3.66-3.59,7.43-6.64,10.12-.95,.84-2.06,1.58-3.32,1.77-.88,.13-1.78-.02-2.65-.21-4.12-.91-7.98-2.87-11.21-5.56-2.02-1.68-7.66-6.66-6.63-9.61,4.49,2.26,8.04,4.74,13.32,5.37Z"/><path class="cls-15" d="M171.48,224.28c1.51-.99,2.63-2.58,3.7-4.01,1.17-1.55,2.25-3.16,3.21-4.85,1.93-3.41,3.51-7.03,4.75-10.75,2.49-7.5,3.51-15.57,2.52-23.43-.29-2.31-3.89-2.43-3.71,0,.55,7.49,0,15.01-2.06,22.25-1.02,3.6-2.39,7.09-4.1,10.41-.84,1.64-1.72,3.27-2.68,4.84-.93,1.53-2.1,3-2.76,4.67-.25,.63,.6,1.22,1.13,.87h0Z"/><path class="cls-12" d="M177.92,152.48c.36,3.16,1.92,6.31,2.72,9.4,.86,3.33,1.5,6.74,1.92,10.15,.83,6.75,.7,13.64-.17,20.38-.32,2.42,3.96,3.02,4.29,.58,.98-7.19,.83-14.31-.39-21.47-.59-3.46-1.49-6.85-2.63-10.17-1.06-3.07-2.18-6.99-4.4-9.43-.43-.47-1.42-.13-1.34,.56h0Z"/></svg>