<?xml version="1.0" encoding="utf-8"?>
<!-- Generator: Adobe Illustrator 27.0.1, SVG Export Plug-In . SVG Version: 6.00 Build 0)  -->
<svg version="1.1" id="sealife" xmlns="http://www.w3.org/2000/svg" xmlns:xlink="http://www.w3.org/1999/xlink" x="0px" y="0px"
	 viewBox="0 0 555.4 383.9" style="enable-background:new 0 0 555.4 383.9;" xml:space="preserve">
<style type="text/css">
	.st0{fill:url(#SVGID_1_);}
	.st1{fill:url(#SVGID_00000112634337305953633010000001546408286374922167_);}
	.st2{fill:url(#SVGID_00000051379693702700218930000000693573891759075997_);}
	.st3{fill:url(#SVGID_00000057850849831848542110000002578366559478180480_);}
	.st4{fill:url(#SVGID_00000091736335665279958210000011341817934664948379_);}
	.st5{fill:#82A8A0;}
</style>
<linearGradient id="SVGID_1_" gradientUnits="userSpaceOnUse" x1="1403.2715" y1="780.8292" x2="1547.3529" y2="780.8292" gradientTransform="matrix(-1 0 0 -1 1547.3529 993.2455)">
	<stop  offset="0" style="stop-color:#B4CAC6"/>
	<stop  offset="0.35" style="stop-color:#AAC3BE"/>
	<stop  offset="0.93" style="stop-color:#91B3AB"/>
	<stop  offset="1" style="stop-color:#8EB1A9"/>
</linearGradient>
<path class="st0" d="M132.1,209.1C99.4,212.8-0.4,293.6,0,230c0.2-22.2,17.8-44.1,36.7-53.3c39.9-19.6,69.5,12.9,107.4,17.3
	L132.1,209.1L132.1,209.1z"/>
<linearGradient id="SVGID_00000000202208275846711140000012515667909644261299_" gradientUnits="userSpaceOnUse" x1="991.9988" y1="890.4341" x2="1202.0447" y2="890.4341" gradientTransform="matrix(-1 0 0 -1 1547.3529 993.2455)">
	<stop  offset="0" style="stop-color:#B4CAC6"/>
	<stop  offset="0.35" style="stop-color:#AAC3BE"/>
	<stop  offset="0.93" style="stop-color:#91B3AB"/>
	<stop  offset="1" style="stop-color:#8EB1A9"/>
</linearGradient>
<path style="fill:url(#SVGID_00000000202208275846711140000012515667909644261299_);" d="M380.5,205.6
	C366.1,147,315,82.7,370.8,30.9c42.5-39.4,173.6-51.8,183.9,27.7c8,62.1-57.8,74-99,65.9c-19.2-3.8-47.3-18.2-59.5,6.8
	c-11.4,23.1,26.7,50.6-6.6,65.3L380.5,205.6L380.5,205.6z"/>
<linearGradient id="SVGID_00000029724039018734431630000009712232055393661847_" gradientUnits="userSpaceOnUse" x1="1158.6832" y1="705.5186" x2="1285.6224" y2="705.5186" gradientTransform="matrix(-1 0 0 -1 1547.3529 993.2455)">
	<stop  offset="0" style="stop-color:#B4CAC6"/>
	<stop  offset="0.35" style="stop-color:#AAC3BE"/>
	<stop  offset="0.93" style="stop-color:#91B3AB"/>
	<stop  offset="1" style="stop-color:#8EB1A9"/>
</linearGradient>
<path style="fill:url(#SVGID_00000029724039018734431630000009712232055393661847_);" d="M344.7,215.4
	c-10.2,63.1-19.9,65.4-66.1,98.2c-34.4,24.4-11.1,44.5,24.1,48.8c85.8,10.6,120.7-120.2,42-150L344.7,215.4L344.7,215.4z"/>
<linearGradient id="SVGID_00000036237352874703103500000005765339124947190707_" gradientUnits="userSpaceOnUse" x1="1383.7299" y1="675.57" x2="1494.1974" y2="675.57" gradientTransform="matrix(-1 0 0 -1 1547.3529 993.2455)">
	<stop  offset="0" style="stop-color:#B4CAC6"/>
	<stop  offset="0.35" style="stop-color:#AAC3BE"/>
	<stop  offset="0.93" style="stop-color:#91B3AB"/>
	<stop  offset="1" style="stop-color:#8EB1A9"/>
</linearGradient>
<path style="fill:url(#SVGID_00000036237352874703103500000005765339124947190707_);" d="M107.7,251.4c0.2,40.2,2.1,46.3-23.8,68.9
	c-10.4,9-27.9,14.3-30.3,29.9c-4.1,26.6,27.2,36.1,48.2,33.2c23.8-3.3,40.7-23.8,51.1-45.2c16-33,15.5-57-9.1-83.9L107.7,251.4z"/>
<linearGradient id="SVGID_00000034789976877062479470000017463190544799472276_" gradientUnits="userSpaceOnUse" x1="1135.7378" y1="807.6292" x2="1479.2512" y2="807.6292" gradientTransform="matrix(-1 0 0 -1 1547.3529 993.2455)">
	<stop  offset="0" style="stop-color:#B4CAC6"/>
	<stop  offset="0.35" style="stop-color:#AAC3BE"/>
	<stop  offset="0.93" style="stop-color:#91B3AB"/>
	<stop  offset="1" style="stop-color:#8EB1A9"/>
</linearGradient>
<path style="fill:url(#SVGID_00000034789976877062479470000017463190544799472276_);" d="M392.6,238.7
	c-43.1,32.2-148.1,42.7-189.5,44c-32.6,1-113.1,20.1-129.7-11c-11.5-21.6-1.8-70,4.1-92.6c16.7-64.8,77.8-101.5,163.3-96.7
	c53.2,2.9,125.3,20.7,151.2,60.6c10.7,16.5,17.1,41.9,19.3,60.3C413.1,217.3,405.7,228.9,392.6,238.7L392.6,238.7z"/>
<path class="st5" d="M306,99.8c-5.5,19-11.6,37.8-20.4,55.6c-3.4,6.9,6.9,12.9,10.3,6c9.3-18.7,15.9-38.4,21.6-58.4
	C319.6,95.6,308.1,92.5,306,99.8L306,99.8L306,99.8z"/>
<path class="st5" d="M278.7,155.5c-30,3-60,6-90,9c-7.6,0.8-7.6,12.7,0,11.9l90-9C286.3,166.6,286.3,154.7,278.7,155.5L278.7,155.5
	L278.7,155.5z"/>
<path class="st5" d="M189.9,169.2c-19-16-35.2-35-51-54c-4.9-5.9-13.3,2.6-8.4,8.4c15.8,19,32,38,51,54
	C187.3,182.5,195.8,174.2,189.9,169.2L189.9,169.2L189.9,169.2z"/>
<path class="st5" d="M172.5,175.2c-13,16.3-24.6,33.6-33.9,52.2c-3.4,6.8,6.8,12.9,10.3,6c8.9-17.6,19.8-34.3,32.1-49.8
	C185.6,177.7,177.3,169.2,172.5,175.2L172.5,175.2z"/>
<path class="st5" d="M133.1,233.7c-17.6,6-33.6,15.1-49.4,24.6c-6.6,3.9-0.6,14.2,6,10.3c15-9,30-17.8,46.6-23.4
	C143.5,242.7,140.4,231.2,133.1,233.7L133.1,233.7L133.1,233.7z"/>
<path class="st5" d="M146.7,241.6c18.8,9.4,37.7,18.7,57,27c7,3,13-7.2,6-10.3c-19.3-8.3-38.2-17.6-57-27
	C145.8,227.9,139.8,238.1,146.7,241.6L146.7,241.6L146.7,241.6z"/>
<path class="st5" d="M214.3,269.2c24.2-6,48.4-11.7,73.4-11.8c7.7,0,7.7-12,0-11.9c-26.1,0.1-51.4,5.9-76.6,12.2
	C203.7,259.5,206.8,271,214.3,269.2L214.3,269.2L214.3,269.2z"/>
<path class="st5" d="M292.8,257.4c9.2-18.1,21.7-34.2,33-51c4.3-6.4-6-12.4-10.3-6c-11.3,16.8-23.8,32.9-33,51
	C279.1,258.2,289.4,264.3,292.8,257.4L292.8,257.4z"/>
<path class="st5" d="M286.5,165.6c12,15,24,30,36,45c4.8,6,13.2-2.5,8.4-8.4c-12-15-24-30-36-45
	C290.1,151.2,281.8,159.7,286.5,165.6L286.5,165.6L286.5,165.6z"/>
<path class="st5" d="M320.7,212.4c28.5,0.2,55.9,8.7,84,12c7.6,0.9,7.5-11,0-11.9c-28.2-3.3-55.4-11.8-84-12
	C313,200.4,313,212.3,320.7,212.4L320.7,212.4z"/>
<path class="st5" d="M482.5,64c2.3-6,6.1-13.7,13-15.2c5.8-1.3,10.1,8.4,11.6,12.2c2.8,7.1,14.3,4,11.5-3.2
	c-4-10.1-11.3-21.8-23.7-20.9C482.2,37.9,475,50.4,471,60.8C468.2,68,479.7,71,482.5,64L482.5,64z"/>
</svg>
