<?xml version="1.0" encoding="UTF-8"?><svg id="sealife" xmlns="http://www.w3.org/2000/svg" xmlns:xlink="http://www.w3.org/1999/xlink" viewBox="0 0 2072.73 1166.38"><defs><style>.cls-1{fill:url(#linear-gradient);}.cls-2{fill:#82a8a0;}.cls-3{fill:url(#linear-gradient-3);}.cls-4{fill:url(#linear-gradient-4);}.cls-5{fill:url(#linear-gradient-2);}.cls-6{fill:url(#linear-gradient-5);}</style><linearGradient id="linear-gradient" x1="511.71" y1="298.79" x2="655.79" y2="298.79" gradientTransform="translate(756.23) rotate(-180) scale(1 -1)" gradientUnits="userSpaceOnUse"><stop offset="0" stop-color="#b4cac6"/><stop offset=".35" stop-color="#aac3be"/><stop offset=".93" stop-color="#91b3ab"/><stop offset="1" stop-color="#8eb1a9"/></linearGradient><linearGradient id="linear-gradient-2" x1="100.43" y1="189.19" x2="310.48" y2="189.19" xlink:href="#linear-gradient"/><linearGradient id="linear-gradient-3" x1="267.12" y1="374.1" x2="394.06" y2="374.1" xlink:href="#linear-gradient"/><linearGradient id="linear-gradient-4" x1="492.16" y1="404.06" x2="602.63" y2="404.06" xlink:href="#linear-gradient"/><linearGradient id="linear-gradient-5" x1="244.18" y1="271.99" x2="587.69" y2="271.99" xlink:href="#linear-gradient"/></defs><path class="cls-1" d="M232.52,295.43c-32.67,3.71-132.52,84.57-132.08,20.99,.15-22.25,17.79-44.07,36.68-53.33,39.95-19.58,69.53,12.91,107.4,17.33l-12,15Z"/><path class="cls-5" d="M480.96,292c-14.42-58.6-65.52-122.88-9.74-174.68,42.46-39.43,173.61-51.81,183.9,27.67,8.04,62.1-57.85,74.04-99,65.92-19.23-3.8-47.3-18.17-59.55,6.75-11.35,23.09,26.65,50.57-6.61,65.34l-9,9Z"/><path class="cls-3" d="M445.15,301.79c-10.19,63.12-19.9,65.4-66.08,98.18-34.42,24.44-11.14,44.48,24.07,48.83,85.8,10.59,120.71-120.17,42-150v3Z"/><path class="cls-4" d="M208.12,337.79c.2,40.22,2.1,46.29-23.84,68.92-10.38,9.05-27.91,14.28-30.32,29.93-4.1,26.65,27.16,36.1,48.16,33.16,23.79-3.34,40.71-23.78,51.07-45.16,15.99-32.97,15.45-56.98-9.07-83.85l-36-3Z"/><path class="cls-6" d="M493.08,325.03c-43.15,32.2-148.12,42.68-189.5,44.01-32.59,1.04-113.1,20.06-129.68-11.02-11.5-21.56-1.79-69.98,4.06-92.65,16.71-64.77,77.8-101.47,163.3-96.72,53.15,2.95,125.33,20.71,151.23,60.64,10.68,16.47,17.12,41.87,19.33,60.34,1.67,14-5.72,25.69-18.73,35.4Z"/><path class="cls-2" d="M406.4,186.2c-5.46,19.02-11.6,37.81-20.4,55.58-3.4,6.86,6.87,12.89,10.28,6.01,9.26-18.7,15.86-38.41,21.6-58.43,2.12-7.4-9.37-10.53-11.48-3.17h0Z"/><path class="cls-2" d="M379.14,241.83c-30,3-60.01,6-90.01,9-7.56,.76-7.64,12.67,0,11.91l90.01-9c7.57-.76,7.64-12.67,0-11.91h0Z"/><path class="cls-2" d="M290.34,255.58c-18.98-15.97-35.16-35.01-51.01-54.01-4.92-5.9-13.3,2.57-8.42,8.42,15.84,19,32.02,38.04,51.01,54.01,5.83,4.91,14.3-3.47,8.42-8.42h0Z"/><path class="cls-2" d="M272.92,261.58c-12.95,16.29-24.55,33.62-33.93,52.21-3.45,6.84,6.82,12.86,10.28,6.01,8.91-17.65,19.77-34.33,32.07-49.8,4.73-5.94-3.64-14.43-8.42-8.42h0Z"/><path class="cls-2" d="M233.54,320.05c-17.58,5.98-33.57,15.09-49.43,24.6-6.57,3.94-.59,14.24,6.01,10.28,14.96-8.97,30-17.76,46.58-23.4,7.23-2.46,4.12-13.96-3.17-11.48h0Z"/><path class="cls-2" d="M247.12,327.93c18.81,9.41,37.68,18.69,57.01,27,6.97,3,13.04-7.25,6.01-10.28-19.33-8.32-38.19-17.6-57.01-27-6.85-3.42-12.88,6.85-6.01,10.28h0Z"/><path class="cls-2" d="M314.72,355.54c24.19-6.05,48.36-11.66,73.42-11.79,7.68-.04,7.68-11.95,0-11.91-26.1,.14-51.4,5.92-76.59,12.21-7.45,1.86-4.29,13.34,3.17,11.48h0Z"/><path class="cls-2" d="M393.28,343.8c9.2-18.12,21.73-34.18,33-51.01,4.29-6.4-6.03-12.35-10.28-6.01-11.27,16.83-23.81,32.88-33,51.01-3.47,6.83,6.81,12.86,10.28,6.01h0Z"/><path class="cls-2" d="M386.93,251.99c12,15,24,30,36,45,4.8,6,13.16-2.49,8.42-8.42-12-15-24-30-36-45-4.8-6-13.16,2.49-8.42,8.42h0Z"/><path class="cls-2" d="M421.14,298.74c28.51,.18,55.85,8.74,84.01,12,7.62,.88,7.53-11.03,0-11.91-28.19-3.26-55.44-11.82-84.01-12-7.68-.05-7.68,11.86,0,11.91h0Z"/><path class="cls-2" d="M582.9,150.36c2.33-5.97,6.11-13.66,12.96-15.21,5.76-1.31,10.06,8.4,11.56,12.21,2.77,7.06,14.29,3.99,11.48-3.17-3.97-10.11-11.29-21.77-23.74-20.87-12.52,.91-19.69,13.49-23.74,23.87-2.8,7.16,8.72,10.23,11.48,3.17h0Z"/></svg>