<?xml version="1.0" encoding="utf-8"?>
<!-- Generator: Adobe Illustrator 27.0.1, SVG Export Plug-In . SVG Version: 6.00 Build 0)  -->
<svg version="1.1" id="fish" xmlns="http://www.w3.org/2000/svg" xmlns:xlink="http://www.w3.org/1999/xlink" x="0px" y="0px"
	 viewBox="0 0 304.1 264.4" style="enable-background:new 0 0 304.1 264.4;" xml:space="preserve">
<style type="text/css">
	.st0{fill:url(#SVGID_1_);}
	.st1{fill:url(#SVGID_00000027596697336738879330000001135447489981089698_);}
	.st2{fill:url(#SVGID_00000072971887536668799480000006397749046493039750_);}
	.st3{fill:url(#SVGID_00000096053898814542442300000002051490783791393433_);}
	.st4{fill:url(#SVGID_00000078732778199485730730000008285138157341594040_);}
	.st5{fill:url(#SVGID_00000016036351773154597460000011400859986992107918_);}
	.st6{fill:#F0CE8D;}
	.st7{fill:url(#SVGID_00000135681771789450409210000004064128493332984976_);}
	.st8{fill:url(#SVGID_00000142889819747786771210000007273773193630801028_);}
	.st9{fill:url(#SVGID_00000078745042421494882130000006513583210956875446_);}
	.st10{fill:url(#SVGID_00000008867898922459142710000002637467682136302767_);}
</style>
<linearGradient id="SVGID_1_" gradientUnits="userSpaceOnUse" x1="150.7853" y1="755.8094" x2="216.0655" y2="755.8094" gradientTransform="matrix(1 0 0 -1 0 993.26)">
	<stop  offset="0" style="stop-color:#FAEED9"/>
	<stop  offset="0.21" style="stop-color:#F8EACF"/>
	<stop  offset="0.55" style="stop-color:#F5DFB6"/>
	<stop  offset="0.99" style="stop-color:#F0CE8D"/>
</linearGradient>
<path class="st0" d="M159.3,250.9c10,6.6,22.7,9,34.5,6.6c-2.2-2.3-1.1-6.4,1.3-8.5c2.5-2,5.8-2.6,9-3c2.4-0.3,4.9-0.7,7.3-1
	c-3.1-1.4-3.6-5.8-2.3-8.9s3.8-5.6,5.5-8.5c1.7-3,2.3-7-0.1-9.5c-2.4-2.4-6.3-2-9.6-1.2c-19.9,4.7-38.6,14.2-54.1,27.5L159.3,250.9
	L159.3,250.9z"/>
<linearGradient id="SVGID_00000180344712874616502140000009072094202508962190_" gradientUnits="userSpaceOnUse" x1="44.2353" y1="935.175" x2="216.6453" y2="935.175" gradientTransform="matrix(1 0 0 -1 0 993.26)">
	<stop  offset="0" style="stop-color:#FAEED9"/>
	<stop  offset="0.21" style="stop-color:#F8EACF"/>
	<stop  offset="0.55" style="stop-color:#F5DFB6"/>
	<stop  offset="0.99" style="stop-color:#F0CE8D"/>
</linearGradient>
<path style="fill:url(#SVGID_00000180344712874616502140000009072094202508962190_);" d="M44.2,80.5c1.8-7.3,6.1-13.8,10.8-19.8
	C81.8,26.5,123.1,3.9,166.5,0c-1.6,3.2-3.2,6.5-3.5,10s1,7.5,4,9.3c4.9,2.9,11.7-0.6,16.7,2.1c-3.8,6.5-1.5,15.2,3.3,21
	c4.8,5.8,11.7,9.4,18.4,12.8c-4.8,7.7-6.6,17.2-5,26.1c2.2,12.7,10.8,23.3,16.3,35L44.2,80.5L44.2,80.5z"/>
<linearGradient id="SVGID_00000122683025750572091720000004681074763762602164_" gradientUnits="userSpaceOnUse" x1="218.8347" y1="821.407" x2="304.0533" y2="821.407" gradientTransform="matrix(1 0 0 -1 0 993.26)">
	<stop  offset="0" style="stop-color:#FAEED9"/>
	<stop  offset="0.21" style="stop-color:#F8EACF"/>
	<stop  offset="0.55" style="stop-color:#F5DFB6"/>
	<stop  offset="0.99" style="stop-color:#F0CE8D"/>
</linearGradient>
<path style="fill:url(#SVGID_00000122683025750572091720000004681074763762602164_);" d="M243.7,232.8
	c-19.1-16.9-29.1-48.3-23.1-70.4c5.1-18.7,16.9-35.8,32.2-47.4c3.5-2.6,51-24.1,51.2-14.4c0.3,14.5-6.4,28.3-15.9,38.9
	c-9.7,10.8-25.3,18.7-38.2,24.8c13.4,14.8,49.5,53.5,34.1,76.5C275.9,252.8,251.3,239.5,243.7,232.8L243.7,232.8z"/>
<linearGradient id="SVGID_00000060751080425964729560000015291287104100071574_" gradientUnits="userSpaceOnUse" x1="0" y1="864.9026" x2="26.9893" y2="864.9026" gradientTransform="matrix(1 0 0 -1 0 993.26)">
	<stop  offset="0" style="stop-color:#FAEED9"/>
	<stop  offset="0.21" style="stop-color:#F8EACF"/>
	<stop  offset="0.55" style="stop-color:#F5DFB6"/>
	<stop  offset="0.99" style="stop-color:#F0CE8D"/>
</linearGradient>
<path style="fill:url(#SVGID_00000060751080425964729560000015291287104100071574_);" d="M13.9,130.1c-5.3-2.1-8.7-7.4-10.4-12.8
	c-0.8-2.4-1.3-5.1-0.2-7.4c1.8-3.8,7.3-4.4,11-2.4c3.7,2,5.9,5.9,8,9.5c5.1,8.9,7.7,21.1-1.2,28.9c-3.9,3.4-21.7,8.4-21.1-0.3
	C0.4,139.8,9.6,132.9,13.9,130.1L13.9,130.1z"/>
<linearGradient id="SVGID_00000033332289413663738900000017258111515358287274_" gradientUnits="userSpaceOnUse" x1="16.4482" y1="844.8182" x2="240.819" y2="844.8182" gradientTransform="matrix(1 0 0 -1 0 993.26)">
	<stop  offset="0" style="stop-color:#FAEED9"/>
	<stop  offset="0.21" style="stop-color:#F8EACF"/>
	<stop  offset="0.55" style="stop-color:#F5DFB6"/>
	<stop  offset="0.99" style="stop-color:#F0CE8D"/>
</linearGradient>
<path style="fill:url(#SVGID_00000033332289413663738900000017258111515358287274_);" d="M240.4,154.7c-0.7,8.2-2.2,16.4-4.4,24.3
	c-1.3,4.9-2.9,9.6-4.8,14.3c-4.6,11.7-10.7,23-19.4,32.1c-8.1,8.6-18.3,15-28.8,20.5c-5.6,2.9-11.2,5.2-16.9,7.1
	c-12.8,4.2-26,5.9-39.3,5.3c-6.2-0.3-12.5-1.1-18.8-2.3c-5.9-1.2-11.7-2.8-17.5-4.8c-42.1-14.8-71.2-51.4-73.9-93.8
	c-0.6-9.9,0.2-20.2,2.7-30.6c1.5-6.5,3.6-12.9,6.1-19C33,89,45.1,72.2,61,59.8c21.3-16.5,48-23.5,74.7-20.9
	c9.3,0.9,18.6,2.9,27.6,5.9c11.4,3.8,22.3,9.2,32.1,15.9l0,0c13.8,9.5,25.5,21.8,33.5,36.4c5.1,9.2,8.7,19.3,10.5,30.1
	c0.3,1.9,0.6,3.9,0.8,5.8C241,140.3,241,147.5,240.4,154.7L240.4,154.7z"/>
<linearGradient id="SVGID_00000129916598134613510360000018266468971303312063_" gradientUnits="userSpaceOnUse" x1="125.7488" y1="847.4891" x2="154.1821" y2="847.4891" gradientTransform="matrix(1 0 0 -1 0 993.26)">
	<stop  offset="0" style="stop-color:#FAEED9"/>
	<stop  offset="0.21" style="stop-color:#F8EACF"/>
	<stop  offset="0.55" style="stop-color:#F5DFB6"/>
	<stop  offset="0.99" style="stop-color:#F0CE8D"/>
</linearGradient>
<path style="fill:url(#SVGID_00000129916598134613510360000018266468971303312063_);" d="M131.1,134.9c4.3-1.5,9-2.7,13.5-1.7
	c0.9,0.2,1.9,0.8,2.7,1c0.4-0.9,0.3-1-0.4-0.4c-0.5,0.3-1.1,0.5-1.6,0.7c-2.3,0.9-4.6,1.3-7,1.4c-3.8,0.2-4.7,5.5-0.9,6.7
	c2.3,0.7,4.6,1.7,6.2,3.5c0.2,0.2,0.4,1,0.6,0.8c0.2-0.2,0.1-0.2-0.2-0.2c-1-0.2-1.7-0.7-2.5-1.3c-1.2,2-2.3,3.9-3.5,5.9
	c1.3,0.9,2.2,2.4,2.4,4c0.1,0.5,0.2,1.8-0.3,2.1c-0.3,0.2,0,0.2-0.6-0.6c-2.1-2.8-3.9-5.8-5-9.1c-0.7-2.2-1.3-5-0.4-7.2
	c1.3-3,5.4-1.7,7.8-1.1v-8c-9.5,1.5-14.7,12-10.6,20.5c1.9,3.9,6.7,7.1,10.9,4.6c4.7-2.8,3.6-9.9,1.9-14.1c-1.4-3.4-5.5-4.2-7.7-1
	c-3.2,4.7-3.9,10.8-1.8,16.1c0.9,2.1,2.9,3.7,5.3,3c2-0.6,3.9-3.1,3-5.3c-1.4-3.4-1.2-6.5,0.8-9.6c-2.6-0.3-5.1-0.7-7.7-1
	c0.5,1.2,0.9,2.4,1.1,3.6c0.1,0.6,0.1,1.1,0.1,1.7c0.8-0.3,1.6-0.5,2.4-0.8c0,0.1-1-1.4-1-1.6c-0.3-0.8-0.4-1.6-0.3-2.4
	c0.2-3.4,2.8-5.4,6-5.9c4.1-0.6,3.7-7,0-8c-6.7-1.7-14.6-1.5-17.5,5.9c-2.3,5.9-0.1,12.7,2.9,18c2.9,5.2,9.2,13.4,15.4,7.2
	c5.1-5.2,1.5-13.6-3.5-17.2c-3.6-2.6-7,3.4-3.5,5.9c4.2,3.1,11.9,3.2,12.7-3.3c0.8-6.4-6.6-10.3-11.6-11.9c-0.3,2.2-0.6,4.4-0.9,6.7
	c4.3-0.1,9.1-0.9,12.9-3.1c3.7-2.2,4.1-7,1.1-10c-3-3-8.1-3.1-12-2.6c-4.2,0.5-7.9,2.1-10.8,5.1
	C128.3,133.3,129.4,135.5,131.1,134.9L131.1,134.9L131.1,134.9z"/>
<path class="st6" d="M65.7,119.6c2-1,3.5-2.9,5.6-3.9c2-1,4.4-1.7,6.6-1.5c4.9,0.5,8.1,4.5,9.3,9c0.8,3.2,6.1,2.6,5.9-0.8
	c-0.4-7.6-6.9-13.8-14.4-14.3c-3.6-0.2-7.1,0.9-9.9,3.2c-2.1,1.7-4.7,5.1-3.9,7.9C65,119.6,65.4,119.8,65.7,119.6L65.7,119.6
	L65.7,119.6z"/>
<linearGradient id="SVGID_00000144308586349444240420000002522142549421435558_" gradientUnits="userSpaceOnUse" x1="69.0023" y1="743.1447" x2="98.5485" y2="743.1447" gradientTransform="matrix(1 0 0 -1 0 993.26)">
	<stop  offset="0" style="stop-color:#FAEED9"/>
	<stop  offset="0.21" style="stop-color:#F8EACF"/>
	<stop  offset="0.55" style="stop-color:#F5DFB6"/>
	<stop  offset="0.99" style="stop-color:#F0CE8D"/>
</linearGradient>
<path style="fill:url(#SVGID_00000144308586349444240420000002522142549421435558_);" d="M70.2,240.2c-1.6,3.9-1.4,8.6-0.7,12.7
	c0.7,3.8,1.8,8.5,5.4,10.6c4,2.3,8.7,0.2,10.6-3.7c2.1-4.4-0.2-9-1.8-13.2c-2.9,1.2-5.9,2.5-8.8,3.7c2.7,4.2,6.8,6.5,11.4,8
	c2.2,0.7,4.8,1.5,7.2,0.9c2.9-0.7,4.9-3.4,5-6.4c0.1-5.2-5-9-8.9-11.6c-4.2-2.8-9.1-4.6-14-5.3c-2.6-0.4-5.2,0.6-6,3.4
	c-0.6,2.3,0.8,5.6,3.4,6c3.3,0.5,6.6,1.4,9.6,3c1.4,0.7,2.7,1.5,3.9,2.5c0.6,0.5,1.3,1.1,1.9,1.7c1.3,1.3,0.2,0.6,0.5-0.1
	c0.4-0.7,0.8-1.4,1.2-2.1c2.2-0.3,2.6-0.5,1.2-0.7c-0.5-0.1-1-0.3-1.5-0.4c-0.8-0.2-1.7-0.5-2.5-0.8c-1.5-0.6-3-1.5-4-2.9
	c-1.3-2-3.8-3-6-2c-2,0.9-3.6,3.4-2.8,5.7c0.4,1.1,0.8,2.2,1.2,3.3c0.2,0.7,0.6,3,1.1,3.3c-0.1,0.5,0,0.5,0.3,0.1
	c0.5-0.6,1.2-0.7,2.2-0.3c0,0.1-1.3-2.1-1.4-2.2c-2-4.2-2.7-8.7-4-13.1C73.4,238.2,70.9,238.5,70.2,240.2L70.2,240.2L70.2,240.2z"/>
<linearGradient id="SVGID_00000041282554793142903790000008898824050747175811_" gradientUnits="userSpaceOnUse" x1="152.6853" y1="911.235" x2="195.3753" y2="911.235" gradientTransform="matrix(1 0 0 -1 0 993.26)">
	<stop  offset="0" style="stop-color:#FAEED9"/>
	<stop  offset="0.21" style="stop-color:#F8EACF"/>
	<stop  offset="0.55" style="stop-color:#F5DFB6"/>
	<stop  offset="0.99" style="stop-color:#F0CE8D"/>
</linearGradient>
<path style="fill:url(#SVGID_00000041282554793142903790000008898824050747175811_);" d="M195.4,60.8c-3.6,25.9-17.7,58.1-42.7,58.4
	c6.4-21.1,19.7-50.3,10.6-74.3C174.7,48.7,185.6,54,195.4,60.8z"/>
<linearGradient id="SVGID_00000003070389765688892240000009506989009366592658_" gradientUnits="userSpaceOnUse" x1="193.7353" y1="862.0687" x2="240.2053" y2="862.0687" gradientTransform="matrix(1 0 0 -1 0 993.26)">
	<stop  offset="0" style="stop-color:#FAEED9"/>
	<stop  offset="0.21" style="stop-color:#F8EACF"/>
	<stop  offset="0.55" style="stop-color:#F5DFB6"/>
	<stop  offset="0.99" style="stop-color:#F0CE8D"/>
</linearGradient>
<path style="fill:url(#SVGID_00000003070389765688892240000009506989009366592658_);" d="M240.2,133.1c-3.2,4.3-6.7,8.2-10.2,11.5
	c-6.8,6.5-27.3,26.2-36.3,19c9.5-11.1,20.1-22.1,26-36.1c4-9.5,6.8-19.9,9.2-30.3c5.1,9.2,8.7,19.3,10.5,30.1
	C239.7,129.2,240,131.2,240.2,133.1L240.2,133.1z"/>
<linearGradient id="SVGID_00000070081457274580461550000011499467248814581675_" gradientUnits="userSpaceOnUse" x1="108.0453" y1="777.5001" x2="172.9905" y2="777.5001" gradientTransform="matrix(1 0 0 -1 0 993.26)">
	<stop  offset="0" style="stop-color:#FAEED9"/>
	<stop  offset="0.21" style="stop-color:#F8EACF"/>
	<stop  offset="0.55" style="stop-color:#F5DFB6"/>
	<stop  offset="0.99" style="stop-color:#F0CE8D"/>
</linearGradient>
<path style="fill:url(#SVGID_00000070081457274580461550000011499467248814581675_);" d="M166.1,253.1c-12.8,4.2-26,5.9-39.3,5.3
	c-6.2-0.3-12.5-1.1-18.8-2.3c29.2-19.3,49.3-47.2,53.1-83C175.6,198.4,176.3,227.3,166.1,253.1L166.1,253.1z"/>
</svg>
