<?xml version="1.0" encoding="UTF-8"?><svg id="fish" xmlns="http://www.w3.org/2000/svg" xmlns:xlink="http://www.w3.org/1999/xlink" viewBox="0 0 2072.73 1166.38"><defs><style>.cls-1{fill:url(#linear-gradient);}.cls-2{fill:#f0ce8d;}.cls-3{fill:url(#linear-gradient-8);}.cls-4{fill:url(#linear-gradient-9);}.cls-5{fill:url(#linear-gradient-3);}.cls-6{fill:url(#linear-gradient-4);}.cls-7{fill:url(#linear-gradient-2);}.cls-8{fill:url(#linear-gradient-6);}.cls-9{fill:url(#linear-gradient-7);}.cls-10{fill:url(#linear-gradient-5);}.cls-11{fill:url(#linear-gradient-10);}</style><linearGradient id="linear-gradient" x1="251.23" y1="323.81" x2="316.5" y2="323.81" gradientUnits="userSpaceOnUse"><stop offset="0" stop-color="#faeed9"/><stop offset=".21" stop-color="#f8eacf"/><stop offset=".55" stop-color="#f5dfb6"/><stop offset=".99" stop-color="#f0ce8d"/></linearGradient><linearGradient id="linear-gradient-2" x1="144.68" y1="144.46" x2="317.09" y2="144.46" xlink:href="#linear-gradient"/><linearGradient id="linear-gradient-3" x1="319.28" y1="258.22" x2="404.49" y2="258.22" xlink:href="#linear-gradient"/><linearGradient id="linear-gradient-4" x1="100.43" y1="214.73" x2="127.42" y2="214.73" xlink:href="#linear-gradient"/><linearGradient id="linear-gradient-5" x1="116.9" y1="234.82" x2="341.28" y2="234.82" xlink:href="#linear-gradient"/><linearGradient id="linear-gradient-6" x1="226.21" y1="232.15" x2="254.65" y2="232.15" xlink:href="#linear-gradient"/><linearGradient id="linear-gradient-7" x1="169.45" y1="336.47" x2="198.99" y2="336.47" xlink:href="#linear-gradient"/><linearGradient id="linear-gradient-8" x1="253.13" y1="168.39" x2="295.82" y2="168.39" xlink:href="#linear-gradient"/><linearGradient id="linear-gradient-9" x1="294.18" y1="217.56" x2="340.65" y2="217.56" xlink:href="#linear-gradient"/><linearGradient id="linear-gradient-10" x1="208.48" y1="302.13" x2="273.42" y2="302.13" xlink:href="#linear-gradient"/></defs><path class="cls-1" d="M259.71,337.31c10.04,6.59,22.71,9.03,34.48,6.65-2.21-2.32-1.14-6.42,1.34-8.46,2.48-2.03,5.82-2.56,9-3,2.44-.34,4.89-.69,7.33-1.03-3.06-1.43-3.56-5.77-2.27-8.89s3.79-5.59,5.45-8.53c1.66-2.95,2.27-7.02-.08-9.45-2.36-2.44-6.34-1.96-9.65-1.17-19.86,4.74-38.56,14.25-54.08,27.51l8.48,6.38Z"/><path class="cls-7" d="M144.68,166.9c1.82-7.33,6.12-13.8,10.77-19.76,26.76-34.32,68.11-56.86,111.45-60.77-1.59,3.18-3.21,6.46-3.54,10.01s.95,7.47,4,9.31c4.88,2.94,11.67-.57,16.72,2.08-3.75,6.53-1.53,15.17,3.29,20.95,4.82,5.78,11.73,9.35,18.44,12.75-4.76,7.7-6.57,17.17-4.99,26.08,2.25,12.72,10.82,23.27,16.27,34.99l-172.4-35.65Z"/><path class="cls-5" d="M344.14,319.15c-19.13-16.89-29.13-48.26-23.12-70.4,5.07-18.66,16.88-35.76,32.24-47.43,3.48-2.64,51.04-24.05,51.23-14.43,.27,14.49-6.35,28.32-15.89,38.93-9.73,10.84-25.26,18.73-38.2,24.83,13.44,14.75,49.52,53.52,34.08,76.53-8.09,12.03-32.72-1.31-40.34-8.04Z"/><path class="cls-6" d="M114.35,216.45c-5.28-2.09-8.67-7.36-10.43-12.76-.79-2.42-1.3-5.15-.2-7.45,1.82-3.79,7.32-4.42,11-2.39,3.68,2.04,5.94,5.86,8.04,9.5,5.12,8.91,7.71,21.1-1.2,28.88-3.86,3.37-21.71,8.35-21.1-.33,.4-5.69,9.63-12.61,13.9-15.46Z"/><path class="cls-10" d="M340.87,241.1c-.67,8.22-2.18,16.38-4.4,24.34-1.34,4.86-2.94,9.65-4.78,14.33-4.59,11.69-10.7,22.96-19.35,32.07-8.15,8.59-18.33,15-28.84,20.46-5.56,2.88-11.21,5.25-16.94,7.11-12.83,4.19-26.03,5.9-39.3,5.32-6.25-.27-12.53-1.06-18.78-2.34-5.86-1.18-11.72-2.81-17.53-4.84-42.1-14.76-71.2-51.39-73.86-93.82-.62-9.95,.21-20.22,2.67-30.61,1.53-6.5,3.57-12.87,6.08-19.02,7.64-18.77,19.7-35.55,35.65-47.9,21.26-16.46,48-23.53,74.7-20.87,9.32,.93,18.6,2.93,27.55,5.91,11.39,3.79,22.27,9.16,32.07,15.92h0c13.81,9.53,25.51,21.84,33.55,36.4,5.07,9.18,8.7,19.27,10.48,30.11,.32,1.93,.58,3.86,.79,5.8,.78,7.18,.82,14.41,.23,21.62Z"/><path class="cls-8" d="M231.5,221.3c4.31-1.49,8.96-2.69,13.51-1.69,.92,.2,1.85,.8,2.71,.98,.45-.86,.32-1-.41-.42-.53,.27-1.09,.51-1.65,.71-2.27,.85-4.62,1.31-7.04,1.43-3.77,.2-4.66,5.54-.9,6.66,2.32,.69,4.59,1.69,6.21,3.53,.17,.2,.43,1,.64,.77,.17-.2,.08-.16-.18-.22-.97-.21-1.73-.72-2.52-1.31-1.16,1.98-2.31,3.95-3.47,5.93,1.29,.94,2.19,2.4,2.42,3.98,.07,.47,.23,1.78-.27,2.13-.27,.19,0,.2-.59-.56-2.15-2.75-3.9-5.78-4.96-9.11-.7-2.19-1.32-5-.36-7.22,1.33-3.04,5.38-1.73,7.82-1.11v-7.96c-9.49,1.46-14.7,11.99-10.65,20.54,1.85,3.91,6.66,7.08,10.87,4.58,4.7-2.79,3.59-9.88,1.88-14.11-1.37-3.39-5.53-4.16-7.69-1-3.19,4.67-3.94,10.84-1.82,16.1,.86,2.15,2.86,3.66,5.28,3,2.02-.55,3.9-3.13,3-5.28-1.4-3.37-1.23-6.51,.8-9.57-2.56-.33-5.12-.67-7.69-1,.49,1.16,.95,2.37,1.11,3.63,.05,.58,.07,1.15,.05,1.73,.8-.27,1.6-.54,2.41-.81-.04,.1-.96-1.39-1.02-1.56-.28-.78-.37-1.57-.33-2.39,.2-3.43,2.8-5.38,5.99-5.88,4.12-.65,3.73-7.03,0-7.96-6.67-1.66-14.56-1.53-17.48,5.91-2.34,5.95-.11,12.7,2.85,18,2.89,5.18,9.17,13.4,15.37,7.16,5.15-5.19,1.53-13.55-3.52-17.17-3.61-2.59-7,3.36-3.47,5.93,4.19,3.05,11.94,3.25,12.72-3.33,.76-6.36-6.57-10.26-11.61-11.92-.3,2.22-.6,4.44-.9,6.66,4.32-.11,9.11-.92,12.9-3.14,3.68-2.16,4.15-7.04,1.15-10.03-2.97-2.96-8.1-3.05-11.97-2.55-4.18,.53-7.9,2.05-10.84,5.14-1.09,1.14-.02,3.36,1.62,2.79h0Z"/><path class="cls-2" d="M166.1,205.98c2.03-1.03,3.46-2.87,5.57-3.89,2.01-.97,4.37-1.68,6.63-1.46,4.94,.47,8.11,4.5,9.3,9.01,.84,3.2,6.06,2.64,5.88-.8-.4-7.56-6.92-13.76-14.41-14.27-3.55-.24-7.12,.9-9.85,3.17-2.08,1.73-4.66,5.06-3.91,7.92,.09,.35,.49,.48,.79,.32h0Z"/><path class="cls-9" d="M170.68,326.55c-1.58,3.94-1.44,8.56-.7,12.68,.67,3.75,1.83,8.49,5.39,10.56,4,2.32,8.7,.21,10.58-3.73,2.1-4.39-.22-9.03-1.76-13.19-2.93,1.23-5.85,2.47-8.78,3.7,2.68,4.17,6.76,6.54,11.41,8.02,2.23,.71,4.81,1.54,7.16,.94,2.88-.74,4.92-3.42,5.01-6.39,.15-5.21-5.03-9.02-8.95-11.59-4.2-2.76-9.07-4.57-14.04-5.26-2.61-.37-5.24,.64-6.01,3.41-.63,2.28,.78,5.64,3.41,6.01,3.34,.46,6.58,1.35,9.56,2.97,1.35,.73,2.68,1.55,3.88,2.52,.65,.53,1.27,1.09,1.87,1.68,1.28,1.27,.17,.6,.47-.15,.42-.72,.83-1.43,1.25-2.15,2.2-.26,2.6-.5,1.21-.72-.5-.13-.99-.26-1.49-.4-.83-.24-1.68-.48-2.48-.81-1.53-.62-3.04-1.52-3.96-2.92-1.31-1.99-3.75-2.96-6-1.97-2.01,.89-3.65,3.4-2.78,5.67,.41,1.09,.83,2.17,1.24,3.26,.25,.66,.65,2.95,1.15,3.34-.06,.5,.03,.55,.3,.14,.49-.65,1.21-.73,2.17-.26-.03,.06-1.31-2.1-1.36-2.21-2.04-4.18-2.7-8.72-4-13.13-.58-1.97-3.06-1.7-3.74,0h0Z"/><path class="cls-3" d="M295.82,147.17c-3.63,25.87-17.7,58.12-42.69,58.37,6.4-21.13,19.74-50.35,10.62-74.29,11.39,3.79,22.27,9.16,32.07,15.92Z"/><path class="cls-4" d="M340.65,219.49c-3.25,4.27-6.66,8.17-10.19,11.51-6.84,6.47-27.29,26.24-36.28,18.97,9.54-11.06,20.09-22.12,25.97-36.09,4-9.5,6.82-19.86,9.23-30.31,5.07,9.18,8.7,19.27,10.48,30.11,.32,1.93,.58,3.86,.79,5.8Z"/><path class="cls-11" d="M266.57,339.42c-12.83,4.19-26.03,5.9-39.3,5.32-6.25-.27-12.53-1.06-18.78-2.34,29.19-19.32,49.26-47.25,53.09-82.99,14.43,25.35,15.18,54.25,5,80.01Z"/></svg>