<?xml version="1.0" encoding="utf-8"?>
<!-- Generator: Adobe Illustrator 27.1.1, SVG Export Plug-In . SVG Version: 6.00 Build 0)  -->
<svg version="1.1" id="Layer_1" xmlns="http://www.w3.org/2000/svg" xmlns:xlink="http://www.w3.org/1999/xlink" x="0px" y="0px"
	 viewBox="0 0 359.5 86.8" style="enable-background:new 0 0 359.5 86.8;" xml:space="preserve">
<style type="text/css">
	.st0{fill:#0B2A54;}
</style>
<polygon class="st0" points="178.5,44.2 173.8,54 169.6,54 169.2,44.2 169,44.2 167,54 162.6,54 165.7,39.3 172.9,39.3 173,47.8 
	173.2,47.8 176.8,39.3 184.2,39.3 181.2,54 176.5,54 178.6,44.2 "/>
<path class="st0" d="M197.4,48.4l-0.3-5.6h-0.2l-2.7,5.6H197.4z M194.5,39.4h6.7l1,14.7h-4.8l-0.1-2.6H193l-1.2,2.6h-4.5L194.5,39.4
	z"/>
<polygon class="st0" points="231.4,42.8 228.2,42.8 228.9,39.3 240.2,39.3 239.4,42.8 236.2,42.8 233.9,54 229.1,54 "/>
<polygon class="st0" points="259.3,39.3 265.8,39.3 267.3,48.1 267.4,48.1 269.2,39.3 273.8,39.3 270.7,54 264.2,54 263,45.1 
	262.8,45.1 261,54 256.3,54 "/>
<path class="st0" d="M216.6,45.5c1.4,0,1.9-0.7,1.9-1.6c0-0.7-0.4-1.1-1.4-1.1h-1.2l-0.6,2.7C215.3,45.5,216.6,45.5,216.6,45.5z
	 M211.8,39.4h7.1c3.5,0,4.7,1.9,4.7,3.8c0,2-1.5,3.6-3.5,3.8v0.2c1.2,0.1,2.1,1.2,2,2.4c0,1-0.2,2-0.2,3.2c0,0.4,0.1,0.9,0.1,1.3
	h-5.1c0-0.1-0.1-0.6-0.1-0.9c0-1.2,0.3-2.1,0.3-3.5c0.1-0.6-0.3-1.1-0.9-1.2c-0.1,0-0.2,0-0.3,0h-1.2l-1.1,5.5h-4.8L211.8,39.4z"/>
<polygon class="st0" points="246.2,39.3 251.1,39.3 248,54 243.2,54 "/>
<polygon class="st0" points="3.1,39.3 7.9,39.3 5.5,50.6 10.2,50.6 9.5,54 0,54 "/>
<polygon class="st0" points="58.6,39.3 63.4,39.3 62.1,45.7 62.2,45.7 66.5,39.3 71.6,39.3 66.3,46.3 69,54 63.8,54 61.9,47.5 
	61.7,47.5 60.4,54 55.6,54 "/>
<polygon class="st0" points="83.6,48.5 80.7,48.5 79.5,54 74.7,54 77.8,39.3 82.6,39.3 81.4,44.9 84.3,44.9 85.5,39.3 90.3,39.3 
	87.2,54 82.4,54 "/>
<polygon class="st0" points="117.3,39.3 127.4,39.3 126.7,42.8 121.4,42.8 121,45 125.8,45 125,48.5 120.2,48.5 119.8,50.6 
	125.3,50.6 124.6,54 114.3,54 "/>
<polygon class="st0" points="98.9,39.3 109,39.3 108.3,42.8 103,42.8 102.6,45 107.3,45 106.6,48.5 101.8,48.5 101.4,50.6 
	106.9,50.6 106.2,54 95.9,54 "/>
<path class="st0" d="M22.6,50.6c2.1,0,3-5.2,3-6.5c0.1-0.6-0.4-1.2-1-1.3c-0.1,0-0.2,0-0.2,0c-2.2,0-3,5.4-3,6.5
	c-0.1,0.6,0.4,1.2,1,1.3C22.4,50.6,22.5,50.6,22.6,50.6 M24.9,39.2c3.6,0,5.5,2,5.5,5.2c0,3.9-2,9.9-8.3,9.9c-3.5,0-5.5-1.9-5.5-5.2
	C16.6,44.8,18.8,39.2,24.9,39.2"/>
<path class="st0" d="M139.1,50.6h1.4c2,0,3.3-2.6,3.3-5.7c0-1.1-0.5-2-2.2-2h-0.9L139.1,50.6z M136.6,39.4h5.5
	c4.6,0,6.6,2.6,6.6,5.5c0,5.5-3.4,9.2-9.2,9.2h-5.9L136.6,39.4z"/>
<path class="st0" d="M48.7,48.5c-0.5,3.4-3.6,5.9-7.1,5.7c-3.6,0-5.5-2-5.5-5.2c0-3.7,1.9-9.9,8.3-9.9c2.9,0,5.3,1.1,5.2,4.2
	c0,0.5-0.1,1.2-0.1,1.5h-4.4c0.1-0.3,0.1-0.6,0.1-0.9c0-0.6-0.4-1.1-1-1.1c-0.1,0-0.1,0-0.2,0c-2.2,0-3,5.3-3,6.5
	c-0.1,0.6,0.4,1.2,1,1.3c0.1,0,0.2,0,0.2,0c0.7,0,1.4-0.6,2-2L48.7,48.5z"/>
<path class="st0" d="M314.3,75.9C314.1,76.1,314.1,76.3,314.3,75.9"/>
<path class="st0" d="M247.8,86.7L247.8,86.7"/>
<path class="st0" d="M289.1,49.6L289.1,49.6"/>
<path class="st0" d="M359.5,29.8h-32.6c4.3-16.1,8.2-29.8,8.2-29.8s-14.7,15.7-27.7,29.8L178,30l0,0l126.1,3.2
	c-9.7,10.3-14.8,16.2-15,16.4l0,0L307,33.3l15.3,0.4L320,45.8l-72,40.7l-0.3,0.2c0,0,57.1-30,71.6-37.3c0,0-5.1,26.4-5.1,26.5l0,0
	l0,0l0.1-0.3c0.5-1.7,3.5-12.1,7.6-27.5C340.7,38.6,359.5,29.8,359.5,29.8 M325.6,16.3L323,29.8h-12.2L325.6,16.3z M325.7,33.8
	l14.9,0.4l-17.7,10C323.9,40.6,324.8,37.4,325.7,33.8"/>
</svg>
