<?xml version="1.0" encoding="utf-8"?>
<!-- Generator: Adobe Illustrator 27.1.1, SVG Export Plug-In . SVG Version: 6.00 Build 0)  -->
<svg version="1.1" id="Layer_1" xmlns="http://www.w3.org/2000/svg" xmlns:xlink="http://www.w3.org/1999/xlink" x="0px" y="0px"
	 viewBox="0 0 619 245.6" style="enable-background:new 0 0 619 245.6;" xml:space="preserve">
<style type="text/css">
	.st0{fill:#0B2A54;}
	.st1{font-family:'Arial-Black';}
	.st2{font-size:18.7556px;}
</style>
<path class="st0" d="M40.3,37.2h43.2l6.3,52.6h1.1c1.6-4.4,3.2-9,5.3-13.3l20.2-39.3h42.7l0.7,100.2h-40.6l4.3-54.9h-0.8
	c-1.4,3.3-2.8,6.8-4.6,10l-24.9,44.9H68.8L61.6,95c-0.5-4.2-0.8-8.2-0.3-12.5h-1.4c-1,4-2.1,8.1-3.3,12.1l-12.7,42.8H3.3L40.3,37.2z
	"/>
<path class="st0" d="M226.9,97.4c-3.6-3.1-7.9-5.8-13.6-5.8c-7.3,0-13.3,4.1-14.5,10.5c-1,5.6,3.4,10.1,9.9,10.1
	c6.2,0,11.3-2.7,16.5-5.4l-7.1,29c-6.5,1.7-13.8,3.3-20.7,3.3c-26.6,0-43.3-12.9-38.9-36.6c3.9-20.9,24.7-37.2,49.3-37.2
	c8.4,0,16.8,1.3,24.4,3.6L226.9,97.4z"/>
<path class="st0" d="M245.1,37.2h42l-12.4,68H310l-5.9,32.2h-77.3L245.1,37.2z"/>
<path class="st0" d="M341.4,107.9c-1.1,5.7-1.2,12.1,7.7,12.1c4.5,0,8.3-2.5,9.8-5.8h41.6c-9,17-34.2,24.8-54.5,24.8
	c-27.7,0-50.8-11.4-46-35.8c4.6-23.4,30.1-38,58.1-38c31.3,0,52.8,16.2,45.5,42.7L341.4,107.9L341.4,107.9z M364.3,93.3
	c1-4.8-2.5-9.2-8.6-9.2c-6.5,0-10.5,4.2-11.4,9.2H364.3z"/>
<path class="st0" d="M510,103c-4.6,23.4-32.9,36-60.3,36s-50.7-12.6-46.1-36c4.9-24.7,31.7-37.7,60.6-37.7
	C493.2,65.2,514.9,78.3,510,103z M445,102.4c-1.1,5.6,3.4,9.7,10,9.7s12.7-4.1,13.8-9.7c1.1-5.7-2.8-10.4-9.9-10.4
	C451.9,92.1,446.2,96.7,445,102.4z"/>
<path class="st0" d="M561.2,126.9h-0.9c-7.9,7.2-18.1,12.1-28.6,12.1c-22,0-30.1-19.4-27-36.3c3.2-17.5,17.7-37.5,40.6-37.5
	c9.2,0,18.1,4.5,22.4,11h1.4l1.2-16.9l5.4-29.8h39.4l-19.6,107.8h-37L561.2,126.9z M543.5,102c-1,5.3,1.7,10.1,8.2,10.1
	c6.1,0,11.3-5.6,12.1-10.4c0.9-4.9-2.5-9.7-8.5-9.7C548.9,92.1,544.5,96.9,543.5,102z"/>
<polygon class="st0" points="193,243.2 241.7,243.2 305,152 265.2,152 "/>
<polygon class="st0" points="350.1,56.2 366.4,56.2 383.5,36.4 367.3,36.4 "/>
<polygon class="st0" points="374.5,27.4 388.9,27.4 396.6,18.8 383.5,18.8 "/>
<polygon class="st0" points="388.2,10.8 399.9,10.8 406.2,3.8 395.5,3.8 "/>
<g>
	<path class="st0" d="M341.2,161.8c-1.3-1.3-3.1-2.1-5.1-2.1c-1.5,0-3.7,0.9-4,2.6c-0.3,1.9,1.8,2.6,3.2,3l2,0.6
		c4.2,1.3,7.3,3.5,6.5,8.7c-0.5,3.2-1.8,6.4-4.6,8.6c-2.8,2.1-6.3,3-9.5,3c-4,0-7.7-1.4-10.6-3.6l4.6-6.7c1.8,1.8,4,3.3,6.8,3.3
		c1.9,0,4.2-1,4.5-3.2c0.4-2.3-2.8-3.1-4.4-3.6c-5-1.5-8.2-2.8-7.2-9c1-6.4,6.3-10.7,12.6-10.7c3.2,0,7,1,9.5,2.6L341.2,161.8z"/>
	<path class="st0" d="M387.2,168.9c-1.6,10.3-10.1,17.5-20.4,17.5c-10.2,0-16.4-7.2-14.8-17.5c1.5-9.6,11-16.4,20.2-16.4
		C381.4,152.6,388.7,159.3,387.2,168.9z M360.6,169c-0.9,5.5,2.5,9.5,7.5,9.5c4.9,0,9.6-4,10.5-9.5c0.7-4.4-2.7-8.4-7.6-8.4
		C366,160.6,361.3,164.6,360.6,169z"/>
	<path class="st0" d="M405.7,160.6l-0.8,5.3h9.1l-1.1,7h-9.1l-2,12.5h-8.3l5-31.8h18.2l-1.1,7H405.7L405.7,160.6z"/>
	<path class="st0" d="M434,185.4h-8.3l3.9-24.8h-6.8l1.1-7h21.9l-1.1,7H438L434,185.4z"/>
	<path class="st0" d="M461.5,174.1L461.5,174.1l10-20.5h6.6l3,20.5h0.1l9.2-20.5h8.6l-15.2,31.8h-8.4l-2.6-18.4h-0.1l-9.2,18.4h-8.4
		l-4.5-31.8h8.6L461.5,174.1z"/>
	<path class="st0" d="M506.7,179.9l-3.1,5.5h-8.8l17.3-31.8h9l6.9,31.8h-8.8l-1.2-5.5H506.7L506.7,179.9z M515.1,163.4L515.1,163.4
		l-5.1,10.1h6.9L515.1,163.4z"/>
	<path class="st0" d="M562.1,185.4h-10.3l-5.9-12.2h-0.1l-1.9,12.2h-8.3l5-31.8h12.3c6.3,0,10.6,3,9.5,9.8c-0.7,4.4-3.7,8.2-8.4,9
		L562.1,185.4z M546.8,167.9h0.8c2.7,0,5.8-0.5,6.4-4c0.5-3.5-2.4-4-5.1-4H548L546.8,167.9z"/>
	<path class="st0" d="M581.6,160.6l-0.8,5.3h9.3l-1.1,7h-9.3l-0.9,5.5h9.8l-1.1,7h-18.1l5-31.8h18.1l-1.1,7H581.6L581.6,160.6z"/>
</g>
<text transform="matrix(1 0 0 1 600.3036 167.2931)" class="st0 st1 st2">®</text>
</svg>
