<?xml version="1.0" encoding="utf-8"?>
<!-- Generator: Adobe Illustrator 27.0.1, SVG Export Plug-In . SVG Version: 6.00 Build 0)  -->
<svg version="1.1" id="scuba" xmlns="http://www.w3.org/2000/svg" xmlns:xlink="http://www.w3.org/1999/xlink" x="0px" y="0px"
	 viewBox="0 0 330 388.6" style="enable-background:new 0 0 330 388.6;" xml:space="preserve">
<style type="text/css">
	.st0{fill:url(#SVGID_1_);}
	.st1{fill:#0B2A54;}
	.st2{fill:#A47D6B;}
	.st3{fill:url(#SVGID_00000059270536451798124450000017960705852844152215_);}
	.st4{fill:#061526;}
	.st5{fill:#755446;}
	.st6{fill:#3D2824;}
	.st7{opacity:0.59;fill:#A4C3CF;enable-background:new    ;}
	.st8{fill:url(#SVGID_00000109023470320727407310000007319118603327352492_);}
	.st9{fill:#EC8B64;}
	.st10{fill:url(#SVGID_00000080893631023789066470000016593192041362928304_);}
	.st11{fill:url(#SVGID_00000146501681366885452710000016181049062486836612_);}
	.st12{fill:url(#SVGID_00000101063765012046439150000006770958877205953717_);}
	.st13{fill:url(#SVGID_00000085935342070389039080000012640995659157799839_);}
	.st14{fill:url(#SVGID_00000124883382415677131980000013603341934138009994_);}
	.st15{fill:url(#SVGID_00000083091412396906952000000000443892789478427552_);}
</style>
<linearGradient id="SVGID_1_" gradientUnits="userSpaceOnUse" x1="1212.0917" y1="906.4071" x2="1212.0917" y2="831.9801" gradientTransform="matrix(-1 0 0 -1 1321.95 993.2602)">
	<stop  offset="0" style="stop-color:#4A88A0"/>
	<stop  offset="0.24" style="stop-color:#417E96"/>
	<stop  offset="0.64" style="stop-color:#2C667D"/>
	<stop  offset="0.99" style="stop-color:#144B61"/>
</linearGradient>
<path class="st0" d="M130.1,105l-11.2,56.3l-29.6-4.9l10.9-57.2c1.6-8.1,9.3-13.5,17.4-12.1l0,0C126.1,88.5,131.8,96.6,130.1,105
	L130.1,105z"/>
<path class="st1" d="M112.8,177.4c0,0-7.4,15.9-12.6,29.5c-5.2,13.6-23.1,50.3-39,60.6c-17.7,11.4-56.3,28.7-56.3,28.7l6.7,23.8
	c0,0,73.6-8.2,102-64.8c27.8-55.5,47.1-80.2,47.1-80.2h-47.9"/>
<path class="st1" d="M182.8,172.2c0,0-13.3,93.5-38.4,112.5s-77.2-5.1-77.2-5.1l15.5-23.1c0,0,40.3,14.7,44.7,2.2
	c5.4-15,14.1-83.6,14.1-83.6L182.8,172.2L182.8,172.2z"/>
<path class="st1" d="M0,301.4l6.7,87.1l25.8-2.5c0,0-21.8-89-26.6-89S0,301.4,0,301.4L0,301.4z"/>
<path class="st1" d="M75.8,263.4l6.6,87.1l25.8-2.5c0,0-21.8-89-26.6-89C76.8,258.9,75.8,263.3,75.8,263.4L75.8,263.4z"/>
<path class="st2" d="M296.6,122.5l1.4,4.2c0,0,1.2,2.4,2.5,7.1c0.3,1.2,0.4,2.5,0.3,3.7c-0.1,1.5-0.4,3.5-0.9,4.6
	c-0.6,1.3,0.7,2.6,1.8,2c1.1-0.6,2.9-4.2,2.8-8.8c0-4.6,4.6,1,6.3,3s7.3,8,8.3,7.9c1.5-0.1,1.7-1.7,0-3.6c-1.8-2-6.6-8.2-5.5-9.1
	c1.1-0.8,9.6,9.5,9.6,9.5s1.5,2.5,2.8,1.6c2.4-1.7-7.5-12-8.5-13c-0.7-0.7,0.5-1.6,1.2-0.9c0.7,0.8,8.3,10.5,10.7,8.8
	c1.9-1.3-8.1-8.6-8.5-11.5c-0.5-2.9,7,6.3,8.7,4.9c0.6-0.5,1-0.9-4-5.6c-5.1-4.8-21.2-15.4-21.2-15.4l-7.9,10.7"/>
<path class="st2" d="M60.1,31.2l0.2-4.5c0,0-0.3-2.7,0.2-7.5c0.1-1.2,0.5-2.4,1-3.6c0.7-1.4,1.6-3.1,2.4-3.9c1-1,0.3-2.7-1-2.5
	c-1.3,0.2-4.1,2.9-5.8,7.2s-3.9-2.6-4.8-5.1C51.6,8.9,48.5,1.3,47.5,1c-1.4-0.5-2.2,0.9-1.3,3.4c0.9,2.5,3.2,10.1,1.9,10.4
	c-1.3,0.4-5.6-12.3-5.6-12.3S42-0.4,40.5,0c-2.8,0.7,2.8,13.9,3.3,15.2c0.4,0.9-1.1,1.3-1.4,0.4c-0.4-1-4-12.8-6.9-12.1
	c-2.2,0.6,4.5,10.9,3.9,13.8S35.1,9,33,9.6c-0.8,0.2-1.3,0.5,1.7,6.7c3.1,6.3,14.3,22,14.3,22L60.2,31"/>
<path class="st2" d="M174.9,81.5c0,0,84.9-11.8,135.3,35.5l-11.1,12.6c0,0-45.3-32.6-105.1-23.4L174.9,81.5z"/>
<path class="st2" d="M141.1,85.5c0,0-52.2-12-56.9-17.9c-4.7-6-23.9-43.3-23.9-43.3l-18.1,3.9c0,0,19,50.3,31.8,57.6
	c20,11.5,68.2,25.4,68.2,25.4L141.1,85.5L141.1,85.5z"/>
<path class="st1" d="M274.7,94.2l-9,19c0,0-28.5-12-69.8-7.3c0,0-13.1-18.9-21-24.4C174.9,81.5,227.6,73.1,274.7,94.2z"/>
<linearGradient id="SVGID_00000025402766947351412980000005830515086908686519_" gradientUnits="userSpaceOnUse" x1="1168.3" y1="911.9101" x2="1168.3" y2="815.2101" gradientTransform="matrix(-1 0 0 -1 1321.95 993.2602)">
	<stop  offset="0" style="stop-color:#F3B69D"/>
	<stop  offset="0.18" style="stop-color:#F1AF93"/>
	<stop  offset="0.47" style="stop-color:#EF9C7A"/>
	<stop  offset="0.84" style="stop-color:#EA7D51"/>
	<stop  offset="1" style="stop-color:#E86F3D"/>
</linearGradient>
<path style="fill:url(#SVGID_00000025402766947351412980000005830515086908686519_);" d="M182.7,173.2l-71.3,4.9
	c0,0,17.1-71,18.1-71.5c7.7-3.5,10.6-12,17.4-23.1l28.8-2.1c6.3,6.2,13.1,14.8,20.2,24.5l-12.7,33.9L182.7,173.2L182.7,173.2z"/>
<g>
	<path class="st2" d="M152,84.1c0.3-2.2-0.8-11.3-0.8-11.3s-8.4-0.7-9.1-8.9c-0.7-8.3-0.7-27.3-0.7-27.3l15-7.8l17,12.2l3.8,9.1
		L172,71.5L172,82.4L152,84.1L152,84.1z"/>
	<path class="st4" d="M154.4,50c0.3,0.2,1.7-1,3.8-1.2c2.1-0.2,3.8,0.8,4,0.5c0.1-0.1-0.2-0.6-0.9-1.1c-0.7-0.5-1.9-0.9-3.2-0.8
		s-2.4,0.7-3,1.3C154.4,49.4,154.2,49.9,154.4,50L154.4,50z"/>
	<path class="st5" d="M151.2,72.8c0,0,5.6-0.1,10.9-4c0,0-2.3,6.1-10.6,6L151.2,72.8z"/>
	<path class="st4" d="M143.3,50.2c0.2,0.2,1.5-0.9,3.4-1.1c1.9-0.2,3.4,0.7,3.6,0.5c0.1-0.1-0.1-0.5-0.8-0.9
		c-0.6-0.4-1.7-0.8-2.9-0.7s-2.1,0.6-2.7,1.1C143.4,49.6,143.2,50.1,143.3,50.2L143.3,50.2z"/>
</g>
<path class="st6" d="M158.1,38.8c-14.1,5.1-20.3-1.5-23-10.1s31.5-5.3,36.7-3.8s5.8,7.9,5.8,7.9l4.4-4.1c0,0,0.8,0.3,2.7,2.2
	c2,1.8-7.9,6.2-7.9,6.2l0,0c2.4,0.7,4.3,2.7,4.7,5.1c1,5.7-3,13.7-4.7,17.4c-2.3,5-3.7,12.3-3.7,12.3c-1.2,2.3-1.6-4.9-1.6-4.9
	s-1-6.9,0-9.6c0,0,4.2,1.4,5.2-6.2c0.5-3.7-5.1-5.6-6.7-1.1l-3.5,0.3C166.4,50.3,166.1,35.8,158.1,38.8L158.1,38.8z"/>
<path class="st1" d="M146.9,83.5c0,0-5.4,13-17.3,24.3c0,0-47.9-14.7-57.4-23.2C62.7,76.1,59,65.9,59,65.9l18.8-8.6
	c0,0,4.9,8.6,9,11.5C90.9,71.7,146.9,83.5,146.9,83.5L146.9,83.5z"/>
<path class="st5" d="M170.8,54.3c0,0,0,0.2,0.1,0.4c0.2,0.2,0.5,0.4,1,0.4c1-0.1,2.1-1.2,2.4-2.5c0.2-0.7,0.2-1.4,0-2
	c-0.1-0.6-0.5-1.2-1-1.4c-0.2-0.1-0.5-0.1-0.7,0c-0.2,0.1-0.3,0.2-0.4,0.4c-0.1,0.3,0,0.4,0,0.4c0,0,0-0.1,0.2-0.3
	c0.1-0.2,0.4-0.3,0.8-0.2c0.4,0.1,0.6,0.6,0.7,1.1c0.1,0.6,0.1,1.2-0.1,1.8c-0.3,1.2-1.2,2.2-2,2.3c-0.4,0.1-0.7-0.1-0.9-0.2
	C171,54.5,170.9,54.3,170.8,54.3L170.8,54.3z"/>
<path class="st7" d="M135.9,50.2l-0.1,1.5c-0.1,2.7,1.5,5.2,4.1,6.2c2.5,1,5.7,1.2,8-1.7c4.4-5.8,5-0.4,7.5,0.5
	c2.2,0.8,8,3.7,13-0.5c1.2-1,1.8-2.5,1.8-4.1l0-1.4c-0.2-5.5-4.9-9.9-10.5-9.8l-14.2,0.3C140.3,41.3,136.2,45.2,135.9,50.2
	L135.9,50.2z"/>
<path class="st1" d="M171.1,57.7c-5.8,5.1-12.6,1.7-15.1,0.8c-2.9-1.1-3.5-7.5-8.8-0.5c-2.7,3.6-6.4,3.3-9.3,2.2
	c-3-1.1-4.9-4.1-4.6-7.3l0.1-1.8c0.4-6,5.3-10.6,11.2-10.8l16.6-0.6c6.5-0.2,11.9,4.9,12,11.5l0,1.7
	C173.3,54.7,172.5,56.5,171.1,57.7L171.1,57.7z M169.6,52l0-1.4c-0.2-5.3-4.7-9.6-10.1-9.5l-13.8,0.3c-4.9,0.1-8.9,3.9-9.2,8.7
	l-0.1,1.5c-0.1,2.6,1.4,5.1,3.9,6c2.5,0.9,5.5,1.2,7.7-1.7c4.3-5.6,4.9-0.4,7.3,0.5c2.2,0.8,7.8,3.6,12.6-0.5
	C169,55,169.7,53.6,169.6,52L169.6,52z"/>
<polygon class="st1" points="168.5,44.7 175.7,43.8 175.5,48.1 169.9,49.8 "/>
<linearGradient id="SVGID_00000060725690523942968240000011302444889286869691_" gradientUnits="userSpaceOnUse" x1="1169.0699" y1="864.1101" x2="1169.0699" y2="853.4901" gradientTransform="matrix(-1 0 0 -1 1321.95 993.2602)">
	<stop  offset="0" style="stop-color:#4A88A0"/>
	<stop  offset="0.24" style="stop-color:#417E96"/>
	<stop  offset="0.64" style="stop-color:#2C667D"/>
	<stop  offset="0.99" style="stop-color:#144B61"/>
</linearGradient>
<polygon style="fill:url(#SVGID_00000060725690523942968240000011302444889286869691_);" points="122.8,129.2 186.2,130.9 
	183.2,139.8 119.6,136.8 "/>
<path class="st4" d="M159.7,60.8c-0.5-0.2-2.2,2-5.3,2.9c-3.1,1-5.9,0.2-6.1,0.6c-0.1,0.2,0.4,0.8,1.6,1.1c1.2,0.4,3.1,0.5,5-0.1
	c1.9-0.6,3.4-1.8,4.1-2.8C159.8,61.7,159.9,60.9,159.7,60.8L159.7,60.8z"/>
<g>
	<g>
		<g>
			<path class="st9" d="M173.8,37.6c0.2-0.3,0.6-0.7,1-0.6c0.1,0,0.2,0.1,0.2,0.1c0.1,0,0.1,0.1,0.1,0c0,0,0.1,0,0.1-0.1
				c0.1-0.1,0.2-0.1,0.3-0.1c0.1,0,0.3,0.1,0.4,0.1c0.1,0,0.1,0.1,0.2,0.1c0,0,0.1,0,0.1,0c0.1,0,0.3,0,0.5,0.1
				c0.2,0.1,0.3,0.3,0.4,0.4c0,0,0,0,0,0.1c0,0.1,0.1,0.1,0.2,0.1c0,0,0.1,0.1,0.2,0.1c0.1,0.1,0.2,0.3,0.3,0.4c0,0.1,0,0.1,0,0.2
				c0,0,0,0.1,0,0.1c0,0,0,0.1,0.1,0.1c0,0,0.1,0.1,0.1,0.1c0.1,0.1,0.2,0.2,0.2,0.4c0.1,0.3,0,0.6-0.1,0.9
				c-0.2,0.5-0.6,0.9-1.1,1.4c-0.3,0.2-0.5,0.4-0.9,0.6l0,0c-0.3,0.2-0.7,0.4-1,0.6c-0.1,0.1-0.2,0.1-0.4,0.2c0,0-0.1,0.1-0.2,0.1
				c0,0-0.1,0-0.2,0c0,0,0,0-0.1-0.1c0,0,0,0,0,0c0,0,0,0,0-0.1c0,0,0,0,0,0c0,0,0,0,0,0c0,0,0,0,0,0c0,0,0,0,0,0c0,0,0,0,0,0
				c0,0,0,0,0,0l0,0c0,0,0,0,0,0l0,0c0,0,0,0,0,0s0,0,0,0c0,0,0,0,0,0c0,0,0,0,0,0c0,0,0,0,0,0c0,0,0,0-0.1,0c0,0,0,0,0,0s0,0,0,0
				c0,0,0,0-0.1,0c0,0,0,0,0,0c0,0,0,0,0,0c0,0,0,0,0,0c0,0,0,0,0,0c0,0,0,0,0,0l0,0c0,0,0,0,0,0l0,0c0,0,0,0,0,0c0,0,0,0-0.1,0
				c0,0,0,0,0,0c0,0,0,0,0,0c0,0,0,0,0,0c0,0,0,0,0,0s0,0,0,0c0,0-0.1,0-0.1,0l0,0c0,0-0.1-0.1-0.1-0.1c0-0.1,0-0.1,0-0.2
				c0-0.1,0-0.2,0-0.4c0-0.4-0.1-0.8-0.1-1.2l0,0l0,0c0-0.4,0-0.7,0.1-1.1C173.3,38.6,173.4,38,173.8,37.6L173.8,37.6z M173.5,39.3
				c-0.1,0.6-0.1,1.3,0,2.2c0,0.1,0,0.3,0,0.4c0,0,0.1,0,0.1,0c0,0,0,0,0,0s0,0,0,0s0,0,0,0s0,0,0,0c0,0,0.1,0,0.2,0l0,0
				c0,0,0,0,0,0c0,0,0,0,0,0s0,0,0,0c0,0,0,0,0,0c0,0,0,0,0,0c0,0,0,0,0,0c0,0,0,0,0.1,0s0,0,0.1,0c0,0,0,0,0,0l0,0c0,0,0,0,0,0
				c0,0,0,0,0,0c0,0,0,0,0,0c0,0,0,0,0,0c0,0,0,0,0,0l0,0c0,0,0.1,0.1,0.1,0.1c0,0,0,0,0,0c0,0,0,0,0,0c0,0,0,0,0,0c0,0,0,0,0,0
				c0,0,0,0,0,0c0,0,0,0.1,0.1,0.1c0.1-0.1,0.2-0.1,0.4-0.2c0.8-0.4,1.4-0.7,1.8-1.2c0.5-0.4,0.9-0.8,1-1.2c0.1-0.1,0.1-0.4,0.1-0.7
				c0-0.1-0.1-0.2-0.1-0.2c0,0,0,0-0.1-0.1c-0.1-0.1-0.2-0.1-0.2-0.3c0-0.1,0-0.1,0-0.2c0,0,0-0.1,0-0.1c0-0.1-0.1-0.2-0.1-0.2
				c0,0-0.1-0.1-0.1-0.1c-0.1-0.1-0.2-0.1-0.3-0.3c0,0,0-0.1,0-0.1c0-0.1-0.1-0.2-0.2-0.3c-0.2-0.1-0.2-0.1-0.3-0.1
				c-0.1,0-0.2,0-0.3,0c-0.1,0-0.1-0.1-0.2-0.1c-0.1,0-0.2-0.1-0.2-0.1c0,0-0.1,0-0.1,0.1c-0.1,0-0.1,0.1-0.2,0.1
				c-0.2,0-0.3,0-0.4-0.1c0,0-0.1-0.1-0.1-0.1c-0.3,0-0.6,0.2-0.7,0.4C173.8,38,173.6,38.5,173.5,39.3L173.5,39.3z"/>
			
				<linearGradient id="SVGID_00000028320976127108623000000001122853300893349794_" gradientUnits="userSpaceOnUse" x1="1447.1122" y1="1140.7401" x2="1447.1122" y2="1146.04" gradientTransform="matrix(-0.875 -0.484 0.484 -0.875 888.2238 1740.8296)">
				<stop  offset="0" style="stop-color:#F5C4B0"/>
				<stop  offset="0.26" style="stop-color:#F4BCA6"/>
				<stop  offset="0.69" style="stop-color:#F1A98D"/>
				<stop  offset="0.99" style="stop-color:#EF9977"/>
			</linearGradient>
			<path style="fill:url(#SVGID_00000028320976127108623000000001122853300893349794_);" d="M173.5,39.3c-0.1,0.6-0.1,1.3,0,2.2
				c0,0.1,0,0.3,0,0.4c0,0,0.1,0,0.1,0c0,0,0,0,0,0s0,0,0,0s0,0,0,0s0,0,0,0c0,0,0.1,0,0.2,0l0,0c0,0,0,0,0,0l0.4-1.7
				c0-0.1,0.1-0.2,0.2-0.1c0.1,0,0.1,0.1,0.1,0.2l-0.3,1.4l1-1c0.1-0.1,0.2-0.1,0.2,0s0.1,0.2,0,0.2l-1.2,1.2c0,0,0,0,0,0l0,0
				c0,0,0.1,0.1,0.1,0.1c0,0,0,0,0,0c0,0,0,0,0,0c0,0,0,0,0,0c0,0,0,0,0,0c0,0,0,0,0,0c0,0,0,0.1,0.1,0.1c0.1-0.1,0.2-0.1,0.4-0.2
				c0.8-0.4,1.4-0.7,1.8-1.2c0.5-0.4,0.9-0.8,1-1.2c0.1-0.1,0.1-0.4,0.1-0.7c0-0.1-0.1-0.2-0.1-0.2c0,0,0,0-0.1-0.1
				c-0.1-0.1-0.2-0.1-0.2-0.3c0-0.1,0-0.1,0-0.2c0,0,0-0.1,0-0.1c0-0.1-0.1-0.2-0.1-0.2c0,0-0.1-0.1-0.1-0.1
				c-0.1-0.1-0.2-0.1-0.3-0.3c0,0,0-0.1,0-0.1c0-0.1-0.1-0.2-0.2-0.3c-0.2-0.1-0.2-0.1-0.3-0.1c-0.1,0-0.2,0-0.3,0
				c-0.1,0-0.1-0.1-0.2-0.1c-0.1,0-0.2-0.1-0.2-0.1c0,0-0.1,0-0.1,0.1c-0.1,0-0.1,0.1-0.2,0.1c-0.2,0-0.3,0-0.4-0.1
				c0,0-0.1-0.1-0.1-0.1c-0.3,0-0.6,0.2-0.7,0.4C173.8,38.1,173.6,38.6,173.5,39.3L173.5,39.3z"/>
		</g>
		<g>
			<path class="st9" d="M174.6,42.7c0,0,0.1-0.1,0.2-0.1c0.1-0.1,0.2-0.1,0.4-0.2c0.4-0.2,0.8-0.3,1.1-0.4l0,0
				c0.4-0.1,0.7-0.2,1-0.3c0.7-0.1,1.3-0.1,1.8,0c0.1,0,0.2,0.1,0.4,0.1c0.3,0.2,0.5,0.4,0.5,0.7c0,0.1,0,0.2,0,0.3
				c0,0.1,0,0.1,0,0.1c0,0,0.1,0.1,0.1,0.1c0.1,0.1,0.2,0.1,0.2,0.3c0,0.1,0,0.3,0,0.4c0,0.1,0,0.1,0,0.2s0,0.1,0,0.1
				c0.1,0.1,0.1,0.3,0.1,0.6c0,0.3-0.2,0.4-0.3,0.5c0,0,0,0,0,0.1c-0.1,0.1-0.1,0.1-0.1,0.2c0,0.1,0,0.1,0,0.2
				c-0.1,0.2-0.2,0.3-0.3,0.4c0,0-0.1,0.1-0.1,0.1c0,0-0.1,0-0.1,0c0,0,0,0.1,0,0.1c0,0.1,0,0.1-0.1,0.2c-0.1,0.1-0.2,0.2-0.3,0.3
				c-0.2,0.1-0.5,0.2-0.9,0.2c-0.4,0-0.9-0.2-1.3-0.4c-0.1-0.1-0.2-0.1-0.3-0.2c-0.3-0.2-0.6-0.4-0.9-0.6l0,0
				c-0.3-0.2-0.6-0.5-0.9-0.8c-0.1-0.1-0.2-0.2-0.3-0.3c0,0-0.1-0.1-0.1-0.1c0,0,0-0.1,0-0.1c0,0,0-0.1,0-0.1c0,0,0,0,0,0
				c0,0,0,0,0,0l0,0c0,0,0,0,0,0c0,0,0,0,0,0s0,0,0,0c0,0,0,0,0,0c0,0,0,0,0,0c0,0,0,0,0,0c0,0,0,0,0-0.1c0,0,0,0,0,0c0,0,0,0,0,0
				c0,0,0,0,0,0l0,0v0c0,0,0,0,0,0v0l0,0c0,0,0,0,0,0s0,0,0,0c0,0,0,0,0-0.1l0,0l0,0l0,0l0,0l0,0c0,0,0,0,0-0.1v0c0,0,0,0,0,0v0l0,0
				v0c0,0,0,0,0,0s0,0,0,0c0,0,0,0,0,0s0,0,0,0s0,0,0,0c0,0,0-0.1,0-0.1c0,0,0,0,0,0c0,0,0-0.1,0-0.1c0,0,0,0,0,0c0,0,0,0,0,0
				s0,0,0,0c0,0,0-0.1,0-0.1C174.6,42.8,174.6,42.8,174.6,42.7L174.6,42.7z M176.6,45.9c0.1,0.1,0.2,0.1,0.3,0.2
				c0.4,0.2,0.8,0.4,1.2,0.4c0.1,0,0.4,0,0.6-0.1c0.1-0.1,0.1-0.1,0.2-0.2c0,0,0-0.1,0-0.1c0-0.1,0-0.2,0.2-0.3
				c0.1,0,0.1-0.1,0.2-0.1c0,0,0.1,0,0.1,0c0.1-0.1,0.1-0.1,0.2-0.2c0-0.1,0-0.1,0-0.1c0-0.1,0-0.2,0.2-0.4c0,0,0,0,0.1-0.1
				c0.1-0.1,0.1-0.1,0.2-0.3c0-0.2,0-0.3,0-0.3c0-0.1-0.1-0.2-0.1-0.3c0-0.1,0-0.2,0-0.2c0-0.1,0-0.2,0-0.2c0,0-0.1-0.1-0.1-0.1
				s-0.1-0.1-0.2-0.2c-0.1-0.1-0.1-0.3,0-0.4c0-0.1,0-0.1,0-0.1c0-0.2-0.2-0.4-0.4-0.4c-0.1-0.1-0.2-0.1-0.3-0.1
				c-0.4-0.1-1-0.1-1.6,0c-0.6,0.1-1.3,0.3-2.1,0.7c-0.1,0.1-0.2,0.1-0.4,0.2c0,0,0,0.1,0,0.1c0,0,0,0.1,0,0.1c0,0.1,0,0.1,0,0.2
				c0,0,0,0,0,0s0,0,0,0c0,0,0,0,0,0c0,0,0,0,0,0s0,0,0,0l0,0l0,0c0,0,0,0,0,0s0,0,0,0c0,0,0,0,0,0c0,0,0,0,0,0c0,0,0,0,0,0.1
				c0,0,0,0,0,0l0,0c0,0,0,0,0,0v0c0,0,0,0,0,0c0,0,0,0,0,0c0,0,0,0,0,0c0,0,0,0,0,0c0,0,0,0,0,0c0,0,0,0,0,0l0,0c0,0,0,0,0,0.1
				c0,0,0,0,0,0c0,0,0,0,0,0l0,0c0,0,0,0,0,0c0,0,0,0,0,0c0,0,0,0.1-0.1,0.1c0.1,0.1,0.2,0.2,0.3,0.3c0.6,0.6,1.1,1.1,1.7,1.4
				L176.6,45.9z"/>
			
				<linearGradient id="SVGID_00000165208028189770721870000001237538517577209257_" gradientUnits="userSpaceOnUse" x1="1446.025" y1="1140.9539" x2="1440.7451" y2="1140.9539" gradientTransform="matrix(-0.875 -0.484 0.484 -0.875 888.2238 1740.8296)">
				<stop  offset="0" style="stop-color:#F5C4B0"/>
				<stop  offset="0.26" style="stop-color:#F4BCA6"/>
				<stop  offset="0.69" style="stop-color:#F1A98D"/>
				<stop  offset="0.99" style="stop-color:#EF9977"/>
			</linearGradient>
			<path style="fill:url(#SVGID_00000165208028189770721870000001237538517577209257_);" d="M176.9,43.4c0,0.1-0.1,0.2-0.1,0.2
				l-1.4,0.1l1.2,0.6c0.1,0,0.1,0.1,0.1,0.2c0,0.1-0.1,0.1-0.2,0.1l-1.5-0.8c0,0,0,0,0,0c0,0,0,0,0,0c0,0,0,0,0,0c0,0,0,0,0,0
				c0,0,0,0,0,0c0,0,0,0,0,0l0,0c0,0,0,0,0,0.1c0,0,0,0,0,0v0l0,0c0,0,0,0,0,0c0,0,0,0,0,0c0,0,0,0.1-0.1,0.1
				c0.1,0.1,0.2,0.2,0.3,0.3c0.6,0.6,1.1,1.1,1.7,1.4c0.1,0.1,0.2,0.1,0.3,0.2c0.4,0.2,0.8,0.4,1.2,0.4c0.1,0,0.4,0,0.6-0.1
				c0.1-0.1,0.1-0.1,0.2-0.2c0,0,0-0.1,0-0.1c0-0.1,0-0.2,0.2-0.3c0.1,0,0.1-0.1,0.2-0.1c0,0,0.1,0,0.1,0c0.1-0.1,0.1-0.1,0.2-0.2
				c0-0.1,0-0.1,0-0.1c0-0.1,0-0.2,0.2-0.4c0,0,0,0,0.1-0.1c0.1-0.1,0.1-0.1,0.2-0.3c0-0.2,0-0.3,0-0.3c0-0.1-0.1-0.2-0.1-0.3
				c0-0.1,0-0.2,0-0.2c0-0.1,0-0.2,0-0.2c0,0-0.1-0.1-0.1-0.1s-0.1-0.1-0.2-0.2c-0.1-0.1-0.1-0.3,0-0.4c0-0.1,0-0.1,0-0.1
				c0-0.2-0.2-0.4-0.4-0.4c-0.1-0.1-0.2-0.1-0.3-0.1c-0.4-0.1-1-0.1-1.6,0c-0.6,0.1-1.3,0.3-2.1,0.7c-0.1,0.1-0.2,0.1-0.4,0.2
				c0,0.1,0,0.3,0,0.4l1.7-0.2C176.8,43.2,176.9,43.3,176.9,43.4L176.9,43.4z"/>
		</g>
		<g>
			<path class="st9" d="M172.7,44.6c0-0.1,0.1-0.1,0.1-0.1c0-0.1,0.1-0.1,0.1-0.1c0,0,0,0,0.1,0l0,0l0,0c0.2,0.1,0.5,0.1,0.7,0.1
				c0,0,0,0,0,0s0,0,0,0c0,0,0,0,0,0c0,0,0,0,0,0c0,0,0,0,0,0c0,0,0,0,0.1,0c0,0,0,0,0,0c0,0,0,0,0,0c0,0,0,0,0,0c0,0,0,0,0,0l0,0
				c0,0,0,0,0,0l0,0l0,0l0,0c0,0,0,0,0.1,0c0,0,0.1,0,0.1,0.1c0,0,0.1,0.1,0.1,0.1l0,0c0.1,0.1,0.2,0.2,0.3,0.3
				c0.3,0.3,0.5,0.6,0.8,0.9l0,0c0.2,0.3,0.4,0.6,0.6,0.9c0.4,0.6,0.5,1.2,0.5,1.7c0,0.4-0.1,0.9-0.5,1.1c-0.1,0.1-0.2,0.1-0.2,0.1
				c-0.1,0-0.1,0-0.1,0c0,0,0,0.1-0.1,0.1c0,0.1-0.1,0.2-0.2,0.3c-0.1,0.1-0.3,0.1-0.4,0.1c-0.1,0-0.1,0-0.2,0c0,0-0.1,0-0.1,0.1
				c-0.1,0.1-0.2,0.2-0.5,0.2c-0.3,0-0.4-0.1-0.5-0.1c0,0,0,0-0.1,0c-0.1,0-0.1,0-0.2,0c0,0-0.1,0-0.2,0c-0.1,0-0.2,0-0.4-0.1
				c0,0-0.1-0.1-0.1-0.1c0,0-0.1-0.1-0.1-0.1c0,0,0-0.1,0-0.1l0,0c0,0-0.1,0-0.1,0s-0.1,0-0.2,0c-0.1,0-0.2,0-0.2-0.1
				c0,0-0.1-0.1-0.1-0.1c-0.2-0.2-0.4-0.4-0.4-0.8c-0.1-0.5-0.1-1.1,0.1-1.8c0.1-0.3,0.2-0.6,0.3-1c0.1-0.4,0.3-0.7,0.5-1.1
				C172.6,44.8,172.7,44.7,172.7,44.6L172.7,44.6z M172.9,45.1c-0.4,0.7-0.7,1.4-0.8,2c-0.2,0.6-0.2,1.2-0.1,1.6
				c0,0.2,0.2,0.5,0.3,0.6c0,0,0.1,0.1,0.1,0.1c0,0,0.1,0,0.1,0.1c0,0,0.1,0,0.1,0c0.1,0,0.2,0,0.3,0c0,0,0,0,0,0
				c0.1,0,0.1,0.1,0.1,0.1c0,0,0,0.1,0,0.1c0.1,0.1,0.2,0.1,0.3,0.1c0.1,0,0.1,0,0.1,0c0.1,0,0.2,0,0.4,0.1c0,0,0,0,0.1,0
				c0.1,0.1,0.2,0.1,0.4,0.1c0.2,0,0.2-0.1,0.3-0.1c0.1-0.1,0.1-0.1,0.2-0.2c0.1,0,0.1,0,0.2-0.1c0.1,0,0.2,0,0.2-0.1
				c0,0,0.1-0.1,0.1-0.1c0-0.1,0.1-0.1,0.1-0.2c0.1-0.1,0.2-0.1,0.3-0.2c0,0,0.1,0,0.1,0c0.2-0.1,0.3-0.5,0.3-0.8
				c0-0.4-0.2-1-0.5-1.6c-0.3-0.6-0.7-1.1-1.3-1.8c-0.1-0.1-0.2-0.2-0.3-0.3c0,0,0,0,0,0s0,0,0,0c0,0,0,0,0,0c0,0,0,0,0,0l0,0
				c0,0,0,0,0,0c0,0,0,0,0,0c0,0,0,0,0,0l0,0c0,0,0,0,0,0c0,0,0,0,0,0c0,0,0,0-0.1,0h0c-0.1,0-0.3,0.1-0.4,0.1c-0.1,0-0.3,0-0.4-0.1
				l0,0C173,44.8,172.9,44.9,172.9,45.1L172.9,45.1z"/>
			
				<linearGradient id="SVGID_00000131325872842320066260000003813682142720439737_" gradientUnits="userSpaceOnUse" x1="1444.4717" y1="1138.735" x2="1444.4717" y2="1133.595" gradientTransform="matrix(-0.875 -0.484 0.484 -0.875 888.2238 1740.8296)">
				<stop  offset="0" style="stop-color:#F5C4B0"/>
				<stop  offset="0.26" style="stop-color:#F4BCA6"/>
				<stop  offset="0.69" style="stop-color:#F1A98D"/>
				<stop  offset="0.99" style="stop-color:#EF9977"/>
			</linearGradient>
			<path style="fill:url(#SVGID_00000131325872842320066260000003813682142720439737_);" d="M172.9,45.1c-0.4,0.7-0.7,1.4-0.8,2
				c-0.2,0.6-0.2,1.2-0.1,1.6c0,0.2,0.2,0.5,0.3,0.6c0,0,0.1,0.1,0.1,0.1c0,0,0.1,0,0.1,0.1c0,0,0.1,0,0.1,0c0.1,0,0.2,0,0.3,0
				c0,0,0,0,0,0c0.1,0,0.1,0.1,0.1,0.1c0,0,0,0.1,0,0.1c0.1,0.1,0.2,0.1,0.3,0.1c0.1,0,0.1,0,0.1,0c0.1,0,0.2,0,0.4,0.1
				c0,0,0,0,0.1,0c0.1,0.1,0.2,0.1,0.4,0.1c0.2,0,0.2-0.1,0.3-0.1c0.1-0.1,0.1-0.1,0.2-0.2c0.1,0,0.1,0,0.2-0.1c0.1,0,0.2,0,0.2-0.1
				c0,0,0.1-0.1,0.1-0.1c0-0.1,0.1-0.1,0.1-0.2c0.1-0.1,0.2-0.1,0.3-0.2c0,0,0.1,0,0.1,0c0.2-0.1,0.3-0.5,0.3-0.8
				c0-0.4-0.2-1-0.5-1.6c-0.3-0.6-0.7-1.1-1.3-1.8c-0.1-0.1-0.2-0.2-0.3-0.3c0,0,0,0,0,0s0,0,0,0c0,0,0,0,0,0c0,0,0,0,0,0l0,0
				c0,0,0,0,0,0c0,0,0,0,0,0c0,0,0,0,0,0l0,0c0,0,0,0,0,0c0,0,0,0,0,0c0,0,0,0-0.1,0c0,0,0,0,0,0l0.7,1.6c0,0.1,0,0.2-0.1,0.2
				c-0.1,0-0.2,0-0.2-0.1l-0.6-1.3l-0.2,1.4c0,0.1-0.1,0.1-0.2,0.1c0,0,0,0,0,0c-0.1,0-0.1-0.1-0.1-0.2l0.3-1.7
				c-0.1,0-0.3,0-0.4-0.1C173,44.8,172.9,44.9,172.9,45.1L172.9,45.1z"/>
		</g>
		<g>
			<path class="st9" d="M167.8,43.2c0.4-0.3,1-0.4,1.7-0.4c0.3,0,0.7,0,1.1,0l0,0c0.4,0,0.8,0.1,1.2,0.1c0.1,0,0.2,0.1,0.4,0.1
				c0.1,0,0.1,0,0.2,0c0.1,0,0.1,0.1,0.1,0.1c0,0,0,0.1,0,0.1l0,0l0,0c0,0,0,0,0,0s0,0,0,0s0,0,0,0c0,0,0,0,0,0c0,0,0,0,0,0v0
				c0,0,0,0,0,0s0,0,0,0s0,0,0,0c0,0,0,0,0,0c0,0,0,0,0,0s0,0,0,0c0,0,0,0,0,0s0,0,0,0c0,0,0,0,0,0.1c0,0,0,0,0,0c0,0,0,0,0,0.1
				c0,0,0,0,0,0c0.1,0.2,0.2,0.4,0.4,0.5l0,0l0,0c0,0,0,0,0,0.1c0,0.1,0,0.1,0,0.2s0,0.1-0.1,0.1c-0.1,0.1-0.1,0.2-0.2,0.3
				c-0.2,0.4-0.4,0.7-0.6,1c-0.2,0.3-0.4,0.6-0.7,0.8c-0.5,0.5-1,0.9-1.5,1c-0.4,0.1-0.8,0.1-1,0c-0.1,0-0.1-0.1-0.2-0.1
				c-0.1-0.1-0.1-0.1-0.1-0.2c0-0.1,0-0.1-0.1-0.1c0,0-0.1,0-0.1,0c-0.1,0-0.2,0-0.3-0.1c0,0,0,0-0.1,0c-0.1-0.1-0.2-0.2-0.2-0.3
				c0-0.1,0-0.1-0.1-0.1c0,0,0-0.1-0.1-0.1c0,0,0,0,0,0c0,0,0,0,0,0c-0.1-0.1-0.2-0.1-0.3-0.4c-0.1-0.2-0.1-0.4-0.1-0.6
				c0,0,0-0.1,0-0.1c0-0.1,0-0.1,0-0.2c0-0.1,0-0.1-0.1-0.2c0-0.2,0-0.4,0-0.5c0-0.1,0.1-0.1,0.1-0.1c0,0,0-0.1,0-0.1
				c0,0,0-0.1,0-0.1c0-0.1,0-0.1-0.1-0.2c0-0.1,0-0.3,0.1-0.4C167.2,43.6,167.4,43.3,167.8,43.2L167.8,43.2z M167.5,43.9
				c0,0.1,0,0.2,0,0.2c0,0,0,0.1,0,0.1c0,0.1,0.1,0.2,0,0.4c0,0.1-0.1,0.1-0.1,0.2c0,0,0,0.1,0,0.1c0,0.1,0,0.2,0,0.3
				c0,0.1,0,0.1,0,0.1c0,0.1,0.1,0.2,0.1,0.4c0,0,0,0.1,0,0.1c0,0.1,0,0.2,0,0.4c0,0.1,0.1,0.1,0.1,0.2s0.1,0.1,0.1,0.1c0,0,0,0,0,0
				c0,0,0,0,0,0c0,0,0.1,0.1,0.2,0.2c0,0.1,0.1,0.1,0.1,0.2c0,0.1,0.1,0.2,0.1,0.2c0,0,0.1,0,0.2,0c0.1,0,0.1,0,0.2,0.1c0,0,0,0,0,0
				c0.1,0.1,0.2,0.2,0.2,0.3c0,0.1,0,0.1,0.1,0.1s0.1,0.1,0.1,0.1c0.2,0.1,0.5,0.1,0.8,0c0.4-0.1,0.9-0.5,1.3-0.9
				c0.4-0.5,0.9-1,1.3-1.8c0.1-0.1,0.1-0.2,0.2-0.4l0,0c-0.1-0.1-0.2-0.2-0.3-0.3c-0.1-0.1-0.1-0.3-0.2-0.4c0,0,0-0.1,0-0.1
				c0,0,0,0,0,0s0,0,0,0l0,0c0,0,0,0,0,0s0,0,0,0c0,0,0,0,0,0l0,0c0,0,0,0,0,0s0,0,0,0c0,0,0-0.1,0-0.1l0,0c-0.1,0-0.3-0.1-0.4-0.1
				c-0.8-0.1-1.5-0.2-2.2-0.1c-0.7,0-1.2,0.2-1.6,0.4C167.8,43.6,167.6,43.7,167.5,43.9L167.5,43.9z"/>
			
				<linearGradient id="SVGID_00000068679893461388208640000009949174732305059756_" gradientUnits="userSpaceOnUse" x1="1448.134" y1="1138.5936" x2="1450.814" y2="1133.9636" gradientTransform="matrix(-0.875 -0.484 0.484 -0.875 888.2238 1740.8296)">
				<stop  offset="0" style="stop-color:#F5C4B0"/>
				<stop  offset="0.26" style="stop-color:#F4BCA6"/>
				<stop  offset="0.69" style="stop-color:#F1A98D"/>
				<stop  offset="0.99" style="stop-color:#EF9977"/>
			</linearGradient>
			<path style="fill:url(#SVGID_00000068679893461388208640000009949174732305059756_);" d="M167.5,43.9c0,0.1,0,0.2,0,0.2
				c0,0,0,0.1,0,0.1c0,0.1,0.1,0.2,0,0.4c0,0.1-0.1,0.1-0.1,0.2c0,0,0,0.1,0,0.1c0,0.1,0,0.2,0,0.3c0,0.1,0,0.1,0,0.1
				c0,0.1,0.1,0.2,0.1,0.4c0,0,0,0.1,0,0.1c0,0.1,0,0.2,0,0.4c0,0.1,0.1,0.1,0.1,0.2s0.1,0.1,0.1,0.1c0,0,0,0,0,0c0,0,0,0,0,0
				c0,0,0.1,0.1,0.2,0.2c0,0.1,0.1,0.1,0.1,0.2c0,0.1,0.1,0.2,0.1,0.2c0,0,0.1,0,0.2,0c0.1,0,0.1,0,0.2,0.1c0,0,0,0,0,0
				c0.1,0.1,0.2,0.2,0.2,0.3c0,0.1,0,0.1,0.1,0.1s0.1,0.1,0.1,0.1c0.2,0.1,0.5,0.1,0.8,0c0.4-0.1,0.9-0.5,1.3-0.9
				c0.4-0.5,0.9-1,1.3-1.8c0.1-0.1,0.1-0.2,0.2-0.4c-0.1-0.1-0.2-0.2-0.3-0.3l-1.3,1.1c0,0.1-0.1,0.1-0.2,0c0,0,0,0,0,0
				c-0.1-0.1-0.1-0.2,0-0.2l1-0.9l-1.4,0.2c-0.1,0-0.2-0.1-0.2-0.1s0-0.2,0.1-0.2l1.7-0.2c0,0,0-0.1,0-0.1c0,0,0,0,0,0s0,0,0,0l0,0
				c0,0,0,0,0,0s0,0,0,0c0,0,0,0,0,0l0,0c0,0,0,0,0,0s0,0,0,0c0,0,0-0.1,0-0.1l0,0c-0.1,0-0.3-0.1-0.4-0.1c-0.8-0.1-1.5-0.2-2.2-0.1
				c-0.7,0-1.2,0.2-1.6,0.4C167.8,43.5,167.6,43.7,167.5,43.9L167.5,43.9z"/>
		</g>
		<g>
			<path class="st9" d="M168.3,39c0,0,0.1-0.1,0.1-0.1c0,0,0-0.1,0-0.1c0-0.1,0-0.3,0.3-0.5c0.2-0.2,0.4-0.2,0.5-0.2c0,0,0,0,0.1,0
				c0.1,0,0.1-0.1,0.2-0.1c0,0,0.1-0.1,0.1-0.1c0.1-0.1,0.3-0.2,0.5-0.1c0.1,0,0.1,0,0.2,0c0,0,0.1,0,0.1,0c0,0,0.1,0,0.1-0.1
				c0,0,0.1-0.1,0.1-0.1c0.1-0.1,0.3-0.1,0.4-0.1c0.2,0,0.3,0.1,0.5,0.2c0.1,0.1,0.2,0.1,0.3,0.2c0.4,0.3,0.7,0.8,1,1.5
				c0.1,0.3,0.2,0.6,0.3,1l0,0l0,0c0.1,0.4,0.2,0.8,0.2,1.2c0,0.1,0,0.3,0,0.4c0,0.1,0,0.1,0,0.2c0,0.1,0,0.1-0.1,0.1c0,0,0,0-0.1,0
				c0,0,0,0,0,0c0,0,0,0,0,0c0,0,0,0,0,0c0,0-0.1,0-0.1,0c0,0-0.1,0-0.1,0.1c0,0,0,0,0,0c0,0,0,0-0.1,0l0,0c0,0,0,0,0,0c0,0,0,0,0,0
				c0,0,0,0,0,0c0,0,0,0,0,0l0,0c0,0,0,0,0,0l0,0l0,0l0,0l0,0l0,0l0,0l0,0l0,0c0,0,0,0,0,0c0,0,0,0,0,0c0,0,0,0,0,0l0,0c0,0,0,0,0,0
				c0,0,0,0,0,0c0,0,0,0,0,0l0,0c0,0,0,0,0,0c0,0,0,0,0,0c0,0,0,0,0,0c0,0,0,0,0,0.1c0,0,0,0,0,0c0,0,0,0,0,0c0,0,0,0,0,0
				c0,0,0,0,0,0l0,0v0c0,0,0,0,0,0c0,0,0,0,0,0c0,0,0,0,0,0c0,0,0,0,0,0c0,0,0,0,0,0c0,0,0,0.1,0,0.1c0,0-0.1,0.1-0.1,0.1
				c-0.1,0-0.1,0-0.2,0l0,0c-0.1,0-0.2-0.1-0.4-0.1c-0.4-0.1-0.8-0.2-1.2-0.3l0,0c-0.4-0.1-0.7-0.2-1-0.4c-0.1-0.1-0.2-0.1-0.4-0.2
				c-0.5-0.3-0.8-0.6-1.1-0.9c-0.2-0.3-0.4-0.8-0.2-1.2c0-0.1,0.1-0.2,0.2-0.2c0.1-0.1,0.1-0.1,0.1-0.1s0-0.1,0-0.1
				c0-0.1,0-0.2,0-0.3C168.2,39.1,168.3,39,168.3,39L168.3,39z M168.4,39.4c0,0,0,0.1,0,0.2s0,0.2,0,0.2c0,0.2-0.1,0.3-0.2,0.3
				c0,0-0.1,0.1-0.1,0.1c-0.1,0.2,0,0.6,0.2,0.8c0.1,0.2,0.2,0.3,0.4,0.4c0.2,0.1,0.4,0.3,0.6,0.4c0.1,0.1,0.2,0.1,0.3,0.2
				c0.6,0.3,1.2,0.5,2.1,0.7c0.1,0,0.3,0.1,0.4,0.1l0,0l0,0c0,0,0-0.1,0-0.1c0,0,0,0,0,0c0,0,0,0,0,0v0c0,0,0,0,0,0c0,0,0,0,0-0.1
				l0,0c0,0,0,0,0,0c0,0,0,0,0,0c0,0,0,0,0,0c0,0,0,0,0,0c0,0,0,0,0,0l0,0c0,0,0,0,0,0c0,0,0,0,0,0l0,0c0,0,0,0,0,0c0,0,0,0,0,0
				c0,0,0,0,0,0l0,0c0,0,0,0,0,0c0,0,0,0,0,0c0,0,0,0,0,0c0,0,0,0,0,0l0,0c0,0,0,0,0,0c0,0,0,0,0,0c0,0,0,0,0,0c0,0,0,0,0,0
				c0,0,0,0,0,0c0,0,0,0,0.1,0c0,0,0,0,0,0c0,0,0,0,0.1,0l0,0c0,0,0,0,0.1,0c0,0,0,0,0.1,0c0,0,0,0,0,0c0,0,0,0,0.1,0h0
				c0-0.1,0-0.3,0-0.4c-0.1-0.8-0.3-1.5-0.5-2.1c-0.2-0.6-0.5-1.1-0.9-1.4c-0.1-0.1-0.2-0.1-0.2-0.2c-0.1-0.1-0.2-0.1-0.4-0.1
				c-0.1,0-0.2,0-0.2,0c0,0,0,0-0.1,0.1c-0.1,0.1-0.2,0.2-0.3,0.2c-0.1,0-0.1,0-0.2,0c0,0-0.1,0-0.1,0c-0.1,0-0.2,0-0.3,0.1
				c0,0-0.1,0.1-0.1,0.1c-0.1,0.1-0.2,0.2-0.3,0.2c0,0-0.1,0-0.1,0c-0.1,0-0.2,0-0.3,0.2c-0.1,0.1-0.1,0.2-0.2,0.3
				c0,0.1,0,0.2-0.1,0.3c0,0.1-0.1,0.1-0.1,0.2C168.5,39.4,168.4,39.4,168.4,39.4L168.4,39.4z"/>
			
				<linearGradient id="SVGID_00000152262167074084797970000007836019839651613619_" gradientUnits="userSpaceOnUse" x1="1449.21" y1="1138.5452" x2="1452.91" y2="1142.2351" gradientTransform="matrix(-0.875 -0.484 0.484 -0.875 888.2238 1740.8296)">
				<stop  offset="0" style="stop-color:#F5C4B0"/>
				<stop  offset="0.26" style="stop-color:#F4BCA6"/>
				<stop  offset="0.69" style="stop-color:#F1A98D"/>
				<stop  offset="0.99" style="stop-color:#EF9977"/>
			</linearGradient>
			<path style="fill:url(#SVGID_00000152262167074084797970000007836019839651613619_);" d="M168.4,39.4c0,0,0,0.1,0,0.2
				s0,0.2,0,0.2c0,0.2-0.1,0.3-0.2,0.3c0,0-0.1,0.1-0.1,0.1c-0.1,0.2,0,0.6,0.2,0.8c0.1,0.2,0.2,0.3,0.4,0.4
				c0.2,0.1,0.4,0.3,0.6,0.4c0.1,0.1,0.2,0.1,0.3,0.2c0.6,0.3,1.2,0.5,2.1,0.7c0.1,0,0.3,0.1,0.4,0.1l0,0l0,0c0,0,0-0.1,0-0.1
				c0,0,0,0,0,0c0,0,0,0,0,0v0c0,0,0,0,0,0c0,0,0,0,0-0.1l0,0c0,0,0,0,0,0c0,0,0,0,0,0c0,0,0,0,0,0c0,0,0,0,0,0c0,0,0,0,0,0l0,0
				l-1.5-0.9c-0.1-0.1-0.1-0.2-0.1-0.2s0.1-0.1,0.2-0.1l1.2,0.7l-0.6-1.2c0-0.1,0-0.2,0.1-0.2c0.1,0,0.2,0,0.2,0.1l0.8,1.6
				c0.1-0.1,0.2-0.1,0.4-0.2c0-0.1,0-0.3,0-0.4c-0.1-0.8-0.3-1.5-0.5-2.1c-0.2-0.6-0.5-1.1-0.9-1.4c-0.1-0.1-0.2-0.1-0.2-0.2
				c-0.1-0.1-0.2-0.1-0.4-0.1c-0.1,0-0.2,0-0.2,0c0,0,0,0-0.1,0.1c-0.1,0.1-0.2,0.2-0.3,0.2c-0.1,0-0.1,0-0.2,0c0,0-0.1,0-0.1,0
				c-0.1,0-0.2,0-0.3,0.1c0,0-0.1,0.1-0.1,0.1c-0.1,0.1-0.2,0.2-0.3,0.2c0,0-0.1,0-0.1,0c-0.1,0-0.2,0-0.3,0.2
				c-0.1,0.1-0.1,0.2-0.2,0.3c0,0.1,0,0.2-0.1,0.3c0,0.1-0.1,0.1-0.1,0.2C168.5,39.4,168.4,39.4,168.4,39.4L168.4,39.4z"/>
		</g>
	</g>
	<path class="st9" d="M174.4,40.3l-0.4,1.7l0,0.2c0,0.1,0,0.1,0.1,0.2s0.1,0,0.2,0l0.1-0.1l1.2-1.2c0.1-0.1,0.1-0.2,0-0.2
		s-0.2-0.1-0.2,0l-1,1l0.3-1.3c0-0.1,0-0.2-0.1-0.2S174.4,40.2,174.4,40.3L174.4,40.3z"/>
	<path class="st9" d="M174.6,43.5L174.6,43.5L174.6,43.5L174.6,43.5L174.6,43.5L174.6,43.5c0,0.1,0,0.1,0.1,0.2l0,0l0.2,0.1l1.5,0.8
		c0.1,0,0.2,0,0.2-0.1c0-0.1,0-0.2-0.1-0.2l-1.2-0.6l1.4-0.1c0.1,0,0.2-0.1,0.1-0.2c0-0.1-0.1-0.2-0.2-0.1l-1.7,0.2l0,0l-0.2,0
		C174.7,43.4,174.7,43.4,174.6,43.5L174.6,43.5z"/>
	<path class="st9" d="M173.5,44.6l0,0.2l0,0l-0.3,1.7c0,0.1,0,0.1,0.1,0.2c0,0,0,0,0,0c0.1,0,0.2-0.1,0.2-0.1l0.2-1.4l0.6,1.3
		c0,0.1,0.1,0.1,0.2,0.1c0.1,0,0.1-0.1,0.1-0.2l-0.7-1.6l0,0l-0.1-0.2c0-0.1-0.1-0.1-0.2-0.1C173.6,44.4,173.5,44.5,173.5,44.6
		L173.5,44.6z"/>
	<path class="st9" d="M170.3,44.2c0,0.1,0.1,0.2,0.2,0.1l1.4-0.2l-1,0.9c-0.1,0.1-0.1,0.2,0,0.2c0,0,0,0,0,0c0.1,0,0.1,0,0.2,0
		l1.3-1.1l0,0l0.1-0.1c0.1-0.1,0.1-0.1,0-0.2c0-0.1-0.1-0.1-0.2-0.1l-0.2,0l0,0l-1.7,0.2C170.3,44,170.2,44.1,170.3,44.2L170.3,44.2
		z"/>
	<path class="st9" d="M170.8,41.3c0,0.1,0,0.2,0.1,0.2l1.5,0.9l0.2,0.1l0,0c0.1,0,0.1,0,0.2,0l0,0l0,0l0,0l0,0c0-0.1,0.1-0.1,0-0.2
		l-0.1-0.2l0,0l-0.8-1.6c0-0.1-0.1-0.1-0.2-0.1c-0.1,0-0.1,0.1-0.1,0.2l0.6,1.2l-1.2-0.7C170.9,41.2,170.8,41.3,170.8,41.3
		L170.8,41.3z"/>
	<g>
		<path class="st9" d="M172.3,42.6L172.3,42.6C172.3,42.5,172.3,42.5,172.3,42.6C172.3,42.5,172.3,42.5,172.3,42.6
			C172.3,42.5,172.3,42.5,172.3,42.6c0.1-0.1,0.1-0.1,0.1-0.1c0,0,0,0,0,0l0,0c0,0,0,0,0,0c0,0,0,0,0,0l0,0c0,0,0,0,0,0c0,0,0,0,0,0
			c0,0,0,0,0,0l0,0c0,0,0,0,0,0c0,0,0,0,0,0c0,0,0,0,0,0c0,0,0,0,0,0l0,0c0,0,0,0,0,0c0,0,0,0,0,0c0,0,0,0,0,0c0,0,0,0,0,0
			c0,0,0,0,0,0c0,0,0,0,0.1,0c0,0,0,0,0,0c0,0,0,0,0.1,0l0,0c0,0,0,0,0.1,0c0,0,0,0,0.1,0c0,0,0,0,0,0c0,0,0,0,0.1,0
			c0.1,0,0.1,0,0.2-0.1c0,0,0.1,0,0.2,0s0.1,0,0.2,0c0,0,0.1,0,0.1,0c0,0,0,0,0,0s0,0,0,0s0,0,0,0s0,0,0,0c0,0,0.1,0,0.2,0l0,0
			c0,0,0,0,0,0c0,0,0,0,0,0s0,0,0,0c0,0,0,0,0,0c0,0,0,0,0,0c0,0,0,0,0,0c0,0,0,0,0.1,0s0,0,0.1,0c0,0,0,0,0,0l0,0c0,0,0,0,0,0
			c0,0,0,0,0,0c0,0,0,0,0,0c0,0,0,0,0,0c0,0,0,0,0,0l0,0c0,0,0.1,0.1,0.1,0.1c0,0,0,0,0,0c0,0,0,0,0,0c0,0,0,0,0,0c0,0,0,0,0,0
			c0,0,0,0,0,0c0,0,0,0.1,0.1,0.1c0,0.1,0.1,0.1,0.1,0.1c0,0.1,0,0.1,0.1,0.1c0,0.1,0.1,0.2,0.1,0.3c0,0,0,0.1,0,0.1
			c0,0.1,0,0.1,0,0.2c0,0,0,0,0,0s0,0,0,0c0,0,0,0,0,0c0,0,0,0,0,0s0,0,0,0l0,0l0,0c0,0,0,0,0,0s0,0,0,0c0,0,0,0,0,0c0,0,0,0,0,0
			c0,0,0,0,0,0.1c0,0,0,0,0,0l0,0c0,0,0,0,0,0v0c0,0,0,0,0,0c0,0,0,0,0,0c0,0,0,0,0,0c0,0,0,0,0,0c0,0,0,0,0,0c0,0,0,0,0,0l0,0
			c0,0,0,0,0,0.1c0,0,0,0,0,0c0,0,0,0,0,0l0,0c0,0,0,0,0,0c0,0,0,0,0,0c0,0,0,0.1-0.1,0.1c0,0.1-0.1,0.1-0.1,0.1l0,0
			c0,0-0.1,0.1-0.1,0.1s-0.1,0.1-0.1,0.1c0,0,0,0,0,0s0,0,0,0c0,0,0,0,0,0c0,0,0,0,0,0l0,0c0,0,0,0,0,0c0,0,0,0,0,0c0,0,0,0,0,0l0,0
			c0,0,0,0,0,0c0,0,0,0,0,0c0,0,0,0-0.1,0c0,0,0,0,0,0c-0.1,0-0.3,0.1-0.4,0.1c-0.1,0-0.3,0-0.4-0.1c-0.1,0-0.1,0-0.2-0.1
			c0,0,0,0-0.1,0s0,0-0.1,0c0,0-0.1-0.1-0.1-0.1c-0.1-0.1-0.2-0.2-0.3-0.3c-0.1-0.1-0.1-0.3-0.2-0.4c0,0,0-0.1,0-0.1c0,0,0,0,0,0
			s0,0,0,0l0,0c0,0,0,0,0,0s0,0,0,0c0,0,0,0,0,0l0,0c0,0,0,0,0,0s0,0,0,0c0,0,0-0.1,0-0.1c0-0.1,0-0.1,0-0.2l0,0c0-0.1,0-0.1,0-0.1
			c0-0.1,0-0.1,0.1-0.2l0,0C172.3,42.7,172.3,42.6,172.3,42.6C172.3,42.6,172.3,42.6,172.3,42.6C172.3,42.6,172.3,42.6,172.3,42.6
			L172.3,42.6C172.3,42.6,172.3,42.5,172.3,42.6c0.1-0.1,0.1-0.1,0.1-0.1L172.3,42.6z M172.9,44.3L172.9,44.3
			C172.9,44.3,173,44.3,172.9,44.3c0.1,0,0.1,0.1,0.1,0.1l0,0c0.2,0.1,0.5,0.1,0.7,0.1c0,0,0,0,0,0c0,0,0,0,0,0c0,0,0,0,0,0
			c0,0,0,0,0,0c0,0,0,0,0,0c0,0,0,0,0.1,0c0,0,0,0,0,0c0,0,0,0,0,0c0,0,0,0,0,0c0,0,0,0,0,0l0,0c0,0,0,0,0,0l0,0l0,0l0,0
			c0,0,0.1-0.1,0.1-0.1c0,0,0,0,0,0c0,0,0,0,0,0l0,0c0,0,0,0,0,0c0,0,0,0,0,0c0,0,0,0,0,0c0,0,0,0,0,0c0,0,0,0,0,0c0,0,0,0,0,0
			c0,0,0,0,0-0.1c0,0,0,0,0,0c0,0,0,0,0,0c0,0,0,0,0,0l0,0v0c0,0,0,0,0,0v0l0,0c0,0,0,0,0,0s0,0,0,0c0,0,0,0,0-0.1l0,0l0,0l0,0l0,0
			l0,0c0,0,0,0,0-0.1v0c0,0,0,0,0,0v0l0,0v0c0,0,0,0,0,0s0,0,0,0c0,0,0,0,0,0s0,0,0,0s0,0,0,0c0,0,0-0.1,0-0.1c0,0,0,0,0,0
			c0,0,0-0.1,0-0.1c0,0,0,0,0,0c0,0,0,0,0,0s0,0,0,0c0-0.1,0-0.1-0.1-0.2c0,0,0,0,0-0.1c0,0,0,0,0,0c0,0,0,0,0,0c0,0,0,0,0,0
			c0,0,0,0,0,0c0,0,0,0,0,0c0,0,0,0,0,0l0,0c0,0,0,0,0,0l0,0c0,0,0,0,0,0s0,0,0,0c0,0,0,0,0,0c0,0,0,0,0,0c0,0,0,0,0,0
			c0,0,0,0-0.1,0c0,0,0,0,0,0s0,0,0,0c0,0,0,0-0.1,0c0,0,0,0,0,0c0,0,0,0,0,0c0,0,0,0,0,0c0,0,0,0,0,0c0,0,0,0,0,0l0,0c0,0,0,0,0,0
			l0,0c0,0,0,0,0,0c0,0,0,0-0.1,0c0,0,0,0,0,0c0,0,0,0,0,0c0,0,0,0,0,0c0,0,0,0,0,0c-0.1,0-0.1,0-0.2,0c0,0,0,0,0,0c0,0,0,0,0,0
			c0,0-0.1,0-0.1,0c0,0-0.1,0-0.1,0.1c0,0,0,0,0,0c0,0,0,0-0.1,0l0,0c0,0,0,0,0,0c0,0,0,0,0,0c0,0,0,0,0,0c0,0,0,0,0,0l0,0
			c0,0,0,0,0,0l0,0l0,0l0,0l0,0l0,0l0,0l0,0c0,0,0,0,0,0c0,0,0,0,0,0c0,0,0,0,0,0l0,0c0,0,0,0,0,0c0,0,0,0,0,0c0,0,0,0,0,0l0,0
			c0,0,0,0,0,0c0,0,0,0,0,0c0,0,0,0,0,0c0,0,0,0,0,0.1c0,0,0,0,0,0c0,0,0,0,0,0c0,0,0,0,0,0c0,0,0,0,0,0l0,0v0c0,0,0,0,0,0
			c0,0,0,0,0,0c0,0,0,0,0,0c0,0,0,0,0,0c0,0.1,0,0.1,0,0.2l0,0c0,0,0,0,0,0s0,0,0,0s0,0,0,0c0,0,0,0,0,0c0,0,0,0,0,0v0c0,0,0,0,0,0
			s0,0,0,0s0,0,0,0c0,0,0,0,0,0c0,0,0,0,0,0s0,0,0,0c0,0,0,0,0,0s0,0,0,0c0,0,0,0,0,0.1c0,0,0,0,0,0c0,0,0,0,0,0.1c0,0,0,0,0,0
			C172.5,44,172.7,44.2,172.9,44.3L172.9,44.3z"/>
		
			<radialGradient id="SVGID_00000016066259573613966730000008007794842622356376_" cx="1447.0851" cy="1139.42" r="1.13" gradientTransform="matrix(-0.875 -0.484 0.484 -0.875 888.2238 1740.8296)" gradientUnits="userSpaceOnUse">
			<stop  offset="0" style="stop-color:#F5C4B0"/>
			<stop  offset="0.26" style="stop-color:#F4BCA6"/>
			<stop  offset="0.69" style="stop-color:#F1A98D"/>
			<stop  offset="0.99" style="stop-color:#EF9977"/>
		</radialGradient>
		<path style="fill:url(#SVGID_00000016066259573613966730000008007794842622356376_);" d="M172.5,42.8
			C172.5,42.8,172.5,42.8,172.5,42.8C172.5,42.8,172.5,42.8,172.5,42.8C172.5,42.8,172.5,42.9,172.5,42.8c0,0.1,0,0.1-0.1,0.1l0,0v0
			c0,0,0,0,0,0c0,0,0,0,0,0c0,0,0,0,0,0c0,0,0,0,0,0c0,0.1,0,0.1,0,0.2l0,0c0,0,0,0,0,0s0,0,0,0s0,0,0,0c0,0,0,0,0,0c0,0,0,0,0,0v0
			c0,0,0,0,0,0s0,0,0,0s0,0,0,0c0,0,0,0,0,0c0,0,0,0,0,0s0,0,0,0c0,0,0,0,0,0s0,0,0,0c0,0,0,0,0,0.1c0,0,0,0,0,0c0,0,0,0,0,0.1
			c0,0,0,0,0,0c0.1,0.2,0.2,0.4,0.4,0.5l0,0l0,0c0,0,0,0,0.1,0s0,0,0.1,0l0,0l0,0c0.2,0.1,0.5,0.1,0.7,0.1c0,0,0,0,0,0s0,0,0,0
			c0,0,0,0,0,0c0,0,0,0,0,0c0,0,0,0,0,0c0,0,0,0,0.1,0c0,0,0,0,0,0c0,0,0,0,0,0c0,0,0,0,0,0c0,0,0,0,0,0l0,0c0,0,0,0,0,0l0,0l0,0
			l0,0c0,0,0.1-0.1,0.1-0.1c0,0,0,0,0,0c0,0,0,0,0,0l0,0c0,0,0,0,0,0c0,0,0,0,0,0s0,0,0,0c0,0,0,0,0,0c0,0,0,0,0,0c0,0,0,0,0,0
			c0,0,0,0,0-0.1c0,0,0,0,0,0c0,0,0,0,0,0c0,0,0,0,0,0l0,0v0c0,0,0,0,0,0v0l0,0c0,0,0,0,0,0s0,0,0,0c0,0,0,0,0-0.1l0,0l0,0l0,0l0,0
			l0,0l0,0c0,0,0,0,0-0.1v0c0,0,0,0,0,0v0l0,0v0c0,0,0,0,0,0s0,0,0,0c0,0,0,0,0,0s0,0,0,0s0,0,0,0c0,0,0-0.1,0-0.1c0,0,0,0,0,0
			c0,0,0-0.1,0-0.1c0,0,0,0,0,0c0,0,0,0,0,0s0,0,0,0c0-0.1,0-0.1-0.1-0.2c0,0,0,0,0-0.1c0,0,0,0,0,0c0,0,0,0,0,0c0,0,0,0,0,0
			c0,0,0,0,0,0c0,0,0,0,0,0c0,0,0,0,0,0l0,0c0,0,0,0,0,0l0,0c0,0,0,0,0,0s0,0,0,0c0,0,0,0,0,0c0,0,0,0,0,0c0,0,0,0,0,0
			c0,0,0,0-0.1,0c0,0,0,0,0,0s0,0,0,0c0,0,0,0-0.1,0c0,0,0,0,0,0c0,0,0,0,0,0c0,0,0,0,0,0c0,0,0,0,0,0c0,0,0,0,0,0l0,0c0,0,0,0,0,0
			l0,0c0,0,0,0,0,0c0,0,0,0-0.1,0c0,0,0,0,0,0c0,0,0,0,0,0c0,0,0,0,0,0c0,0,0,0,0,0c-0.1,0-0.1,0-0.2,0c0,0,0,0,0,0c0,0,0,0,0,0
			c0,0-0.1,0-0.1,0c0,0-0.1,0-0.1,0.1c0,0,0,0,0,0c0,0,0,0-0.1,0l0,0c0,0,0,0,0,0c0,0,0,0,0,0c0,0,0,0,0,0c0,0,0,0,0,0l0,0
			c0,0,0,0,0,0l0,0l0,0l0,0l0,0l0,0l0,0l0,0c0,0,0,0,0,0c0,0,0,0,0,0c0,0,0,0,0,0l0,0c0,0,0,0,0,0c0,0,0,0,0,0c0,0,0,0,0,0l0,0
			C172.6,42.7,172.6,42.7,172.5,42.8C172.6,42.7,172.6,42.7,172.5,42.8C172.5,42.7,172.5,42.7,172.5,42.8
			C172.5,42.8,172.5,42.8,172.5,42.8L172.5,42.8z"/>
	</g>
</g>
</svg>
