<?xml version="1.0" encoding="UTF-8"?><svg id="scuba" xmlns="http://www.w3.org/2000/svg" xmlns:xlink="http://www.w3.org/1999/xlink" viewBox="0 0 2072.73 1166.38"><defs><style>.cls-1{fill:url(#linear-gradient);}.cls-2{fill:url(#back);}.cls-3{fill:#061526;}.cls-4{fill:#ec8b64;}.cls-5{fill:#a47d6b;}.cls-6{fill:#0b2a54;}.cls-7{fill:#3d2824;}.cls-8{fill:#755446;}.cls-9{fill:url(#orange-4);}.cls-10{fill:url(#orange-3);}.cls-11{fill:url(#orange-2);}.cls-12{fill:url(#linear-gradient-3);}.cls-13{fill:url(#linear-gradient-2);}.cls-14{fill:url(#radial-gradient);}.cls-15{fill:url(#orange);}.cls-16{fill:#a4c3cf;opacity:.59;}</style><linearGradient id="back" x1="320.53" y1="173.21" x2="320.53" y2="247.65" gradientTransform="translate(530.81) rotate(-180) scale(1 -1)" gradientUnits="userSpaceOnUse"><stop offset="0" stop-color="#4a88a0"/><stop offset=".24" stop-color="#417e96"/><stop offset=".64" stop-color="#2c667d"/><stop offset=".99" stop-color="#144b61"/></linearGradient><linearGradient id="linear-gradient" x1="276.72" y1="167.71" x2="276.72" y2="264.42" gradientTransform="translate(530.81) rotate(-180) scale(1 -1)" gradientUnits="userSpaceOnUse"><stop offset="0" stop-color="#f3b69d"/><stop offset=".18" stop-color="#f1af93"/><stop offset=".47" stop-color="#ef9c7a"/><stop offset=".84" stop-color="#ea7d51"/><stop offset="1" stop-color="#e86f3d"/></linearGradient><linearGradient id="linear-gradient-2" x1="277.5" y1="215.52" x2="277.5" y2="226.14" gradientTransform="translate(530.81) rotate(-180) scale(1 -1)" gradientUnits="userSpaceOnUse"><stop offset="0" stop-color="#4a88a0"/><stop offset=".24" stop-color="#417e96"/><stop offset=".64" stop-color="#2c667d"/><stop offset=".99" stop-color="#144b61"/></linearGradient><linearGradient id="orange" x1="596.68" y1="-306.57" x2="596.68" y2="-311.87" gradientTransform="translate(648.29 685.63) rotate(-151.05) scale(1 -1)" gradientUnits="userSpaceOnUse"><stop offset="0" stop-color="#f5c4b0"/><stop offset=".26" stop-color="#f4bca6"/><stop offset=".69" stop-color="#f1a98d"/><stop offset=".99" stop-color="#ef9977"/></linearGradient><linearGradient id="linear-gradient-3" x1="595.62" y1="-306.74" x2="590.34" y2="-306.74" gradientTransform="translate(648.29 685.63) rotate(-151.05) scale(1 -1)" gradientUnits="userSpaceOnUse"><stop offset="0" stop-color="#f5c4b0"/><stop offset=".26" stop-color="#f4bca6"/><stop offset=".69" stop-color="#f1a98d"/><stop offset=".99" stop-color="#ef9977"/></linearGradient><linearGradient id="orange-2" x1="594.05" y1="-304.56" x2="594.05" y2="-299.42" xlink:href="#orange"/><linearGradient id="orange-3" x1="597.74" y1="-304.43" x2="600.42" y2="-299.8" xlink:href="#orange"/><linearGradient id="orange-4" x1="598.81" y1="-304.37" x2="602.51" y2="-308.06" xlink:href="#orange"/><radialGradient id="radial-gradient" cx="596.68" cy="-305.25" fx="596.68" fy="-305.25" r="1.13" gradientTransform="translate(648.29 685.63) rotate(-151.05) scale(1 -1)" gradientUnits="userSpaceOnUse"><stop offset="0" stop-color="#f5c4b0"/><stop offset=".26" stop-color="#f4bca6"/><stop offset=".69" stop-color="#f1a98d"/><stop offset=".99" stop-color="#ef9977"/></radialGradient></defs><path class="cls-2" d="M230.52,191.39l-11.19,56.26-29.57-4.92,10.91-57.15c1.55-8.11,9.28-13.5,17.42-12.15h0c8.48,1.4,14.11,9.55,12.43,17.97Z"/><path class="cls-6" d="M213.18,263.75s-7.35,15.88-12.58,29.52c-5.23,13.65-23.11,50.33-39,60.59-17.66,11.4-56.26,28.69-56.26,28.69l6.7,23.84s73.6-8.22,101.96-64.8c27.82-55.49,47.1-80.18,47.1-80.18h-47.92"/><path class="cls-6" d="M283.22,258.54s-13.3,93.47-38.43,112.5c-25.13,19.03-77.19-5.06-77.19-5.06l15.47-23.13s40.28,14.66,44.72,2.17c5.35-15.04,14.13-83.64,14.13-83.64l41.3-2.83Z"/><path class="cls-6" d="M100.43,387.81l6.65,87.14,25.82-2.49s-21.77-88.97-26.61-89.03c-4.84-.06-5.86,4.38-5.86,4.38Z"/><path class="cls-6" d="M176.23,349.72l6.65,87.14,25.83-2.5s-21.77-88.97-26.62-89.03c-4.84-.06-5.86,4.38-5.86,4.38Z"/><path class="cls-5" d="M396.98,208.85l1.38,4.25s1.25,2.43,2.46,7.09c.32,1.21,.41,2.46,.3,3.71-.13,1.51-.38,3.5-.86,4.56-.6,1.3,.7,2.64,1.83,2.01,1.13-.64,2.85-4.18,2.83-8.78-.01-4.6,4.57,1,6.28,3.01,1.71,2.01,7.28,7.98,8.32,7.95,1.51-.05,1.74-1.69-.01-3.65-1.77-1.99-6.59-8.24-5.49-9.09,1.09-.84,9.65,9.51,9.65,9.51,0,0,1.47,2.51,2.78,1.57,2.36-1.7-7.54-12.03-8.51-12.99-.67-.67,.5-1.64,1.18-.88,.7,.78,8.29,10.52,10.72,8.82,1.86-1.31-8.07-8.57-8.52-11.47-.45-2.9,6.97,6.28,8.69,4.95,.64-.49,1.05-.95-3.97-5.6-5.14-4.76-21.17-15.41-21.17-15.41l-7.88,10.72"/><path class="cls-5" d="M160.51,117.6l.23-4.46s-.3-2.72,.23-7.5c.14-1.24,.5-2.45,1.04-3.57,.66-1.36,1.61-3.14,2.43-3.95,1.02-1,.29-2.72-.99-2.53-1.29,.19-4.15,2.88-5.78,7.18-1.63,4.3-3.91-2.56-4.79-5.05-.88-2.48-3.95-10.06-4.93-10.39-1.43-.49-2.23,.95-1.29,3.42,.94,2.49,3.22,10.05,1.88,10.45-1.32,.39-5.61-12.33-5.61-12.33,0,0-.48-2.87-2.04-2.46-2.81,.74,2.75,13.93,3.31,15.17,.39,.86-1.05,1.35-1.41,.4-.38-.98-3.99-12.79-6.86-12.06-2.2,.56,4.47,10.89,3.86,13.76-.61,2.87-4.27-8.35-6.35-7.73-.78,.23-1.32,.51,1.71,6.65,3.1,6.29,14.28,21.95,14.28,21.95l11.19-7.2"/><path class="cls-5" d="M275.29,167.82s84.91-11.81,135.34,35.54l-11.09,12.56s-45.31-32.61-105.09-23.41l-19.16-24.69Z"/><path class="cls-5" d="M241.5,171.91s-52.23-11.97-56.94-17.91c-4.71-5.95-23.91-43.31-23.91-43.31l-18.13,3.9s19.03,50.28,31.78,57.58c20.04,11.48,68.24,25.38,68.24,25.38l-1.04-25.64Z"/><path class="cls-6" d="M375.16,180.6l-9.04,18.98s-28.51-12.03-69.81-7.33c0,0-13.09-18.9-21.02-24.42,0,0,52.69-8.34,99.87,12.77Z"/><path class="cls-1" d="M283.16,259.53l-71.3,4.89s17.11-71.01,18.11-71.47c7.7-3.54,10.57-12.04,17.37-23.08l28.8-2.15c6.3,6.17,13.12,14.78,20.16,24.53l-12.68,33.9-.46,33.38Z"/><g><path class="cls-5" d="M252.43,170.44c.32-2.18-.78-11.29-.78-11.29,0,0-8.36-.68-9.07-8.94-.71-8.26-.66-27.34-.66-27.34l15-7.79,17.01,12.25,3.83,9.08-5.29,21.48-.07,10.85-19.98,1.71Z"/><path class="cls-3" d="M254.79,136.37c.26,.25,1.71-1.04,3.85-1.2,2.15-.2,3.78,.83,4,.53,.11-.13-.17-.6-.89-1.07-.71-.46-1.88-.87-3.22-.76s-2.43,.72-3.04,1.3c-.63,.58-.83,1.09-.7,1.2Z"/><path class="cls-8" d="M251.65,159.14s5.57-.07,10.87-3.97c0,0-2.34,6.13-10.64,5.99l-.23-2.02Z"/><path class="cls-3" d="M243.77,136.53c.23,.22,1.51-.92,3.41-1.07,1.9-.18,3.35,.73,3.55,.47,.1-.12-.15-.53-.79-.95-.63-.41-1.67-.77-2.85-.67s-2.15,.64-2.7,1.15c-.56,.51-.73,.97-.62,1.06Z"/></g><path class="cls-7" d="M258.5,125.12c-14.15,5.1-20.32-1.52-22.99-10.13-2.67-8.61,31.51-5.33,36.68-3.82,5.17,1.51,5.78,7.93,5.78,7.93l4.39-4.14s.77,.35,2.73,2.17c1.96,1.82-7.91,6.16-7.91,6.16h0c2.4,.71,4.27,2.68,4.7,5.14,1.01,5.73-3.01,13.67-4.72,17.43-2.28,5.01-3.72,12.31-3.72,12.31-1.25,2.28-1.6-4.93-1.6-4.93,0,0-1-6.93-.02-9.63,0,0,4.2,1.4,5.21-6.16,.5-3.73-5.13-5.57-6.7-1.06l-3.52,.29s-.29-14.47-8.31-11.58Z"/><path class="cls-6" d="M247.35,169.87s-5.4,13.02-17.32,24.29c0,0-47.93-14.73-57.44-23.2-9.51-8.48-13.13-18.69-13.13-18.69l18.78-8.61s4.92,8.56,9.03,11.48c4.11,2.91,60.08,14.74,60.08,14.74Z"/><path class="cls-8" d="M271.27,140.7s-.03,.17,.15,.39c.17,.21,.54,.45,1.05,.44,1.05-.05,2.07-1.17,2.44-2.54,.19-.69,.19-1.4,.05-2-.11-.6-.47-1.19-.98-1.36-.24-.09-.5-.08-.7,.01-.19,.09-.31,.23-.37,.36-.12,.27-.03,.43,0,.42,.04,0,.03-.15,.16-.32,.13-.17,.44-.34,.79-.16,.36,.15,.6,.58,.69,1.14,.1,.55,.09,1.18-.07,1.8-.33,1.23-1.22,2.24-2.02,2.33-.39,.05-.72-.1-.89-.24-.18-.14-.24-.27-.27-.26Z"/><path class="cls-16" d="M236.33,136.58l-.09,1.53c-.15,2.69,1.49,5.23,4.06,6.22,2.54,.97,5.7,1.24,7.97-1.74,4.41-5.82,5.02-.39,7.52,.54,2.22,.82,8.04,3.71,12.95-.48,1.19-1.02,1.83-2.53,1.78-4.11l-.04-1.42c-.17-5.5-4.89-9.93-10.47-9.82l-14.2,.27c-5.11,.1-9.21,3.99-9.49,9.02Z"/><path class="cls-6" d="M271.56,144.04c-5.81,5.06-12.56,1.74-15.13,.8-2.9-1.06-3.52-7.49-8.77-.52-2.69,3.58-6.38,3.31-9.33,2.2-2.99-1.12-4.86-4.11-4.64-7.29l.13-1.81c.41-5.96,5.26-10.64,11.23-10.85l16.59-.56c6.51-.22,11.94,4.94,12.05,11.46l.03,1.68c.03,1.87-.74,3.67-2.15,4.9Zm-1.53-5.65l-.04-1.37c-.17-5.33-4.74-9.61-10.14-9.51l-13.76,.26c-4.95,.09-8.92,3.87-9.19,8.74l-.08,1.48c-.14,2.6,1.44,5.07,3.94,6.02,2.46,.94,5.53,1.21,7.72-1.69,4.27-5.64,4.86-.38,7.29,.52,2.15,.8,7.78,3.6,12.55-.47,1.15-.99,1.77-2.45,1.72-3.98Z"/><polygon class="cls-6" points="268.9 131.04 276.16 130.12 275.96 134.45 270.34 136.14 268.9 131.04"/><polygon class="cls-13" points="223.2 215.52 286.63 217.23 283.63 226.14 219.99 223.17 223.2 215.52"/><path class="cls-3" d="M260.09,147.19c-.47-.25-2.21,1.99-5.33,2.95-3.12,1.01-5.86,.18-6.1,.65-.12,.21,.44,.75,1.65,1.14,1.19,.39,3.06,.54,5.01-.07s3.38-1.8,4.11-2.8c.76-1,.89-1.76,.67-1.86Z"/><g><g><g><path class="cls-4" d="M274.2,123.93c.22-.33,.62-.66,1.05-.59,.1,.02,.18,.06,.24,.09,.07,.04,.09,.05,.13,.04,.04,0,.08-.03,.13-.06,.09-.05,.19-.11,.33-.1,.15,0,.27,.07,.38,.12,.06,.03,.11,.05,.16,.07,.05,.01,.08,0,.14,0,.12-.02,.29-.04,.55,.1,.24,.13,.32,.29,.38,.41,.01,.02,.02,.04,.03,.06,.05,.08,.08,.1,.16,.14,.04,.02,.1,.06,.16,.1,.14,.11,.24,.26,.28,.42,.01,.06,.01,.12,0,.17,0,.02,0,.06,0,.07,0,.03,.04,.05,.1,.08,.05,.03,.1,.06,.15,.11,.1,.1,.17,.23,.21,.39,.06,.26,.02,.56-.11,.87-.2,.46-.57,.91-1.13,1.37-.26,.21-.54,.41-.86,.61h0c-.32,.2-.67,.39-1.05,.58-.12,.06-.23,.11-.35,.16-.05,.02-.11,.05-.16,.07-.05,.02-.11,.02-.16-.01-.02-.01-.04-.04-.06-.06,0,0,0,0,0-.01,0-.02-.02-.03-.03-.05,0,0,0-.02-.01-.02,0,0-.01-.02-.02-.02,0-.01-.02-.02-.03-.03,0,0-.01-.02-.02-.02-.01-.01-.02-.02-.03-.04,0,0-.01-.01-.02-.02h0s-.02-.02-.03-.03c0,0,0,0,0,0,0,0-.02-.02-.03-.03-.01-.01-.03-.02-.04-.03-.01,0-.02-.02-.03-.03,0,0-.01,0-.02-.01-.01,0-.02-.02-.04-.03-.02-.01-.04-.03-.06-.04-.01,0-.03-.02-.04-.02s-.03-.01-.04-.02c-.02-.01-.04-.02-.06-.03-.01,0-.03-.01-.04-.02,0,0-.01,0-.02,0-.01,0-.03,0-.04-.01-.02,0-.03-.01-.05-.01-.01,0-.02,0-.04,0,0,0,0,0,0,0-.01,0-.03,0-.04,0h0s-.02,0-.03,0c-.03,0-.05,0-.08-.01,0,0-.01,0-.02,0-.02,0-.04,0-.05,0,0,0-.02,0-.03,0,0,0-.02,0-.03,0-.01,0-.03,0-.04,0-.03,0-.06,0-.08-.02,0,0,0,0,0,0-.04-.02-.08-.07-.09-.12,0-.06-.02-.11-.02-.17-.02-.13-.03-.25-.05-.38-.05-.43-.07-.82-.07-1.2h0s0,0,0,0c0-.37,.02-.72,.06-1.05,.09-.72,.28-1.27,.56-1.69Zm-.23,1.73c-.08,.63-.08,1.34,0,2.17,.01,.13,.03,.27,.05,.4,.03,0,.06,0,.09,0,.01,0,.02,0,.03,0,.01,0,.03,0,.04,0,.01,0,.03,0,.04,0,.01,0,.03,0,.04,0,.05,.01,.1,.03,.16,.04h0s.01,0,.02,0c0,0,0,0,.01,0,.01,0,.03,0,.04,.02,.01,0,.02,0,.03,.01,0,0,.01,0,.02,.01,0,0,.02,0,.03,.01,.02,.01,.04,.02,.07,.03s.04,.02,.06,.04c0,0,.02,.01,.03,.02,0,0,0,0,0,0,0,0,.01,0,.02,.01,0,0,.02,.01,.03,.02,.01,0,.02,.02,.03,.02,0,0,0,0,.01,.01,0,0,0,0,.01,.01,0,0,0,0,0,0,.03,.02,.06,.05,.09,.08,0,0,.02,.02,.03,.03,0,0,.02,.02,.03,.03,0,.01,.02,.02,.03,.03,0,.01,.02,.02,.03,.03,0,0,.01,.02,.02,.02,.02,.02,.04,.05,.06,.07,.12-.05,.24-.11,.36-.17,.75-.36,1.35-.74,1.84-1.15,.52-.43,.85-.83,1.04-1.25,.06-.14,.15-.4,.09-.65-.02-.1-.06-.17-.12-.23-.02-.02-.05-.04-.09-.06-.08-.05-.2-.12-.25-.26-.02-.07-.02-.14-.02-.2,0-.03,0-.06,0-.07-.03-.11-.1-.19-.15-.23-.04-.03-.08-.05-.12-.08-.09-.05-.19-.11-.28-.27-.02-.03-.03-.05-.04-.08-.05-.1-.09-.18-.24-.27-.17-.09-.24-.08-.34-.07-.08,.01-.17,.03-.3-.01-.08-.02-.15-.06-.21-.09-.09-.04-.16-.08-.24-.08-.04,0-.09,.03-.15,.06-.06,.04-.13,.08-.22,.09-.16,.04-.28-.03-.37-.07-.05-.03-.08-.05-.13-.05-.28-.04-.56,.22-.72,.45-.25,.38-.42,.88-.51,1.54Z"/><path class="cls-15" d="M273.97,125.66c-.08,.63-.08,1.34,0,2.17,.01,.13,.03,.27,.05,.4,.03,0,.06,0,.09,0,.01,0,.02,0,.03,0,.01,0,.03,0,.04,0,.01,0,.03,0,.04,0,.01,0,.03,0,.04,0,.05,.01,.1,.03,.16,.04h0s.01,0,.02,0l.36-1.68c.02-.09,.11-.15,.2-.13,.09,.02,.15,.11,.13,.2l-.29,1.35,.99-.96c.07-.06,.17-.06,.24,0s.06,.17,0,.24l-1.24,1.2s0,0,.01,.01c0,0,0,0,0,0,.03,.02,.06,.05,.09,.08,.01,0,.02,.02,.03,.03,0,0,.02,.02,.03,.03,0,0,.02,.02,.03,.03,0,.01,.02,.02,.03,.03,0,0,.01,.02,.02,.02,.02,.02,.04,.05,.06,.07,.12-.05,.24-.11,.36-.17,.75-.36,1.35-.74,1.84-1.15,.52-.43,.85-.83,1.04-1.25,.06-.14,.15-.4,.09-.65-.02-.1-.06-.17-.12-.23-.02-.02-.05-.04-.09-.06-.08-.05-.2-.12-.25-.26-.02-.07-.02-.14-.02-.2,0-.03,0-.06,0-.07-.03-.11-.1-.19-.15-.23-.04-.03-.08-.05-.12-.08-.09-.05-.19-.11-.28-.27-.02-.03-.03-.05-.04-.08-.05-.1-.09-.18-.24-.27-.17-.09-.24-.08-.34-.07-.08,.01-.17,.03-.3-.01-.08-.02-.15-.06-.21-.09-.09-.04-.16-.08-.24-.08-.04,0-.09,.03-.15,.06-.06,.04-.13,.08-.22,.09-.16,.04-.28-.03-.37-.07-.05-.03-.08-.05-.13-.05-.28-.04-.56,.22-.72,.45-.25,.38-.42,.88-.51,1.54Z"/></g><g><path class="cls-4" d="M275.08,129.08c.05-.03,.1-.05,.16-.08,.11-.06,.23-.11,.35-.16,.39-.18,.76-.32,1.12-.44h0c.35-.12,.69-.2,1.02-.26,.71-.13,1.29-.13,1.78,.01,.12,.04,.24,.09,.35,.14,.31,.17,.49,.4,.54,.67,.02,.1,0,.19-.01,.26-.02,.08-.02,.1,0,.14,.02,.03,.06,.07,.1,.1,.07,.07,.16,.15,.2,.28,.04,.15,.02,.28,0,.4,0,.06-.02,.12-.02,.17,0,.05,.02,.08,.05,.14,.06,.11,.13,.26,.07,.56-.05,.27-.18,.4-.27,.49-.02,.02-.03,.03-.05,.05-.06,.07-.07,.11-.09,.19,0,.05-.02,.11-.05,.18-.06,.17-.17,.31-.31,.4-.05,.03-.11,.05-.15,.06-.02,0-.06,.02-.07,.02-.02,.02-.03,.05-.05,.12-.01,.05-.03,.12-.06,.18-.06,.13-.16,.24-.3,.32-.22,.14-.53,.2-.86,.16-.41-.04-.85-.19-1.32-.45-.11-.06-.22-.12-.33-.2-.28-.18-.56-.39-.85-.63h0c-.29-.24-.57-.51-.87-.82-.09-.09-.18-.19-.26-.28-.04-.04-.08-.09-.12-.13-.04-.04-.05-.1-.04-.15,0-.02,.02-.05,.03-.07,.01-.01,.02-.02,.03-.03,0,0,.01-.01,.02-.02,0,0,0,0,0,0,0,0,.01-.02,.02-.02,0,0,.01-.02,.02-.03s.01-.02,.02-.03c0,0,.01-.02,.02-.03,0-.01,.01-.02,.02-.03,0,0,.01-.02,.02-.03,.01-.02,.02-.04,.03-.06,0,0,0-.02,.01-.03,0,0,0-.02,.01-.03,0,0,0-.02,.01-.03,0,0,0,0,0,0,0,0,0-.02,0-.02,0,0,0,0,0-.01,0,0,0-.02,0-.02,0,0,0,0,0,0,0,0,0-.02,0-.03,0-.01,0-.02,.01-.04,0-.02,0-.03,.01-.05,0,0,0,0,0,0,0,0,0,0,0,0,0,0,0,0,0,0,0,0,0,0,0,0,0,0,0,0,0,0,0-.02,0-.04,0-.07,0,0,0-.02,0-.02,0,0,0-.01,0-.02,0,0,0-.02,0-.02,0,0,0,0,0,0,0,0,0-.02,0-.02,0,0,0-.02,0-.03,0-.01,0-.02,0-.04,0-.01,0-.02,0-.03,0-.01,0-.02,0-.03,0-.01,0-.02,0-.03,0-.03,0-.05-.01-.08,0,0,0-.02,0-.03,0-.03-.01-.05-.02-.08,0,0,0-.02,0-.03,0,0,0-.02,0-.03,0-.01,0-.03-.01-.04-.01-.03-.01-.06,0-.08,0-.05,.04-.1,.09-.13Zm1.97,3.18c.11,.07,.21,.13,.32,.19,.43,.24,.82,.38,1.19,.41,.15,.02,.43,.02,.65-.11,.08-.05,.14-.11,.18-.18,.01-.03,.02-.06,.03-.1,.02-.1,.05-.23,.17-.32,.06-.04,.13-.06,.18-.08,.03,0,.06-.02,.07-.02,.1-.06,.15-.15,.17-.22,.02-.05,.03-.09,.04-.14,.02-.1,.04-.21,.17-.35,.02-.02,.04-.04,.06-.06,.08-.08,.14-.14,.18-.31,.04-.19,0-.26-.04-.34-.04-.07-.08-.16-.08-.28,0-.08,.01-.16,.02-.23,.01-.1,.03-.18,0-.25-.01-.04-.06-.08-.11-.13-.05-.05-.11-.1-.16-.18-.09-.14-.06-.28-.04-.37,.01-.05,.02-.1,.01-.14-.04-.21-.22-.35-.37-.43-.09-.05-.18-.09-.28-.12-.44-.13-.97-.13-1.62,0-.63,.12-1.3,.34-2.06,.68-.12,.05-.24,.11-.36,.17,.01,.04,.02,.08,.03,.12,0,.04,.01,.08,.02,.11,0,.06,0,.13,0,.19,0,0,0,.02,0,.03,0,.01,0,.02,0,.04,0,.01,0,.02,0,.04,0,.01,0,.02,0,.03,0,.01,0,.02,0,.03,0,0,0,0,0,0,0,0,0,0,0,0,0,.01,0,.02,0,.03,0,.01,0,.02,0,.04,0,.01,0,.02,0,.03,0,0,0,.02,0,.03,0,.02,0,.04-.01,.05,0,0,0,.02,0,.03h0s0,.02-.01,.03c0,0,0,.02,0,.02,0,0,0,0,0,.01,0,0,0,.02,0,.03,0,0,0,.01,0,.02,0,0,0,.02-.01,.03,0,0,0,.02-.01,.03,0,.01-.01,.02-.02,.03,0,0,0,0,0,0-.01,.02-.02,.04-.03,.06,0,.01-.01,.02-.02,.04,0,0,0,0,0,.01h0s0,.02-.01,.03c0,0,0,0,0,.01-.02,.03-.04,.05-.06,.08,.09,.1,.18,.2,.27,.29,.58,.6,1.12,1.05,1.66,1.4Z"/><path class="cls-12" d="M277.31,129.72c0,.09-.06,.18-.15,.18l-1.37,.14,1.22,.64c.08,.04,.11,.15,.07,.23-.04,.08-.15,.11-.23,.07l-1.52-.8s0,0,0,.01c0,0,0,.02,0,.03,0,0,0,.01,0,.02,0,0,0,.02-.01,.03,0,0,0,.02-.01,.03,0,.01-.01,.02-.02,.03,0,0,0,0,0,0-.01,.02-.02,.04-.03,.06,0,.01-.01,.02-.02,.04,0,0,0,.01,0,.01h0s0,.02-.01,.03c0,0,0,0,0,.01-.02,.03-.04,.05-.06,.08,.09,.1,.18,.2,.27,.29,.58,.6,1.12,1.05,1.66,1.4,.11,.07,.21,.13,.32,.19,.43,.24,.82,.38,1.19,.41,.15,.02,.43,.02,.65-.11,.08-.05,.14-.11,.18-.18,.01-.03,.02-.06,.03-.1,.02-.1,.05-.23,.17-.32,.06-.04,.13-.06,.18-.08,.03,0,.06-.02,.07-.02,.1-.06,.15-.15,.17-.22,.02-.05,.03-.09,.04-.14,.02-.1,.04-.21,.17-.35,.02-.02,.04-.04,.06-.06,.08-.08,.14-.14,.18-.31,.04-.19,0-.26-.04-.34-.04-.07-.08-.16-.08-.28,0-.08,.01-.16,.02-.23,.01-.1,.03-.18,0-.25-.01-.04-.06-.08-.11-.13-.05-.05-.11-.1-.16-.18-.09-.14-.06-.28-.04-.37,.01-.05,.02-.1,.01-.14-.04-.21-.22-.35-.37-.43-.09-.05-.18-.09-.28-.12-.44-.13-.97-.13-1.62,0-.63,.12-1.3,.34-2.06,.68-.12,.05-.24,.11-.36,.17,.04,.14,.05,.29,.05,.43l1.71-.18c.09,0,.18,.06,.18,.15Z"/></g><g><path class="cls-4" d="M273.17,130.93c.03-.05,.06-.1,.09-.15,.03-.05,.08-.08,.13-.08,.03,0,.05,0,.08,.01h0s0,0,0,0c.23,.11,.49,.13,.73,.07,.02,0,.03,0,.05-.01s.03-.01,.05-.02c.01,0,.02,0,.04-.01,.01,0,.02,0,.04-.01,.01,0,.02-.01,.04-.02,.02-.01,.05-.02,.07-.04,.01,0,.02-.01,.03-.02,0,0,.02-.01,.03-.02,.01,0,.03-.02,.04-.03,.01,0,.02-.01,.03-.02,0,0,0,0,0,0,.01,0,.02-.02,.03-.02,0,0,0,0,0,0,0,0,0,0,0,0s0,0,0,0c.02-.02,.05-.03,.08-.03,.05,0,.11,0,.15,.05,.04,.04,.08,.08,.12,.12h0c.09,.09,.18,.19,.26,.28,.29,.32,.54,.63,.76,.93h0c.22,.3,.41,.6,.57,.89,.35,.63,.52,1.19,.54,1.7,.01,.4-.11,.89-.5,1.1-.09,.05-.18,.06-.25,.07-.08,.01-.1,.02-.13,.04-.03,.03-.05,.08-.07,.12-.04,.09-.09,.2-.2,.28-.13,.09-.26,.11-.38,.13-.06,0-.12,.02-.17,.04-.04,.02-.07,.04-.12,.09-.09,.09-.21,.2-.51,.24-.27,.03-.43-.05-.55-.11-.02-.01-.04-.02-.06-.03-.08-.04-.12-.03-.21-.02-.05,0-.11,.01-.19,.01-.13,0-.25-.03-.35-.09-.04-.02-.08-.05-.12-.08-.05-.04-.08-.09-.1-.13-.01-.02-.03-.05-.04-.06,0,0,0,0,0,0-.03-.01-.07,0-.13,0-.06,0-.12,.01-.19,0-.09-.01-.17-.04-.25-.09-.05-.03-.1-.06-.15-.1-.2-.17-.35-.44-.42-.77-.11-.5-.07-1.08,.11-1.78,.08-.32,.19-.65,.33-1,.14-.35,.31-.71,.51-1.09,.06-.11,.12-.23,.19-.34Zm.11,.49c-.39,.73-.66,1.39-.82,2.01-.17,.65-.2,1.18-.11,1.62,.05,.25,.16,.46,.31,.58,.03,.03,.06,.05,.09,.07,.05,.02,.09,.04,.14,.05,.03,0,.07,0,.11,0,.09,0,.21-.02,.32,.04,.01,0,.02,.01,.03,.02,.06,.04,.1,.1,.13,.15,.01,.02,.03,.05,.04,.06,.07,.06,.16,.09,.26,.09,.06,0,.1,0,.14,0,.11-.01,.22-.02,.39,.05,.03,.01,.05,.03,.08,.04,.1,.05,.18,.09,.35,.07,.19-.02,.24-.08,.31-.15,.06-.06,.13-.12,.25-.16,.08-.03,.15-.04,.22-.05,.1-.02,.18-.03,.24-.07,.04-.02,.06-.08,.09-.14,.03-.07,.06-.14,.12-.21,.11-.13,.24-.14,.34-.16,.05,0,.1-.01,.13-.03,.25-.13,.33-.51,.32-.79-.01-.45-.18-.96-.5-1.55-.31-.56-.72-1.13-1.28-1.75-.09-.1-.18-.2-.27-.29,0,0,0,0-.01,0-.01,0-.03,.02-.04,.03-.01,0-.03,.02-.04,.02,0,0-.02,0-.03,.01,0,0,0,0,0,0,0,0-.02,0-.02,.01-.01,0-.02,.01-.03,.02-.01,0-.02,.01-.04,.02,0,0,0,0,0,0-.01,0-.02,0-.04,.01-.01,0-.03,0-.04,.01-.03,0-.05,.02-.08,.03,0,0-.02,0-.02,0-.14,.04-.29,.06-.44,.05-.14,0-.29-.03-.43-.08h0c-.07,.12-.13,.23-.19,.35Z"/><path class="cls-11" d="M273.28,131.42c-.39,.73-.66,1.39-.82,2.01-.17,.65-.2,1.18-.11,1.62,.05,.25,.16,.46,.31,.58,.03,.03,.06,.05,.09,.07,.05,.02,.09,.04,.14,.05,.03,0,.07,0,.11,0,.09,0,.21-.02,.32,.04,.01,0,.02,.01,.03,.02,.06,.04,.1,.1,.13,.15,.01,.02,.03,.05,.04,.06,.07,.06,.16,.09,.26,.09,.06,0,.1,0,.14,0,.11-.01,.22-.02,.39,.05,.03,.01,.05,.03,.08,.04,.1,.05,.18,.09,.35,.07,.19-.02,.24-.08,.31-.15,.06-.06,.13-.12,.25-.16,.08-.03,.15-.04,.22-.05,.1-.02,.18-.03,.24-.07,.04-.02,.06-.08,.09-.14,.03-.07,.06-.14,.12-.21,.11-.13,.24-.14,.34-.16,.05,0,.1-.01,.13-.03,.25-.13,.33-.51,.32-.79-.01-.45-.18-.96-.5-1.55-.31-.56-.72-1.13-1.28-1.75-.09-.1-.18-.2-.27-.29,0,0,0,0-.01,0-.01,0-.03,.02-.04,.03-.01,0-.03,.02-.04,.02,0,0-.02,0-.03,.01,0,0,0,0,0,0,0,0-.02,0-.02,.01-.01,0-.02,.01-.03,.02-.01,0-.02,.01-.04,.02,0,0,0,0,0,0-.01,0-.02,0-.04,.01-.01,0-.03,0-.04,.01-.03,0-.05,.02-.08,.03,0,0-.01,0-.02,0l.7,1.58c.04,.09,0,.18-.09,.22-.09,.04-.18,0-.22-.09l-.56-1.26-.23,1.36c-.02,.09-.1,.15-.19,.14-.02,0-.04,0-.05-.02-.06-.03-.1-.1-.08-.18l.29-1.7c-.14,0-.29-.03-.43-.08-.07,.11-.13,.23-.19,.35Z"/></g><g><path class="cls-4" d="M268.19,129.55c.44-.26,1-.4,1.72-.45,.33-.02,.68-.02,1.06,0h0c.37,.03,.77,.08,1.19,.15,.13,.02,.25,.05,.38,.07,.06,.01,.11,.02,.17,.04,.06,.01,.1,.05,.12,.1,.01,.03,.02,.05,.01,.08,0,0,0,0,0,0,0,0,0,0,0,0,0,0,0,0,0,.01,0,.01,0,.03,0,.04,0,.01,0,.02,0,.04,0,0,0,.02,0,.03,0,0,0,.02,0,.03,0,0,0,.02,0,.02,0,0,0,.02,0,.03,0,.01,0,.02,0,.03,0,.01,0,.02,0,.03,0,0,0,.01,0,.02,0,0,0,.02,0,.03,0,.01,0,.02,0,.04,0,0,0,.02,0,.03,0,.01,0,.02,0,.03,0,.02,0,.03,.01,.05,0,.01,0,.02,.01,.03,0,.02,.01,.03,.02,.05,0,0,0,.02,.01,.03,.09,.21,.23,.39,.42,.51,0,0,0,0,0,0h0s.04,.04,.05,.06c.02,.05,.03,.11,0,.16-.03,.05-.05,.1-.08,.15-.06,.11-.12,.22-.19,.34-.21,.37-.43,.71-.65,1.01-.22,.3-.44,.57-.67,.81-.5,.52-.97,.86-1.45,1.03-.38,.14-.77,.13-1.03-.01-.06-.03-.12-.08-.17-.12-.07-.07-.11-.15-.14-.22-.03-.07-.05-.09-.08-.11-.04-.02-.09-.02-.14-.03-.08-.01-.18-.02-.27-.07-.02-.01-.04-.02-.06-.04-.12-.09-.18-.21-.24-.32-.03-.05-.05-.11-.09-.15-.02-.03-.05-.05-.08-.06-.01,0-.03-.01-.04-.02-.02,0-.03-.02-.05-.03-.11-.06-.23-.15-.34-.38-.12-.25-.09-.42-.07-.55,0-.02,0-.05,0-.07,0-.09,0-.13-.04-.21-.02-.05-.05-.1-.07-.18-.05-.17-.05-.35,.02-.5,.02-.06,.06-.1,.09-.14,.01-.02,.04-.05,.04-.06,0-.03,0-.06-.03-.13-.02-.05-.05-.11-.06-.18-.02-.14,0-.29,.06-.44,.1-.24,.31-.47,.6-.64Zm-.29,.76c-.04,.09-.05,.18-.04,.25,0,.03,.02,.06,.04,.1,.04,.09,.09,.21,.05,.36-.02,.07-.06,.13-.1,.17-.02,.02-.04,.05-.04,.06-.04,.1-.03,.21,0,.28,.02,.05,.03,.09,.05,.13,.04,.1,.09,.2,.07,.38,0,.03,0,.06-.01,.09-.02,.11-.03,.2,.04,.36,.04,.08,.07,.13,.1,.16,.03,.03,.06,.05,.09,.07,.01,0,.03,.01,.04,.02,.02,0,.03,.02,.05,.02,.05,.03,.12,.07,.19,.16,.05,.07,.08,.13,.12,.2,.04,.09,.08,.16,.14,.21,.03,.03,.09,.03,.16,.04,.07,0,.15,.02,.23,.05,.01,0,.03,.01,.04,.02,.12,.07,.18,.18,.21,.26,.02,.05,.04,.09,.07,.12,.03,.03,.06,.05,.09,.07,.21,.12,.53,.07,.75,0,.43-.15,.86-.46,1.32-.95,.44-.46,.85-1.04,1.27-1.76,.07-.12,.13-.23,.19-.35h0c-.11-.09-.21-.2-.29-.32-.08-.12-.15-.26-.19-.4-.01-.03-.02-.07-.03-.1,0-.01,0-.03,0-.04,0-.01,0-.03,0-.04,0,0,0,0,0,0,0-.01,0-.03,0-.04,0-.01,0-.02,0-.04,0,0,0-.02,0-.03,0,0,0,0,0,0,0,0,0-.02,0-.03,0-.01,0-.02,0-.04,0-.02,0-.05,0-.07,0,0,0,0,0,0-.13-.03-.26-.05-.39-.08-.82-.14-1.53-.19-2.16-.15-.67,.04-1.18,.17-1.57,.4-.13,.07-.36,.24-.46,.47Z"/><path class="cls-10" d="M267.9,130.31c-.04,.09-.05,.18-.04,.25,0,.03,.02,.06,.04,.1,.04,.09,.09,.21,.05,.36-.02,.07-.06,.13-.1,.17-.02,.02-.04,.05-.04,.06-.04,.1-.03,.21,0,.28,.02,.05,.03,.09,.05,.13,.04,.1,.09,.2,.07,.38,0,.03,0,.06-.01,.09-.02,.11-.03,.2,.04,.36,.04,.08,.07,.13,.1,.16,.03,.03,.06,.05,.09,.07,.01,0,.03,.01,.04,.02,.02,0,.03,.02,.05,.02,.05,.03,.12,.07,.19,.16,.05,.07,.08,.13,.12,.2,.04,.09,.08,.16,.14,.21,.03,.03,.09,.03,.16,.04,.07,0,.15,.02,.23,.05,.01,0,.03,.01,.04,.02,.12,.07,.18,.18,.21,.26,.02,.05,.04,.09,.07,.12,.03,.03,.06,.05,.09,.07,.21,.12,.53,.07,.75,0,.43-.15,.86-.46,1.32-.95,.44-.46,.85-1.04,1.27-1.76,.07-.12,.13-.23,.19-.35-.12-.09-.21-.2-.29-.32l-1.28,1.15c-.05,.05-.13,.06-.19,.02-.02,0-.03-.02-.04-.04-.06-.07-.06-.18,.01-.24l1.02-.92-1.36,.2c-.09,.01-.18-.05-.19-.14-.01-.09,.05-.18,.14-.19l1.71-.25s-.02-.07-.03-.1c0-.01,0-.03,0-.04,0-.01,0-.03,0-.04,0,0,0,0,0,0,0-.01,0-.03,0-.04,0-.01,0-.02,0-.04,0,0,0-.02,0-.03,0,0,0,0,0,0,0,0,0-.02,0-.03,0-.01,0-.02,0-.04,0-.02,0-.05,0-.07,0,0,0,0,0,0-.13-.03-.26-.05-.39-.08-.82-.14-1.53-.19-2.16-.15-.67,.04-1.18,.17-1.57,.4-.13,.07-.36,.24-.46,.47Z"/></g><g><path class="cls-4" d="M268.77,125.36s.08-.08,.12-.13c.03-.04,.03-.07,.04-.14,.02-.12,.05-.29,.27-.5,.2-.19,.38-.22,.5-.24,.02,0,.05,0,.07-.01,.09-.02,.12-.05,.18-.1,.04-.03,.08-.08,.15-.12,.15-.1,.32-.15,.49-.14,.06,0,.11,.03,.16,.04,.02,0,.06,.02,.07,.02,.03,0,.06-.02,.11-.07,.04-.04,.09-.08,.15-.11,.13-.07,.27-.09,.43-.08,.16,.01,.32,.06,.48,.15,.11,.06,.21,.13,.31,.22,.38,.34,.69,.83,.96,1.5,.12,.31,.23,.64,.32,1h0s0,0,0,0c.09,.36,.16,.75,.22,1.18,.02,.13,.03,.26,.05,.38,0,.06,.01,.12,.02,.17,0,.06-.02,.11-.06,.14-.02,.02-.05,.03-.08,.04,0,0,0,0-.01,0,0,0-.02,0-.03,0,0,0-.02,0-.03,0-.04,.01-.08,.02-.12,.04-.05,.02-.1,.04-.15,.07-.01,0-.02,.01-.04,.02-.02,.01-.04,.02-.06,.04h0s0,0,0,.01c0,0-.01,0-.02,.01,0,0,0,0-.01,.01,0,0-.01,.01-.02,.02,0,0,0,0,0,0-.01,.01-.03,.02-.04,.04,0,0,0,0,0,0,0,0,0,0,0,0,0,0,0,0,0,0,0,0,0,0,0,0,0,0,0,0,0,0h0s0,0,0,0c0,0-.02,.02-.02,.02,0,0-.01,.01-.02,.02,0,0-.01,.01-.02,.02,0,0,0,.01-.01,.01,0,0,0,0,0,0,0,0-.01,.01-.02,.02,0,0,0,.01-.01,.02,0,0-.01,.01-.02,.02,0,0,0,0,0,0,0,0-.01,.01-.02,.02,0,0-.01,.02-.02,.03,0,0-.01,.02-.02,.03-.01,.02-.02,.04-.03,.05,0,.01-.01,.02-.02,.03,0,.01-.01,.02-.02,.03,0,0,0,.02-.01,.03,0,.01,0,.02-.01,.03,0,0,0,0,0,0,0,0,0,.02,0,.02,0,0,0,.01,0,.02,0,0,0,0,0,.01,0,0,0,.02,0,.03,0,0,0,.02,0,.03,0,0,0,.01,0,.02,0,.03-.02,.05-.04,.07-.04,.04-.09,.06-.15,.05-.06,0-.11-.02-.17-.03h0c-.13-.02-.25-.05-.38-.07-.42-.09-.8-.19-1.16-.3h0c-.36-.11-.68-.24-.98-.39-.12-.06-.24-.12-.35-.18-.47-.26-.83-.55-1.08-.88-.24-.31-.44-.79-.24-1.18,.05-.09,.11-.15,.16-.2,.06-.06,.08-.07,.08-.11,0-.04,0-.09-.02-.14-.02-.1-.04-.22,0-.34,.05-.14,.15-.24,.23-.33Zm.09,.44s0,.1,.01,.17c.01,.07,.03,.15,.02,.24-.02,.17-.11,.26-.18,.33-.04,.04-.07,.07-.09,.11-.13,.25,.03,.6,.2,.83,.11,.15,.25,.28,.41,.41s.35,.26,.57,.38c.1,.06,.21,.11,.33,.17,.58,.27,1.25,.49,2.06,.66,.13,.03,.26,.05,.39,.08,0,0,0,0,0,0,0,0,0,0,0,0,.01-.03,.02-.05,.04-.08,0,0,0,0,0-.01,0,0,0-.02,.01-.03v-.02s.02-.02,.03-.04c.01-.02,.02-.04,.04-.06,0,0,0,0,0,0,0-.01,.01-.02,.02-.03,0,0,.01-.02,.02-.02,0,0,.01-.02,.02-.03,0,0,0-.01,.01-.02,0,0,.01-.01,.02-.02,0,0,0,0,0,0,0,0,.01-.01,.02-.02,0,0,.01-.02,.02-.03h0s.01-.02,.02-.02c.01-.01,.02-.03,.04-.04,0,0,.01-.01,.02-.02,0,0,.02-.02,.02-.02,0,0,.01-.01,.02-.02,0,0,.01-.01,.02-.02,0,0,.01-.01,.02-.02,0,0,.02-.01,.02-.02,0,0,0,0,0,0,0,0,0,0,.01-.01,0,0,0,0,.01-.01,0,0,.02-.01,.03-.02,0,0,.02-.01,.03-.02,0,0,.01-.01,.02-.02,.02-.01,.04-.03,.07-.04,.01,0,.02-.01,.03-.02,.02-.01,.04-.02,.06-.03,0,0,0,0,0,0,.02,0,.04-.02,.06-.03,.02,0,.04-.02,.06-.02,.01,0,.02,0,.04-.01,.02,0,.04-.02,.06-.02,0,0,.02,0,.02,0-.01-.13-.03-.26-.05-.4-.12-.82-.29-1.51-.52-2.11-.25-.62-.53-1.07-.87-1.37-.08-.07-.16-.13-.25-.18-.12-.07-.24-.1-.35-.11-.1,0-.18,0-.25,.04-.03,.01-.05,.04-.08,.07-.07,.06-.17,.15-.33,.16-.07,0-.14-.02-.19-.04-.03,0-.06-.02-.07-.02-.11,0-.21,.04-.26,.08-.05,.03-.08,.06-.11,.09-.08,.07-.16,.15-.34,.18-.03,0-.06,.01-.09,.02-.11,.02-.2,.03-.33,.15-.14,.13-.15,.21-.17,.3-.01,.08-.03,.17-.1,.28-.05,.07-.1,.12-.15,.17-.07,.07-.13,.13-.15,.2Z"/><path class="cls-9" d="M268.85,125.8s0,.1,.01,.17c.01,.07,.03,.15,.02,.24-.02,.17-.11,.26-.18,.33-.04,.04-.07,.07-.09,.11-.13,.25,.03,.6,.2,.83,.11,.15,.25,.28,.41,.41s.35,.26,.57,.38c.1,.06,.21,.11,.33,.17,.58,.27,1.25,.49,2.06,.66,.13,.03,.26,.05,.39,.08,0,0,0,0,0,0,0,0,0,0,0,0,.01-.03,.02-.05,.04-.08,0,0,0,0,0-.01,0,0,0-.02,.01-.03v-.02s.02-.02,.03-.04c.01-.02,.02-.04,.04-.06,0,0,0,0,0,0,0-.01,.01-.02,.02-.03,0,0,.01-.02,.02-.02,0,0,.01-.02,.02-.03,0,0,0-.01,.01-.02,0,0,.01-.01,.02-.02,0,0,0,0,0,0l-1.49-.86c-.08-.05-.11-.15-.06-.23,.05-.08,.15-.11,.23-.06l1.19,.69-.61-1.23c-.04-.08,0-.18,.08-.23,.08-.04,.18,0,.23,.08l.76,1.55c.12-.08,.25-.15,.39-.19-.01-.13-.03-.26-.05-.4-.12-.82-.29-1.51-.52-2.11-.25-.62-.53-1.07-.87-1.37-.08-.07-.16-.13-.25-.18-.12-.07-.24-.1-.35-.11-.1,0-.18,0-.25,.04-.03,.01-.05,.04-.08,.07-.07,.06-.17,.15-.33,.16-.07,0-.14-.02-.19-.04-.03,0-.06-.02-.07-.02-.11,0-.21,.04-.26,.08-.05,.03-.08,.06-.11,.09-.08,.07-.16,.15-.34,.18-.03,0-.06,.01-.09,.02-.11,.02-.2,.03-.33,.15-.14,.13-.15,.21-.17,.3-.01,.08-.03,.17-.1,.28-.05,.07-.1,.12-.15,.17-.07,.07-.13,.13-.15,.2Z"/></g></g><path class="cls-4" d="M274.81,126.63l-.36,1.68-.04,.2c-.02,.07,.02,.15,.08,.18s.15,.03,.2-.03l.15-.15,1.24-1.2c.07-.06,.07-.17,0-.24s-.17-.07-.24,0l-.99,.96,.29-1.35c.02-.09-.04-.18-.13-.2-.09-.02-.18,.04-.2,.13Z"/><path class="cls-4" d="M275.06,129.89s0,0,0,0c0,0,0,0,0,0,0,0,0,0,0,0,0,0,0,0,0,0,0,0,0,0,0,0,0,.07,.03,.13,.09,.17h0s.19,.1,.19,.1l1.52,.8c.08,.04,.18,.01,.23-.07,.04-.08,.01-.18-.07-.23l-1.22-.64,1.37-.14c.09,0,.16-.09,.15-.18,0-.09-.09-.16-.18-.15l-1.71,.18h0s-.21,.02-.21,.02c-.07,0-.13,.06-.15,.12Z"/><path class="cls-4" d="M273.94,130.94l-.04,.2h0s-.29,1.7-.29,1.7c-.01,.07,.02,.14,.08,.18,.02,0,.03,.02,.05,.02,.09,.02,.18-.05,.19-.14l.23-1.36,.56,1.26c.04,.08,.14,.12,.22,.09,.08-.04,.12-.14,.09-.22l-.7-1.58h0s-.08-.19-.08-.19c-.03-.07-.1-.11-.17-.1-.07,0-.13,.07-.15,.14Z"/><path class="cls-4" d="M270.7,130.54c.01,.09,.1,.16,.19,.14l1.36-.2-1.02,.92c-.07,.06-.07,.17-.01,.24,.01,.01,.03,.03,.04,.04,.06,.03,.14,.03,.19-.02l1.28-1.15h0s.15-.14,.15-.14c.06-.05,.07-.13,.04-.2-.03-.07-.1-.11-.18-.1l-.21,.03h0s-1.71,.25-1.71,.25c-.09,.01-.16,.1-.14,.19Z"/><path class="cls-4" d="M271.25,127.69c-.05,.08-.02,.18,.06,.23l1.49,.86,.18,.11h0c.06,.03,.13,.03,.19-.01,0,0,0,0,0,0,0,0,0,0,0,0,0,0,0,0,0,0,0,0,0,0,0,0,.05-.05,.06-.13,.03-.19l-.09-.19h0s-.76-1.55-.76-1.55c-.04-.08-.14-.12-.23-.08-.08,.04-.12,.14-.08,.23l.61,1.23-1.19-.69c-.08-.05-.18-.02-.23,.06Z"/><g><path class="cls-4" d="M272.7,128.92s0,0,0,0c0-.01,.01-.02,.02-.03,0,0,.01-.02,.02-.02,0,0,.01-.02,.02-.03,0,0,0-.01,.01-.02,0,0,.01-.01,.02-.02,0,0,0,0,0,0,0,0,.01-.01,.02-.02,0,0,.01-.02,.02-.03h0s.01-.02,.02-.02c.01-.01,.02-.03,.04-.04,0,0,.01-.01,.02-.02,0,0,.02-.02,.02-.02,0,0,.01-.01,.02-.02,0,0,.01-.01,.02-.02,0,0,.01-.01,.02-.02,0,0,.02-.01,.02-.02,0,0,0,0,0,0,0,0,0,0,.01-.01,0,0,0,0,.01-.01,0,0,.02-.01,.03-.02,0,0,.02-.01,.03-.02,0,0,.01-.01,.02-.02,.02-.01,.04-.03,.07-.04,.01,0,.02-.01,.03-.02,.02-.01,.04-.02,.06-.03,0,0,0,0,0,0,.02,0,.04-.02,.06-.03,.02,0,.04-.02,.06-.02,.01,0,.02,0,.04-.01,.02,0,.04-.02,.06-.02,.07-.02,.13-.04,.2-.05,.05,0,.1-.02,.16-.02,.06,0,.12,0,.18,0,.03,0,.06,0,.09,0,.01,0,.02,0,.03,0,.01,0,.03,0,.04,0,.01,0,.03,0,.04,0,.01,0,.03,0,.04,0,.05,.01,.1,.03,.16,.04h0s.01,0,.02,0c0,0,0,0,.01,0,.01,0,.03,0,.04,.02,.01,0,.02,0,.03,.01,0,0,.01,0,.02,.01,0,0,.02,0,.03,.01,.02,.01,.04,.02,.07,.03s.04,.02,.06,.04c0,0,.02,.01,.03,.02,0,0,0,0,0,0,0,0,.01,0,.02,.01,0,0,.02,.01,.03,.02,.01,0,.02,.02,.03,.02,0,0,0,0,.01,.01,0,0,0,0,.01,.01,0,0,0,0,0,0,.03,.02,.06,.05,.09,.08,0,0,.02,.02,.03,.03,0,0,.02,.02,.03,.03,0,.01,.02,.02,.03,.03,0,.01,.02,.02,.03,.03,0,0,.01,.02,.02,.02,.02,.02,.04,.05,.06,.07,.03,.05,.07,.1,.09,.15,.02,.05,.05,.09,.07,.14,.04,.1,.07,.19,.08,.3,0,.04,.01,.08,.02,.11,0,.06,0,.13,0,.19,0,0,0,.02,0,.03,0,.01,0,.02,0,.04,0,.01,0,.02,0,.04,0,.01,0,.02,0,.03,0,.01,0,.02,0,.03,0,0,0,0,0,0,0,0,0,0,0,0,0,.01,0,.02,0,.03,0,.01,0,.02,0,.04,0,.01,0,.02,0,.03,0,0,0,.02,0,.03,0,.02,0,.04-.01,.05,0,0,0,.02,0,.03h0s0,.02-.01,.03c0,0,0,.02,0,.02,0,0,0,0,0,.01,0,0,0,.02,0,.03,0,0,0,.01,0,.02,0,0,0,.02-.01,.03,0,0,0,.02-.01,.03,0,.01-.01,.02-.02,.03,0,0,0,0,0,0-.01,.02-.02,.04-.03,.06,0,.01-.01,.02-.02,.04,0,0,0,0,0,.01h0s0,.02-.01,.03c0,0,0,0,0,.01-.02,.03-.04,.05-.06,.08-.04,.05-.08,.09-.12,.14h0s-.07,.07-.12,.11c-.05,.04-.1,.07-.15,.11,0,0,0,0-.01,0-.01,0-.03,.02-.04,.03-.01,0-.03,.02-.04,.02,0,0-.02,0-.03,.01,0,0,0,0,0,0,0,0-.02,0-.02,.01-.01,0-.02,.01-.03,.02-.01,0-.02,.01-.04,.02,0,0,0,0,0,0-.01,0-.02,0-.04,.01-.01,0-.03,0-.04,.01-.03,0-.05,.02-.08,.03,0,0-.01,0-.02,0-.14,.04-.29,.06-.44,.06-.14,0-.29-.03-.43-.08-.06-.02-.11-.04-.17-.07-.02-.01-.05-.02-.07-.04s-.05-.03-.07-.04c-.05-.03-.1-.07-.15-.1-.12-.09-.21-.2-.29-.32-.08-.12-.15-.26-.19-.4,0-.03-.02-.07-.03-.1,0-.01,0-.03,0-.04,0-.01,0-.03,0-.04,0,0,0,0,0,0,0-.01,0-.03,0-.04,0-.01,0-.02,0-.04,0,0,0-.02,0-.03,0,0,0,0,0,0,0,0,0-.02,0-.03,0-.01,0-.02,0-.04,0-.02,0-.05,0-.07,0-.06,0-.12,.01-.19h0c0-.05,.02-.1,.03-.15,.01-.06,.03-.12,.06-.18,0,0,0,0,0,0,.01-.03,.02-.05,.04-.08,0,0,0,0,0-.01,0,0,0-.02,.01-.03v-.02s.02-.02,.03-.04c.01-.02,.02-.04,.04-.06Zm.64,1.72h0s.04,.03,.06,.04,.04,.02,.06,.03h0c.24,.11,.5,.13,.74,.08,.02,0,.03,0,.05-.01,.02,0,.03-.01,.05-.02,.01,0,.02,0,.04-.01,.01,0,.02,0,.04-.01,.01,0,.02-.01,.04-.02,.02-.01,.05-.02,.07-.04,.01,0,.02-.01,.03-.02,0,0,.02-.01,.03-.02,.01,0,.03-.02,.04-.03,.01,0,.02-.01,.03-.02,0,0,0,0,0,0,.01,0,.02-.02,.03-.02,0,0,0,0,0,0,0,0,0,0,0,0s0,0,0,0c.04-.03,.07-.06,.11-.1,.01-.01,.02-.02,.03-.03,0,0,.01-.01,.02-.02,0,0,0,0,0,0,0,0,.01-.02,.02-.02,0,0,.01-.02,.02-.03,0,0,.01-.02,.02-.03,0,0,.01-.02,.02-.03,0-.01,.01-.02,.02-.03,0,0,.01-.02,.02-.03,.01-.02,.02-.04,.03-.06,0,0,0-.02,.01-.03,0,0,0-.02,.01-.03,0,0,0-.02,.01-.03,0,0,0,0,0,0,0,0,0-.02,0-.02,0,0,0,0,0-.01,0,0,0-.02,0-.02,0,0,0,0,0,0,0,0,0-.02,0-.03,0-.01,0-.02,.01-.04,0-.02,0-.03,.01-.05,0,0,0,0,0,0,0,0,0,0,0,0,0,0,0,0,0,0,0,0,0,0,0,0,0,0,0,0,0,0,0-.02,0-.04,0-.07,0,0,0-.02,0-.02,0,0,0-.01,0-.02,0,0,0-.02,0-.02,0,0,0,0,0,0,0,0,0-.02,0-.02,0,0,0-.02,0-.03,0-.01,0-.02,0-.04,0-.01,0-.02,0-.03,0-.01,0-.02,0-.03,0-.01,0-.02,0-.03,0-.03,0-.05-.01-.08,0,0,0-.02,0-.03,0-.03-.01-.05-.02-.08,0,0,0-.02,0-.03,0,0,0-.02,0-.03,0-.01,0-.03-.01-.04-.02-.05-.05-.11-.07-.16,0-.02-.02-.03-.03-.05,0,0,0-.02-.01-.02,0,0-.01-.02-.02-.02,0-.01-.02-.02-.03-.03,0,0-.01-.02-.02-.02-.01-.01-.02-.02-.03-.04,0,0-.01-.01-.02-.02h0s-.02-.02-.03-.03c0,0,0,0,0,0,0,0-.02-.02-.03-.03-.01-.01-.03-.02-.04-.03-.01,0-.02-.02-.03-.03,0,0-.01,0-.02-.01-.01,0-.02-.02-.04-.03-.02-.01-.04-.03-.06-.04-.01,0-.03-.02-.04-.02s-.03-.01-.04-.02c-.02-.01-.04-.02-.06-.03-.01,0-.03-.01-.04-.02,0,0-.01,0-.02,0-.01,0-.03,0-.04-.01-.02,0-.03-.01-.05-.01-.01,0-.02,0-.04,0,0,0,0,0,0,0-.01,0-.03,0-.04,0h0s-.02,0-.03,0c-.03,0-.05,0-.08-.01,0,0-.01,0-.02,0-.02,0-.04,0-.05,0,0,0-.02,0-.03,0,0,0-.02,0-.03,0-.07,0-.14,0-.21,.02,0,0-.02,0-.03,0,0,0-.02,0-.03,0-.04,.01-.08,.02-.12,.04-.05,.02-.1,.04-.15,.07-.01,0-.02,.01-.04,.02-.02,.01-.04,.02-.06,.04h0s0,0,0,.01c0,0-.01,0-.02,.01,0,0,0,0-.01,.01,0,0-.01,.01-.02,.02,0,0,0,0,0,0-.01,.01-.03,.02-.04,.04,0,0,0,0,0,0,0,0,0,0,0,0,0,0,0,0,0,0,0,0,0,0,0,0,0,0,0,0,0,0,0,0,0,0,0,0,0,0-.02,.02-.02,.02,0,0-.01,.01-.02,.02,0,0-.01,.01-.02,.02,0,0,0,.01-.01,.01,0,0,0,0,0,0,0,0-.01,.01-.02,.02,0,0,0,.01-.01,.02,0,0-.01,.01-.02,.02,0,0,0,0,0,0,0,0-.01,.01-.02,.02,0,0-.01,.02-.02,.03,0,0-.01,.02-.02,.03-.01,.02-.02,.04-.03,.05,0,.01-.01,.02-.02,.03,0,.01-.01,.02-.02,.03,0,0,0,.02-.01,.03,0,.01,0,.02-.01,.03,0,0,0,0,0,0,0,0,0,.02,0,.02,0,0,0,.01,0,.02,0,0,0,0,0,.01,0,0,0,.02,0,.03,0,0,0,.02,0,.03-.02,.06-.03,.12-.04,.18,0,0,0,0,0,0,0,0,0,0,0,.01,0,.01,0,.03,0,.04,0,.01,0,.02,0,.04,0,0,0,.02,0,.03,0,0,0,.02,0,.03,0,0,0,.02,0,.02,0,0,0,.02,0,.03,0,.01,0,.02,0,.03,0,.01,0,.02,0,.03,0,0,0,.01,0,.02,0,0,0,.02,0,.03,0,.01,0,.02,0,.04,0,0,0,.02,0,.03,0,.01,0,.02,0,.03,0,.02,0,.03,.01,.05,0,.01,0,.02,.01,.03,0,.02,.01,.03,.02,.05,0,0,0,.02,.01,.03,.08,.21,.23,.39,.43,.52Z"/><path class="cls-14" d="M272.96,129.14s-.01,.02-.02,.03c0,.01-.01,.02-.02,.03,0,0,0,.02-.01,.03,0,.01,0,.02-.01,.03,0,0,0,0,0,0,0,0,0,.02,0,.02,0,0,0,.01,0,.02,0,0,0,0,0,.01,0,0,0,.02,0,.03,0,0,0,.02,0,.03-.02,.06-.03,.12-.04,.18,0,0,0,0,0,0,0,0,0,0,0,.01,0,.01,0,.03,0,.04,0,.01,0,.02,0,.04,0,0,0,.02,0,.03,0,0,0,.02,0,.03,0,0,0,.02,0,.02,0,0,0,.02,0,.03,0,.01,0,.02,0,.03,0,.01,0,.02,0,.03,0,0,0,.01,0,.02,0,0,0,.02,0,.03,0,.01,0,.02,0,.04,0,0,0,.02,0,.03,0,.01,0,.02,0,.03,0,.02,0,.03,.01,.05,0,.01,0,.02,.01,.03,0,.02,.01,.03,.02,.05,0,0,0,.02,.01,.03,.09,.21,.23,.39,.42,.51,0,0,0,0,0,0h0s.04,.03,.06,.04,.04,.02,.06,.03h0s0,0,0,0c.23,.11,.49,.13,.73,.07,.02,0,.03,0,.05-.01s.03-.01,.05-.02c.01,0,.02,0,.04-.01,.01,0,.02,0,.04-.01,.01,0,.02-.01,.04-.02,.02-.01,.05-.02,.07-.04,.01,0,.02-.01,.03-.02,0,0,.02-.01,.03-.02,.01,0,.03-.02,.04-.03,.01,0,.02-.01,.03-.02,0,0,0,0,0,0,.01,0,.02-.02,.03-.02,0,0,0,0,0,0,0,0,0,0,0,0s0,0,0,0c.04-.03,.07-.06,.11-.1,.01-.01,.02-.02,.03-.03,0,0,.01-.01,.02-.02,0,0,0,0,0,0,0,0,.01-.02,.02-.02,0,0,.01-.02,.02-.03s.01-.02,.02-.03c0,0,.01-.02,.02-.03,0-.01,.01-.02,.02-.03,0,0,.01-.02,.02-.03,.01-.02,.02-.04,.03-.06,0,0,0-.02,.01-.03,0,0,0-.02,.01-.03,0,0,0-.02,.01-.03,0,0,0,0,0,0,0,0,0-.02,0-.02,0,0,0,0,0-.01,0,0,0-.02,0-.02,0,0,0,0,0,0,0,0,0-.02,0-.03,0-.01,0-.02,.01-.04,0-.02,0-.03,.01-.05,0,0,0,0,0,0,0,0,0,0,0,0,0,0,0,0,0,0,0,0,0,0,0,0,0,0,0,0,0,0,0,0,0,0,0,0,0-.02,0-.04,0-.07,0,0,0-.02,0-.02,0,0,0-.01,0-.02,0,0,0-.02,0-.02,0,0,0,0,0,0,0,0,0-.02,0-.02,0,0,0-.02,0-.03,0-.01,0-.02,0-.04,0-.01,0-.02,0-.03,0-.01,0-.02,0-.03,0-.01,0-.02,0-.03,0-.03,0-.05-.01-.08,0,0,0-.02,0-.03,0-.03-.01-.05-.02-.08,0,0,0-.02,0-.03,0,0,0-.02,0-.03,0-.01,0-.03-.01-.04-.02-.05-.05-.11-.07-.16,0-.02-.02-.03-.03-.05,0,0,0-.02-.01-.02,0,0-.01-.02-.02-.02,0-.01-.02-.02-.03-.03,0,0-.01-.02-.02-.02-.01-.01-.02-.02-.03-.04,0,0-.01-.01-.02-.02h0s-.02-.02-.03-.03c0,0,0,0,0,0,0,0-.02-.02-.03-.03-.01-.01-.03-.02-.04-.03-.01,0-.02-.02-.03-.03,0,0-.01,0-.02-.01-.01,0-.02-.02-.04-.03-.02-.01-.04-.03-.06-.04-.01,0-.03-.02-.04-.02s-.03-.01-.04-.02c-.02-.01-.04-.02-.06-.03-.01,0-.03-.01-.04-.02,0,0-.01,0-.02,0-.01,0-.03,0-.04-.01-.02,0-.03-.01-.05-.01-.01,0-.02,0-.04,0,0,0,0,0,0,0-.01,0-.03,0-.04,0h0s-.02,0-.03,0c-.03,0-.05,0-.08-.01,0,0-.01,0-.02,0-.02,0-.04,0-.05,0,0,0-.02,0-.03,0,0,0-.02,0-.03,0-.07,0-.14,0-.21,.02,0,0-.02,0-.03,0,0,0-.02,0-.03,0-.04,.01-.08,.02-.12,.04-.05,.02-.1,.04-.15,.07-.01,0-.02,.01-.04,.02-.02,.01-.04,.02-.06,.04h0s0,0,0,.01c0,0-.01,0-.02,.01,0,0,0,0-.01,.01,0,0-.01,.01-.02,.02,0,0,0,0,0,0-.01,.01-.03,.02-.04,.04,0,0,0,0,0,0,0,0,0,0,0,0,0,0,0,0,0,0,0,0,0,0,0,0,0,0,0,0,0,0,0,0,0,0,0,0,0,0-.02,.02-.02,.02,0,0-.01,.01-.02,.02,0,0-.01,.01-.02,.02,0,0,0,.01-.01,.01,0,0,0,0,0,0,0,0-.01,.01-.02,.02,0,0,0,.01-.01,.02,0,0-.01,.01-.02,.02,0,0,0,0,0,0,0,0-.01,.01-.02,.02,0,0-.01,.02-.02,.03,0,0-.01,.02-.02,.03-.01,.02-.02,.04-.03,.05Z"/></g></g></svg>