<?xml version="1.0" encoding="UTF-8"?><svg id="Layer_1" xmlns="http://www.w3.org/2000/svg" viewBox="0 0 491.07 247.49"><defs><style>.cls-1,.cls-2{fill:#fff;}.cls-3{fill:#ff5c39;}.cls-4{fill:#333f48;}.cls-5{fill:#49c5b1;}.cls-2{opacity:0;}</style></defs><rect class="cls-2" y="0" width="491.07" height="247.49"/><g><g><path class="cls-3" d="m178.77,122.35c-.23-.27-.56-.42-.91-.42h-23.06c-.59,0-1.09.43-1.18,1.01l-13.44,85.2c-.05.34.04.69.27.96.23.26.56.42.91.42h23.05c.59,0,1.09-.43,1.18-1.01l13.45-85.2c.05-.34-.04-.69-.27-.96Z"/><path class="cls-3" d="m220.86,186.65c-.23-.26-.56-.42-.91-.42h-11.88c-2.56-.23-4.5-1.24-5.94-3.08-2.6-3.34-3.4-9.64-2.18-17.29.58-3.7,2.55-12.84,8.24-17.7,3.41-2.84,7.04-3.06,8.07-3.06.13,0,.2,0,.21,0,.03,0,.05,0,.08,0h10.25c.59,0,1.09-.43,1.18-1.01l3.28-20.79c.05-.34-.04-.7-.27-.96-.23-.26-.56-.42-.91-.42h-11.24c-3.02,0-13.68.58-24.01,7.94-10.74,7.65-17.48,19.82-20.04,36.15-2.32,14.59-.05,26.38,6.55,34.11,5.18,6.06,12.68,9.27,21.69,9.27h13.63c.59,0,1.09-.43,1.18-1.01l3.28-20.79c.05-.34-.04-.69-.27-.96Z"/><path class="cls-3" d="m147.75,144.1l3.28-20.79c.05-.34-.04-.7-.27-.96-.23-.26-.56-.42-.91-.42h-48.93c-.59,0-1.09.43-1.18,1.01l-3.28,20.79c-.05.34.04.7.27.96.23.26.56.42.91.42h11.26l-9.95,63.03c-.05.34.04.69.27.96.23.27.56.42.91.42h23.05c.59,0,1.09-.43,1.18-1.01l10.02-63.4h12.2c.59,0,1.09-.43,1.18-1.01Z"/><path class="cls-3" d="m96.87,122.35c-.23-.27-.56-.42-.91-.42h-18.16s-.08,0-.12,0c-18.9.07-28.67,17.23-30.39,28.05-.92,5.63-.17,10.59,2.32,15.19,2.49,4.27,6.12,7.66,9.63,10.76.02.02.05.04.07.06,1.43,1.08,2.29,1.93,2.87,2.85.02.04.05.08.08.11.83,1.01,1.09,2.14.84,3.65-.14.95-.59,1.79-1.31,2.5-1.05.98-2.95,1.1-3.47,1.12h-15.74c-.59,0-1.09.43-1.18,1.01l-3.29,20.79c-.05.34.04.7.27.96.23.27.56.42.91.42h17.02c15.53,0,29.17-12.25,31.72-28.49.95-6.04.35-10.82-1.87-15.03-2.2-4.16-5.93-7.44-9.64-10.37-.35-.35-.75-.69-1.17-1.06-.78-.68-1.59-1.38-2.16-2.14-1.03-1.37-1.41-2.53-1.2-3.7.11-.76.46-1.46,1.03-2.08.1-.1.19-.2.31-.3,1.01-.88,2.16-1.08,2.78-1.12h16.55c.59,0,1.09-.43,1.18-1.01l3.29-20.79c.05-.34-.04-.7-.27-.96Z"/><path class="cls-3" d="m452.73,122.35c-.23-.27-.56-.42-.91-.42h-18.16s-.08,0-.12,0c-18.9.07-28.67,17.23-30.39,28.05-.93,5.63-.17,10.59,2.32,15.19,2.49,4.27,6.12,7.66,9.63,10.76.02.02.05.04.07.06,1.43,1.08,2.29,1.93,2.87,2.85.02.04.05.08.08.11.83,1.01,1.09,2.14.84,3.65-.14.95-.59,1.79-1.31,2.5-1.05.98-2.95,1.1-3.47,1.12h-15.74c-.59,0-1.09.43-1.18,1.01l-2.52,15.96-9.64-29.65c8.78-3.69,14.7-11.6,16.31-21.87,1.46-9.4.12-16.36-4.09-21.28-4.94-5.77-13.57-8.46-27.15-8.46h-22.27c-.59,0-1.09.43-1.18,1.01l-13.44,85.2c-.05.34.04.69.27.96.23.26.56.42.91.42h23.05c.59,0,1.08-.43,1.18-1l3.62-22.71c.34-2.08.62-4.17.88-6.25l5.82,29.01c.11.56.6.96,1.17.96h24.97c.17,0,.34-.04.5-.11h16.53c15.53,0,29.17-12.25,31.72-28.49.95-6.04.35-10.82-1.87-15.03-2.2-4.16-5.93-7.44-9.64-10.37-.35-.35-.75-.69-1.17-1.06-.78-.68-1.59-1.38-2.16-2.14-1.03-1.37-1.41-2.53-1.2-3.7.11-.76.46-1.46,1.03-2.08.09-.1.19-.19.31-.3,1.01-.88,2.16-1.08,2.78-1.12h16.55c.59,0,1.09-.43,1.18-1.01l3.29-20.79c.05-.34-.04-.7-.27-.96Zm-76.61,29.19c-.69,4.87-4.29,9.8-9.85,9.82h-.13s3.03-18.77,3.03-18.77c1.85.02,4.32.41,5.79,2.16,1.27,1.5,1.66,3.77,1.15,6.79Z"/><path class="cls-3" d="m271.61,164.41l24.58-40.67c.22-.37.23-.83.02-1.2s-.61-.61-1.04-.61h-24.29c-.45,0-.86.25-1.06.65l-15.07,29.84,4.54-29.12c.05-.34-.05-.69-.27-.96-.23-.26-.56-.42-.91-.42h-23.06c-.59,0-1.09.43-1.18,1.01l-13.44,85.2c-.05.34.04.69.27.96.23.26.56.42.91.42h23.05c.59,0,1.08-.43,1.18-1l5.25-32.98,6.87,33.04c.12.55.6.95,1.17.95h24.75c.38,0,.73-.18.96-.48.23-.3.29-.7.18-1.06l-13.4-43.56Z"/><path class="cls-3" d="m333.59,187.43c-.23-.26-.56-.42-.91-.42h-18.38l1.66-10.61h16.72c.58,0,1.08-.42,1.18-1l3.28-20.11c.06-.35-.04-.7-.27-.96-.23-.27-.56-.42-.91-.42h-16.36l1.45-9.49h18.75c.59,0,1.09-.43,1.18-1.01l3.16-20.11c.05-.34-.04-.69-.27-.96-.23-.26-.56-.42-.91-.42h-42.83c-.59,0-1.09.43-1.18,1.01l-13.44,85.2c-.05.34.04.69.27.96.23.26.56.42.91.42h42.82c.59,0,1.09-.43,1.18-1.01l3.16-20.11c.05-.34-.04-.69-.27-.96Z"/></g><g><path class="cls-1" d="m205.64,57.98c0,5.54.63,11.11,1.27,16.52l-13.08-36.42h-20.94v63.33l-13.44-63.33h-26.18l-18.22,75.88h22.98l1.66-9.45h11.33l1.46,9.45h41.88v-22.73c0-4.17-.32-8.34-.67-12.42l12.28,35.15h21.15V38.07h-21.5v19.91Zm-57.27,28.54h-5.63l2.51-15.67c.24-1.43.46-2.87.65-4.31.15,1.43.32,2.85.5,4.26l1.97,15.72Z"/><polygon class="cls-1" points="124.89 38.07 80.3 38.07 80.3 58.39 91.22 58.39 91.22 113.95 113.49 113.95 113.49 58.39 124.89 58.39 124.89 38.07"/><path class="cls-1" d="m63.82,38.1l-2.49-.02c-16.9,0-23.2,15.06-23.2,24.56,0,4.99,1.36,9.29,4.15,13.14,2.68,3.64,6.36,6.58,9.96,9.32,1.09.75,2.22,1.56,3.01,2.51l.04.05c.83.9,1.21,1.86,1.22,3.1v.11c0,.17-.02.33-.05.48l-.02.07c-.28,1.28-1.43,2.21-2.74,2.21h-15.57v20.32h19.3c12.22-1.49,20.98-11.92,20.98-24.93,0-5.3-1.19-9.44-3.75-13.02-2.51-3.65-6.21-6.46-9.84-8.95-.29-.23-.61-.47-.94-.71-.86-.65-1.75-1.31-2.45-2.06-.65-.7-1.07-1.31-1.33-1.92-.08-.18-.14-.36-.18-.53-.04-.17-.06-.35-.06-.61,0-.02,0-.05,0-.07,0-.02,0-.03,0-.05v-.13c.11-1.44,1.31-2.57,2.74-2.57h15.8v-20.32h-14.01c-.18,0-.38,0-.57.03Z"/><path class="cls-1" d="m461.22,9.05h-66.37c-.85,0-1.64.33-2.24.93l-4.72,4.73v-2.48c0-1.75-1.42-3.17-3.17-3.17h-19.89c-.84,0-1.65.34-2.24.93l-8.15,8.15c-5.48-6.78-13.01-10.35-21.87-10.35h-1.51c-7.82,0-14.47,2.69-19.72,7.96l-24.37,24.36c-.07.07-.13.14-.19.21-3.83,3.65-6.95,8.81-9.04,14.93-5.74-11.1-16.82-17.17-31.53-17.17h-17.18v75.88h18.54c16.59,0,27.33-6.79,31.98-20.19,4.98,13.69,15.01,21.46,27.95,21.46,7.82,0,14.46-2.68,19.74-7.97l10.68-10.68c3.27,12.22,12.49,18.65,26.8,18.65,9.24,0,16.37-2.7,21.19-8.03l15.79-15.79v19.39c0,1.75,1.42,3.17,3.17,3.17h19.88c.85,0,1.64-.33,2.24-.93l25.07-25.06c.61-.61.95-1.45.93-2.29v-42.8l10.48-10.48c.63-.63.97-1.5.92-2.4V12.22c0-1.75-1.42-3.17-3.17-3.17Zm-209.93,84.67v-34.85c4,.58,8.24,4.37,8.24,17.83s-5.08,16.47-8.24,17.02Z"/></g><g><path class="cls-5" d="m331.81,11.71c-20.18,0-28.07,20.09-28.07,38.02s7.9,38.02,28.07,38.02,28.07-20.08,28.07-38.02-7.9-38.02-28.07-38.02Zm0,18.52h0c7.51,0,7.8,14.92,7.8,19.49s-.29,19.5-7.8,19.5h0c-2.35,0-3.99-1.46-5.13-3.6-.11-.21-.22-.44-.33-.66-.45-.97-.81-2.04-1.1-3.17-.11-.41-.2-.82-.29-1.23-.88-4.14-.94-8.65-.94-10.83h0c0-4.57.29-19.49,7.8-19.49Z"/><polygon class="cls-5" points="418.26 12.98 418.26 30.91 429.18 30.91 429.18 86.48 449.06 86.48 449.06 30.91 460.47 30.91 460.47 12.98 418.26 12.98"/><path class="cls-5" d="m394.1,12.98v46.3c0,1.85.1,4.39-.49,6.44-.49,1.95-1.75,3.51-4.58,3.51s-3.99-1.56-4.58-3.61c-.59-1.95-.48-4.48-.48-6.43V12.98h-19.89v48.06c0,8.87,1.96,26.71,24.95,26.71s24.96-17.84,24.96-26.71V12.98h-19.89Z"/></g><g><g><path class="cls-4" d="m466.26,211.04c-.04-.23-.06-.47-.06-.71-.01-.24-.02-.48-.04-.71-.03-.24-.07-.46-.12-.67-.05-.22-.12-.41-.23-.59-.1-.18-.24-.33-.42-.45-.17-.13-.4-.22-.68-.27v-.03c.59-.16,1.01-.46,1.27-.9.27-.44.4-.95.4-1.54,0-.78-.26-1.39-.77-1.84-.52-.45-1.23-.67-2.15-.67h-4.52v9.61h1.28v-4.11h3.12c.32,0,.57.05.75.14.19.1.34.22.46.38.12.16.2.34.26.55.05.21.1.43.13.67.05.23.07.47.08.71,0,.24.02.47.03.68,0,.21.03.4.06.57.03.17.09.3.18.4h1.43c-.14-.16-.24-.35-.31-.56-.07-.21-.12-.43-.15-.67Zm-1.82-4.29c-.2.13-.44.22-.71.26-.27.04-.55.07-.85.07h-2.67v-3.36h3.18c.6,0,1.04.15,1.31.46.27.3.4.7.4,1.18,0,.35-.06.63-.18.85-.12.22-.28.39-.48.52Z"/><path class="cls-4" d="m462.49,197.82c-5.35,0-9.69,4.34-9.69,9.69s4.34,9.69,9.69,9.69,9.69-4.34,9.69-9.69-4.34-9.69-9.69-9.69Zm0,18.09c-4.63,0-8.4-3.77-8.4-8.4s3.77-8.4,8.4-8.4,8.4,3.77,8.4,8.4-3.77,8.4-8.4,8.4Z"/></g><path class="cls-4" d="m368.16,141.43l-3.4,21.02,1.47.11c6.1,0,10.29-5.31,11.07-10.85,1.25-7.45-2.82-10.62-9.15-10.28ZM461.22,1.27h-96.39c-2.93,0-5.68,1.14-7.75,3.21l-2.75,2.75c-6.13-4.71-13.6-7.23-21.77-7.23h-1.51c-9.78,0-18.47,3.52-25.16,10.18-.05.05-.11.11-.17.16l-24.3,24.3c-.09.09-.18.19-.27.28-.13.13-.25.26-.38.39h0s-.08.08-.21.22c-.81.83-1.59,1.7-2.34,2.62-.68.8-1.39,1.68-2.02,2.54-7.52-6.74-17.79-10.39-30.01-10.39H61.32c-22.57.01-30.98,19.85-30.98,32.35,0,6.6,1.89,12.55,5.66,17.75,1.49,2.02,3.16,3.82,4.91,5.46h-1.61c-4.96,0-8.97,4.02-8.97,8.97v17.94c0,4.96,4.02,8.97,8.97,8.97h16.15c-2.03,1.59-3.94,3.42-5.71,5.48-5.18,6.05-8.99,14.11-10.17,21.51-1.22,7.4-.19,13.98,3.14,20.13.05.08.09.17.14.25,2.14,3.67,4.81,6.67,7.57,9.35h-7.88c-4.41,0-8.17,3.21-8.86,7.57l-3.29,20.79c-.41,2.59.34,5.23,2.04,7.23,1.7,1.99,4.2,3.14,6.82,3.14h372.9c19.33,0,36.27-15.08,39.41-35.07,1.22-7.79.37-14.1-2.68-19.88-1.96-3.7-4.64-6.72-7.54-9.35h7.17c4.42,0,8.17-3.21,8.86-7.57l3.29-20.79c.41-2.59-.34-5.23-2.04-7.23-1.71-1.99-4.2-3.14-6.82-3.14h-14.94l20.67-20.67c2.07-2.06,3.24-4.92,3.21-7.84v-39.53l8.2-8.2c2.12-2.13,3.28-5.03,3.2-8.03V12.22c0-6.04-4.91-10.95-10.95-10.95ZM158.49,39.26l15.6,73.5V39.26h18.91l15.89,44.26.2-.2c-.78-8.48-2.25-16.87-2.25-25.34v-18.72h19.11v73.5h-19.11l-14.81-42.4-.2.19c.48,6.92,1.37,13.75,1.37,20.67v21.54h-39.67l-1.46-9.45h-13.36l-1.66,9.45h-20.47l17.64-73.5h24.27Zm-77,0h42.21v17.94h-11.41v55.56h-19.88v-55.56h-10.92v-17.94Zm-42.17,73.5v-17.94h14.38c1.92,0,3.52-1.35,3.91-3.15,0-.02.01-.04.01-.05.05-.23.07-.48.07-.72,0-.03,0-.05,0-.08,0-1.7-.58-2.92-1.54-3.96-.86-1.04-2.01-1.88-3.25-2.73-3.83-2.92-7.18-5.65-9.67-9.04-2.39-3.3-3.92-7.25-3.92-12.43,0-8.29,5.35-23.36,22.01-23.36h2.49s13.4-.01,13.4-.01v17.94h-14.61c-2.09,0-3.78,1.63-3.92,3.68,0,.06-.02.12-.02.18,0,.03,0,.05,0,.08,0,.04.01.07.01.11,0,.28.03.56.09.84.06.25.14.49.24.73.36.85.93,1.59,1.56,2.26,1.05,1.14,2.49,2.08,3.55,2.92,4.11,2.82,7.36,5.46,9.57,8.67,2.29,3.21,3.54,6.97,3.54,12.34,0,11.36-6.96,20.83-17.57,23.23-1.69.38-3.43.51-5.16.51h-15.16Zm53.34,31.15h-16.59c-.76.04-2.24.28-3.53,1.41,0,0-.01.01-.02.02-.12.11-.25.23-.37.36-.69.75-1.2,1.66-1.35,2.74-.32,1.74.44,3.27,1.42,4.57.99,1.31,2.51,2.41,3.49,3.38,4.15,3.27,7.42,6.32,9.38,10.04,1.96,3.71,2.73,8.07,1.75,14.29-2.4,15.27-15.05,27.49-30.55,27.49h-17.02l3.29-20.79h15.74c.91-.03,2.97-.23,4.28-1.43.86-.84,1.48-1.9,1.68-3.19.32-1.96-.12-3.38-1.09-4.58-.76-1.2-1.86-2.18-3.16-3.16-3.82-3.38-7.1-6.55-9.39-10.47-2.07-3.82-3.16-8.39-2.18-14.4,1.53-9.6,10.36-27.05,29.34-27.05h0s18.16,0,18.16,0l-3.29,20.79Zm30.52,64.3h-23.05l10.15-64.3h-12.65l3.28-20.79h48.93l-3.28,20.79h-13.22l-10.16,64.3Zm18.19,0l13.43-85.1h23.06l-13.44,85.1h-23.05Zm75.29,0h-13.63c-18.22,0-31.52-13.86-27.05-42,5.78-36.87,32.07-43.09,42.87-43.09h11.24s-3.28,20.79-3.28,20.79h-10.25s-4.75-.31-9.13,3.32c-5.16,4.41-7.69,12.28-8.65,18.43-1.47,9.23-.72,20.87,9.24,21.75h11.93s-3.28,20.79-3.28,20.79Zm42.43,0l-8.11-38.99h-.11l-6.2,38.99h-23.05l13.43-85.1h23.06l-5.65,36.27h.11l18.31-36.27h24.29l-24.86,41.13,13.53,43.97h-24.74Zm73.58-20.01l-3.15,20.01h-42.82l13.43-85.1h42.83l-3.17,20.11h-19.77l-1.81,11.87h17.75l-3.28,20.11h-17.74l-2.03,12.99h19.77Zm37.49,20.01l-7.1-35.37-.34.22c-.45,4.19-.9,8.36-1.58,12.54l-3.6,22.61h-23.05l13.43-85.1h22.27c20,0,33.56,5.88,30.06,28.37-1.47,9.38-6.9,17.74-16.62,21.36l11.49,35.37h-24.96Zm81.66-85.1l-3.29,20.79h-16.59c-.76.04-2.24.28-3.53,1.41,0,0-.01.01-.02.02-.12.11-.25.23-.37.36-.69.75-1.2,1.66-1.35,2.74-.32,1.74.44,3.27,1.42,4.57.99,1.31,2.51,2.41,3.49,3.38,4.15,3.27,7.42,6.32,9.38,10.04,1.96,3.71,2.73,8.07,1.75,14.29-2.4,15.27-15.06,27.49-30.55,27.49h-17.02l3.29-20.79h15.74c.91-.03,2.97-.23,4.28-1.43.86-.84,1.48-1.9,1.68-3.19.32-1.96-.12-3.38-1.09-4.58-.76-1.2-1.86-2.18-3.16-3.16-3.82-3.38-7.1-6.55-9.39-10.47-2.07-3.82-3.16-8.39-2.18-14.4,1.53-9.6,10.36-27.05,29.34-27.05h0s18.16,0,18.16,0Zm11.37-93.08c.03.56-.17,1.12-.57,1.52l-10.83,10.83v43.3c.01.53-.19,1.06-.58,1.44l-25.07,25.06c-.37.37-.87.58-1.4.58h-19.88c-1.09,0-1.98-.89-1.98-1.98v-22.27l-17.79,17.8s-.02.02-.04.03c-4.59,5.09-11.43,7.67-20.34,7.67-14.54,0-23.5-6.83-26.12-19.82l-12.11,12.11s-.05.05-.08.08c-5.05,5.06-11.41,7.63-18.9,7.63-15.19,0-24.24-10.76-28-24.34-5.06,20.86-21.76,23.07-31.93,23.07h-17.35V39.26h15.99c15.92,0,26.66,7.07,31.63,19,.04.1.09.19.13.3,0,0,0,0,0,0,.27-.99.57-1.96.89-2.91h0c2.01-5.91,5-10.94,8.8-14.54.05-.06.1-.12.16-.18l24.26-24.26s.05-.05.07-.07c5.05-5.07,11.41-7.64,18.91-7.64h1.51c8.97,0,16.45,3.78,21.75,10.96l9.11-9.11c.37-.37.87-.58,1.4-.58h19.89c1.09,0,1.98.89,1.98,1.98v5.36l6.76-6.76c.37-.37.88-.58,1.4-.58h66.37c1.09,0,1.98.89,1.98,1.98v17.81Zm-213.1,27.55v37.43c9.06-.1,10.63-11.41,10.63-18.33,0-7.99-1.56-19.1-10.63-19.1Zm-102.53,13.06c-.59-4.58-.98-9.25-1.47-13.83h-.19c-.59,4.58-1.07,9.25-1.85,13.83l-2.73,17.06h8.38l-2.14-17.06Z"/></g></g></svg>