<?xml version="1.0" encoding="UTF-8"?><svg id="Layer_1" xmlns="http://www.w3.org/2000/svg" viewBox="0 0 1080 480.7"><defs><style>.cls-1{fill:#0b2a54;}</style></defs><path class="cls-1" d="m443.9,480.7c-16,0-32,0-48.4-.2-3.9-.4-7.5-.6-11.1-.7-24.3-1-48.5-3.4-72.5-7.1-33.4-5-66.3-12.5-98.5-22.9-40.7-13.2-79.4-30.4-114.9-54.4-24.7-16.7-46.9-36.2-64.8-60.2-17-22.7-28.6-47.7-32.4-76.1-.4-2.8-.9-5.5-1.3-8.3,0-6.9,0-13.7.2-20.9.6-3.9.9-7.5,1.5-11,3.6-23.2,12.4-44.3,25.3-63.8,16.3-24.6,37.1-44.8,60.8-62.2,35.6-26.2,75.2-44.9,116.9-59.1,36.7-12.6,74.4-21.1,112.9-26.6,25.3-3.6,50.7-5.8,76.3-6.7.6,0,1.1-.3,1.7-.5,16,0,32,0,48.4.2.6.2.8.3,1.1.3,28.9.8,57.6,3.5,86.2,8,36.1,5.6,71.5,14,106,25.9,36.7,12.7,71.8,28.9,104.1,50.7,16,10.8,31,22.9,44.5,36.7,2,2.1,4,2.7,6.8,2.8,16.6.3,33.1.6,49.7,1.5,10.7.6,21.4,2.4,31.5,6.3,16.4,6.4,28,17.7,31.8,35.1,5,23.1-.8,44.1-15.5,62.4-13.4,16.7-31.2,26.9-51.8,32.3-4.2,1.1-8.4,2-12.4,3,4.1,1.6,8.5,2.8,12.5,4.7,14.3,6.8,23.1,18.5,28.7,32.9,5.5,14.2,10.8,28.5,16.2,42.7,3.6,9.7,7.3,19.3,11.2,29.6,16.1-84.1,32-167.5,48-250.9h92.6c-16.5,86.4-33,172.6-49.5,258.9h-188.4c-3.3-8.2-6.7-16.5-10.1-24.9-.7.6-1.1,1-1.6,1.5-18.9,18.8-40.2,34.6-63.1,48.1-47.4,27.8-98.6,45.6-152.1,57.3-23.4,5.1-46.9,9.1-70.7,11.3-17.7,1.6-35.5,2.6-53.2,3.9-1.2,0-1.9.3-2.6.4m257.9-97.5h-87.1c7.8-45.6,15.6-90.9,23.4-136.3-.9.6-1.3,1.4-1.7,2.2-21.7,44-43.5,87.9-65.1,131.9-.8,1.6-1.6,2.2-3.5,2.2-25.6-.1-51.3-.1-76.9-.1h-2.8v-86.4c-.8.7-1.2,1.4-1.5,2.1-11.1,27.4-22.3,54.8-33.4,82.2-.7,1.6-1.4,2.2-3.2,2.2-22.7-.1-45.4,0-68.1,0h-2.2c-5.8-27.7-11.5-55.3-17.2-82.8-2.1,9.7-5.3,18.8-10.1,27.3-12.8,22.4-31.6,38.1-55,48.6-23,10.4-47.4,14.1-72.3,15.1-16.3.6-32.6.3-48.9-1.4-13.5-1.4-26.8-3.7-39.6-8.3-10-3.6-19.3-8.4-26.8-16.1-13.7-14.1-20.8-31.2-22.1-50.7-.3-5.2-.1-10.4-.1-15.7,30.3-1.6,60-3.3,89.8-4.9.2,3.9.4,7.6.7,11.2,1.4,15.3,10.4,26.5,25.1,31.1,10.1,3.2,20.4,3.3,30.7,2,10.2-1.4,19.4-5,26.9-12.2,4.5-4.3,7.8-9.3,8.3-15.6.8-9.5-3.9-16.2-12-20.1-6.7-3.3-14-5.9-21.2-7.8-14-3.7-28.3-6.4-42.3-10-16.2-4.1-32-9.5-46.6-18-10.2-6-19.1-13.5-24.7-24.1-7.7-14.3-7.6-29.4-2.7-44.4,6.4-19.7,19.4-34.3,36.5-45.5,21.4-13.9,45.3-19.9,70.4-22.2,19.4-1.8,38.8-2.1,58.2-.5,15,1.3,29.8,3.8,43.9,9.3,13.6,5.4,25.2,13.4,32.8,26.3,6.2,10.5,8.6,22.1,9.1,34.2.1,2.8,0,5.6,0,8.5-29.8,1.5-59.3,3-88.9,4.5-.1-1.2-.1-2.1-.2-3.1-.1-1.1-.2-2.1-.3-3.2-1.6-12.8-7.9-21.8-20.6-25.5-11.7-3.4-23.5-3.5-35.3-.4-7.3,1.9-13.5,5.9-17.5,12.5-4.6,7.7-2.7,14.9,5.1,19.3,2.9,1.6,6.1,3,9.3,3.7,12.5,3,25.1,5.6,37.7,8.4,18.7,4.2,37.3,8.6,55.2,15.6,13.9,5.5,26.6,12.7,36.3,24.5.4.4.8.9,1.7,1.8-2-9.7-3.8-18.7-5.7-27.6h72.8c3.2,22.4,6.4,44.6,9.6,66.9.6-.5.7-.9.9-1.4,6.7-21.3,13.4-42.6,20-63.9.6-1.8,1.2-2.6,3.3-2.6,24.6.1,49.2.1,73.7.1h2.4c3.2,22.5,6.4,44.8,9.5,67.2.7-.7,1-1.4,1.2-2.1,6.5-20.8,13.1-41.6,19.6-62.5.7-2.1,1.6-2.7,3.7-2.7,6.4.2,12.7.1,19.1.1,18.5,0,36.9-.1,55.4.1,2.4,0,3.2-.6,3.5-3,.8-5.7,1.9-11.4,2.9-17.1,3.8-22.3,7.7-44.7,11.5-67,.8-4.9,1.7-9.7,2.6-14.7h105.5c-1.4-1.3-2.5-2.3-3.6-3.2-14.9-13-31.1-24.4-48.1-34.4-41.7-24.4-86.6-40.7-133.4-52-34.6-8.3-69.6-13.6-105.1-16.3-26.6-2-53.1-2.5-79.7-1.6-31.4,1.1-62.7,4.2-93.7,9.5-35.2,6-69.6,14.8-103.2,27.2-34.1,12.6-66.5,28.4-96.2,49.5-23.9,17-45.2,36.8-61.4,61.5-14.7,22.4-23.5,46.8-23.9,73.9-.4,24.7,6.4,47.5,18.6,68.8,13.5,23.5,31.7,42.8,52.7,59.7,27.6,22.1,58.2,38.9,90.7,52.5,57.1,23.7,116.9,36.5,178.3,42.1,29.7,2.7,59.5,3.3,89.3,2.3,21.7-.8,43.3-2.5,64.9-5.3,33.8-4.4,67-11.1,99.7-20.9,38.2-11.5,74.9-26.7,109-47.6,21.6-13.3,41.5-28.6,58.9-47.1,1.1-1.2,1.3-2.1.7-3.6-3.7-9-7.2-18-10.9-26.9-3.4-8-6.9-16-10.8-23.8-2.2-4.4-5.6-7.9-10.1-10.3-8-4.2-16.6-4.1-25.3-3.7-3,18.2-6,36.2-9,54.2-2.9,17.6-5.9,35.2-8.7,52.9-.2,1.1-.6,1.6-2.4,1.4m29-159.2c-.1.8-.2,1.5-.3,2.5,5.8,0,11.3-.1,16.9,0,15.1.3,30.1-.2,45-3.4,11.5-2.5,21-11.2,23.2-22.4,2.3-11.2-2.6-19.8-13.6-22.5-6.1-1.5-12.5-2.3-18.8-2.5-13.9-.4-27.7-.2-41.6-.2-.7,0-1.4.1-2.2.1-2.9,16.1-5.7,32-8.6,48.4Z"/><path class="cls-1" d="m1080,146.3c-.2.5-.4.8-.5,1.2-3.1,10-12.1,15.5-22.1,13.4-9.8-2-15.9-10.6-14.7-21,1-9.2,7.8-16.1,16.5-16.8,10.1-.9,17.8,4.7,20.7,14.6.1,2.8.1,5.6.1,8.6m-28.7,7.6c3.7,3.4,8,4.6,12.9,3.6,9.9-2.1,14.8-13.8,9.8-23.4-4.5-8.7-16.2-10.4-23-3.4-5.8,6-5.8,16.3.3,23.2Z"/><path class="cls-1" d="m1065.4,151.9c-1.1-1.9-2.3-3.6-3.2-5.4-1-2-2.2-2.9-4.8-2.1v8.6h-3.3v-20.9c3.5,0,7.2-.3,10.8.1,3.2.3,4.7,2.2,4.8,5.2.2,3.6-.8,5.1-4.1,6.3-.3.1-.6.2-1.1.4,1.9,3,3.7,5.9,5.7,9-1.8-.1-3.5.9-4.8-1.2m0-16c-2.6-.5-5.1-.9-7.8-1.4v6.7c2.1-.1,3.9-.1,5.8-.3,2.8-.5,3.5-2,2-5Z"/></svg>