<?xml version="1.0" encoding="utf-8"?>
<!-- Generator: Adobe Illustrator 27.0.1, SVG Export Plug-In . SVG Version: 6.00 Build 0)  -->
<svg version="1.1" id="hunt" xmlns="http://www.w3.org/2000/svg" xmlns:xlink="http://www.w3.org/1999/xlink" x="0px" y="0px"
	 viewBox="0 0 1153.3 815.1" style="enable-background:new 0 0 1153.3 815.1;" xml:space="preserve">
<style type="text/css">
	.st0{fill:#EBCC7C;}
	.st1{fill:#F4E1AD;}
	.st2{fill:#F6E6BB;}
	.st3{fill:#F2DDA4;}
	.st4{fill:#F1DDA5;}
</style>
<g id="g4432">
	<path id="rect4343" class="st0" d="M1153.3,140.2c-1.1-0.9-1.9-1.8-2.3-2.8c-1.3-2.7-2.3-10.5-3.5-11.7c-0.8-0.8-2.7-0.7-3.5-2.4
		c-2.3-4.7,2.3-12.9,0-17.6c-2.9-5.7-3.5-10.6-3.5-17.6c0-5.5,6-16.1,2.3-23.5c-1.6-3.1-5.3-1.7-7.1-3.5c-2.3-2.3-4-6.4-7.1-9.4
		c-0.6-0.6-3.9-0.4-4.7-1.2c-2.4-2.4,2.8-5.7,3.5-7.1c1.5-3,0.8-20.4,0-21.1c-2-2-3.6-5.9-5.9-8.2c-3.2-3.2-21.2,1.2-24.7,2.4
		c-4.5,1.5-11.9-0.2-14.1-2.4c-0.6-0.6,0.6-2.9,0-3.5c-1.5-1.5-10.5,0-12.9-1.2c-4.7-2.4-18.7,3.6-22.3,0c-2.3-2.3-1-5.9-0.2-9.4
		H824.9c-0.6,4.9-1.4,11.7-1.7,11.7c-2.2,0-4.2-6.4-5.8-11.7h-7c-1.2,2.3-2.2,4.5-2.5,4.7c-1.2,1.2-5.9-1.2-7.1,0
		c-0.2,0.2-2.6,5.6-4.7,3.5c-0.9-0.9-1.2-3.5-2.3-4.7c-1.1-1.1-5-1.8-5.9-3.5H621.2c-0.3,0.4-0.7,0.8-1.1,1.2
		c-1.2,1.2-2.6,0.3-4.1-1.2h-10.9c-0.4,1.6-0.7,3.3-1.4,4.7c-1.2,2.3-6.6,26.3-9.4,23.5c-4.1-4.1-10.2-25.5-12.9-28.2h-0.7
		c-1.9,2.1-2.1,20.7-6.3,16.4c-0.8-0.8-0.4-5.1-1.2-5.9c-0.9-0.9-1.2-3.5-2.3-4.7c-2-2-0.4,3.1-2.3,1.2c-1.2-1.1-2.2-4-3.5-7.1
		H312.7c-0.4,0.5-0.9,0.9-1.5,1.2c-2.6,1.3-13.1,10.4-17.6,5.9c-1.2-1.2-3-5.6-7-3.5c-1.9,0.9-2.8,3.8-4.7,4.7c-2.2,1.1-6-1.1-8.2,0
		c-1.5,0.7-5.9,5.8-8.2,3.5c-5.1-5.1-19.1-3.8-20-4.7c-1.4-1.4-2-3.3-4.7-4.7C238,1,206.6,4.7,200.8,4.7c-3.2,0-21.8,6.4-22.3,5.9
		c-1.4-1.4,0.2-7.5,0.1-10.6H86c-0.8,2.3-1.4,4.6-2.6,5.9c-1.7,1.7-45.1-4.3-49.3,0c-0.8,0.8-0.4,2.7-1.2,3.5
		c-1.5,1.5-6.9-0.4-8.2,2.4c-2.1,4.2,4.4,4,2.4,8.2c-1.4,2.7-4.5,4.3-5.9,7.1c-0.2,0.5-0.3,5.2,0,5.8c0.4,0,1.1,0.1,1.2,0.1
		c0.4,0-0.9,0.3-1.2,0c0,0,0-0.1,0-0.1c-1.7-0.1-4.9-0.4-5.9,0.1c-2.8,1.4-0.7,7.7-2.4,9.4c-1,1-5.3,4.7-5.9,5.9
		C5.4,51.5,8.4,57,9.4,59.9c1.3,4-0.3,12.3-2.4,16.4c-1.7,3.4,1.2,9.2,0,12.9c-0.7,2-3.9,8.7-7,14.3v494.2c3,4.3,0,12.2,0,21.2
		c0,6.1,0.5,12.3,3.5,15.3c2.1,2.1,0,17.1,0,20c0,5.5-0.2,8.5-2.4,12.9c-2.4,4.8,2.2,14.8,3.5,18.8c0.8,2.3-2,12.1-1.2,12.9
		c1,1,1.4,2.7,2.4,4.7c1.8,3.5-1.7,35-3.5,38.8c-1.5,3.1,2.4,8.2,3.5,10.6c0.9,1.9-0.9,5.2,0,7c1,2,2.3,2.3,3.5,3.5
		c3.7,3.7-5.5,9.8-2.4,12.9c3.1,3.1,7,8.1,9.4,12.9c1.4,2.8-1.4,7.8,0,10.6c5,10.1,32.9-7.8,32.9,1.2c0,4.4,4.3,1.6,5.9,4.7
		c0.8,1.6,3.3,2.8,4.7,3.5c1.6,0.8,1.6,2.8,2.3,3.5c2.4,2.4,13-8.3,14.1-9.4c0.9-0.9,5.5-1.2,7-1.2c2.8,0,18.2-0.5,20,1.2
		c1.6,1.6-0.7,4.4,2.3,5.9c3.1,1.5,7.1-3.6,8.2-4.7c0.6-0.6,21.7-2,23.5-1.2c4.3,2.2,5.3,7.3,9.4,9.4c5.7,2.8,23.1-1.4,30.5,2.3
		h116.8c0-12.4-0.4-31.3-0.5-36.3c0,0,0,0,0-0.1c-0.1-0.4,0-1.6,0-1.2c0,0.2,0,1,0,1.2c1.2,3.7,1.8,6.6,2.3,10.5
		c1.2,8.6,3.4,17.4,5.6,25.8h70.3c1.7-2,3.1-4,4-5.9c0.9-1.7-0.3-4.4,1.2-5.9c3.3-3.3,1.7,5,1.3,11.7h18.3
		c2.1-7.6,1.4-16.4,3.9-18.8c0.2-0.2,1.3,4,2.3,9.4c0.5,2.5,1.8,5.8,3.3,9.4H590c2.8-4.7,5.2-9.9,8.9-11.7c0.6-0.3,6.7-0.4,7.1,0
		c1.6,1.6,2.6,5.4,5.9,7c0.7,0.3,4.6,2.6,8.8,4.7h14.5c4.3-4.7,11-11.1,16.7-8.2c2.9,1.4,9,4.3,12.9,2.3c2-1,2.2-3.5,4.7-3.5
		c4.1,0,13.5,3,14.1,2.3c0.9-0.9,7.2-7.6,10.6-5.9c1.1,0.5,6.6,1.9,7.1,2.3c2.2,2.2,2.5,8.4,4.7,10.6h172.6c2.3,0,4.6,0,6.8,0H906
		c0.4-3,0.8-6.1,3-8.2c1.6-1.5,5.1,2,5.9,1.2c1.2-1.2,0.4-5.5,1.2-7c1.4-2.8,6.9,8,7.1,8.2c7.6,7.6,5.8-4.8,10.6,0
		c1,1,1.2,7.2,1.2,4.7c0-4-0.8-10.8-2.3-15.3c-3.4-10.3,1.5-24.5,0-35.2c-0.6-4.3-1-8.9-2.3-12.9c-0.1-0.4,0-2.8,0-4
		c0-0.4-0.1-0.7,0-0.7s0,0.3,0,0.7c0.2,2.1,1.1,8.4,1.2,8.7c1.6,11,5.5,22.6,9.4,32.9c0.9,2.3,3.2,22,3.5,22.3
		c0.8,0.8,3.9-0.8,4.7,0c0.8,0.8,1.6,2.6,2.4,4.7H1077c0.3-5,2.4-6.2,4.6-10.6c0.3-0.7-0.6-1.8,0-2.3c1.1-1.1,23,5.1,25.8,2.3
		c1.1-1.1-0.7-5.6,0-7c1.2-2.5,2.3,0,3.5-1.2c1.6-1.6,3.3-5.6,4.7-7c2.1-2.1,9.7,8.7,17.6,4.7c0.7-0.3,1.8,0.5,2.3,0
		c2.3-2.3-10.3-4.9-5.9-9.4c1.9-1.9,7.8-4.3,10.6-7c1.4-1.4-3.5-9.4-1.2-11.7c0.8-0.8,2.7-0.4,3.5-1.2c1.2-1.2-2.5-24.5,0-27
		c1.4-1.4,5.7,0.2,7.1-1.2c0.7-0.7,1.9-3.4,3.5-3.7L1153.3,140.2L1153.3,140.2z"/>
	<path id="path4365" class="st1" d="M1146.4,729.4c-0.6-45.4,0.2-91-0.1-136.5c-0.1-149.9,0.1-299.9-0.1-449.8
		c-4-5.2-2.7-13.2-8.7-16.9c-4-7.8,3.1-17.1-2.8-24.3c-3.8-10.9,1-22.5,1.8-33.2c-5.9-0.2-8.2-5.7-11.3-9.8c-3-2.9-8.9-2.9-8.9-8.3
		c-1.3-6.4,6.3-9.7,4.9-15.9c0.4-5.5-0.6-16.7-8.4-14.5c-11.1,2-25.9,8.1-35.5-1.6c-1.1-3.7-6.3-1-9.2-2.3
		c-8.5-1.2-18.1,5.1-25.4-1.9c-3.1-1.4-2.6-6.8-4.9-7.4c-68.8,0.4-137.7,0-206.5,0.2c0.5,7.2-7.2,15.4-14,9.5
		c-2.7-1.2-3.1-6.2-4.6-6.9c-3.9,2.6-8.6,2.3-12.2,5.3c-5.4,2-11-1.9-12.8-6.8C777.6,5,766.6,8.4,756,7.1
		c-44.2,0.3-88.6-0.7-132.6,0.5c-4.2,3.3-9-1.3-13.2-0.6c-3.7,9.3-3.3,22.5-13.1,27.9c-8.6,1.8-12.8-7.8-14.7-14.5
		c-5.9,7.4-17,1.7-16.2-7.1c-5.2,0.8-3.8-8.5-8.8-6.1c-80.9,0.1-161.8-0.2-242.7,0.2c-7,6-18.9,11.2-26.5,4.8
		c-3.9,5.8-12.4,0.7-16.6,6.2c-5.5,3-10.7-1.4-15.5-3c-6.6-0.3-14.2-0.6-18.7-5.9c-11.6,0.1-23.3,1.5-34.9,2.5
		c-8.4,0.5-16,5.1-24.2,5.7c-5.5-0.4-8-6.9-8-10.9c-17.4,1.4-35-0.1-52.5,0.3c-9,0.3-18.7-0.4-27.2,0.9c-6.3,9.2-18.7,4.2-27.8,4.4
		c-7.7-0.3-16.5-2.5-23.6,0.4c-1.5,3.1-6.4,2.8-4.9,6.9c-0.1,5.9-8.2,8.4-5.9,14.4c0.6,4.4-4.7,6.2-7.5,6.3
		c0.8,5.6-7.1,7.5-6.8,12.4c4.8,8.6,2.3,18.6-0.4,27.4c0.7,6.7,0.8,13.8-3.7,19.3c-6.1,9.6-1.7,21.2-3,31.8
		c0.1,155.2-0.2,310.5,0.2,465.7c3.6,12.1-4.4,25.9,3.5,37c2.1,8.8-0.7,17.8-0.4,26.6c-1.5,6.4-4.4,13.3-0.2,19.4
		c2.1,5.5,1.9,11.7,0.8,17.3c5.7,13.7,0.5,28.7-0.7,42.7c-2.3,6.2,4.1,11.1,3.1,17.4c5.1,4.3,4.8,12.5,0.9,17.3
		c6.6,4.8,10.2,13.6,9.8,21.4c9.8-0.6,21.4-9.1,30.1-1c1.1,4.3,5.7,4.3,8.2,7.7c3.7,3.8,6.4-3.9,10.3-5c7.5-4.9,16.8-1.4,25.1-2.6
		c4.2,0.1,8.6,1.4,11.3,4.8c5.7-4.8,13.5-2.2,20.2-3.9c7.6-1,15.4,2.1,19.1,8.9c5.8,4.8,13.6,0.2,20.3,1.8c13.7,1.8,27.1,2,40.8,1.5
		c25.8,0,51.7,0,77.6,0c0.5-11.3-2.3-23.5,1.1-34.4c6.1-5.7,14.4,2.3,14,9.2c0.9,8.5,2.8,16.9,4.8,25.2c20.4-0.3,41.4,0.7,61.4-0.5
		c0.4-6.7,6.5-15.1,13.8-10.6c4.1,2.1,3.6,7.6,4.2,11c3.8,1.6,5.7,0.3,4.8-3.9c-0.2-6.5,3.5-16.4,11.7-13.9
		c7.2,3.2,4.9,12.1,7.8,17.8c58.3,0.2,117,0.4,175-0.1c3.9-9.2,17.1-16.7,25.5-8.7c3.7,6.2,10.2,10,17.6,9.2
		c6.2-0.4,8.9-7.8,15.3-8.3c5.8-2,11.9,0.4,16.9,2.7c3.8-3.2,8.7-5.9,13.8-3.4c3.7,1.6,8.1,1.8,10.4-2.1c9.5-5.7,23.8,0.5,25.4,11.3
		c12.5-1.7,25.3,0.2,38-0.5c50.5-0.1,101.2,0.2,151.6-0.1c1-4.8,5.8-7.1,9.2-9.3c2.9-6.5,12.9-6.2,15.9,0.1
		c-3-16.4,3.8-33.5-2.6-49.5c-1.6-7.3,9.6-13.7,13.5-6c2.8,9.5,2.4,19.7,6.6,29c3.6,10.1,6.7,21.1,7.9,31.4
		c4.1,1.2,5.1,6.9,10.2,4.8c37-0.9,74.5,0.5,111.2-0.6c2.2-5.9,5.2-14,13.1-12.4c5,0,10.4,2.8,15,2.5c0.5-6,7.2-7.6,9.6-12.5
		c3.1-3.8,9.4-3.9,12.7-1.8c0.4-5.6,8.1-6.4,10.1-9.5c-2.3-5-0.9-11.4,3.3-14.7c-0.5-9.3-4.6-22.5,5-28.5
		C1142.5,729.9,1145.4,730.6,1146.4,729.4L1146.4,729.4L1146.4,729.4z"/>
	<path id="path4373" class="st2" d="M665.9,799.5C541.5,697.5,438,570,364.3,426.9C297.8,297.7,255.5,156.1,240.1,11.6
		c-0.9-0.6-1.8-1.4-2.6-2.3c-11.6,0.1-23.3,1.5-34.9,2.5c-8.4,0.5-16,5.1-24.2,5.7c-5.5-0.4-8-6.9-8-10.9c-17.4,1.4-35-0.1-52.5,0.3
		c-9,0.3-18.7-0.4-27.2,0.9c-6.3,9.2-18.7,4.2-27.8,4.4c-7.7-0.3-16.5-2.5-23.6,0.4c-1.5,3.1-6.4,2.8-4.9,6.9
		c-0.1,5.9-8.2,8.4-5.9,14.4c0.6,4.4-4.7,6.2-7.5,6.3c0.8,5.6-7.1,7.5-6.8,12.4c4.8,8.6,2.3,18.6-0.4,27.4
		c0.7,6.7,0.8,13.8-3.7,19.3c-6.1,9.6-1.7,21.2-3,31.8c0.1,155.2-0.2,310.5,0.2,465.7c3.6,12.1-4.4,25.9,3.5,37
		c2.1,8.8-0.7,17.8-0.4,26.6c-1.5,6.4-4.4,13.3-0.2,19.4c2.1,5.5,1.9,11.7,0.8,17.3c5.7,13.7,0.5,28.7-0.7,42.7
		c-2.3,6.2,4.1,11.1,3.1,17.4c5.1,4.3,4.8,12.5,0.9,17.3c6.6,4.8,10.2,13.6,9.8,21.4c9.8-0.6,21.4-9.1,30.1-1
		c1.1,4.3,5.7,4.3,8.2,7.7c3.7,3.8,6.4-3.9,10.3-5c7.5-4.9,16.8-1.4,25.1-2.6c4.2,0.1,8.6,1.4,11.3,4.8c5.7-4.8,13.5-2.2,20.2-3.9
		c7.6-1,15.4,2.1,19.1,8.9c5.8,4.8,13.6,0.2,20.3,1.8c13.7,1.8,27.1,2,40.8,1.5h77.6c0.5-11.3-2.3-23.5,1.1-34.4
		c6.1-5.7,14.4,2.3,14,9.2c0.9,8.5,2.8,16.9,4.8,25.2c20.4-0.3,41.4,0.7,61.4-0.5c0.4-6.7,6.5-15.1,13.8-10.6
		c4.1,2.1,3.6,7.6,4.2,11c3.8,1.6,5.7,0.3,4.8-3.9c-0.2-6.5,3.5-16.4,11.7-13.9c7.2,3.2,4.9,12.1,7.8,17.8c58.3,0.2,117,0.4,175-0.1
		c3.9-9.2,17.1-16.7,25.5-8.7c3.7,6.2,10.2,10,17.6,9.2c6.2-0.4,8.9-7.8,15.3-8.3c5.8-2,11.9,0.4,16.9,2.7
		C662.6,801.5,664.2,800.3,665.9,799.5L665.9,799.5z M456.3,683c0.1,4.3-0.3,8.5-1.5,9.7c-2,2-1.5-2.1-5,5c-1.2,2.3-0.3,6.4-1.7,9.1
		c-0.1,0.1-0.2,0.4-0.3,0.5c0.2,0.7,0.1,1.9-0.5,1.9v4.2c0,0.9,0.5,33.7-5.8,27.4c-8.5-8.5-9.4-32.7-10.8-34
		c-0.3-0.3-2.3,7.3-2.5,8.3c-0.4,2-6.3,24.4-10.8,19.9c-1.4-1.4-1.7-5.5-2.5-7.5c-3.3-8.2-4.7-19.5-5.8-28.2
		c-1.3-10.2-5.8-19.9-7.5-29.9c-0.2-1-0.8-8.4,0-9.1c1.1-1.1,4.5,7.9,5,7.5c1.8-1.8-0.5-7,1.7-9.1c2-2,6.3,3.1,9.1,1.7
		s4.7-10.3,6.6-13.3c5.5-8.2,14.2,10.4,12.5,15c0,1.6,0.8,7.5,1.7,7.5c0.5,0,1.7-3.3,3.3-1.7c1.4,1.4,3.7,6.8,6.6,8.3
		c2.2,1.1,3.4-9.7,6.7-3.3C455.6,674.3,456.2,678.7,456.3,683L456.3,683z M447.4,709.3v-0.8c0,0,0-0.1,0-0.2
		C447,708.8,446.9,709.3,447.4,709.3z M447.3,708.3c0.2-0.3,0.3-0.6,0.5-0.9c-0.1-0.3-0.3-0.5-0.5-0.5
		C446.9,706.8,447.3,707.7,447.3,708.3L447.3,708.3L447.3,708.3z M300.9,523.3c0,7.4-2.7,19.6-5.5,22.4c-1.3,1.3-7.3,7-9.1,3.3
		c-8.8-17.7-6.7-36.6-6.7-55.6c0-1.9-1.4-11.9,0-13.3c1.6-1.6,3.2,3.7,4.2,4.2c3,1.5,3.7-4.6,5.8-2.5c4.5,4.5,5.1,13.8,6.6,19.9
		c0,4.7,2.5,12.6,4.2,17.4C300.7,520.1,300.9,521.6,300.9,523.3L300.9,523.3z M230.9,243.9c0,0.5-0.2,1.3-0.6,1.8
		c0,5.5,1.1,20.2,0.2,21c-0.6,0.6-3.7-8.9-5-5c-0.2,0.8-1.7,7.1-2.4,11.6c0.3,1.8,1.3,4.2-0.1,4.2c-0.4,0-0.3-1.8,0.1-4.2
		c0,0,0-0.1,0-0.1c0,0.1,0,0.2-0.1,0.2c-0.8,0.8-1.2,3.2-1.7,5c-3.1,12.3-1.2,25.7-3.3,38.2c-0.1,0.8,0,14.1-1.7,12.5
		c-1.3-1.3-5.8-36.2-5.8-39.9c0-2.9-0.8-5.3-0.8-8.3c0-1.1,1.1-3.3,0-3.3c-0.4,0-1.2,2.8-3.3,1.7c-2.2-1.1-3.3-11.1-3.3-13.3
		c0,0-0.1,2.9-0.8,5c-0.2,0.6-3.7,20.9-7.5,13.3c-8.8-17.6-6.7-39.9-6.7-59.8c0-2.2-1.4-11.9,0-13.3c0.4-0.4,2.2,6.4,6.7,4.1
		c4-2,4.7-15.5,7.5-18.3c2.5-2.5,4.6,5.6,5,6.6c4.2,12.5,8.6,25.3,10,38.2c1.3,1,3,3.6,4.2,2.5c0.4-0.4,0.3-2.8,0.8-3.3
		c0.5-0.5,1.9-0.3,2.5-0.8c0.2-0.2-0.5-5.5,1.7-3.3c1.6,1.6,1.5,7.3,3.3,9.1c0.2,0.2,0.4,0,0.6-0.2c0-1.3,0.1-2.2,0.2-2.2
		C230.8,243.4,230.9,243.6,230.9,243.9L230.9,243.9z M154.4,704.6c0,4-0.8,7.3-1.9,13.8c-1.4,8.3-0.8,20.4-0.8,29.1
		c0,1.8,0.3,9.8-1.7,10.8c-1.5,0.8-2.5-5.4-2.5-6.6c0-2.5-1.1-5.1-1.7-7.5c-0.4-1.6,0.4-3.4,0-5c-2.5-10.1-1.2-9.6-3.3-18.3
		c-0.2-1-0.2-7.5-0.8-7.5c-1,0-3.2,15.9-5.8,13.3c-1.8-1.8-0.4-9.1-0.8-11.6c-1-6.3-0.9-12.7-1.7-19.1c-1.5-12-3.3-24.3-3.3-36.5
		c0-10.5-3.8-17.5-5.8-27.4c-0.5-2.7,2-13,0-15c-0.3-0.3-1.5,11.4-1.7,12.5c-1.3,7.9-1.4,16.3-3.3,24.1c-0.3,1.2-2.1,7.8-2.5,7.5
		c-0.9-0.9-1.3-24.6-1.7-27.4c-1.9-17.1-3.4-34.5-5.8-51.5c-1.1-7.6,1.3-15.7,0-23.2c-1.2-7.5-2.5-14.8-2.5-22.4
		c0-2.2-1.5-13.4,0-15c2.4-2.4,1.4,21.2,4.2,15.8s5.6-34.7,7.5-36.5c1.7-1.7,3.9,7.8,4.2,9.1c0.7,3.6,1.2,7.2,1.7,10.8
		c0.8,5.8,3.8,11.5,4.2,17.4c0,4.1,5.2,9.4,7.5,11.6c0.5,0.5-0.2,3.6,0,4.2l2.5,7.5c0,0.1,0,0.3,0,0.5c1,1.2,1.3,4.5,0,4.5
		c-0.1,0,0.1-3.3,0-4.5c-0.2-0.3-0.5-0.5-0.9-0.5c-1.3,0-0.8,9-0.8,10c0,1.6,1.2,10.4,0,11.6c-2.3,2.3-3.1-9.1-4.2-9.1
		c-0.5,0,0,1.1,0,1.7c0,2.3-0.5,5.2,0,7.5c2.5,12.5,4.8,25.5,6.6,38.2c0.7,5,1.7,10.8,1.7,15.8v5.8c0,0.5-0.5,1.7,0,1.7
		c2.1,0,1.7,1.7,2.5,5c0.6,2.3,0.9,17.5,1.7,18.3c2.6,2.6,2.7-21.4,5-19.1c0.9,0.9,2.3,42.3,3.3,47.3
		C154.1,699.6,154.4,702.2,154.4,704.6L154.4,704.6L154.4,704.6z M87,291.1c0,2.7,0,4.5-0.1,4.6c-1.7,1.7-2.7-10.6-4.2-9.1
		c-2,2-1.7,15.4-1.7,17.4c0,9-0.8,19.5-0.8,29.1v5.8c0,0.2,0,0.4-0.1,0.6c0.1,0.6,0.1,1.1,0.1,1.1c-0.4,0-0.2-0.6-0.1-1.1
		c-0.4-2.5-1.5-8.5-1.6-8.9c-1-5.8-2.3-11.6-3.3-17.4c-1.2-7.3-3.6-14.5-5-21.6c-0.1-0.4,0-5.3,0-7.9c-0.1-1.1,0-2.1,0-2.1
		c0,0,0,1.4,0,2.1c0.1,1.7,0.3,3.7,0.8,3.7c1.6,0,0.8-14.8,0.8-16.6c0-7.1,1.7-14.4,1.7-21.6c0-1,0-9.1,0.8-8.3
		c2.5,2.5,3.9,16.9,5,20.8c3,5.9,3.3,1.6,6.6,5C86.5,267,87,282.9,87,291.1L87,291.1L87,291.1z"/>
	<path id="path4381" class="st3" d="M1146.4,729.4c-0.6-45.4,0.2-91-0.1-136.5c-0.1-149.9,0.1-299.9-0.1-449.8
		c-4-5.2-2.7-13.2-8.7-16.9c-4-7.8,3.1-17.1-2.8-24.3c-3.8-10.9,1-22.5,1.8-33.2c-5.9-0.2-8.2-5.7-11.3-9.8c-3-2.9-8.9-2.9-8.9-8.3
		c-1.3-6.4,6.3-9.7,4.9-15.9c0.4-5.5-0.6-16.7-8.4-14.5c-11.1,2-25.9,8.1-35.5-1.6c-1.1-3.7-6.3-1-9.2-2.3
		c-8.5-1.2-18.1,5.1-25.4-1.9c-3.1-1.4-2.6-6.8-4.9-7.4c-68.8,0.4-137.7,0-206.5,0.2c0.5,7.2-7.2,15.4-14,9.5
		c-2.7-1.2-3.1-6.2-4.6-6.9c-3.7,2.5-8.3,2.4-11.8,5C858.8,56,911,104.9,956,159.8c130.8,159.8,195.4,371.4,179.9,577
		c0.9-2.4,2.5-4.5,5-6C1142.5,729.9,1145.4,730.6,1146.4,729.4L1146.4,729.4z M1143.5,210c-0.1,4.1-0.4,8.1-1,11.8
		c-0.6,3.8-7.2,18.6-11.6,14.1c-3.7-3.6-1-13.6-3.3-18.3c-0.5-1.1-1.6,4.1-1.7,4.1c-1.3,1.3-3.4-9.9-4.2-9.1
		c-3.9,3.9-2.3,23.1-7.5,25.7c-3.6,1.8-0.1-5.4,0-5.8c0.7-2.2,0-6,0-8.3c0-13.9-1.9-27.4-4.2-40.7c-0.4-2.5-0.4-5-0.8-7.5
		c-0.5-2.8,1.5-14.3,0-8.3c-0.8,3.3-3,33.7-10.8,14.1c-5.3-13.3-12-44.8-5.8-57.3c2.4-4.9,6.9,13.4,8.3,14.1
		c7.8,3.9,11.4-34.8,16.6-19.1c0.8,2.2-0.6,5.2,0,7.5c0.7,2.7,1.2,5.5,1.7,8.3c0.5,3-1.4,6.3,0.8,9.1c-0.1,0.6-1.9,7.3-0.8,8.3
		c4.2,4.2,4.7,27.1,9.1,31.6c0.9,0.9,3.1-3.4,5-2.5c3.3,1.7,3.1,8.1,5.8,10.8c1.3,1.3,0.6-5.7,1.7-2.5
		C1142.8,196.2,1143.6,203.2,1143.5,210L1143.5,210z M1135.9,759.2c-0.2-3.1-0.7-6.7-1.1-10.2c-0.4,4.3-0.8,8.5-1.3,12.8
		C1134.2,760.8,1135,759.9,1135.9,759.2L1135.9,759.2z M1132.6,773.9c-0.1-0.2-0.2-0.5-0.3-0.8c-0.1,0.4-0.1,0.9-0.2,1.3
		C1132.3,774.3,1132.5,774.1,1132.6,773.9L1132.6,773.9z M1068,259.3c0.1,1-0.3,2.1-0.3,3.2l-0.7-4.8c-0.8-0.5-2.1-0.5-2.6-1
		c-1.1-1.1-0.9-4.2-2.5-5c-1.3-0.7-2,4.6-4.2,2.5c-0.6-0.6-1.9-6.6-2.5-6.6c-1.4,0,0.8,17.9-3.3,15.8c-7.2-3.6-12.5-44.1-12.5-52.3
		c0-1.7,0.4,3.4,0.8,5c1,3.9,1.3,8,2.5,11.6c2.3,7,2.5-12.5,4.2-10.8c0.2,0.2,3.2,20.9,5.8,18.3c4.2-4.2,0.5-20.4,4.2-24.1
		c1.8-1.8,3.1,10.2,3.3,10.8c3,10.6,4.3,21.5,5.8,32.4c0.1,0.9,0.6,1.7,0.8,2.5l0.1,1c0.3,0.2,0.5,0.4,0.7,0.7
		C1067.9,258.6,1067.9,259,1068,259.3L1068,259.3z M1028.7,82.3c0,5.5-0.3,9.1-1.7,13.3c-0.7,2.1-2.1,8.1-4.2,9.1
		c-5.3,2.7-15.2-10.2-17.4-12.5c-1.1-1.1-3.1-22.6-1.7-24.1c4-4,7.2,8,10,6.6c3.2-1.6-0.1-9.1,3.3-10.8c2.1-1,5.2,2.4,5.8,4.1
		c0.2,0.6,0.1,0.8-0.1,0.8c0.8,0.8,1.8,1.8,3.4,3.3C1027.1,75.9,1028.7,78.6,1028.7,82.3L1028.7,82.3z M934.4,72.3
		c0,0.4-0.1,0.8-0.4,0.8c-0.9,0-1.8-0.3-2.7-0.6c-0.2,0-0.5,0-0.7-0.2c-0.2-0.1-0.2-0.3-0.2-0.5c-0.8-1.7-1.3-3.7-1.7-5.8
		c-2.2-1.8-4.9-3.5-5.6-2.8c-3.5,3.5-8.5,1-9.1,1.7c-1.9,1.9,1.6,12.4-8.3,9.1c-6.7-2.2-12.5-13.5-14.1-19.9c-0.5-2-0.8-3.5-0.8-5.8
		c0-0.4,0.2-0.9,0.2-1.3c-0.2-0.2-0.4-0.4-0.2-0.4c0.2,0,0.2,0.2,0.2,0.4c0.2,0.2,0.5,0.4,0.6,0.5c1.1,1.1,3,4,5,5
		c1,0.5,4.4,1,5,1.7c0,0,1.5,4.3,2.5,3.3c1.6-1.6-1.1-8.6,1.7-10s8.6,9.9,10.8,3.3c0.4-1.2,1.9-12.2,5-9.1c5.4,5.4,5.5,16,7.2,24.4
		c1.5,1.2,2.8,2.5,2.8,3c0,0.9-1.1,2-1,2.8c0.1,0.2,0.1,0.3,0.2,0.5c0.2,0.1,0.4,0.1,0.7,0.2c0.8-0.1,1.8-1,2.7-1
		C934.3,71.5,934.4,71.9,934.4,72.3L934.4,72.3z"/>
	<path id="path4421" class="st4" d="M1045.3,519.1c-2.4-14.1-4-29.9-9.4-43.5l-2.3-5.9c-7.8-19.4-10.1,4.9-17.6,1.2
		c-7.6-3.8-7.3-17.2-15.3-21.1c-4-2-4.1,3.5-5.9,3.5c-1.2,0,0.3-2.4,0-3.5c-0.8-3.2-1.8-4.9-2.3-8.2c-1.5-9-8-31.2-11.7-38.8
		c-1.8-3.6-3.1-20.4-3.5-24.7c-1.9-17-7-34.7-12.9-50.5c-1.7-4.5-4.9-15.7-10.6-17.6c-9.9-3.3-9.1,15.9-8.5,25.8
		c-1.7-11.5-4.8-22.8-8-34c-0.7-2.4-2.9-13.2-5.9-11.7c-3.4,1.7-4.2,27.3-4.7,31.7c-4.6,41.2-2.2,83.5,2.3,124.5
		c1.2,10.7,4.1,21.3,5.9,31.7c0.6,3.5,3.5,7.1,3.5,10.6c0,1.8,1.8,6.8,3.5,5.9c4.1-2,4-24.2,4.7-28.2c0.3-1.8,2-15.6,2.3-15.3
		c1.4,1.4-1.4,6.8,0,8.2c1.2,1.2,2.2-7,2.3-7c2.7,0,2.1,11.4,2.3,12.9c2.5,17.2,6.3,34.3,8.2,51.7c1.4,12.3,0.6,25.3,2.3,37.6
		c1.1,7.5,2.3,15.9,2.3,23.5c0,1.1,1.2,14.1,2.3,14.1c1.4,0,3.3-10.5,3.5-11.7c2.6-15.8,0.9-32.4,3.5-48.2
		c0.2-1.1,1.7-10.6,3.5-10.6c0.2,0-0.3,36.1,0,38.8c3.6,32.8,5.3,65.9,9.4,98.7c0.6,4.7,0.4,34.5,3.5,37.6
		c3.3,3.3,3.5-31.9,3.5-32.9c0-6.2-0.2-52.6,2.3-55.2c2.8-2.8-0.3,22.6,1.2,21.1c3.2-3.2,1.3-16.5,3.5-18.8
		c0.6-0.6,3.1,11.2,3.5,12.9c0.7,2.6,2.1,9.3,4.7,10.6c2,1,2.3-9.2,2.3-8.2c0,6-0.3-1.4,1.2,4.7c0.3,1.2,1.8,14.6,4.7,11.7
		c2.7-2.7,1.2-32.7,1.2-37.6c0-13.6-0.5-34-2.3-47c-0.4-2.7-0.8-5.2-1.1-7.7c0.8,1.9,1.7,3.6,2.3,3c1.9-1.9,0-16.2,0-18.8v-14.1
		c0-2.7-2.7-8.2,0-8.2c0.7,0,2.9,13.5,7.1,9.4c2.7-2.7-0.3-10.3,2.3-12.9c0.6-0.6,3.5,10.5,4.7,11.7c1.9,1.9,3.2-2,3.5-2.3
		C1039,516,1042.6,518.5,1045.3,519.1L1045.3,519.1z M1016.8,541.6c-0.1,0.7-0.3,1.6-0.5,2.5c-0.3-2.2-0.5-3.8-0.4-3.8
		C1016.6,540.3,1016.8,540.8,1016.8,541.6L1016.8,541.6z M794.1,736.7c-0.1-7.3-2.5-13.4-4.8-20.3c-1-3-1-5.5-2.3-8.2
		c-5-10-2.5,4.2-5.9,5.9c-1.8,0.9-8.1-12-9.4-9.4c-2.5,5,1.1,45.7,4.7,49.3c1.2,1.2,8.1,8.3,10.6,5.9c4.4-4.4-2.4-12.9,7.1-20
		C794,738.8,794.1,737.7,794.1,736.7L794.1,736.7z M751.2,330.2c-0.1-5.7-0.6-10.5-1.9-13.1c-1.5-3.1-2.9,7.6-3.5,8.2
		c-1.3,1.3-3.6-4.7-4.7-4.7c-2.8,0-2.6,10.8-5.9-2.3c-4.7-51.8-12.3-104.2-18.8-156.2c-3.1-24.7,1.7-23.6-5.9-38.8
		c-0.4-0.7-0.7-4.3-1.2-4.7c-2.3-2.3-2.9,24.7-7.1,24.7c-2.6,0-5.1-19.9-5.9-22.3c-4.8-14.3-8.2-29.4-12.9-43.5
		c-1.6-4.9-3.3,1.5-5.9-3.5c-1.1-2.1-6.5-17-9.4-14.1c-1.7,1.7,0,15.5,0,17.6c0,23,2.8,45.3,4.7,68.1c1.1,13.4-0.3,26.6,2.3,39.9
		c0.7,3.6,4.8,43.4,9.4,41.1c2.2-1.1,5.4-29.8,12.9-22.3c3.2,3.2-0.9,50.7,0,58.7c2.5,22.3,4.3,56.9-1.2,78.7
		c-2.6,10.5,2.3,23.7-1.2,34.1c-0.3,0.8-0.3,2.3-1.2,2.3c-1.5,0-2.1-4-3.5-4.7c-1.5-0.7-1.6,10-1.2,11.7c1,4.2,7.4,20,12.9,20
		c4.9,0,5.3-0.7,7.1-5.9c0.8-2.3,1.2-9.4,1.2-7c0,12.4,3,29.4,8.2,39.9c0.5,0.9,3.2,23.7,3.5,25.8c2.6,18.1,8.3,35.9,10.6,54
		c0.7,5.9,2.1,28,5.9,31.7c4.8,4.8,5.9-28.6,5.9-29.4c0-2.7-0.2-23.3,1.2-24.7c0.6-0.5,1.8,0.5,2.3,0c1.7-1.7,0.3-16.6,0-18.8
		c-1.6-11.3-3.3-22.7-4.7-34.1c-0.9-7.6-4.6-14.8-5.9-22.3c-0.8-4.8,1.1-16.7-1.2-21.1c-3.2-6.4-1.5-20.6-3.5-24.7
		c-2.3-4.6-3.2-8.4-4.7-12.9c-1-2.9,0-9.4,1.2-10.6c3.3-3.3,20,27.3,20,22.3C749.3,359.7,751.3,342.8,751.2,330.2L751.2,330.2z
		 M552.1,402.6c-0.1-5.8-2.8-27.1-3.6-27.9c-1.8-1.8-1.2-1.2-4.7-5.9c0.8-8.9-2.3-17.2-3.5-25.8c-0.3-2-6.8-29.4-7-29.4
		c-1.4,0-2.3,16-2.3,17.6c0,7.6,0,17.5-2.3,24.7c-1.2,3.7-0.8-0.4-2.3,1.2c-1,1-0.2,10.7,0,11.7c2,12.2,6.7,24.1,8.2,36.4
		c0.9,6.9,1.5,21.5,5.9,25.8c3.2,3.2,3.4-22.7,3.5-23.5c1.4-8.5,1.2,0.4,1.2-5.9c0-1,0.6-5.6,2.3-4.7s4.3,7.5,4.7,7
		C552.1,403.9,552.1,403.4,552.1,402.6L552.1,402.6z M410.2,158.6c0-2.7-1.2-5.2-3.9-7.1c-9.6-6.4-10.5,0-14.1-1.2
		c-3.3-1.1-5.3-3.2-8.2-4.7c-1.9-1-5.6,0.2-7-1.2c-3.6-3.6,9.5-7.1,10.6-8.2c4.1-4.1-16.5-11.2-20-12.9c4.5-8.5-5.9-39.9-15.3-35.2
		c-3.7,1.8-5.5,12.9-8.2,16.4c-4.7,6.3-11.5,16.2-9.4,24.7c2.6,10.5,27.4,33.2,36.4,39.9c3.5,2.6,13.3,3.5,17.6,3.5
		c3.2,0,7.5,0.8,10.6,0C405,171.2,410.3,164.5,410.2,158.6L410.2,158.6z"/>
</g>
</svg>
