<?xml version="1.0" encoding="UTF-8"?><svg id="chest" xmlns="http://www.w3.org/2000/svg" xmlns:xlink="http://www.w3.org/1999/xlink" viewBox="0 0 2072.73 1166.38"><defs><style>.cls-1{fill:url(#gol);}.cls-1,.cls-2,.cls-3,.cls-4,.cls-5,.cls-6,.cls-7,.cls-8,.cls-9,.cls-10{fill-rule:evenodd;}.cls-2{fill:url(#gol-3);}.cls-3{fill:url(#gol-2);}.cls-4{fill:url(#gol-4);}.cls-5{fill:url(#dark);}.cls-6{fill:url(#chest-5);}.cls-7{fill:url(#chest-3);}.cls-8{fill:url(#chest-4);}.cls-9{fill:url(#chest-2);}.cls-10{fill:url(#dark-2);}</style><linearGradient id="gol" x1="371.28" y1="321.97" x2="389.58" y2="147.87" gradientTransform="translate(732.76) rotate(-180) scale(1 -1)" gradientUnits="userSpaceOnUse"><stop offset="0" stop-color="#f0ce8d"/><stop offset=".36" stop-color="#e8c483"/><stop offset=".97" stop-color="#d4ab6b"/><stop offset=".99" stop-color="#d3aa6a"/></linearGradient><linearGradient id="dark" x1="379.58" y1="148.42" x2="379.58" y2="307.42" gradientTransform="translate(732.76) rotate(-180) scale(1 -1)" gradientUnits="userSpaceOnUse"><stop offset="0" stop-color="#604829"/><stop offset=".39" stop-color="#564024"/><stop offset=".99" stop-color="#3f2c18"/></linearGradient><linearGradient id="gol-2" x1="319.82" y1="213.98" x2="418.04" y2="43.86" xlink:href="#gol"/><linearGradient id="gol-3" x1="541.38" y1="253.53" x2="630.71" y2="201.96" xlink:href="#gol"/><linearGradient id="chest-2" x1="540.72" y1="262.26" x2="592.62" y2="200.4" gradientTransform="translate(732.76) rotate(-180) scale(1 -1)" gradientUnits="userSpaceOnUse"><stop offset="0" stop-color="#987b4b"/><stop offset=".26" stop-color="#8e7245"/><stop offset=".7" stop-color="#755b35"/><stop offset=".99" stop-color="#604829"/></linearGradient><linearGradient id="chest-3" x1="370.52" y1="134.34" x2="373.45" y2="106.51" xlink:href="#chest-2"/><linearGradient id="chest-4" x1="267.93" y1="395.42" x2="267.93" y2="622.42" xlink:href="#chest-2"/><linearGradient id="chest-5" x1="480.61" y1="395.42" x2="480.61" y2="612.42" xlink:href="#chest-2"/><linearGradient id="dark-2" x1="340.08" y1="298.69" x2="340.08" y2="421.47" xlink:href="#dark"/><linearGradient id="gol-4" x1="347.43" y1="286.42" x2="347.43" y2="636.42" xlink:href="#gol"/></defs><g><polygon class="cls-1" points="566.32 124.42 237.32 164.42 138.32 345.42 474.32 286.42 566.32 124.42"/><polygon class="cls-5" points="523.32 148.42 259.32 184.42 183.03 307.42 460.32 266.42 523.32 148.42"/><path class="cls-3" d="M161.32,132.42l75,32,330-39-31-24c-4-3-14.75-8.28-20.83-10.2-8.48-2.7-17.89-4.5-28.17-4.8-21.45-.62-49.91,5.23-50,12-.01,.59,.2,1.21,.67,1.84l-200.32,23.37c-7.36-1.75-15.28-3.21-23.35-3.21-32,0-47.23,10.41-52,12"/><path class="cls-2" d="M238.32,164.42l-100,181s-60-59-29-149c43.57-126.5,129-32,129-32Z"/><path class="cls-9" d="M205.32,194.42l-54,102s-30-21.59-13-80.8,67-21.2,67-21.2Z"/><polygon class="cls-7" points="490.32 119.42 436.32 98.42 231.32 122.42 266.32 144.42 490.32 119.42"/></g><g><polygon class="cls-8" points="327.32 441.42 354.32 622.42 576.32 560.42 602.32 395.42 327.32 441.42"/><polygon class="cls-6" points="301.32 441.42 183.03 395.42 226.32 576.42 321.26 612.42 301.32 441.42"/><polygon class="cls-10" points="602.32 356.42 471.9 298.69 183.03 351.5 313.32 421.47 602.32 356.42"/><path class="cls-4" d="M474.32,286.42l158,66-44,215-243,69-138-62-69-229,336-59Zm-91,326l174-47,24-157-74,17-7,37-47,10v-37.41l-80,20.41,10,157Zm90-151l12-2-1.93-12.54c2.69-1.61,4.71-4.9,3.93-8.46-.91-4.15-5.16-6.62-9-6-2.73,.44-5.09,2.42-6,5-1.25,3.52,.34,7.77,4,10l-3,14Zm107-111l-108-43-269,47,119,51,258-55Zm-342,222.72l75,28.28-30-149-90-36,45,156.72Z"/></g></svg>