<?xml version="1.0" encoding="UTF-8"?><svg id="coral" xmlns="http://www.w3.org/2000/svg" xmlns:xlink="http://www.w3.org/1999/xlink" viewBox="0 0 2072.73 1166.38"><defs><style>.cls-1{fill:url(#blue);}.cls-2{fill:url(#blue-4);}.cls-3{fill:url(#blue-2);}.cls-4{fill:url(#blue-3);}.cls-5{fill:url(#blue-8);}.cls-6{fill:url(#blue-7);}.cls-7{fill:url(#blue-6);}.cls-8{fill:url(#blue-5);}.cls-9{fill:url(#blue-9);}</style><linearGradient id="blue" x1="129.51" y1="272.82" x2="207.63" y2="272.82" gradientUnits="userSpaceOnUse"><stop offset="0" stop-color="#98c5cc"/><stop offset=".15" stop-color="#8ebec6"/><stop offset=".39" stop-color="#75abb9"/><stop offset=".69" stop-color="#4c8da2"/><stop offset=".99" stop-color="#1d6b89"/></linearGradient><linearGradient id="blue-2" x1="174.85" y1="366.89" x2="249.35" y2="366.89" xlink:href="#blue"/><linearGradient id="blue-3" x1="180.05" y1="244.57" x2="217.75" y2="244.57" xlink:href="#blue"/><linearGradient id="blue-4" x1="207.35" y1="241.78" x2="294.93" y2="241.78" xlink:href="#blue"/><linearGradient id="blue-5" x1="100.43" y1="286.37" x2="199" y2="286.37" xlink:href="#blue"/><linearGradient id="blue-6" x1="198.81" y1="224.22" x2="237.25" y2="224.22" xlink:href="#blue"/><linearGradient id="blue-7" x1="205.74" y1="251.09" x2="274" y2="251.09" xlink:href="#blue"/><linearGradient id="blue-8" x1="124.52" y1="231.76" x2="208.25" y2="231.76" xlink:href="#blue"/><linearGradient id="blue-9" x1="214.34" y1="295.33" x2="311.22" y2="295.33" xlink:href="#blue"/></defs><path class="cls-1" d="M203,366.64c11.86-22.77-1.1-53.8-15.84-72.29-12.33-15.46-25.61-28.64-34.98-46.4-10.73-20.34-11.71-40.93-5.27-62.67,1.92-6.49-8.2-11.44-11.11-4.97-14.33,31.9-2.2,65.68,16.69,92.79,9.84,14.12,23.84,24.9,32.91,39.41,9.24,14.78,14.19,34.01,11.44,51.38-.55,3.47,4.22,6.5,6.17,2.76h0Z"/><path class="cls-3" d="M175.24,364.63c6,8.6,20.3,9.2,29.79,9.74,12.78,.72,27.2-.12,39.74-2.88,6.85-1.51,5.7-12.57-1.4-12.33-10.42,.34-20.92,2.36-31.34,3.18-11.95,.95-22.57-.51-34.25-1.93-2.05-.25-3.72,2.52-2.54,4.22h0Z"/><path class="cls-4" d="M204.21,372.69c17.33-34.71,14.63-80.63,10.29-117.96-5.28-45.38-16.18-89.83-22.17-135.11-1.06-8.01-13.31-4.89-12.21,3.09,5.57,40.33,15,80,21.26,120.22,3.43,22.02,5.21,44.15,5,66.44-.2,21.08-5.12,40.89-8.18,61.56-.47,3.18,4.62,4.56,6.01,1.77h0Z"/><path class="cls-2" d="M212.27,362.3c6.01-24.62,8.3-49.61,25.27-69.67,13.5-15.95,30.69-27.59,41.93-45.57,22.4-35.78,15.28-83.16,10.3-122.68-1.05-8.32-13.69-5.05-12.65,3.2,5.5,43.69,11.48,92.26-19.67,128-12.8,14.69-28.06,26.37-37.98,43.47-11.01,18.97-9.41,41.55-12.11,62.46-.36,2.82,4.24,3.49,4.91,.78h0Z"/><path class="cls-8" d="M198.82,367.37c-11.23-24.87-35.17-45.27-51.74-66.68-21.03-27.2-34.69-57.17-35.09-92-.09-7.44-11.65-7.71-11.56-.25,.39,33.62,11.64,63.17,31.37,90.15,8.8,12.02,19.13,22.76,29.26,33.65,11.42,12.28,22.36,26.22,35.15,37.06,1.43,1.2,3.4-.19,2.62-1.93h0Z"/><path class="cls-7" d="M206.44,360.13c-.97-23.83,1.44-45.84,7.52-68.94,6.05-22.97,14.1-45.31,19.27-68.53,9.56-42.89,.41-89.52-10.26-131.32-2.18-8.54-15.51-5.2-13.27,3.36,11.91,45.55,19.18,91.98,8.18,138.4-9.76,41.16-26.48,84.84-15.42,127.49,.56,2.16,4.08,1.88,3.99-.46h0Z"/><path class="cls-6" d="M209.27,361.62c33.2-9.97,46.72-55,55.46-84.31,6.34-21.27,9.68-42.73,9.23-64.94-.44-22.01-1.62-46.36-6.4-67.84-1.45-6.54-10.1-4.57-10.88,1.24-2.58,19.07,1.73,39.17,3.05,58.29,1.47,21.22-.42,42.05-5.99,62.61-4.42,16.29-9.27,32.48-16.21,47.9-7.53,16.74-18.23,29.25-30.97,42.17-1.95,1.98-.17,5.76,2.71,4.89h0Z"/><path class="cls-5" d="M208.24,350.58c-5.8-81.36-25.54-165.39-68.36-235.86-5.4-8.89-19.59-1.08-14.15,7.87,41.36,68.06,62.89,150.97,78.08,228.49,.48,2.46,4.61,2.04,4.43-.5h0Z"/><path class="cls-9" d="M220.57,365.75c17.86-21.08,44.39-31.94,61.39-53.55,17.84-22.68,28.89-54.09,29.26-83,.08-5.89-8.89-7.54-10.38-1.63-7.59,30.21-11.98,59.89-34.22,83.65-16.97,18.13-41.66,26.87-52.04,50.87-1.43,3.29,3.7,6.37,5.99,3.66h0Z"/></svg>