<?xml version="1.0" encoding="utf-8"?>
<!-- Generator: Adobe Illustrator 27.0.1, SVG Export Plug-In . SVG Version: 6.00 Build 0)  -->
<svg version="1.1" id="coral" xmlns="http://www.w3.org/2000/svg" xmlns:xlink="http://www.w3.org/1999/xlink" x="0px" y="0px"
	 viewBox="0 0 267.5 163" style="enable-background:new 0 0 267.5 163;" xml:space="preserve">
<style type="text/css">
	.st0{fill:url(#SVGID_1_);}
	.st1{fill:url(#SVGID_00000021801661534664887060000015505234135396169393_);}
	.st2{fill:url(#SVGID_00000179613731316140606400000013947777684794367388_);}
	.st3{fill:url(#SVGID_00000151526812671185714460000015996408891329906084_);}
	.st4{fill:url(#SVGID_00000103956764845668304780000006968109852507424128_);}
	.st5{fill:url(#SVGID_00000156580363575454428380000002433186601430122372_);}
	.st6{fill:url(#SVGID_00000078021255847678713340000004385341804715302020_);}
	.st7{fill:url(#SVGID_00000048476823363813462620000010372781099732259245_);}
	.st8{fill:url(#SVGID_00000110432878710768893520000007116435110351787170_);}
	.st9{fill:url(#SVGID_00000010273578018439812580000004435250633438951816_);}
	.st10{fill:url(#SVGID_00000159451927697468007060000012254242556852933528_);}
	.st11{fill:url(#SVGID_00000075134882437589704860000017397789572773755524_);}
	.st12{fill:url(#SVGID_00000157294293602331167720000018118141666147172737_);}
	.st13{fill:url(#SVGID_00000150804740731389751660000000000383302345088443_);}
	.st14{fill:url(#SVGID_00000176018652998637898540000012431558766422490031_);}
</style>
<linearGradient id="SVGID_1_" gradientUnits="userSpaceOnUse" x1="0" y1="884.0118" x2="126.9956" y2="884.0118" gradientTransform="matrix(1 0 0 -1 0 993.2335)">
	<stop  offset="0" style="stop-color:#98C5CC"/>
	<stop  offset="0.15" style="stop-color:#8EBEC6"/>
	<stop  offset="0.39" style="stop-color:#75ABB9"/>
	<stop  offset="0.69" style="stop-color:#4C8DA2"/>
	<stop  offset="0.99" style="stop-color:#1D6B89"/>
</linearGradient>
<path class="st0" d="M123.7,158c11.6-25.7-9.5-49.9-30.6-61.8C66.2,81.2,34.3,77.2,8.5,60c-6.2-4.1-12.1,6-5.8,10
	c21.6,13.9,47.6,19.2,71.2,28.7c12.3,4.9,24.2,11.3,33.2,21.2c9.8,10.7,8.9,24.2,11.4,37.5C118.9,159.7,122.7,160.2,123.7,158
	L123.7,158L123.7,158z"/>
<linearGradient id="SVGID_00000177480892200391060620000000484860618314917251_" gradientUnits="userSpaceOnUse" x1="109.5241" y1="836.1738" x2="168.1514" y2="836.1738" gradientTransform="matrix(1 0 0 -1 0 993.2335)">
	<stop  offset="0" style="stop-color:#98C5CC"/>
	<stop  offset="0.15" style="stop-color:#8EBEC6"/>
	<stop  offset="0.39" style="stop-color:#75ABB9"/>
	<stop  offset="0.69" style="stop-color:#4C8DA2"/>
	<stop  offset="0.99" style="stop-color:#1D6B89"/>
</linearGradient>
<path style="fill:url(#SVGID_00000177480892200391060620000000484860618314917251_);" d="M111,160.6c7.3,4.1,16.9,1.7,25,1.7
	c9.8,0,21.7,1.2,30.4-4.1c3.2-2,1.7-6.6-1.9-6.8c-9.3-0.7-19.1,1.4-28.5,1.4c-8,0.1-15.5,1.5-23.4,2.1
	C109.7,155.1,108.2,159,111,160.6L111,160.6L111,160.6z"/>
<linearGradient id="SVGID_00000150063481951734719060000007354446921289765251_" gradientUnits="userSpaceOnUse" x1="147.6711" y1="887.8339" x2="265.1089" y2="887.8339" gradientTransform="matrix(1 0 0 -1 0 993.2335)">
	<stop  offset="0" style="stop-color:#98C5CC"/>
	<stop  offset="0.15" style="stop-color:#8EBEC6"/>
	<stop  offset="0.39" style="stop-color:#75ABB9"/>
	<stop  offset="0.69" style="stop-color:#4C8DA2"/>
	<stop  offset="0.99" style="stop-color:#1D6B89"/>
</linearGradient>
<path style="fill:url(#SVGID_00000150063481951734719060000007354446921289765251_);" d="M153.8,155.3c0.2-18,6.6-26.2,20.9-35.3
	c10.9-6.9,22-13.4,33.2-19.8c20-11.5,39.8-21.9,56-38.7c3.6-3.7-1.1-10.1-5.6-7.3c-12.2,7.7-21.6,18.2-34.6,25.2
	c-14.3,7.7-28.1,16.7-42,25c-20.1,12-40.8,24.9-31.8,51.3C150.6,157.9,153.7,157.6,153.8,155.3L153.8,155.3L153.8,155.3z"/>
<linearGradient id="SVGID_00000091717343221884367620000006408434505304933027_" gradientUnits="userSpaceOnUse" x1="5.5688" y1="933.4146" x2="59.9513" y2="933.4146" gradientTransform="matrix(1 0 0 -1 0 993.2335)">
	<stop  offset="0" style="stop-color:#98C5CC"/>
	<stop  offset="0.15" style="stop-color:#8EBEC6"/>
	<stop  offset="0.39" style="stop-color:#75ABB9"/>
	<stop  offset="0.69" style="stop-color:#4C8DA2"/>
	<stop  offset="0.99" style="stop-color:#1D6B89"/>
</linearGradient>
<path style="fill:url(#SVGID_00000091717343221884367620000006408434505304933027_);" d="M60,86.1c-0.2-16.7-23.6-17.6-24.6-32.7
	c-0.4-5.9-1.8-10.6-6.8-14.1c-5.5-3.8-10.9-0.9-15.8-6.5c-3.1-3.5-7.6,0.3-7,4.1c0.7,4.4,3.7,8,8.2,9.1c2.3,0.6,4.5,0.9,6.9,1.1
	c5.4,0.6,4.7,6.3,5.7,10.3c1.6,6.5,5.2,9.6,11,12.7c7.6,4.1,13.8,9.7,18.3,17.1C56.9,89,60,88.3,60,86.1L60,86.1L60,86.1z"/>
<linearGradient id="SVGID_00000157991345235081239620000008274692228478807953_" gradientUnits="userSpaceOnUse" x1="25.7347" y1="938.2747" x2="75.5244" y2="938.2747" gradientTransform="matrix(1 0 0 -1 0 993.2335)">
	<stop  offset="0" style="stop-color:#98C5CC"/>
	<stop  offset="0.15" style="stop-color:#8EBEC6"/>
	<stop  offset="0.39" style="stop-color:#75ABB9"/>
	<stop  offset="0.69" style="stop-color:#4C8DA2"/>
	<stop  offset="0.99" style="stop-color:#1D6B89"/>
</linearGradient>
<path style="fill:url(#SVGID_00000157991345235081239620000008274692228478807953_);" d="M74.5,90.3c0.5-6.4,2.3-13.5-0.5-19.7
	c-3.4-7.6-9.1-11.7-15.2-17.2c-5.7-5.2-3.2-15.8-7.2-22.1c-4.1-6.4-9.4-9.7-16.2-12.8C28,15.1,21.6,26.2,29,29.4
	c6.7,2.9,12.2,5,14.3,12.9c1.4,5.4,2,10.2,5,15.1c2.4,3.8,6.7,6.3,10.4,8.5c10.3,6.1,9.6,15.2,12.3,24.8
	C71.6,92.8,74.4,92.2,74.5,90.3L74.5,90.3L74.5,90.3z"/>
<linearGradient id="SVGID_00000114048991714022433320000007688551746655755906_" gradientUnits="userSpaceOnUse" x1="65.9633" y1="942.2163" x2="92.4347" y2="942.2163" gradientTransform="matrix(1 0 0 -1 0 993.2335)">
	<stop  offset="0" style="stop-color:#98C5CC"/>
	<stop  offset="0.15" style="stop-color:#8EBEC6"/>
	<stop  offset="0.39" style="stop-color:#75ABB9"/>
	<stop  offset="0.69" style="stop-color:#4C8DA2"/>
	<stop  offset="0.99" style="stop-color:#1D6B89"/>
</linearGradient>
<path style="fill:url(#SVGID_00000114048991714022433320000007688551746655755906_);" d="M84.3,93.8c2.5-11.5,12.2-22.3,6.1-34.4
	c-4.8-9.4-6.5-16.1-5.8-26.9c0.5-8.3-4-13.5-6-21.3c-2.1-8-14.5-4.6-12.4,3.4c1.6,6,6.1,11.5,5.8,17.9c-0.3,6.2-1.9,13,1.5,18.7
	c4.9,8.1,11.6,13.1,9.2,23.7c-1.5,6.7-3.6,11.3-2.8,18.3C80.3,95.5,83.8,96.5,84.3,93.8L84.3,93.8L84.3,93.8z"/>
<linearGradient id="SVGID_00000035490747060875662120000001725833365500996765_" gradientUnits="userSpaceOnUse" x1="94.1251" y1="941.8033" x2="114.6197" y2="941.8033" gradientTransform="matrix(1 0 0 -1 0 993.2335)">
	<stop  offset="0" style="stop-color:#98C5CC"/>
	<stop  offset="0.15" style="stop-color:#8EBEC6"/>
	<stop  offset="0.39" style="stop-color:#75ABB9"/>
	<stop  offset="0.69" style="stop-color:#4C8DA2"/>
	<stop  offset="0.99" style="stop-color:#1D6B89"/>
</linearGradient>
<path style="fill:url(#SVGID_00000035490747060875662120000001725833365500996765_);" d="M99,100.8c1.6-14.9,17.8-21.8,14.3-38.7
	c-2-9.6-4.8-17.3-1.2-27c3.6-9.8,2.6-18.4,1.5-28.7c-0.9-8.3-12.7-8.6-13.2,0C99.9,16.5,101,25,98.1,35c-2.2,7.7-0.6,15.2,1.7,22.6
	c3.4,11,1.1,18-3.9,27.9c-2.6,5.2-1.9,10.3-1.1,15.8C95.2,103.9,98.8,102.9,99,100.8L99,100.8L99,100.8z"/>
<linearGradient id="SVGID_00000134225953757225292000000003959114857824107157_" gradientUnits="userSpaceOnUse" x1="10.1239" y1="901.2458" x2="202.1697" y2="901.2458" gradientTransform="matrix(1 0 0 -1 0 993.2335)">
	<stop  offset="0" style="stop-color:#98C5CC"/>
	<stop  offset="0.15" style="stop-color:#8EBEC6"/>
	<stop  offset="0.39" style="stop-color:#75ABB9"/>
	<stop  offset="0.69" style="stop-color:#4C8DA2"/>
	<stop  offset="0.99" style="stop-color:#1D6B89"/>
</linearGradient>
<path style="fill:url(#SVGID_00000134225953757225292000000003959114857824107157_);" d="M10.7,67.7c12.2,10.9,31,12.6,46.7,13.9
	c11.6,0.9,23.1,1.2,34.5,3.9c12.6,3,18.7,10.6,26.1,20.3c8.6,11.3,21.2,17.7,34.9,10.3c9.1-4.9,15.8-11.2,26.1-13.7
	c7.2-1.7,13.9-0.6,20.4-4.9c6.5-4.4,0.8-14.5-6.2-10.6c-6.2,3.4-14.4,2.8-21.3,4.4c-6.7,1.6-12.5,5.6-17.8,9.7
	c-21.3,16.4-27.3-10.4-41.5-19.6c-13.7-8.9-30.1-10.2-46-10.9c-10.4-0.4-20.7-0.8-31-2.3C27.6,67.2,20,64.7,12,64.6
	C10.4,64.6,9.5,66.7,10.7,67.7L10.7,67.7L10.7,67.7z"/>
<linearGradient id="SVGID_00000031200671423977002830000004581682978412435133_" gradientUnits="userSpaceOnUse" x1="193.8331" y1="920.8708" x2="267.4808" y2="920.8708" gradientTransform="matrix(1 0 0 -1 0 993.2335)">
	<stop  offset="0" style="stop-color:#98C5CC"/>
	<stop  offset="0.15" style="stop-color:#8EBEC6"/>
	<stop  offset="0.39" style="stop-color:#75ABB9"/>
	<stop  offset="0.69" style="stop-color:#4C8DA2"/>
	<stop  offset="0.99" style="stop-color:#1D6B89"/>
</linearGradient>
<path style="fill:url(#SVGID_00000031200671423977002830000004581682978412435133_);" d="M195.3,91.7c8.6,5.2,20.8-1.9,28.8-5.8
	c13.3-6.4,23.7-20.6,39.1-22.7c6.8-0.9,5.1-12.4-1.6-11.9c-11.2,0.8-22.1,8.1-30.7,14.7c-6.1,4.7-11.8,9.1-18.8,12.4
	c-5.5,2.6-11.9,4.2-16.7,7.9C193.5,87.7,193.2,90.4,195.3,91.7L195.3,91.7L195.3,91.7z"/>
<linearGradient id="SVGID_00000051384789276879151560000015527643742089115552_" gradientUnits="userSpaceOnUse" x1="113.3101" y1="940.8704" x2="147.2612" y2="940.8704" gradientTransform="matrix(1 0 0 -1 0 993.2335)">
	<stop  offset="0" style="stop-color:#98C5CC"/>
	<stop  offset="0.15" style="stop-color:#8EBEC6"/>
	<stop  offset="0.39" style="stop-color:#75ABB9"/>
	<stop  offset="0.69" style="stop-color:#4C8DA2"/>
	<stop  offset="0.99" style="stop-color:#1D6B89"/>
</linearGradient>
<path style="fill:url(#SVGID_00000051384789276879151560000015527643742089115552_);" d="M118.3,98.4c2.8-8.9,10.8-6.5,15.6-13.1
	c7.1-9.7,3.3-17.7,2.4-28.7c-0.4-5.8,11-11.1,10.9-18.8c0-3.5-0.3-6.7-1.9-9.9c-3-6,0.1-9.2,1.6-14.9c1.9-7-8.4-11.7-11.9-5
	c-3.7,6.9-8,13.2-4.3,21.2c4.9,10.8-3.9,13.9-7.4,22.9c-4.2,10.9,7.5,20.6-4.1,30.1c-5.6,4.6-6.9,9.3-5.1,16.2
	C114.6,100.6,117.6,100.4,118.3,98.4L118.3,98.4L118.3,98.4z"/>
<linearGradient id="SVGID_00000061433081177086893120000015133387774953705351_" gradientUnits="userSpaceOnUse" x1="145.9293" y1="937.1653" x2="179.0345" y2="937.1653" gradientTransform="matrix(1 0 0 -1 0 993.2335)">
	<stop  offset="0" style="stop-color:#98C5CC"/>
	<stop  offset="0.15" style="stop-color:#8EBEC6"/>
	<stop  offset="0.39" style="stop-color:#75ABB9"/>
	<stop  offset="0.69" style="stop-color:#4C8DA2"/>
	<stop  offset="0.99" style="stop-color:#1D6B89"/>
</linearGradient>
<path style="fill:url(#SVGID_00000061433081177086893120000015133387774953705351_);" d="M177.5,99.3c-5-4.3-12.2-4.8-16.4-10.7
	c-5.3-7.5,8.9-20.3,9.9-28.6c0.4-3.4-1.3-7.8-2.2-11c-1.2-4.3,4.5-6.9,6.8-9.2c6.4-6.4,2.4-16.9,2-24.6c-0.5-9.5-13.7-9.3-14.6,0
	c-0.5,5.8,3.1,13.1-1.9,16.9c-3.9,3-6,6.3-7.4,11c-1.3,4,0.4,9.1,1.5,12.9c1.9,6.5-2.5,9.4-6,14.2c-11.7,15.9,12.3,32.4,25.6,33.8
	c1.1,0.1,2.1-0.7,2.6-1.5c0.2-0.2,0.3-0.5,0.5-0.7C178.3,101.1,178.1,99.9,177.5,99.3L177.5,99.3L177.5,99.3z"/>
<linearGradient id="SVGID_00000109725427187510616560000016129460489826247585_" gradientUnits="userSpaceOnUse" x1="177.8855" y1="941.0232" x2="205.7646" y2="941.0232" gradientTransform="matrix(1 0 0 -1 0 993.2335)">
	<stop  offset="0" style="stop-color:#98C5CC"/>
	<stop  offset="0.15" style="stop-color:#8EBEC6"/>
	<stop  offset="0.39" style="stop-color:#75ABB9"/>
	<stop  offset="0.69" style="stop-color:#4C8DA2"/>
	<stop  offset="0.99" style="stop-color:#1D6B89"/>
</linearGradient>
<path style="fill:url(#SVGID_00000109725427187510616560000016129460489826247585_);" d="M183.5,89.5c-0.1,0-0.2,0-0.3,0
	c-4.2-0.3-3.1,7,0.7,5.5c12.5-4.8,14.4-17.9,9.1-29.1c-2.9-6.1-6.4-10.8,0.7-15.8c2.2-1.6,5.2-3.6,6.5-6.1
	c4.3-8.1,2.9-16.5,5.3-25.1c2.3-8.2-9.8-13.5-13.9-5.8c-3.1,5.9-2.9,11.1-2.5,17.7c0.5,8.7-7.3,11.1-9.8,18.4
	c-1.6,4.6-2.2,9.4-0.2,14c4.8,11,8.1,16.3,1.6,27.8c1.3-0.3,2.6-0.7,3.8-1C184.2,89.7,183.9,89.5,183.5,89.5L183.5,89.5L183.5,89.5z
	"/>
<linearGradient id="SVGID_00000003086003398578280650000002321935502995517597_" gradientUnits="userSpaceOnUse" x1="188.2966" y1="944.7057" x2="238.9349" y2="944.7057" gradientTransform="matrix(1 0 0 -1 0 993.2335)">
	<stop  offset="0" style="stop-color:#98C5CC"/>
	<stop  offset="0.15" style="stop-color:#8EBEC6"/>
	<stop  offset="0.39" style="stop-color:#75ABB9"/>
	<stop  offset="0.69" style="stop-color:#4C8DA2"/>
	<stop  offset="0.99" style="stop-color:#1D6B89"/>
</linearGradient>
<path style="fill:url(#SVGID_00000003086003398578280650000002321935502995517597_);" d="M194.1,76.2c2.8-5.7,8.4-6.1,14-7.7
	c5.5-1.5,10.8-4.9,13.7-10c3.3-5.8,4.5-11.7,5-18.3c0.5-7.6,7.5-7,11.3-13c2.5-3.9-1.6-8.4-5.7-7.4c-4.9,1.2-12.5,3.7-15.3,8.3
	c-4.4,7.5-1.7,16.6-5.9,24.2c-4.6,8.4-29.3,9.1-21.5,23.9C190.7,77.8,193.3,77.9,194.1,76.2L194.1,76.2L194.1,76.2z"/>
<linearGradient id="SVGID_00000098920813291209614440000007188929049279779980_" gradientUnits="userSpaceOnUse" x1="229.1614" y1="941.4983" x2="256.9203" y2="941.4983" gradientTransform="matrix(1 0 0 -1 0 993.2335)">
	<stop  offset="0" style="stop-color:#98C5CC"/>
	<stop  offset="0.15" style="stop-color:#8EBEC6"/>
	<stop  offset="0.39" style="stop-color:#75ABB9"/>
	<stop  offset="0.69" style="stop-color:#4C8DA2"/>
	<stop  offset="0.99" style="stop-color:#1D6B89"/>
</linearGradient>
<path style="fill:url(#SVGID_00000098920813291209614440000007188929049279779980_);" d="M238.9,70.4c-3.5-7.6,1.6-14.1,7.4-18.3
	c5.4-4,5.6-10.1,9.5-15c3.9-5.1-2.2-11.7-7.2-7.2c-3.9,3.6-4.5,8.5-7.7,12.5c-2.6,3.3-6.3,5-8.7,8.7c-4.4,7-3.7,16.2,1.2,22.6
	C235.8,76.9,240.6,74.2,238.9,70.4L238.9,70.4L238.9,70.4z"/>
<linearGradient id="SVGID_00000109738085403789666620000012111808389770393512_" gradientUnits="userSpaceOnUse" x1="54.7611" y1="878.8367" x2="229.2011" y2="878.8367" gradientTransform="matrix(1 0 0 -1 0 993.2335)">
	<stop  offset="0" style="stop-color:#98C5CC"/>
	<stop  offset="0.15" style="stop-color:#8EBEC6"/>
	<stop  offset="0.39" style="stop-color:#75ABB9"/>
	<stop  offset="0.69" style="stop-color:#4C8DA2"/>
	<stop  offset="0.99" style="stop-color:#1D6B89"/>
</linearGradient>
<path style="fill:url(#SVGID_00000109738085403789666620000012111808389770393512_);" d="M121.4,155c0,0,9.2-26.4-13.4-41.6
	C85.4,98.1,54.8,86.1,54.8,86.1L80.3,72l46.5,34.8c0,0,53-10.5,56.3-11.1c3.3-0.5,46.1-9.7,46.1-9.7l-48.9,24.8l-27.1,23.1l1.9,22.9
	l-33.9-0.2"/>
</svg>
