<?xml version="1.0" encoding="utf-8"?>
<!-- Generator: Adobe Illustrator 27.0.1, SVG Export Plug-In . SVG Version: 6.00 Build 0)  -->
<svg version="1.1" id="coral" xmlns="http://www.w3.org/2000/svg" xmlns:xlink="http://www.w3.org/1999/xlink" x="0px" y="0px"
	 viewBox="0 0 176.2 211" style="enable-background:new 0 0 176.2 211;" xml:space="preserve">
<style type="text/css">
	.st0{fill:url(#SVGID_1_);}
	.st1{fill:url(#SVGID_00000018225017569604623090000006135432142194310329_);}
	.st2{fill:url(#SVGID_00000041270031647867158650000004980056463889987263_);}
	.st3{fill:url(#SVGID_00000156568626261878161740000010676951481754535325_);}
	.st4{fill:url(#SVGID_00000135651295604263857090000016174256731975010980_);}
	.st5{fill:url(#SVGID_00000057837191954483412300000003479199540505775266_);}
	.st6{fill:url(#SVGID_00000137852968626197163110000013488082698652000163_);}
	.st7{fill:url(#SVGID_00000061437182604115027060000007872086117796939948_);}
	.st8{fill:url(#SVGID_00000103986566910705095680000016894237896042040483_);}
	.st9{fill:url(#SVGID_00000086675649846008838410000014376944515766108039_);}
	.st10{fill:url(#SVGID_00000127045459942212105080000012592938495476620450_);}
	.st11{fill:url(#SVGID_00000134946881612923981030000012987400802326269313_);}
	.st12{fill:url(#SVGID_00000176016420383697350500000000973311699820093330_);}
	.st13{fill:url(#SVGID_00000000910996197198956260000018267021828227682746_);}
	.st14{fill:url(#SVGID_00000179605753158587382860000010440105923390805387_);}
	.st15{fill:url(#SVGID_00000047055807460685129870000012925078651077121683_);}
	.st16{fill:url(#SVGID_00000093896073036676579070000006123393588027106712_);}
	.st17{fill:url(#SVGID_00000025412054036988284370000001056270203087470235_);}
	.st18{fill:url(#SVGID_00000014596359887479250230000008020799169244483233_);}
	.st19{fill:url(#SVGID_00000108998945893150819980000004653950813975160454_);}
	.st20{fill:url(#SVGID_00000051372604994402840280000001891913158329061781_);}
	.st21{fill:url(#SVGID_00000019639599733673558050000015429384561479148937_);}
	.st22{fill:url(#SVGID_00000021817683887285182530000009101072468963705529_);}
	.st23{fill:url(#SVGID_00000001640761034956894860000002063084155845551766_);}
	.st24{fill:url(#SVGID_00000173878008876450260830000004414054958748897926_);}
</style>
<linearGradient id="SVGID_1_" gradientUnits="userSpaceOnUse" x1="56.3346" y1="880.7652" x2="104.7708" y2="880.7652" gradientTransform="matrix(1 0 0 -1 0 993.2449)">
	<stop  offset="0" style="stop-color:#F5D1B6"/>
	<stop  offset="0.22" style="stop-color:#F3CBAC"/>
	<stop  offset="0.58" style="stop-color:#F0BB93"/>
	<stop  offset="0.99" style="stop-color:#EBA46E"/>
</linearGradient>
<path class="st0" d="M65.5,207.3c-6.4-41.5,13.5-73.7,28-110.6c9.7-24.6,16.8-54.9,5.6-80.1c-2.4-5.5-11.3-1.6-9.6,4
	c10.1,33.1-1.8,63.6-15.9,93.4c-14.2,30-22.2,62.1-13.9,94.9C60.7,212.7,66.1,211,65.5,207.3L65.5,207.3L65.5,207.3z"/>
<linearGradient id="SVGID_00000095332463291149485330000004598409715869034881_" gradientUnits="userSpaceOnUse" x1="0.4635" y1="881.7456" x2="66.9128" y2="881.7456" gradientTransform="matrix(1 0 0 -1 0 993.2449)">
	<stop  offset="0" style="stop-color:#F5D1B6"/>
	<stop  offset="0.22" style="stop-color:#F3CBAC"/>
	<stop  offset="0.58" style="stop-color:#F0BB93"/>
	<stop  offset="0.99" style="stop-color:#EBA46E"/>
</linearGradient>
<path style="fill:url(#SVGID_00000095332463291149485330000004598409715869034881_);" d="M66.1,169.2c1.6-21.3,1.9-45-8.8-64.2
	C52.2,96,41.9,89.7,34,83.6C22.3,74.4,15.3,65.6,8.3,52.8c-2.2-3.9-7.3-1.7-7.7,2.1c-2.1,19.9,26,35.2,39,45.7
	c21.8,17.7,14.6,45.3,20.5,69.4C61,173.6,65.8,172.5,66.1,169.2L66.1,169.2L66.1,169.2z"/>
<linearGradient id="SVGID_00000056409461536707310990000014322612166147271301_" gradientUnits="userSpaceOnUse" x1="58.8429" y1="884.7258" x2="154.8628" y2="884.7258" gradientTransform="matrix(1 0 0 -1 0 993.2449)">
	<stop  offset="0" style="stop-color:#F5D1B6"/>
	<stop  offset="0.22" style="stop-color:#F3CBAC"/>
	<stop  offset="0.58" style="stop-color:#F0BB93"/>
	<stop  offset="0.99" style="stop-color:#EBA46E"/>
</linearGradient>
<path style="fill:url(#SVGID_00000056409461536707310990000014322612166147271301_);" d="M64.8,174.3c9.9-26.6,36.9-45.4,55.3-66
	c15.6-17.5,31.7-39.9,34.7-63.6c0.5-4.3-6-5.6-7.9-2.1c-6.2,11.1-10.3,23.2-16.9,34.2c-7.4,12.5-17.1,23.4-27,33.9
	c-16.8,17.9-40.2,36.3-44.2,62.1C58.3,176.6,63.4,178.1,64.8,174.3L64.8,174.3L64.8,174.3z"/>
<g>
	
		<linearGradient id="SVGID_00000134972427674985638260000012353634311082987658_" gradientUnits="userSpaceOnUse" x1="19.19" y1="927.0338" x2="31.5141" y2="927.0338" gradientTransform="matrix(1 0 0 -1 0 993.2449)">
		<stop  offset="0" style="stop-color:#F5D1B6"/>
		<stop  offset="0.22" style="stop-color:#F3CBAC"/>
		<stop  offset="0.58" style="stop-color:#F0BB93"/>
		<stop  offset="0.99" style="stop-color:#EBA46E"/>
	</linearGradient>
	<path style="fill:url(#SVGID_00000134972427674985638260000012353634311082987658_);" d="M19.2,75.5c0.5-2.1,2.1-21.2,8.5-20.1
		c11.1,1.1-5.3,19.6-6.9,21.7"/>
	
		<linearGradient id="SVGID_00000111158214354899405510000012456273865427497148_" gradientUnits="userSpaceOnUse" x1="16.2901" y1="927.4346" x2="35.7148" y2="927.4346" gradientTransform="matrix(1 0 0 -1 0 993.2449)">
		<stop  offset="0" style="stop-color:#F5D1B6"/>
		<stop  offset="0.22" style="stop-color:#F3CBAC"/>
		<stop  offset="0.58" style="stop-color:#F0BB93"/>
		<stop  offset="0.99" style="stop-color:#EBA46E"/>
	</linearGradient>
	<path style="fill:url(#SVGID_00000111158214354899405510000012456273865427497148_);" d="M20.5,77.7c2.6-2,2.8-6.6,3.5-9.6
		c0.6-2.4,1.2-4.8,2.3-7c0.3-0.7,0.8-1.3,1.3-1.9c-0.5,0.5,0.2,0.4-0.1,0.1c-0.6-0.5-0.2-1.3-0.4-0.3c-0.1,0.7-0.4,1.5-0.7,2.2
		c-1,2.2-2.4,4.3-3.7,6.3c-2,2.9-5.5,5.9-5.5,9.6c0,2.3,2.2,4,4.5,3.4c4.8-1.2,8.5-8.2,10.8-12.1c3-5,5.4-12-0.4-15.9
		c-6.2-4.3-11.6,1.8-13.5,7.1c-1.2,3.2-1.6,6.7-2.1,10c-0.3,2.2-0.8,5.1,0.3,7.2C17.6,77.9,19.4,78.5,20.5,77.7L20.5,77.7L20.5,77.7
		z"/>
</g>
<g>
	
		<linearGradient id="SVGID_00000031929083534441382800000012426338474670741379_" gradientUnits="userSpaceOnUse" x1="4.2218" y1="901.6456" x2="28.75" y2="901.6456" gradientTransform="matrix(1 0 0 -1 0 993.2449)">
		<stop  offset="0" style="stop-color:#F5D1B6"/>
		<stop  offset="0.22" style="stop-color:#F3CBAC"/>
		<stop  offset="0.58" style="stop-color:#F0BB93"/>
		<stop  offset="0.99" style="stop-color:#EBA46E"/>
	</linearGradient>
	<path style="fill:url(#SVGID_00000031929083534441382800000012426338474670741379_);" d="M26.4,85.9c-2.4,0-20.9,1.2-22,6.6
		c-1.8,7.8,21.4,5.4,24.4-2.4"/>
	
		<linearGradient id="SVGID_00000037673084838620508490000001642990963708460959_" gradientUnits="userSpaceOnUse" x1="-0.4058" y1="900.6717" x2="32.9458" y2="900.6717" gradientTransform="matrix(1 0 0 -1 0 993.2449)">
		<stop  offset="0" style="stop-color:#F5D1B6"/>
		<stop  offset="0.22" style="stop-color:#F3CBAC"/>
		<stop  offset="0.58" style="stop-color:#F0BB93"/>
		<stop  offset="0.99" style="stop-color:#EBA46E"/>
	</linearGradient>
	<path style="fill:url(#SVGID_00000037673084838620508490000001642990963708460959_);" d="M28.3,84.8c-2.1-3.9-13.2-1.3-16.4-0.8
		C6,85-2.3,88.3,0,95.9c3.8,12.2,35.8,6,32.7-6.9c-0.6-2.7-3.8-3.6-6.1-2.5c-1.5,0.8-2.5,2-3.8,3c-1.9,1.3-4.2,1.9-6.5,2.5
		c-2,0.5-4.3,0.7-6.3,0.4c-3-0.4-0.1-0.1-1.3,1.3c2.7-3,9.3-3.4,12.9-4.2C23.7,89,30.4,88.7,28.3,84.8L28.3,84.8L28.3,84.8z"/>
</g>
<g>
	
		<linearGradient id="SVGID_00000119102255409864369870000006351706433268838322_" gradientUnits="userSpaceOnUse" x1="47.0261" y1="908.4329" x2="56.9143" y2="908.4329" gradientTransform="matrix(1 0 0 -1 0 993.2449)">
		<stop  offset="0" style="stop-color:#F5D1B6"/>
		<stop  offset="0.22" style="stop-color:#F3CBAC"/>
		<stop  offset="0.58" style="stop-color:#F0BB93"/>
		<stop  offset="0.99" style="stop-color:#EBA46E"/>
	</linearGradient>
	<path style="fill:url(#SVGID_00000119102255409864369870000006351706433268838322_);" d="M48.2,95.9c-1.3-4.3-3.4-26.9,5.5-23.5
		c8.5,3-2.6,21.3-5.5,25.2"/>
	
		<linearGradient id="SVGID_00000182516961792546834720000010294109458313652141_" gradientUnits="userSpaceOnUse" x1="42.1783" y1="908.6688" x2="61.6187" y2="908.6688" gradientTransform="matrix(1 0 0 -1 0 993.2449)">
		<stop  offset="0" style="stop-color:#F5D1B6"/>
		<stop  offset="0.22" style="stop-color:#F3CBAC"/>
		<stop  offset="0.58" style="stop-color:#F0BB93"/>
		<stop  offset="0.99" style="stop-color:#EBA46E"/>
	</linearGradient>
	<path style="fill:url(#SVGID_00000182516961792546834720000010294109458313652141_);" d="M51.8,95.9c-0.1-3.1-0.2-6.2-0.3-9.4
		c-0.1-2.7-0.5-8.1,1.6-10.2c-1.4,1.5-1.1-0.7-1.1,1.6c0,2.1-1,4.4-1.8,6.3c-1.7,3.9-5.2,7.6-6.2,11.7c-0.9,3.8,3.2,7.4,6.8,5.2
		C59,96,69.6,67.3,52.4,67.3c-12.9,0-11.4,22.8-7.3,30.4C46.8,100.8,52,99.5,51.8,95.9L51.8,95.9L51.8,95.9z"/>
</g>
<g>
	
		<linearGradient id="SVGID_00000127722499209778349130000005673491700194849922_" gradientUnits="userSpaceOnUse" x1="26.0134" y1="875.1992" x2="48.63" y2="875.1992" gradientTransform="matrix(1 0 0 -1 0 993.2449)">
		<stop  offset="0" style="stop-color:#F5D1B6"/>
		<stop  offset="0.22" style="stop-color:#F3CBAC"/>
		<stop  offset="0.58" style="stop-color:#F0BB93"/>
		<stop  offset="0.99" style="stop-color:#EBA46E"/>
	</linearGradient>
	<path style="fill:url(#SVGID_00000127722499209778349130000005673491700194849922_);" d="M47.4,113.4c-4.3-2.6-21.3,0-21.3,6.4
		c-0.4,9,19.2,0.4,22.6-3"/>
	
		<linearGradient id="SVGID_00000116931660169484498400000001550511667640591539_" gradientUnits="userSpaceOnUse" x1="20.4606" y1="874.7599" x2="54.0088" y2="874.7599" gradientTransform="matrix(1 0 0 -1 0 993.2449)">
		<stop  offset="0" style="stop-color:#F5D1B6"/>
		<stop  offset="0.22" style="stop-color:#F3CBAC"/>
		<stop  offset="0.58" style="stop-color:#F0BB93"/>
		<stop  offset="0.99" style="stop-color:#EBA46E"/>
	</linearGradient>
	<path style="fill:url(#SVGID_00000116931660169484498400000001550511667640591539_);" d="M49.9,110.8c-8-6.6-33-2.2-29,11.7
		c2.2,7.5,10.3,7.3,16.5,5.8c5.3-1.3,14.6-4.3,16.4-10.1c1.3-4.1-2.8-7.4-6.6-6.6c-5.6,1.2-11.5,8-17.4,6.4c0.4,0.1,2.2,1.6,1.6,2.1
		c1.1-1.1,3.1-1.7,4.5-2.1c2.9-0.9,7.5-2,10.4-1.2C49.7,117.7,52.8,113.2,49.9,110.8L49.9,110.8z"/>
</g>
<g>
	
		<linearGradient id="SVGID_00000010284151511573190030000008872619106810718650_" gradientUnits="userSpaceOnUse" x1="65.4764" y1="955.8492" x2="95.14" y2="955.8492" gradientTransform="matrix(1 0 0 -1 0 993.2449)">
		<stop  offset="0" style="stop-color:#F5D1B6"/>
		<stop  offset="0.22" style="stop-color:#F3CBAC"/>
		<stop  offset="0.58" style="stop-color:#F0BB93"/>
		<stop  offset="0.99" style="stop-color:#EBA46E"/>
	</linearGradient>
	<path style="fill:url(#SVGID_00000010284151511573190030000008872619106810718650_);" d="M95.1,47.2C87,51.9,70,43,66.6,34.9
		c-3-6.8,0.4-9.8,7.2-8.1c8.5,2.1,13.2,11.1,17.9,17.9"/>
	
		<linearGradient id="SVGID_00000048472756724761974910000003163240859053782926_" gradientUnits="userSpaceOnUse" x1="59.961" y1="956.1461" x2="99.4639" y2="956.1461" gradientTransform="matrix(1 0 0 -1 0 993.2449)">
		<stop  offset="0" style="stop-color:#F5D1B6"/>
		<stop  offset="0.22" style="stop-color:#F3CBAC"/>
		<stop  offset="0.58" style="stop-color:#F0BB93"/>
		<stop  offset="0.99" style="stop-color:#EBA46E"/>
	</linearGradient>
	<path style="fill:url(#SVGID_00000048472756724761974910000003163240859053782926_);" d="M93.9,42.9c-7.6,3-18.4-3.2-22.2-9.8
		c-0.3-0.7-0.6-1.5-0.7-2.3c0.2,1.8-1.9,0.8,1.3,1.5c2.5,0.6,4.6,2.2,6.4,4c4,3.8,6.4,8.8,10.9,12.1c3.2,2.3,7.1-1.5,6.2-4.8
		c-2.1-8.3-8.7-16.7-16.3-20.7c-6.7-3.6-19.2-3.1-19.6,6.8C59.4,45.3,84.2,59,97.4,51.1C101.6,48.6,98.8,41,93.9,42.9L93.9,42.9
		L93.9,42.9z"/>
</g>
<g>
	
		<linearGradient id="SVGID_00000031203389003093872410000016701616230766318741_" gradientUnits="userSpaceOnUse" x1="64.3812" y1="923.1246" x2="85.75" y2="923.1246" gradientTransform="matrix(1 0 0 -1 0 993.2449)">
		<stop  offset="0" style="stop-color:#F5D1B6"/>
		<stop  offset="0.22" style="stop-color:#F3CBAC"/>
		<stop  offset="0.58" style="stop-color:#F0BB93"/>
		<stop  offset="0.99" style="stop-color:#EBA46E"/>
	</linearGradient>
	<path style="fill:url(#SVGID_00000031203389003093872410000016701616230766318741_);" d="M85.8,81.4C81.9,80.5,61,69.4,64.9,61.7
		C70,50.6,84.5,75.4,85.3,79.6"/>
	
		<linearGradient id="SVGID_00000127020805179879833450000003442784931644551860_" gradientUnits="userSpaceOnUse" x1="59.3416" y1="924.0637" x2="89.5459" y2="924.0637" gradientTransform="matrix(1 0 0 -1 0 993.2449)">
		<stop  offset="0" style="stop-color:#F5D1B6"/>
		<stop  offset="0.22" style="stop-color:#F3CBAC"/>
		<stop  offset="0.58" style="stop-color:#F0BB93"/>
		<stop  offset="0.99" style="stop-color:#EBA46E"/>
	</linearGradient>
	<path style="fill:url(#SVGID_00000127020805179879833450000003442784931644551860_);" d="M86.7,77.9c-3.9-1.2-8.2-4.5-11.4-7.2
		c-2-1.6-3.9-3.5-5.3-5.7c-0.3-0.4-0.4-1.6-0.5-0.7c0.1-0.3,0.4-0.4-0.7,0.1c-0.4,0.1-0.7,0.1-1.1-0.1c1.3,0.2-0.6-0.5,0.6,0.2
		c0.9,0.5,1.2,0.9,1.9,1.6c1.8,1.7,3.2,3.6,4.6,5.6c1.4,2.1,2.8,4.2,4.1,6.4c0.5,0.8,0.9,1.7,1.5,2.4c0.3,0.4,3.2,3.1,2,2.1
		c1.8,1.5,5.2,1.8,6.4-0.8c2.7-6.2-2.8-13.5-6.4-18.3c-4-5.2-11.3-13.3-18.6-8.6c-7.8,5.1-4.3,14.6,1.4,19.5
		c5.2,4.5,12.7,9.1,19.5,10.4C89.3,85.8,91.2,79.3,86.7,77.9L86.7,77.9L86.7,77.9z"/>
</g>
<g>
	
		<linearGradient id="SVGID_00000024682746879877295560000011921528860858513844_" gradientUnits="userSpaceOnUse" x1="100.68" y1="938.5844" x2="123.9677" y2="938.5844" gradientTransform="matrix(1 0 0 -1 0 993.2449)">
		<stop  offset="0" style="stop-color:#F5D1B6"/>
		<stop  offset="0.22" style="stop-color:#F3CBAC"/>
		<stop  offset="0.58" style="stop-color:#F0BB93"/>
		<stop  offset="0.99" style="stop-color:#EBA46E"/>
	</linearGradient>
	<path style="fill:url(#SVGID_00000024682746879877295560000011921528860858513844_);" d="M101.5,63c2.6-4.3,12.4-30.3,20.9-20.5
		c7.7,9.4-15.8,23.5-21.8,26.5"/>
	
		<linearGradient id="SVGID_00000087381450158859246750000004336352642981547948_" gradientUnits="userSpaceOnUse" x1="96.7035" y1="939.026" x2="129.4637" y2="939.026" gradientTransform="matrix(1 0 0 -1 0 993.2449)">
		<stop  offset="0" style="stop-color:#F5D1B6"/>
		<stop  offset="0.22" style="stop-color:#F3CBAC"/>
		<stop  offset="0.58" style="stop-color:#F0BB93"/>
		<stop  offset="0.99" style="stop-color:#EBA46E"/>
	</linearGradient>
	<path style="fill:url(#SVGID_00000087381450158859246750000004336352642981547948_);" d="M104.2,64.6c3.5-5.1,6-10.8,9.8-15.6
		c0.4-0.5,3.3-4.1,3.9-3.7c2.2,1.1-0.7,4.6-1.5,5.6c-4.7,5.8-11.4,9-17.2,13.4c-2.8,2.1-3.9,6.4-0.4,8.4c3.3,1.9,7-0.8,9.9-2.4
		c9.6-5.5,31.6-23.5,14.3-33.7c-13.3-7.8-20.6,17.1-24.2,24.8C97.2,65.1,101.9,67.9,104.2,64.6L104.2,64.6L104.2,64.6z"/>
</g>
<g>
	
		<linearGradient id="SVGID_00000126301409951203279430000003420121533256389028_" gradientUnits="userSpaceOnUse" x1="107.5425" y1="903.8091" x2="121.16" y2="903.8091" gradientTransform="matrix(1 0 0 -1 0 993.2449)">
		<stop  offset="0" style="stop-color:#F5D1B6"/>
		<stop  offset="0.22" style="stop-color:#F3CBAC"/>
		<stop  offset="0.58" style="stop-color:#F0BB93"/>
		<stop  offset="0.99" style="stop-color:#EBA46E"/>
	</linearGradient>
	<path style="fill:url(#SVGID_00000126301409951203279430000003420121533256389028_);" d="M117.8,98.9c-3.8-2.1-13.7-12.4-9-17.5
		c5.5-6.4,11.5,11.9,12.4,15.8"/>
	
		<linearGradient id="SVGID_00000152959521944200804590000005034367874540909476_" gradientUnits="userSpaceOnUse" x1="103.0313" y1="904.6673" x2="126.0693" y2="904.6673" gradientTransform="matrix(1 0 0 -1 0 993.2449)">
		<stop  offset="0" style="stop-color:#F5D1B6"/>
		<stop  offset="0.22" style="stop-color:#F3CBAC"/>
		<stop  offset="0.58" style="stop-color:#F0BB93"/>
		<stop  offset="0.99" style="stop-color:#EBA46E"/>
	</linearGradient>
	<path style="fill:url(#SVGID_00000152959521944200804590000005034367874540909476_);" d="M120.2,96.4c-2.5-2.2-4.8-4.9-6.5-7.8
		c-0.7-1.2-1.4-2.5-1.4-3.9c0,0.9-3.6-0.7-2.2,0.1c-0.9-0.5,0.3,0.4,0.4,0.5c-0.2-0.2,0.8,1.1,0.9,1.4c0.9,1.4,1.6,2.9,2.2,4.4
		c1.1,2.7,1.7,5.8,3.3,8.3c2.7,4.4,8.6,2.2,9.1-2.5c0.5-4.6-2.4-9.9-4.4-13.8c-2.3-4.5-6.8-10-12.6-8.1c-6.7,2.3-7.1,9.7-4.6,15.2
		c2.2,5,7.3,9.8,12.4,11.7C120,103.3,122.6,98.7,120.2,96.4L120.2,96.4L120.2,96.4z"/>
</g>
<g>
	
		<linearGradient id="SVGID_00000038398933764357028600000003198870556863028108_" gradientUnits="userSpaceOnUse" x1="144.2" y1="929.9416" x2="171.2163" y2="929.9416" gradientTransform="matrix(1 0 0 -1 0 993.2449)">
		<stop  offset="0" style="stop-color:#F5D1B6"/>
		<stop  offset="0.22" style="stop-color:#F3CBAC"/>
		<stop  offset="0.58" style="stop-color:#F0BB93"/>
		<stop  offset="0.99" style="stop-color:#EBA46E"/>
	</linearGradient>
	<path style="fill:url(#SVGID_00000038398933764357028600000003198870556863028108_);" d="M144.2,68.6c2.1-3,23.9-20.1,26.9-8.5
		c2.1,9.4-21.3,12.8-26.4,9"/>
	
		<linearGradient id="SVGID_00000109024243605212344570000011768667138802635667_" gradientUnits="userSpaceOnUse" x1="141.0719" y1="930.1491" x2="176.151" y2="930.1491" gradientTransform="matrix(1 0 0 -1 0 993.2449)">
		<stop  offset="0" style="stop-color:#F5D1B6"/>
		<stop  offset="0.22" style="stop-color:#F3CBAC"/>
		<stop  offset="0.58" style="stop-color:#F0BB93"/>
		<stop  offset="0.99" style="stop-color:#EBA46E"/>
	</linearGradient>
	<path style="fill:url(#SVGID_00000109024243605212344570000011768667138802635667_);" d="M146.2,70.6c3.6-3.9,9.7-6.9,14.6-8.7
		c0.9-0.3,5.2-1.3,5.2-1.3c0.4,1.1,0.4,0.5-0.3,1.4c-0.9,1-2.3,1.6-3.5,2.2c-3,1.5-6.6,2-9.9,2.1c-2.6,0.1-5.8-1.4-8.2-0.8
		c-2.8,0.8-4.1,4.6-1.8,6.7c2.4,2.2,5.8,2.5,9,2.7c6.5,0.4,14.4-0.9,19.8-4.6c5.9-4.1,7.2-12.6,1-17.1c-9.3-6.8-25.3,6.5-30.3,14
		C140,69.8,144,72.9,146.2,70.6L146.2,70.6L146.2,70.6z"/>
</g>
<g>
	
		<linearGradient id="SVGID_00000004529588214185472440000007687236656934576547_" gradientUnits="userSpaceOnUse" x1="128.42" y1="894.7651" x2="157.4533" y2="894.7651" gradientTransform="matrix(1 0 0 -1 0 993.2449)">
		<stop  offset="0" style="stop-color:#F5D1B6"/>
		<stop  offset="0.22" style="stop-color:#F3CBAC"/>
		<stop  offset="0.58" style="stop-color:#F0BB93"/>
		<stop  offset="0.99" style="stop-color:#EBA46E"/>
	</linearGradient>
	<path style="fill:url(#SVGID_00000004529588214185472440000007687236656934576547_);" d="M130.6,93.7c5.1-1.7,27.7-6,26.9,5.1
		c-0.9,9.4-25.6,8.1-29,0.4"/>
	
		<linearGradient id="SVGID_00000091699219555447837820000001268821698860700350_" gradientUnits="userSpaceOnUse" x1="124.1474" y1="894.6847" x2="163.5075" y2="894.6847" gradientTransform="matrix(1 0 0 -1 0 993.2449)">
		<stop  offset="0" style="stop-color:#F5D1B6"/>
		<stop  offset="0.22" style="stop-color:#F3CBAC"/>
		<stop  offset="0.58" style="stop-color:#F0BB93"/>
		<stop  offset="0.99" style="stop-color:#EBA46E"/>
	</linearGradient>
	<path style="fill:url(#SVGID_00000091699219555447837820000001268821698860700350_);" d="M131.6,97.4c3.5-0.8,7.1-0.8,10.7-0.9
		c2.1-0.1,4.3,0,6.4,0.4c0.8,0.1,1.6,0.3,2.4,0.7c1,0.4,0.9,0.9,0.8,0.3c0.5,5.2-17.4,1.7-19.8-1.2c-3.3-4.1-10,1.2-7.2,5.5
		c7.2,11.2,32.7,12.2,38-1.1c3.4-8.5-6.1-13.7-12.8-14.6c-7.1-0.9-14.9,1.1-21.4,3.9C124.4,92.2,127.6,98.3,131.6,97.4L131.6,97.4
		L131.6,97.4z"/>
</g>
<g>
	
		<linearGradient id="SVGID_00000067225445483714735590000000899591825582096565_" gradientUnits="userSpaceOnUse" x1="101.11" y1="975.7912" x2="119.2243" y2="975.7912" gradientTransform="matrix(1 0 0 -1 0 993.2449)">
		<stop  offset="0" style="stop-color:#F5D1B6"/>
		<stop  offset="0.22" style="stop-color:#F3CBAC"/>
		<stop  offset="0.58" style="stop-color:#F0BB93"/>
		<stop  offset="0.99" style="stop-color:#EBA46E"/>
	</linearGradient>
	<path style="fill:url(#SVGID_00000067225445483714735590000000899591825582096565_);" d="M101.1,28.5c0-5.1,6.8-26.9,15.4-22.2
		c10.2,6-11.1,20.9-14.9,23"/>
	
		<linearGradient id="SVGID_00000176764205492553982960000014600440180373471387_" gradientUnits="userSpaceOnUse" x1="96.178" y1="975.8991" x2="124.903" y2="975.8991" gradientTransform="matrix(1 0 0 -1 0 993.2449)">
		<stop  offset="0" style="stop-color:#F5D1B6"/>
		<stop  offset="0.22" style="stop-color:#F3CBAC"/>
		<stop  offset="0.58" style="stop-color:#F0BB93"/>
		<stop  offset="0.99" style="stop-color:#EBA46E"/>
	</linearGradient>
	<path style="fill:url(#SVGID_00000176764205492553982960000014600440180373471387_);" d="M104.2,29.3c0.6-4.2,2.5-8.4,4.5-12.2
		c1.1-2,2.3-3.9,4-5.5c0.4-0.4,0.9-0.7,1.4-0.9c-0.3,0.1-0.2,0.1-0.2,0.2c-0.3-0.4,0-1.4-0.3-0.2c-0.1,0.3-0.7,1.4-1.1,1.9
		c-1.3,2.1-3.4,3.8-5.2,5.4c-3,2.7-6.4,4.9-9.5,7.4c-4,3.4,0.3,10.6,5.2,8.9c9.5-3.4,30-20.5,18.6-31.1
		C107.7-9.5,97.1,18.2,97.9,28.5C98.2,31.8,103.7,33.1,104.2,29.3L104.2,29.3L104.2,29.3z"/>
</g>
</svg>
