<?xml version="1.0" encoding="utf-8"?>
<!-- Generator: Adobe Illustrator 27.0.1, SVG Export Plug-In . SVG Version: 6.00 Build 0)  -->
<svg version="1.1" id="coral" xmlns="http://www.w3.org/2000/svg" xmlns:xlink="http://www.w3.org/1999/xlink" x="0px" y="0px"
	 viewBox="0 0 178.7 272.1" style="enable-background:new 0 0 178.7 272.1;" xml:space="preserve">
<style type="text/css">
	.st0{fill:url(#SVGID_1_);}
	.st1{fill:url(#SVGID_00000045580048833561779320000006687335342629924245_);}
	.st2{fill:url(#SVGID_00000132046621540260821570000014725177505125065358_);}
	.st3{fill:url(#SVGID_00000158724535876946759430000018358940335581117867_);}
	.st4{fill:url(#SVGID_00000130648498108806391550000017640070565711095968_);}
	.st5{fill:url(#SVGID_00000000203806245201646450000002137365714321652637_);}
	.st6{fill:url(#SVGID_00000149350452952477408100000003507863642942800809_);}
	.st7{fill:url(#SVGID_00000070812293005993918280000013880852450152545935_);}
	.st8{fill:url(#SVGID_00000178191317078002924000000017373874194431607727_);}
	.st9{fill:url(#SVGID_00000117663659180603020770000013714065567749112761_);}
	.st10{fill:url(#SVGID_00000181808446487827038020000011525237534186898108_);}
	.st11{fill:url(#SVGID_00000068669711001540181910000007675140774344729221_);}
	.st12{fill:url(#SVGID_00000057111263250886677710000008793696429787392946_);}
	.st13{fill:url(#SVGID_00000003066509297791914750000001864149714862342288_);}
	.st14{fill:url(#SVGID_00000026858379332502820660000011914532400234419073_);}
	.st15{fill:url(#SVGID_00000070826538817004096910000007536204742528837253_);}
	.st16{fill:url(#SVGID_00000127740195254209009170000011381580795922421123_);}
	.st17{fill:url(#SVGID_00000056414552785656432650000009708657205604652444_);}
	.st18{fill:url(#SVGID_00000083811537288129056030000014341625547409451705_);}
	.st19{fill:url(#SVGID_00000022547895281483650690000015757759733603227044_);}
	.st20{fill:url(#SVGID_00000065754970966737399680000008085569877815289009_);}
	.st21{fill:url(#SVGID_00000062907150158932325060000017801246660884071559_);}
	.st22{fill:url(#SVGID_00000060724205476985477510000006568680882894845107_);}
	.st23{fill:url(#SVGID_00000053530413776597311720000006725126148513416074_);}
	.st24{fill:url(#SVGID_00000160901320385492529900000007070063370125014674_);}
	.st25{fill:url(#SVGID_00000049910601106948148940000008454239473249630875_);}
	.st26{fill:url(#SVGID_00000103225606675191975430000017290449720363066531_);}
	.st27{fill:url(#SVGID_00000075883809696751624180000011209958113411048880_);}
	.st28{fill:url(#SVGID_00000099641782513683106420000006087013449105876665_);}
	.st29{fill:url(#SVGID_00000002355145228001139260000018319360791201432733_);}
	.st30{fill:url(#SVGID_00000160185591888275091930000004495294106430975885_);}
	.st31{fill:url(#SVGID_00000049904818478927509690000001277571549902423722_);}
	.st32{fill:url(#SVGID_00000094585733183708408250000012888105155415229619_);}
	.st33{fill:url(#SVGID_00000129171950580868370160000016334757584178079643_);}
	.st34{fill:url(#SVGID_00000136377189161770103560000009812719837316068506_);}
	.st35{fill:url(#SVGID_00000059311092998892429910000008690101444860594857_);}
	.st36{fill:url(#SVGID_00000126283767882684053540000011488504522187038866_);}
</style>
<linearGradient id="SVGID_1_" gradientUnits="userSpaceOnUse" x1="15.3728" y1="790.3972" x2="98.3954" y2="790.3972" gradientTransform="matrix(1 0 0 -1 0 993.2394)">
	<stop  offset="0" style="stop-color:#98C5CC"/>
	<stop  offset="0.17" style="stop-color:#8EBFC7"/>
	<stop  offset="0.45" style="stop-color:#75B0BA"/>
	<stop  offset="0.8" style="stop-color:#4C99A5"/>
	<stop  offset="0.99" style="stop-color:#338B99"/>
</linearGradient>
<path class="st0" d="M93.7,271.3c7-13,5.4-26.2,0.5-39.7c-3.8-10.6-2.9-17.9-0.8-28.6c1-5.2-1.9-9.3-4.5-13.5
	c-6.2-10.2-15.6-17.2-26.7-21.2c-17.7-6.4-32.3-15.8-41.1-33c-1.9-3.7-7.2-0.5-5.5,3.2c4.2,9.2,10.7,17.1,18.9,23.1
	c11.8,8.6,23.7,10.5,36.7,16.2c10.9,4.7,17.4,16.5,14.9,28c-1,5-3.6,10.2-2.6,15.5c1.3,7.3,4.6,14.1,6.6,21.2c2.7,9,1.2,18.9,0.4,28
	C90.5,272.1,92.9,272.7,93.7,271.3L93.7,271.3L93.7,271.3z"/>
<linearGradient id="SVGID_00000002353218657576649140000005763436776861160866_" gradientUnits="userSpaceOnUse" x1="17.4286" y1="848.6633" x2="63.9" y2="848.6633" gradientTransform="matrix(1 0 0 -1 0 993.2394)">
	<stop  offset="0" style="stop-color:#98C5CC"/>
	<stop  offset="0.17" style="stop-color:#8EBFC7"/>
	<stop  offset="0.45" style="stop-color:#75B0BA"/>
	<stop  offset="0.8" style="stop-color:#4C99A5"/>
	<stop  offset="0.99" style="stop-color:#338B99"/>
</linearGradient>
<path style="fill:url(#SVGID_00000002353218657576649140000005763436776861160866_);" d="M63.8,172.2c1.2-10-7.5-17.9-14.3-23.9
	c-10-9-21.6-16.3-24.6-30.3c-1.1-4.9-8.1-2.7-7.4,2c1.6,10.7,8.8,18.3,16.7,25.1c8.6,7.3,23.6,15.9,26,27.6
	C60.7,174.8,63.5,174,63.8,172.2L63.8,172.2L63.8,172.2z"/>
<linearGradient id="SVGID_00000047048033441919944250000017582483941662322838_" gradientUnits="userSpaceOnUse" x1="30.8183" y1="869.5372" x2="46.1146" y2="869.5372" gradientTransform="matrix(1 0 0 -1 0 993.2394)">
	<stop  offset="0" style="stop-color:#98C5CC"/>
	<stop  offset="0.17" style="stop-color:#8EBFC7"/>
	<stop  offset="0.45" style="stop-color:#75B0BA"/>
	<stop  offset="0.8" style="stop-color:#4C99A5"/>
	<stop  offset="0.99" style="stop-color:#338B99"/>
</linearGradient>
<path style="fill:url(#SVGID_00000047048033441919944250000017582483941662322838_);" d="M46.1,146.9c-1.6-6.4-2.9-12.8-4.2-19.3
	c-0.8-3.9-6.3-19.8-2.3-22.9c-1.4-0.2-2.7-0.4-4-0.5c1.6,2.1,0.1,8.9,0,11.7c-0.2,4.3,0.4,8.6,1.9,12.6c1,2.7,4.9,2.3,5-0.7
	c0.3-5.6-1.3-10.9-0.5-16.5c0.5-3.8,0.8-6.7-0.8-10.4c-0.6-1.5-1.6-2.2-3.2-2.4c-17.1-2.1,1.7,43.8,5.2,49.6
	C44.1,149.7,46.5,148.7,46.1,146.9L46.1,146.9L46.1,146.9z"/>
<linearGradient id="SVGID_00000036935291260957320350000004558836570922786707_" gradientUnits="userSpaceOnUse" x1="23.0125" y1="815.6239" x2="55.2236" y2="815.6239" gradientTransform="matrix(1 0 0 -1 0 993.2394)">
	<stop  offset="0" style="stop-color:#98C5CC"/>
	<stop  offset="0.17" style="stop-color:#8EBFC7"/>
	<stop  offset="0.45" style="stop-color:#75B0BA"/>
	<stop  offset="0.8" style="stop-color:#4C99A5"/>
	<stop  offset="0.99" style="stop-color:#338B99"/>
</linearGradient>
<path style="fill:url(#SVGID_00000036935291260957320350000004558836570922786707_);" d="M44.8,167.3c-8.9,2.8-22.7,7-21.7,18.9
	c0.2,2,1.7,4.2,3.9,4c5.1-0.5,7.3-5.9,9.5-9.8c1.5-2.6,3-4.1,5.6-5.7c3.3-2,7.1-1.4,10.6-2.3c3.4-0.9,3.1-5.5,0-6.6
	c-5.9-2-13,0.6-17.6,4.3c-2.2,1.8-3.7,3.9-5.2,6.4c-0.8,1.3-1.6,2.7-2.4,4c-0.8,1.3-2.2,1.9-0.5,1.7c1.3,1.3,2.6,2.6,3.9,3.9
	c-0.2-4.5,3.7-6.7,6.9-9c3-2.2,6-4.3,8.8-6.8C48,169.1,46.6,166.7,44.8,167.3L44.8,167.3L44.8,167.3z"/>
<linearGradient id="SVGID_00000156561395369875839420000001042284381897214866_" gradientUnits="userSpaceOnUse" x1="0" y1="822.1503" x2="46.1004" y2="822.1503" gradientTransform="matrix(1 0 0 -1 0 993.2394)">
	<stop  offset="0" style="stop-color:#98C5CC"/>
	<stop  offset="0.17" style="stop-color:#8EBFC7"/>
	<stop  offset="0.45" style="stop-color:#75B0BA"/>
	<stop  offset="0.8" style="stop-color:#4C99A5"/>
	<stop  offset="0.99" style="stop-color:#338B99"/>
</linearGradient>
<path style="fill:url(#SVGID_00000156561395369875839420000001042284381897214866_);" d="M45.3,166.1c-6.3-3.9-15.3-5.3-22.5-4
	c-7.5,1.3-19.7,5.2-22.5,12.8c-1.1,2.9,1.6,5.4,4.2,5.6c6.8,0.6,14.6-6.1,21.1-8.2c6.1-1.9,14.4,0.2,19.7-3.4
	C46.3,168.3,46.4,166.8,45.3,166.1L45.3,166.1L45.3,166.1z"/>
<linearGradient id="SVGID_00000101797663258092504120000016820200536963657121_" gradientUnits="userSpaceOnUse" x1="5.0344" y1="834.8225" x2="41.3511" y2="834.8225" gradientTransform="matrix(1 0 0 -1 0 993.2394)">
	<stop  offset="0" style="stop-color:#98C5CC"/>
	<stop  offset="0.17" style="stop-color:#8EBFC7"/>
	<stop  offset="0.45" style="stop-color:#75B0BA"/>
	<stop  offset="0.8" style="stop-color:#4C99A5"/>
	<stop  offset="0.99" style="stop-color:#338B99"/>
</linearGradient>
<path style="fill:url(#SVGID_00000101797663258092504120000016820200536963657121_);" d="M40.8,165c-8.2-6.9-20.6-7.5-28-15.1
	c-4.2-4.3-10.4,2.1-6.5,6.5c8.1,9.1,22.2,7.5,32.7,11.8C40.7,168.9,42.2,166.2,40.8,165L40.8,165z"/>
<linearGradient id="SVGID_00000065065358781881607260000006294182244038569630_" gradientUnits="userSpaceOnUse" x1="58.976" y1="843.0093" x2="80.7982" y2="843.0093" gradientTransform="matrix(1 0 0 -1 0 993.2394)">
	<stop  offset="0" style="stop-color:#98C5CC"/>
	<stop  offset="0.17" style="stop-color:#8EBFC7"/>
	<stop  offset="0.45" style="stop-color:#75B0BA"/>
	<stop  offset="0.8" style="stop-color:#4C99A5"/>
	<stop  offset="0.99" style="stop-color:#338B99"/>
</linearGradient>
<path style="fill:url(#SVGID_00000065065358781881607260000006294182244038569630_);" d="M78.5,178.6c5.6-5.6-0.4-15.2-3.1-20.9
	c-2.3-4.9-3.6-9.6-4.7-14.9c-1.3-6.3,1.1-10.9,1.1-16.9c0-4-4-5.6-7.3-4.2c-9.4,4.2-4.6,21.2-2.4,28.6c2.8,9.7,11.4,17.4,13.1,27.4
	C75.5,179.3,77.5,179.6,78.5,178.6L78.5,178.6L78.5,178.6z"/>
<linearGradient id="SVGID_00000049209930709592560180000000863587896417363340_" gradientUnits="userSpaceOnUse" x1="72.9376" y1="830.8707" x2="86.2926" y2="830.8707" gradientTransform="matrix(1 0 0 -1 0 993.2394)">
	<stop  offset="0" style="stop-color:#98C5CC"/>
	<stop  offset="0.17" style="stop-color:#8EBFC7"/>
	<stop  offset="0.45" style="stop-color:#75B0BA"/>
	<stop  offset="0.8" style="stop-color:#4C99A5"/>
	<stop  offset="0.99" style="stop-color:#338B99"/>
</linearGradient>
<path style="fill:url(#SVGID_00000049209930709592560180000000863587896417363340_);" d="M80.6,178.9c0.9-3.7,0.2-8,0.9-11.9
	c0.8-4.6,2-9.3,4.1-13.6c3.7-7.7-7.6-12.4-10.8-4.5c-2.2,5.6-2.1,12.5-1.5,18.4c0.4,3.8,1.2,11.3,5.6,12.6
	C79.6,180.1,80.4,179.6,80.6,178.9L80.6,178.9L80.6,178.9z"/>
<linearGradient id="SVGID_00000140724126572713831420000005906128276725869458_" gradientUnits="userSpaceOnUse" x1="37.9073" y1="866.1107" x2="101.9383" y2="866.1107" gradientTransform="matrix(1 0 0 -1 0 993.2394)">
	<stop  offset="0" style="stop-color:#98C5CC"/>
	<stop  offset="0.17" style="stop-color:#8EBFC7"/>
	<stop  offset="0.45" style="stop-color:#75B0BA"/>
	<stop  offset="0.8" style="stop-color:#4C99A5"/>
	<stop  offset="0.99" style="stop-color:#338B99"/>
</linearGradient>
<path style="fill:url(#SVGID_00000140724126572713831420000005906128276725869458_);" d="M91.2,199.8c16-20.5,12.5-47.7,0.6-69.2
	c-7-12.8-18.6-22.3-26.5-34.4c-7.4-11.4-11.1-25.5-15.5-38.3c-2.5-7.3-14.4-3.8-11.5,3.2c7.3,18,15.9,35.7,28.3,50.8
	c10.2,12.5,19.9,23.1,25,38.8c5.4,16.5,0.9,31.5-3.3,47.5C87.9,199.7,90.1,201.2,91.2,199.8L91.2,199.8L91.2,199.8z"/>
<linearGradient id="SVGID_00000127012929729906375520000015506124131346566550_" gradientUnits="userSpaceOnUse" x1="54.9783" y1="921.4133" x2="65.8825" y2="921.4133" gradientTransform="matrix(1 0 0 -1 0 993.2394)">
	<stop  offset="0" style="stop-color:#98C5CC"/>
	<stop  offset="0.17" style="stop-color:#8EBFC7"/>
	<stop  offset="0.45" style="stop-color:#75B0BA"/>
	<stop  offset="0.8" style="stop-color:#4C99A5"/>
	<stop  offset="0.99" style="stop-color:#338B99"/>
</linearGradient>
<path style="fill:url(#SVGID_00000127012929729906375520000015506124131346566550_);" d="M59.9,96.3C64,92,64,85.4,64.6,79.7
	c0.9-9.2,0.7-18.4,1.3-27.6c0.4-7-11.1-7.1-10.9,0c0.2,7.4,0.7,14.7,1.1,22c0.4,6.8-1.1,15.1,1.4,21.5
	C57.8,96.7,59.1,97.2,59.9,96.3L59.9,96.3L59.9,96.3z"/>
<linearGradient id="SVGID_00000132053171133121503550000004081657950960585376_" gradientUnits="userSpaceOnUse" x1="25.2912" y1="903.0626" x2="62.9266" y2="903.0626" gradientTransform="matrix(1 0 0 -1 0 993.2394)">
	<stop  offset="0" style="stop-color:#98C5CC"/>
	<stop  offset="0.17" style="stop-color:#8EBFC7"/>
	<stop  offset="0.45" style="stop-color:#75B0BA"/>
	<stop  offset="0.8" style="stop-color:#4C99A5"/>
	<stop  offset="0.99" style="stop-color:#338B99"/>
</linearGradient>
<path style="fill:url(#SVGID_00000132053171133121503550000004081657950960585376_);" d="M61.4,97.1c-4.5-1-8.7-2.1-12.9-4.2
	c-4.1-2-10.9-6.3-11.9-11.2c-2.4,2.4-4.9,4.9-7.3,7.3c1.2,0.3,2.3,2.1,3.1,2.9c1.9,1.9,4.3,3.4,6.4,5c3.4,2.6,7.5,4.8,11.9,4.8
	c3.1,0,5.1-3.4,3.5-6.1c-2.6-4.5-7.5-7.6-11.5-10.9c-4.2-3.5-6.1-6.7-11.8-7.4c-6.5-0.8-7.1,8-3,11.1c7.7,5.7,23.6,20.2,34,12.7
	C63.3,100,63.4,97.5,61.4,97.1L61.4,97.1L61.4,97.1z"/>
<linearGradient id="SVGID_00000162323384466875583720000001211865195100958123_" gradientUnits="userSpaceOnUse" x1="68.63" y1="900.5234" x2="86.8618" y2="900.5234" gradientTransform="matrix(1 0 0 -1 0 993.2394)">
	<stop  offset="0" style="stop-color:#98C5CC"/>
	<stop  offset="0.17" style="stop-color:#8EBFC7"/>
	<stop  offset="0.45" style="stop-color:#75B0BA"/>
	<stop  offset="0.8" style="stop-color:#4C99A5"/>
	<stop  offset="0.99" style="stop-color:#338B99"/>
</linearGradient>
<path style="fill:url(#SVGID_00000162323384466875583720000001211865195100958123_);" d="M85.8,125.4c2.3-8.4,0.7-16.7-1.6-24.9
	c-3.4-12.2-3.2-23.3-3.2-35.8c0-8-12.4-8-12.3,0c0.1,9.2,1.2,17.4,3.9,26.2c3.5,11.2,9.3,22.1,9.1,34.1
	C81.6,127.2,85.1,127.6,85.8,125.4L85.8,125.4L85.8,125.4z"/>
<linearGradient id="SVGID_00000028315925291122973150000000766382424508878241_" gradientUnits="userSpaceOnUse" x1="74.9837" y1="900.3922" x2="109.1663" y2="900.3922" gradientTransform="matrix(1 0 0 -1 0 993.2394)">
	<stop  offset="0" style="stop-color:#98C5CC"/>
	<stop  offset="0.17" style="stop-color:#8EBFC7"/>
	<stop  offset="0.45" style="stop-color:#75B0BA"/>
	<stop  offset="0.8" style="stop-color:#4C99A5"/>
	<stop  offset="0.99" style="stop-color:#338B99"/>
</linearGradient>
<path style="fill:url(#SVGID_00000028315925291122973150000000766382424508878241_);" d="M100.4,168.8c7.5-24.9,10.7-47.5,7.5-73.6
	c-3.2-26-16.9-49.4-21-75.4c-1.2-7.6-13.4-4.5-11.8,3.2c2.4,11.3,8,21.9,11.7,32.9c4.1,12,9.1,23.4,11.8,35.8
	c2.9,13.4,2.8,28.4,1.8,42c-0.9,11.9-4.2,22.4-3.9,34.5C96.5,170.6,99.8,171,100.4,168.8L100.4,168.8L100.4,168.8z"/>
<linearGradient id="SVGID_00000160166616992281560420000003434154142869758629_" gradientUnits="userSpaceOnUse" x1="62.8109" y1="947.057" x2="89.4925" y2="947.057" gradientTransform="matrix(1 0 0 -1 0 993.2394)">
	<stop  offset="0" style="stop-color:#98C5CC"/>
	<stop  offset="0.17" style="stop-color:#8EBFC7"/>
	<stop  offset="0.45" style="stop-color:#75B0BA"/>
	<stop  offset="0.8" style="stop-color:#4C99A5"/>
	<stop  offset="0.99" style="stop-color:#338B99"/>
</linearGradient>
<path style="fill:url(#SVGID_00000160166616992281560420000003434154142869758629_);" d="M88.7,50.9c-1.3-1.1-2.9-1.3-4.5-2.1
	c-1.9-1-3.6-2.4-5.1-4c-2.9-2.8-6.8-8.7-11-8.8c-1.7,0-3.7,1-4.5,2.6c0,0.1-0.1,0.2-0.1,0.3c-0.8,1.7-1.3,4.1,0,5.8
	c3.2,4.3,7.3,7.6,12.3,9.6c3.7,1.5,10.4,3.7,13.3-0.4C89.7,53.1,89.6,51.6,88.7,50.9L88.7,50.9L88.7,50.9z"/>
<linearGradient id="SVGID_00000005973067568365241630000016920041247033902777_" gradientUnits="userSpaceOnUse" x1="99.8254" y1="947.9638" x2="112.8834" y2="947.9638" gradientTransform="matrix(1 0 0 -1 0 993.2394)">
	<stop  offset="0" style="stop-color:#98C5CC"/>
	<stop  offset="0.17" style="stop-color:#8EBFC7"/>
	<stop  offset="0.45" style="stop-color:#75B0BA"/>
	<stop  offset="0.8" style="stop-color:#4C99A5"/>
	<stop  offset="0.99" style="stop-color:#338B99"/>
</linearGradient>
<path style="fill:url(#SVGID_00000005973067568365241630000016920041247033902777_);" d="M104.7,86.2c3.5-12.2,6.8-22.4,7.8-35.2
	c1.1-14.3-0.9-28.5-0.9-42.8c0.1-7.5-11.8-7.5-11.6,0c0.3,13,4.4,25.2,4.2,38.3c-0.2,13.1-5.3,26.1-4.3,39.1
	C100.2,88.2,103.9,88.9,104.7,86.2L104.7,86.2L104.7,86.2z"/>
<linearGradient id="SVGID_00000095303819429703125410000014550836175294882725_" gradientUnits="userSpaceOnUse" x1="88.9489" y1="955.9661" x2="108.2001" y2="955.9661" gradientTransform="matrix(1 0 0 -1 0 993.2394)">
	<stop  offset="0" style="stop-color:#98C5CC"/>
	<stop  offset="0.17" style="stop-color:#8EBFC7"/>
	<stop  offset="0.45" style="stop-color:#75B0BA"/>
	<stop  offset="0.8" style="stop-color:#4C99A5"/>
	<stop  offset="0.99" style="stop-color:#338B99"/>
</linearGradient>
<path style="fill:url(#SVGID_00000095303819429703125410000014550836175294882725_);" d="M107.8,50.1c-2.8-4.5-5.7-8.9-7.3-14
	c-0.8-2.7-1.5-5.5-2.2-8.2c-0.6-2.4-0.4-5.2-2.5-6.9c-1.5-1.2-3.7-1.6-5.2,0c-3.9,4.2,0.3,12.3,2.4,16.7c2.7,5.6,5.4,12.9,10.8,16.5
	C106.3,55.8,109.3,52.6,107.8,50.1L107.8,50.1L107.8,50.1z"/>
<linearGradient id="SVGID_00000090997338113413252770000005077966966700003719_" gradientUnits="userSpaceOnUse" x1="106.3814" y1="971.5143" x2="132.0245" y2="971.5143" gradientTransform="matrix(1 0 0 -1 0 993.2394)">
	<stop  offset="0" style="stop-color:#98C5CC"/>
	<stop  offset="0.17" style="stop-color:#8EBFC7"/>
	<stop  offset="0.45" style="stop-color:#75B0BA"/>
	<stop  offset="0.8" style="stop-color:#4C99A5"/>
	<stop  offset="0.99" style="stop-color:#338B99"/>
</linearGradient>
<path style="fill:url(#SVGID_00000090997338113413252770000005077966966700003719_);" d="M109.1,43.2c5.9-3.4,10.4-10.4,14.5-15.7
	c4.6-5.9,7.8-14.6,8.4-22c0.4-5.3-8.1-7.8-10.3-2.8c-2.9,6.7-5.2,13.8-8,20.6c-2.4,5.9-6.6,11.9-7.3,18.4
	C106.2,43.1,108,43.9,109.1,43.2L109.1,43.2L109.1,43.2z"/>
<linearGradient id="SVGID_00000127745411384929118140000007513295933426935737_" gradientUnits="userSpaceOnUse" x1="107.8587" y1="959.2132" x2="145.7334" y2="959.2132" gradientTransform="matrix(1 0 0 -1 0 993.2394)">
	<stop  offset="0" style="stop-color:#98C5CC"/>
	<stop  offset="0.17" style="stop-color:#8EBFC7"/>
	<stop  offset="0.45" style="stop-color:#75B0BA"/>
	<stop  offset="0.8" style="stop-color:#4C99A5"/>
	<stop  offset="0.99" style="stop-color:#338B99"/>
</linearGradient>
<path style="fill:url(#SVGID_00000127745411384929118140000007513295933426935737_);" d="M110.3,57.5c9.6-1.4,18.4-10.9,24.4-17.8
	c5.4-6.3,14.7-18.7,9.6-27.2c-1.4-2.3-4.2-2.4-6.1-0.8c-2.6,2.2-3.2,4.7-4.2,7.9c-1.5,4.9-4.5,9.5-7.4,13.7
	c-5.3,7.7-13.8,13.2-18.4,21.3C107.2,56.2,108.7,57.7,110.3,57.5L110.3,57.5L110.3,57.5z"/>
<linearGradient id="SVGID_00000103977671205084376220000012214565316126192302_" gradientUnits="userSpaceOnUse" x1="121.9748" y1="963.3984" x2="162.86" y2="963.3984" gradientTransform="matrix(1 0 0 -1 0 993.2394)">
	<stop  offset="0" style="stop-color:#98C5CC"/>
	<stop  offset="0.17" style="stop-color:#8EBFC7"/>
	<stop  offset="0.45" style="stop-color:#75B0BA"/>
	<stop  offset="0.8" style="stop-color:#4C99A5"/>
	<stop  offset="0.99" style="stop-color:#338B99"/>
</linearGradient>
<path style="fill:url(#SVGID_00000103977671205084376220000012214565316126192302_);" d="M124.7,46.9c4.1-0.9,7.3-3.7,10.7-6.1
	c4.4-3.2,9.1-4.4,13.9-6.7c6.8-3.2,12.6-9.2,13.5-16.9c0.5-4-5.2-5.8-7.7-3.2c-2.3,2.4-3.5,5.5-5.6,8c-2.8,3.2-6.8,4-10.4,5.8
	c-6.5,3.4-13.5,9.3-16.9,15.8C121.3,45.4,122.8,47.3,124.7,46.9L124.7,46.9L124.7,46.9z"/>
<linearGradient id="SVGID_00000079462280033588464410000008700352169589264830_" gradientUnits="userSpaceOnUse" x1="102.3099" y1="904.2051" x2="162.8671" y2="904.2051" gradientTransform="matrix(1 0 0 -1 0 993.2394)">
	<stop  offset="0" style="stop-color:#98C5CC"/>
	<stop  offset="0.17" style="stop-color:#8EBFC7"/>
	<stop  offset="0.45" style="stop-color:#75B0BA"/>
	<stop  offset="0.8" style="stop-color:#4C99A5"/>
	<stop  offset="0.99" style="stop-color:#338B99"/>
</linearGradient>
<path style="fill:url(#SVGID_00000079462280033588464410000008700352169589264830_);" d="M103.9,142.7c9.4-17.3,18.5-36.1,24.5-54.9
	c5.9-18.5,11.3-35.2,31-42.8c5-1.9,4.8-10.6-1.4-10.1c-17.9,1.5-25.9,20-31.6,34.7c-4.7,12.2-7.8,24.7-13,36.8
	c-5,11.6-10.8,23.1-11.1,35.9C102.3,143.1,103.5,143.5,103.9,142.7L103.9,142.7L103.9,142.7z"/>
<linearGradient id="SVGID_00000059998508454270659970000010796092176169534102_" gradientUnits="userSpaceOnUse" x1="122.8301" y1="921.6431" x2="169.5448" y2="921.6431" gradientTransform="matrix(1 0 0 -1 0 993.2394)">
	<stop  offset="0" style="stop-color:#98C5CC"/>
	<stop  offset="0.17" style="stop-color:#8EBFC7"/>
	<stop  offset="0.45" style="stop-color:#75B0BA"/>
	<stop  offset="0.8" style="stop-color:#4C99A5"/>
	<stop  offset="0.99" style="stop-color:#338B99"/>
</linearGradient>
<path style="fill:url(#SVGID_00000059998508454270659970000010796092176169534102_);" d="M125.4,90.5c7.5,2.6,14.5-3,19.5-8.1
	c3.1-3.1,5.5-7,8-10.6c4.2-5.8,9-7.9,14.6-11.8c3.6-2.5,2.1-7.6-2.2-8c-8.5-0.8-15.4,6.5-20,12.8c-4.1,5.7-10.8,18.5-19,18.5
	C122.1,83.4,121.6,89.2,125.4,90.5L125.4,90.5L125.4,90.5z"/>
<linearGradient id="SVGID_00000009590657403517249590000006110844980180583818_" gradientUnits="userSpaceOnUse" x1="99.9182" y1="880.7399" x2="174.7714" y2="880.7399" gradientTransform="matrix(1 0 0 -1 0 993.2394)">
	<stop  offset="0" style="stop-color:#98C5CC"/>
	<stop  offset="0.17" style="stop-color:#8EBFC7"/>
	<stop  offset="0.45" style="stop-color:#75B0BA"/>
	<stop  offset="0.8" style="stop-color:#4C99A5"/>
	<stop  offset="0.99" style="stop-color:#338B99"/>
</linearGradient>
<path style="fill:url(#SVGID_00000009590657403517249590000006110844980180583818_);" d="M104.6,152.2c3-17.9,14.8-33.1,29.4-43.3
	c13.4-9.4,27.6-15.1,39.1-27.2c5.4-5.7-3.7-14.5-8.5-8.5c-21.3,25.9-68.1,36.6-64.4,78.5C100.3,154,104.1,154.9,104.6,152.2
	L104.6,152.2L104.6,152.2z"/>
<linearGradient id="SVGID_00000083073239055229840320000003454390436575698581_" gradientUnits="userSpaceOnUse" x1="115.9784" y1="888.1184" x2="175.5522" y2="888.1184" gradientTransform="matrix(1 0 0 -1 0 993.2394)">
	<stop  offset="0" style="stop-color:#98C5CC"/>
	<stop  offset="0.17" style="stop-color:#8EBFC7"/>
	<stop  offset="0.45" style="stop-color:#75B0BA"/>
	<stop  offset="0.8" style="stop-color:#4C99A5"/>
	<stop  offset="0.99" style="stop-color:#338B99"/>
</linearGradient>
<path style="fill:url(#SVGID_00000083073239055229840320000003454390436575698581_);" d="M119,119c9.9-3.2,19.1-0.4,29.2-2.1
	c9.8-1.7,19.4-7.5,25.8-14.9c5.3-6.1-3.9-14.9-8.7-8.7c-7.2,9.2-18.2,14.2-29.8,14c-7.8-0.1-15.5,0.4-19.2,8.1
	C115.4,117.2,116.8,119.7,119,119L119,119L119,119z"/>
<linearGradient id="SVGID_00000105393259468018027170000009781012620838757790_" gradientUnits="userSpaceOnUse" x1="145.0834" y1="875.7789" x2="178.1948" y2="875.7789" gradientTransform="matrix(1 0 0 -1 0 993.2394)">
	<stop  offset="0" style="stop-color:#98C5CC"/>
	<stop  offset="0.17" style="stop-color:#8EBFC7"/>
	<stop  offset="0.45" style="stop-color:#75B0BA"/>
	<stop  offset="0.8" style="stop-color:#4C99A5"/>
	<stop  offset="0.99" style="stop-color:#338B99"/>
</linearGradient>
<path style="fill:url(#SVGID_00000105393259468018027170000009781012620838757790_);" d="M147.1,117.4c2.1,0.8,4.3,1.1,6.4,2.1
	c2.5,1.3,4.9,2.8,7.5,3.9c5.2,2.2,11.4,2.1,15.6-2.1c3.9-4,0-10.6-5.4-9.2c-2.3,0.6-3.8,1.5-6.2,1c-2.3-0.5-4.4-1.5-6.7-2.2
	c-4.1-1.1-9.3-1.7-12.5,1.8C144.4,114.4,145.1,116.7,147.1,117.4L147.1,117.4L147.1,117.4z"/>
<linearGradient id="SVGID_00000182511255669655286920000013849721884789126581_" gradientUnits="userSpaceOnUse" x1="89.7594" y1="810.4042" x2="155.8592" y2="810.4042" gradientTransform="matrix(1 0 0 -1 0 993.2394)">
	<stop  offset="0" style="stop-color:#98C5CC"/>
	<stop  offset="0.17" style="stop-color:#8EBFC7"/>
	<stop  offset="0.45" style="stop-color:#75B0BA"/>
	<stop  offset="0.8" style="stop-color:#4C99A5"/>
	<stop  offset="0.99" style="stop-color:#338B99"/>
</linearGradient>
<path style="fill:url(#SVGID_00000182511255669655286920000013849721884789126581_);" d="M93.1,237.9c7.6-20.5,24-31,38-46.8
	c14.2-15.9,8.5-39.8,23.1-54.9c5.1-5.3-2.6-13-8-8c-17.6,16.1-11,43.3-26.4,61.4c-11.9,14-31.6,27.2-29.9,48
	C90,239.4,92.4,239.7,93.1,237.9L93.1,237.9L93.1,237.9z"/>
<linearGradient id="SVGID_00000088099926930730925650000013555398281098780317_" gradientUnits="userSpaceOnUse" x1="120.9456" y1="842.1068" x2="139.7687" y2="842.1068" gradientTransform="matrix(1 0 0 -1 0 993.2394)">
	<stop  offset="0" style="stop-color:#98C5CC"/>
	<stop  offset="0.17" style="stop-color:#8EBFC7"/>
	<stop  offset="0.45" style="stop-color:#75B0BA"/>
	<stop  offset="0.8" style="stop-color:#4C99A5"/>
	<stop  offset="0.99" style="stop-color:#338B99"/>
</linearGradient>
<path style="fill:url(#SVGID_00000088099926930730925650000013555398281098780317_);" d="M139.5,165.5c-2.1-4.6-4.7-8.7-6.1-13.6
	c-1.5-5-1.4-10.2-2.4-15.3c-1.1-5.7-10.3-4.4-10.1,1.4c0.5,10.9,5.3,25.1,15.1,30.9C138.4,170.3,140.5,167.7,139.5,165.5
	L139.5,165.5L139.5,165.5z"/>
<linearGradient id="SVGID_00000142165701046946889570000016161966388261843135_" gradientUnits="userSpaceOnUse" x1="135.8316" y1="842.8515" x2="169.5632" y2="842.8515" gradientTransform="matrix(1 0 0 -1 0 993.2394)">
	<stop  offset="0" style="stop-color:#98C5CC"/>
	<stop  offset="0.17" style="stop-color:#8EBFC7"/>
	<stop  offset="0.45" style="stop-color:#75B0BA"/>
	<stop  offset="0.8" style="stop-color:#4C99A5"/>
	<stop  offset="0.99" style="stop-color:#338B99"/>
</linearGradient>
<path style="fill:url(#SVGID_00000142165701046946889570000016161966388261843135_);" d="M136,159.9c3.6,10.3,16.3,5.6,21.7,0
	c3.1-3.3,5.5-7.3,7.9-11.1c2-3.1,4.6-6.9,3.9-10.8c-0.3-1.4-1.6-2.6-3-3c-6.8-2.1-11.6,7.7-14.5,12.2c-1.5,2.2-3.1,4.9-5.3,6.5
	c-2.5,1.9-5.2,0.8-8.1,1.6C136.8,155.8,135.3,158,136,159.9L136,159.9L136,159.9z"/>
<linearGradient id="SVGID_00000183208200306758013950000007483231334482082949_" gradientUnits="userSpaceOnUse" x1="116.7743" y1="803.245" x2="173.2827" y2="803.245" gradientTransform="matrix(1 0 0 -1 0 993.2394)">
	<stop  offset="0" style="stop-color:#98C5CC"/>
	<stop  offset="0.17" style="stop-color:#8EBFC7"/>
	<stop  offset="0.45" style="stop-color:#75B0BA"/>
	<stop  offset="0.8" style="stop-color:#4C99A5"/>
	<stop  offset="0.99" style="stop-color:#338B99"/>
</linearGradient>
<path style="fill:url(#SVGID_00000183208200306758013950000007483231334482082949_);" d="M120.7,199c6.6-4.3,14.8-6.5,22.5-7.8
	c4.2-0.7,8.5-0.8,12.7-0.5c4.4,0.3,6.9,2.8,10.6,4.4c3.5,1.5,7.5-0.9,6.6-5c-2.2-9.5-16.4-9.9-24-9.5c-11.7,0.7-24.1,5-31.7,14.2
	C115.6,197,118,200.8,120.7,199L120.7,199L120.7,199z"/>
<linearGradient id="SVGID_00000101781565485550703800000002247311480870662036_" gradientUnits="userSpaceOnUse" x1="148.3609" y1="824.2955" x2="172.5701" y2="824.2955" gradientTransform="matrix(1 0 0 -1 0 993.2394)">
	<stop  offset="0" style="stop-color:#98C5CC"/>
	<stop  offset="0.17" style="stop-color:#8EBFC7"/>
	<stop  offset="0.45" style="stop-color:#75B0BA"/>
	<stop  offset="0.8" style="stop-color:#4C99A5"/>
	<stop  offset="0.99" style="stop-color:#338B99"/>
</linearGradient>
<path style="fill:url(#SVGID_00000101781565485550703800000002247311480870662036_);" d="M152.9,184.4c2.7-3.9,4.6-8.1,7.7-11.8
	c3.3-3.9,7-7.3,10.5-11c1.7-1.8,1.9-4.1,0.8-6.3c-0.4-0.9-1.1-1.3-1.9-1.9c-1.4-1-3.9-0.9-5.2,0c-5.4,3.6-9.8,8.7-13,14.3
	c-2.6,4.5-5.1,11.9-1.9,16.6C150.6,185.5,152.1,185.5,152.9,184.4L152.9,184.4L152.9,184.4z"/>
<linearGradient id="SVGID_00000150791413113180384210000016468147013831614622_" gradientUnits="userSpaceOnUse" x1="155.4363" y1="815.5477" x2="178.7385" y2="815.5477" gradientTransform="matrix(1 0 0 -1 0 993.2394)">
	<stop  offset="0" style="stop-color:#98C5CC"/>
	<stop  offset="0.17" style="stop-color:#8EBFC7"/>
	<stop  offset="0.45" style="stop-color:#75B0BA"/>
	<stop  offset="0.8" style="stop-color:#4C99A5"/>
	<stop  offset="0.99" style="stop-color:#338B99"/>
</linearGradient>
<path style="fill:url(#SVGID_00000150791413113180384210000016468147013831614622_);" d="M158,187.3c3.4-2.2,5.9-5.3,9.4-7.5
	c3.7-2.3,9.7-2,11.2-6.7c0.4-1.3-0.1-2.6-1-3.6c-0.1-0.1-0.3-0.3-0.4-0.4c-1.1-1.2-2.9-1.6-4.5-1.2c-7.5,2.1-17.6,9.1-17.3,17.8
	C155.5,187.1,156.9,188,158,187.3L158,187.3L158,187.3z"/>
<linearGradient id="SVGID_00000097493365187898119070000009475982010744011961_" gradientUnits="userSpaceOnUse" x1="88.1902" y1="855.3229" x2="107.3602" y2="855.3229" gradientTransform="matrix(1 0 0 -1 0 993.2394)">
	<stop  offset="0" style="stop-color:#98C5CC"/>
	<stop  offset="0.17" style="stop-color:#8EBFC7"/>
	<stop  offset="0.45" style="stop-color:#75B0BA"/>
	<stop  offset="0.8" style="stop-color:#4C99A5"/>
	<stop  offset="0.99" style="stop-color:#338B99"/>
</linearGradient>
<path style="fill:url(#SVGID_00000097493365187898119070000009475982010744011961_);" d="M88.2,135.8c1.1,5.3,4.6,12.9,11.4,11.1
	c5.8-1.6,9.1-10.7,7.2-16c-0.7-2-3.5-3.2-5.1-1.4c-2.4,2.7-2.8,7.3-5.1,9.6c0.6-0.6-0.1-0.2,0.3-0.2c0.3,0-0.6-0.2-0.9-0.4
	c-1.9-1-3.6-2.8-5.2-4.2C89.6,133.3,87.9,134.3,88.2,135.8L88.2,135.8L88.2,135.8z"/>
<linearGradient id="SVGID_00000061433125219025946390000009434208622198879887_" gradientUnits="userSpaceOnUse" x1="115.8546" y1="888.2593" x2="134.7657" y2="888.2593" gradientTransform="matrix(1 0 0 -1 0 993.2394)">
	<stop  offset="0" style="stop-color:#98C5CC"/>
	<stop  offset="0.17" style="stop-color:#8EBFC7"/>
	<stop  offset="0.45" style="stop-color:#75B0BA"/>
	<stop  offset="0.8" style="stop-color:#4C99A5"/>
	<stop  offset="0.99" style="stop-color:#338B99"/>
</linearGradient>
<path style="fill:url(#SVGID_00000061433125219025946390000009434208622198879887_);" d="M117.3,98c-2.7,3.6-1.4,8.8,1.5,11.9
	c3,3.2,8.5,4.1,12.6,3.3c4.6-0.9,4.4-8,0-9c-1-0.2-2-0.3-3-0.4c-0.4,0-0.7-0.1-1.1-0.1c0.4,0.1,0.4,0.1-0.2,0
	c-0.6-0.1-1.1-0.3-1.6-0.4c-0.5-0.2-0.5-0.2,0.1,0.1c-0.2-0.1-1.1-0.8-0.2-0.1c-0.9-0.8,0,0.2-0.4-0.4c-0.1-0.2-0.9-1.7-0.6-1.1
	c-0.7-1.6-1.3-3.1-2.5-4.4C120.6,95.8,118.4,96.6,117.3,98L117.3,98L117.3,98z"/>
<linearGradient id="SVGID_00000101782754423788579390000001455181913683998125_" gradientUnits="userSpaceOnUse" x1="88.7939" y1="859.4432" x2="107.2923" y2="859.4432" gradientTransform="matrix(1 0 0 -1 0 993.2394)">
	<stop  offset="0" style="stop-color:#98C5CC"/>
	<stop  offset="0.17" style="stop-color:#8EBFC7"/>
	<stop  offset="0.45" style="stop-color:#75B0BA"/>
	<stop  offset="0.8" style="stop-color:#4C99A5"/>
	<stop  offset="0.99" style="stop-color:#338B99"/>
</linearGradient>
<path style="fill:url(#SVGID_00000101782754423788579390000001455181913683998125_);" d="M88.9,136.1c-0.5,2.4,1.3,3.8,3.2,4.9
	c2.2,1.3,4.8,1,7.1,0.1c4-1.7,8.8-7.6,8-12.2c-0.4-2.4-3.1-3.9-5.3-2.6c-2.1,1.2-2.8,4-4.1,6c-0.8,1.3-2,3-3.7,3.2
	C92.8,135.5,89.4,133.3,88.9,136.1L88.9,136.1L88.9,136.1z"/>
<linearGradient id="SVGID_00000081621196279398672680000003383586795970103733_" gradientUnits="userSpaceOnUse" x1="94.6882" y1="928.6635" x2="110.1708" y2="928.6635" gradientTransform="matrix(1 0 0 -1 0 993.2394)">
	<stop  offset="0" style="stop-color:#98C5CC"/>
	<stop  offset="0.17" style="stop-color:#8EBFC7"/>
	<stop  offset="0.45" style="stop-color:#75B0BA"/>
	<stop  offset="0.8" style="stop-color:#4C99A5"/>
	<stop  offset="0.99" style="stop-color:#338B99"/>
</linearGradient>
<path style="fill:url(#SVGID_00000081621196279398672680000003383586795970103733_);" d="M94.7,64.1c0.2,4.6,4.1,8.6,8.9,6.7
	c4.1-1.6,8.1-7.1,6-11.5c-0.6-1.4-3-2.1-4.2-1.1c-1.9,1.4-2.6,3.9-4.2,5.4c-0.5,0.5-0.5,0.4-0.8,0.6c0.1-0.1,0.1,0-0.2,0
	c0.4,0-0.1,0-0.3-0.1c-0.6-0.5-1.1-1-1.7-1.5C97,61.4,94.6,62.3,94.7,64.1L94.7,64.1L94.7,64.1z"/>
<linearGradient id="SVGID_00000109749695287235767730000012562483809354627725_" gradientUnits="userSpaceOnUse" x1="125.8797" y1="913.4966" x2="141.0777" y2="913.4966" gradientTransform="matrix(1 0 0 -1 0 993.2394)">
	<stop  offset="0" style="stop-color:#98C5CC"/>
	<stop  offset="0.17" style="stop-color:#8EBFC7"/>
	<stop  offset="0.45" style="stop-color:#75B0BA"/>
	<stop  offset="0.8" style="stop-color:#4C99A5"/>
	<stop  offset="0.99" style="stop-color:#338B99"/>
</linearGradient>
<path style="fill:url(#SVGID_00000109749695287235767730000012562483809354627725_);" d="M128.2,72.4c-1.7,1.4-2,3.9-2.2,6
	c-0.3,2.2,0.9,4.6,2.2,6.2c2.6,3.3,9.1,4.5,12,0.9c1.9-2.3,0.9-6.7-2.7-6.5c-0.7,0.1-1.3,0.1-1.9,0.3c-0.3,0.1-0.6,0.2-0.9,0.3
	c0.4,0,0.3,0-0.2,0c0.3,0-0.1,0-0.3-0.1c-0.3-0.1-0.4-0.3-0.4-0.3c-0.6-0.8-0.6-1.5-0.6-2.5c0-1.6-0.1-3.2-1.4-4.4
	C130.6,71.5,129.3,71.5,128.2,72.4L128.2,72.4L128.2,72.4z"/>
<linearGradient id="SVGID_00000028286757841414067310000013351639584924962952_" gradientUnits="userSpaceOnUse" x1="106.4153" y1="946.0319" x2="123.4917" y2="946.0319" gradientTransform="matrix(1 0 0 -1 0 993.2394)">
	<stop  offset="0" style="stop-color:#98C5CC"/>
	<stop  offset="0.17" style="stop-color:#8EBFC7"/>
	<stop  offset="0.45" style="stop-color:#75B0BA"/>
	<stop  offset="0.8" style="stop-color:#4C99A5"/>
	<stop  offset="0.99" style="stop-color:#338B99"/>
</linearGradient>
<path style="fill:url(#SVGID_00000028286757841414067310000013351639584924962952_);" d="M106.9,42.9c-1.9,4.3,2,7.7,5.6,9.1
	c3.4,1.4,10,0.9,10.9-3.6c0.4-2.1-0.9-4.1-3.2-4.2c-2.1,0-3.3,1.3-5.3,0.9c-1.9-0.4-2.9-1.6-4.3-2.8
	C109.6,41.5,107.6,41.4,106.9,42.9L106.9,42.9L106.9,42.9z"/>
<linearGradient id="SVGID_00000131364571122027401810000008849390080067856054_" gradientUnits="userSpaceOnUse" x1="44.9426" y1="799.7273" x2="94.5649" y2="799.7273" gradientTransform="matrix(1 0 0 -1 0 993.2394)">
	<stop  offset="0" style="stop-color:#98C5CC"/>
	<stop  offset="0.17" style="stop-color:#8EBFC7"/>
	<stop  offset="0.45" style="stop-color:#75B0BA"/>
	<stop  offset="0.8" style="stop-color:#4C99A5"/>
	<stop  offset="0.99" style="stop-color:#338B99"/>
</linearGradient>
<path style="fill:url(#SVGID_00000131364571122027401810000008849390080067856054_);" d="M46.5,171.7c11.5,5.5,24,3.5,33.5,13.5
	c9.7,10.3,2.8,23.5,7.8,34.9c0.8,1.8,3.6,1.2,4-0.5c3.6-13,4.9-27.3-4-38.5c-9.8-12.4-24.8-14.7-39.8-15.3
	C45.1,165.7,43.6,170.4,46.5,171.7L46.5,171.7L46.5,171.7z"/>
</svg>
