<?xml version="1.0" encoding="UTF-8"?><svg id="coral" xmlns="http://www.w3.org/2000/svg" xmlns:xlink="http://www.w3.org/1999/xlink" viewBox="0 0 2072.73 1166.38"><defs><style>.cls-1{fill:url(#navy-24);}.cls-2{fill:url(#navy-25);}.cls-3{fill:url(#navy-26);}.cls-4{fill:url(#navy-27);}.cls-5{fill:url(#navy-22);}.cls-6{fill:url(#navy-23);}.cls-7{fill:url(#navy-28);}.cls-8{fill:url(#navy-29);}.cls-9{fill:url(#navy-20);}.cls-10{fill:url(#navy-21);}.cls-11{fill:url(#navy-16);}.cls-12{fill:url(#navy-15);}.cls-13{fill:url(#navy-14);}.cls-14{fill:url(#navy-13);}.cls-15{fill:url(#navy-19);}.cls-16{fill:url(#navy-18);}.cls-17{fill:url(#navy-17);}.cls-18{fill:url(#navy-12);}.cls-19{fill:url(#navy-11);}.cls-20{fill:url(#navy-10);}.cls-21{fill:url(#navy-37);}.cls-22{fill:url(#navy-36);}.cls-23{fill:url(#navy-35);}.cls-24{fill:url(#navy-34);}.cls-25{fill:url(#navy-31);}.cls-26{fill:url(#navy-30);}.cls-27{fill:url(#navy-39);}.cls-28{fill:url(#navy-38);}.cls-29{fill:url(#navy-33);}.cls-30{fill:url(#navy-32);}.cls-31{fill:url(#navy-44);}.cls-32{fill:url(#navy-45);}.cls-33{fill:url(#navy-42);}.cls-34{fill:url(#navy-46);}.cls-35{fill:url(#navy-47);}.cls-36{fill:url(#navy-41);}.cls-37{fill:url(#navy-40);}.cls-38{fill:url(#navy-48);}.cls-39{fill:url(#navy-49);}.cls-40{fill:url(#navy-43);}.cls-41{fill:url(#navy-50);}.cls-42{fill:url(#navy-53);}.cls-43{fill:url(#navy-51);}.cls-44{fill:url(#navy-52);}.cls-45{fill:url(#navy-54);}.cls-46{fill:url(#navy);}.cls-47{fill:url(#navy-4);}.cls-48{fill:url(#navy-8);}.cls-49{fill:url(#navy-9);}.cls-50{fill:url(#navy-2);}.cls-51{fill:url(#navy-5);}.cls-52{fill:url(#navy-7);}.cls-53{fill:url(#navy-3);}.cls-54{fill:url(#navy-6);}</style><linearGradient id="navy" x1="119.05" y1="276.76" x2="256.78" y2="276.76" gradientUnits="userSpaceOnUse"><stop offset="0" stop-color="#8494a9"/><stop offset=".15" stop-color="#7a8ba2"/><stop offset=".39" stop-color="#617590"/><stop offset=".7" stop-color="#385173"/><stop offset=".99" stop-color="#0b2a54"/></linearGradient><linearGradient id="navy-2" x1="168.72" y1="236.68" x2="256.54" y2="236.68" xlink:href="#navy"/><linearGradient id="navy-3" x1="251.15" y1="246.48" x2="274.76" y2="246.48" xlink:href="#navy"/><linearGradient id="navy-4" x1="249.94" y1="253.62" x2="370.3" y2="253.62" xlink:href="#navy"/><linearGradient id="navy-5" x1="132.12" y1="195.79" x2="152.09" y2="195.79" xlink:href="#navy"/><linearGradient id="navy-6" x1="100.43" y1="244.3" x2="144.85" y2="244.3" xlink:href="#navy"/><linearGradient id="navy-7" x1="174.34" y1="272.87" x2="185.41" y2="272.87" xlink:href="#navy"/><linearGradient id="navy-8" x1="146.71" y1="109.43" x2="170.67" y2="109.43" xlink:href="#navy"/><linearGradient id="navy-9" x1="184.89" y1="154.38" x2="206.3" y2="154.38" xlink:href="#navy"/><linearGradient id="navy-10" x1="161.76" y1="214.24" x2="207.35" y2="214.24" xlink:href="#navy"/><linearGradient id="navy-11" x1="225.73" y1="227.01" x2="235.3" y2="227.01" xlink:href="#navy"/><linearGradient id="navy-12" x1="227.82" y1="157.07" x2="260.81" y2="157.07" xlink:href="#navy"/><linearGradient id="navy-13" x1="255.75" y1="128.2" x2="279.61" y2="128.2" xlink:href="#navy"/><linearGradient id="navy-14" x1="211.48" y1="157.17" x2="234.64" y2="157.17" xlink:href="#navy"/><linearGradient id="navy-15" x1="266.68" y1="176.5" x2="292" y2="176.5" xlink:href="#navy"/><linearGradient id="navy-16" x1="284.44" y1="168.17" x2="309.92" y2="168.17" xlink:href="#navy"/><linearGradient id="navy-17" x1="289.64" y1="246.39" x2="305.51" y2="246.39" xlink:href="#navy"/><linearGradient id="navy-18" x1="293.06" y1="226.3" x2="315.77" y2="226.3" xlink:href="#navy"/><linearGradient id="navy-19" x1="307.82" y1="216.11" x2="329.1" y2="216.11" xlink:href="#navy"/><linearGradient id="navy-20" x1="330.28" y1="168.34" x2="357.08" y2="168.34" xlink:href="#navy"/><linearGradient id="navy-21" x1="316.04" y1="142.36" x2="332.4" y2="142.36" xlink:href="#navy"/><linearGradient id="navy-22" x1="337.36" y1="169.08" x2="356.98" y2="169.08" xlink:href="#navy"/><linearGradient id="navy-23" x1="364.4" y1="140.17" x2="396.23" y2="140.17" xlink:href="#navy"/><linearGradient id="navy-24" x1="386.66" y1="128.47" x2="408.87" y2="128.47" xlink:href="#navy"/><linearGradient id="navy-25" x1="254.97" y1="293.36" x2="401.24" y2="293.36" xlink:href="#navy"/><linearGradient id="navy-26" x1="355.28" y1="260.11" x2="366.32" y2="260.11" xlink:href="#navy"/><linearGradient id="navy-27" x1="360.21" y1="250.12" x2="379.57" y2="250.12" xlink:href="#navy"/><linearGradient id="navy-28" x1="178.52" y1="254.08" x2="201.57" y2="254.08" xlink:href="#navy"/><linearGradient id="navy-29" x1="151.46" y1="216.48" x2="173.35" y2="216.48" xlink:href="#navy"/><linearGradient id="navy-30" x1="128.81" y1="107.46" x2="156.16" y2="107.46" xlink:href="#navy"/><linearGradient id="navy-31" x1="151.1" y1="180.91" x2="168.06" y2="180.91" xlink:href="#navy"/><linearGradient id="navy-32" x1="102.33" y1="190.09" x2="126.92" y2="190.09" xlink:href="#navy"/><linearGradient id="navy-33" x1="108.26" y1="227.1" x2="124.35" y2="227.1" xlink:href="#navy"/><linearGradient id="navy-34" x1="249.87" y1="244.88" x2="270.12" y2="244.88" xlink:href="#navy"/><linearGradient id="navy-35" x1="238.36" y1="244.34" x2="262.1" y2="244.34" xlink:href="#navy"/><linearGradient id="navy-36" x1="230.1" y1="203.82" x2="243.34" y2="203.82" xlink:href="#navy"/><linearGradient id="navy-37" x1="199.74" y1="196.81" x2="213.9" y2="196.81" xlink:href="#navy"/><linearGradient id="navy-38" x1="151.73" y1="152.74" x2="183.47" y2="152.74" xlink:href="#navy"/><linearGradient id="navy-39" x1="186.34" y1="137.11" x2="202.26" y2="137.11" xlink:href="#navy"/><linearGradient id="navy-40" x1="236.29" y1="116.39" x2="254.19" y2="116.39" xlink:href="#navy"/><linearGradient id="navy-41" x1="193.27" y1="252.54" x2="213.49" y2="252.54" xlink:href="#navy"/><linearGradient id="navy-42" x1="151.45" y1="252.5" x2="166.59" y2="252.5" xlink:href="#navy"/><linearGradient id="navy-43" x1="139.13" y1="305.87" x2="197.23" y2="305.87" xlink:href="#navy"/><linearGradient id="navy-44" x1="206.26" y1="288.08" x2="251.23" y2="288.08" xlink:href="#navy"/><linearGradient id="navy-45" x1="220.36" y1="284.42" x2="229.01" y2="284.42" xlink:href="#navy"/><linearGradient id="navy-46" x1="354.53" y1="197.28" x2="387.09" y2="197.28" xlink:href="#navy"/><linearGradient id="navy-47" x1="374.47" y1="186.98" x2="400.05" y2="186.98" xlink:href="#navy"/><linearGradient id="navy-48" x1="387.61" y1="229.78" x2="422.1" y2="229.78" xlink:href="#navy"/><linearGradient id="navy-49" x1="401.81" y1="217.92" x2="411.4" y2="217.92" xlink:href="#navy"/><linearGradient id="navy-50" x1="327.63" y1="282.61" x2="339.71" y2="282.61" xlink:href="#navy"/><linearGradient id="navy-51" x1="329.09" y1="277" x2="347.85" y2="277" xlink:href="#navy"/><linearGradient id="navy-52" x1="276.94" y1="264.47" x2="297.9" y2="264.47" xlink:href="#navy"/><linearGradient id="navy-53" x1="325.65" y1="237.52" x2="336.24" y2="237.52" xlink:href="#navy"/><linearGradient id="navy-54" x1="315.01" y1="196.52" x2="344.17" y2="196.52" xlink:href="#navy"/></defs><path class="cls-46" d="M119.12,169.14c9.54,41.68,9.09,88.96,42.83,119.73,14.33,13.07,32.33,20.52,48.38,30.99,21.57,14.08,38.77,37.48,37.7,63.99-.22,5.48,7.74,5.2,8.34,0,5.22-45.83-39.65-69.35-72.2-89.53-20.1-12.46-33.95-29.18-41.52-51.65-8.32-24.72-8.03-51.51-18.56-75.63-1.28-2.93-5.61-.77-4.96,2.09h0Z"/><path class="cls-50" d="M251.14,383.03c11.53-48.08,4.62-92.24-20.91-134.56-28.39-47.08-66.9-96.09-49.78-154.44,1.38-4.71-5.95-6.71-7.32-2.02-14.72,50.16,9.96,96.37,36.46,137.64,14.21,22.13,28.36,43.19,36.11,68.63,8.3,27.25,7.01,56.2,2.77,84.01-.27,1.72,2.25,2.52,2.68,.74h0Z"/><path class="cls-53" d="M254.3,380.69c7.19-42.78,18.73-85.3,20.34-128.81,1.71-46.39-14.97-90.81-14.08-137.33,.09-4.74-6.61-4.44-7.16,0-5.54,44.34,13.17,88.19,13.82,132.47,.67,45.08-14.76,88.37-16.07,133.24-.05,1.78,2.85,2.23,3.16,.43h0Z"/><path class="cls-47" d="M254.4,380.26c1.4-12.04,1.81-23.49,5.97-35.05,4.04-11.24,11.63-20.91,19.62-29.58,14.49-15.71,32.05-28.19,46.42-44.06,34.3-37.88,50.89-93.46,41.13-143.61-.9-4.65-7.56-2.56-6.95,1.92,8,58.3-12.78,112.65-55.42,152.8-27.64,26.03-62.2,55.13-54,98.02,.38,1.98,3.04,1.26,3.24-.44h0Z"/><path class="cls-51" d="M132.46,224.32c7.25,6.48,14.42-9.14,15.94-13.91,4.13-13,3.4-27.71,3.69-41.19,.1-4.73-6.88-4.6-7.25,0-.78,9.63-.28,19.31-1.23,28.95-.58,5.84-1.63,11.83-4.24,17.12-1.73,3.5-5.42,4.46-7.09,7.59-.24,.46-.22,1.08,.19,1.45h0Z"/><path class="cls-54" d="M142.88,257.36c-14.15-.57-29.73-16.41-34.43-29.37-1.76-4.85-9.58-2.7-7.74,2.14,3.91,10.3,12.27,18.9,20.82,25.55,4.86,3.78,17.15,11.77,22.78,5.13,1.14-1.34,.41-3.37-1.43-3.44h0Z"/><path class="cls-52" d="M178.52,294.62c8.42-12.25,7.99-28.03,4.67-41.96-1.07-4.49-7.62-2.54-6.82,1.88,2.47,13.75,1.79,24.94-1.94,38.36-.71,2.55,2.69,3.75,4.08,1.72h0Z"/><path class="cls-48" d="M170.48,129.37c-1.32-2.63-4.1-3.25-6.27-5.15-3.35-2.93-5.18-7.66-6.5-11.77-2.45-7.63-2.05-15.46-3.11-23.26-.64-4.72-7.16-2.9-7.63,1.03-1.09,9.03,1.29,20.35,5.1,28.5,2.38,5.1,10.9,17.5,17.88,12.67,.69-.48,.91-1.26,.53-2.02h0Z"/><path class="cls-49" d="M187.71,184.39c19.44-8.61,21.28-40.13,16.14-57.64-1.33-4.51-8.41-2.57-7.03,1.94,5.58,18.28,1.79,38.77-11.37,52.77-1.53,1.63,.38,3.76,2.26,2.93h0Z"/><path class="cls-20" d="M206.3,222.87c-7.29-1.18-13.26-1.49-20.27-4.65-7.15-3.22-14.55-8.29-17.69-15.71-1.79-4.23-8.13-.6-6.22,3.64,3.9,8.67,12.89,14.52,21.43,17.97,5.8,2.35,18.01,6.45,23.4,1.19,.72-.7,.46-2.25-.64-2.43h0Z"/><path class="cls-19" d="M230.39,254.34c4.82-3.9,4.06-14.67,4.51-20.41,.82-10.59,.56-21.88-2.62-32.09-1.29-4.12-7.4-2.43-6.45,1.78,2.3,10.14,2.84,19.95,2.61,30.31-.13,5.84-3.01,15.37,.75,20.25,.32,.41,.78,.49,1.19,.16h0Z"/><path class="cls-18" d="M259.76,175.79c-14.51-1.95-23.6-24.93-24.71-37.7-.4-4.61-7.68-4.6-7.21,0,1.11,10.69,5.89,21.29,12.02,30,4.32,6.13,12.05,14.32,20.24,10.35,1.06-.52,.9-2.49-.35-2.66h0Z"/><path class="cls-14" d="M258.3,152.75c15.79-3.82,22.11-32.13,21.24-45.77-.24-3.64-5.92-4.87-6.69-.91-1.44,7.36-1.72,14.78-3.68,22.08-2.44,9.12-7.58,14.55-13.07,21.72-1.12,1.46,.71,3.23,2.21,2.87h0Z"/><path class="cls-13" d="M234.41,159.64s-.04-.08-.07-.12c-.34-.61-1.13-1.13-1.85-1.06-2.9,.26-5.98-.46-8.72-1.38-3.85-1.28-4.78-5.38-8.28-6.71-1.63-.62-3.15,.69-3.68,2.09-1.88,4.93,4.83,9.13,8.59,10.62,4.12,1.63,8.65,1.25,12.67-.4,.85-.35,1.65-1.04,1.58-2.07-.02-.35-.05-.65-.23-.97h0Z"/><path class="cls-12" d="M267.17,205.77c8.37,2.23,15.64-14.8,17.77-20.51,3.54-9.46,10.44-27.35,5.1-37.13-.77-1.41-3.16-1.53-3.9,0-4.13,8.55-3.16,20.36-5.93,29.72-1.79,6.06-4.34,11.84-7.58,17.25-2.02,3.37-5.74,5.99-5.96,10.02-.02,.29,.22,.58,.49,.65h0Z"/><path class="cls-11" d="M285.34,183.98c16.1,6.43,27.82-17.85,23.78-30.68-.8-2.53-4.76-2.82-5.4,0-1.31,5.73-1.24,11.45-3.72,16.94-3.02,6.68-8.15,8.94-14.66,11.32-1.22,.45-1.17,1.96,0,2.43h0Z"/><path class="cls-17" d="M305.44,282.72c-2.56-11.68-6.6-22.08-7.64-34.21-1.08-12.61,.44-25.22,.94-37.8,.15-3.83-6.25-4.8-6.78-.92-3.07,22.71-5.49,55.26,9.36,74.67,1.52,1.98,4.71,.9,4.13-1.74h0Z"/><path class="cls-16" d="M296.77,248.1c11.02-10.05,20.17-25.9,18.89-41.39-.27-3.25-4.4-3.75-5.54-.75-2.4,6.28-2.66,13.31-4.85,19.76-2.47,7.25-7.21,13.79-11.8,19.83-1.51,1.99,1.62,4.09,3.31,2.55h0Z"/><path class="cls-15" d="M308.34,224.78c3.75,3.66,10.08,1.14,13.56-1.59,3.98-3.13,7.42-9.8,7.19-14.87-.11-2.51-3.74-3.89-5.01-1.36-1.73,3.44-2.43,7.13-4.58,10.4-1.04,1.56-2.39,2.81-4.03,3.7-2,1.09-4.21,.21-6.31,.64-1.38,.28-1.76,2.16-.81,3.08h0Z"/><path class="cls-9" d="M356.97,211.34c-1.65-4.38-5.4-7.68-7.7-11.84-3.81-6.89-5.8-14.81-7.56-22.42-3.6-15.54-5.43-33.87-1.31-49.49,1.31-4.96-6.36-7.06-7.66-2.11-4.55,17.38-2.1,36.32,1.76,53.59,2.11,9.47,7.95,33.88,20.42,34.97,1.31,.12,2.52-1.46,2.05-2.69h0Z"/><path class="cls-10" d="M332.24,158.51c-.88-1.95-2.57-3.49-3.59-5.42-1.57-2.98-2.49-6.17-3.42-9.39-1.68-5.84-1.29-13.07-4.04-18.44-1.03-2.01-4.01-1.39-4.6,.6-1.95,6.53,1.74,16.39,3.98,22.52,1.56,4.25,4.98,13.13,10.8,12.27,1.02-.15,1.21-1.38,.87-2.14h0Z"/><path class="cls-5" d="M339.93,184.81c5.55-2.26,9.16-6.28,11.6-11.72,2.26-5.04,5.21-11.91,5.45-17.44,.09-2.06-2.79-3.35-4.19-1.73-3,3.46-3.66,8.73-5.02,13.01-1.79,5.65-4.33,10.78-9.47,14.04-1.93,1.22-.67,4.78,1.62,3.85h0Z"/><path class="cls-6" d="M367.89,169.66c17.67-12.15,26.51-35.55,28.33-56.3,.32-3.72-5.24-4.15-6.27-.85-6.33,20.27-9.81,37.33-24.93,53.43-1.78,1.89,.58,5.29,2.87,3.72h0Z"/><path class="cls-1" d="M387.81,142.04c11.62,3.4,22.97-16.52,20.79-26.04-.45-1.95-2.81-1.8-3.81-.5-2.94,3.83-3.33,9.81-5.58,14.16-1.24,2.4-2.97,4.55-5.13,6.18-2.05,1.54-4.61,1.81-6.66,3.26-1.11,.78-1.03,2.52,.38,2.94h0Z"/><path class="cls-2" d="M257.97,384.66c8.95-19.64,14.46-38.71,30.64-54.05,15.63-14.83,35.65-17.68,54.55-25.93,36.17-15.79,63.52-59.85,57.15-99.42-1.12-6.98-11.7-4-10.59,2.92,3.92,24.38-8.45,48.75-23.93,66.78-14.95,17.41-33.85,21.92-53.98,30.51-31.35,13.38-54.33,44-56.84,78.4-.11,1.55,2.33,2.26,2.99,.81h0Z"/><path class="cls-3" d="M366.29,284.92c.38-7.37-2.63-15.3-3.5-22.64-1.05-8.87,.05-16.7,2.8-25.13,1.23-3.78-4.24-5.82-6.23-2.62-4.55,7.31-4.4,16.65-3.73,24.95,.66,8.39,1.83,19.33,6.21,26.65,1.26,2.1,4.33,1.13,4.45-1.2h0Z"/><path class="cls-4" d="M363.01,263.27c5.3-.47,8.72-4.82,11.26-9.11,1.45-2.46,2.55-5.12,3.61-7.76,.92-2.3,2.29-4.87,1.42-7.35-.68-1.93-2.5-2.55-4.3-1.75-3.29,1.46-4.46,6.99-5.7,10.07-1.76,4.36-3.93,7.73-7.77,10.45-2.13,1.52-1.7,5.73,1.48,5.45h0Z"/><path class="cls-7" d="M182.12,269.86c6.11-1.04,10.69-5.42,14.02-10.4,3.05-4.56,6.04-12.31,5.32-17.83-.38-2.89-4.56-5.01-6.19-1.68-2.08,4.25-2.29,9.19-4.18,13.57-2.34,5.43-5.92,8.65-11.12,11.22-3.05,1.51-.76,5.62,2.16,5.12h0Z"/><path class="cls-8" d="M170.15,216.61c-2.71,.43-5.23,.05-7.64-1.26-2.42-1.32-3.57-4.03-5.95-5.17-2.28-1.09-5.06,.2-5.09,2.92-.06,4.19,4.7,7.5,8.25,8.87,4.02,1.56,8.72,1.85,12.41-.68,2.49-1.71,.88-5.13-1.97-4.68h0Z"/><path class="cls-26" d="M128.93,99.28c2.33,6.64,6.35,12.9,11.98,17.18,6.13,4.66,14.91,.71,15.24-7.09,.11-2.56-3.24-3.82-4.96-2.06-1.12,1.14-2.36,4.42-4.1,4.6-2.08,.22-4.22-1.86-5.6-3.13-3.38-3.11-6.34-7.16-8.45-11.24-1.16-2.25-4.95-.68-4.11,1.73h0Z"/><path class="cls-25" d="M151.7,191.1c3.44,4.04,9.62-.04,11.89-3.25,2.83-4.01,5.15-10.67,4.28-15.62-.43-2.44-2.91-4.05-5.21-2.71-2.46,1.44-1.98,5.43-2.45,7.87-.47,2.45-1.26,4.85-2.56,6.98-1.39,2.28-3.56,2.02-5.52,3.37-1.19,.82-1.37,2.26-.43,3.36h0Z"/><path class="cls-30" d="M126.13,198.15c-1.51-1.15-3.63-.98-5.33-1.81-2.2-1.07-3.88-2.73-5.47-4.56-3.37-3.88-4.46-8.86-7.33-12.93-1.73-2.45-5.51-1.61-5.66,1.53-.29,6.35,5.36,13.55,9.78,17.59,2.96,2.71,11.7,7.81,14.59,2.37,.45-.85,.14-1.65-.58-2.2h0Z"/><path class="cls-29" d="M108.94,237.63c4.06,2.75,9.06-1.25,11.43-4.36,3.11-4.07,4.76-10.89,3.61-15.86-.56-2.39-4.13-2.3-4.73,0-.94,3.62-.99,7.3-2.29,10.86-.67,1.83-1.69,3.66-3.27,4.86-1.49,1.14-3.18,1.21-4.75,2.07-.99,.54-.84,1.87,0,2.44h0Z"/><path class="cls-24" d="M269.78,264.98c-8.15-12.84-10.69-26.49-13-41.24-.62-3.95-7.06-2.97-6.91,.93,.58,15.16,6.36,31.55,16.22,43.15,1.74,2.05,5.09-.61,3.68-2.84h0Z"/><path class="cls-23" d="M262.09,254.59c.08-1.92-1.26-2.73-2.65-3.8-2.31-1.76-4.64-3.5-6.93-5.28-1.88-1.46-3.74-3.11-5.19-5.01-1.54-2.02-1.79-4.27-2.82-6.49-1.2-2.6-5.27-1.78-5.91,.78-1.41,5.58,3.75,10.83,7.71,13.97,2.45,1.95,5.06,3.55,7.81,5.04,2.2,1.18,4.71,3.31,7.22,2.11,.49-.23,.73-.8,.75-1.31h0Z"/><path class="cls-22" d="M231.38,214.4c7.66,1.08,11.06-12.3,11.93-17.71,.56-3.53-4.86-4.99-5.36-1.48-.45,3.15-1.17,6.29-2.18,9.31-1.07,3.22-2.75,4.81-5.16,6.94-.92,.81-.53,2.76,.77,2.94h0Z"/><path class="cls-21" d="M201.13,210.1c3.83-.16,6.27-5.23,7.9-8.18,2.5-4.53,4.13-9.68,4.83-14.79,.49-3.56-4.82-5.22-5.53-1.52-.85,4.47-1.96,8.79-3.58,13.04-1.25,3.29-4.83,6.61-5.02,10.06-.04,.74,.66,1.42,1.39,1.39h0Z"/><path class="cls-28" d="M182.43,160.63c-9.47-5.42-18.48-10.94-26.09-18.84-2.09-2.16-5.86,.67-4.19,3.23,6.22,9.54,18.28,14.49,28.18,19.2,2.39,1.14,4.47-2.25,2.1-3.6h0Z"/><path class="cls-27" d="M202.19,147.16c-.46-1.58-1.75-1.84-2.86-2.85-1.48-1.35-2.39-3.43-3.12-5.25-1.62-4.07-2.35-8.4-3.5-12.6-1.15-4.16-6.97-2.34-6.32,1.74,1.12,7.09,4.43,21.14,13.29,21.91,.88,.08,1.74-.54,2.18-1.25,.32-.52,.5-1.09,.33-1.7h0Z"/><path class="cls-37" d="M253.87,127.65c-2.61-3.3-5.79-5.59-7.99-9.37-2.36-4.04-3.39-8.67-4.17-13.24-.6-3.51-6.02-2.04-5.36,1.48,1.57,8.33,6.69,21.37,16.32,23.19,1.28,.24,1.98-1.09,1.2-2.07h0Z"/><path class="cls-36" d="M193.61,256.01c2.09,3.59,7.31,4.38,11,3.16,4.3-1.42,7.13-5.32,8.68-9.36,1.41-3.69-4.83-6.32-6.39-2.69-.95,2.22-2.06,4.45-4.13,5.82-2.37,1.56-4.21,.1-6.62-.25-1.86-.27-3.64,1.44-2.55,3.32h0Z"/><path class="cls-33" d="M153.5,271.59c11.49-3.64,14.39-26.7,12.6-36.57-.43-2.38-3.99-2.15-4.56,0-1.4,5.21-1.07,10.93-1.87,16.26-1.05,7-3.53,12.02-7.82,17.48-.96,1.22-.13,3.39,1.65,2.83h0Z"/><path class="cls-40" d="M194.09,305.85c-7.06,4.83-19.19,3.34-27.03,1.75-8.5-1.72-15.42-6.12-22.29-11.15-3.43-2.52-7.68,3.08-4.52,5.86,13.03,11.47,41.69,20.27,56.37,6.81,1.73-1.59-.56-4.62-2.52-3.27h0Z"/><path class="cls-31" d="M247.9,297.82c-13.3,1.79-28.8-10.71-31.95-22.99-1.57-6.12-11.29-3.46-9.46,2.61,2.94,9.74,10.62,18.87,20.1,22.72,5.61,2.28,18.81,7.91,23.89,2.09,1.86-2.14,.01-4.78-2.58-4.43h0Z"/><path class="cls-32" d="M223.32,294.51c2.73-1.4,3.84-5.15,4.56-7.89,.85-3.23,1.57-7.32,.81-10.61-.74-3.2-4.88-2.04-5.24,.71-.33,2.45-.03,5.01-.28,7.49-.29,2.86-1.35,5.06-2.57,7.56-.88,1.81,.9,3.67,2.73,2.74h0Z"/><path class="cls-34" d="M356.29,218.3c7.13,2.24,13.59-6.34,17.17-11.17,5.65-7.62,10.39-16.97,13.38-25.99,1.79-5.43-6.33-7.36-8.37-2.31-5.05,12.48-10.24,28.31-22.75,35.03-1.93,1.03-1.34,3.83,.58,4.43h0Z"/><path class="cls-35" d="M374.51,195.23c1.17,6.52,11.21,1.33,13.83-.84,4.47-3.69,9.85-9.53,11.56-15.21,.95-3.16-2.83-4.61-5.01-2.91-3.51,2.73-5.59,7.45-8.44,10.82-1.58,1.87-3.3,3.65-5.4,4.93-1.89,1.15-3.85,.21-5.7,1.15-.77,.39-.98,1.28-.84,2.06h0Z"/><path class="cls-38" d="M389.83,252.46c19.35,1.96,28.16-26.63,32.1-40.72,1.5-5.36-6.97-6.8-7.67-1.04-1.78,14.48-9.86,33.34-25.02,37.32-2.62,.69-1.82,4.19,.6,4.43h0Z"/><path class="cls-39" d="M411.38,231.45c.17-1.71-.75-2.77-1.36-4.31-.84-2.12-1.11-4.47-1.32-6.72-.43-4.72,.54-8.98,1.19-13.59,.49-3.47-4.54-6.53-6.27-2.64-2.27,5.12-2.09,11.65-1.19,17.08,.66,3.97,1.99,11.67,6.95,12.18,1.16,.12,1.9-1.01,2-2h0Z"/><path class="cls-41" d="M334.81,302.92c.81-4.93-.31-10.09-.22-15.11,.13-7.72,2.43-15.04,4.89-22.27,1.53-4.49-5.43-6.29-7.03-1.94-3.88,10.52-8.21,29.87-.74,39.73,.77,1.01,2.82,1.22,3.09-.41h0Z"/><path class="cls-43" d="M330.91,287.76c9.09,1.94,16.53-10.18,16.93-18.01,.24-4.68-6.16-4.87-7.63-1.03-2.18,5.67-2.56,12.04-9.3,14.14-2.27,.71-2.58,4.35,0,4.9h0Z"/><path class="cls-44" d="M297,271.77c-1.47-.77-3.06-1.1-4.51-1.94-1.97-1.13-3.58-3.11-4.89-4.92-1.35-1.87-2.39-3.99-3.16-6.16-.73-2.05-.87-3.81-2.91-4.97-1.39-.79-2.97-.27-3.83,1-2.85,4.25,3.01,11.48,5.69,14.61,2.75,3.22,8.69,7.55,13.17,5.72,1.34-.55,1.98-2.52,.44-3.34h0Z"/><path class="cls-42" d="M335.7,244.21c-2.01-1.84-2.83-4.21-3.39-6.83-.6-2.83,.18-5.98-1.13-8.6-.97-1.92-3.42-1.43-4.5,0-2.18,2.9-.39,8.44,.67,11.5,1.15,3.36,3.21,6.72,6.98,7.22,1.71,.23,2.52-2.24,1.37-3.3h0Z"/><path class="cls-45" d="M343.18,201.38c-4.12-2.21-8.81-2.59-12.96-5.09-3.96-2.38-7.11-8.21-11.65-9.03-1.65-.3-3.7,.74-3.54,2.7,.43,5.51,7.37,9.61,11.75,12.22,4.54,2.71,11.38,5.01,16.41,2.68,1.38-.63,1.26-2.81,0-3.49h0Z"/></svg>