<?xml version="1.0" encoding="UTF-8"?><svg id="coral" xmlns="http://www.w3.org/2000/svg" xmlns:xlink="http://www.w3.org/1999/xlink" viewBox="0 0 2072.73 1166.38"><defs><style>.cls-1{fill:url(#teal);}.cls-2{fill:url(#teal-12);}.cls-3{fill:url(#teal-15);}.cls-4{fill:url(#teal-14);}.cls-5{fill:url(#teal-10);}.cls-6{fill:url(#teal-11);}.cls-7{fill:url(#teal-16);}.cls-8{fill:url(#teal-18);}.cls-9{fill:url(#teal-19);}.cls-10{fill:url(#teal-13);}.cls-11{fill:url(#teal-17);}.cls-12{fill:url(#teal-21);}.cls-13{fill:url(#teal-20);}.cls-14{fill:url(#teal-22);}.cls-15{fill:url(#teal-31);}.cls-16{fill:url(#teal-30);}.cls-17{fill:url(#teal-32);}.cls-18{fill:url(#teal-25);}.cls-19{fill:url(#teal-27);}.cls-20{fill:url(#teal-24);}.cls-21{fill:url(#teal-28);}.cls-22{fill:url(#teal-23);}.cls-23{fill:url(#teal-29);}.cls-24{fill:url(#teal-26);}.cls-25{fill:url(#teal-36);}.cls-26{fill:url(#teal-35);}.cls-27{fill:url(#teal-34);}.cls-28{fill:url(#teal-33);}.cls-29{fill:url(#teal-37);}.cls-30{fill:url(#teal-2);}.cls-31{fill:url(#teal-3);}.cls-32{fill:url(#teal-5);}.cls-33{fill:url(#teal-4);}.cls-34{fill:url(#teal-8);}.cls-35{fill:url(#teal-9);}.cls-36{fill:url(#teal-6);}.cls-37{fill:url(#teal-7);}</style><linearGradient id="teal" x1="115.82" y1="289.23" x2="198.84" y2="289.23" gradientUnits="userSpaceOnUse"><stop offset="0" stop-color="#98c5cc"/><stop offset=".17" stop-color="#8ebfc7"/><stop offset=".45" stop-color="#75b0ba"/><stop offset=".8" stop-color="#4c99a5"/><stop offset=".99" stop-color="#338b99"/></linearGradient><linearGradient id="teal-2" x1="117.87" y1="230.96" x2="164.34" y2="230.96" xlink:href="#teal"/><linearGradient id="teal-3" x1="131.25" y1="210.09" x2="146.55" y2="210.09" xlink:href="#teal"/><linearGradient id="teal-4" x1="123.46" y1="264" x2="155.67" y2="264" xlink:href="#teal"/><linearGradient id="teal-5" x1="100.43" y1="257.48" x2="146.53" y2="257.48" xlink:href="#teal"/><linearGradient id="teal-6" x1="105.47" y1="244.79" x2="141.79" y2="244.79" xlink:href="#teal"/><linearGradient id="teal-7" x1="159.41" y1="236.61" x2="181.24" y2="236.61" xlink:href="#teal"/><linearGradient id="teal-8" x1="173.38" y1="248.74" x2="186.74" y2="248.74" xlink:href="#teal"/><linearGradient id="teal-9" x1="138.35" y1="213.5" x2="202.38" y2="213.5" xlink:href="#teal"/><linearGradient id="teal-10" x1="155.41" y1="158.2" x2="166.32" y2="158.2" xlink:href="#teal"/><linearGradient id="teal-11" x1="125.72" y1="176.58" x2="163.36" y2="176.58" xlink:href="#teal"/><linearGradient id="teal-12" x1="169.07" y1="179.1" x2="187.3" y2="179.1" xlink:href="#teal"/><linearGradient id="teal-13" x1="175.43" y1="179.23" x2="209.61" y2="179.23" xlink:href="#teal"/><linearGradient id="teal-14" x1="163.24" y1="132.57" x2="189.92" y2="132.57" xlink:href="#teal"/><linearGradient id="teal-15" x1="200.27" y1="131.65" x2="213.32" y2="131.65" xlink:href="#teal"/><linearGradient id="teal-16" x1="189.38" y1="123.64" x2="208.64" y2="123.64" xlink:href="#teal"/><linearGradient id="teal-17" x1="206.82" y1="108.1" x2="232.46" y2="108.1" xlink:href="#teal"/><linearGradient id="teal-18" x1="208.3" y1="120.42" x2="246.17" y2="120.42" xlink:href="#teal"/><linearGradient id="teal-19" x1="222.43" y1="116.21" x2="263.31" y2="116.21" xlink:href="#teal"/><linearGradient id="teal-20" x1="202.76" y1="175.41" x2="263.31" y2="175.41" xlink:href="#teal"/><linearGradient id="teal-21" x1="223.28" y1="157.98" x2="269.99" y2="157.98" xlink:href="#teal"/><linearGradient id="teal-22" x1="200.36" y1="198.87" x2="275.21" y2="198.87" xlink:href="#teal"/><linearGradient id="teal-23" x1="216.42" y1="191.5" x2="275.99" y2="191.5" xlink:href="#teal"/><linearGradient id="teal-24" x1="245.51" y1="203.83" x2="278.63" y2="203.83" xlink:href="#teal"/><linearGradient id="teal-25" x1="190.2" y1="269.21" x2="256.31" y2="269.21" xlink:href="#teal"/><linearGradient id="teal-26" x1="221.39" y1="237.51" x2="240.21" y2="237.51" xlink:href="#teal"/><linearGradient id="teal-27" x1="236.28" y1="236.77" x2="270.01" y2="236.77" xlink:href="#teal"/><linearGradient id="teal-28" x1="217.22" y1="276.37" x2="273.73" y2="276.37" xlink:href="#teal"/><linearGradient id="teal-29" x1="248.8" y1="255.31" x2="273" y2="255.31" xlink:href="#teal"/><linearGradient id="teal-30" x1="255.89" y1="264.07" x2="279.18" y2="264.07" xlink:href="#teal"/><linearGradient id="teal-31" x1="188.63" y1="224.3" x2="207.8" y2="224.3" xlink:href="#teal"/><linearGradient id="teal-32" x1="216.3" y1="191.36" x2="235.21" y2="191.36" xlink:href="#teal"/><linearGradient id="teal-33" x1="189.24" y1="220.17" x2="207.73" y2="220.17" xlink:href="#teal"/><linearGradient id="teal-34" x1="195.13" y1="150.96" x2="210.62" y2="150.96" xlink:href="#teal"/><linearGradient id="teal-35" x1="226.33" y1="166.12" x2="241.53" y2="166.12" xlink:href="#teal"/><linearGradient id="teal-36" x1="206.85" y1="133.59" x2="223.93" y2="133.59" xlink:href="#teal"/><linearGradient id="teal-37" x1="145.38" y1="279.9" x2="195" y2="279.9" xlink:href="#teal"/></defs><path class="cls-1" d="M194.12,357.71c7.02-13.03,5.35-26.2,.53-39.74-3.76-10.57-2.91-17.91-.77-28.61,1.04-5.21-1.9-9.29-4.46-13.49-6.21-10.16-15.62-17.24-26.68-21.22-17.7-6.37-32.33-15.8-41.1-33.04-1.88-3.7-7.19-.46-5.5,3.22,4.24,9.21,10.67,17.14,18.9,23.14,11.77,8.59,23.68,10.53,36.73,16.17,10.92,4.72,17.37,16.48,14.95,28.04-1.04,5.01-3.56,10.18-2.64,15.46,1.28,7.32,4.55,14.1,6.65,21.23,2.67,9.02,1.24,18.86,.36,28.01-.16,1.63,2.28,2.18,3.02,.82h0Z"/><path class="cls-30" d="M164.22,258.58c1.25-9.97-7.54-17.9-14.28-23.95-10-8.98-21.58-16.33-24.63-30.3-1.07-4.91-8.11-2.73-7.39,2.03,1.62,10.69,8.78,18.29,16.71,25.07,8.55,7.31,23.63,15.93,26.04,27.63,.45,2.16,3.3,1.37,3.53-.48h0Z"/><path class="cls-31" d="M146.49,233.29c-1.59-6.36-2.94-12.84-4.21-19.28-.78-3.94-6.32-19.79-2.27-22.87-1.35-.18-2.7-.35-4.04-.52,1.6,2.06,.1,8.92-.02,11.7-.18,4.29,.39,8.65,1.87,12.65,.99,2.68,4.85,2.28,5-.67,.28-5.57-1.28-10.94-.49-16.54,.54-3.84,.76-6.71-.78-10.39-.64-1.53-1.56-2.25-3.22-2.45-17.09-2.07,1.72,43.76,5.21,49.61,.95,1.6,3.41,.53,2.96-1.25h0Z"/><path class="cls-33" d="M145.2,253.64c-8.93,2.82-22.66,6.98-21.7,18.93,.16,1.98,1.68,4.16,3.94,3.95,5.07-.49,7.26-5.86,9.51-9.78,1.49-2.6,3.03-4.13,5.62-5.69,3.29-1.97,7.08-1.38,10.65-2.29,3.45-.88,3.06-5.53,0-6.59-5.9-2.04-12.96,.58-17.63,4.32-2.25,1.8-3.73,3.94-5.22,6.4-.81,1.34-1.62,2.68-2.45,4-.81,1.28-2.2,1.85-.48,1.73,1.31,1.31,2.63,2.63,3.94,3.94-.24-4.47,3.67-6.67,6.89-8.97,3.02-2.16,6.03-4.26,8.77-6.78,1.39-1.28-.05-3.75-1.85-3.18h0Z"/><path class="cls-32" d="M145.75,252.52c-6.33-3.91-15.31-5.26-22.54-4.04-7.53,1.27-19.69,5.18-22.53,12.82-1.07,2.87,1.63,5.35,4.24,5.56,6.85,.56,14.56-6.09,21.11-8.18,6.07-1.94,14.43,.16,19.73-3.37,1.01-.67,1.07-2.13,0-2.79h0Z"/><path class="cls-36" d="M141.23,251.42c-8.19-6.86-20.56-7.47-28.01-15.12-4.17-4.28-10.42,2.1-6.51,6.5,8.09,9.11,22.2,7.54,32.67,11.79,1.75,.72,3.27-1.99,1.85-3.17h0Z"/><path class="cls-37" d="M178.93,265.02c5.58-5.62-.37-15.18-3.07-20.86-2.33-4.9-3.63-9.6-4.7-14.92-1.27-6.31,1.13-10.95,1.12-16.89,0-3.96-4.03-5.63-7.27-4.17-9.43,4.23-4.56,21.21-2.41,28.63,2.81,9.7,11.41,17.37,13.07,27.35,.25,1.49,2.31,1.82,3.26,.86h0Z"/><path class="cls-34" d="M181.02,265.31c.91-3.71,.24-8.05,.94-11.93,.84-4.62,2.02-9.32,4.05-13.59,3.66-7.71-7.62-12.45-10.75-4.53-2.21,5.59-2.1,12.5-1.54,18.4,.36,3.77,1.17,11.29,5.62,12.61,.7,.21,1.5-.24,1.68-.95h0Z"/><path class="cls-35" d="M191.59,286.21c15.98-20.46,12.5-47.71,.65-69.18-7.04-12.76-18.55-22.3-26.47-34.44-7.43-11.38-11.06-25.48-15.48-38.27-2.53-7.32-14.36-3.84-11.5,3.17,7.34,17.98,15.88,35.71,28.27,50.79,10.24,12.47,19.89,23.1,25.03,38.8,5.4,16.46,.91,31.54-3.34,47.48-.41,1.52,1.74,3.06,2.83,1.65h0Z"/><path class="cls-5" d="M160.36,182.71c4.05-4.32,4.1-10.94,4.64-16.58,.87-9.17,.73-18.41,1.31-27.6,.44-6.99-11.06-7.07-10.89,0,.17,7.35,.66,14.67,1.11,22,.42,6.78-1.11,15.15,1.35,21.52,.38,.99,1.66,1.55,2.49,.66h0Z"/><path class="cls-6" d="M161.83,183.45c-4.51-1.01-8.74-2.13-12.92-4.19-4.12-2.02-10.95-6.29-11.86-11.24-2.43,2.43-4.86,4.87-7.29,7.3,1.21,.26,2.27,2.07,3.1,2.86,1.93,1.85,4.3,3.42,6.43,5.04,3.44,2.63,7.49,4.82,11.86,4.81,3.06,0,5.08-3.45,3.51-6.11-2.65-4.47-7.54-7.58-11.48-10.9-4.16-3.5-6.12-6.7-11.84-7.37-6.54-.76-7.12,8-2.99,11.05,7.7,5.69,23.6,20.24,34,12.68,1.39-1.01,1.48-3.5-.52-3.95h0Z"/><path class="cls-2" d="M186.19,211.74c2.3-8.42,.67-16.66-1.62-24.95-3.37-12.23-3.21-23.3-3.16-35.84,.03-7.96-12.4-7.96-12.34,0,.07,9.17,1.18,17.41,3.88,26.17,3.46,11.23,9.34,22.11,9.14,34.06-.04,2.37,3.47,2.81,4.09,.56h0Z"/><path class="cls-10" d="M200.87,255.23c7.53-24.95,10.72-47.51,7.47-73.58-3.24-25.97-16.92-49.44-21.01-75.45-1.2-7.63-13.42-4.53-11.75,3.24,2.44,11.29,8,21.91,11.73,32.88,4.08,11.99,9.08,23.4,11.76,35.85,2.9,13.44,2.82,28.4,1.77,42.04-.92,11.92-4.18,22.35-3.91,34.48,.05,2.28,3.28,2.71,3.94,.54h0Z"/><path class="cls-4" d="M189.18,137.3c-1.32-1.14-2.95-1.33-4.46-2.13-1.92-1.01-3.56-2.45-5.1-3.96-2.89-2.84-6.75-8.74-10.98-8.77-1.69-.01-3.74,.97-4.48,2.57-.04,.09-.08,.18-.12,.27-.81,1.74-1.27,4.07,0,5.78,3.21,4.32,7.27,7.63,12.28,9.65,3.71,1.5,10.44,3.74,13.26-.36,.6-.88,.41-2.36-.39-3.06h0Z"/><path class="cls-3" d="M205.16,172.58c3.54-12.22,6.83-22.36,7.83-35.16,1.12-14.27-.95-28.52-.86-42.8,.05-7.5-11.81-7.48-11.62,0,.34,12.97,4.4,25.2,4.17,38.27-.23,13.13-5.33,26.08-4.27,39.05,.22,2.65,3.95,3.37,4.74,.64h0Z"/><path class="cls-7" d="M208.23,136.52c-2.82-4.47-5.72-8.94-7.29-14.04-.83-2.71-1.54-5.48-2.25-8.22-.63-2.43-.39-5.21-2.53-6.87-1.52-1.18-3.68-1.59-5.16,0-3.93,4.24,.3,12.33,2.42,16.67,2.74,5.58,5.41,12.88,10.82,16.46,2.45,1.62,5.52-1.56,3.99-3.99h0Z"/><path class="cls-11" d="M209.58,129.61c5.92-3.41,10.4-10.37,14.52-15.73,4.56-5.94,7.77-14.6,8.35-21.98,.41-5.3-8.11-7.83-10.3-2.79-2.92,6.72-5.23,13.76-8.01,20.57-2.43,5.95-6.62,11.92-7.31,18.35-.15,1.43,1.65,2.21,2.75,1.58h0Z"/><path class="cls-8" d="M210.72,143.85c9.56-1.4,18.39-10.87,24.37-17.83,5.39-6.29,14.74-18.71,9.58-27.17-1.38-2.27-4.22-2.45-6.14-.79-2.58,2.22-3.23,4.7-4.21,7.92-1.5,4.93-4.5,9.54-7.39,13.74-5.28,7.7-13.84,13.23-18.36,21.32-.89,1.58,.56,3.02,2.15,2.79h0Z"/><path class="cls-9" d="M225.17,133.24c4.15-.85,7.33-3.66,10.68-6.13,4.36-3.21,9.14-4.38,13.93-6.67,6.8-3.24,12.56-9.21,13.49-16.89,.49-4-5.18-5.8-7.68-3.18-2.3,2.42-3.48,5.46-5.65,7.99-2.75,3.21-6.8,3.96-10.37,5.83-6.48,3.39-13.48,9.28-16.88,15.85-.91,1.76,.57,3.6,2.47,3.21h0Z"/><path class="cls-13" d="M204.34,229.1c9.44-17.28,18.5-36.06,24.46-54.87,5.86-18.49,11.26-35.24,30.96-42.8,5.03-1.93,4.83-10.6-1.37-10.09-17.9,1.46-25.88,20-31.55,34.69-4.7,12.2-7.75,24.67-12.96,36.75-4.99,11.57-10.81,23.06-11.13,35.89-.02,.84,1.18,1.17,1.58,.43h0Z"/><path class="cls-12" d="M225.81,176.85c7.51,2.61,14.54-2.96,19.52-8.05,3.07-3.14,5.48-7,8.04-10.55,4.16-5.77,8.99-7.88,14.57-11.76,3.63-2.52,2.13-7.59-2.17-7.99-8.48-.81-15.38,6.49-19.98,12.8-4.14,5.68-10.76,18.46-19.03,18.49-4.21,.01-4.71,5.76-.96,7.07h0Z"/><path class="cls-14" d="M205.01,238.59c3-17.86,14.82-33.12,29.44-43.34,13.38-9.36,27.63-15.1,39.09-27.2,5.42-5.72-3.66-14.48-8.54-8.54-21.34,25.94-68.09,36.64-64.44,78.49,.21,2.36,3.99,3.28,4.44,.6h0Z"/><path class="cls-22" d="M219.4,205.35c9.86-3.2,19.14-.35,29.19-2.07,9.78-1.68,19.4-7.53,25.82-14.94,5.26-6.06-3.88-14.88-8.72-8.72-7.22,9.19-18.19,14.19-29.84,14.04-7.77-.11-15.46,.39-19.18,8.14-.85,1.78,.55,4.26,2.73,3.55h0Z"/><path class="cls-20" d="M247.55,203.78c2.12,.8,4.32,1.09,6.37,2.13,2.53,1.28,4.89,2.78,7.53,3.87,5.24,2.17,11.41,2.15,15.6-2.09,3.92-3.96-.03-10.55-5.35-9.19-2.28,.58-3.84,1.52-6.23,1.03-2.29-.47-4.44-1.54-6.68-2.17-4.13-1.15-9.3-1.71-12.47,1.75-1.51,1.64-.75,3.94,1.24,4.68h0Z"/><path class="cls-18" d="M193.53,324.3c7.58-20.52,23.98-31.03,37.96-46.77,14.16-15.94,8.48-39.78,23.14-54.95,5.11-5.29-2.65-12.97-8.03-8.03-17.56,16.1-10.99,43.29-26.36,61.36-11.9,13.98-31.62,27.25-29.94,47.96,.15,1.88,2.58,2.2,3.23,.44h0Z"/><path class="cls-24" d="M239.95,251.89c-2.14-4.56-4.67-8.7-6.11-13.57-1.48-5.02-1.38-10.2-2.35-15.29-1.1-5.73-10.34-4.38-10.1,1.37,.46,10.92,5.31,25.08,15.15,30.9,2.3,1.36,4.42-1.25,3.41-3.41h0Z"/><path class="cls-19" d="M236.45,246.28c3.57,10.32,16.26,5.63,21.67,0,3.14-3.27,5.47-7.3,7.89-11.09,2-3.12,4.59-6.93,3.87-10.77-.27-1.45-1.64-2.57-2.98-2.98-6.82-2.09-11.6,7.69-14.49,12.17-1.46,2.25-3.08,4.9-5.28,6.52-2.53,1.86-5.22,.75-8.08,1.56-1.86,.52-3.28,2.66-2.61,4.59h0Z"/><path class="cls-21" d="M221.17,285.42c6.64-4.27,14.76-6.45,22.46-7.78,4.23-.74,8.48-.81,12.74-.51,4.36,.31,6.9,2.78,10.64,4.37,3.54,1.51,7.52-.92,6.57-5.05-2.19-9.52-16.4-9.91-24.03-9.48-11.66,.66-24.13,5-31.68,14.18-1.85,2.25,.52,6.06,3.3,4.28h0Z"/><path class="cls-23" d="M253.3,270.74c2.72-3.91,4.63-8.06,7.75-11.78,3.28-3.91,7.01-7.31,10.49-11.02,1.69-1.81,1.87-4.11,.81-6.29-.42-.85-1.13-1.31-1.86-1.86-1.37-1.03-3.85-.93-5.24,0-5.36,3.59-9.84,8.74-13.03,14.33-2.56,4.49-5.12,11.88-1.94,16.63,.76,1.14,2.25,1.11,3.02,0h0Z"/><path class="cls-16" d="M258.48,273.67c3.37-2.18,5.9-5.34,9.36-7.45,3.74-2.28,9.66-2.01,11.19-6.66,.41-1.26-.07-2.65-.95-3.58-.13-.14-.26-.28-.4-.42-1.11-1.18-2.93-1.61-4.48-1.18-7.49,2.08-17.55,9.07-17.32,17.81,.03,1.25,1.46,2.22,2.59,1.48h0Z"/><path class="cls-15" d="M188.67,222.2c1.11,5.31,4.62,12.9,11.38,11.09,5.84-1.57,9.09-10.74,7.22-15.97-.73-2.04-3.5-3.22-5.15-1.36-2.41,2.7-2.78,7.26-5.11,9.58,.55-.55-.12-.19,.34-.22,.34-.03-.65-.25-.89-.37-1.95-.96-3.65-2.78-5.24-4.22-1.15-1.05-2.85-.02-2.53,1.47h0Z"/><path class="cls-17" d="M217.78,184.36c-2.71,3.61-1.41,8.83,1.47,11.89,2.99,3.17,8.53,4.06,12.61,3.3,4.57-.85,4.35-7.98,0-8.98-.99-.23-1.97-.3-2.98-.35-.35-.03-.71-.05-1.06-.09,.45,.06,.39,.05-.16-.04-.56-.1-1.11-.27-1.65-.44-.52-.19-.49-.17,.07,.05-.22-.1-1.15-.78-.24-.05-.94-.75-.02,.19-.41-.4-.14-.2-.91-1.73-.63-1.06-.69-1.64-1.31-3.05-2.47-4.41-1.33-1.56-3.53-.79-4.56,.58h0Z"/><path class="cls-28" d="M189.31,222.46c-.47,2.37,1.31,3.8,3.21,4.9,2.23,1.29,4.83,1.03,7.1,.05,4.02-1.73,8.84-7.61,8.02-12.24-.43-2.43-3.08-3.87-5.3-2.56-2.13,1.25-2.83,3.98-4.05,5.97-.79,1.3-2.02,3.03-3.68,3.17-1.4,.12-4.75-2.04-5.3,.71h0Z"/><path class="cls-27" d="M195.13,150.52c.19,4.62,4.1,8.64,8.89,6.71,4.09-1.64,8.08-7.06,6.04-11.49-.64-1.4-2.97-2.06-4.21-1.1-1.91,1.45-2.65,3.92-4.17,5.42-.51,.5-.46,.4-.83,.62,.13-.08,.1,.01-.22,.04,.43-.04-.13-.02-.29-.14-.58-.46-1.13-1-1.66-1.52-1.25-1.23-3.63-.38-3.55,1.47h0Z"/><path class="cls-26" d="M228.61,158.81c-1.7,1.42-2,3.92-2.25,5.99-.27,2.21,.85,4.56,2.19,6.24,2.61,3.28,9.09,4.5,12.02,.94,1.88-2.3,.95-6.74-2.68-6.46-.66,.05-1.31,.12-1.94,.31-.28,.11-.57,.2-.87,.27,.35-.03,.28-.03-.21-.02,.28,0-.05,.03-.33-.12-.26-.14-.44-.31-.45-.32-.57-.79-.57-1.51-.56-2.48,.03-1.62-.14-3.21-1.41-4.35-1.08-.97-2.43-.9-3.52,0h0Z"/><path class="cls-25" d="M207.36,129.25c-1.91,4.26,1.96,7.69,5.57,9.12,3.44,1.36,10,.91,10.92-3.55,.44-2.13-.94-4.15-3.2-4.2-2.07-.04-3.32,1.3-5.33,.92-1.9-.36-2.85-1.63-4.27-2.76-1.06-.85-3.02-1.04-3.7,.48h0Z"/><path class="cls-29" d="M146.95,258.12c11.52,5.5,24.04,3.49,33.52,13.52,9.73,10.31,2.82,23.45,7.76,34.87,.79,1.84,3.58,1.16,4.04-.53,3.57-12.99,4.9-27.34-3.96-38.54-9.78-12.36-24.77-14.71-39.75-15.26-3.06-.11-4.5,4.56-1.61,5.94h0Z"/></svg>