<?xml version="1.0" encoding="utf-8"?>
<!-- Generator: Adobe Illustrator 27.0.1, SVG Export Plug-In . SVG Version: 6.00 Build 0)  -->
<svg version="1.1" id="coral" xmlns="http://www.w3.org/2000/svg" xmlns:xlink="http://www.w3.org/1999/xlink" x="0px" y="0px"
	 viewBox="0 0 247.1 270.2" style="enable-background:new 0 0 247.1 270.2;" xml:space="preserve">
<style type="text/css">
	.st0{fill:url(#SVGID_1_);}
	.st1{fill:url(#SVGID_00000176027016234483697080000008712301543887818131_);}
	.st2{fill:url(#SVGID_00000115513508552810177670000007686516077330644894_);}
	.st3{fill:url(#SVGID_00000021100897564071498560000017498967780931122338_);}
	.st4{fill:url(#SVGID_00000078004430748473387850000007181949322260869819_);}
	.st5{fill:url(#SVGID_00000016059303610425257190000012898438484926688410_);}
	.st6{fill:url(#SVGID_00000033365046292052296400000005309475743878587826_);}
	.st7{fill:url(#SVGID_00000022559830878870144390000014235881703351323829_);}
	.st8{fill:url(#SVGID_00000098925972351664170000000005872123667559694995_);}
	.st9{fill:url(#SVGID_00000154407064249972491720000013062015044766883255_);}
	.st10{fill:url(#SVGID_00000168830199398388947130000002935555052603702927_);}
	.st11{fill:url(#SVGID_00000112629925362434406800000009752052754152339894_);}
	.st12{fill:url(#SVGID_00000093896933471388951130000004014357412296774812_);}
</style>
<linearGradient id="SVGID_1_" gradientUnits="userSpaceOnUse" x1="21.6446" y1="808.1196" x2="89.6101" y2="808.1196" gradientTransform="matrix(1 0 0 -1 0 993.2506)">
	<stop  offset="0" style="stop-color:#F5D1B6"/>
	<stop  offset="0.22" style="stop-color:#F3CBAC"/>
	<stop  offset="0.58" style="stop-color:#F0BB93"/>
	<stop  offset="0.99" style="stop-color:#EBA46E"/>
</linearGradient>
<path class="st0" d="M82.4,252.7c16.2-13,1.2-40.4-6.6-54C70,188.6,61.4,180.4,55.9,170c-6.4-12.1-6.2-27.3-6.2-40.6
	c-0.1-18.1-28.3-18.1-28.1,0c0.2,23.4,3.2,46.2,17.3,65.6c6.9,9.4,14.8,17.9,21.4,27.5c6.1,9,6.8,20.1,12.4,28.8
	C75.1,255,79.3,255.2,82.4,252.7L82.4,252.7L82.4,252.7z"/>
<linearGradient id="SVGID_00000121246430728177943930000014302700599019344536_" gradientUnits="userSpaceOnUse" x1="46.3793" y1="838.1684" x2="72.5259" y2="838.1684" gradientTransform="matrix(1 0 0 -1 0 993.2506)">
	<stop  offset="0" style="stop-color:#F5D1B6"/>
	<stop  offset="0.22" style="stop-color:#F3CBAC"/>
	<stop  offset="0.58" style="stop-color:#F0BB93"/>
	<stop  offset="0.99" style="stop-color:#EBA46E"/>
</linearGradient>
<path style="fill:url(#SVGID_00000121246430728177943930000014302700599019344536_);" d="M49.7,188c24.2-3.2,25.1-43.5,21-60.9
	c-2.1-8.8-15.5-5.1-13.5,3.7c4.1,18.2,0.8,37.4-10.3,52.3C45.5,185,47.3,188.4,49.7,188L49.7,188L49.7,188z"/>
<linearGradient id="SVGID_00000018952119961084446280000009663137331316410520_" gradientUnits="userSpaceOnUse" x1="0" y1="785.0003" x2="74.0317" y2="785.0003" gradientTransform="matrix(1 0 0 -1 0 993.2506)">
	<stop  offset="0" style="stop-color:#F5D1B6"/>
	<stop  offset="0.22" style="stop-color:#F3CBAC"/>
	<stop  offset="0.58" style="stop-color:#F0BB93"/>
	<stop  offset="0.99" style="stop-color:#EBA46E"/>
</linearGradient>
<path style="fill:url(#SVGID_00000018952119961084446280000009663137331316410520_);" d="M70.3,214.8c-9.9-1.3-20.2-4-29.8-6.6
	c-11.3-3.1-16.6-8.3-24.4-16.1c-7.3-7.3-17.3,0.4-15.9,9.3c2.2,14,20.2,22,32.4,24.6c13.9,3,26.8,1.8,39.6-4.3
	C75.8,219.8,73.5,215.2,70.3,214.8L70.3,214.8L70.3,214.8z"/>
<linearGradient id="SVGID_00000099647359720564472160000005525816683243217341_" gradientUnits="userSpaceOnUse" x1="78.7102" y1="842.902" x2="147.799" y2="842.902" gradientTransform="matrix(1 0 0 -1 0 993.2506)">
	<stop  offset="0" style="stop-color:#F5D1B6"/>
	<stop  offset="0.22" style="stop-color:#F3CBAC"/>
	<stop  offset="0.58" style="stop-color:#F0BB93"/>
	<stop  offset="0.99" style="stop-color:#EBA46E"/>
</linearGradient>
<path style="fill:url(#SVGID_00000099647359720564472160000005525816683243217341_);" d="M91.8,254.6c2.6-5,3.3-10.6,5.1-16
	c3-9.1,7-17.9,10.8-26.6c7.7-17.5,17.6-33.9,25.4-51.4c7.3-16.2,12.4-33.4,14.3-51.1c1.9-18.6-2.6-35.1-3.6-53.5
	c-0.8-16.6-26.8-16.7-25.9,0c1,18.2,5.9,35,4.5,53.5c-1.5,19.8-9.5,38.7-17.9,56.4c-7.9,16.5-16.1,32.9-21.3,50.5
	c-3.4,11.8-8.4,28.9,0.6,39.2C85.9,258,90.3,257.4,91.8,254.6L91.8,254.6L91.8,254.6z"/>
<linearGradient id="SVGID_00000049192014269095051690000001339365178671975823_" gradientUnits="userSpaceOnUse" x1="62.8664" y1="905.5098" x2="123.2496" y2="905.5098" gradientTransform="matrix(1 0 0 -1 0 993.2506)">
	<stop  offset="0" style="stop-color:#F5D1B6"/>
	<stop  offset="0.22" style="stop-color:#F3CBAC"/>
	<stop  offset="0.58" style="stop-color:#F0BB93"/>
	<stop  offset="0.99" style="stop-color:#EBA46E"/>
</linearGradient>
<path style="fill:url(#SVGID_00000049192014269095051690000001339365178671975823_);" d="M122.2,142.7c-12.3-15.2-22.8-32.4-28.9-51
	c-6.2-19-2.7-39.2-7.7-58.2c-2.7-10-17.7-10.1-20.3,0c-5.6,21.5-1,48.2,6.5,68.8c8,22,25.1,36.7,45.6,46.5
	C121.6,150.9,125,146.2,122.2,142.7L122.2,142.7L122.2,142.7z"/>
<linearGradient id="SVGID_00000161590041407508165080000008543905568026527158_" gradientUnits="userSpaceOnUse" x1="14.1952" y1="919.2639" x2="81.9125" y2="919.2639" gradientTransform="matrix(1 0 0 -1 0 993.2506)">
	<stop  offset="0" style="stop-color:#F5D1B6"/>
	<stop  offset="0.22" style="stop-color:#F3CBAC"/>
	<stop  offset="0.58" style="stop-color:#F0BB93"/>
	<stop  offset="0.99" style="stop-color:#EBA46E"/>
</linearGradient>
<path style="fill:url(#SVGID_00000161590041407508165080000008543905568026527158_);" d="M79.1,87.6c-8.9-5.4-18.7-8.9-27.6-14.2
	c-10.1-6-14.4-16.7-23.5-23.1c-4.5-3.1-12.6-0.2-13.4,5.5c-4.3,29.6,39.8,46.2,63.1,42.9C83.1,97.8,83.1,90,79.1,87.6L79.1,87.6
	L79.1,87.6z"/>
<linearGradient id="SVGID_00000112622281777695673560000007542408269712819332_" gradientUnits="userSpaceOnUse" x1="135.0876" y1="938.6277" x2="191.0991" y2="938.6277" gradientTransform="matrix(1 0 0 -1 0 993.2506)">
	<stop  offset="0" style="stop-color:#F5D1B6"/>
	<stop  offset="0.22" style="stop-color:#F3CBAC"/>
	<stop  offset="0.58" style="stop-color:#F0BB93"/>
	<stop  offset="0.99" style="stop-color:#EBA46E"/>
</linearGradient>
<path style="fill:url(#SVGID_00000112622281777695673560000007542408269712819332_);" d="M139.6,109.2C159,109.3,172,88.4,179,72.9
	c8.8-19.6,15.9-42.4,9.9-63.7c-4.5-16.1-29.6-9.3-25.1,6.9c4.2,15.1,4.3,31.6-0.4,46.5c-5.2,16.3-15.4,27-27,38.8
	C133.6,104.3,135.6,109.2,139.6,109.2L139.6,109.2L139.6,109.2z"/>
<linearGradient id="SVGID_00000129920311303180917030000010930075592114233489_" gradientUnits="userSpaceOnUse" x1="85.779" y1="802.6904" x2="198.5026" y2="802.6904" gradientTransform="matrix(1 0 0 -1 0 993.2506)">
	<stop  offset="0" style="stop-color:#F5D1B6"/>
	<stop  offset="0.22" style="stop-color:#F3CBAC"/>
	<stop  offset="0.58" style="stop-color:#F0BB93"/>
	<stop  offset="0.99" style="stop-color:#EBA46E"/>
</linearGradient>
<path style="fill:url(#SVGID_00000129920311303180917030000010930075592114233489_);" d="M95.5,259c13.4-22.2,40-32,61.9-43.5
	c33.8-17.7,47.2-48.6,38.7-85.6c-3.5-15.3-28.3-12.1-27.5,3.7c0.9,18.1,4.1,32.5-9.4,46.8c-9.3,9.9-21.7,16.3-33,23.4
	c-16.9,10.6-47,30.2-39,54C88.4,261.6,93.3,262.5,95.5,259L95.5,259L95.5,259z"/>
<linearGradient id="SVGID_00000019662005340245608640000009327407695990121624_" gradientUnits="userSpaceOnUse" x1="175.5387" y1="854.3702" x2="238.5158" y2="854.3702" gradientTransform="matrix(1 0 0 -1 0 993.2506)">
	<stop  offset="0" style="stop-color:#F5D1B6"/>
	<stop  offset="0.22" style="stop-color:#F3CBAC"/>
	<stop  offset="0.58" style="stop-color:#F0BB93"/>
	<stop  offset="0.99" style="stop-color:#EBA46E"/>
</linearGradient>
<path style="fill:url(#SVGID_00000019662005340245608640000009327407695990121624_);" d="M178.4,181.5c14.4,9,36.1-9.3,44.6-19.7
	c13.2-16.2,21.2-44.4,10.5-63.5c-4.7-8.4-17-4.3-17.5,4.7c-1,21.8-0.7,39.3-18,55.3C195.3,161,166.4,174,178.4,181.5L178.4,181.5
	L178.4,181.5z"/>
<linearGradient id="SVGID_00000175300232806621000540000017701911405758398888_" gradientUnits="userSpaceOnUse" x1="140.6627" y1="820.1062" x2="159.1137" y2="820.1062" gradientTransform="matrix(1 0 0 -1 0 993.2506)">
	<stop  offset="0" style="stop-color:#F5D1B6"/>
	<stop  offset="0.22" style="stop-color:#F3CBAC"/>
	<stop  offset="0.58" style="stop-color:#F0BB93"/>
	<stop  offset="0.99" style="stop-color:#EBA46E"/>
</linearGradient>
<path style="fill:url(#SVGID_00000175300232806621000540000017701911405758398888_);" d="M158.9,196.6c0.9-2.7-0.9-4.8-1.8-7.2
	c-1.4-3.9-1.1-8.1-1-12.1c0.4-7.8,3.1-17.8,1.2-25.4c-1.5-6.3-9.9-6.7-13.1-1.7c-5.6,8.6-3.6,25.2-1.5,34.5
	c1.1,4.9,3.2,10.1,7.2,13.3C152.6,200.1,157.6,200.5,158.9,196.6L158.9,196.6L158.9,196.6z"/>
<linearGradient id="SVGID_00000149377750332103151120000007263513505305113221_" gradientUnits="userSpaceOnUse" x1="146.6086" y1="790.9993" x2="247.118" y2="790.9993" gradientTransform="matrix(1 0 0 -1 0 993.2506)">
	<stop  offset="0" style="stop-color:#F5D1B6"/>
	<stop  offset="0.22" style="stop-color:#F3CBAC"/>
	<stop  offset="0.58" style="stop-color:#F0BB93"/>
	<stop  offset="0.99" style="stop-color:#EBA46E"/>
</linearGradient>
<path style="fill:url(#SVGID_00000149377750332103151120000007263513505305113221_);" d="M151.5,221.3c22.6,3,44.5,9.9,66.6,0.4
	c15.2-6.5,27.9-17.5,29-34.8c0.8-11.9-18-11.9-18.5,0c-0.5,12.2-15.5,18.8-25.6,21.6c-17.2,4.9-35.2-1.9-52.8,3.1
	C144.4,213.2,146.3,220.6,151.5,221.3L151.5,221.3L151.5,221.3z"/>
<linearGradient id="SVGID_00000022545427383892595410000012044804930673517459_" gradientUnits="userSpaceOnUse" x1="184.4144" y1="894.5421" x2="221.0136" y2="894.5421" gradientTransform="matrix(1 0 0 -1 0 993.2506)">
	<stop  offset="0" style="stop-color:#F5D1B6"/>
	<stop  offset="0.22" style="stop-color:#F3CBAC"/>
	<stop  offset="0.58" style="stop-color:#F0BB93"/>
	<stop  offset="0.99" style="stop-color:#EBA46E"/>
</linearGradient>
<path style="fill:url(#SVGID_00000022545427383892595410000012044804930673517459_);" d="M218.3,114c-6.1-3.8-8.9-9.5-10.9-16.4
	c-1.1-3.6-2.2-7.2-2.6-11c-0.4-4.7,0.1-8.3-3.4-12.2c-2.7-3.1-7.8-3.4-11.1-1.4c-11.3,6.7-3.6,26.2,0.9,35.1
	c4.3,8.4,16.2,23.1,27.1,15.6C221.8,121.3,222,116.3,218.3,114L218.3,114L218.3,114z"/>
<linearGradient id="SVGID_00000102510689545457904410000002407947730874773910_" gradientUnits="userSpaceOnUse" x1="49.2706" y1="730.6115" x2="126.8956" y2="730.6115" gradientTransform="matrix(1 0 0 -1 0 993.2506)">
	<stop  offset="0" style="stop-color:#F5D1B6"/>
	<stop  offset="0.22" style="stop-color:#F3CBAC"/>
	<stop  offset="0.58" style="stop-color:#F0BB93"/>
	<stop  offset="0.99" style="stop-color:#EBA46E"/>
</linearGradient>
<path style="fill:url(#SVGID_00000102510689545457904410000002407947730874773910_);" d="M51.2,269.1c9.8,3,22-0.8,32.3-1
	c13-0.3,27.1,2.5,39.7-0.8c4.9-1.3,4.8-8.5,0-9.9c-12.4-3.4-26.9-2.1-39.7-1.8c-10.7,0.3-26.1,0-33.5,8.8
	C48.7,266,49.1,268.4,51.2,269.1L51.2,269.1L51.2,269.1z"/>
</svg>
