<?xml version="1.0" encoding="UTF-8"?><svg id="coral" xmlns="http://www.w3.org/2000/svg" xmlns:xlink="http://www.w3.org/1999/xlink" viewBox="0 0 2072.73 1166.38"><defs><style>.cls-1{fill:url(#orange_2-4);}.cls-2{fill:url(#orange_2-5);}.cls-3{fill:url(#orange_2-2);}.cls-4{fill:url(#orange_2-3);}.cls-5{fill:url(#orange_2-6);}.cls-6{fill:url(#orange_2-7);}.cls-7{fill:url(#orange_2-8);}.cls-8{fill:url(#orange_2-9);}.cls-9{fill:url(#orange_2);}.cls-10{fill:url(#orange_2-25);}.cls-11{fill:url(#orange_2-24);}.cls-12{fill:url(#orange_2-22);}.cls-13{fill:url(#orange_2-21);}.cls-14{fill:url(#orange_2-20);}.cls-15{fill:url(#orange_2-17);}.cls-16{fill:url(#orange_2-19);}.cls-17{fill:url(#orange_2-16);}.cls-18{fill:url(#orange_2-23);}.cls-19{fill:url(#orange_2-14);}.cls-20{fill:url(#orange_2-11);}.cls-21{fill:url(#orange_2-13);}.cls-22{fill:url(#orange_2-15);}.cls-23{fill:url(#orange_2-12);}.cls-24{fill:url(#orange_2-10);}.cls-25{fill:url(#orange_2-18);}</style><linearGradient id="orange_2" x1="110.4" y1="321.85" x2="145.07" y2="321.85" gradientUnits="userSpaceOnUse"><stop offset="0" stop-color="#f3b69d"/><stop offset=".17" stop-color="#f1af93"/><stop offset=".47" stop-color="#ef9c7a"/><stop offset=".83" stop-color="#ea7d51"/><stop offset=".99" stop-color="#e86f3d"/></linearGradient><linearGradient id="orange_2-2" x1="100.43" y1="255.92" x2="166.14" y2="255.92" xlink:href="#orange_2"/><linearGradient id="orange_2-3" x1="191.01" y1="218.58" x2="219.65" y2="218.58" xlink:href="#orange_2"/><linearGradient id="orange_2-4" x1="225.69" y1="192.45" x2="240.98" y2="192.45" xlink:href="#orange_2"/><linearGradient id="orange_2-5" x1="169.64" y1="292.86" x2="190.81" y2="292.86" xlink:href="#orange_2"/><linearGradient id="orange_2-6" x1="251.18" y1="137.29" x2="310.29" y2="137.29" xlink:href="#orange_2"/><linearGradient id="orange_2-7" x1="190.81" y1="294.25" x2="213.9" y2="294.25" xlink:href="#orange_2"/><linearGradient id="orange_2-8" x1="148.26" y1="170.64" x2="191.01" y2="170.64" xlink:href="#orange_2"/><linearGradient id="orange_2-9" x1="179.39" y1="245.17" x2="201.33" y2="245.17" xlink:href="#orange_2"/><linearGradient id="orange_2-10" x1="203.24" y1="152.41" x2="225.69" y2="152.41" xlink:href="#orange_2"/><linearGradient id="orange_2-11" x1="219.65" y1="276.64" x2="241.86" y2="276.64" xlink:href="#orange_2"/><linearGradient id="orange_2-12" x1="213.09" y1="201.45" x2="231.98" y2="201.45" xlink:href="#orange_2"/><linearGradient id="orange_2-13" x1="248.14" y1="306.37" x2="281.05" y2="306.37" xlink:href="#orange_2"/><linearGradient id="orange_2-14" x1="321.1" y1="178.62" x2="383.83" y2="178.62" xlink:href="#orange_2"/><linearGradient id="orange_2-15" x1="285.03" y1="250.8" x2="308.11" y2="250.8" xlink:href="#orange_2"/><linearGradient id="orange_2-16" x1="240.98" y1="227.09" x2="285.03" y2="227.09" xlink:href="#orange_2"/><linearGradient id="orange_2-17" x1="279.08" y1="308.23" x2="297.7" y2="308.23" xlink:href="#orange_2"/><linearGradient id="orange_2-18" x1="232.72" y1="150.12" x2="252.51" y2="150.12" xlink:href="#orange_2"/><linearGradient id="orange_2-19" x1="235.21" y1="182.38" x2="255.63" y2="182.38" xlink:href="#orange_2"/><linearGradient id="orange_2-20" x1="273.71" y1="268.44" x2="292.49" y2="268.44" xlink:href="#orange_2"/><linearGradient id="orange_2-21" x1="303.29" y1="174.77" x2="342.67" y2="174.77" xlink:href="#orange_2"/><linearGradient id="orange_2-22" x1="305.88" y1="292.75" x2="325.44" y2="292.75" xlink:href="#orange_2"/><linearGradient id="orange_2-23" x1="305.31" y1="235.29" x2="323.12" y2="235.29" xlink:href="#orange_2"/><linearGradient id="orange_2-24" x1="328.85" y1="271.18" x2="406.46" y2="271.18" xlink:href="#orange_2"/><linearGradient id="orange_2-25" x1="355" y1="306.26" x2="402.34" y2="306.26" xlink:href="#orange_2"/></defs><path class="cls-9" d="M118.98,297.38c-5.07-2.13-9.53,3.89-8.4,8.4,2.18,8.65,9.29,15.66,13.28,23.73,2.71,5.49,3.71,11.39,4.7,17.25h16.52c.04-19.24-11.41-43.21-26.09-49.38Z"/><path class="cls-3" d="M152.73,286.41c-6.81-17.58-18.32-32.62-25.46-49.98-8.75-21.29-7.21-41.45-9.63-63.62-.88-8.09-13.5-11.4-15.33-2.07-7.56,38.46,9.03,73.39,27.41,105.74,12.41,21.83,19.58,45.65,21.31,70.29h14.59c2.93-19.63-7.3-45.9-12.89-60.35Z"/><path class="cls-4" d="M219.65,217.31c-2.13-7.28-4.4-14.57-6.56-21.9-6.15,5.03-12.07,10.32-17.44,16.26-1.66,1.84-3.19,3.75-4.64,5.72,3.66,8.01,7.29,16.04,10.32,24.36,4.59-8.73,10.57-16.85,18.32-24.43Z"/><path class="cls-1" d="M240.98,199.46c-2.35-6.91-4.34-13.98-5.78-21.09-3.16,2.42-6.34,4.81-9.52,7.21,2.08,7,4.25,13.96,6.29,20.95,2.97-2.4,5.98-4.74,9-7.06Z"/><path class="cls-2" d="M188.5,290.86c.48-6.21,1.24-12.16,2.31-17.91-3.03-11.49-6.91-22.83-11.42-33.99-4.81,12.65-7.3,26.32-8.69,39.67-1.31,12.53-1.39,25.44-.32,37.98,.88,10.25,3.78,20.17,5.76,30.15h12.68c-.35-3.3-.97-6.7-1.08-10.19-.47-15.26-.42-30.48,.76-45.71Z"/><path class="cls-5" d="M284.73,159.84c11.52-15.38,35.18-50.34,21.34-69.74-3.33-4.66-10.11-5.26-13.32,0-6.03,9.89-5.71,23.46-10.67,34.3-5.33,11.64-12.97,22.53-21.65,31.89-2.94,3.17-6.04,6.14-9.24,9.01,.82,7.81,2.35,15.42,4.45,22.89,10.63-8.38,20.79-17.27,29.1-28.36Z"/><path class="cls-6" d="M201.72,242.79c-.13-.35-.26-.7-.39-1.05-5.06,9.63-8.43,19.99-10.52,31.2,6.32,23.97,8.93,48.64,6.11,73.81h11.83c9.99-33.24,4.24-72.32-7.03-103.97Z"/><path class="cls-7" d="M175.65,177.5c-5.64-22.73-8.69-43.49-7.29-66.89,.48-7.99-12.06-11.75-15.5-4.2-7.98,17.52-3.9,38.06-.22,56.23,4.34,21.42,11.11,41.38,20.23,61.22,2.3,5,4.47,10.03,6.52,15.1,2.92-7.67,6.72-14.95,11.62-21.57-5.92-12.96-11.89-25.87-15.37-39.88Z"/><path class="cls-8" d="M201.33,241.74c-3.03-8.31-6.66-16.35-10.32-24.36-4.91,6.62-8.71,13.9-11.62,21.57,4.51,11.16,8.39,22.49,11.42,33.99,2.1-11.21,5.46-21.58,10.52-31.2Z"/><path class="cls-24" d="M224.96,183.15c-6.75-23.01-3.82-43.62-4.26-66.89-.15-7.93-11.57-9.54-13.78-1.86-7.96,27.67-1.65,54.53,6.17,81.01,4.12-3.37,8.35-6.61,12.6-9.83-.24-.81-.49-1.62-.73-2.43Z"/><path class="cls-20" d="M239.75,241.64c-1.43-12.01-4.4-23.6-7.76-35.11-2.95,2.39-5.86,4.82-8.7,7.36-1.26,1.13-2.46,2.27-3.63,3.42,1.09,3.72,2.13,7.44,3.1,11.15,9.8,37.5,6.32,79.3,4.01,118.3h8.78c3.15-11.73,3.35-24.74,4.58-36.33,2.42-22.78,2.34-46.06-.37-68.79Z"/><path class="cls-23" d="M223.29,213.89c2.84-2.54,5.75-4.97,8.7-7.36-2.04-6.99-4.21-13.95-6.29-20.95-4.25,3.22-8.48,6.46-12.6,9.83,2.16,7.33,4.44,14.62,6.56,21.9,1.18-1.15,2.37-2.3,3.63-3.42Z"/><path class="cls-21" d="M281.05,284.23c-1.81-6.46-4.37-12.44-7.34-18.25-6.7,8.6-12.57,17.73-16.57,27.48-6.88,16.76-9.32,35.16-8.96,53.29h9.47c2.87-19.12,7.97-37.63,18.12-54.45,1.66-2.75,3.43-5.44,5.28-8.08Z"/><path class="cls-19" d="M327.57,234.56c16.44-15.44,33.77-29.74,45.99-48.97,11.74-18.48,11.54-40.88,8.55-61.82-1.04-7.28-12.69-6.77-14.16,0-2.05,9.49-1.57,19.01-1.85,28.67-.41,14-7.72,25.86-16.39,36.34-8.56,10.35-18.54,19.56-28.62,28.66,.37,7.09,1.14,14.19,2.02,21.3,1.49-1.4,2.98-2.79,4.46-4.18Z"/><path class="cls-22" d="M308.11,253.14c-.81-6.96-1.8-13.99-2.79-21.24-2.36,2.24-4.7,4.5-6.97,6.8-4.4,4.46-8.91,9.11-13.31,13.94,3.1,5.66,5.55,11.34,7.46,17.05,4.96-5.72,10.23-11.22,15.61-16.56Z"/><path class="cls-17" d="M257.6,237.31c5.37,10.12,11.26,19.19,16.11,28.68,3.59-4.6,7.41-9.05,11.32-13.34-.21-.37-.37-.75-.58-1.13-11.85-21.04-22.71-41.59-28.82-63.32-4.83,3.81-9.75,7.51-14.65,11.27,4.66,13.69,10.7,26.7,16.62,37.84Z"/><path class="cls-15" d="M292.49,269.7c-4.07,4.69-7.92,9.52-11.45,14.53,1.17,4.18,2.04,8.55,2.48,13.23,1.16,12.3,.73,24.91-1.79,36.98-.88,4.24-1.84,8.28-2.66,12.32h10.89c8.35-25.81,11.03-51.64,2.52-77.06Z"/><path class="cls-25" d="M252.35,131.18c1.7-9.72-10.99-13.06-14.61-4.03-6.29,15.71-6.12,33.54-2.54,51.22,5.47-4.19,10.86-8.48,15.98-13.07-1.14-10.91-.92-22.22,1.17-34.13Z"/><path class="cls-16" d="M255.63,188.2c-2.1-7.47-3.63-15.08-4.45-22.89-5.12,4.59-10.5,8.88-15.98,13.07,1.44,7.11,3.43,14.19,5.78,21.09,4.89-3.76,9.82-7.46,14.65-11.27Z"/><path class="cls-14" d="M281.05,284.23c3.52-5.01,7.38-9.84,11.45-14.53-1.91-5.71-4.36-11.39-7.46-17.05-3.91,4.29-7.73,8.74-11.32,13.34,2.96,5.81,5.52,11.78,7.34,18.25Z"/><path class="cls-13" d="M323.93,183.1c4.97-19.26,18.47-38.08,18.74-58.17,.1-7.71-10.02-9.85-13.94-3.78-9.68,15.02-15.33,35.43-20.73,52.43-6,18.87-5.47,38.02-2.81,57.41,.04,.31,.08,.6,.13,.91,5.16-4.89,10.48-9.66,15.78-14.46-.59-11.47-.11-22.92,2.84-34.34Z"/><path class="cls-12" d="M324.25,247.77c-.38-3.01-.77-6.01-1.14-9.02-4.99,4.69-10.04,9.47-15.01,14.4,1.69,14.44,2.6,28.61,1.01,43.9-.92,8.82-2.51,17.3-2.78,26.17-.25,7.96,.39,15.72-.45,23.55h9.31c3.08-12.32,2.75-25.66,5.41-37.99,4.35-20.2,6.26-40.44,3.65-61Z"/><path class="cls-18" d="M323.12,238.74c-.88-7.11-1.65-14.21-2.02-21.3-5.31,4.8-10.63,9.57-15.78,14.46,1,7.25,1.98,14.28,2.79,21.24,4.97-4.92,10.02-9.71,15.01-14.4Z"/><path class="cls-11" d="M391.38,234.37c7.04-8.8,15.89-19.69,15.01-31.52-.47-6.34-7.59-9.66-12.45-5.16-9.55,8.84-15.24,22.86-23.84,32.98-9.47,11.14-19.04,22.01-26.33,34.76-13.91,24.33-15.8,53.71-14.63,81.32h9.99c3.35-27.65,7.94-56.25,24.2-79.32,8.29-11.76,19.07-21.83,28.06-33.07Z"/><path class="cls-10" d="M402.25,273.85c1.13-6.51-8.24-11.73-11.46-4.83-11.63,24.91-35.71,49.3-35.78,77.74h10.54c5.82-27.43,31.83-44.91,36.71-72.91Z"/></svg>