<?xml version="1.0" encoding="UTF-8"?><svg id="coral" xmlns="http://www.w3.org/2000/svg" xmlns:xlink="http://www.w3.org/1999/xlink" viewBox="0 0 2072.73 1166.38"><defs><style>.cls-1{fill:url(#green);}.cls-2{fill:url(#green-5);}.cls-3{fill:url(#green-3);}.cls-4{fill:url(#green-2);}.cls-5{fill:url(#green-4);}</style><linearGradient id="green" x1="100.43" y1="291.97" x2="209.64" y2="291.97" gradientUnits="userSpaceOnUse"><stop offset="0" stop-color="#c0d3cf"/><stop offset=".24" stop-color="#b6ccc7"/><stop offset=".64" stop-color="#9dbab4"/><stop offset=".99" stop-color="#82a8a0"/></linearGradient><linearGradient id="green-2" x1="127.46" y1="236.65" x2="217.24" y2="236.65" xlink:href="#green"/><linearGradient id="green-3" x1="194.54" y1="219" x2="259.29" y2="219" xlink:href="#green"/><linearGradient id="green-4" x1="232.22" y1="245.06" x2="316.14" y2="245.06" xlink:href="#green"/><linearGradient id="green-5" x1="242.65" y1="287.4" x2="359.36" y2="287.4" xlink:href="#green"/></defs><path class="cls-1" d="M206.81,354.23s-6.52-3.91-35.19-13.03c-28.67-9.12-64.52-56.05-70.38-86.02-5.86-29.98,21.51-37.8,41.71,0,0,0,5.21,17.59,24.11,39.75,18.9,22.16,22.83,35.82,39.75,53.44,6.37,6.64,0,5.87,0,5.87Z"/><path class="cls-4" d="M217.24,348.37s-11.08-11.73-21.51-24.76c-10.43-13.03-14.33-19.55-23.46-38.45-9.12-18.9-27.37-33.4-36.49-55.47-9.13-22.07-15.64-97.67,7.82-103.53,23.46-5.86,33.23,9.12,31.93,52.78-1.3,43.66,5.21,60.61,16.94,88.63,11.73,28.02,20.2,35.19,24.76,80.8Z"/><path class="cls-3" d="M223.75,351.63s-2.16-39.1-14.11-73.64c-11.96-34.54-19.78-97.29-11.96-146.39,7.82-49.1,57.34-67.83,60.6-6.66,3.26,61.17-1.96,89.84-8.47,117.86-6.51,28.02-14.33,93.84-26.07,108.83Z"/><path class="cls-5" d="M232.22,351.63s10.43-31.93,19.55-55.39c9.12-23.46,9.77-59.3,11.08-91.23,1.3-31.93,1.95-65.17,27.37-66.47,25.41-1.3,30.63,24.76,22.15,60.61-8.47,35.84-10.43,70.97-25.41,92.83-14.99,21.86-54.74,59.66-54.74,59.66Z"/><path class="cls-2" d="M242.65,351.63s6.37-16.29,31.53-34.54c25.16-18.25,36.24-43.06,47.32-72.03,11.08-28.97,43.01-32.24,37.14,8.82-5.86,41.05-39.1,70.38-61.91,78.85-22.81,8.47-37.8,5.21-54.09,18.9Z"/></svg>