<?xml version="1.0" encoding="utf-8"?>
<!-- Generator: Adobe Illustrator 27.0.1, SVG Export Plug-In . SVG Version: 6.00 Build 0)  -->
<svg version="1.1" id="coral" xmlns="http://www.w3.org/2000/svg" xmlns:xlink="http://www.w3.org/1999/xlink" x="0px" y="0px"
	 viewBox="0 0 321.7 301.5" style="enable-background:new 0 0 321.7 301.5;" xml:space="preserve">
<style type="text/css">
	.st0{fill:url(#SVGID_1_);}
	.st1{fill:url(#SVGID_00000108283568253284880030000009771297746744543927_);}
	.st2{fill:url(#SVGID_00000181792296042262328160000009448736336413683368_);}
	.st3{fill:url(#SVGID_00000017492999497896974600000013959066764256210857_);}
	.st4{fill:url(#SVGID_00000141423293918017036560000002920068970069748640_);}
	.st5{fill:url(#SVGID_00000165921938000301957220000012889459845022809521_);}
	.st6{fill:url(#SVGID_00000168795350986681234980000018225982990937397132_);}
	.st7{fill:url(#SVGID_00000132073830569199198510000012427285461619204248_);}
	.st8{fill:url(#SVGID_00000004528406187647370490000017427668036201602208_);}
	.st9{fill:url(#SVGID_00000110433849407345175720000014899572348668860058_);}
	.st10{fill:url(#SVGID_00000001647685056418206660000006112891179848727197_);}
	.st11{fill:url(#SVGID_00000044169701180691262790000008589971417149127601_);}
	.st12{fill:url(#SVGID_00000070813886757772818550000004896995878474960259_);}
	.st13{fill:url(#SVGID_00000057143803197756691530000010794354731045221290_);}
	.st14{fill:url(#SVGID_00000116928789319428414080000006354443043764208531_);}
	.st15{fill:url(#SVGID_00000054231448313270902000000002764065825736439427_);}
	.st16{fill:url(#SVGID_00000096030708330890587450000012145916480698472595_);}
	.st17{fill:url(#SVGID_00000120551348363658241840000006943772479951425204_);}
	.st18{fill:url(#SVGID_00000020388387539491031340000006238387462356596883_);}
	.st19{fill:url(#SVGID_00000158020191839119470210000011594358557461407653_);}
	.st20{fill:url(#SVGID_00000083771987610764521100000005597318681947295130_);}
	.st21{fill:url(#SVGID_00000040543677793530238720000010284632983806869667_);}
	.st22{fill:url(#SVGID_00000175282831549753042130000003102357510963047093_);}
	.st23{fill:url(#SVGID_00000120537687179821058420000005128949862660490647_);}
	.st24{fill:url(#SVGID_00000090275954399975190750000005853126699851292309_);}
	.st25{fill:url(#SVGID_00000054244788060621082520000004909775043820648378_);}
	.st26{fill:url(#SVGID_00000055694337225925500160000001227072058494952323_);}
	.st27{fill:url(#SVGID_00000011714013709072736030000012265499966895650488_);}
	.st28{fill:url(#SVGID_00000094587817019154017200000009880887504170274443_);}
	.st29{fill:url(#SVGID_00000037691505333180973320000003262640574934063494_);}
	.st30{fill:url(#SVGID_00000003100668326907839510000001525541901805671871_);}
	.st31{fill:url(#SVGID_00000147908963324780883790000018080466729182619532_);}
	.st32{fill:url(#SVGID_00000177464984854474787750000001130989442112929717_);}
	.st33{fill:url(#SVGID_00000057132921835537180690000001706137711687647117_);}
	.st34{fill:url(#SVGID_00000166645678634527951440000014414512421133230482_);}
	.st35{fill:url(#SVGID_00000142172942964010025480000001460242770608013495_);}
	.st36{fill:url(#SVGID_00000126294769110281801940000015420059904517049520_);}
	.st37{fill:url(#SVGID_00000160907342651361218370000014651461434214605725_);}
	.st38{fill:url(#SVGID_00000088132736714267112910000008122422331995815321_);}
	.st39{fill:url(#SVGID_00000167358856022821416650000013450521471796209842_);}
	.st40{fill:url(#SVGID_00000149361491549074535710000002535657542351697057_);}
	.st41{fill:url(#SVGID_00000032622310597565839170000014818289715516091571_);}
	.st42{fill:url(#SVGID_00000073689739842579260510000003096151658950841010_);}
	.st43{fill:url(#SVGID_00000056411878154508171560000013020550432971164073_);}
	.st44{fill:url(#SVGID_00000058588137522907541840000008629834431089828029_);}
	.st45{fill:url(#SVGID_00000055686457386445516290000006067772051998650553_);}
	.st46{fill:url(#SVGID_00000139996112446197211150000011452576352178835874_);}
	.st47{fill:url(#SVGID_00000083070647224372887270000012525955310709507985_);}
	.st48{fill:url(#SVGID_00000154414915051036168910000002362293838630172600_);}
	.st49{fill:url(#SVGID_00000014621981977601420900000000389652371261812144_);}
	.st50{fill:url(#SVGID_00000015335644207722392620000002222627304111969964_);}
	.st51{fill:url(#SVGID_00000012463354698885941740000001688658747010570667_);}
	.st52{fill:url(#SVGID_00000113328189070726623710000005986611928470746293_);}
	.st53{fill:url(#SVGID_00000019645180796939539530000007525257861692157119_);}
</style>
<linearGradient id="SVGID_1_" gradientUnits="userSpaceOnUse" x1="18.6323" y1="802.8746" x2="156.3556" y2="802.8746" gradientTransform="matrix(1 0 0 -1 0 993.2489)">
	<stop  offset="0" style="stop-color:#8494A9"/>
	<stop  offset="0.15" style="stop-color:#7A8BA2"/>
	<stop  offset="0.39" style="stop-color:#617590"/>
	<stop  offset="0.7" style="stop-color:#385173"/>
	<stop  offset="0.99" style="stop-color:#0B2A54"/>
</linearGradient>
<path class="st0" d="M18.7,82.8c9.5,41.7,9.1,89,42.8,119.7c14.3,13.1,32.3,20.5,48.4,31c21.6,14.1,38.8,37.5,37.7,64
	c-0.2,5.5,7.7,5.2,8.3,0c5.2-45.8-39.7-69.4-72.2-89.5c-20.1-12.5-33.9-29.2-41.5-51.6c-8.3-24.7-8-51.5-18.6-75.6
	C22.4,77.7,18,79.9,18.7,82.8L18.7,82.8L18.7,82.8z"/>
<linearGradient id="SVGID_00000049918804630724864910000003579033567296598400_" gradientUnits="userSpaceOnUse" x1="68.2886" y1="842.9383" x2="156.1099" y2="842.9383" gradientTransform="matrix(1 0 0 -1 0 993.2489)">
	<stop  offset="0" style="stop-color:#8494A9"/>
	<stop  offset="0.15" style="stop-color:#7A8BA2"/>
	<stop  offset="0.39" style="stop-color:#617590"/>
	<stop  offset="0.7" style="stop-color:#385173"/>
	<stop  offset="0.99" style="stop-color:#0B2A54"/>
</linearGradient>
<path style="fill:url(#SVGID_00000049918804630724864910000003579033567296598400_);" d="M150.7,296.7
	c11.5-48.1,4.6-92.2-20.9-134.6C101.4,115,62.9,66,80,7.7c1.4-4.7-5.9-6.7-7.3-2C58,55.8,82.7,102,109.2,143.3
	c14.2,22.1,28.4,43.2,36.1,68.6c8.3,27.2,7,56.2,2.8,84C147.8,297.6,150.3,298.4,150.7,296.7L150.7,296.7L150.7,296.7z"/>
<linearGradient id="SVGID_00000069362959943238930010000011876501011193923758_" gradientUnits="userSpaceOnUse" x1="150.7177" y1="833.1523" x2="174.3315" y2="833.1523" gradientTransform="matrix(1 0 0 -1 0 993.2489)">
	<stop  offset="0" style="stop-color:#8494A9"/>
	<stop  offset="0.15" style="stop-color:#7A8BA2"/>
	<stop  offset="0.39" style="stop-color:#617590"/>
	<stop  offset="0.7" style="stop-color:#385173"/>
	<stop  offset="0.99" style="stop-color:#0B2A54"/>
</linearGradient>
<path style="fill:url(#SVGID_00000069362959943238930010000011876501011193923758_);" d="M153.9,294.3
	c7.2-42.8,18.7-85.3,20.3-128.8c1.7-46.4-15-90.8-14.1-137.3c0.1-4.7-6.6-4.4-7.2,0c-5.5,44.3,13.2,88.2,13.8,132.5
	c0.7,45.1-14.8,88.4-16.1,133.2C150.7,295.7,153.6,296.1,153.9,294.3L153.9,294.3L153.9,294.3z"/>
<linearGradient id="SVGID_00000026841751337185058690000004663228543705444751_" gradientUnits="userSpaceOnUse" x1="149.511" y1="826.0095" x2="269.8772" y2="826.0095" gradientTransform="matrix(1 0 0 -1 0 993.2489)">
	<stop  offset="0" style="stop-color:#8494A9"/>
	<stop  offset="0.15" style="stop-color:#7A8BA2"/>
	<stop  offset="0.39" style="stop-color:#617590"/>
	<stop  offset="0.7" style="stop-color:#385173"/>
	<stop  offset="0.99" style="stop-color:#0B2A54"/>
</linearGradient>
<path style="fill:url(#SVGID_00000026841751337185058690000004663228543705444751_);" d="M154,293.9c1.4-12,1.8-23.5,6-35
	c4-11.2,11.6-20.9,19.6-29.6c14.5-15.7,32-28.2,46.4-44.1c34.3-37.9,50.9-93.5,41.1-143.6c-0.9-4.7-7.6-2.6-7,1.9
	c8,58.3-12.8,112.6-55.4,152.8c-27.6,26-62.2,55.1-54,98C151.1,296.3,153.8,295.6,154,293.9L154,293.9L154,293.9z"/>
<linearGradient id="SVGID_00000009587796262413757410000005408969622128188581_" gradientUnits="userSpaceOnUse" x1="31.6931" y1="883.8284" x2="51.6594" y2="883.8284" gradientTransform="matrix(1 0 0 -1 0 993.2489)">
	<stop  offset="0" style="stop-color:#8494A9"/>
	<stop  offset="0.15" style="stop-color:#7A8BA2"/>
	<stop  offset="0.39" style="stop-color:#617590"/>
	<stop  offset="0.7" style="stop-color:#385173"/>
	<stop  offset="0.99" style="stop-color:#0B2A54"/>
</linearGradient>
<path style="fill:url(#SVGID_00000009587796262413757410000005408969622128188581_);" d="M32,137.9c7.2,6.5,14.4-9.1,15.9-13.9
	c4.1-13,3.4-27.7,3.7-41.2c0.1-4.7-6.9-4.6-7.2,0c-0.8,9.6-0.3,19.3-1.2,28.9c-0.6,5.8-1.6,11.8-4.2,17.1c-1.7,3.5-5.4,4.5-7.1,7.6
	C31.6,137,31.6,137.6,32,137.9L32,137.9L32,137.9z"/>
<linearGradient id="SVGID_00000145048050156744003400000015980385286996462976_" gradientUnits="userSpaceOnUse" x1="0" y1="835.3173" x2="44.4234" y2="835.3173" gradientTransform="matrix(1 0 0 -1 0 993.2489)">
	<stop  offset="0" style="stop-color:#8494A9"/>
	<stop  offset="0.15" style="stop-color:#7A8BA2"/>
	<stop  offset="0.39" style="stop-color:#617590"/>
	<stop  offset="0.7" style="stop-color:#385173"/>
	<stop  offset="0.99" style="stop-color:#0B2A54"/>
</linearGradient>
<path style="fill:url(#SVGID_00000145048050156744003400000015980385286996462976_);" d="M42.4,171c-14.1-0.6-29.7-16.4-34.4-29.4
	c-1.8-4.9-9.6-2.7-7.7,2.1c3.9,10.3,12.3,18.9,20.8,25.6c4.9,3.8,17.2,11.8,22.8,5.1C45,173.1,44.3,171.1,42.4,171L42.4,171
	L42.4,171z"/>
<linearGradient id="SVGID_00000138536127069186486240000017764738702570623135_" gradientUnits="userSpaceOnUse" x1="73.9019" y1="806.7474" x2="84.9741" y2="806.7474" gradientTransform="matrix(1 0 0 -1 0 993.2489)">
	<stop  offset="0" style="stop-color:#8494A9"/>
	<stop  offset="0.15" style="stop-color:#7A8BA2"/>
	<stop  offset="0.39" style="stop-color:#617590"/>
	<stop  offset="0.7" style="stop-color:#385173"/>
	<stop  offset="0.99" style="stop-color:#0B2A54"/>
</linearGradient>
<path style="fill:url(#SVGID_00000138536127069186486240000017764738702570623135_);" d="M78.1,208.2c8.4-12.2,8-28,4.7-42
	c-1.1-4.5-7.6-2.5-6.8,1.9c2.5,13.8,1.8,24.9-1.9,38.4C73.3,209.1,76.7,210.3,78.1,208.2L78.1,208.2L78.1,208.2z"/>
<linearGradient id="SVGID_00000031901276881389198280000012106780027594861470_" gradientUnits="userSpaceOnUse" x1="46.273" y1="970.1938" x2="70.2332" y2="970.1938" gradientTransform="matrix(1 0 0 -1 0 993.2489)">
	<stop  offset="0" style="stop-color:#8494A9"/>
	<stop  offset="0.15" style="stop-color:#7A8BA2"/>
	<stop  offset="0.39" style="stop-color:#617590"/>
	<stop  offset="0.7" style="stop-color:#385173"/>
	<stop  offset="0.99" style="stop-color:#0B2A54"/>
</linearGradient>
<path style="fill:url(#SVGID_00000031901276881389198280000012106780027594861470_);" d="M70,43c-1.3-2.6-4.1-3.2-6.3-5.2
	c-3.4-2.9-5.2-7.7-6.5-11.8c-2.4-7.6-2.1-15.5-3.1-23.3c-0.6-4.7-7.2-2.9-7.6,1c-1.1,9,1.3,20.3,5.1,28.5C54,37.4,62.5,49.8,69.5,45
	C70.2,44.5,70.4,43.8,70,43L70,43z"/>
<linearGradient id="SVGID_00000053528603073714945090000010115199988936782520_" gradientUnits="userSpaceOnUse" x1="84.4614" y1="925.244" x2="105.873" y2="925.244" gradientTransform="matrix(1 0 0 -1 0 993.2489)">
	<stop  offset="0" style="stop-color:#8494A9"/>
	<stop  offset="0.15" style="stop-color:#7A8BA2"/>
	<stop  offset="0.39" style="stop-color:#617590"/>
	<stop  offset="0.7" style="stop-color:#385173"/>
	<stop  offset="0.99" style="stop-color:#0B2A54"/>
</linearGradient>
<path style="fill:url(#SVGID_00000053528603073714945090000010115199988936782520_);" d="M87.3,98c19.4-8.6,21.3-40.1,16.1-57.6
	c-1.3-4.5-8.4-2.6-7,1.9C102,60.6,98.2,81.1,85,95.1C83.5,96.7,85.4,98.8,87.3,98L87.3,98z"/>
<linearGradient id="SVGID_00000119834848703683052780000010540042561334672284_" gradientUnits="userSpaceOnUse" x1="61.3335" y1="865.3765" x2="106.9223" y2="865.3765" gradientTransform="matrix(1 0 0 -1 0 993.2489)">
	<stop  offset="0" style="stop-color:#8494A9"/>
	<stop  offset="0.15" style="stop-color:#7A8BA2"/>
	<stop  offset="0.39" style="stop-color:#617590"/>
	<stop  offset="0.7" style="stop-color:#385173"/>
	<stop  offset="0.99" style="stop-color:#0B2A54"/>
</linearGradient>
<path style="fill:url(#SVGID_00000119834848703683052780000010540042561334672284_);" d="M105.9,136.5c-7.3-1.2-13.3-1.5-20.3-4.6
	c-7.1-3.2-14.6-8.3-17.7-15.7c-1.8-4.2-8.1-0.6-6.2,3.6c3.9,8.7,12.9,14.5,21.4,18c5.8,2.4,18,6.4,23.4,1.2
	C107.2,138.2,107,136.7,105.9,136.5L105.9,136.5L105.9,136.5z"/>
<linearGradient id="SVGID_00000003076301952544377310000009941588732778887346_" gradientUnits="userSpaceOnUse" x1="125.2985" y1="852.615" x2="134.8651" y2="852.615" gradientTransform="matrix(1 0 0 -1 0 993.2489)">
	<stop  offset="0" style="stop-color:#8494A9"/>
	<stop  offset="0.15" style="stop-color:#7A8BA2"/>
	<stop  offset="0.39" style="stop-color:#617590"/>
	<stop  offset="0.7" style="stop-color:#385173"/>
	<stop  offset="0.99" style="stop-color:#0B2A54"/>
</linearGradient>
<path style="fill:url(#SVGID_00000003076301952544377310000009941588732778887346_);" d="M130,168c4.8-3.9,4.1-14.7,4.5-20.4
	c0.8-10.6,0.6-21.9-2.6-32.1c-1.3-4.1-7.4-2.4-6.5,1.8c2.3,10.1,2.8,19.9,2.6,30.3c-0.1,5.8-3,15.4,0.8,20.2
	C129.1,168.2,129.5,168.3,130,168L130,168L130,168z"/>
<linearGradient id="SVGID_00000148625504265834237040000001610525856264384660_" gradientUnits="userSpaceOnUse" x1="127.3865" y1="922.5638" x2="160.3701" y2="922.5638" gradientTransform="matrix(1 0 0 -1 0 993.2489)">
	<stop  offset="0" style="stop-color:#8494A9"/>
	<stop  offset="0.15" style="stop-color:#7A8BA2"/>
	<stop  offset="0.39" style="stop-color:#617590"/>
	<stop  offset="0.7" style="stop-color:#385173"/>
	<stop  offset="0.99" style="stop-color:#0B2A54"/>
</linearGradient>
<path style="fill:url(#SVGID_00000148625504265834237040000001610525856264384660_);" d="M159.3,89.4c-14.5-1.9-23.6-24.9-24.7-37.7
	c-0.4-4.6-7.7-4.6-7.2,0c1.1,10.7,5.9,21.3,12,30c4.3,6.1,12.1,14.3,20.2,10.4C160.7,91.5,160.6,89.6,159.3,89.4L159.3,89.4
	L159.3,89.4z"/>
<linearGradient id="SVGID_00000134251580295870685910000016057607594541937827_" gradientUnits="userSpaceOnUse" x1="155.3224" y1="951.4211" x2="179.1867" y2="951.4211" gradientTransform="matrix(1 0 0 -1 0 993.2489)">
	<stop  offset="0" style="stop-color:#8494A9"/>
	<stop  offset="0.15" style="stop-color:#7A8BA2"/>
	<stop  offset="0.39" style="stop-color:#617590"/>
	<stop  offset="0.7" style="stop-color:#385173"/>
	<stop  offset="0.99" style="stop-color:#0B2A54"/>
</linearGradient>
<path style="fill:url(#SVGID_00000134251580295870685910000016057607594541937827_);" d="M157.9,66.4c15.8-3.8,22.1-32.1,21.2-45.8
	c-0.2-3.6-5.9-4.9-6.7-0.9c-1.4,7.4-1.7,14.8-3.7,22.1c-2.4,9.1-7.6,14.6-13.1,21.7C154.5,65,156.4,66.7,157.9,66.4L157.9,66.4
	L157.9,66.4z"/>
<linearGradient id="SVGID_00000165929701412564810580000017564810283267948696_" gradientUnits="userSpaceOnUse" x1="111.0526" y1="922.4549" x2="134.2226" y2="922.4549" gradientTransform="matrix(1 0 0 -1 0 993.2489)">
	<stop  offset="0" style="stop-color:#8494A9"/>
	<stop  offset="0.15" style="stop-color:#7A8BA2"/>
	<stop  offset="0.39" style="stop-color:#617590"/>
	<stop  offset="0.7" style="stop-color:#385173"/>
	<stop  offset="0.99" style="stop-color:#0B2A54"/>
</linearGradient>
<path style="fill:url(#SVGID_00000165929701412564810580000017564810283267948696_);" d="M134,73.3c0,0,0-0.1-0.1-0.1
	c-0.3-0.6-1.1-1.1-1.9-1.1c-2.9,0.3-6-0.5-8.7-1.4c-3.9-1.3-4.8-5.4-8.3-6.7c-1.6-0.6-3.1,0.7-3.7,2.1c-1.9,4.9,4.8,9.1,8.6,10.6
	c4.1,1.6,8.7,1.2,12.7-0.4c0.9-0.4,1.6-1,1.6-2.1C134.2,73.9,134.2,73.6,134,73.3L134,73.3L134,73.3z"/>
<linearGradient id="SVGID_00000095321748971013823980000006156267374672579775_" gradientUnits="userSpaceOnUse" x1="166.2372" y1="903.1259" x2="191.5655" y2="903.1259" gradientTransform="matrix(1 0 0 -1 0 993.2489)">
	<stop  offset="0" style="stop-color:#8494A9"/>
	<stop  offset="0.15" style="stop-color:#7A8BA2"/>
	<stop  offset="0.39" style="stop-color:#617590"/>
	<stop  offset="0.7" style="stop-color:#385173"/>
	<stop  offset="0.99" style="stop-color:#0B2A54"/>
</linearGradient>
<path style="fill:url(#SVGID_00000095321748971013823980000006156267374672579775_);" d="M166.7,119.4c8.4,2.2,15.6-14.8,17.8-20.5
	c3.5-9.5,10.4-27.4,5.1-37.1c-0.8-1.4-3.2-1.5-3.9,0c-4.1,8.6-3.2,20.4-5.9,29.7c-1.8,6.1-4.3,11.8-7.6,17.2c-2,3.4-5.7,6-6,10
	C166.2,119,166.5,119.3,166.7,119.4L166.7,119.4L166.7,119.4z"/>
<linearGradient id="SVGID_00000141435236959030181410000003322139886414614170_" gradientUnits="userSpaceOnUse" x1="184.0119" y1="911.4562" x2="209.4908" y2="911.4562" gradientTransform="matrix(1 0 0 -1 0 993.2489)">
	<stop  offset="0" style="stop-color:#8494A9"/>
	<stop  offset="0.15" style="stop-color:#7A8BA2"/>
	<stop  offset="0.39" style="stop-color:#617590"/>
	<stop  offset="0.7" style="stop-color:#385173"/>
	<stop  offset="0.99" style="stop-color:#0B2A54"/>
</linearGradient>
<path style="fill:url(#SVGID_00000141435236959030181410000003322139886414614170_);" d="M184.9,97.6c16.1,6.4,27.8-17.9,23.8-30.7
	c-0.8-2.5-4.8-2.8-5.4,0c-1.3,5.7-1.2,11.4-3.7,16.9c-3,6.7-8.1,8.9-14.7,11.3C183.7,95.6,183.7,97.1,184.9,97.6L184.9,97.6
	L184.9,97.6z"/>
<linearGradient id="SVGID_00000168088863243325812450000002374245081555549582_" gradientUnits="userSpaceOnUse" x1="189.2188" y1="833.2271" x2="205.0879" y2="833.2271" gradientTransform="matrix(1 0 0 -1 0 993.2489)">
	<stop  offset="0" style="stop-color:#8494A9"/>
	<stop  offset="0.15" style="stop-color:#7A8BA2"/>
	<stop  offset="0.39" style="stop-color:#617590"/>
	<stop  offset="0.7" style="stop-color:#385173"/>
	<stop  offset="0.99" style="stop-color:#0B2A54"/>
</linearGradient>
<path style="fill:url(#SVGID_00000168088863243325812450000002374245081555549582_);" d="M205,196.3c-2.6-11.7-6.6-22.1-7.6-34.2
	c-1.1-12.6,0.4-25.2,0.9-37.8c0.1-3.8-6.2-4.8-6.8-0.9c-3.1,22.7-5.5,55.3,9.4,74.7C202.4,200.1,205.6,199,205,196.3L205,196.3
	L205,196.3z"/>
<linearGradient id="SVGID_00000109007449946050332910000014960640189403125661_" gradientUnits="userSpaceOnUse" x1="192.6381" y1="853.3246" x2="215.3482" y2="853.3246" gradientTransform="matrix(1 0 0 -1 0 993.2489)">
	<stop  offset="0" style="stop-color:#8494A9"/>
	<stop  offset="0.15" style="stop-color:#7A8BA2"/>
	<stop  offset="0.39" style="stop-color:#617590"/>
	<stop  offset="0.7" style="stop-color:#385173"/>
	<stop  offset="0.99" style="stop-color:#0B2A54"/>
</linearGradient>
<path style="fill:url(#SVGID_00000109007449946050332910000014960640189403125661_);" d="M196.3,161.7c11-10.1,20.2-25.9,18.9-41.4
	c-0.3-3.2-4.4-3.8-5.5-0.8c-2.4,6.3-2.7,13.3-4.9,19.8c-2.5,7.2-7.2,13.8-11.8,19.8C191.5,161.2,194.7,163.3,196.3,161.7
	L196.3,161.7L196.3,161.7z"/>
<linearGradient id="SVGID_00000092451466973541142220000011470955074410207619_" gradientUnits="userSpaceOnUse" x1="207.3932" y1="863.5118" x2="228.6692" y2="863.5118" gradientTransform="matrix(1 0 0 -1 0 993.2489)">
	<stop  offset="0" style="stop-color:#8494A9"/>
	<stop  offset="0.15" style="stop-color:#7A8BA2"/>
	<stop  offset="0.39" style="stop-color:#617590"/>
	<stop  offset="0.7" style="stop-color:#385173"/>
	<stop  offset="0.99" style="stop-color:#0B2A54"/>
</linearGradient>
<path style="fill:url(#SVGID_00000092451466973541142220000011470955074410207619_);" d="M207.9,138.4c3.8,3.7,10.1,1.1,13.6-1.6
	c4-3.1,7.4-9.8,7.2-14.9c-0.1-2.5-3.7-3.9-5-1.4c-1.7,3.4-2.4,7.1-4.6,10.4c-1,1.6-2.4,2.8-4,3.7c-2,1.1-4.2,0.2-6.3,0.6
	C207.3,135.6,207,137.5,207.9,138.4L207.9,138.4L207.9,138.4z"/>
<linearGradient id="SVGID_00000034084626208945473890000001647445581843087276_" gradientUnits="userSpaceOnUse" x1="229.8468" y1="911.2734" x2="256.6418" y2="911.2734" gradientTransform="matrix(1 0 0 -1 0 993.2489)">
	<stop  offset="0" style="stop-color:#8494A9"/>
	<stop  offset="0.15" style="stop-color:#7A8BA2"/>
	<stop  offset="0.39" style="stop-color:#617590"/>
	<stop  offset="0.7" style="stop-color:#385173"/>
	<stop  offset="0.99" style="stop-color:#0B2A54"/>
</linearGradient>
<path style="fill:url(#SVGID_00000034084626208945473890000001647445581843087276_);" d="M256.5,125c-1.6-4.4-5.4-7.7-7.7-11.8
	c-3.8-6.9-5.8-14.8-7.6-22.4c-3.6-15.5-5.4-33.9-1.3-49.5c1.3-5-6.4-7.1-7.7-2.1c-4.5,17.4-2.1,36.3,1.8,53.6
	c2.1,9.5,8,33.9,20.4,35C255.8,127.8,257,126.2,256.5,125L256.5,125L256.5,125z"/>
<linearGradient id="SVGID_00000128464944286677884590000012360009450293766272_" gradientUnits="userSpaceOnUse" x1="215.6083" y1="937.2575" x2="231.9631" y2="937.2575" gradientTransform="matrix(1 0 0 -1 0 993.2489)">
	<stop  offset="0" style="stop-color:#8494A9"/>
	<stop  offset="0.15" style="stop-color:#7A8BA2"/>
	<stop  offset="0.39" style="stop-color:#617590"/>
	<stop  offset="0.7" style="stop-color:#385173"/>
	<stop  offset="0.99" style="stop-color:#0B2A54"/>
</linearGradient>
<path style="fill:url(#SVGID_00000128464944286677884590000012360009450293766272_);" d="M231.8,72.1c-0.9-1.9-2.6-3.5-3.6-5.4
	c-1.6-3-2.5-6.2-3.4-9.4c-1.7-5.8-1.3-13.1-4-18.4c-1-2-4-1.4-4.6,0.6c-2,6.5,1.7,16.4,4,22.5c1.6,4.2,5,13.1,10.8,12.3
	C232,74.1,232.1,72.9,231.8,72.1L231.8,72.1L231.8,72.1z"/>
<linearGradient id="SVGID_00000154384397352416067300000000598761987499877547_" gradientUnits="userSpaceOnUse" x1="236.9211" y1="910.5437" x2="256.5504" y2="910.5437" gradientTransform="matrix(1 0 0 -1 0 993.2489)">
	<stop  offset="0" style="stop-color:#8494A9"/>
	<stop  offset="0.15" style="stop-color:#7A8BA2"/>
	<stop  offset="0.39" style="stop-color:#617590"/>
	<stop  offset="0.7" style="stop-color:#385173"/>
	<stop  offset="0.99" style="stop-color:#0B2A54"/>
</linearGradient>
<path style="fill:url(#SVGID_00000154384397352416067300000000598761987499877547_);" d="M239.5,98.4c5.5-2.3,9.2-6.3,11.6-11.7
	c2.3-5,5.2-11.9,5.4-17.4c0.1-2.1-2.8-3.4-4.2-1.7c-3,3.5-3.7,8.7-5,13c-1.8,5.6-4.3,10.8-9.5,14C235.9,95.8,237.2,99.4,239.5,98.4
	L239.5,98.4L239.5,98.4z"/>
<linearGradient id="SVGID_00000016038449730006791550000008298071995491095718_" gradientUnits="userSpaceOnUse" x1="263.9636" y1="939.4529" x2="295.8016" y2="939.4529" gradientTransform="matrix(1 0 0 -1 0 993.2489)">
	<stop  offset="0" style="stop-color:#8494A9"/>
	<stop  offset="0.15" style="stop-color:#7A8BA2"/>
	<stop  offset="0.39" style="stop-color:#617590"/>
	<stop  offset="0.7" style="stop-color:#385173"/>
	<stop  offset="0.99" style="stop-color:#0B2A54"/>
</linearGradient>
<path style="fill:url(#SVGID_00000016038449730006791550000008298071995491095718_);" d="M267.5,83.3C285.1,71.1,294,47.7,295.8,27
	c0.3-3.7-5.2-4.2-6.3-0.8c-6.3,20.3-9.8,37.3-24.9,53.4C262.8,81.5,265.2,84.9,267.5,83.3L267.5,83.3z"/>
<linearGradient id="SVGID_00000180333374694243827760000000005426657590629507_" gradientUnits="userSpaceOnUse" x1="286.2254" y1="951.1476" x2="308.4391" y2="951.1476" gradientTransform="matrix(1 0 0 -1 0 993.2489)">
	<stop  offset="0" style="stop-color:#8494A9"/>
	<stop  offset="0.15" style="stop-color:#7A8BA2"/>
	<stop  offset="0.39" style="stop-color:#617590"/>
	<stop  offset="0.7" style="stop-color:#385173"/>
	<stop  offset="0.99" style="stop-color:#0B2A54"/>
</linearGradient>
<path style="fill:url(#SVGID_00000180333374694243827760000000005426657590629507_);" d="M287.4,55.7c11.6,3.4,23-16.5,20.8-26
	c-0.5-1.9-2.8-1.8-3.8-0.5c-2.9,3.8-3.3,9.8-5.6,14.2c-1.2,2.4-3,4.6-5.1,6.2c-2,1.5-4.6,1.8-6.7,3.3
	C285.9,53.5,286,55.2,287.4,55.7L287.4,55.7L287.4,55.7z"/>
<linearGradient id="SVGID_00000131327489048198089710000000051979334396619430_" gradientUnits="userSpaceOnUse" x1="154.5347" y1="786.2498" x2="300.8029" y2="786.2498" gradientTransform="matrix(1 0 0 -1 0 993.2489)">
	<stop  offset="0" style="stop-color:#8494A9"/>
	<stop  offset="0.15" style="stop-color:#7A8BA2"/>
	<stop  offset="0.39" style="stop-color:#617590"/>
	<stop  offset="0.7" style="stop-color:#385173"/>
	<stop  offset="0.99" style="stop-color:#0B2A54"/>
</linearGradient>
<path style="fill:url(#SVGID_00000131327489048198089710000000051979334396619430_);" d="M157.5,298.3c9-19.6,14.5-38.7,30.6-54
	c15.6-14.8,35.6-17.7,54.5-25.9c36.2-15.8,63.5-59.9,57.1-99.4c-1.1-7-11.7-4-10.6,2.9c3.9,24.4-8.5,48.7-23.9,66.8
	c-14.9,17.4-33.8,21.9-54,30.5c-31.4,13.4-54.3,44-56.8,78.4C154.4,299,156.9,299.8,157.5,298.3L157.5,298.3L157.5,298.3z"/>
<linearGradient id="SVGID_00000054252290567794109230000013530756357356123071_" gradientUnits="userSpaceOnUse" x1="254.8484" y1="819.5078" x2="265.8913" y2="819.5078" gradientTransform="matrix(1 0 0 -1 0 993.2489)">
	<stop  offset="0" style="stop-color:#8494A9"/>
	<stop  offset="0.15" style="stop-color:#7A8BA2"/>
	<stop  offset="0.39" style="stop-color:#617590"/>
	<stop  offset="0.7" style="stop-color:#385173"/>
	<stop  offset="0.99" style="stop-color:#0B2A54"/>
</linearGradient>
<path style="fill:url(#SVGID_00000054252290567794109230000013530756357356123071_);" d="M265.9,198.5c0.4-7.4-2.6-15.3-3.5-22.6
	c-1-8.9,0-16.7,2.8-25.1c1.2-3.8-4.2-5.8-6.2-2.6c-4.5,7.3-4.4,16.6-3.7,25c0.7,8.4,1.8,19.3,6.2,26.6
	C262.7,201.9,265.7,200.9,265.9,198.5L265.9,198.5L265.9,198.5z"/>
<linearGradient id="SVGID_00000115482720613419653420000007871416907303391129_" gradientUnits="userSpaceOnUse" x1="259.7825" y1="829.5031" x2="279.146" y2="829.5031" gradientTransform="matrix(1 0 0 -1 0 993.2489)">
	<stop  offset="0" style="stop-color:#8494A9"/>
	<stop  offset="0.15" style="stop-color:#7A8BA2"/>
	<stop  offset="0.39" style="stop-color:#617590"/>
	<stop  offset="0.7" style="stop-color:#385173"/>
	<stop  offset="0.99" style="stop-color:#0B2A54"/>
</linearGradient>
<path style="fill:url(#SVGID_00000115482720613419653420000007871416907303391129_);" d="M262.6,176.9c5.3-0.5,8.7-4.8,11.3-9.1
	c1.5-2.5,2.5-5.1,3.6-7.8c0.9-2.3,2.3-4.9,1.4-7.4c-0.7-1.9-2.5-2.6-4.3-1.8c-3.3,1.5-4.5,7-5.7,10.1c-1.8,4.4-3.9,7.7-7.8,10.5
	C259,173,259.4,177.2,262.6,176.9L262.6,176.9L262.6,176.9z"/>
<linearGradient id="SVGID_00000059998314903693585280000014945536416847954315_" gradientUnits="userSpaceOnUse" x1="78.0938" y1="825.5464" x2="101.1367" y2="825.5464" gradientTransform="matrix(1 0 0 -1 0 993.2489)">
	<stop  offset="0" style="stop-color:#8494A9"/>
	<stop  offset="0.15" style="stop-color:#7A8BA2"/>
	<stop  offset="0.39" style="stop-color:#617590"/>
	<stop  offset="0.7" style="stop-color:#385173"/>
	<stop  offset="0.99" style="stop-color:#0B2A54"/>
</linearGradient>
<path style="fill:url(#SVGID_00000059998314903693585280000014945536416847954315_);" d="M81.7,183.5c6.1-1,10.7-5.4,14-10.4
	c3.1-4.6,6-12.3,5.3-17.8c-0.4-2.9-4.6-5-6.2-1.7c-2.1,4.2-2.3,9.2-4.2,13.6c-2.3,5.4-5.9,8.6-11.1,11.2
	C76.5,179.9,78.8,184,81.7,183.5L81.7,183.5L81.7,183.5z"/>
<linearGradient id="SVGID_00000047037971091463951800000002892020289306133902_" gradientUnits="userSpaceOnUse" x1="51.0378" y1="863.1442" x2="72.9289" y2="863.1442" gradientTransform="matrix(1 0 0 -1 0 993.2489)">
	<stop  offset="0" style="stop-color:#8494A9"/>
	<stop  offset="0.15" style="stop-color:#7A8BA2"/>
	<stop  offset="0.39" style="stop-color:#617590"/>
	<stop  offset="0.7" style="stop-color:#385173"/>
	<stop  offset="0.99" style="stop-color:#0B2A54"/>
</linearGradient>
<path style="fill:url(#SVGID_00000047037971091463951800000002892020289306133902_);" d="M69.7,130.2c-2.7,0.4-5.2,0.1-7.6-1.3
	c-2.4-1.3-3.6-4-5.9-5.2c-2.3-1.1-5.1,0.2-5.1,2.9c-0.1,4.2,4.7,7.5,8.2,8.9c4,1.6,8.7,1.9,12.4-0.7
	C74.2,133.2,72.6,129.8,69.7,130.2L69.7,130.2L69.7,130.2z"/>
<linearGradient id="SVGID_00000092443591516300387710000006317851405408198815_" gradientUnits="userSpaceOnUse" x1="28.3779" y1="972.1689" x2="55.7209" y2="972.1689" gradientTransform="matrix(1 0 0 -1 0 993.2489)">
	<stop  offset="0" style="stop-color:#8494A9"/>
	<stop  offset="0.15" style="stop-color:#7A8BA2"/>
	<stop  offset="0.39" style="stop-color:#617590"/>
	<stop  offset="0.7" style="stop-color:#385173"/>
	<stop  offset="0.99" style="stop-color:#0B2A54"/>
</linearGradient>
<path style="fill:url(#SVGID_00000092443591516300387710000006317851405408198815_);" d="M28.5,12.9c2.3,6.6,6.4,12.9,12,17.2
	c6.1,4.7,14.9,0.7,15.2-7.1c0.1-2.6-3.2-3.8-5-2.1c-1.1,1.1-2.4,4.4-4.1,4.6c-2.1,0.2-4.2-1.9-5.6-3.1c-3.4-3.1-6.3-7.2-8.4-11.2
	C31.4,8.9,27.7,10.5,28.5,12.9L28.5,12.9L28.5,12.9z"/>
<linearGradient id="SVGID_00000157292484061464189530000015900216459392493705_" gradientUnits="userSpaceOnUse" x1="50.6682" y1="898.7137" x2="67.6237" y2="898.7137" gradientTransform="matrix(1 0 0 -1 0 993.2489)">
	<stop  offset="0" style="stop-color:#8494A9"/>
	<stop  offset="0.15" style="stop-color:#7A8BA2"/>
	<stop  offset="0.39" style="stop-color:#617590"/>
	<stop  offset="0.7" style="stop-color:#385173"/>
	<stop  offset="0.99" style="stop-color:#0B2A54"/>
</linearGradient>
<path style="fill:url(#SVGID_00000157292484061464189530000015900216459392493705_);" d="M51.3,104.7c3.4,4,9.6,0,11.9-3.2
	c2.8-4,5.1-10.7,4.3-15.6c-0.4-2.4-2.9-4.1-5.2-2.7c-2.5,1.4-2,5.4-2.4,7.9c-0.5,2.4-1.3,4.9-2.6,7c-1.4,2.3-3.6,2-5.5,3.4
	C50.5,102.2,50.3,103.6,51.3,104.7L51.3,104.7L51.3,104.7z"/>
<linearGradient id="SVGID_00000129177683628787096890000001661471011775236510_" gradientUnits="userSpaceOnUse" x1="1.8976" y1="889.5375" x2="26.4883" y2="889.5375" gradientTransform="matrix(1 0 0 -1 0 993.2489)">
	<stop  offset="0" style="stop-color:#8494A9"/>
	<stop  offset="0.15" style="stop-color:#7A8BA2"/>
	<stop  offset="0.39" style="stop-color:#617590"/>
	<stop  offset="0.7" style="stop-color:#385173"/>
	<stop  offset="0.99" style="stop-color:#0B2A54"/>
</linearGradient>
<path style="fill:url(#SVGID_00000129177683628787096890000001661471011775236510_);" d="M25.7,111.8c-1.5-1.1-3.6-1-5.3-1.8
	c-2.2-1.1-3.9-2.7-5.5-4.6c-3.4-3.9-4.5-8.9-7.3-12.9C5.8,90,2.1,90.9,1.9,94c-0.3,6.4,5.4,13.6,9.8,17.6c3,2.7,11.7,7.8,14.6,2.4
	C26.7,113.1,26.4,112.3,25.7,111.8L25.7,111.8L25.7,111.8z"/>
<linearGradient id="SVGID_00000102530943612461459670000000509243183582864770_" gradientUnits="userSpaceOnUse" x1="7.8209" y1="852.5241" x2="23.9151" y2="852.5241" gradientTransform="matrix(1 0 0 -1 0 993.2489)">
	<stop  offset="0" style="stop-color:#8494A9"/>
	<stop  offset="0.15" style="stop-color:#7A8BA2"/>
	<stop  offset="0.39" style="stop-color:#617590"/>
	<stop  offset="0.7" style="stop-color:#385173"/>
	<stop  offset="0.99" style="stop-color:#0B2A54"/>
</linearGradient>
<path style="fill:url(#SVGID_00000102530943612461459670000000509243183582864770_);" d="M8.5,151.3c4.1,2.8,9.1-1.2,11.4-4.4
	c3.1-4.1,4.8-10.9,3.6-15.9c-0.6-2.4-4.1-2.3-4.7,0c-0.9,3.6-1,7.3-2.3,10.9c-0.7,1.8-1.7,3.7-3.3,4.9c-1.5,1.1-3.2,1.2-4.8,2.1
	C7.5,149.4,7.7,150.7,8.5,151.3L8.5,151.3L8.5,151.3z"/>
<linearGradient id="SVGID_00000178904015826533554260000011375384538812599473_" gradientUnits="userSpaceOnUse" x1="149.4357" y1="834.738" x2="169.6761" y2="834.738" gradientTransform="matrix(1 0 0 -1 0 993.2489)">
	<stop  offset="0" style="stop-color:#8494A9"/>
	<stop  offset="0.15" style="stop-color:#7A8BA2"/>
	<stop  offset="0.39" style="stop-color:#617590"/>
	<stop  offset="0.7" style="stop-color:#385173"/>
	<stop  offset="0.99" style="stop-color:#0B2A54"/>
</linearGradient>
<path style="fill:url(#SVGID_00000178904015826533554260000011375384538812599473_);" d="M169.3,178.6c-8.1-12.8-10.7-26.5-13-41.2
	c-0.6-3.9-7.1-3-6.9,0.9c0.6,15.2,6.4,31.6,16.2,43.2C167.4,183.5,170.7,180.8,169.3,178.6L169.3,178.6L169.3,178.6z"/>
<linearGradient id="SVGID_00000157280636843327755930000008496557294930846851_" gradientUnits="userSpaceOnUse" x1="137.9207" y1="835.2823" x2="161.6617" y2="835.2823" gradientTransform="matrix(1 0 0 -1 0 993.2489)">
	<stop  offset="0" style="stop-color:#8494A9"/>
	<stop  offset="0.15" style="stop-color:#7A8BA2"/>
	<stop  offset="0.39" style="stop-color:#617590"/>
	<stop  offset="0.7" style="stop-color:#385173"/>
	<stop  offset="0.99" style="stop-color:#0B2A54"/>
</linearGradient>
<path style="fill:url(#SVGID_00000157280636843327755930000008496557294930846851_);" d="M161.7,168.2c0.1-1.9-1.3-2.7-2.6-3.8
	c-2.3-1.8-4.6-3.5-6.9-5.3c-1.9-1.5-3.7-3.1-5.2-5c-1.5-2-1.8-4.3-2.8-6.5c-1.2-2.6-5.3-1.8-5.9,0.8c-1.4,5.6,3.8,10.8,7.7,14
	c2.4,1.9,5.1,3.6,7.8,5c2.2,1.2,4.7,3.3,7.2,2.1C161.4,169.3,161.6,168.7,161.7,168.2L161.7,168.2L161.7,168.2z"/>
<linearGradient id="SVGID_00000098197726553488868940000012272159116691976382_" gradientUnits="userSpaceOnUse" x1="129.6749" y1="875.7946" x2="142.9188" y2="875.7946" gradientTransform="matrix(1 0 0 -1 0 993.2489)">
	<stop  offset="0" style="stop-color:#8494A9"/>
	<stop  offset="0.15" style="stop-color:#7A8BA2"/>
	<stop  offset="0.39" style="stop-color:#617590"/>
	<stop  offset="0.7" style="stop-color:#385173"/>
	<stop  offset="0.99" style="stop-color:#0B2A54"/>
</linearGradient>
<path style="fill:url(#SVGID_00000098197726553488868940000012272159116691976382_);" d="M130.9,128c7.7,1.1,11.1-12.3,11.9-17.7
	c0.6-3.5-4.9-5-5.4-1.5c-0.4,3.1-1.2,6.3-2.2,9.3c-1.1,3.2-2.8,4.8-5.2,6.9C129.3,125.9,129.6,127.8,130.9,128L130.9,128L130.9,128z
	"/>
<linearGradient id="SVGID_00000097502139370589113910000005467363747620184481_" gradientUnits="userSpaceOnUse" x1="99.2967" y1="882.8134" x2="113.4602" y2="882.8134" gradientTransform="matrix(1 0 0 -1 0 993.2489)">
	<stop  offset="0" style="stop-color:#8494A9"/>
	<stop  offset="0.15" style="stop-color:#7A8BA2"/>
	<stop  offset="0.39" style="stop-color:#617590"/>
	<stop  offset="0.7" style="stop-color:#385173"/>
	<stop  offset="0.99" style="stop-color:#0B2A54"/>
</linearGradient>
<path style="fill:url(#SVGID_00000097502139370589113910000005467363747620184481_);" d="M100.7,123.7c3.8-0.2,6.3-5.2,7.9-8.2
	c2.5-4.5,4.1-9.7,4.8-14.8c0.5-3.6-4.8-5.2-5.5-1.5c-0.9,4.5-2,8.8-3.6,13c-1.2,3.3-4.8,6.6-5,10.1
	C99.3,123.1,100,123.8,100.7,123.7L100.7,123.7L100.7,123.7z"/>
<linearGradient id="SVGID_00000075865692961188832540000004300884131829261225_" gradientUnits="userSpaceOnUse" x1="51.3032" y1="926.8875" x2="83.0428" y2="926.8875" gradientTransform="matrix(1 0 0 -1 0 993.2489)">
	<stop  offset="0" style="stop-color:#8494A9"/>
	<stop  offset="0.15" style="stop-color:#7A8BA2"/>
	<stop  offset="0.39" style="stop-color:#617590"/>
	<stop  offset="0.7" style="stop-color:#385173"/>
	<stop  offset="0.99" style="stop-color:#0B2A54"/>
</linearGradient>
<path style="fill:url(#SVGID_00000075865692961188832540000004300884131829261225_);" d="M82,74.3c-9.5-5.4-18.5-10.9-26.1-18.8
	c-2.1-2.2-5.9,0.7-4.2,3.2c6.2,9.5,18.3,14.5,28.2,19.2C82.3,79,84.4,75.6,82,74.3L82,74.3L82,74.3z"/>
<linearGradient id="SVGID_00000109003856809575936570000014728286452028128442_" gradientUnits="userSpaceOnUse" x1="85.9078" y1="942.5159" x2="101.8236" y2="942.5159" gradientTransform="matrix(1 0 0 -1 0 993.2489)">
	<stop  offset="0" style="stop-color:#8494A9"/>
	<stop  offset="0.15" style="stop-color:#7A8BA2"/>
	<stop  offset="0.39" style="stop-color:#617590"/>
	<stop  offset="0.7" style="stop-color:#385173"/>
	<stop  offset="0.99" style="stop-color:#0B2A54"/>
</linearGradient>
<path style="fill:url(#SVGID_00000109003856809575936570000014728286452028128442_);" d="M101.8,60.8c-0.5-1.6-1.8-1.8-2.9-2.9
	c-1.5-1.4-2.4-3.4-3.1-5.2c-1.6-4.1-2.4-8.4-3.5-12.6c-1.1-4.2-7-2.3-6.3,1.7c1.1,7.1,4.4,21.1,13.3,21.9c0.9,0.1,1.7-0.5,2.2-1.2
	C101.7,62,101.9,61.4,101.8,60.8L101.8,60.8L101.8,60.8z"/>
<linearGradient id="SVGID_00000109013620527477326880000002329188463526595498_" gradientUnits="userSpaceOnUse" x1="135.8627" y1="963.2398" x2="153.7654" y2="963.2398" gradientTransform="matrix(1 0 0 -1 0 993.2489)">
	<stop  offset="0" style="stop-color:#8494A9"/>
	<stop  offset="0.15" style="stop-color:#7A8BA2"/>
	<stop  offset="0.39" style="stop-color:#617590"/>
	<stop  offset="0.7" style="stop-color:#385173"/>
	<stop  offset="0.99" style="stop-color:#0B2A54"/>
</linearGradient>
<path style="fill:url(#SVGID_00000109013620527477326880000002329188463526595498_);" d="M153.4,41.3c-2.6-3.3-5.8-5.6-8-9.4
	c-2.4-4-3.4-8.7-4.2-13.2c-0.6-3.5-6-2-5.4,1.5c1.6,8.3,6.7,21.4,16.3,23.2C153.5,43.6,154.2,42.2,153.4,41.3L153.4,41.3L153.4,41.3
	z"/>
<linearGradient id="SVGID_00000165935373768758715850000018275472443574572939_" gradientUnits="userSpaceOnUse" x1="92.8355" y1="827.08" x2="113.0641" y2="827.08" gradientTransform="matrix(1 0 0 -1 0 993.2489)">
	<stop  offset="0" style="stop-color:#8494A9"/>
	<stop  offset="0.15" style="stop-color:#7A8BA2"/>
	<stop  offset="0.39" style="stop-color:#617590"/>
	<stop  offset="0.7" style="stop-color:#385173"/>
	<stop  offset="0.99" style="stop-color:#0B2A54"/>
</linearGradient>
<path style="fill:url(#SVGID_00000165935373768758715850000018275472443574572939_);" d="M93.2,169.6c2.1,3.6,7.3,4.4,11,3.2
	c4.3-1.4,7.1-5.3,8.7-9.4c1.4-3.7-4.8-6.3-6.4-2.7c-0.9,2.2-2.1,4.4-4.1,5.8c-2.4,1.6-4.2,0.1-6.6-0.2
	C93.9,166,92.1,167.8,93.2,169.6L93.2,169.6L93.2,169.6z"/>
<linearGradient id="SVGID_00000153672581547905832880000017444256799090480021_" gradientUnits="userSpaceOnUse" x1="51.0142" y1="827.1241" x2="66.1564" y2="827.1241" gradientTransform="matrix(1 0 0 -1 0 993.2489)">
	<stop  offset="0" style="stop-color:#8494A9"/>
	<stop  offset="0.15" style="stop-color:#7A8BA2"/>
	<stop  offset="0.39" style="stop-color:#617590"/>
	<stop  offset="0.7" style="stop-color:#385173"/>
	<stop  offset="0.99" style="stop-color:#0B2A54"/>
</linearGradient>
<path style="fill:url(#SVGID_00000153672581547905832880000017444256799090480021_);" d="M53.1,185.2c11.5-3.6,14.4-26.7,12.6-36.6
	c-0.4-2.4-4-2.1-4.6,0c-1.4,5.2-1.1,10.9-1.9,16.3c-1.1,7-3.5,12-7.8,17.5C50.5,183.6,51.3,185.8,53.1,185.2L53.1,185.2L53.1,185.2z
	"/>
<linearGradient id="SVGID_00000090977822555927466550000017232539966982172039_" gradientUnits="userSpaceOnUse" x1="38.709" y1="773.7592" x2="96.8" y2="773.7592" gradientTransform="matrix(1 0 0 -1 0 993.2489)">
	<stop  offset="0" style="stop-color:#8494A9"/>
	<stop  offset="0.15" style="stop-color:#7A8BA2"/>
	<stop  offset="0.39" style="stop-color:#617590"/>
	<stop  offset="0.7" style="stop-color:#385173"/>
	<stop  offset="0.99" style="stop-color:#0B2A54"/>
</linearGradient>
<path style="fill:url(#SVGID_00000090977822555927466550000017232539966982172039_);" d="M93.7,219.5c-7.1,4.8-19.2,3.3-27,1.8
	c-8.5-1.7-15.4-6.1-22.3-11.1c-3.4-2.5-7.7,3.1-4.5,5.9c13,11.5,41.7,20.3,56.4,6.8C97.9,221.2,95.6,218.1,93.7,219.5L93.7,219.5
	L93.7,219.5z"/>
<linearGradient id="SVGID_00000170959256165519479180000012439733327522292130_" gradientUnits="userSpaceOnUse" x1="105.8299" y1="791.5438" x2="150.8034" y2="791.5438" gradientTransform="matrix(1 0 0 -1 0 993.2489)">
	<stop  offset="0" style="stop-color:#8494A9"/>
	<stop  offset="0.15" style="stop-color:#7A8BA2"/>
	<stop  offset="0.39" style="stop-color:#617590"/>
	<stop  offset="0.7" style="stop-color:#385173"/>
	<stop  offset="0.99" style="stop-color:#0B2A54"/>
</linearGradient>
<path style="fill:url(#SVGID_00000170959256165519479180000012439733327522292130_);" d="M147.5,211.4c-13.3,1.8-28.8-10.7-32-23
	c-1.6-6.1-11.3-3.5-9.5,2.6c2.9,9.7,10.6,18.9,20.1,22.7c5.6,2.3,18.8,7.9,23.9,2.1C151.9,213.7,150.1,211.1,147.5,211.4
	L147.5,211.4z"/>
<linearGradient id="SVGID_00000049223194401240689220000010318293730763819169_" gradientUnits="userSpaceOnUse" x1="119.9364" y1="795.2057" x2="128.5792" y2="795.2057" gradientTransform="matrix(1 0 0 -1 0 993.2489)">
	<stop  offset="0" style="stop-color:#8494A9"/>
	<stop  offset="0.15" style="stop-color:#7A8BA2"/>
	<stop  offset="0.39" style="stop-color:#617590"/>
	<stop  offset="0.7" style="stop-color:#385173"/>
	<stop  offset="0.99" style="stop-color:#0B2A54"/>
</linearGradient>
<path style="fill:url(#SVGID_00000049223194401240689220000010318293730763819169_);" d="M122.9,208.1c2.7-1.4,3.8-5.1,4.6-7.9
	c0.9-3.2,1.6-7.3,0.8-10.6c-0.7-3.2-4.9-2-5.2,0.7c-0.3,2.5,0,5-0.3,7.5c-0.3,2.9-1.4,5.1-2.6,7.6
	C119.3,207.2,121.1,209.1,122.9,208.1L122.9,208.1L122.9,208.1z"/>
<linearGradient id="SVGID_00000018224442756487735390000013672985653599675301_" gradientUnits="userSpaceOnUse" x1="254.1018" y1="882.3427" x2="286.6641" y2="882.3427" gradientTransform="matrix(1 0 0 -1 0 993.2489)">
	<stop  offset="0" style="stop-color:#8494A9"/>
	<stop  offset="0.15" style="stop-color:#7A8BA2"/>
	<stop  offset="0.39" style="stop-color:#617590"/>
	<stop  offset="0.7" style="stop-color:#385173"/>
	<stop  offset="0.99" style="stop-color:#0B2A54"/>
</linearGradient>
<path style="fill:url(#SVGID_00000018224442756487735390000013672985653599675301_);" d="M255.9,131.9c7.1,2.2,13.6-6.3,17.2-11.2
	c5.6-7.6,10.4-17,13.4-26c1.8-5.4-6.3-7.4-8.4-2.3c-5,12.5-10.2,28.3-22.7,35C253.4,128.5,253.9,131.3,255.9,131.9L255.9,131.9
	L255.9,131.9z"/>
<linearGradient id="SVGID_00000008836830901605335000000001490815131358870688_" gradientUnits="userSpaceOnUse" x1="274.0378" y1="892.6462" x2="299.6186" y2="892.6462" gradientTransform="matrix(1 0 0 -1 0 993.2489)">
	<stop  offset="0" style="stop-color:#8494A9"/>
	<stop  offset="0.15" style="stop-color:#7A8BA2"/>
	<stop  offset="0.39" style="stop-color:#617590"/>
	<stop  offset="0.7" style="stop-color:#385173"/>
	<stop  offset="0.99" style="stop-color:#0B2A54"/>
</linearGradient>
<path style="fill:url(#SVGID_00000008836830901605335000000001490815131358870688_);" d="M274.1,108.9c1.2,6.5,11.2,1.3,13.8-0.8
	c4.5-3.7,9.9-9.5,11.6-15.2c1-3.2-2.8-4.6-5-2.9c-3.5,2.7-5.6,7.4-8.4,10.8c-1.6,1.9-3.3,3.6-5.4,4.9c-1.9,1.1-3.9,0.2-5.7,1.1
	C274.1,107.2,273.9,108.1,274.1,108.9L274.1,108.9L274.1,108.9z"/>
<linearGradient id="SVGID_00000103253446810633377560000008156780031751642288_" gradientUnits="userSpaceOnUse" x1="287.1824" y1="849.8472" x2="321.676" y2="849.8472" gradientTransform="matrix(1 0 0 -1 0 993.2489)">
	<stop  offset="0" style="stop-color:#8494A9"/>
	<stop  offset="0.15" style="stop-color:#7A8BA2"/>
	<stop  offset="0.39" style="stop-color:#617590"/>
	<stop  offset="0.7" style="stop-color:#385173"/>
	<stop  offset="0.99" style="stop-color:#0B2A54"/>
</linearGradient>
<path style="fill:url(#SVGID_00000103253446810633377560000008156780031751642288_);" d="M289.4,166.1c19.4,2,28.2-26.6,32.1-40.7
	c1.5-5.4-7-6.8-7.7-1c-1.8,14.5-9.9,33.3-25,37.3C286.2,162.3,287,165.8,289.4,166.1L289.4,166.1L289.4,166.1z"/>
<linearGradient id="SVGID_00000180335954783163490710000009456992865605395587_" gradientUnits="userSpaceOnUse" x1="301.3735" y1="861.7078" x2="310.9689" y2="861.7078" gradientTransform="matrix(1 0 0 -1 0 993.2489)">
	<stop  offset="0" style="stop-color:#8494A9"/>
	<stop  offset="0.15" style="stop-color:#7A8BA2"/>
	<stop  offset="0.39" style="stop-color:#617590"/>
	<stop  offset="0.7" style="stop-color:#385173"/>
	<stop  offset="0.99" style="stop-color:#0B2A54"/>
</linearGradient>
<path style="fill:url(#SVGID_00000180335954783163490710000009456992865605395587_);" d="M310.9,145.1c0.2-1.7-0.8-2.8-1.4-4.3
	c-0.8-2.1-1.1-4.5-1.3-6.7c-0.4-4.7,0.5-9,1.2-13.6c0.5-3.5-4.5-6.5-6.3-2.6c-2.3,5.1-2.1,11.6-1.2,17.1c0.7,4,2,11.7,7,12.2
	C310.1,147.2,310.8,146.1,310.9,145.1L310.9,145.1L310.9,145.1z"/>
<linearGradient id="SVGID_00000004548304141312192290000010940255931886728615_" gradientUnits="userSpaceOnUse" x1="227.1943" y1="797.0109" x2="239.2666" y2="797.0109" gradientTransform="matrix(1 0 0 -1 0 993.2489)">
	<stop  offset="0" style="stop-color:#8494A9"/>
	<stop  offset="0.15" style="stop-color:#7A8BA2"/>
	<stop  offset="0.39" style="stop-color:#617590"/>
	<stop  offset="0.7" style="stop-color:#385173"/>
	<stop  offset="0.99" style="stop-color:#0B2A54"/>
</linearGradient>
<path style="fill:url(#SVGID_00000004548304141312192290000010940255931886728615_);" d="M234.4,216.5c0.8-4.9-0.3-10.1-0.2-15.1
	c0.1-7.7,2.4-15,4.9-22.3c1.5-4.5-5.4-6.3-7-1.9c-3.9,10.5-8.2,29.9-0.7,39.7C232,218,234.1,218.2,234.4,216.5L234.4,216.5
	L234.4,216.5z"/>
<linearGradient id="SVGID_00000083788585119820223560000008797431818120826764_" gradientUnits="userSpaceOnUse" x1="228.6577" y1="802.629" x2="247.4149" y2="802.629" gradientTransform="matrix(1 0 0 -1 0 993.2489)">
	<stop  offset="0" style="stop-color:#8494A9"/>
	<stop  offset="0.15" style="stop-color:#7A8BA2"/>
	<stop  offset="0.39" style="stop-color:#617590"/>
	<stop  offset="0.7" style="stop-color:#385173"/>
	<stop  offset="0.99" style="stop-color:#0B2A54"/>
</linearGradient>
<path style="fill:url(#SVGID_00000083788585119820223560000008797431818120826764_);" d="M230.5,201.4c9.1,1.9,16.5-10.2,16.9-18
	c0.2-4.7-6.2-4.9-7.6-1c-2.2,5.7-2.6,12-9.3,14.1C228.2,197.2,227.9,200.8,230.5,201.4L230.5,201.4z"/>
<linearGradient id="SVGID_00000163043183935871234390000013118660265849134507_" gradientUnits="userSpaceOnUse" x1="176.5054" y1="815.149" x2="197.4651" y2="815.149" gradientTransform="matrix(1 0 0 -1 0 993.2489)">
	<stop  offset="0" style="stop-color:#8494A9"/>
	<stop  offset="0.15" style="stop-color:#7A8BA2"/>
	<stop  offset="0.39" style="stop-color:#617590"/>
	<stop  offset="0.7" style="stop-color:#385173"/>
	<stop  offset="0.99" style="stop-color:#0B2A54"/>
</linearGradient>
<path style="fill:url(#SVGID_00000163043183935871234390000013118660265849134507_);" d="M196.6,185.4c-1.5-0.8-3.1-1.1-4.5-1.9
	c-2-1.1-3.6-3.1-4.9-4.9c-1.4-1.9-2.4-4-3.2-6.2c-0.7-2-0.9-3.8-2.9-5c-1.4-0.8-3-0.3-3.8,1c-2.9,4.2,3,11.5,5.7,14.6
	c2.8,3.2,8.7,7.5,13.2,5.7C197.5,188.2,198.1,186.2,196.6,185.4L196.6,185.4L196.6,185.4z"/>
<linearGradient id="SVGID_00000117661365738398796630000012864244821581411719_" gradientUnits="userSpaceOnUse" x1="225.2166" y1="842.1084" x2="235.8049" y2="842.1084" gradientTransform="matrix(1 0 0 -1 0 993.2489)">
	<stop  offset="0" style="stop-color:#8494A9"/>
	<stop  offset="0.15" style="stop-color:#7A8BA2"/>
	<stop  offset="0.39" style="stop-color:#617590"/>
	<stop  offset="0.7" style="stop-color:#385173"/>
	<stop  offset="0.99" style="stop-color:#0B2A54"/>
</linearGradient>
<path style="fill:url(#SVGID_00000117661365738398796630000012864244821581411719_);" d="M235.3,157.8c-2-1.8-2.8-4.2-3.4-6.8
	c-0.6-2.8,0.2-6-1.1-8.6c-1-1.9-3.4-1.4-4.5,0c-2.2,2.9-0.4,8.4,0.7,11.5c1.1,3.4,3.2,6.7,7,7.2
	C235.6,161.4,236.4,158.9,235.3,157.8L235.3,157.8L235.3,157.8z"/>
<linearGradient id="SVGID_00000017496322155711134410000016385905428114926778_" gradientUnits="userSpaceOnUse" x1="214.5895" y1="883.109" x2="243.7488" y2="883.109" gradientTransform="matrix(1 0 0 -1 0 993.2489)">
	<stop  offset="0" style="stop-color:#8494A9"/>
	<stop  offset="0.15" style="stop-color:#7A8BA2"/>
	<stop  offset="0.39" style="stop-color:#617590"/>
	<stop  offset="0.7" style="stop-color:#385173"/>
	<stop  offset="0.99" style="stop-color:#0B2A54"/>
</linearGradient>
<path style="fill:url(#SVGID_00000017496322155711134410000016385905428114926778_);" d="M242.7,115c-4.1-2.2-8.8-2.6-13-5.1
	c-4-2.4-7.1-8.2-11.6-9c-1.6-0.3-3.7,0.7-3.5,2.7c0.4,5.5,7.4,9.6,11.8,12.2c4.5,2.7,11.4,5,16.4,2.7
	C244.1,117.9,244,115.7,242.7,115L242.7,115L242.7,115z"/>
</svg>
