<?xml version="1.0" encoding="UTF-8"?><svg id="coral" xmlns="http://www.w3.org/2000/svg" xmlns:xlink="http://www.w3.org/1999/xlink" viewBox="0 0 2072.73 1166.38"><defs><style>.cls-1{fill:url(#light_orange-15);}.cls-2{fill:url(#light_orange-12);}.cls-3{fill:url(#light_orange-10);}.cls-4{fill:url(#light_orange-11);}.cls-5{fill:url(#light_orange-14);}.cls-6{fill:url(#light_orange-13);}.cls-7{fill:url(#light_orange-18);}.cls-8{fill:url(#light_orange-17);}.cls-9{fill:url(#light_orange-20);}.cls-10{fill:url(#light_orange-21);}.cls-11{fill:url(#light_orange-16);}.cls-12{fill:url(#light_orange-19);}.cls-13{fill:url(#light_orange-23);}.cls-14{fill:url(#light_orange-24);}.cls-15{fill:url(#light_orange-25);}.cls-16{fill:url(#light_orange-22);}.cls-17{fill:url(#light_orange-3);}.cls-18{fill:url(#light_orange-2);}.cls-19{fill:url(#light_orange-9);}.cls-20{fill:url(#light_orange-8);}.cls-21{fill:url(#light_orange-6);}.cls-22{fill:url(#light_orange-7);}.cls-23{fill:url(#light_orange-4);}.cls-24{fill:url(#light_orange-5);}.cls-25{fill:url(#light_orange);}</style><linearGradient id="light_orange" x1="157.18" y1="198.86" x2="205.6" y2="198.86" gradientUnits="userSpaceOnUse"><stop offset="0" stop-color="#f5d1b6"/><stop offset=".22" stop-color="#f3cbac"/><stop offset=".58" stop-color="#f0bb93"/><stop offset=".99" stop-color="#eba46e"/></linearGradient><linearGradient id="light_orange-2" x1="101.29" y1="197.87" x2="167.75" y2="197.87" xlink:href="#light_orange"/><linearGradient id="light_orange-3" x1="159.69" y1="194.9" x2="255.71" y2="194.9" xlink:href="#light_orange"/><linearGradient id="light_orange-4" x1="120.03" y1="152.59" x2="132.35" y2="152.59" xlink:href="#light_orange"/><linearGradient id="light_orange-5" x1="117.14" y1="152.19" x2="136.56" y2="152.19" xlink:href="#light_orange"/><linearGradient id="light_orange-6" x1="105.07" y1="177.97" x2="129.59" y2="177.97" xlink:href="#light_orange"/><linearGradient id="light_orange-7" x1="100.43" y1="178.95" x2="133.78" y2="178.95" xlink:href="#light_orange"/><linearGradient id="light_orange-8" x1="147.87" y1="171.19" x2="157.76" y2="171.19" xlink:href="#light_orange"/><linearGradient id="light_orange-9" x1="143.01" y1="170.95" x2="162.45" y2="170.95" xlink:href="#light_orange"/><linearGradient id="light_orange-10" x1="126.85" y1="204.42" x2="149.47" y2="204.42" xlink:href="#light_orange"/><linearGradient id="light_orange-11" x1="121.3" y1="204.86" x2="154.86" y2="204.86" xlink:href="#light_orange"/><linearGradient id="light_orange-12" x1="166.31" y1="123.78" x2="195.98" y2="123.78" xlink:href="#light_orange"/><linearGradient id="light_orange-13" x1="160.81" y1="123.46" x2="200.31" y2="123.46" xlink:href="#light_orange"/><linearGradient id="light_orange-14" x1="165.22" y1="156.5" x2="186.59" y2="156.5" xlink:href="#light_orange"/><linearGradient id="light_orange-15" x1="160.19" y1="155.55" x2="190.39" y2="155.55" xlink:href="#light_orange"/><linearGradient id="light_orange-16" x1="201.52" y1="141.04" x2="224.81" y2="141.04" xlink:href="#light_orange"/><linearGradient id="light_orange-17" x1="197.53" y1="140.6" x2="230.29" y2="140.6" xlink:href="#light_orange"/><linearGradient id="light_orange-18" x1="208.38" y1="175.81" x2="222" y2="175.81" xlink:href="#light_orange"/><linearGradient id="light_orange-19" x1="203.88" y1="174.97" x2="226.91" y2="174.97" xlink:href="#light_orange"/><linearGradient id="light_orange-20" x1="245.04" y1="149.68" x2="272.05" y2="149.68" xlink:href="#light_orange"/><linearGradient id="light_orange-21" x1="241.9" y1="149.47" x2="276.98" y2="149.47" xlink:href="#light_orange"/><linearGradient id="light_orange-22" x1="229.25" y1="184.85" x2="258.29" y2="184.85" xlink:href="#light_orange"/><linearGradient id="light_orange-23" x1="224.99" y1="184.94" x2="264.34" y2="184.94" xlink:href="#light_orange"/><linearGradient id="light_orange-24" x1="201.95" y1="103.84" x2="220.06" y2="103.84" xlink:href="#light_orange"/><linearGradient id="light_orange-25" x1="197.02" y1="103.72" x2="225.75" y2="103.72" xlink:href="#light_orange"/></defs><path class="cls-25" d="M166.35,293.65c-6.37-41.53,13.5-73.68,27.98-110.57,9.66-24.61,16.76-54.86,5.58-80.14-2.43-5.48-11.26-1.55-9.56,4.03,10.08,33.08-1.77,63.6-15.9,93.41-14.21,30-22.24,62.1-13.89,94.86,.98,3.83,6.35,2.13,5.78-1.6h0Z"/><path class="cls-18" d="M166.9,255.61c1.64-21.32,1.94-45.01-8.79-64.18-5.05-9.02-15.36-15.32-23.28-21.5-11.69-9.13-18.66-17.91-25.72-30.73-2.15-3.9-7.31-1.73-7.7,2.09-2.05,19.88,26.02,35.21,39,45.74,21.78,17.68,14.65,45.26,20.54,69.4,.85,3.5,5.7,2.47,5.96-.81h0Z"/><path class="cls-17" d="M165.66,260.7c9.85-26.58,36.91-45.45,55.27-66.02,15.62-17.49,31.74-39.85,34.74-63.64,.55-4.32-5.97-5.59-7.9-2.14-6.22,11.12-10.31,23.16-16.86,34.18-7.41,12.47-17.14,23.38-27.03,33.91-16.84,17.92-40.22,36.27-44.15,62.08-.59,3.89,4.53,5.4,5.92,1.63h0Z"/><g><path class="cls-23" d="M120.03,161.88c.54-2.12,2.12-21.19,8.48-20.13,11.13,1.06-5.29,19.6-6.88,21.72"/><path class="cls-24" d="M121.32,164.09c2.64-2.02,2.82-6.55,3.52-9.57,.56-2.39,1.22-4.8,2.3-7.01,.35-.72,.75-1.34,1.31-1.91-.53,.54,.23,.4-.09,.14-.62-.5-.16-1.32-.35-.34-.14,.73-.4,1.49-.7,2.16-.98,2.21-2.36,4.26-3.73,6.25-2.03,2.92-5.53,5.86-5.51,9.65,0,2.33,2.25,3.99,4.49,3.42,4.83-1.24,8.46-8.16,10.85-12.11,3.02-4.99,5.38-11.95-.37-15.92-6.25-4.32-11.59,1.76-13.51,7.13-1.15,3.2-1.61,6.67-2.05,10.02-.29,2.18-.75,5.15,.33,7.16,.6,1.12,2.42,1.75,3.5,.92h0Z"/></g><g><path class="cls-21" d="M127.21,172.32c-2.39,0-20.86,1.19-22.05,6.56-1.79,7.75,21.45,5.36,24.43-2.39"/><path class="cls-22" d="M129.17,171.18c-2.05-3.87-13.19-1.29-16.43-.78-5.88,.93-14.25,4.28-11.9,11.84,3.79,12.18,35.8,6.01,32.74-6.85-.65-2.71-3.78-3.65-6.07-2.47-1.47,.76-2.51,2.04-3.85,2.97-1.94,1.34-4.25,1.95-6.52,2.46-2,.46-4.3,.68-6.34,.37-2.97-.45-.08-.06-1.27,1.26,2.68-2.97,9.27-3.43,12.95-4.19,2.06-.42,8.77-.7,6.7-4.63h0Z"/></g><g><path class="cls-20" d="M149.05,182.24c-1.28-4.27-3.42-26.88,5.54-23.46,8.53,2.99-2.56,21.33-5.54,25.17"/><path class="cls-19" d="M152.67,182.24c-.12-3.12-.19-6.24-.28-9.36-.07-2.72-.47-8.11,1.56-10.22-1.45,1.51-1.07-.69-1.06,1.62,.01,2.09-.99,4.45-1.8,6.34-1.68,3.9-5.17,7.62-6.16,11.71-.92,3.76,3.22,7.44,6.75,5.19,8.17-5.19,18.72-33.85,1.56-33.82-12.86,.02-11.43,22.76-7.31,30.37,1.7,3.14,6.89,1.76,6.75-1.83h0Z"/></g><g><path class="cls-3" d="M148.19,199.73c-4.26-2.56-21.33,0-21.33,6.4-.42,8.96,19.2,.42,22.61-2.99"/><path class="cls-4" d="M150.75,197.17c-7.96-6.56-33.02-2.2-29.02,11.74,2.15,7.5,10.28,7.33,16.48,5.78,5.27-1.31,14.59-4.3,16.4-10.12,1.27-4.07-2.76-7.41-6.56-6.56-5.65,1.25-11.54,8-17.43,6.4,.41,.11,2.17,1.58,1.64,2.15,1.09-1.15,3.06-1.66,4.52-2.11,2.87-.89,7.47-2.01,10.45-1.23,3.29,.87,6.44-3.64,3.52-6.05h0Z"/></g><g><path class="cls-2" d="M195.98,133.6c-8.1,4.69-25.17-4.27-28.58-12.37-2.98-6.83,.43-9.81,7.25-8.11,8.53,2.14,13.23,11.09,17.92,17.92"/><path class="cls-6" d="M194.78,129.27c-7.64,3.04-18.38-3.19-22.24-9.84-.34-.73-.57-1.5-.71-2.29,.19,1.83-1.87,.8,1.29,1.5,2.54,.56,4.55,2.22,6.37,3.98,3.99,3.84,6.39,8.8,10.92,12.1,3.18,2.32,7.06-1.48,6.23-4.79-2.09-8.32-8.73-16.66-16.26-20.72-6.7-3.62-19.22-3.13-19.57,6.85-.55,15.62,24.27,29.34,37.43,21.44,4.23-2.54,1.4-10.15-3.46-8.22h0Z"/></g><g><path class="cls-5" d="M186.59,167.73c-3.84-.85-24.74-11.95-20.9-19.63,5.12-11.09,19.63,13.65,20.48,17.92"/><path class="cls-1" d="M187.55,164.24c-3.89-1.25-8.19-4.53-11.45-7.23-1.99-1.65-3.91-3.49-5.27-5.69-.28-.44-.36-1.6-.51-.74,.06-.32,.43-.38-.68,.05-.37,.1-.74,.08-1.1-.06,1.27,.18-.64-.46,.63,.22,.88,.47,1.2,.85,1.94,1.56,1.77,1.68,3.21,3.64,4.57,5.65,1.41,2.08,2.75,4.23,4.08,6.36,.51,.81,.94,1.66,1.51,2.43,.32,.43,3.19,3.08,2.02,2.11,1.8,1.48,5.24,1.78,6.37-.82,2.71-6.2-2.78-13.5-6.41-18.27-3.98-5.22-11.32-13.32-18.55-8.57-7.81,5.13-4.28,14.56,1.44,19.54,5.16,4.49,12.66,9.11,19.48,10.45,4.56,.9,6.4-5.55,1.92-6.98h0Z"/></g><g><path class="cls-11" d="M202.37,149.39c2.56-4.27,12.38-30.29,20.91-20.48,7.68,9.39-15.79,23.46-21.76,26.45"/><path class="cls-8" d="M205.06,150.96c3.49-5.07,5.99-10.8,9.83-15.65,.4-.5,3.31-4.05,3.95-3.73,2.17,1.09-.73,4.65-1.5,5.59-4.73,5.76-11.4,9.04-17.22,13.43-2.76,2.09-3.89,6.4-.39,8.44,3.3,1.93,7.03-.75,9.86-2.35,9.64-5.46,31.56-23.49,14.27-33.7-13.29-7.85-20.56,17.1-24.16,24.83-1.68,3.62,3.08,6.46,5.37,3.14h0Z"/></g><g><path class="cls-7" d="M218.59,185.23c-3.84-2.13-13.66-12.37-8.96-17.49,5.54-6.4,11.52,11.94,12.37,15.78"/><path class="cls-12" d="M220.99,182.82c-2.49-2.21-4.76-4.95-6.5-7.78-.72-1.17-1.35-2.46-1.38-3.85,.02,.94-3.65-.73-2.16,.14-.89-.52,.32,.37,.44,.5-.2-.21,.77,1.14,.95,1.43,.86,1.41,1.55,2.92,2.16,4.45,1.08,2.73,1.73,5.75,3.3,8.26,2.72,4.35,8.59,2.23,9.06-2.46,.46-4.56-2.4-9.88-4.4-13.79-2.32-4.53-6.79-10.04-12.59-8.07-6.67,2.27-7.07,9.68-4.62,15.17,2.25,5.01,7.27,9.82,12.43,11.67,3.19,1.15,5.8-3.46,3.31-5.68h0Z"/></g><g><path class="cls-9" d="M245.04,154.93c2.13-2.99,23.89-20.05,26.88-8.53,2.13,9.39-21.33,12.8-26.45,8.96"/><path class="cls-10" d="M247.03,156.93c3.63-3.94,9.67-6.87,14.6-8.68,.86-.32,5.24-1.28,5.21-1.34,.44,1.1,.43,.53-.32,1.35-.94,1.01-2.33,1.61-3.54,2.2-3.01,1.46-6.63,1.98-9.93,2.12-2.57,.11-5.77-1.45-8.17-.78-2.81,.77-4.08,4.62-1.77,6.71,2.43,2.2,5.81,2.52,8.96,2.71,6.49,.41,14.43-.87,19.84-4.64,5.86-4.08,7.24-12.55,1-17.07-9.28-6.75-25.3,6.52-30.3,14.01-1.78,2.67,2.27,5.75,4.42,3.41h0Z"/></g><g><path class="cls-16" d="M231.39,180.11c5.12-1.71,27.73-5.97,26.88,5.12-.86,9.39-25.6,8.11-29.01,.43"/><path class="cls-13" d="M232.41,183.81c3.51-.75,7.09-.79,10.66-.92,2.12-.07,4.28-.01,6.37,.37,.78,.14,1.63,.34,2.35,.67,.97,.45,.88,.95,.82,.32,.52,5.23-17.42,1.7-19.78-1.19-3.3-4.06-9.96,1.22-7.18,5.54,7.16,11.17,32.67,12.2,37.98-1.09,3.42-8.53-6.14-13.74-12.77-14.63-7.1-.95-14.9,1.15-21.4,3.9-4.2,1.78-1.07,7.88,2.96,7.02h0Z"/></g><g><path class="cls-14" d="M201.95,114.83c0-5.12,6.82-26.88,15.36-22.19,10.24,5.97-11.09,20.91-14.93,23.04"/><path class="cls-15" d="M205.05,115.69c.59-4.21,2.51-8.45,4.49-12.16,1.08-2.03,2.33-3.9,3.96-5.52,.43-.42,.91-.71,1.38-.86-.3,.09-.23,.14-.22,.15-.29-.44-.02-1.41-.33-.18-.09,.34-.72,1.39-1.07,1.94-1.33,2.08-3.35,3.8-5.17,5.44-3,2.7-6.38,4.86-9.47,7.44-4.04,3.38,.26,10.61,5.16,8.86,9.48-3.38,30.04-20.46,18.58-31.09-13.84-12.84-24.42,14.85-23.63,25.12,.26,3.37,5.79,4.66,6.32,.85h0Z"/></g></svg>