<?xml version="1.0" encoding="UTF-8"?><svg id="coral" xmlns="http://www.w3.org/2000/svg" xmlns:xlink="http://www.w3.org/1999/xlink" viewBox="0 0 2072.73 1166.38"><defs><style>.cls-1{fill:url(#orange_2-4);}.cls-2{fill:url(#orange_2-5);}.cls-3{fill:url(#orange_2-2);}.cls-4{fill:url(#orange_2-3);}.cls-5{fill:url(#orange_2-6);}.cls-6{fill:url(#orange_2-7);}.cls-7{fill:url(#orange_2-8);}.cls-8{fill:url(#orange_2-9);}.cls-9{fill:url(#orange_2);}.cls-10{fill:url(#orange_2-81);}.cls-11{fill:url(#orange_2-80);}.cls-12{fill:url(#orange_2-78);}.cls-13{fill:url(#orange_2-79);}.cls-14{fill:url(#orange_2-73);}.cls-15{fill:url(#orange_2-70);}.cls-16{fill:url(#orange_2-71);}.cls-17{fill:url(#orange_2-76);}.cls-18{fill:url(#orange_2-77);}.cls-19{fill:url(#orange_2-74);}.cls-20{fill:url(#orange_2-75);}.cls-21{fill:url(#orange_2-72);}.cls-22{fill:url(#orange_2-26);}.cls-23{fill:url(#orange_2-25);}.cls-24{fill:url(#orange_2-24);}.cls-25{fill:url(#orange_2-22);}.cls-26{fill:url(#orange_2-21);}.cls-27{fill:url(#orange_2-27);}.cls-28{fill:url(#orange_2-20);}.cls-29{fill:url(#orange_2-17);}.cls-30{fill:url(#orange_2-19);}.cls-31{fill:url(#orange_2-16);}.cls-32{fill:url(#orange_2-23);}.cls-33{fill:url(#orange_2-28);}.cls-34{fill:url(#orange_2-29);}.cls-35{fill:url(#orange_2-14);}.cls-36{fill:url(#orange_2-11);}.cls-37{fill:url(#orange_2-13);}.cls-38{fill:url(#orange_2-15);}.cls-39{fill:url(#orange_2-12);}.cls-40{fill:url(#orange_2-10);}.cls-41{fill:url(#orange_2-18);}.cls-42{fill:url(#orange_2-67);}.cls-43{fill:url(#orange_2-60);}.cls-44{fill:url(#orange_2-66);}.cls-45{fill:url(#orange_2-65);}.cls-46{fill:url(#orange_2-68);}.cls-47{fill:url(#orange_2-64);}.cls-48{fill:url(#orange_2-63);}.cls-49{fill:url(#orange_2-62);}.cls-50{fill:url(#orange_2-61);}.cls-51{fill:url(#orange_2-69);}.cls-52{fill:url(#orange_2-53);}.cls-53{fill:url(#orange_2-54);}.cls-54{fill:url(#orange_2-55);}.cls-55{fill:url(#orange_2-52);}.cls-56{fill:url(#orange_2-56);}.cls-57{fill:url(#orange_2-57);}.cls-58{fill:url(#orange_2-58);}.cls-59{fill:url(#orange_2-59);}.cls-60{fill:url(#orange_2-50);}.cls-61{fill:url(#orange_2-51);}.cls-62{fill:url(#orange_2-45);}.cls-63{fill:url(#orange_2-47);}.cls-64{fill:url(#orange_2-40);}.cls-65{fill:url(#orange_2-42);}.cls-66{fill:url(#orange_2-43);}.cls-67{fill:url(#orange_2-46);}.cls-68{fill:url(#orange_2-44);}.cls-69{fill:url(#orange_2-49);}.cls-70{fill:url(#orange_2-48);}.cls-71{fill:url(#orange_2-41);}.cls-72{fill:url(#orange_2-34);}.cls-73{fill:url(#orange_2-39);}.cls-74{fill:url(#orange_2-37);}.cls-75{fill:url(#orange_2-31);}.cls-76{fill:url(#orange_2-32);}.cls-77{fill:url(#orange_2-35);}.cls-78{fill:url(#orange_2-36);}.cls-79{fill:url(#orange_2-33);}.cls-80{fill:url(#orange_2-38);}.cls-81{fill:url(#orange_2-30);}</style><linearGradient id="orange_2" x1="138.96" y1="264.77" x2="251.06" y2="264.77" gradientUnits="userSpaceOnUse"><stop offset="0" stop-color="#f3b69d"/><stop offset=".17" stop-color="#f1af93"/><stop offset=".47" stop-color="#ef9c7a"/><stop offset=".83" stop-color="#ea7d51"/><stop offset=".99" stop-color="#e86f3d"/></linearGradient><linearGradient id="orange_2-2" x1="233.3" y1="334.83" x2="295.8" y2="334.83" xlink:href="#orange_2"/><linearGradient id="orange_2-3" x1="119.38" y1="180.51" x2="145.17" y2="180.51" xlink:href="#orange_2"/><linearGradient id="orange_2-4" x1="138.66" y1="166.46" x2="153.13" y2="166.46" xlink:href="#orange_2"/><linearGradient id="orange_2-5" x1="156.82" y1="182.73" x2="179.12" y2="182.73" xlink:href="#orange_2"/><linearGradient id="orange_2-6" x1="170.54" y1="173.01" x2="193.7" y2="173.01" xlink:href="#orange_2"/><linearGradient id="orange_2-7" x1="133.58" y1="200.44" x2="158.65" y2="200.44" xlink:href="#orange_2"/><linearGradient id="orange_2-8" x1="100.43" y1="228.98" x2="185.09" y2="228.98" xlink:href="#orange_2"/><linearGradient id="orange_2-9" x1="112.11" y1="210.35" x2="133.87" y2="210.35" xlink:href="#orange_2"/><linearGradient id="orange_2-10" x1="144.39" y1="221.27" x2="157.46" y2="221.27" xlink:href="#orange_2"/><linearGradient id="orange_2-11" x1="114.85" y1="235.41" x2="134.8" y2="235.41" xlink:href="#orange_2"/><linearGradient id="orange_2-12" x1="139.62" y1="240.74" x2="154.42" y2="240.74" xlink:href="#orange_2"/><linearGradient id="orange_2-13" x1="155.35" y1="252.67" x2="196.91" y2="252.67" xlink:href="#orange_2"/><linearGradient id="orange_2-14" x1="165.36" y1="263.74" x2="179.3" y2="263.74" xlink:href="#orange_2"/><linearGradient id="orange_2-15" x1="179.05" y1="266.4" x2="213.67" y2="266.4" xlink:href="#orange_2"/><linearGradient id="orange_2-16" x1="167.42" y1="305.56" x2="232.87" y2="305.56" xlink:href="#orange_2"/><linearGradient id="orange_2-17" x1="185.12" y1="311.48" x2="212.14" y2="311.48" xlink:href="#orange_2"/><linearGradient id="orange_2-18" x1="211.63" y1="313.33" x2="226.56" y2="313.33" xlink:href="#orange_2"/><linearGradient id="orange_2-19" x1="101.25" y1="305.27" x2="190.45" y2="305.27" xlink:href="#orange_2"/><linearGradient id="orange_2-20" x1="119.87" y1="320.59" x2="135.19" y2="320.59" xlink:href="#orange_2"/><linearGradient id="orange_2-21" x1="145.06" y1="316.26" x2="157.23" y2="316.26" xlink:href="#orange_2"/><linearGradient id="orange_2-22" x1="105.52" y1="296.21" x2="134.78" y2="296.21" xlink:href="#orange_2"/><linearGradient id="orange_2-23" x1="133.5" y1="295.42" x2="168.91" y2="295.42" xlink:href="#orange_2"/><linearGradient id="orange_2-24" x1="108.94" y1="280.51" x2="172.51" y2="280.51" xlink:href="#orange_2"/><linearGradient id="orange_2-25" x1="124.23" y1="260.15" x2="141.86" y2="260.15" xlink:href="#orange_2"/><linearGradient id="orange_2-26" x1="195.92" y1="288.48" x2="233.54" y2="288.48" xlink:href="#orange_2"/><linearGradient id="orange_2-27" x1="189.18" y1="224.34" x2="208" y2="224.34" xlink:href="#orange_2"/><linearGradient id="orange_2-28" x1="209.23" y1="256.36" x2="228.31" y2="256.36" xlink:href="#orange_2"/><linearGradient id="orange_2-29" x1="208.56" y1="255.67" x2="248.67" y2="255.67" xlink:href="#orange_2"/><linearGradient id="orange_2-30" x1="186.31" y1="216.7" x2="240.96" y2="216.7" xlink:href="#orange_2"/><linearGradient id="orange_2-31" x1="204.42" y1="189.96" x2="218.39" y2="189.96" xlink:href="#orange_2"/><linearGradient id="orange_2-32" x1="199.41" y1="186.62" x2="236.77" y2="186.62" xlink:href="#orange_2"/><linearGradient id="orange_2-33" x1="155.38" y1="142.36" x2="219.95" y2="142.36" xlink:href="#orange_2"/><linearGradient id="orange_2-34" x1="178.44" y1="121.75" x2="193.15" y2="121.75" xlink:href="#orange_2"/><linearGradient id="orange_2-35" x1="172.6" y1="148.98" x2="193.78" y2="148.98" xlink:href="#orange_2"/><linearGradient id="orange_2-36" x1="204.83" y1="144.94" x2="217.84" y2="144.94" xlink:href="#orange_2"/><linearGradient id="orange_2-37" x1="198.51" y1="128.26" x2="231.35" y2="128.26" xlink:href="#orange_2"/><linearGradient id="orange_2-38" x1="216.44" y1="107.06" x2="233.22" y2="107.06" xlink:href="#orange_2"/><linearGradient id="orange_2-39" x1="221.56" y1="127.92" x2="245.99" y2="127.92" xlink:href="#orange_2"/><linearGradient id="orange_2-40" x1="224.36" y1="148.24" x2="230.8" y2="148.24" xlink:href="#orange_2"/><linearGradient id="orange_2-41" x1="224.76" y1="126.28" x2="268.97" y2="126.28" xlink:href="#orange_2"/><linearGradient id="orange_2-42" x1="260.1" y1="113.98" x2="285.79" y2="113.98" xlink:href="#orange_2"/><linearGradient id="orange_2-43" x1="243.19" y1="144.45" x2="280.98" y2="144.45" xlink:href="#orange_2"/><linearGradient id="orange_2-44" x1="228.12" y1="182.77" x2="297.42" y2="182.77" xlink:href="#orange_2"/><linearGradient id="orange_2-45" x1="262.12" y1="162.37" x2="274.7" y2="162.37" xlink:href="#orange_2"/><linearGradient id="orange_2-46" x1="244.5" y1="185.71" x2="261.44" y2="185.71" xlink:href="#orange_2"/><linearGradient id="orange_2-47" x1="239.01" y1="232.41" x2="276.12" y2="232.41" xlink:href="#orange_2"/><linearGradient id="orange_2-48" x1="245.31" y1="257.37" x2="291.16" y2="257.37" xlink:href="#orange_2"/><linearGradient id="orange_2-49" x1="279.12" y1="222.29" x2="297.91" y2="222.29" xlink:href="#orange_2"/><linearGradient id="orange_2-50" x1="284.32" y1="197.33" x2="299.36" y2="197.33" xlink:href="#orange_2"/><linearGradient id="orange_2-51" x1="286.34" y1="167.18" x2="319.35" y2="167.18" xlink:href="#orange_2"/><linearGradient id="orange_2-52" x1="308.75" y1="126.79" x2="326.16" y2="126.79" xlink:href="#orange_2"/><linearGradient id="orange_2-53" x1="311.92" y1="114.78" x2="345.31" y2="114.78" xlink:href="#orange_2"/><linearGradient id="orange_2-54" x1="308.84" y1="149.05" x2="355.2" y2="149.05" xlink:href="#orange_2"/><linearGradient id="orange_2-55" x1="331.97" y1="145" x2="363.63" y2="145" xlink:href="#orange_2"/><linearGradient id="orange_2-56" x1="307.2" y1="181.78" x2="337.96" y2="181.78" xlink:href="#orange_2"/><linearGradient id="orange_2-57" x1="305.01" y1="194.36" x2="407.1" y2="194.36" xlink:href="#orange_2"/><linearGradient id="orange_2-58" x1="358.74" y1="176.59" x2="373.47" y2="176.59" xlink:href="#orange_2"/><linearGradient id="orange_2-59" x1="339.59" y1="185.1" x2="353.92" y2="185.1" xlink:href="#orange_2"/><linearGradient id="orange_2-60" x1="332.88" y1="211.04" x2="363.07" y2="211.04" xlink:href="#orange_2"/><linearGradient id="orange_2-61" x1="362.79" y1="198.19" x2="391.41" y2="198.19" xlink:href="#orange_2"/><linearGradient id="orange_2-62" x1="269.45" y1="248.82" x2="329.74" y2="248.82" xlink:href="#orange_2"/><linearGradient id="orange_2-63" x1="264.94" y1="258.68" x2="350.45" y2="258.68" xlink:href="#orange_2"/><linearGradient id="orange_2-64" x1="314.15" y1="236.99" x2="328.18" y2="236.99" xlink:href="#orange_2"/><linearGradient id="orange_2-65" x1="304.12" y1="259.61" x2="319.41" y2="259.61" xlink:href="#orange_2"/><linearGradient id="orange_2-66" x1="316.69" y1="259.27" x2="340.92" y2="259.27" xlink:href="#orange_2"/><linearGradient id="orange_2-67" x1="296.77" y1="253.82" x2="388.26" y2="253.82" xlink:href="#orange_2"/><linearGradient id="orange_2-68" x1="363.62" y1="225.05" x2="376.97" y2="225.05" xlink:href="#orange_2"/><linearGradient id="orange_2-69" x1="349.47" y1="248.97" x2="364.33" y2="248.97" xlink:href="#orange_2"/><linearGradient id="orange_2-70" x1="358.75" y1="251.75" x2="383.31" y2="251.75" xlink:href="#orange_2"/><linearGradient id="orange_2-71" x1="332.88" y1="252.4" x2="410.5" y2="252.4" xlink:href="#orange_2"/><linearGradient id="orange_2-72" x1="389.77" y1="257.6" x2="420.64" y2="257.6" xlink:href="#orange_2"/><linearGradient id="orange_2-73" x1="379.88" y1="280.55" x2="410.75" y2="280.55" xlink:href="#orange_2"/><linearGradient id="orange_2-74" x1="320.62" y1="293.34" x2="364.96" y2="293.34" xlink:href="#orange_2"/><linearGradient id="orange_2-75" x1="337.54" y1="288.38" x2="385.2" y2="288.38" xlink:href="#orange_2"/><linearGradient id="orange_2-76" x1="269.67" y1="302.9" x2="346.06" y2="302.9" xlink:href="#orange_2"/><linearGradient id="orange_2-77" x1="314.54" y1="316.94" x2="359.49" y2="316.94" xlink:href="#orange_2"/><linearGradient id="orange_2-78" x1="330.87" y1="325.15" x2="386.75" y2="325.15" xlink:href="#orange_2"/><linearGradient id="orange_2-79" x1="352.76" y1="338.69" x2="375.36" y2="338.69" xlink:href="#orange_2"/><linearGradient id="orange_2-80" x1="311.87" y1="326.5" x2="332.31" y2="326.5" xlink:href="#orange_2"/><linearGradient id="orange_2-81" x1="225.64" y1="259.91" x2="276.55" y2="259.91" xlink:href="#orange_2"/></defs><path class="cls-9" d="M139.03,178.1c2.59,13.85,12.92,24.51,21.97,34.76,11.51,13.03,22.65,26.36,33.44,39.98,10.67,13.46,20.42,27.76,28.64,42.86,4.64,8.54,7.94,17.54,10.41,26.91,2.36,8.97,.48,17.64,.2,26.66-.27,8.71,12.27,9.9,14.74,2,10.39-33.24-12.12-67.73-30.52-93.59-21.48-30.2-46.78-56.73-72.21-83.47-2.95-3.1-7.36,.18-6.67,3.89h0Z"/><path class="cls-3" d="M237.82,352.66c-17.93,16.13,22.76,30.3,29.8,8.79,3.07-9.37-.89-20.66-1.78-30.21-.47-5.03-1.01-10.96,1.08-15.71,4.41-10.02,12.77,5.64,14.66,9.05,2.72,4.9,10.32,4.9,13.04,0,4.31-7.8-4.12-19.12-10.44-23.25-9.23-6.03-20.68-5.5-28.22,2.96-6.35,7.13-6.11,18.07-5.39,26.95,.38,4.73,1.02,9.47,1.72,14.17,.4,2.69,1.04,5.32,1.34,8.03,.53,4.82-9.36,6.66-9.49,1.85-.09-3.32-3.92-4.78-6.33-2.62h0Z"/><path class="cls-4" d="M143.48,178.87c-4.1-3.01-9.42-4.43-14.26-6.1-9.68-3.34-14.22,13.05-4.22,15.3,6.12,1.37,13.39,.58,18.47-3.11,2.26-1.64,2.24-4.44,0-6.09h0Z"/><path class="cls-1" d="M148.71,181.48c4.85-6.31,4.44-17.5,4.39-25.09-.06-9.31-14.42-9.31-14.44,0,0,3.92,.44,7.86,.64,11.78,.21,4.03,.22,8.48,1.62,12.29,1.35,3.69,5.5,3.99,7.78,1.02h0Z"/><path class="cls-2" d="M174.23,211.12c4.34-7.37,5.02-14.85,4.87-23.29-.18-9.92-6.42-17.73-6.57-27.3-.19-11.38-17.89-9.3-15.49,2.1,1.62,7.68,8.41,12.72,10.24,20.6,1.98,8.52,1.32,17.77,1.64,26.46,.1,2.79,3.84,3.95,5.31,1.44h0Z"/><path class="cls-5" d="M176.46,185.32c2.55-1.23,4.81-3.44,7.19-5.01,2.88-1.9,5.63-4,7.81-6.68,2.69-3.32,3.26-7.85,0-11.11-3.54-3.53-9.85-2.84-12.34,1.59-1.55,2.76-3.21,5.46-4.74,8.23-1.66,3.01-3.7,6.06-3.85,9.58-.14,3.19,3.39,4.62,5.92,3.39h0Z"/><path class="cls-6" d="M154.01,195.66c.79,.1-1.41-.34-1.49-.36-.74-.27-.85-.31-.32-.09-.75-.37-1.53-.71-2.31-1.01-2.08-.74-4.25-1.1-6.44-1.41-4.2-.58-8.35,.96-9.58,5.44-1.41,5.12,2.51,9.54,7.51,9.86,5.89,.37,13.17,.28,16.6-5.51,1.94-3.28-.65-6.53-3.97-6.92h0Z"/><path class="cls-7" d="M183.9,233.82c-5.53-4.19-11.42-4.78-18.18-5.95-7.76-1.35-15.06-4.18-22.48-6.71-12.19-4.14-27.86-7.4-39.83-1.71-4.8,2.28-3.42,9.94,1.45,11.11,6.53,1.57,12.66,.72,19.34,1.05,8.25,.41,16.39,3.85,24.23,6.13,10.73,3.12,25.49,6.62,35.46,.34,1.7-1.07,1.46-3.15,0-4.26h0Z"/><path class="cls-8" d="M133.86,223.19c.29-10.22-3.11-19.97-11.11-26.78-4.86-4.14-13.86,1.5-9.47,7.31,5.2,6.87,12.33,11.81,15.45,20.17,1.01,2.7,5.05,2.37,5.13-.7h0Z"/><path class="cls-40" d="M151.88,233.41c.06,0,.12,0,.18,0,1.25,0,2.47-.67,3.09-1.77,3.3-5.82,3.34-15.9-1.73-20.86-4.17-4.08-9.71,.19-8.97,5.22,.24,1.67,1.15,3.08,1.72,4.65,.68,1.87,.98,3.85,1.45,5.78,.59,2.44,.75,7.01,4.25,7h0Z"/><path class="cls-36" d="M132.35,222.7c-5.16-3.38-10.19,1.88-13.04,5.6-3.13,4.09-5.26,11.08-4.17,16.1,1.31,5.99,9.3,6.19,12.27,1.61,2.14-3.3,2.97-7.73,4.69-11.31,1.77-3.69,4.95-8.92,.25-12h0Z"/><path class="cls-39" d="M147.73,227.55c-3.68,1.12-4.7,5.81-6.04,9.04-1.8,4.29-2.7,8.52-1.57,13.13,.65,2.65,3.15,4.28,5.77,4.39,1.72,.07,3.02-.59,4.23-1.75,1.54-1.48,2.07-3.79,1.54-5.82-1.18-4.49,3.17-9.02,2.72-13.75-.23-2.38-1.48-4.54-3.95-5.18-.89-.23-1.8-.32-2.7-.05h0Z"/><path class="cls-37" d="M189.61,242.15c-2.97,3.53-1.74,7.59-7.56,7.97-5.89,.39-11.15-1.56-16.18-4.35-6.67-3.7-14.35,5.48-8.34,10.81,7.25,6.45,18.99,8.57,28.26,6.53,4.79-1.06,8.77-4.15,10.58-8.72,1.44-3.64,0-10.95-3.88-12.6-.93-.4-2.14-.51-2.88,.37h0Z"/><path class="cls-35" d="M173.03,255.32c-2.71,2.66-4.85,5.5-6.84,8.73-1.73,2.8-.62,6.62,2.16,8.25,3.61,2.11,7.5-.02,8.86-3.6,1.34-3.53,1.69-7.06,2.07-10.79,.33-3.32-4.15-4.65-6.25-2.59h0Z"/><path class="cls-38" d="M183.4,263.82c4.86,.31,8.86,.42,13.17,2.92,1.52,.88,3.06,1.88,4.38,3.03,1.06,.92,.28,.23,.05-.44,.14-1.15,.28-2.3,.43-3.46,1.6-1.39,1.92-1.77,.97-1.14,1.01-.64-1.32,.25-1.94,.36,1.22-.21-1.05,.01-1.05,.01-.73,.03-1.43,.08-2.16,.17-2.63,.31-5.34,.49-7.89,1.2-9.1,2.57-4.85,17.23,3.87,14.02,7.34-2.71,19.45-2.3,20.42-12.46,.59-6.18-7.3-10.76-11.73-13.1-7.59-4.01-16.61-4.95-22.15,2.53-2.06,2.78,.79,6.18,3.65,6.36h0Z"/><path class="cls-31" d="M232.23,304.58c-3.33-3.87-9.86-5.47-14.55-7.24-7.2-2.73-14.62-6.67-22.47-6.97-14.09-.55-24.64,7.99-27.58,21.77-1.91,8.94,10.47,12.21,13.56,3.73,5.75-15.81,17.1-10.62,29.7-6.37,6.19,2.09,17.67,4.43,21.7-2.28,.53-.89,.3-1.9-.34-2.64h0Z"/><path class="cls-29" d="M200.69,300.49c.18,3.42,.39,5.91-1.45,8.9-1.58,2.58-4.98,4.58-7.96,4.9-9.37,1.01-7.46,14.61,1.72,12.69,12.14-2.53,25.63-18.08,15.68-29.8-2.63-3.09-8.2-.62-7.99,3.31h0Z"/><path class="cls-41" d="M212.16,307.67c1.23,2.13,3,5.43,2.55,7.97-.49,2.78-.95,5.34,1.22,7.6,1.9,1.98,4.79,2.31,7.16,.93,4.19-2.46,3.87-8.68,2.66-12.7-1.28-4.28-4.4-7.06-8.12-9.28-3.48-2.08-7.47,2.02-5.48,5.48h0Z"/><path class="cls-30" d="M187.75,289.09c-8.02-2.3-18.43,.75-24.85,5.79-8.64,6.78-16.35,4.84-26.75,4.31-11.78-.6-37.67-.54-34.66,17.56,.79,4.74,7.22,6.9,11.02,4.49,5.6-3.56,8-5.1,15.19-5.36,7.94-.28,15.89,.66,23.82,.82,6.51,.13,12.27-1.73,17.42-5.75,4.12-3.21,7.79-6.91,12.13-9.81,3.76-2.51,6.43-2.73,8.85-6.67,1.26-2.03,.04-4.73-2.18-5.37h0Z"/><path class="cls-28" d="M122.47,310.25c-.08,2.86,.69,5.68,.27,8.54-.55,3.74-2.9,6.75-2.87,10.59,.03,4.04,4.98,7.59,8.65,4.96,8.18-5.87,9.45-22.08,.39-27.79-2.83-1.78-6.35,.57-6.43,3.69h0Z"/><path class="cls-26" d="M146.4,310.61c.84,3.16,.13,5.2-1.04,8.18-1.19,3.04,1.28,6.56,4.18,7.36,2.92,.8,6.79-.96,7.36-4.18,1.04-5.84-.27-11.84-5.43-15.26-2.6-1.72-5.82,1.1-5.07,3.9h0Z"/><path class="cls-25" d="M128.53,309.69c3.68,.77,6.63-2.85,6.21-6.38-.46-3.86-2.49-6.97-5.17-9.7-2.7-2.76-5.92-5.08-9.11-7.21-3.01-2.01-6.63-4.55-10.39-3.54-3.84,1.03-5.8,5.71-3.72,9.14,1.11,1.84,2.47,2.63,4.42,3.38-1.59-.61,.19,.11,.42,.21,.59,.27,1.16,.57,1.74,.87,2.49,1.28,4.88,2.76,7.17,4.38,1.51,1.07,3.92,3.2,4.6,4.13,.08,.11,.95,2.09,.75,1.41,.43,1.43,1.52,2.98,3.08,3.31h0Z"/><path class="cls-32" d="M134.65,290.06c7.89,9.8,15.98,23.47,30.64,16.18,2.03-1.01,3.89-3.95,3.59-6.26-.26-2.01-.52-3.7-2.12-5.12-1.83-1.63-4.59-2.79-7.05-1.87-4.03,1.5-5.35-.62-8.46-3.8-3.51-3.59-8.33-6.7-13.47-6.66-4.15,.03-5.44,4.65-3.12,7.53h0Z"/><path class="cls-24" d="M171.6,297.25c3.89-11.01-5.46-22.04-13.96-27.95-5.28-3.67-10.56-5.06-16.97-5.33-8.34-.36-14.88-.09-22.99-2.35-5.59-1.56-11.06,4.92-7.72,10.05,6.01,9.22,16.97,8.63,26.83,7.19,11.1-1.62,24.83,7.35,28.41,18.38,1.05,3.23,5.32,3.1,6.41,0h0Z"/><path class="cls-23" d="M140.32,270.98c3.67-7.1,.36-16.78-5.39-21.83-2.56-2.25-6.33-2.53-8.87,0-2.3,2.3-2.57,6.61,0,8.86,3.91,3.43,4.88,8.63,7.37,12.97,1.43,2.51,5.5,2.69,6.89,0h0Z"/><path class="cls-22" d="M196.78,299.5c7.01,7.93,21.42,8.83,30.3,3.81,6.29-3.56,7.43-11.46,5.76-17.86-1.21-4.59-6.79-14.05-11.83-14.83-2.69-.42-4.51,.67-5.55,3.15-1.49,3.55,1.52,8.15,2.93,11.4,.88,2.01,2.9,6.32,.82,7.11-3.24,1.23-6.67,1.19-10.07,1.33-3.25,.14-6.75,.49-9.98,.12-3.18-.36-4.12,3.8-2.39,5.76h0Z"/><path class="cls-27" d="M193.71,237.79c3.83-.55,7.29-6.01,9.49-8.83,1.46-1.87,2.52-3.9,3.46-6.07,1.46-3.34,1.94-5.69,.38-9.15-1.75-3.88-6.82-3.47-9.55-1.23-2.02,1.65-2.37,3.96-3.21,6.27-.73,2.03-1.76,3.98-2.54,6-1.38,3.58-3.65,7.62-1.95,11.4,.69,1.52,2.48,1.8,3.92,1.6h0Z"/><path class="cls-33" d="M213.05,267.28c4.12,.27,8.22-1.19,11.07-4.21,3.09-3.29,5.14-8.89,3.76-13.34-1.69-5.45-10.27-6.07-11.63,0-.32,1.42-.3,2.78-.39,4.21,.07-1.15-.22,.74-.24,.82-.16,.58-.31,1.16-.5,1.73,.31-.94-.44,.68-.47,.72,.06-.1-1,1.36-.53,.81-.57,.67-1.28,1.19-2.11,1.51-4.11,1.61-3.55,7.44,1.05,7.74h0Z"/><path class="cls-34" d="M229.93,292.18c14.43,1.04,18.1-15.43,18.68-26.75,.4-7.72-1.54-14.97-4.51-22-4.73-11.21-16.72-12.19-23.11-21.32-4.81-6.86-15.86-.74-11.4,6.67,6.94,11.52,20.74,13.01,24.96,26.84,3.04,9.97,.53,23.99-6.71,31.53-1.86,1.94-.44,4.84,2.08,5.03h0Z"/><path class="cls-81" d="M237.79,241.53c7.01-11.36,1.29-22.94-6.22-32.48-3.81-4.85-8.67-8.46-14.11-11.23-6.45-3.29-13.88-3.21-20.35-6.25-8.21-3.86-15.4,8.34-7.14,12.22,4.14,1.94,8.12,3.17,12.66,3.76,5.51,.72,11.43,.13,15.96,3.78,8.72,7.02,14.14,18.03,15.22,29.12,.2,2.05,2.8,2.99,3.98,1.08h0Z"/><path class="cls-75" d="M212.52,202.83c3.39-1.34,4.91-5.95,5.5-9.29,.79-4.5,.43-9.76-2.26-13.62-4.62-6.6-13.88-1-10.66,6.24,1.23,2.76,2.25,5.43,2.9,8.42,.54,2.51,.65,5.7,2.36,7.68,.47,.54,1.49,.84,2.17,.57h0Z"/><path class="cls-76" d="M233.56,213.58c2.81-13.93,6.04-32.87-1.2-45.99-6.01-10.89-17.04-12.44-28.01-8.12-8.59,3.38-5.14,17.26,3.89,14.11,2.75-.96,5.49-1.91,8.27-2.75,5.24-1.59,6.61,7.02,7.48,10.49,2.68,10.72-.93,21.66,3.07,32.26,1.07,2.84,5.78,3.57,6.51,0h0Z"/><path class="cls-79" d="M219.12,158.21c-12.92-16.66-33.24-37.2-55.98-37.23-10.36-.02-10.34,15.84,0,16.05,21.67,.45,33.58,17.72,52.01,26.32,3.51,1.64,6.25-2.21,3.97-5.14h0Z"/><path class="cls-72" d="M189.57,133.76c-.89-6.49,1.76-13.15,3.33-19.37,2.26-8.96-11.85-12.73-13.74-3.79-.93,4.39-.89,8.67-.3,13.11,.57,4.33,2.89,8.64,4.72,12.58,1.7,3.69,6.45,.8,5.99-2.53h0Z"/><path class="cls-77" d="M192.94,144.38c-3.97-4.55-12.12-3.38-16.86-.85-3.4,1.81-4.43,6.45-2.54,9.69,2.37,4.05,7.79,4.51,11.12,1.43,1.19-1.1,2.71-2.48,3.56-3.06,1.35-.93,2.91-1.92,4.11-2.5,1.85-.89,1.78-3.36,.61-4.71h0Z"/><path class="cls-78" d="M217.82,157.9c-.48-4.45-1.25-8.88-1.65-13.35-.41-4.71,1.05-10.58-2.7-14.1-1.75-1.64-4.37-1.66-6.11,0-4.02,3.82-2.23,10.56-1.51,15.5,.78,5.4,2.76,10.47,7.02,13.99,1.7,1.41,5.24,.74,4.94-2.05h0Z"/><path class="cls-74" d="M217.55,163.27c12.58,4.63,13.9-14.96,13.8-22.61-.09-6.47-1.23-12.36-3.93-18.23-4.23-9.18-13.06-14.61-15.13-24.92-1.54-7.66-14.71-5.97-13.71,1.86,1.47,11.47,8.34,17.74,16.21,25.56,6.23,6.18,10.87,27.54,2.09,33.14-2.18,1.39-1.62,4.36,.68,5.2h0Z"/><path class="cls-80" d="M223.57,122.43c3.26-9.3,10.08-17.15,9.63-27.57-.33-7.6-11.41-7.59-11.78,0-.48,9.78-6.46,17.46-4.63,27.57,.67,3.7,5.73,2.99,6.78,0h0Z"/><path class="cls-73" d="M228.11,139.36c.65-1.53,.97-3.04,1.91-4.42,1-1.49,2.15-2.47,3.47-3.68,2.54-2.32,6.46-3.59,9.56-4.95,3.01-1.32,3.68-5.66,2.16-8.25-1.8-3.08-5.24-3.48-8.25-2.16-4.57,2-10.11,4.76-12.88,9.12-2.64,4.16-3.75,10.11-.56,14.34,1.04,1.38,3.72,2.05,4.59,0h0Z"/><path class="cls-64" d="M229.9,147.28c-.73-.22-1.46-.33-2.22-.4-.8-.09-1.42-.29-2.26-.16-1.41,.23-1.41,2.6,0,2.84,.57,.09,1.05-.07,1.49-.09,.77-.04,1.57,.07,2.31,.27,1.6,.44,2.26-1.99,.68-2.47h0Z"/><path class="cls-71" d="M225.91,147.82c-5.62,14.41,10.63,24.99,21.2,13.48,6.41-6.98,10.39-17.71,14.27-26.21,2.78-6.1,4.5-12.32,5.4-18.95,.85-6.21-2.14-14.13,1.2-19.79,4.41-7.45-7.17-14.18-11.57-6.76-6.26,10.57-1.95,24.53-5.19,36.28-1.96,7.09-5.61,14.03-8.71,20.72-1.4,3.04-3.03,5.97-5.19,8.53-2.46,2.92-6.31-7.13-6.37-7.32-.88-2.56-4.1-2.4-5.04,0h0Z"/><path class="cls-65" d="M262.15,122.69c7.92,4.88,18.65-2.45,22.81-9.24,3.17-5.17-3.41-12.58-8.71-8.71-4.62,3.37-7.69,7.97-13.1,10.22-3.26,1.36-4.4,5.63-1.01,7.73h0Z"/><path class="cls-66" d="M249.33,159.43c5.43-2.79,10.33-6.68,15.72-9.63,5.7-3.12,11.09-6.39,14.89-11.78,3.72-5.27-3.34-11.17-8.38-8.38-5.53,3.07-10.85,6.7-16.04,10.31-5.18,3.61-11.18,8.16-12.27,14.81-.58,3.57,2.64,6.43,6.07,4.66h0Z"/><path class="cls-68" d="M256.64,166.71c-2.97-11.75-19.45-6.04-24.69,.61-7.49,9.51-2.62,31.08,3.11,40.48,6.81,11.17,17.74,6.29,24.29-2.5,5.04-6.76,8.08-14.5,11.6-22.1,4.91-10.6,11.09-16.18,22.17-19.73,7.55-2.41,4.36-14.26-3.28-11.9-8.89,2.74-16.26,5.36-22.76,12.3-6.36,6.79-9.38,16.31-13.19,24.61-1.77,3.87-3.9,7.47-6.65,10.72-2.36,2.59-2.76,2.74-1.21,.48-1-2.88-1.84-5.84-2.78-8.74-1.58-4.91-3.01-10.09-2.18-15.29,.95-5.9,9.41-3.58,13.07-4.56,1.9-.51,2.96-2.51,2.49-4.38h0Z"/><path class="cls-62" d="M274.55,169.8c.4-2.07-.07-4.05-.62-6.04-.52-1.91-.47-3.92-.39-5.88,.13-3.11-2.69-5.7-5.7-5.7-2.85,0-6.04,2.61-5.7,5.7,.52,4.74,1.69,13.66,7.67,14.61,1.94,.31,4.3-.47,4.73-2.69h0Z"/><path class="cls-67" d="M260.13,187.45c-.4-.44-.84-.89-1.28-1.29-.14-.12-1.07-1.2-.34-.25-.3-.39-.55-.81-.81-1.24-.54-.88-.95-1.85-1.39-2.78,.55,1.16-.06-.29-.12-.48-.14-.44-.23-.9-.31-1.36-.55-3.14-4.34-4.86-7.18-4.08-3.29,.9-4.63,4.05-4.08,7.18,1.03,5.87,6.62,13.74,13.4,12.32,3.73-.79,4.38-5.51,2.11-8.02h0Z"/><path class="cls-63" d="M273.36,196.96c-10.43-4.06-23.07,1.99-29.11,10.57-5.95,8.46-5.23,22.56-5.18,32.47,.05,10.12,1.92,22.03,11.5,27.42,11.71,6.59,22.83-6.95,25.25-16.99,2.38-9.88-12.34-13.95-15.2-4.19-3.07,10.46-4.71,2.42-5.19-3.67-.35-4.46-.09-8.98,.16-13.44,.31-5.66,.22-11.8,3.88-16.47,4.59-5.86,12.88-2.79,16.2-10.04,1.1-2.41,.17-4.7-2.3-5.65h0Z"/><path class="cls-70" d="M248.62,264.47c-1.94,9.86-7.71,22.6,2.91,30.19,8.53,6.09,17.16,1.41,22.74-6.26,15.01-20.61,26.56-48.95,5.09-69.23-6.32-5.97-15.89,3.58-9.54,9.54,13.19,12.37,8.1,28.12-.04,41.89-2.41,4.09-4.57,8.21-7.65,11.87-5.1,6.06-7.51-13.24-8-17.25-.35-2.87-4.84-4.12-5.51-.74h0Z"/><path class="cls-69" d="M287.09,243.43c13.61-7.65,15.27-35.13-.13-41.97-5.96-2.64-11.15,5.55-5.23,8.94,5.82,3.32,8,6.77,7.93,13.61-.06,6.09-3.15,11.85-5.09,17.49-.51,1.47,1.27,2.62,2.51,1.93h0Z"/><path class="cls-60" d="M295.54,219c3.66-4.12,2.49-12.81,2.76-17.94,.21-4.05,.08-8.11,.39-12.16,.31-4.06,1.62-7.33-.59-11.11-1.65-2.81-5.31-3.74-8.12-2.13-7.18,4.1-5.61,16.31-5.31,23.33,.25,6.02,1.89,18.1,8.37,20.68,.79,.31,1.95-.04,2.5-.66h0Z"/><path class="cls-61" d="M297.08,210.04c25.13-21.32,34.6-70.32-1.73-85.64-8.83-3.73-12.96,10.94-3.99,14.47,30.05,11.82,13.92,48.4,2.44,68.64-1.22,2.15,1.52,4.03,3.28,2.53h0Z"/><path class="cls-55" d="M317.58,162.12c4.56-8.23,7.3-15.33,8.38-24.67,1.57-13.58-6.98-25.21-2.47-38.93,2.74-8.31-10.17-11.72-13.01-3.58-4.02,11.51-.35,21.07,3.58,32.1,4.35,12.2-3.34,22.76-.92,34.51,.43,2.07,3.45,2.34,4.43,.57h0Z"/><path class="cls-52" d="M312.37,109.11c-2.14,9.17,3.43,21.69,14.43,20.03,5.64-.85,9.62-4.88,12.86-9.27,2.89-3.91,7.92-12.22,4.48-16.83-1.31-1.76-3.71-3.45-6.06-2.46-3.88,1.63-4.29,3.88-5.8,7.44-1.31,3.09-3.09,5.96-5.39,8.39-4.41,4.65-7.97-3.85-9.03-7.29-.8-2.59-4.83-2.85-5.5,0h0Z"/><path class="cls-53" d="M314.28,181.52c6.99-12.23,17.11-20.5,27.41-29.73,7.88-7.06,11.97-18.4,13.43-28.57,1.15-8-10.21-11.69-12.46-3.43-3.56,13.13-7.76,20.75-17.72,30.19-8.44,8-13.8,17.95-16.04,29.29-.63,3.17,3.65,5.29,5.38,2.26h0Z"/><path class="cls-54" d="M333.97,152.78c3.4,.59,6.41-2.03,9.6-3.1,4.06-1.36,8.29-.37,12.3,.63,7.84,1.95,11.06-9.78,3.33-12.06-6.03-1.78-12.74-1.48-18.45,1.32-3.7,1.82-10.19,6.69-8.51,11.49,.27,.77,.86,1.57,1.72,1.72h0Z"/><path class="cls-56" d="M313.46,164.91c-3.88,10.39-8.64,19.59-4.9,30.85,1.44,4.34,6.49,6.76,10.61,4.17,5.2-3.28,10.56-6.65,15.47-10.35,2.43-1.84,3.95-4.4,3.08-7.56-.88-3.19-4.86-6.08-8.24-4.68-4.43,1.84-8.06,4.58-11.83,7.52-1.62,1.26-3.25,2.54-4.83,3.85-.4,.46-.87,.84-1.42,1.14,6.46,3.37,8.94,3.35,7.44-.08-2.62-8.28,4.14-16.28,.95-24.85-1.16-3.12-5.16-3.11-6.32,0h0Z"/><path class="cls-57" d="M310.17,192.73c-4.88,5.45-7.3,12.7-2.71,18.98,4.45,6.09,13.46,4.23,19.7,2.89,11.01-2.35,21.5-7.24,31.6-12.04,8.19-3.89,16.07-7.25,24.91-9.38,6.94-1.68,13.4-3.21,19.64-6.71,7.95-4.45,2.1-14.77-5.74-13.63-17.45,2.53-34.29,12.6-50.02,20.11-6.8,3.26-13.82,5.76-21.01,7.98-3.14,.97-6.27,1.66-9.55,1.89-1.38,.1-1.84-7.55-2.22-8.89-.53-1.92-3.2-2.79-4.6-1.22h0Z"/><path class="cls-58" d="M367.68,192.08c2.57-3.06,2.22-6.42,2.36-10.24,.16-4.37,.7-8.19,2.68-12.13,3.64-7.23-7-13.58-10.91-6.38-2.6,4.79-3.33,9.94-3.01,15.33,.25,4.26,.75,10.57,4.3,13.41,1.28,1.02,3.35,1.45,4.57,0h0Z"/><path class="cls-59" d="M350.09,198.72c1.42-2.99,.98-6.18,1.14-9.41,.2-3.87,1.08-7.99,2.32-11.66,2.67-7.87-10.1-11.44-12.45-3.43-2.11,7.17-3,20.92,4.12,25.77,1.5,1.03,4.08,.39,4.87-1.27h0Z"/><path class="cls-43" d="M335.55,212.03c3.79,1.43,7.67,2.38,11.54,3.59,4.13,1.29,7.74,4.26,12.2,2.85,3.31-1.04,4.74-4.62,3.12-7.67-2.32-4.4-8.66-5.73-13.21-6.92-5.07-1.32-9.82-.51-14.51,1.56-3.17,1.4-1.69,5.63,.86,6.6h0Z"/><path class="cls-50" d="M363.77,196.3c.75,.38,1.51,.77,2.26,1.15-.86-.86-1.72-1.72-2.58-2.58,.51,3.76,6.39,5.1,9.35,5.93,3.47,.98,5.12,3.06,7.52,5.54,4.62,4.77,12.49-.13,10.88-6.33-2.57-9.99-19.87-16.03-27.43-8.47-1.26,1.26-1.35,3.53,0,4.77h0Z"/><path class="cls-49" d="M324.5,204.27c-16.05-2.12-29.34,15.32-36.41,27.57-1.75,3.03-2.44,6.64-3.15,10.01-1.53,7.13-3.44,12.53-6.73,19.18-4.24,8.58-9.39,17.69-8.7,27.47,.34,4.84,6.82,7.19,9.47,2.56,3.34-5.84,4.09-11.66,5.22-18.26,1.86-10.92,5.77-20.11,13.09-28.48,5.05-5.77,8.07-12.87,13.31-18.62,5.04-5.53,11.68-8.36,17.46-12.83,3.97-3.07,.11-8.11-3.56-8.6h0Z"/><path class="cls-48" d="M266.53,290.98c13.32,6.75,32.42,6.74,44.47-3,17.46-14.11,15.49-40.5,36.16-53.13,7.69-4.7,.47-17-7.05-12.06-14.8,9.73-21.93,23.48-28.5,39.47-4.09,9.96-7.32,16.3-17.86,20.22-8.04,2.99-17.12,3.12-25.54,2.31-3.3-.32-4.54,4.74-1.68,6.19h0Z"/><path class="cls-47" d="M325.42,246.36c.84-5.16,.83-8.88,2.4-13.55,2.42-7.21-7.91-10.81-11.76-4.95-3.55,5.4-1.94,16.05,3,20.18,1.95,1.62,5.85,1.41,6.36-1.68h0Z"/><path class="cls-45" d="M318.76,267.05c-1.53-2.25-2.08-4.91-2.52-7.57-.58-3.45-.29-7.79-2.21-10.8-2.47-3.87-7.99-3.04-9.42,1.23-1.32,3.91,.29,9.49,1.48,13.33,1.25,4.02,3.62,8.75,8.14,9.7,3.17,.66,6.64-2.75,4.53-5.88h0Z"/><path class="cls-44" d="M316.8,262.87c1.22,5.76,9.15,5.56,13.46,4.32,5.42-1.55,11.77-6.52,10.48-12.73-.43-2.08-2.84-4.01-4.99-3.8-3.94,.38-6.1,3.35-9.34,5.26-2.47,1.46-5.44,1.08-7.8,2.5-1.58,.95-2.18,2.69-1.81,4.45h0Z"/><path class="cls-42" d="M300.86,288.58c20.22,.93,37.43-.23,53.96-13.02,6.94-5.37,10.19-13.48,13.18-21.4,4.54-12.03,13.58-20.13,19.83-30.99,1.41-2.45-.89-4.67-3.32-4.32-15.48,2.21-24.24,18.52-29.28,31.79-8.64,22.76-32.22,28.13-54.37,29.49-5.43,.33-5.47,8.2,0,8.45h0Z"/><path class="cls-46" d="M375.85,233.95c-.25-3.84,0-7.51,.63-11.3,.65-3.94,1.72-12.16-4.95-11.55-6.38,.59-7.17,7.69-7.75,12.76-.52,4.63,.11,10.17,3.34,13.7,2.93,3.21,9.02,.81,8.73-3.61h0Z"/><path class="cls-51" d="M363.23,253.5c-1.13-1.28-1.97-3.52-2.16-5.24-.32-2.91,.43-6.55-1.37-9.05-1.5-2.07-4.06-3.07-6.44-1.69-4.36,2.55-4.2,8.68-3.26,13.02,1.09,5.01,4.19,8.56,8.98,10.26,4.43,1.58,6.91-4.28,4.25-7.3h0Z"/><path class="cls-15" d="M359.95,257.91c6.88,6.08,22.04,.59,23.3-8.65,.48-3.52-2.05-7.13-6.01-6.01-3.27,.92-5.14,3.32-7.74,5.26-2.56,1.91-4.98,1.7-7.78,2.74-2.6,.96-4.19,4.52-1.76,6.67h0Z"/><path class="cls-16" d="M336.56,284.66c16.24-5.61,33.57,.06,49.46-8.27,17-8.91,16.45-32.07,23.9-47.2,2.34-4.76-2.93-12.05-8.12-8.12-14.77,11.16-7.58,33.22-22.54,43.74-6.2,4.35-15.86,4.57-23.06,5.58-8.5,1.19-15.01,3.75-21.98,8.71-2.63,1.87-1.13,6.75,2.34,5.56h0Z"/><path class="cls-21" d="M395.53,259.95c5.88-.87,11.69,1.59,16.23,5.06,4.61,3.52,11.32-3.37,7.98-7.98-5.85-8.07-17.79-9.47-26.69-6.05-5.67,2.17-3.44,9.85,2.48,8.97h0Z"/><path class="cls-14" d="M380.77,273.51c2.55,4.04,6.71,5.46,9.75,8.81,.61,.71,.68,.8,.21,.26,.29,.47,.6,.92,.92,1.35,.68,.97,1.22,2.05,1.74,3.11,1.41,2.85,2.28,6.15,5.73,8.34,4.42,2.8,9.46-.14,11.09-4.51,2.33-6.25-3.37-15.07-8.04-19.09-4.01-3.44-10.86-7.66-16.33-7.11-4.17,.42-7.65,4.74-5.07,8.83h0Z"/><path class="cls-19" d="M321.96,288.02c4.48,4.73,12.57,3.32,18.49,4.86,7.82,2.03,9.23,9.39,14.37,14.43,3.7,3.62,10.12,1.01,10.13-4.2,.04-9.63-8.33-19.08-16.94-22.54-6.94-2.79-20.32-5.16-26.06,.87-1.79,1.87-1.78,4.71,0,6.58h0Z"/><path class="cls-20" d="M339.02,282.97c5.1,4.52,12.33,5.99,18.72,7.9,3.2,.95,6.15,2.21,9.09,3.77,3.66,1.95,6.17,5.35,9.98,6.98,4.77,2.03,9.07-1.23,8.3-6.38-2.32-15.52-29.98-20.57-42.6-20.7-4.14-.04-6.77,5.53-3.49,8.44h0Z"/><path class="cls-17" d="M270,292.47c6.03,12.37,18.73,19.64,31.53,23.48,15.24,4.57,26.09-3.58,40.3-7.48,6.5-1.78,5.13-11.62-1.58-11.66-10.96-.06-18.45,8.77-29.04,8.99-14.18,.29-25.44-11.64-37.52-17.02-2.48-1.11-4.95,1.15-3.7,3.7h0Z"/><path class="cls-18" d="M315.43,314.82c8.98,9.92,25.83,10.76,38.34,9.25,7.62-.92,7.65-10.99,0-11.87-6.01-.69-12.12-.16-18.15-.55-6.05-.39-11.79-2.25-17.87-2.42-3-.08-4.16,3.57-2.32,5.59h0Z"/><path class="cls-12" d="M331.66,322.61c15.34,13.01,33.39,11.61,51.54,5.82,3.68-1.18,5.17-6.94,1.16-8.86-7.67-3.67-14.6-1.33-22.56,.4-9.63,2.09-18.72-1.4-28.29-1.83-2.19-.1-3.59,2.98-1.85,4.46h0Z"/><path class="cls-13" d="M354.65,327.42c-4.03,2.77-.64,9.59,1.01,12.93,2.32,4.68,7.36,8.12,12.16,9.75,7.56,2.58,10.77-9.35,3.28-11.91-3.29-1.12-5.77-3.02-8.29-5.38-1.89-1.77-4.83-7.7-8.16-5.41h0Z"/><path class="cls-11" d="M319.32,310.98s-.06-.03-.1-.04c-1.55-.58-3.75,.06-4.83,1.28-4.28,4.79-2.3,11.24,.02,16.48,2.15,4.86,5.02,11.63,10.54,13.33,2.91,.89,6.5-1.03,7.16-4.06,1.21-5.56-3.08-10.54-5.72-15.07-1.1-1.89-2.32-4.04-3.03-6.07-.89-2.53-1.2-4.8-4.03-5.86h0Z"/><path class="cls-10" d="M236.81,305.7l4.01,57.72,20.06-5.43-2.9-37.24s4.07-17.97,14.36-19.31c10.3-1.34-1.5-20.46-1.5-20.46l-16.14,8.24-9.43-38.82,1.9-35.86-10.36-22.65v-28.08l-8.47-7.43-2.7,7.43,4.89,16.21-2.19,25.89s8.48,13.08,8.47,20.64c0,7.57,0,24.77,0,24.77l5.24,23.64-10.9,18.88,5.65,11.84Z"/></svg>