<?xml version="1.0" encoding="utf-8"?>
<!-- Generator: Adobe Illustrator 27.0.1, SVG Export Plug-In . SVG Version: 6.00 Build 0)  -->
<svg version="1.1" id="coral" xmlns="http://www.w3.org/2000/svg" xmlns:xlink="http://www.w3.org/1999/xlink" x="0px" y="0px"
	 viewBox="0 0 210.8 288.2" style="enable-background:new 0 0 210.8 288.2;" xml:space="preserve">
<style type="text/css">
	.st0{fill:url(#SVGID_1_);}
	.st1{fill:url(#SVGID_00000180366157546208249090000006257425125016892589_);}
	.st2{fill:url(#SVGID_00000092414132251719815370000014599803038279471241_);}
	.st3{fill:url(#SVGID_00000061448838516814477910000017914700226644771738_);}
	.st4{fill:url(#SVGID_00000121985752544969730420000011310518449141758654_);}
	.st5{fill:url(#SVGID_00000181084288702641811250000018385686828757155213_);}
	.st6{fill:url(#SVGID_00000130647249390533663190000014249340391897239201_);}
	.st7{fill:url(#SVGID_00000057122953493127587400000007363815416743433396_);}
	.st8{fill:url(#SVGID_00000006700743739984695040000001527376593395968418_);}
</style>
<linearGradient id="SVGID_1_" gradientUnits="userSpaceOnUse" x1="29.0839" y1="806.8081" x2="107.2032" y2="806.8081" gradientTransform="matrix(1 0 0 -1 0 993.2654)">
	<stop  offset="0" style="stop-color:#98C5CC"/>
	<stop  offset="0.15" style="stop-color:#8EBEC6"/>
	<stop  offset="0.39" style="stop-color:#75ABB9"/>
	<stop  offset="0.69" style="stop-color:#4C8DA2"/>
	<stop  offset="0.99" style="stop-color:#1D6B89"/>
</linearGradient>
<path class="st0" d="M102.6,280.3c11.9-22.8-1.1-53.8-15.8-72.3c-12.3-15.5-25.6-28.6-35-46.4C41,141.2,40,120.7,46.5,98.9
	c1.9-6.5-8.2-11.4-11.1-5c-14.3,31.9-2.2,65.7,16.7,92.8c9.8,14.1,23.8,24.9,32.9,39.4c9.2,14.8,14.2,34,11.4,51.4
	C95.9,281,100.6,284,102.6,280.3L102.6,280.3L102.6,280.3z"/>
<linearGradient id="SVGID_00000094596358742011698010000001886737938730482841_" gradientUnits="userSpaceOnUse" x1="74.4186" y1="712.7471" x2="148.9153" y2="712.7471" gradientTransform="matrix(1 0 0 -1 0 993.2654)">
	<stop  offset="0" style="stop-color:#98C5CC"/>
	<stop  offset="0.15" style="stop-color:#8EBEC6"/>
	<stop  offset="0.39" style="stop-color:#75ABB9"/>
	<stop  offset="0.69" style="stop-color:#4C8DA2"/>
	<stop  offset="0.99" style="stop-color:#1D6B89"/>
</linearGradient>
<path style="fill:url(#SVGID_00000094596358742011698010000001886737938730482841_);" d="M74.8,278.3c6,8.6,20.3,9.2,29.8,9.7
	c12.8,0.7,27.2-0.1,39.7-2.9c6.9-1.5,5.7-12.6-1.4-12.3c-10.4,0.3-20.9,2.4-31.3,3.2c-11.9,1-22.6-0.5-34.2-1.9
	C75.3,273.8,73.6,276.6,74.8,278.3L74.8,278.3L74.8,278.3z"/>
<linearGradient id="SVGID_00000028320495922896471460000015013413667978558361_" gradientUnits="userSpaceOnUse" x1="79.6207" y1="835.0564" x2="117.315" y2="835.0564" gradientTransform="matrix(1 0 0 -1 0 993.2654)">
	<stop  offset="0" style="stop-color:#98C5CC"/>
	<stop  offset="0.15" style="stop-color:#8EBEC6"/>
	<stop  offset="0.39" style="stop-color:#75ABB9"/>
	<stop  offset="0.69" style="stop-color:#4C8DA2"/>
	<stop  offset="0.99" style="stop-color:#1D6B89"/>
</linearGradient>
<path style="fill:url(#SVGID_00000028320495922896471460000015013413667978558361_);" d="M103.8,286.3c17.3-34.7,14.6-80.6,10.3-118
	C108.8,123,97.9,78.5,91.9,33.3c-1.1-8-13.3-4.9-12.2,3.1c5.6,40.3,15,80,21.3,120.2c3.4,22,5.2,44.2,5,66.4
	c-0.2,21.1-5.1,40.9-8.2,61.6C97.3,287.7,102.4,289.1,103.8,286.3L103.8,286.3L103.8,286.3z"/>
<linearGradient id="SVGID_00000119806311604745211030000010656611931371973301_" gradientUnits="userSpaceOnUse" x1="106.9105" y1="837.8605" x2="194.4935" y2="837.8605" gradientTransform="matrix(1 0 0 -1 0 993.2654)">
	<stop  offset="0" style="stop-color:#98C5CC"/>
	<stop  offset="0.15" style="stop-color:#8EBEC6"/>
	<stop  offset="0.39" style="stop-color:#75ABB9"/>
	<stop  offset="0.69" style="stop-color:#4C8DA2"/>
	<stop  offset="0.99" style="stop-color:#1D6B89"/>
</linearGradient>
<path style="fill:url(#SVGID_00000119806311604745211030000010656611931371973301_);" d="M111.8,275.9c6-24.6,8.3-49.6,25.3-69.7
	c13.5-16,30.7-27.6,41.9-45.6c22.4-35.8,15.3-83.2,10.3-122.7c-1-8.3-13.7-5.1-12.6,3.2c5.5,43.7,11.5,92.3-19.7,128
	c-12.8,14.7-28.1,26.4-38,43.5c-11,19-9.4,41.5-12.1,62.5C106.6,278,111.2,278.6,111.8,275.9L111.8,275.9L111.8,275.9z"/>
<linearGradient id="SVGID_00000144316602923728547960000003166225131125819806_" gradientUnits="userSpaceOnUse" x1="0" y1="793.2697" x2="98.5773" y2="793.2697" gradientTransform="matrix(1 0 0 -1 0 993.2654)">
	<stop  offset="0" style="stop-color:#98C5CC"/>
	<stop  offset="0.15" style="stop-color:#8EBEC6"/>
	<stop  offset="0.39" style="stop-color:#75ABB9"/>
	<stop  offset="0.69" style="stop-color:#4C8DA2"/>
	<stop  offset="0.99" style="stop-color:#1D6B89"/>
</linearGradient>
<path style="fill:url(#SVGID_00000144316602923728547960000003166225131125819806_);" d="M98.4,281c-11.2-24.9-35.2-45.3-51.7-66.7
	c-21-27.2-34.7-57.2-35.1-92c-0.1-7.4-11.7-7.7-11.6-0.2c0.4,33.6,11.6,63.2,31.4,90.2c8.8,12,19.1,22.8,29.3,33.6
	c11.4,12.3,22.4,26.2,35.1,37.1C97.2,284.1,99.2,282.7,98.4,281L98.4,281L98.4,281z"/>
<linearGradient id="SVGID_00000119087824303592584720000009007117101038141594_" gradientUnits="userSpaceOnUse" x1="98.3846" y1="855.4196" x2="136.8177" y2="855.4196" gradientTransform="matrix(1 0 0 -1 0 993.2654)">
	<stop  offset="0" style="stop-color:#98C5CC"/>
	<stop  offset="0.15" style="stop-color:#8EBEC6"/>
	<stop  offset="0.39" style="stop-color:#75ABB9"/>
	<stop  offset="0.69" style="stop-color:#4C8DA2"/>
	<stop  offset="0.99" style="stop-color:#1D6B89"/>
</linearGradient>
<path style="fill:url(#SVGID_00000119087824303592584720000009007117101038141594_);" d="M106,273.8c-1-23.8,1.4-45.8,7.5-68.9
	c6.1-23,14.1-45.3,19.3-68.5c9.6-42.9,0.4-89.5-10.3-131.3c-2.2-8.5-15.5-5.2-13.3,3.4c11.9,45.6,19.2,92,8.2,138.4
	c-9.8,41.2-26.5,84.8-15.4,127.5C102.6,276.4,106.1,276.1,106,273.8L106,273.8L106,273.8z"/>
<linearGradient id="SVGID_00000176742411753243364310000006282994385785304764_" gradientUnits="userSpaceOnUse" x1="105.3109" y1="828.5328" x2="173.5708" y2="828.5328" gradientTransform="matrix(1 0 0 -1 0 993.2654)">
	<stop  offset="0" style="stop-color:#98C5CC"/>
	<stop  offset="0.15" style="stop-color:#8EBEC6"/>
	<stop  offset="0.39" style="stop-color:#75ABB9"/>
	<stop  offset="0.69" style="stop-color:#4C8DA2"/>
	<stop  offset="0.99" style="stop-color:#1D6B89"/>
</linearGradient>
<path style="fill:url(#SVGID_00000176742411753243364310000006282994385785304764_);" d="M108.8,275.3c33.2-10,46.7-55,55.5-84.3
	c6.3-21.3,9.7-42.7,9.2-64.9c-0.4-22-1.6-46.4-6.4-67.8c-1.5-6.5-10.1-4.6-10.9,1.2c-2.6,19.1,1.7,39.2,3,58.3
	c1.5,21.2-0.4,42.1-6,62.6c-4.4,16.3-9.3,32.5-16.2,47.9c-7.5,16.7-18.2,29.2-31,42.2C104.2,272.4,106,276.1,108.8,275.3
	L108.8,275.3L108.8,275.3z"/>
<linearGradient id="SVGID_00000114784806459722162740000015302819965303569326_" gradientUnits="userSpaceOnUse" x1="24.0799" y1="847.8707" x2="107.8162" y2="847.8707" gradientTransform="matrix(1 0 0 -1 0 993.2654)">
	<stop  offset="0" style="stop-color:#98C5CC"/>
	<stop  offset="0.15" style="stop-color:#8EBEC6"/>
	<stop  offset="0.39" style="stop-color:#75ABB9"/>
	<stop  offset="0.69" style="stop-color:#4C8DA2"/>
	<stop  offset="0.99" style="stop-color:#1D6B89"/>
</linearGradient>
<path style="fill:url(#SVGID_00000114784806459722162740000015302819965303569326_);" d="M107.8,264.2
	C102,182.9,82.3,98.8,39.5,28.4c-5.4-8.9-19.6-1.1-14.2,7.9c41.4,68.1,62.9,151,78.1,228.5C103.9,267.2,108,266.8,107.8,264.2
	L107.8,264.2L107.8,264.2z"/>
<linearGradient id="SVGID_00000083796372045841499320000004590280031317142440_" gradientUnits="userSpaceOnUse" x1="113.9029" y1="784.3005" x2="210.7911" y2="784.3005" gradientTransform="matrix(1 0 0 -1 0 993.2654)">
	<stop  offset="0" style="stop-color:#98C5CC"/>
	<stop  offset="0.15" style="stop-color:#8EBEC6"/>
	<stop  offset="0.39" style="stop-color:#75ABB9"/>
	<stop  offset="0.69" style="stop-color:#4C8DA2"/>
	<stop  offset="0.99" style="stop-color:#1D6B89"/>
</linearGradient>
<path style="fill:url(#SVGID_00000083796372045841499320000004590280031317142440_);" d="M120.1,279.4
	c17.9-21.1,44.4-31.9,61.4-53.5c17.8-22.7,28.9-54.1,29.3-83c0.1-5.9-8.9-7.5-10.4-1.6c-7.6,30.2-12,59.9-34.2,83.6
	c-17,18.1-41.7,26.9-52,50.9C112.7,279,117.9,282.1,120.1,279.4L120.1,279.4L120.1,279.4z"/>
</svg>
