<?xml version="1.0" encoding="utf-8"?>
<!-- Generator: Adobe Illustrator 27.0.1, SVG Export Plug-In . SVG Version: 6.00 Build 0)  -->
<svg version="1.1" id="coral" xmlns="http://www.w3.org/2000/svg" xmlns:xlink="http://www.w3.org/1999/xlink" x="0px" y="0px"
	 viewBox="0 0 306 260.4" style="enable-background:new 0 0 306 260.4;" xml:space="preserve">
<style type="text/css">
	.st0{fill:url(#SVGID_1_);}
	.st1{fill:url(#SVGID_00000089567172505468537470000000311870940404731554_);}
	.st2{fill:url(#SVGID_00000027582062772592846340000011125264261444854710_);}
	.st3{fill:url(#SVGID_00000154396595125837904070000008488281172111366845_);}
	.st4{fill:url(#SVGID_00000139251449490220069230000013118398537986222267_);}
	.st5{fill:url(#SVGID_00000119803783341182479180000012930455264251577021_);}
	.st6{fill:url(#SVGID_00000159466220242687603910000007491835743543608968_);}
	.st7{fill:url(#SVGID_00000147210726629387342960000007744747752864260778_);}
	.st8{fill:url(#SVGID_00000140733674303850378830000000914237353646555562_);}
	.st9{fill:url(#SVGID_00000139993482351417138380000000143193688539981482_);}
	.st10{fill:url(#SVGID_00000099649949333995387410000001086814126379035278_);}
	.st11{fill:url(#SVGID_00000134237707004470339170000010605295368422623146_);}
	.st12{fill:url(#SVGID_00000086667278538661287640000003295902365873122225_);}
	.st13{fill:url(#SVGID_00000137119237361653121250000014843973624978485425_);}
	.st14{fill:url(#SVGID_00000054236579964587040510000012004768082561512631_);}
	.st15{fill:url(#SVGID_00000035510938398286431170000013499920063597898679_);}
	.st16{fill:url(#SVGID_00000085226408696817837710000010887141964115433918_);}
	.st17{fill:url(#SVGID_00000170249677930129868420000010228928989064145836_);}
	.st18{fill:url(#SVGID_00000024003991335839538090000012382118013952343710_);}
	.st19{fill:url(#SVGID_00000094614570393000643850000009644674271575166907_);}
	.st20{fill:url(#SVGID_00000127731266326858204970000003051270016805775798_);}
	.st21{fill:url(#SVGID_00000090287589944495699360000017726962927759619500_);}
	.st22{fill:url(#SVGID_00000111181815104078689630000017971326197878072214_);}
	.st23{fill:url(#SVGID_00000005988613927553596710000013948357830127500987_);}
	.st24{fill:url(#SVGID_00000183940075869086312000000014640199368628275356_);}
</style>
<linearGradient id="SVGID_1_" gradientUnits="userSpaceOnUse" x1="9.9648" y1="757.7744" x2="44.6418" y2="757.7744" gradientTransform="matrix(1 0 0 -1 0 993.2468)">
	<stop  offset="0" style="stop-color:#F3B69D"/>
	<stop  offset="0.17" style="stop-color:#F1AF93"/>
	<stop  offset="0.47" style="stop-color:#EF9C7A"/>
	<stop  offset="0.83" style="stop-color:#EA7D51"/>
	<stop  offset="0.99" style="stop-color:#E86F3D"/>
</linearGradient>
<path class="st0" d="M18.5,211c-5.1-2.1-9.5,3.9-8.4,8.4c2.2,8.6,9.3,15.7,13.3,23.7c2.7,5.5,3.7,11.4,4.7,17.2h16.5
	C44.7,241.1,33.2,217.2,18.5,211L18.5,211z"/>
<linearGradient id="SVGID_00000119837205493359621470000001002830615491528355_" gradientUnits="userSpaceOnUse" x1="0" y1="823.6933" x2="65.6987" y2="823.6933" gradientTransform="matrix(1 0 0 -1 0 993.2468)">
	<stop  offset="0" style="stop-color:#F3B69D"/>
	<stop  offset="0.17" style="stop-color:#F1AF93"/>
	<stop  offset="0.47" style="stop-color:#EF9C7A"/>
	<stop  offset="0.83" style="stop-color:#EA7D51"/>
	<stop  offset="0.99" style="stop-color:#E86F3D"/>
</linearGradient>
<path style="fill:url(#SVGID_00000119837205493359621470000001002830615491528355_);" d="M52.3,200c-6.8-17.6-18.3-32.6-25.5-50
	c-8.8-21.3-7.2-41.4-9.6-63.6C16.3,78.3,3.7,75,1.9,84.4c-7.6,38.5,9,73.4,27.4,105.7c12.4,21.8,19.6,45.6,21.3,70.3h14.6
	C68.1,240.8,57.9,214.5,52.3,200L52.3,200z"/>
<linearGradient id="SVGID_00000147924087006118162830000014107720755219906965_" gradientUnits="userSpaceOnUse" x1="90.5716" y1="861.0434" x2="119.2116" y2="861.0434" gradientTransform="matrix(1 0 0 -1 0 993.2468)">
	<stop  offset="0" style="stop-color:#F3B69D"/>
	<stop  offset="0.17" style="stop-color:#F1AF93"/>
	<stop  offset="0.47" style="stop-color:#EF9C7A"/>
	<stop  offset="0.83" style="stop-color:#EA7D51"/>
	<stop  offset="0.99" style="stop-color:#E86F3D"/>
</linearGradient>
<path style="fill:url(#SVGID_00000147924087006118162830000014107720755219906965_);" d="M119.2,130.9c-2.1-7.3-4.4-14.6-6.6-21.9
	c-6.1,5-12.1,10.3-17.4,16.3c-1.7,1.8-3.2,3.8-4.6,5.7c3.7,8,7.3,16,10.3,24.4C105.5,146.6,111.5,138.5,119.2,130.9L119.2,130.9z"/>
<linearGradient id="SVGID_00000027572641958247315840000009040398064431792271_" gradientUnits="userSpaceOnUse" x1="125.2416" y1="887.1734" x2="140.5416" y2="887.1734" gradientTransform="matrix(1 0 0 -1 0 993.2468)">
	<stop  offset="0" style="stop-color:#F3B69D"/>
	<stop  offset="0.17" style="stop-color:#F1AF93"/>
	<stop  offset="0.47" style="stop-color:#EF9C7A"/>
	<stop  offset="0.83" style="stop-color:#EA7D51"/>
	<stop  offset="0.99" style="stop-color:#E86F3D"/>
</linearGradient>
<path style="fill:url(#SVGID_00000027572641958247315840000009040398064431792271_);" d="M140.5,113.1c-2.4-6.9-4.3-14-5.8-21.1
	c-3.2,2.4-6.3,4.8-9.5,7.2c2.1,7,4.2,14,6.3,20.9C134.5,117.8,137.5,115.4,140.5,113.1L140.5,113.1z"/>
<linearGradient id="SVGID_00000051368832905818137580000003026082665738261415_" gradientUnits="userSpaceOnUse" x1="69.2028" y1="786.7634" x2="90.3717" y2="786.7634" gradientTransform="matrix(1 0 0 -1 0 993.2468)">
	<stop  offset="0" style="stop-color:#F3B69D"/>
	<stop  offset="0.17" style="stop-color:#F1AF93"/>
	<stop  offset="0.47" style="stop-color:#EF9C7A"/>
	<stop  offset="0.83" style="stop-color:#EA7D51"/>
	<stop  offset="0.99" style="stop-color:#E86F3D"/>
</linearGradient>
<path style="fill:url(#SVGID_00000051368832905818137580000003026082665738261415_);" d="M88.1,204.5c0.5-6.2,1.2-12.2,2.3-17.9
	c-3-11.5-6.9-22.8-11.4-34c-4.8,12.6-7.3,26.3-8.7,39.7c-1.3,12.5-1.4,25.4-0.3,38c0.9,10.2,3.8,20.2,5.8,30.1h12.7
	c-0.4-3.3-1-6.7-1.1-10.2C86.8,234.9,86.9,219.7,88.1,204.5L88.1,204.5z"/>
<linearGradient id="SVGID_00000171686069944990666750000009553494321931639179_" gradientUnits="userSpaceOnUse" x1="150.7516" y1="942.3401" x2="209.8515" y2="942.3401" gradientTransform="matrix(1 0 0 -1 0 993.2468)">
	<stop  offset="0" style="stop-color:#F3B69D"/>
	<stop  offset="0.17" style="stop-color:#F1AF93"/>
	<stop  offset="0.47" style="stop-color:#EF9C7A"/>
	<stop  offset="0.83" style="stop-color:#EA7D51"/>
	<stop  offset="0.99" style="stop-color:#E86F3D"/>
</linearGradient>
<path style="fill:url(#SVGID_00000171686069944990666750000009553494321931639179_);" d="M184.3,73.5c11.5-15.4,35.2-50.3,21.3-69.7
	c-3.3-4.7-10.1-5.3-13.3,0c-6,9.9-5.7,23.5-10.7,34.3c-5.3,11.6-13,22.5-21.6,31.9c-2.9,3.2-6,6.1-9.2,9c0.8,7.8,2.4,15.4,4.4,22.9
	C165.8,93.4,176,84.5,184.3,73.5L184.3,73.5z"/>
<linearGradient id="SVGID_00000086685344486694498050000014264952133402638739_" gradientUnits="userSpaceOnUse" x1="90.3717" y1="785.3784" x2="113.458" y2="785.3784" gradientTransform="matrix(1 0 0 -1 0 993.2468)">
	<stop  offset="0" style="stop-color:#F3B69D"/>
	<stop  offset="0.17" style="stop-color:#F1AF93"/>
	<stop  offset="0.47" style="stop-color:#EF9C7A"/>
	<stop  offset="0.83" style="stop-color:#EA7D51"/>
	<stop  offset="0.99" style="stop-color:#E86F3D"/>
</linearGradient>
<path style="fill:url(#SVGID_00000086685344486694498050000014264952133402638739_);" d="M101.3,156.4c-0.1-0.4-0.3-0.7-0.4-1.1
	c-5.1,9.6-8.4,20-10.5,31.2c6.3,24,8.9,48.6,6.1,73.8h11.8C118.3,227.1,112.6,188.1,101.3,156.4L101.3,156.4z"/>
<linearGradient id="SVGID_00000148644124159317797910000000354977647083581619_" gradientUnits="userSpaceOnUse" x1="47.8256" y1="908.9864" x2="90.5716" y2="908.9864" gradientTransform="matrix(1 0 0 -1 0 993.2468)">
	<stop  offset="0" style="stop-color:#F3B69D"/>
	<stop  offset="0.17" style="stop-color:#F1AF93"/>
	<stop  offset="0.47" style="stop-color:#EF9C7A"/>
	<stop  offset="0.83" style="stop-color:#EA7D51"/>
	<stop  offset="0.99" style="stop-color:#E86F3D"/>
</linearGradient>
<path style="fill:url(#SVGID_00000148644124159317797910000000354977647083581619_);" d="M75.2,91.1c-5.6-22.7-8.7-43.5-7.3-66.9
	c0.5-8-12.1-11.8-15.5-4.2c-8,17.5-3.9,38.1-0.2,56.2c4.3,21.4,11.1,41.4,20.2,61.2c2.3,5,4.5,10,6.5,15.1
	c2.9-7.7,6.7-14.9,11.6-21.6C84.7,118.1,78.7,105.1,75.2,91.1L75.2,91.1z"/>
<linearGradient id="SVGID_00000085210966536585767790000008736294010272812462_" gradientUnits="userSpaceOnUse" x1="78.9517" y1="834.4634" x2="100.8917" y2="834.4634" gradientTransform="matrix(1 0 0 -1 0 993.2468)">
	<stop  offset="0" style="stop-color:#F3B69D"/>
	<stop  offset="0.17" style="stop-color:#F1AF93"/>
	<stop  offset="0.47" style="stop-color:#EF9C7A"/>
	<stop  offset="0.83" style="stop-color:#EA7D51"/>
	<stop  offset="0.99" style="stop-color:#E86F3D"/>
</linearGradient>
<path style="fill:url(#SVGID_00000085210966536585767790000008736294010272812462_);" d="M100.9,155.4c-3-8.3-6.7-16.4-10.3-24.4
	c-4.9,6.6-8.7,13.9-11.6,21.6c4.5,11.2,8.4,22.5,11.4,34C92.5,175.4,95.8,165,100.9,155.4L100.9,155.4z"/>
<linearGradient id="SVGID_00000176750093744311561360000005647596884543201214_" gradientUnits="userSpaceOnUse" x1="102.8044" y1="927.2162" x2="125.2517" y2="927.2162" gradientTransform="matrix(1 0 0 -1 0 993.2468)">
	<stop  offset="0" style="stop-color:#F3B69D"/>
	<stop  offset="0.17" style="stop-color:#F1AF93"/>
	<stop  offset="0.47" style="stop-color:#EF9C7A"/>
	<stop  offset="0.83" style="stop-color:#EA7D51"/>
	<stop  offset="0.99" style="stop-color:#E86F3D"/>
</linearGradient>
<path style="fill:url(#SVGID_00000176750093744311561360000005647596884543201214_);" d="M124.5,96.8c-6.8-23-3.8-43.6-4.3-66.9
	c-0.1-7.9-11.6-9.5-13.8-1.9c-8,27.7-1.6,54.5,6.2,81c4.1-3.4,8.4-6.6,12.6-9.8C125,98.4,124.8,97.6,124.5,96.8L124.5,96.8z"/>
<linearGradient id="SVGID_00000171712239960565081490000013542193322472911526_" gradientUnits="userSpaceOnUse" x1="119.2217" y1="802.9784" x2="141.4341" y2="802.9784" gradientTransform="matrix(1 0 0 -1 0 993.2468)">
	<stop  offset="0" style="stop-color:#F3B69D"/>
	<stop  offset="0.17" style="stop-color:#F1AF93"/>
	<stop  offset="0.47" style="stop-color:#EF9C7A"/>
	<stop  offset="0.83" style="stop-color:#EA7D51"/>
	<stop  offset="0.99" style="stop-color:#E86F3D"/>
</linearGradient>
<path style="fill:url(#SVGID_00000171712239960565081490000013542193322472911526_);" d="M139.3,155.3c-1.4-12-4.4-23.6-7.8-35.1
	c-2.9,2.4-5.9,4.8-8.7,7.4c-1.3,1.1-2.5,2.3-3.6,3.4c1.1,3.7,2.1,7.4,3.1,11.1c9.8,37.5,6.3,79.3,4,118.3h8.8
	c3.1-11.7,3.4-24.7,4.6-36.3C142.1,201.3,142,178,139.3,155.3L139.3,155.3z"/>
<linearGradient id="SVGID_00000088117373338821552730000005419167490109220227_" gradientUnits="userSpaceOnUse" x1="112.6616" y1="878.1784" x2="131.5516" y2="878.1784" gradientTransform="matrix(1 0 0 -1 0 993.2468)">
	<stop  offset="0" style="stop-color:#F3B69D"/>
	<stop  offset="0.17" style="stop-color:#F1AF93"/>
	<stop  offset="0.47" style="stop-color:#EF9C7A"/>
	<stop  offset="0.83" style="stop-color:#EA7D51"/>
	<stop  offset="0.99" style="stop-color:#E86F3D"/>
</linearGradient>
<path style="fill:url(#SVGID_00000088117373338821552730000005419167490109220227_);" d="M122.9,127.5c2.8-2.5,5.7-5,8.7-7.4
	c-2-7-4.2-13.9-6.3-20.9c-4.2,3.2-8.5,6.5-12.6,9.8c2.2,7.3,4.4,14.6,6.6,21.9C120.4,129.8,121.6,128.6,122.9,127.5z"/>
<linearGradient id="SVGID_00000061473860081142263840000005702369960989717949_" gradientUnits="userSpaceOnUse" x1="147.7073" y1="773.2584" x2="180.6116" y2="773.2584" gradientTransform="matrix(1 0 0 -1 0 993.2468)">
	<stop  offset="0" style="stop-color:#F3B69D"/>
	<stop  offset="0.17" style="stop-color:#F1AF93"/>
	<stop  offset="0.47" style="stop-color:#EF9C7A"/>
	<stop  offset="0.83" style="stop-color:#EA7D51"/>
	<stop  offset="0.99" style="stop-color:#E86F3D"/>
</linearGradient>
<path style="fill:url(#SVGID_00000061473860081142263840000005702369960989717949_);" d="M180.6,197.9c-1.8-6.5-4.4-12.4-7.3-18.2
	c-6.7,8.6-12.6,17.7-16.6,27.5c-6.9,16.8-9.3,35.2-9,53.3h9.5c2.9-19.1,8-37.6,18.1-54.4C177,203.2,178.8,200.5,180.6,197.9
	L180.6,197.9z"/>
<linearGradient id="SVGID_00000123407804009798903410000009585732324759108795_" gradientUnits="userSpaceOnUse" x1="220.6516" y1="901.0037" x2="283.3944" y2="901.0037" gradientTransform="matrix(1 0 0 -1 0 993.2468)">
	<stop  offset="0" style="stop-color:#F3B69D"/>
	<stop  offset="0.17" style="stop-color:#F1AF93"/>
	<stop  offset="0.47" style="stop-color:#EF9C7A"/>
	<stop  offset="0.83" style="stop-color:#EA7D51"/>
	<stop  offset="0.99" style="stop-color:#E86F3D"/>
</linearGradient>
<path style="fill:url(#SVGID_00000123407804009798903410000009585732324759108795_);" d="M227.1,148.2c16.4-15.4,33.8-29.7,46-49
	c11.7-18.5,11.5-40.9,8.5-61.8c-1-7.3-12.7-6.8-14.2,0c-2,9.5-1.6,19-1.9,28.7c-0.4,14-7.7,25.9-16.4,36.3
	c-8.6,10.4-18.5,19.6-28.6,28.7c0.4,7.1,1.1,14.2,2,21.3C224.2,151,225.7,149.6,227.1,148.2L227.1,148.2z"/>
<linearGradient id="SVGID_00000088845125065717864840000014858684013322998955_" gradientUnits="userSpaceOnUse" x1="184.6016" y1="828.8284" x2="207.6716" y2="828.8284" gradientTransform="matrix(1 0 0 -1 0 993.2468)">
	<stop  offset="0" style="stop-color:#F3B69D"/>
	<stop  offset="0.17" style="stop-color:#F1AF93"/>
	<stop  offset="0.47" style="stop-color:#EF9C7A"/>
	<stop  offset="0.83" style="stop-color:#EA7D51"/>
	<stop  offset="0.99" style="stop-color:#E86F3D"/>
</linearGradient>
<path style="fill:url(#SVGID_00000088845125065717864840000014858684013322998955_);" d="M207.7,166.8c-0.8-7-1.8-14-2.8-21.2
	c-2.4,2.2-4.7,4.5-7,6.8c-4.4,4.5-8.9,9.1-13.3,13.9c3.1,5.7,5.5,11.3,7.5,17.1C197,177.6,202.3,172.1,207.7,166.8L207.7,166.8z"/>
<linearGradient id="SVGID_00000033361734396198736940000007103288854194449793_" gradientUnits="userSpaceOnUse" x1="140.5417" y1="852.5284" x2="184.5917" y2="852.5284" gradientTransform="matrix(1 0 0 -1 0 993.2468)">
	<stop  offset="0" style="stop-color:#F3B69D"/>
	<stop  offset="0.17" style="stop-color:#F1AF93"/>
	<stop  offset="0.47" style="stop-color:#EF9C7A"/>
	<stop  offset="0.83" style="stop-color:#EA7D51"/>
	<stop  offset="0.99" style="stop-color:#E86F3D"/>
</linearGradient>
<path style="fill:url(#SVGID_00000033361734396198736940000007103288854194449793_);" d="M157.2,150.9c5.4,10.1,11.3,19.2,16.1,28.7
	c3.6-4.6,7.4-9,11.3-13.3c-0.2-0.4-0.4-0.8-0.6-1.1c-11.9-21-22.7-41.6-28.8-63.3c-4.8,3.8-9.8,7.5-14.6,11.3
	C145.2,126.8,151.2,139.8,157.2,150.9L157.2,150.9z"/>
<linearGradient id="SVGID_00000134965928314550825370000016252337962896276888_" gradientUnits="userSpaceOnUse" x1="178.6316" y1="771.3934" x2="197.2521" y2="771.3934" gradientTransform="matrix(1 0 0 -1 0 993.2468)">
	<stop  offset="0" style="stop-color:#F3B69D"/>
	<stop  offset="0.17" style="stop-color:#F1AF93"/>
	<stop  offset="0.47" style="stop-color:#EF9C7A"/>
	<stop  offset="0.83" style="stop-color:#EA7D51"/>
	<stop  offset="0.99" style="stop-color:#E86F3D"/>
</linearGradient>
<path style="fill:url(#SVGID_00000134965928314550825370000016252337962896276888_);" d="M192.1,183.3c-4.1,4.7-7.9,9.5-11.5,14.5
	c1.2,4.2,2,8.5,2.5,13.2c1.2,12.3,0.7,24.9-1.8,37c-0.9,4.2-1.8,8.3-2.7,12.3h10.9C197.9,234.6,200.6,208.7,192.1,183.3L192.1,183.3
	z"/>
<linearGradient id="SVGID_00000116915455221020176150000011482868821449520311_" gradientUnits="userSpaceOnUse" x1="132.2764" y1="929.5046" x2="152.0675" y2="929.5046" gradientTransform="matrix(1 0 0 -1 0 993.2468)">
	<stop  offset="0" style="stop-color:#F3B69D"/>
	<stop  offset="0.17" style="stop-color:#F1AF93"/>
	<stop  offset="0.47" style="stop-color:#EF9C7A"/>
	<stop  offset="0.83" style="stop-color:#EA7D51"/>
	<stop  offset="0.99" style="stop-color:#E86F3D"/>
</linearGradient>
<path style="fill:url(#SVGID_00000116915455221020176150000011482868821449520311_);" d="M151.9,44.8c1.7-9.7-11-13.1-14.6-4
	c-6.3,15.7-6.1,33.5-2.5,51.2c5.5-4.2,10.9-8.5,16-13.1C149.6,68,149.8,56.7,151.9,44.8L151.9,44.8z"/>
<linearGradient id="SVGID_00000168805658922196529560000015616267228543218341_" gradientUnits="userSpaceOnUse" x1="134.7617" y1="897.2334" x2="155.1917" y2="897.2334" gradientTransform="matrix(1 0 0 -1 0 993.2468)">
	<stop  offset="0" style="stop-color:#F3B69D"/>
	<stop  offset="0.17" style="stop-color:#F1AF93"/>
	<stop  offset="0.47" style="stop-color:#EF9C7A"/>
	<stop  offset="0.83" style="stop-color:#EA7D51"/>
	<stop  offset="0.99" style="stop-color:#E86F3D"/>
</linearGradient>
<path style="fill:url(#SVGID_00000168805658922196529560000015616267228543218341_);" d="M155.2,101.8c-2.1-7.5-3.6-15.1-4.4-22.9
	c-5.1,4.6-10.5,8.9-16,13.1c1.4,7.1,3.4,14.2,5.8,21.1C145.4,109.3,150.4,105.6,155.2,101.8z"/>
<linearGradient id="SVGID_00000103230353843092750150000015386086202082545841_" gradientUnits="userSpaceOnUse" x1="173.2816" y1="811.1784" x2="192.0616" y2="811.1784" gradientTransform="matrix(1 0 0 -1 0 993.2468)">
	<stop  offset="0" style="stop-color:#F3B69D"/>
	<stop  offset="0.17" style="stop-color:#F1AF93"/>
	<stop  offset="0.47" style="stop-color:#EF9C7A"/>
	<stop  offset="0.83" style="stop-color:#EA7D51"/>
	<stop  offset="0.99" style="stop-color:#E86F3D"/>
</linearGradient>
<path style="fill:url(#SVGID_00000103230353843092750150000015386086202082545841_);" d="M180.6,197.9c3.5-5,7.4-9.8,11.5-14.5
	c-1.9-5.7-4.4-11.4-7.5-17.1c-3.9,4.3-7.7,8.7-11.3,13.3C176.2,185.4,178.8,191.4,180.6,197.9L180.6,197.9z"/>
<linearGradient id="SVGID_00000128469556820526692040000008329701218947358621_" gradientUnits="userSpaceOnUse" x1="202.8515" y1="904.8547" x2="242.2324" y2="904.8547" gradientTransform="matrix(1 0 0 -1 0 993.2468)">
	<stop  offset="0" style="stop-color:#F3B69D"/>
	<stop  offset="0.17" style="stop-color:#F1AF93"/>
	<stop  offset="0.47" style="stop-color:#EF9C7A"/>
	<stop  offset="0.83" style="stop-color:#EA7D51"/>
	<stop  offset="0.99" style="stop-color:#E86F3D"/>
</linearGradient>
<path style="fill:url(#SVGID_00000128469556820526692040000008329701218947358621_);" d="M223.5,96.7c5-19.3,18.5-38.1,18.7-58.2
	c0.1-7.7-10-9.8-13.9-3.8c-9.7,15-15.3,35.4-20.7,52.4c-6,18.9-5.5,38-2.8,57.4c0,0.3,0.1,0.6,0.1,0.9c5.2-4.9,10.5-9.7,15.8-14.5
	C220.1,119.6,220.6,108.1,223.5,96.7L223.5,96.7z"/>
<linearGradient id="SVGID_00000094591794115799182490000007276799975774544047_" gradientUnits="userSpaceOnUse" x1="205.4416" y1="786.8634" x2="224.9978" y2="786.8634" gradientTransform="matrix(1 0 0 -1 0 993.2468)">
	<stop  offset="0" style="stop-color:#F3B69D"/>
	<stop  offset="0.17" style="stop-color:#F1AF93"/>
	<stop  offset="0.47" style="stop-color:#EF9C7A"/>
	<stop  offset="0.83" style="stop-color:#EA7D51"/>
	<stop  offset="0.99" style="stop-color:#E86F3D"/>
</linearGradient>
<path style="fill:url(#SVGID_00000094591794115799182490000007276799975774544047_);" d="M223.8,161.4c-0.4-3-0.8-6-1.1-9
	c-5,4.7-10,9.5-15,14.4c1.7,14.4,2.6,28.6,1,43.9c-0.9,8.8-2.5,17.3-2.8,26.2c-0.2,8,0.4,15.7-0.5,23.5h9.3
	c3.1-12.3,2.8-25.7,5.4-38C224.5,202.2,226.4,182,223.8,161.4L223.8,161.4z"/>
<linearGradient id="SVGID_00000060017046655916385910000009478368284120852106_" gradientUnits="userSpaceOnUse" x1="204.8817" y1="844.3334" x2="222.6817" y2="844.3334" gradientTransform="matrix(1 0 0 -1 0 993.2468)">
	<stop  offset="0" style="stop-color:#F3B69D"/>
	<stop  offset="0.17" style="stop-color:#F1AF93"/>
	<stop  offset="0.47" style="stop-color:#EF9C7A"/>
	<stop  offset="0.83" style="stop-color:#EA7D51"/>
	<stop  offset="0.99" style="stop-color:#E86F3D"/>
</linearGradient>
<path style="fill:url(#SVGID_00000060017046655916385910000009478368284120852106_);" d="M222.7,152.4c-0.9-7.1-1.6-14.2-2-21.3
	c-5.3,4.8-10.6,9.6-15.8,14.5c1,7.2,2,14.3,2.8,21.2C212.6,161.8,217.7,157.1,222.7,152.4L222.7,152.4z"/>
<linearGradient id="SVGID_00000005252610142275570100000003284654294356859037_" gradientUnits="userSpaceOnUse" x1="228.4115" y1="808.4409" x2="306.0125" y2="808.4409" gradientTransform="matrix(1 0 0 -1 0 993.2468)">
	<stop  offset="0" style="stop-color:#F3B69D"/>
	<stop  offset="0.17" style="stop-color:#F1AF93"/>
	<stop  offset="0.47" style="stop-color:#EF9C7A"/>
	<stop  offset="0.83" style="stop-color:#EA7D51"/>
	<stop  offset="0.99" style="stop-color:#E86F3D"/>
</linearGradient>
<path style="fill:url(#SVGID_00000005252610142275570100000003284654294356859037_);" d="M290.9,148c7-8.8,15.9-19.7,15-31.5
	c-0.5-6.3-7.6-9.7-12.5-5.2c-9.5,8.8-15.2,22.9-23.8,33c-9.5,11.1-19,22-26.3,34.8c-13.9,24.3-15.8,53.7-14.6,81.3h10
	c3.4-27.6,7.9-56.2,24.2-79.3C271.2,169.3,282,159.2,290.9,148L290.9,148z"/>
<linearGradient id="SVGID_00000059291320593190735830000017881650457396361366_" gradientUnits="userSpaceOnUse" x1="254.5717" y1="773.364" x2="301.9056" y2="773.364" gradientTransform="matrix(1 0 0 -1 0 993.2468)">
	<stop  offset="0" style="stop-color:#F3B69D"/>
	<stop  offset="0.17" style="stop-color:#F1AF93"/>
	<stop  offset="0.47" style="stop-color:#EF9C7A"/>
	<stop  offset="0.83" style="stop-color:#EA7D51"/>
	<stop  offset="0.99" style="stop-color:#E86F3D"/>
</linearGradient>
<path style="fill:url(#SVGID_00000059291320593190735830000017881650457396361366_);" d="M301.8,187.5c1.1-6.5-8.2-11.7-11.5-4.8
	c-11.6,24.9-35.7,49.3-35.8,77.7h10.5C270.9,233,296.9,215.5,301.8,187.5L301.8,187.5z"/>
</svg>
