<?xml version="1.0" encoding="UTF-8"?><svg id="coral" xmlns="http://www.w3.org/2000/svg" xmlns:xlink="http://www.w3.org/1999/xlink" viewBox="0 0 2072.73 1166.38"><defs><style>.cls-1{fill:url(#light_orange-12);}.cls-2{fill:url(#light_orange-10);}.cls-3{fill:url(#light_orange-11);}.cls-4{fill:url(#light_orange-13);}.cls-5{fill:url(#light_orange-3);}.cls-6{fill:url(#light_orange-2);}.cls-7{fill:url(#light_orange-9);}.cls-8{fill:url(#light_orange-8);}.cls-9{fill:url(#light_orange-6);}.cls-10{fill:url(#light_orange-7);}.cls-11{fill:url(#light_orange-4);}.cls-12{fill:url(#light_orange-5);}.cls-13{fill:url(#light_orange);}</style><linearGradient id="light_orange" x1="122.07" y1="271.51" x2="190.04" y2="271.51" gradientUnits="userSpaceOnUse"><stop offset="0" stop-color="#f5d1b6"/><stop offset=".22" stop-color="#f3cbac"/><stop offset=".58" stop-color="#f0bb93"/><stop offset=".99" stop-color="#eba46e"/></linearGradient><linearGradient id="light_orange-2" x1="146.81" y1="241.45" x2="172.95" y2="241.45" xlink:href="#light_orange"/><linearGradient id="light_orange-3" x1="100.43" y1="294.63" x2="174.47" y2="294.63" xlink:href="#light_orange"/><linearGradient id="light_orange-4" x1="179.14" y1="236.72" x2="248.22" y2="236.72" xlink:href="#light_orange"/><linearGradient id="light_orange-5" x1="163.3" y1="174.11" x2="223.69" y2="174.11" xlink:href="#light_orange"/><linearGradient id="light_orange-6" x1="114.62" y1="160.37" x2="182.34" y2="160.37" xlink:href="#light_orange"/><linearGradient id="light_orange-7" x1="235.51" y1="141" x2="291.52" y2="141" xlink:href="#light_orange"/><linearGradient id="light_orange-8" x1="186.21" y1="276.94" x2="298.94" y2="276.94" xlink:href="#light_orange"/><linearGradient id="light_orange-9" x1="275.95" y1="225.25" x2="338.94" y2="225.25" xlink:href="#light_orange"/><linearGradient id="light_orange-10" x1="241.1" y1="259.51" x2="259.54" y2="259.51" xlink:href="#light_orange"/><linearGradient id="light_orange-11" x1="247.03" y1="288.63" x2="347.54" y2="288.63" xlink:href="#light_orange"/><linearGradient id="light_orange-12" x1="284.84" y1="185.08" x2="321.43" y2="185.08" xlink:href="#light_orange"/><linearGradient id="light_orange-13" x1="149.7" y1="349.01" x2="227.32" y2="349.01" xlink:href="#light_orange"/></defs><path class="cls-13" d="M182.81,339.06c16.2-13,1.19-40.43-6.6-53.97-5.81-10.11-14.35-18.27-19.84-28.67-6.37-12.05-6.16-27.33-6.2-40.56-.05-18.12-28.29-18.12-28.1,0,.25,23.42,3.2,46.21,17.34,65.6,6.87,9.42,14.84,17.85,21.42,27.53,6.07,8.95,6.78,20.07,12.45,28.84,2.29,3.54,6.42,3.73,9.54,1.23h0Z"/><path class="cls-6" d="M150.08,274.42c24.24-3.17,25.1-43.46,20.99-60.93-2.07-8.79-15.48-5.06-13.49,3.72,4.12,18.18,.76,37.41-10.3,52.34-1.38,1.86,.45,5.18,2.79,4.87h0Z"/><path class="cls-5" d="M170.76,301.14c-9.86-1.27-20.25-3.99-29.83-6.61-11.3-3.09-16.58-8.29-24.43-16.14-7.33-7.33-17.31,.39-15.95,9.28,2.15,14.03,20.19,21.97,32.4,24.56,13.94,2.95,26.84,1.79,39.64-4.3,3.67-1.75,1.32-6.38-1.84-6.79h0Z"/><path class="cls-11" d="M192.22,340.96c2.64-5.04,3.31-10.59,5.07-16,2.96-9.08,6.97-17.85,10.8-26.58,7.66-17.49,17.58-33.92,25.39-51.35,7.28-16.24,12.43-33.37,14.27-51.11,1.94-18.65-2.65-35.13-3.55-53.46-.82-16.64-26.8-16.69-25.9,0,.98,18.2,5.89,35,4.52,53.46-1.47,19.81-9.52,38.72-17.95,56.42-7.85,16.49-16.15,32.91-21.26,50.5-3.41,11.75-8.37,28.93,.61,39.16,2.11,2.41,6.53,1.76,7.99-1.03h0Z"/><path class="cls-12" d="M222.66,229.11c-12.29-15.16-22.83-32.41-28.88-50.95-6.21-19.02-2.67-39.17-7.7-58.15-2.66-10.03-17.67-10.08-20.3,0-5.62,21.55-.98,48.17,6.52,68.76,8.03,22.04,25.13,36.73,45.58,46.52,4.15,1.98,7.59-2.69,4.76-6.18h0Z"/><path class="cls-9" d="M179.49,173.97c-8.86-5.41-18.68-8.94-27.63-14.22-10.12-5.97-14.36-16.7-23.53-23.12-4.47-3.13-12.61-.17-13.42,5.46-4.28,29.57,39.81,46.16,63.14,42.86,5.47-.77,5.43-8.55,1.44-10.99h0Z"/><path class="cls-10" d="M240.04,195.62c19.39,.1,32.4-20.83,39.4-36.38,8.81-19.59,15.85-42.36,9.85-63.67-4.54-16.13-29.64-9.27-25.09,6.92,4.25,15.08,4.34,31.55-.38,46.49-5.16,16.32-15.39,27.04-27.01,38.84-2.8,2.84-.77,7.78,3.23,7.8h0Z"/><path class="cls-8" d="M195.9,345.35c13.42-22.16,39.99-32.02,61.87-43.48,33.76-17.68,47.19-48.59,38.66-85.59-3.53-15.34-28.28-12.08-27.48,3.72,.91,18.05,4.08,32.54-9.39,46.8-9.32,9.87-21.66,16.27-33.04,23.41-16.9,10.61-47.04,30.17-38.97,54.04,1.25,3.71,6.22,4.6,8.35,1.09h0Z"/><path class="cls-7" d="M278.87,267.91c14.42,9,36.1-9.28,44.58-19.68,13.21-16.2,21.24-44.36,10.5-63.46-4.74-8.43-17.05-4.29-17.45,4.73-.97,21.77-.7,39.3-17.95,55.28-2.81,2.6-31.7,15.63-19.67,23.13h0Z"/><path class="cls-2" d="M259.3,282.93c.88-2.69-.9-4.83-1.75-7.22-1.37-3.85-1.15-8.07-.97-12.08,.36-7.77,3.06-17.8,1.23-25.37-1.53-6.3-9.88-6.72-13.11-1.71-5.55,8.62-3.58,25.16-1.49,34.54,1.09,4.9,3.16,10.06,7.16,13.26,2.64,2.11,7.64,2.48,8.92-1.41h0Z"/><path class="cls-3" d="M251.93,307.69c22.65,3.01,44.46,9.91,66.6,.36,15.16-6.54,27.87-17.47,28.99-34.8,.76-11.87-18.02-11.93-18.5,0-.5,12.25-15.52,18.75-25.63,21.61-17.18,4.87-35.24-1.89-52.78,3.06-5.82,1.64-3.93,9.07,1.32,9.77h0Z"/><path class="cls-1" d="M318.72,200.35c-6.08-3.83-8.88-9.51-10.93-16.38-1.08-3.62-2.24-7.23-2.57-11-.42-4.73,.1-8.27-3.36-12.2-2.7-3.06-7.76-3.44-11.14-1.44-11.29,6.69-3.65,26.24,.86,35.08,4.28,8.38,16.25,23.06,27.15,15.63,3.5-2.39,3.72-7.34,0-9.69h0Z"/><path class="cls-4" d="M151.67,355.43c9.81,2.99,22.02-.76,32.26-1.03,12.99-.34,27.1,2.48,39.73-.82,4.93-1.29,4.83-8.51,0-9.85-12.38-3.42-26.95-2.07-39.73-1.76-10.74,.26-26.05,0-33.48,8.84-1.33,1.59-.89,3.98,1.22,4.62h0Z"/></svg>