<?xml version="1.0" encoding="UTF-8"?><svg id="coral" xmlns="http://www.w3.org/2000/svg" xmlns:xlink="http://www.w3.org/1999/xlink" viewBox="0 0 2072.73 1166.38"><defs><style>.cls-1{fill:url(#green);}.cls-2{fill:url(#green-7);}.cls-3{fill:url(#green-5);}.cls-4{fill:url(#green-3);}.cls-5{fill:url(#green-2);}.cls-6{fill:url(#green-8);}.cls-7{fill:url(#green-6);}.cls-8{fill:url(#green-4);}</style><linearGradient id="green" x1="100.43" y1="284.13" x2="190.79" y2="284.13" gradientUnits="userSpaceOnUse"><stop offset="0" stop-color="#c0d3cf"/><stop offset=".24" stop-color="#b6ccc7"/><stop offset=".64" stop-color="#9dbab4"/><stop offset=".99" stop-color="#82a8a0"/></linearGradient><linearGradient id="green-2" x1="108.6" y1="226.41" x2="138.6" y2="226.41" xlink:href="#green"/><linearGradient id="green-3" x1="223.93" y1="296.48" x2="327.54" y2="296.48" xlink:href="#green"/><linearGradient id="green-4" x1="173.02" y1="224.87" x2="247.3" y2="224.87" xlink:href="#green"/><linearGradient id="green-5" x1="195.57" y1="110.77" x2="235.1" y2="110.77" xlink:href="#green"/><linearGradient id="green-6" x1="207.42" y1="263.5" x2="297.6" y2="263.5" xlink:href="#green"/><linearGradient id="green-7" x1="262.44" y1="184.44" x2="289.03" y2="184.44" xlink:href="#green"/><linearGradient id="green-8" x1="295.74" y1="252.04" x2="320.02" y2="252.04" xlink:href="#green"/></defs><path class="cls-1" d="M188.9,358.66s-9.25,14.05-20.7,0c-12.51-15.37-28.2-60.03-50.88-87.4-43.43-52.4,7.51-84.1,34.13-59.34,26.61,24.76,45.55,83.7,37.45,146.74Z"/><path class="cls-5" d="M118.44,217.49s-17.13,13.02-6.17,20.56c10.96,7.54,28.8-10.38,26.04-20.56-2.76-10.18-19.87,0-19.87,0Z"/><path class="cls-4" d="M223.93,355.1s5.28,14.18,18.14,4.17c14.06-10.95,36.8-46.94,62.2-66.37,48.62-37.19,10.35-75.23-17.97-58.89-28.31,16.35-56.78,64.19-62.37,121.09Z"/><path class="cls-8" d="M188.9,358.66s-25.92-179.55-11.53-237.8c14.39-58.25,71.27-32.89,69.9,4.11-1.37,37.01-22.61,112.39-23.99,128.83s-5.04,134.32-34.39,104.85Z"/><path class="cls-3" d="M218.49,99.48s-24.63-7.43-22.82,8.44c1.81,15.87,31.3,20.55,38.12,10.76,6.83-9.8-15.3-19.2-15.3-19.2Z"/><path class="cls-7" d="M207.42,355.36s6.57-149.52,38.78-179.67c32.21-30.15,51.4,2.74,51.4,19.87s-23.3,49.77-38,69.83c-11.52,15.71-27.38,66.11-29.19,84.11-1.41,14.02-15.18,20.25-22.99,5.86Z"/><path class="cls-2" d="M280.46,174.47c-3.58-2.79-13.79-6.11-17.54,4.71-3.75,10.82,15.19,21.52,23.01,16.91,7.82-4.62-1.08-18.19-5.47-21.61Z"/><path class="cls-6" d="M314.12,245.54s12.39,14.86,1.27,19.26c-11.13,4.4-23.16-14.9-18.69-23.27,4.47-8.37,17.42,4,17.42,4Z"/></svg>