<?xml version="1.0" encoding="utf-8"?>
<!-- Generator: Adobe Illustrator 27.0.1, SVG Export Plug-In . SVG Version: 6.00 Build 0)  -->
<svg version="1.1" id="coral" xmlns="http://www.w3.org/2000/svg" xmlns:xlink="http://www.w3.org/1999/xlink" x="0px" y="0px"
	 viewBox="0 0 188.1 379.6" style="enable-background:new 0 0 188.1 379.6;" xml:space="preserve">
<style type="text/css">
	.st0{fill:url(#SVGID_1_);}
	.st1{fill:url(#SVGID_00000018214088781609691860000009017940703505345169_);}
	.st2{fill:url(#SVGID_00000102533323049715338710000014338334531199440041_);}
	.st3{fill:url(#SVGID_00000122704592666675616500000000411114395088004504_);}
	.st4{fill:url(#SVGID_00000026860581448246430630000010852606303868128407_);}
	.st5{fill:url(#SVGID_00000165197254696966430450000002850916652099200941_);}
	.st6{fill:url(#SVGID_00000148662165546893697860000011628464746443512458_);}
	.st7{fill:url(#SVGID_00000036231016926065914880000017537280581638399423_);}
	.st8{fill:url(#SVGID_00000017513323399379821110000009404238941976762279_);}
	.st9{fill:url(#SVGID_00000052100576254241284470000017246071302038071737_);}
	.st10{fill:url(#SVGID_00000172425525400479538750000000686649443412631215_);}
	.st11{fill:url(#SVGID_00000175290652221640113070000012256181543842996897_);}
	.st12{fill:url(#SVGID_00000005232656991795645790000010490364588716981425_);}
	.st13{fill:url(#SVGID_00000136391396003556910810000009209104345364932794_);}
	.st14{fill:url(#SVGID_00000050645731525816705460000005157390070611414201_);}
	.st15{fill:url(#SVGID_00000052065829066470834630000013227450208357765780_);}
	.st16{fill:url(#SVGID_00000143601259564761223200000012176534827956404382_);}
	.st17{fill:url(#SVGID_00000103987572249701042340000011969836932233341347_);}
	.st18{fill:url(#SVGID_00000099655557798041069130000008093325376066638473_);}
	.st19{fill:url(#SVGID_00000053524360126044828820000016101312615195891345_);}
	.st20{fill:url(#SVGID_00000122721346047178472310000018180175551727456670_);}
	.st21{fill:url(#SVGID_00000065755996967486698320000016129104567860061865_);}
	.st22{fill:url(#SVGID_00000029039481171272010340000006824645946145900701_);}
	.st23{fill:url(#SVGID_00000062161504520623079070000011463740819164274356_);}
	.st24{fill:url(#SVGID_00000056393408723639433600000011962550754514043071_);}
	.st25{fill:url(#SVGID_00000181079714292575153690000012254446316843091120_);}
	.st26{fill:url(#SVGID_00000067920655699807192470000015294846362082178968_);}
	.st27{fill:url(#SVGID_00000049216718324302665130000007087206837488515732_);}
	.st28{fill:url(#SVGID_00000114067401474713465560000012344035629855964559_);}
	.st29{fill:url(#SVGID_00000179621490285981914570000016481410164813673640_);}
	.st30{fill:url(#SVGID_00000181062155628018930790000004355093106659465374_);}
	.st31{fill:url(#SVGID_00000096775899443587385580000009815955824112741285_);}
	.st32{fill:url(#SVGID_00000050628087076179763940000003606727036557210758_);}
	.st33{fill:url(#SVGID_00000155858822865115594720000018045260228835540158_);}
	.st34{fill:url(#SVGID_00000023276922203959654840000010141810880261932674_);}
	.st35{fill:url(#SVGID_00000046316728405865095900000014375636301098469800_);}
	.st36{fill:url(#SVGID_00000110465711071512129260000004757632883095839360_);}
	.st37{fill:url(#SVGID_00000137103876780626086090000007216988402349596588_);}
	.st38{fill:url(#SVGID_00000112613094060904340350000007391342956862189979_);}
	.st39{fill:url(#SVGID_00000062906354680874694720000000911057021579720612_);}
	.st40{fill:url(#SVGID_00000132071206299644323930000009583131073874941109_);}
	.st41{fill:url(#SVGID_00000130627042367791385000000007631346539373063826_);}
	.st42{fill:url(#SVGID_00000134961732689758976090000011296216532942683306_);}
	.st43{fill:url(#SVGID_00000132075642005318309330000016941599116227408557_);}
</style>
<g>
	
		<linearGradient id="SVGID_1_" gradientUnits="userSpaceOnUse" x1="30.3359" y1="807.4539" x2="82.1763" y2="807.4539" gradientTransform="matrix(1 0 0 -1 0 992.6824)">
		<stop  offset="0" style="stop-color:#98C5CC"/>
		<stop  offset="0.17" style="stop-color:#8EBFC7"/>
		<stop  offset="0.45" style="stop-color:#75B0BA"/>
		<stop  offset="0.8" style="stop-color:#4C99A5"/>
		<stop  offset="0.99" style="stop-color:#338B99"/>
	</linearGradient>
	<path class="st0" d="M81.9,367.2C46.2,317.4,49.5,250.1,54.5,192c5.6-65.3,13.2-129-18.6-189.5c-1.5-2.9-6.7-0.8-5.4,2.3
		c13.9,34,22.7,66.9,23.5,103.9c0.7,32.6-5,65.1-7.2,97.6c-3.7,54-3.8,118.9,32.8,162.8C80.7,370.2,82.9,368.5,81.9,367.2
		L81.9,367.2L81.9,367.2z"/>
	
		<linearGradient id="SVGID_00000055701930342622358710000003557771326329377418_" gradientUnits="userSpaceOnUse" x1="2.0096" y1="950.7699" x2="51.5948" y2="950.7699" gradientTransform="matrix(1 0 0 -1 0 992.6824)">
		<stop  offset="0" style="stop-color:#98C5CC"/>
		<stop  offset="0.17" style="stop-color:#8EBFC7"/>
		<stop  offset="0.45" style="stop-color:#75B0BA"/>
		<stop  offset="0.8" style="stop-color:#4C99A5"/>
		<stop  offset="0.99" style="stop-color:#338B99"/>
	</linearGradient>
	<path style="fill:url(#SVGID_00000055701930342622358710000003557771326329377418_);" d="M50.3,57.4C31.2,55.9,14.7,41.7,6.9,24.8
		c-1.2-2.7-5.7-0.8-4.7,2C8.7,45.6,30,61.9,50.3,60.1C52,60,52,57.6,50.3,57.4L50.3,57.4L50.3,57.4z"/>
	
		<linearGradient id="SVGID_00000034795313454670066930000008147124432573341056_" gradientUnits="userSpaceOnUse" x1="14.8524" y1="959.4186" x2="48.3387" y2="959.4186" gradientTransform="matrix(1 0 0 -1 0 992.6824)">
		<stop  offset="0" style="stop-color:#98C5CC"/>
		<stop  offset="0.17" style="stop-color:#8EBFC7"/>
		<stop  offset="0.45" style="stop-color:#75B0BA"/>
		<stop  offset="0.8" style="stop-color:#4C99A5"/>
		<stop  offset="0.99" style="stop-color:#338B99"/>
	</linearGradient>
	<path style="fill:url(#SVGID_00000034795313454670066930000008147124432573341056_);" d="M47.9,54.6c-7.1-6-13.3-13-18.5-20.8
		c-4.9-7.3-7.6-15.5-11.5-23.2c-0.7-1.4-3.1-0.8-3,0.8c1.2,18,16.8,36.1,31.5,45.3C47.6,57.4,49.1,55.5,47.9,54.6L47.9,54.6
		L47.9,54.6z"/>
	
		<linearGradient id="SVGID_00000075158316072930789600000005433687404947114116_" gradientUnits="userSpaceOnUse" x1="50.0613" y1="964.2557" x2="63.2294" y2="964.2557" gradientTransform="matrix(1 0 0 -1 0 992.6824)">
		<stop  offset="0" style="stop-color:#98C5CC"/>
		<stop  offset="0.17" style="stop-color:#8EBFC7"/>
		<stop  offset="0.45" style="stop-color:#75B0BA"/>
		<stop  offset="0.8" style="stop-color:#4C99A5"/>
		<stop  offset="0.99" style="stop-color:#338B99"/>
	</linearGradient>
	<path style="fill:url(#SVGID_00000075158316072930789600000005433687404947114116_);" d="M52.3,56.8c15.1-10.9,12-40.3,5.9-55.3
		c-1.3-3.2-6-2-5.2,1.4c3.8,15.7,8.4,37.5-2.6,51.4C49.4,55.7,50.7,58,52.3,56.8L52.3,56.8L52.3,56.8z"/>
	
		<linearGradient id="SVGID_00000119106753928401754260000000229542113600783035_" gradientUnits="userSpaceOnUse" x1="52.4744" y1="961.5524" x2="78.3446" y2="961.5524" gradientTransform="matrix(1 0 0 -1 0 992.6824)">
		<stop  offset="0" style="stop-color:#98C5CC"/>
		<stop  offset="0.17" style="stop-color:#8EBFC7"/>
		<stop  offset="0.45" style="stop-color:#75B0BA"/>
		<stop  offset="0.8" style="stop-color:#4C99A5"/>
		<stop  offset="0.99" style="stop-color:#338B99"/>
	</linearGradient>
	<path style="fill:url(#SVGID_00000119106753928401754260000000229542113600783035_);" d="M54.4,60.3c23.3-6.6,26-36.1,23-56.3
		c-0.5-3.6-6-2.1-5.5,1.5c2.6,18,0.5,43.8-18.6,52C51.6,58.2,52.8,60.7,54.4,60.3L54.4,60.3L54.4,60.3z"/>
	
		<linearGradient id="SVGID_00000165933485164766855080000005448266493112696732_" gradientUnits="userSpaceOnUse" x1="10.0079" y1="881.4614" x2="56.4193" y2="881.4614" gradientTransform="matrix(1 0 0 -1 0 992.6824)">
		<stop  offset="0" style="stop-color:#98C5CC"/>
		<stop  offset="0.17" style="stop-color:#8EBFC7"/>
		<stop  offset="0.45" style="stop-color:#75B0BA"/>
		<stop  offset="0.8" style="stop-color:#4C99A5"/>
		<stop  offset="0.99" style="stop-color:#338B99"/>
	</linearGradient>
	<path style="fill:url(#SVGID_00000165933485164766855080000005448266493112696732_);" d="M55.6,132.3
		c-21.1-6.7-31.7-23.9-40.4-43.1c-1.3-3-5.8-0.8-5.1,2.1c4.4,17.8,24.3,45.2,45.2,43.4C56.6,134.5,56.9,132.7,55.6,132.3L55.6,132.3
		L55.6,132.3z"/>
	
		<linearGradient id="SVGID_00000070100076284666768170000015868540189127752878_" gradientUnits="userSpaceOnUse" x1="28.5158" y1="881.664" x2="57.0169" y2="881.664" gradientTransform="matrix(1 0 0 -1 0 992.6824)">
		<stop  offset="0" style="stop-color:#98C5CC"/>
		<stop  offset="0.17" style="stop-color:#8EBFC7"/>
		<stop  offset="0.45" style="stop-color:#75B0BA"/>
		<stop  offset="0.8" style="stop-color:#4C99A5"/>
		<stop  offset="0.99" style="stop-color:#338B99"/>
	</linearGradient>
	<path style="fill:url(#SVGID_00000070100076284666768170000015868540189127752878_);" d="M56.8,132c-4.8-6.2-9.7-12.3-14.1-18.7
		c-4.9-7.3-7-15.1-9.4-23.3c-0.8-2.6-4.7-2.1-4.7,0.6c0.2,17,13.9,32.7,26.2,43C55.8,134.4,57.7,133.2,56.8,132L56.8,132L56.8,132z"
		/>
	
		<linearGradient id="SVGID_00000150781877058501146480000014385933068810844308_" gradientUnits="userSpaceOnUse" x1="41.239" y1="889.5544" x2="59.4521" y2="889.5544" gradientTransform="matrix(1 0 0 -1 0 992.6824)">
		<stop  offset="0" style="stop-color:#98C5CC"/>
		<stop  offset="0.17" style="stop-color:#8EBFC7"/>
		<stop  offset="0.45" style="stop-color:#75B0BA"/>
		<stop  offset="0.8" style="stop-color:#4C99A5"/>
		<stop  offset="0.99" style="stop-color:#338B99"/>
	</linearGradient>
	<path style="fill:url(#SVGID_00000150781877058501146480000014385933068810844308_);" d="M59.3,129.8c-4-9.2-7.6-17.2-9.3-27.2
		c-1.5-8.7-1-18.4-4.1-26.7c-0.9-2.5-4.5-2.1-4.6,0.6c-0.5,9.9,1.8,20.9,3.7,30.7c1.7,8.8,4.9,19.1,12.4,24.6
		C58.7,132.7,59.8,131,59.3,129.8L59.3,129.8L59.3,129.8z"/>
	
		<linearGradient id="SVGID_00000108284402237928134470000017524786041842129066_" gradientUnits="userSpaceOnUse" x1="54.9157" y1="890.6254" x2="73.405" y2="890.6254" gradientTransform="matrix(1 0 0 -1 0 992.6824)">
		<stop  offset="0" style="stop-color:#98C5CC"/>
		<stop  offset="0.17" style="stop-color:#8EBFC7"/>
		<stop  offset="0.45" style="stop-color:#75B0BA"/>
		<stop  offset="0.8" style="stop-color:#4C99A5"/>
		<stop  offset="0.99" style="stop-color:#338B99"/>
	</linearGradient>
	<path style="fill:url(#SVGID_00000108284402237928134470000017524786041842129066_);" d="M56.4,131.6C75.8,127.7,74,89,72.6,74.9
		c-0.3-3.2-4.6-3.2-4.9,0c-1.8,18.7,3.5,40.9-12.4,54.9C54.4,130.5,55.3,131.8,56.4,131.6L56.4,131.6L56.4,131.6z"/>
	
		<linearGradient id="SVGID_00000124123789447820689290000001415786860458206637_" gradientUnits="userSpaceOnUse" x1="54.6386" y1="886.4246" x2="88.0327" y2="886.4246" gradientTransform="matrix(1 0 0 -1 0 992.6824)">
		<stop  offset="0" style="stop-color:#98C5CC"/>
		<stop  offset="0.17" style="stop-color:#8EBFC7"/>
		<stop  offset="0.45" style="stop-color:#75B0BA"/>
		<stop  offset="0.8" style="stop-color:#4C99A5"/>
		<stop  offset="0.99" style="stop-color:#338B99"/>
	</linearGradient>
	<path style="fill:url(#SVGID_00000124123789447820689290000001415786860458206637_);" d="M56.1,133.6c22.1-0.7,32.4-34.1,32-52.2
		c-0.1-3.4-5.3-3.4-5.4,0c-0.4,16.5-7.8,45.8-27,49.3C54.1,131.1,54.4,133.7,56.1,133.6L56.1,133.6L56.1,133.6z"/>
	
		<linearGradient id="SVGID_00000163034637110087748480000011596334454769634462_" gradientUnits="userSpaceOnUse" x1="54.8596" y1="883.7628" x2="101.5505" y2="883.7628" gradientTransform="matrix(1 0 0 -1 0 992.6824)">
		<stop  offset="0" style="stop-color:#98C5CC"/>
		<stop  offset="0.17" style="stop-color:#8EBFC7"/>
		<stop  offset="0.45" style="stop-color:#75B0BA"/>
		<stop  offset="0.8" style="stop-color:#4C99A5"/>
		<stop  offset="0.99" style="stop-color:#338B99"/>
	</linearGradient>
	<path style="fill:url(#SVGID_00000163034637110087748480000011596334454769634462_);" d="M56.1,136.3c27.1-0.2,49.7-25.8,44.8-53
		c-0.5-2.8-4.6-2-4.8,0.6c-0.6,12.4-2,22.9-9.9,32.9c-7.6,9.6-18.9,14.3-30.5,17C54.4,134.2,54.7,136.3,56.1,136.3L56.1,136.3
		L56.1,136.3z"/>
	
		<linearGradient id="SVGID_00000033362523362594637970000001667597200692252555_" gradientUnits="userSpaceOnUse" x1="16.1875" y1="806.5335" x2="48.0755" y2="806.5335" gradientTransform="matrix(1 0 0 -1 0 992.6824)">
		<stop  offset="0" style="stop-color:#98C5CC"/>
		<stop  offset="0.17" style="stop-color:#8EBFC7"/>
		<stop  offset="0.45" style="stop-color:#75B0BA"/>
		<stop  offset="0.8" style="stop-color:#4C99A5"/>
		<stop  offset="0.99" style="stop-color:#338B99"/>
	</linearGradient>
	<path style="fill:url(#SVGID_00000033362523362594637970000001667597200692252555_);" d="M47.8,208.4c-6.6-6.2-13.9-10.3-19.2-17.9
		c-5.6-8-6.6-17.2-8-26.5c-0.4-2.6-4.1-1.7-4.3,0.6c-1.8,18,11.6,41.8,30.5,45.4C47.7,210.1,48.5,209.1,47.8,208.4L47.8,208.4
		L47.8,208.4z"/>
	
		<linearGradient id="SVGID_00000178916204230826066030000005934112559682410645_" gradientUnits="userSpaceOnUse" x1="27.4322" y1="811.6442" x2="48.2581" y2="811.6442" gradientTransform="matrix(1 0 0 -1 0 992.6824)">
		<stop  offset="0" style="stop-color:#98C5CC"/>
		<stop  offset="0.17" style="stop-color:#8EBFC7"/>
		<stop  offset="0.45" style="stop-color:#75B0BA"/>
		<stop  offset="0.8" style="stop-color:#4C99A5"/>
		<stop  offset="0.99" style="stop-color:#338B99"/>
	</linearGradient>
	<path style="fill:url(#SVGID_00000178916204230826066030000005934112559682410645_);" d="M48.1,207.4c-5.8-8-9.6-16-12.1-25.6
		c-2.4-9-2-18.2-3.8-27.2c-0.4-2-3.8-2.1-4.1,0c-2.7,16.1,4,45,18.5,54.3C47.5,209.5,48.7,208.3,48.1,207.4L48.1,207.4L48.1,207.4z"
		/>
	
		<linearGradient id="SVGID_00000141435910740893409900000011412619476772013737_" gradientUnits="userSpaceOnUse" x1="41.0136" y1="811.3247" x2="49.1503" y2="811.3247" gradientTransform="matrix(1 0 0 -1 0 992.6824)">
		<stop  offset="0" style="stop-color:#98C5CC"/>
		<stop  offset="0.17" style="stop-color:#8EBFC7"/>
		<stop  offset="0.45" style="stop-color:#75B0BA"/>
		<stop  offset="0.8" style="stop-color:#4C99A5"/>
		<stop  offset="0.99" style="stop-color:#338B99"/>
	</linearGradient>
	<path style="fill:url(#SVGID_00000141435910740893409900000011412619476772013737_);" d="M49.1,206c-2-8.4-3.1-16.6-3.2-25.2
		c-0.1-8,1.9-15.9,1.5-23.7c-0.1-1.9-2.5-2.1-3.2-0.4c-5.6,14.4-3.3,36.3,3.2,50.1C47.9,207.8,49.4,207,49.1,206L49.1,206L49.1,206z
		"/>
	
		<linearGradient id="SVGID_00000008109812754096419290000014094466259108747165_" gradientUnits="userSpaceOnUse" x1="49.9752" y1="812.2549" x2="69.2318" y2="812.2549" gradientTransform="matrix(1 0 0 -1 0 992.6824)">
		<stop  offset="0" style="stop-color:#98C5CC"/>
		<stop  offset="0.17" style="stop-color:#8EBFC7"/>
		<stop  offset="0.45" style="stop-color:#75B0BA"/>
		<stop  offset="0.8" style="stop-color:#4C99A5"/>
		<stop  offset="0.99" style="stop-color:#338B99"/>
	</linearGradient>
	<path style="fill:url(#SVGID_00000008109812754096419290000014094466259108747165_);" d="M51.5,209.9c15-10.2,20.6-41,16.4-57.5
		c-0.6-2.5-3.9-1.7-4.1,0.6c-1.1,9.8-0.6,19.4-2.6,29.2c-2,9.8-7.2,17.6-11,26.6C49.7,209.6,50.8,210.3,51.5,209.9L51.5,209.9
		L51.5,209.9z"/>
	
		<linearGradient id="SVGID_00000005955623241261535670000003529735760092486294_" gradientUnits="userSpaceOnUse" x1="48.5616" y1="810.7092" x2="81.618" y2="810.7092" gradientTransform="matrix(1 0 0 -1 0 992.6824)">
		<stop  offset="0" style="stop-color:#98C5CC"/>
		<stop  offset="0.17" style="stop-color:#8EBFC7"/>
		<stop  offset="0.45" style="stop-color:#75B0BA"/>
		<stop  offset="0.8" style="stop-color:#4C99A5"/>
		<stop  offset="0.99" style="stop-color:#338B99"/>
	</linearGradient>
	<path style="fill:url(#SVGID_00000005955623241261535670000003529735760092486294_);" d="M50.2,209.8c21.7-6.5,34.1-32.5,30.9-54.1
		c-0.3-2.1-3.8-2-4.2,0c-1.7,9.3-2,18.4-5.3,27.4c-4.1,11.1-12.4,18.6-22.4,24.2C47.9,208.1,48.8,210.2,50.2,209.8L50.2,209.8
		L50.2,209.8z"/>
	
		<linearGradient id="SVGID_00000000917752798024068360000009697129379961618602_" gradientUnits="userSpaceOnUse" x1="48.3347" y1="804.7874" x2="93.8162" y2="804.7874" gradientTransform="matrix(1 0 0 -1 0 992.6824)">
		<stop  offset="0" style="stop-color:#98C5CC"/>
		<stop  offset="0.17" style="stop-color:#8EBFC7"/>
		<stop  offset="0.45" style="stop-color:#75B0BA"/>
		<stop  offset="0.8" style="stop-color:#4C99A5"/>
		<stop  offset="0.99" style="stop-color:#338B99"/>
	</linearGradient>
	<path style="fill:url(#SVGID_00000000917752798024068360000009697129379961618602_);" d="M49.9,210.6c22.6,1.9,44.5-22,43.9-43.9
		c0-1.3-1.8-2.2-2.7-1.1c-5.4,6.5-6.1,16.2-10.3,23.5c-5.6,9.9-19.8,17.6-30.9,18.3C47.8,207.6,47.8,210.5,49.9,210.6L49.9,210.6z"
		/>
	
		<linearGradient id="SVGID_00000004542231040656603610000004112119472369333164_" gradientUnits="userSpaceOnUse" x1="7.7459" y1="740.284" x2="46.816" y2="740.284" gradientTransform="matrix(1 0 0 -1 0 992.6824)">
		<stop  offset="0" style="stop-color:#98C5CC"/>
		<stop  offset="0.17" style="stop-color:#8EBFC7"/>
		<stop  offset="0.45" style="stop-color:#75B0BA"/>
		<stop  offset="0.8" style="stop-color:#4C99A5"/>
		<stop  offset="0.99" style="stop-color:#338B99"/>
	</linearGradient>
	<path style="fill:url(#SVGID_00000004542231040656603610000004112119472369333164_);" d="M46.2,280.5
		c-23.8-10.2-28.6-34.6-33.4-57.2c-0.6-2.9-5-2.1-5,0.7c0.1,15.4,5.3,30.7,14.4,43c4.5,6,15.1,19.7,24,15.9
		C47,282.4,47,280.8,46.2,280.5L46.2,280.5z"/>
	
		<linearGradient id="SVGID_00000091011432180431426910000004546237677998515110_" gradientUnits="userSpaceOnUse" x1="26.2405" y1="744.0043" x2="50.7917" y2="744.0043" gradientTransform="matrix(1 0 0 -1 0 992.6824)">
		<stop  offset="0" style="stop-color:#98C5CC"/>
		<stop  offset="0.17" style="stop-color:#8EBFC7"/>
		<stop  offset="0.45" style="stop-color:#75B0BA"/>
		<stop  offset="0.8" style="stop-color:#4C99A5"/>
		<stop  offset="0.99" style="stop-color:#338B99"/>
	</linearGradient>
	<path style="fill:url(#SVGID_00000091011432180431426910000004546237677998515110_);" d="M50.4,280.6
		c-16.9-17.3-16.8-41.4-18.9-63.9c-0.3-3.2-4.7-3.2-4.9,0c-1.7,22.6,4.1,50.4,21.8,65.9C49.7,283.9,51.7,281.9,50.4,280.6
		L50.4,280.6L50.4,280.6z"/>
	
		<linearGradient id="SVGID_00000111179138389006930540000018281086438672152451_" gradientUnits="userSpaceOnUse" x1="45.6898" y1="741.4893" x2="65.5629" y2="741.4893" gradientTransform="matrix(1 0 0 -1 0 992.6824)">
		<stop  offset="0" style="stop-color:#98C5CC"/>
		<stop  offset="0.17" style="stop-color:#8EBFC7"/>
		<stop  offset="0.45" style="stop-color:#75B0BA"/>
		<stop  offset="0.8" style="stop-color:#4C99A5"/>
		<stop  offset="0.99" style="stop-color:#338B99"/>
	</linearGradient>
	<path style="fill:url(#SVGID_00000111179138389006930540000018281086438672152451_);" d="M47.5,280.8c10-3.6,13.7-13.2,15.6-22.9
		c1.9-9.8,4.1-25.5,0.7-35.1c-0.6-1.8-3-1.8-3.6,0c-2.4,7-0.4,16.5-0.8,23.9c-0.5,11.2-2.2,25.4-13,31.4
		C45,278.9,45.9,281.4,47.5,280.8L47.5,280.8L47.5,280.8z"/>
	
		<linearGradient id="SVGID_00000081615603114587501380000013937577420692441258_" gradientUnits="userSpaceOnUse" x1="46.8254" y1="738.7047" x2="83.6872" y2="738.7047" gradientTransform="matrix(1 0 0 -1 0 992.6824)">
		<stop  offset="0" style="stop-color:#98C5CC"/>
		<stop  offset="0.17" style="stop-color:#8EBFC7"/>
		<stop  offset="0.45" style="stop-color:#75B0BA"/>
		<stop  offset="0.8" style="stop-color:#4C99A5"/>
		<stop  offset="0.99" style="stop-color:#338B99"/>
	</linearGradient>
	<path style="fill:url(#SVGID_00000081615603114587501380000013937577420692441258_);" d="M48.6,281.4c22.8-5.5,36.7-30.1,34.9-53.1
		c-0.2-2-2.8-2.3-3.5-0.5c-3.2,8.3-3.8,17.6-6.9,26c-4.4,12.1-13.4,20.4-25.3,24.7C46.1,279.2,46.8,281.8,48.6,281.4L48.6,281.4
		L48.6,281.4z"/>
	
		<linearGradient id="SVGID_00000066515430509029053670000007893630328910576812_" gradientUnits="userSpaceOnUse" x1="47.3435" y1="729.074" x2="100.1361" y2="729.074" gradientTransform="matrix(1 0 0 -1 0 992.6824)">
		<stop  offset="0" style="stop-color:#98C5CC"/>
		<stop  offset="0.17" style="stop-color:#8EBFC7"/>
		<stop  offset="0.45" style="stop-color:#75B0BA"/>
		<stop  offset="0.8" style="stop-color:#4C99A5"/>
		<stop  offset="0.99" style="stop-color:#338B99"/>
	</linearGradient>
	<path style="fill:url(#SVGID_00000066515430509029053670000007893630328910576812_);" d="M48.8,283.1c19.2,2.2,48.1-17.1,51.3-36.7
		c0.3-2.1-2.3-3.4-3.5-1.5c-10.9,17.5-26.1,33.3-47.8,35.2C46.8,280.3,46.9,282.9,48.8,283.1L48.8,283.1z"/>
	
		<linearGradient id="SVGID_00000049943936726268478050000015647424307966681481_" gradientUnits="userSpaceOnUse" x1="18.4016" y1="659.0216" x2="68.183" y2="659.0216" gradientTransform="matrix(1 0 0 -1 0 992.6824)">
		<stop  offset="0" style="stop-color:#98C5CC"/>
		<stop  offset="0.17" style="stop-color:#8EBFC7"/>
		<stop  offset="0.45" style="stop-color:#75B0BA"/>
		<stop  offset="0.8" style="stop-color:#4C99A5"/>
		<stop  offset="0.99" style="stop-color:#338B99"/>
	</linearGradient>
	<path style="fill:url(#SVGID_00000049943936726268478050000015647424307966681481_);" d="M66.8,350.6
		c-21.3,0.1-35.4-18.3-43.5-35.8c-1.3-2.7-5.6-0.8-4.8,2c5.5,19.7,27.1,40.5,48.7,36.5C68.8,353.1,68.4,350.6,66.8,350.6L66.8,350.6
		L66.8,350.6z"/>
	
		<linearGradient id="SVGID_00000077321828415096454990000004436633737355971229_" gradientUnits="userSpaceOnUse" x1="30.4355" y1="664.685" x2="67.1066" y2="664.685" gradientTransform="matrix(1 0 0 -1 0 992.6824)">
		<stop  offset="0" style="stop-color:#98C5CC"/>
		<stop  offset="0.17" style="stop-color:#8EBFC7"/>
		<stop  offset="0.45" style="stop-color:#75B0BA"/>
		<stop  offset="0.8" style="stop-color:#4C99A5"/>
		<stop  offset="0.99" style="stop-color:#338B99"/>
	</linearGradient>
	<path style="fill:url(#SVGID_00000077321828415096454990000004436633737355971229_);" d="M66.6,348.5C50.1,338,42,323.7,34.4,306.4
		c-1.1-2.4-4.3-0.6-3.9,1.7c2.9,17.3,18.7,36.6,35.2,42.6C67,351.2,67.7,349.2,66.6,348.5L66.6,348.5L66.6,348.5z"/>
	
		<linearGradient id="SVGID_00000105390609519881622930000012891342271497724295_" gradientUnits="userSpaceOnUse" x1="43.0757" y1="666.8179" x2="65.6053" y2="666.8179" gradientTransform="matrix(1 0 0 -1 0 992.6824)">
		<stop  offset="0" style="stop-color:#98C5CC"/>
		<stop  offset="0.17" style="stop-color:#8EBFC7"/>
		<stop  offset="0.45" style="stop-color:#75B0BA"/>
		<stop  offset="0.8" style="stop-color:#4C99A5"/>
		<stop  offset="0.99" style="stop-color:#338B99"/>
	</linearGradient>
	<path style="fill:url(#SVGID_00000105390609519881622930000012891342271497724295_);" d="M65.4,346c-9.7-12.6-13-26.2-18.6-40.7
		c-0.9-2.3-4-1.4-3.6,1c2.1,13.7,9.2,32.3,20.3,41.2C64.4,348.3,66.3,347.2,65.4,346L65.4,346L65.4,346z"/>
	
		<linearGradient id="SVGID_00000155830781794199832430000000517970707475248824_" gradientUnits="userSpaceOnUse" x1="60.2999" y1="666.2662" x2="69.9067" y2="666.2662" gradientTransform="matrix(1 0 0 -1 0 992.6824)">
		<stop  offset="0" style="stop-color:#98C5CC"/>
		<stop  offset="0.17" style="stop-color:#8EBFC7"/>
		<stop  offset="0.45" style="stop-color:#75B0BA"/>
		<stop  offset="0.8" style="stop-color:#4C99A5"/>
		<stop  offset="0.99" style="stop-color:#338B99"/>
	</linearGradient>
	<path style="fill:url(#SVGID_00000155830781794199832430000000517970707475248824_);" d="M69.9,348.7c-0.6-14.4-0.2-30.7-5.8-44.2
		c-0.9-2.3-4.4-1.5-3.8,1c3.6,14.3,3.4,29.4,7.5,43.5C68.2,350.1,69.9,349.9,69.9,348.7L69.9,348.7L69.9,348.7z"/>
	
		<linearGradient id="SVGID_00000027567540642262009630000009656940413789294724_" gradientUnits="userSpaceOnUse" x1="68.206" y1="671.0417" x2="78.4469" y2="671.0417" gradientTransform="matrix(1 0 0 -1 0 992.6824)">
		<stop  offset="0" style="stop-color:#98C5CC"/>
		<stop  offset="0.17" style="stop-color:#8EBFC7"/>
		<stop  offset="0.45" style="stop-color:#75B0BA"/>
		<stop  offset="0.8" style="stop-color:#4C99A5"/>
		<stop  offset="0.99" style="stop-color:#338B99"/>
	</linearGradient>
	<path style="fill:url(#SVGID_00000027567540642262009630000009656940413789294724_);" d="M71.1,349.5c6.7-17.7,9.4-36.6,5.8-55.3
		c-0.4-2.1-3.8-1.6-3.7,0.5c0.8,18.7,0.9,36-4.9,54C67.7,350.5,70.4,351.2,71.1,349.5L71.1,349.5L71.1,349.5z"/>
	
		<linearGradient id="SVGID_00000047754697024774428830000007138767616073852314_" gradientUnits="userSpaceOnUse" x1="67.6388" y1="664.5966" x2="89.5004" y2="664.5966" gradientTransform="matrix(1 0 0 -1 0 992.6824)">
		<stop  offset="0" style="stop-color:#98C5CC"/>
		<stop  offset="0.17" style="stop-color:#8EBFC7"/>
		<stop  offset="0.45" style="stop-color:#75B0BA"/>
		<stop  offset="0.8" style="stop-color:#4C99A5"/>
		<stop  offset="0.99" style="stop-color:#338B99"/>
	</linearGradient>
	<path style="fill:url(#SVGID_00000047754697024774428830000007138767616073852314_);" d="M70.1,350.9c14.9-8.6,18.4-28,19.4-43.9
		c0.1-2.4-3.6-2.9-4.1-0.6c-3.1,14.8-2.5,32.5-17,41.6C66.6,349.2,68.2,352,70.1,350.9L70.1,350.9L70.1,350.9z"/>
</g>
<g>
	
		<linearGradient id="SVGID_00000035493958141556451690000013598071026329604530_" gradientUnits="userSpaceOnUse" x1="131.2118" y1="737.3527" x2="152.0356" y2="737.3527" gradientTransform="matrix(1 0 0 -1 0 992.6824)">
		<stop  offset="0" style="stop-color:#98C5CC"/>
		<stop  offset="0.17" style="stop-color:#8EBFC7"/>
		<stop  offset="0.45" style="stop-color:#75B0BA"/>
		<stop  offset="0.8" style="stop-color:#4C99A5"/>
		<stop  offset="0.99" style="stop-color:#338B99"/>
	</linearGradient>
	<path style="fill:url(#SVGID_00000035493958141556451690000013598071026329604530_);" d="M149.3,377.8
		c-11-15.7-12.1-40.2-12.8-58.6c-0.9-23.1,3.8-46,7.7-68.6c6.7-38.5,12.2-79.5,2.9-118c-0.6-2.3-4.5-1.8-4.2,0.6
		c6.5,50.9-1.6,97.3-8.8,147.6c-4.1,28.5-6.9,74.6,13.4,98.5C148.3,380.2,150.1,378.9,149.3,377.8L149.3,377.8L149.3,377.8z"/>
	
		<linearGradient id="SVGID_00000120553335707906115620000013338518548381887677_" gradientUnits="userSpaceOnUse" x1="127.0834" y1="836.2206" x2="149.2325" y2="836.2206" gradientTransform="matrix(1 0 0 -1 0 992.6824)">
		<stop  offset="0" style="stop-color:#98C5CC"/>
		<stop  offset="0.17" style="stop-color:#8EBFC7"/>
		<stop  offset="0.45" style="stop-color:#75B0BA"/>
		<stop  offset="0.8" style="stop-color:#4C99A5"/>
		<stop  offset="0.99" style="stop-color:#338B99"/>
	</linearGradient>
	<path style="fill:url(#SVGID_00000120553335707906115620000013338518548381887677_);" d="M148.5,174.7
		c-7.2-4.6-11.1-11.5-13.6-19.5c-1.9-6.1-0.8-13.4-3.4-19c-0.6-1.2-2.5-1.1-3.1,0c-3.4,6.5,0.8,17.8,3.2,24.1
		c2.9,7.4,7.8,14.9,15.8,17.2C149.1,178,149.9,175.6,148.5,174.7L148.5,174.7L148.5,174.7z"/>
	
		<linearGradient id="SVGID_00000134249127089860565260000008804459595168187545_" gradientUnits="userSpaceOnUse" x1="109.051" y1="833.3828" x2="149.1324" y2="833.3828" gradientTransform="matrix(1 0 0 -1 0 992.6824)">
		<stop  offset="0" style="stop-color:#98C5CC"/>
		<stop  offset="0.17" style="stop-color:#8EBFC7"/>
		<stop  offset="0.45" style="stop-color:#75B0BA"/>
		<stop  offset="0.8" style="stop-color:#4C99A5"/>
		<stop  offset="0.99" style="stop-color:#338B99"/>
	</linearGradient>
	<path style="fill:url(#SVGID_00000134249127089860565260000008804459595168187545_);" d="M147.7,174.7c-9.5-0.7-16.2-2.1-23.4-8.9
		c-6.1-5.7-10.1-14.1-8.9-22.4c0.6-3.8-4.9-5.5-5.8-1.6c-2.5,10.5,3.4,20.9,10.7,28c6.6,6.5,19.1,12.5,28.1,7.5
		C149.7,176.5,149.1,174.8,147.7,174.7L147.7,174.7L147.7,174.7z"/>
	
		<linearGradient id="SVGID_00000079488207047740309690000007077665352653668250_" gradientUnits="userSpaceOnUse" x1="148.8927" y1="839.9182" x2="164.2024" y2="839.9182" gradientTransform="matrix(1 0 0 -1 0 992.6824)">
		<stop  offset="0" style="stop-color:#98C5CC"/>
		<stop  offset="0.17" style="stop-color:#8EBFC7"/>
		<stop  offset="0.45" style="stop-color:#75B0BA"/>
		<stop  offset="0.8" style="stop-color:#4C99A5"/>
		<stop  offset="0.99" style="stop-color:#338B99"/>
	</linearGradient>
	<path style="fill:url(#SVGID_00000079488207047740309690000007077665352653668250_);" d="M151.3,177.4c13.2-10,15-33.2,11-48.1
		c-0.6-2.3-3.8-1.7-3.9,0.5c-1,17,1.9,30.6-9.2,45.4C148.2,176.5,150.1,178.3,151.3,177.4L151.3,177.4z"/>
	
		<linearGradient id="SVGID_00000113326259539282710840000003647838945470124177_" gradientUnits="userSpaceOnUse" x1="149.1412" y1="836.8632" x2="178.5305" y2="836.8632" gradientTransform="matrix(1 0 0 -1 0 992.6824)">
		<stop  offset="0" style="stop-color:#98C5CC"/>
		<stop  offset="0.17" style="stop-color:#8EBFC7"/>
		<stop  offset="0.45" style="stop-color:#75B0BA"/>
		<stop  offset="0.8" style="stop-color:#4C99A5"/>
		<stop  offset="0.99" style="stop-color:#338B99"/>
	</linearGradient>
	<path style="fill:url(#SVGID_00000113326259539282710840000003647838945470124177_);" d="M150.5,179.6c22.6,1.1,30-27.1,27.6-45.4
		c-0.3-2.5-3.7-3.3-4.5-0.6c-2.3,7.4-1.6,15.7-3.2,23.3c-2.5,11.4-9.4,16.6-20.2,19.9C148.6,177.4,148.9,179.5,150.5,179.6
		L150.5,179.6L150.5,179.6z"/>
	
		<linearGradient id="SVGID_00000064317767599178215470000013155126707518242452_" gradientUnits="userSpaceOnUse" x1="134.796" y1="783.3359" x2="145.8034" y2="783.3359" gradientTransform="matrix(1 0 0 -1 0 992.6824)">
		<stop  offset="0" style="stop-color:#98C5CC"/>
		<stop  offset="0.17" style="stop-color:#8EBFC7"/>
		<stop  offset="0.45" style="stop-color:#75B0BA"/>
		<stop  offset="0.8" style="stop-color:#4C99A5"/>
		<stop  offset="0.99" style="stop-color:#338B99"/>
	</linearGradient>
	<path style="fill:url(#SVGID_00000064317767599178215470000013155126707518242452_);" d="M145.8,229.9c-1.1-6.9-3.7-13.1-4.4-20.2
		c-0.7-6.6,0.5-13.3,0-19.9c-0.2-2.7-4.3-3.6-5-0.7c-2.8,11.7-2.8,33.4,7.3,42C144.7,231.9,146,231.1,145.8,229.9L145.8,229.9
		L145.8,229.9z"/>
	
		<linearGradient id="SVGID_00000020377680131514777360000006486469328776744099_" gradientUnits="userSpaceOnUse" x1="121.9914" y1="782.439" x2="145.183" y2="782.439" gradientTransform="matrix(1 0 0 -1 0 992.6824)">
		<stop  offset="0" style="stop-color:#98C5CC"/>
		<stop  offset="0.17" style="stop-color:#8EBFC7"/>
		<stop  offset="0.45" style="stop-color:#75B0BA"/>
		<stop  offset="0.8" style="stop-color:#4C99A5"/>
		<stop  offset="0.99" style="stop-color:#338B99"/>
	</linearGradient>
	<path style="fill:url(#SVGID_00000020377680131514777360000006486469328776744099_);" d="M144.1,229.2c-8.5-3.1-11.6-9.2-13.9-17.7
		c-1.1-4.2-1.6-8.5-1.7-12.8c-0.1-2.9,0.6-6-0.1-8.8c-0.6-2.1-3.4-2.3-4.5-0.6c-4.4,7-0.1,21.6,2.5,28.6c2.6,7,9.1,16,17.7,14
		C145.6,231.7,145.4,229.7,144.1,229.2L144.1,229.2L144.1,229.2z"/>
	
		<linearGradient id="SVGID_00000119093462311785621900000017768302525427306112_" gradientUnits="userSpaceOnUse" x1="106.3928" y1="776.303" x2="146.2723" y2="776.303" gradientTransform="matrix(1 0 0 -1 0 992.6824)">
		<stop  offset="0" style="stop-color:#98C5CC"/>
		<stop  offset="0.17" style="stop-color:#8EBFC7"/>
		<stop  offset="0.45" style="stop-color:#75B0BA"/>
		<stop  offset="0.8" style="stop-color:#4C99A5"/>
		<stop  offset="0.99" style="stop-color:#338B99"/>
	</linearGradient>
	<path style="fill:url(#SVGID_00000119093462311785621900000017768302525427306112_);" d="M145,233.1c-8.8-1.3-16.3-4.5-22.9-10.5
		c-7.7-6.9-8.8-14.5-9.7-24.1c-0.3-2.9-3.8-3.2-4.9-0.7c-3.9,9.4,2.9,20.6,9.1,27.4c6.9,7.5,18.1,13,28.4,11.2
		C146.7,236.1,146.7,233.3,145,233.1L145,233.1L145,233.1z"/>
	
		<linearGradient id="SVGID_00000033368605920914376350000001535155796376679564_" gradientUnits="userSpaceOnUse" x1="143.4675" y1="781.9784" x2="169.5882" y2="781.9784" gradientTransform="matrix(1 0 0 -1 0 992.6824)">
		<stop  offset="0" style="stop-color:#98C5CC"/>
		<stop  offset="0.17" style="stop-color:#8EBFC7"/>
		<stop  offset="0.45" style="stop-color:#75B0BA"/>
		<stop  offset="0.8" style="stop-color:#4C99A5"/>
		<stop  offset="0.99" style="stop-color:#338B99"/>
	</linearGradient>
	<path style="fill:url(#SVGID_00000033368605920914376350000001535155796376679564_);" d="M144.6,232.5c17.1,5.5,24.6-31.2,25-41.9
		c0.1-2.3-3.3-3.2-4.3-1.2c-6.7,12.9-2.8,36-20.7,40.1C143,229.9,143.2,232.1,144.6,232.5L144.6,232.5L144.6,232.5z"/>
	
		<linearGradient id="SVGID_00000177465102605251778040000012479954866701858476_" gradientUnits="userSpaceOnUse" x1="140.7927" y1="778.5739" x2="188.147" y2="778.5739" gradientTransform="matrix(1 0 0 -1 0 992.6824)">
		<stop  offset="0" style="stop-color:#98C5CC"/>
		<stop  offset="0.17" style="stop-color:#8EBFC7"/>
		<stop  offset="0.45" style="stop-color:#75B0BA"/>
		<stop  offset="0.8" style="stop-color:#4C99A5"/>
		<stop  offset="0.99" style="stop-color:#338B99"/>
	</linearGradient>
	<path style="fill:url(#SVGID_00000177465102605251778040000012479954866701858476_);" d="M143,237.7c11.8-3.2,23.4-5.9,32.5-14.4
		c7.9-7.2,12.3-20.2,12.6-30.6c0.1-2.8-3.7-2.9-4.6-0.6c-3.7,9.8-4.6,19.2-11.9,27.4c-7.5,8.3-19.5,11.2-29.7,14.8
		C139.9,235,140.7,238.3,143,237.7L143,237.7L143,237.7z"/>
	
		<linearGradient id="SVGID_00000181796819714106935740000011952516218037562807_" gradientUnits="userSpaceOnUse" x1="124.4182" y1="723.7473" x2="135.1546" y2="723.7473" gradientTransform="matrix(1 0 0 -1 0 992.6824)">
		<stop  offset="0" style="stop-color:#98C5CC"/>
		<stop  offset="0.17" style="stop-color:#8EBFC7"/>
		<stop  offset="0.45" style="stop-color:#75B0BA"/>
		<stop  offset="0.8" style="stop-color:#4C99A5"/>
		<stop  offset="0.99" style="stop-color:#338B99"/>
	</linearGradient>
	<path style="fill:url(#SVGID_00000181796819714106935740000011952516218037562807_);" d="M134.5,285.4c-7.2-6.9-5.3-24.3-3.6-33.1
		c0.7-3.3-3.8-4.4-4.9-1.4c-2.5,6.4-1.6,14.6-0.8,21.2c0.6,5.2,1.6,13.7,7,16.3C134.1,289.4,136.2,287,134.5,285.4L134.5,285.4
		L134.5,285.4z"/>
	
		<linearGradient id="SVGID_00000054231703330289515420000011820002478788339332_" gradientUnits="userSpaceOnUse" x1="113.4665" y1="723.4479" x2="133.3544" y2="723.4479" gradientTransform="matrix(1 0 0 -1 0 992.6824)">
		<stop  offset="0" style="stop-color:#98C5CC"/>
		<stop  offset="0.17" style="stop-color:#8EBFC7"/>
		<stop  offset="0.45" style="stop-color:#75B0BA"/>
		<stop  offset="0.8" style="stop-color:#4C99A5"/>
		<stop  offset="0.99" style="stop-color:#338B99"/>
	</linearGradient>
	<path style="fill:url(#SVGID_00000054231703330289515420000011820002478788339332_);" d="M132.6,288.6
		c-6.8-4.9-10.7-11.7-12.7-19.7c-1.7-7,0.3-13.2,0.6-20.1c0.1-2.1-2.7-2.6-3.8-1c-9,14.1,1.3,35.9,14.1,43.7
		C132.8,292.5,134.3,289.8,132.6,288.6L132.6,288.6L132.6,288.6z"/>
	
		<linearGradient id="SVGID_00000097471982892191684290000005460269718751503526_" gradientUnits="userSpaceOnUse" x1="104.6663" y1="723.0109" x2="132.9586" y2="723.0109" gradientTransform="matrix(1 0 0 -1 0 992.6824)">
		<stop  offset="0" style="stop-color:#98C5CC"/>
		<stop  offset="0.17" style="stop-color:#8EBFC7"/>
		<stop  offset="0.45" style="stop-color:#75B0BA"/>
		<stop  offset="0.8" style="stop-color:#4C99A5"/>
		<stop  offset="0.99" style="stop-color:#338B99"/>
	</linearGradient>
	<path style="fill:url(#SVGID_00000097471982892191684290000005460269718751503526_);" d="M132.4,291c-5.6-3.9-10.3-6.7-14.3-12.5
		c-6.3-9.1-6.9-20-7.9-30.6c-0.3-3.4-5.2-3.5-5.4,0c-0.8,12.4,2.8,25.6,10.3,35.6c2.8,3.7,12,13.6,17.3,9.6
		C133.1,292.5,133.2,291.6,132.4,291L132.4,291L132.4,291z"/>
	
		<linearGradient id="SVGID_00000072994641992353937450000010149601166488384407_" gradientUnits="userSpaceOnUse" x1="134.511" y1="723.0973" x2="154.5734" y2="723.0973" gradientTransform="matrix(1 0 0 -1 0 992.6824)">
		<stop  offset="0" style="stop-color:#98C5CC"/>
		<stop  offset="0.17" style="stop-color:#8EBFC7"/>
		<stop  offset="0.45" style="stop-color:#75B0BA"/>
		<stop  offset="0.8" style="stop-color:#4C99A5"/>
		<stop  offset="0.99" style="stop-color:#338B99"/>
	</linearGradient>
	<path style="fill:url(#SVGID_00000072994641992353937450000010149601166488384407_);" d="M136.3,289.3c6.4-1.5,10.6-9.6,13.1-15.1
		c2.8-6,6.9-16.5,4.3-23.1c-0.6-1.4-2.5-1.9-3.3-0.4c-2.9,5-2.8,12.1-4.5,17.6c-1.1,3.6-2.7,7-4.6,10.3c-1.8,3.2-4.8,5.4-6.6,8.6
		C134.1,288.3,135.1,289.6,136.3,289.3L136.3,289.3z"/>
	
		<linearGradient id="SVGID_00000001646566000432970810000000805154833365345983_" gradientUnits="userSpaceOnUse" x1="132.6585" y1="718.3575" x2="170.969" y2="718.3575" gradientTransform="matrix(1 0 0 -1 0 992.6824)">
		<stop  offset="0" style="stop-color:#98C5CC"/>
		<stop  offset="0.17" style="stop-color:#8EBFC7"/>
		<stop  offset="0.45" style="stop-color:#75B0BA"/>
		<stop  offset="0.8" style="stop-color:#4C99A5"/>
		<stop  offset="0.99" style="stop-color:#338B99"/>
	</linearGradient>
	<path style="fill:url(#SVGID_00000001646566000432970810000000805154833365345983_);" d="M133.4,291.8c8.6,4.2,16.5-1.4,22.3-7.7
		c3.8-4.1,6.9-9,9.7-13.9c2.2-3.8,5.2-8.3,5.5-12.9c0.1-1.7-2.3-2.8-3.5-1.5c-4.5,5.2-6.8,12.9-10.6,18.7
		c-4.5,7-12.6,17.8-22.2,14.2C133,288.2,131.8,291,133.4,291.8L133.4,291.8L133.4,291.8z"/>
	
		<linearGradient id="SVGID_00000109746814987371757110000013399765956512519061_" gradientUnits="userSpaceOnUse" x1="129.8118" y1="712.0219" x2="179.9482" y2="712.0219" gradientTransform="matrix(1 0 0 -1 0 992.6824)">
		<stop  offset="0" style="stop-color:#98C5CC"/>
		<stop  offset="0.17" style="stop-color:#8EBFC7"/>
		<stop  offset="0.45" style="stop-color:#75B0BA"/>
		<stop  offset="0.8" style="stop-color:#4C99A5"/>
		<stop  offset="0.99" style="stop-color:#338B99"/>
	</linearGradient>
	<path style="fill:url(#SVGID_00000109746814987371757110000013399765956512519061_);" d="M130.8,295c19.7,9.4,45.8-7.1,49.1-28.3
		c0.4-2.5-3-4.5-4.5-1.9c-8.8,16.1-22.1,34.5-43.1,26.5C130.2,290.6,128.8,294,130.8,295L130.8,295L130.8,295z"/>
</g>
</svg>
