<?xml version="1.0" encoding="utf-8"?>
<!-- Generator: Adobe Illustrator 27.0.1, SVG Export Plug-In . SVG Version: 6.00 Build 0)  -->
<svg version="1.1" id="coral" xmlns="http://www.w3.org/2000/svg" xmlns:xlink="http://www.w3.org/1999/xlink" x="0px" y="0px"
	 viewBox="0 0 227.1 278.5" style="enable-background:new 0 0 227.1 278.5;" xml:space="preserve">
<style type="text/css">
	.st0{fill:url(#SVGID_1_);}
	.st1{fill:url(#SVGID_00000148661508368656939930000000014190323097024684_);}
	.st2{fill:url(#SVGID_00000084527357970471302400000016476819181065906363_);}
	.st3{fill:url(#SVGID_00000140711588719791593070000004330985828494148790_);}
	.st4{fill:url(#SVGID_00000111881836121257107470000008143704438449356424_);}
	.st5{fill:url(#SVGID_00000068636893644447122140000008834038094930944419_);}
	.st6{fill:url(#SVGID_00000005985709793960334830000001104718657503637649_);}
	.st7{fill:url(#SVGID_00000107558857637567869720000002143723160715162794_);}
</style>
<linearGradient id="SVGID_1_" gradientUnits="userSpaceOnUse" x1="0" y1="795.4989" x2="90.3618" y2="795.4989" gradientTransform="matrix(1 0 0 -1 0 993.2557)">
	<stop  offset="0" style="stop-color:#C0D3CF"/>
	<stop  offset="0.24" style="stop-color:#B6CCC7"/>
	<stop  offset="0.64" style="stop-color:#9DBAB4"/>
	<stop  offset="0.99" style="stop-color:#82A8A0"/>
</linearGradient>
<path class="st0" d="M88.5,272.3c0,0-9.2,14-20.7,0c-12.5-15.4-28.2-60-50.9-87.4c-43.4-52.4,7.5-84.1,34.1-59.3
	C77.6,150.3,96.6,209.2,88.5,272.3L88.5,272.3z"/>
<linearGradient id="SVGID_00000183970262399311245720000016696627518974819509_" gradientUnits="userSpaceOnUse" x1="8.1784" y1="853.2191" x2="38.1672" y2="853.2191" gradientTransform="matrix(1 0 0 -1 0 993.2557)">
	<stop  offset="0" style="stop-color:#C0D3CF"/>
	<stop  offset="0.24" style="stop-color:#B6CCC7"/>
	<stop  offset="0.64" style="stop-color:#9DBAB4"/>
	<stop  offset="0.99" style="stop-color:#82A8A0"/>
</linearGradient>
<path style="fill:url(#SVGID_00000183970262399311245720000016696627518974819509_);" d="M18,131.1c0,0-17.1,13-6.2,20.6
	s28.8-10.4,26-20.6C35.1,120.9,18,131.1,18,131.1z"/>
<linearGradient id="SVGID_00000157998209739741498060000009936768840184123524_" gradientUnits="userSpaceOnUse" x1="123.501" y1="783.1472" x2="227.1136" y2="783.1472" gradientTransform="matrix(1 0 0 -1 0 993.2557)">
	<stop  offset="0" style="stop-color:#C0D3CF"/>
	<stop  offset="0.24" style="stop-color:#B6CCC7"/>
	<stop  offset="0.64" style="stop-color:#9DBAB4"/>
	<stop  offset="0.99" style="stop-color:#82A8A0"/>
</linearGradient>
<path style="fill:url(#SVGID_00000157998209739741498060000009936768840184123524_);" d="M123.5,268.7c0,0,5.3,14.2,18.1,4.2
	c14.1-11,36.8-46.9,62.2-66.4c48.6-37.2,10.4-75.2-18-58.9C157.6,164,129.1,211.8,123.5,268.7L123.5,268.7z"/>
<linearGradient id="SVGID_00000158729248542934533220000014708193456473236102_" gradientUnits="userSpaceOnUse" x1="72.5908" y1="854.7631" x2="146.8653" y2="854.7631" gradientTransform="matrix(1 0 0 -1 0 993.2557)">
	<stop  offset="0" style="stop-color:#C0D3CF"/>
	<stop  offset="0.24" style="stop-color:#B6CCC7"/>
	<stop  offset="0.64" style="stop-color:#9DBAB4"/>
	<stop  offset="0.99" style="stop-color:#82A8A0"/>
</linearGradient>
<path style="fill:url(#SVGID_00000158729248542934533220000014708193456473236102_);" d="M88.5,272.3c0,0-25.9-179.6-11.5-237.8
	s71.3-32.9,69.9,4.1c-1.4,37-22.6,112.4-24,128.8S117.8,301.7,88.5,272.3L88.5,272.3z"/>
<linearGradient id="SVGID_00000091702974838209934940000010646452758278485134_" gradientUnits="userSpaceOnUse" x1="95.1459" y1="968.8652" x2="134.6696" y2="968.8652" gradientTransform="matrix(1 0 0 -1 0 993.2557)">
	<stop  offset="0" style="stop-color:#C0D3CF"/>
	<stop  offset="0.24" style="stop-color:#B6CCC7"/>
	<stop  offset="0.64" style="stop-color:#9DBAB4"/>
	<stop  offset="0.99" style="stop-color:#82A8A0"/>
</linearGradient>
<path style="fill:url(#SVGID_00000091702974838209934940000010646452758278485134_);" d="M118.1,13.1c0,0-24.6-7.4-22.8,8.4
	c1.8,15.9,31.3,20.5,38.1,10.8C140.2,22.5,118.1,13.1,118.1,13.1z"/>
<linearGradient id="SVGID_00000044873530886196231720000018221219419377239443_" gradientUnits="userSpaceOnUse" x1="106.991" y1="816.1312" x2="197.171" y2="816.1312" gradientTransform="matrix(1 0 0 -1 0 993.2557)">
	<stop  offset="0" style="stop-color:#C0D3CF"/>
	<stop  offset="0.24" style="stop-color:#B6CCC7"/>
	<stop  offset="0.64" style="stop-color:#9DBAB4"/>
	<stop  offset="0.99" style="stop-color:#82A8A0"/>
</linearGradient>
<path style="fill:url(#SVGID_00000044873530886196231720000018221219419377239443_);" d="M107,269c0,0,6.6-149.5,38.8-179.7
	s51.4,2.7,51.4,19.9s-23.3,49.8-38,69.8c-11.5,15.7-27.4,66.1-29.2,84.1C128.6,277.1,114.8,283.4,107,269z"/>
<linearGradient id="SVGID_00000036933787377446656190000008809098738775557523_" gradientUnits="userSpaceOnUse" x1="162.0051" y1="895.1791" x2="188.6043" y2="895.1791" gradientTransform="matrix(1 0 0 -1 0 993.2557)">
	<stop  offset="0" style="stop-color:#C0D3CF"/>
	<stop  offset="0.24" style="stop-color:#B6CCC7"/>
	<stop  offset="0.64" style="stop-color:#9DBAB4"/>
	<stop  offset="0.99" style="stop-color:#82A8A0"/>
</linearGradient>
<path style="fill:url(#SVGID_00000036933787377446656190000008809098738775557523_);" d="M180,88.1c-3.6-2.8-13.8-6.1-17.5,4.7
	c-3.8,10.8,15.2,21.5,23,16.9C193.3,105.1,184.4,91.5,180,88.1L180,88.1z"/>
<linearGradient id="SVGID_00000156582688113478454310000005419399988997066132_" gradientUnits="userSpaceOnUse" x1="195.3141" y1="827.5942" x2="219.5942" y2="827.5942" gradientTransform="matrix(1 0 0 -1 0 993.2557)">
	<stop  offset="0" style="stop-color:#C0D3CF"/>
	<stop  offset="0.24" style="stop-color:#B6CCC7"/>
	<stop  offset="0.64" style="stop-color:#9DBAB4"/>
	<stop  offset="0.99" style="stop-color:#82A8A0"/>
</linearGradient>
<path style="fill:url(#SVGID_00000156582688113478454310000005419399988997066132_);" d="M213.7,159.2c0,0,12.4,14.9,1.3,19.3
	c-11.1,4.4-23.2-14.9-18.7-23.3C200.7,146.8,213.7,159.2,213.7,159.2L213.7,159.2z"/>
</svg>
