<?xml version="1.0" encoding="UTF-8"?><svg id="coral" xmlns="http://www.w3.org/2000/svg" xmlns:xlink="http://www.w3.org/1999/xlink" viewBox="0 0 2072.73 1166.38"><defs><style>.cls-1{fill:url(#teal);}.cls-2{fill:url(#teal-12);}.cls-3{fill:url(#teal-15);}.cls-4{fill:url(#teal-14);}.cls-5{fill:url(#teal-10);}.cls-6{fill:url(#teal-11);}.cls-7{fill:url(#teal-16);}.cls-8{fill:url(#teal-18);}.cls-9{fill:url(#teal-19);}.cls-10{fill:url(#teal-13);}.cls-11{fill:url(#teal-17);}.cls-12{fill:url(#teal-21);}.cls-13{fill:url(#teal-39);}.cls-14{fill:url(#teal-20);}.cls-15{fill:url(#teal-38);}.cls-16{fill:url(#teal-22);}.cls-17{fill:url(#teal-31);}.cls-18{fill:url(#teal-30);}.cls-19{fill:url(#teal-32);}.cls-20{fill:url(#teal-40);}.cls-21{fill:url(#teal-25);}.cls-22{fill:url(#teal-27);}.cls-23{fill:url(#teal-24);}.cls-24{fill:url(#teal-28);}.cls-25{fill:url(#teal-23);}.cls-26{fill:url(#teal-42);}.cls-27{fill:url(#teal-41);}.cls-28{fill:url(#teal-29);}.cls-29{fill:url(#teal-26);}.cls-30{fill:url(#teal-36);}.cls-31{fill:url(#teal-35);}.cls-32{fill:url(#teal-34);}.cls-33{fill:url(#teal-33);}.cls-34{fill:url(#teal-37);}.cls-35{fill:url(#teal-44);}.cls-36{fill:url(#teal-43);}.cls-37{fill:url(#teal-2);}.cls-38{fill:url(#teal-3);}.cls-39{fill:url(#teal-5);}.cls-40{fill:url(#teal-4);}.cls-41{fill:url(#teal-8);}.cls-42{fill:url(#teal-9);}.cls-43{fill:url(#teal-6);}.cls-44{fill:url(#teal-7);}</style><linearGradient id="teal" x1="128.76" y1="271.89" x2="180.6" y2="271.89" gradientUnits="userSpaceOnUse"><stop offset="0" stop-color="#98c5cc"/><stop offset=".17" stop-color="#8ebfc7"/><stop offset=".45" stop-color="#75b0ba"/><stop offset=".8" stop-color="#4c99a5"/><stop offset=".99" stop-color="#338b99"/></linearGradient><linearGradient id="teal-2" x1="100.43" y1="128.56" x2="150.02" y2="128.56" xlink:href="#teal"/><linearGradient id="teal-3" x1="113.26" y1="119.93" x2="146.75" y2="119.93" xlink:href="#teal"/><linearGradient id="teal-4" x1="148.49" y1="115.08" x2="161.65" y2="115.08" xlink:href="#teal"/><linearGradient id="teal-5" x1="150.91" y1="117.79" x2="176.77" y2="117.79" xlink:href="#teal"/><linearGradient id="teal-6" x1="108.43" y1="197.88" x2="154.84" y2="197.88" xlink:href="#teal"/><linearGradient id="teal-7" x1="126.94" y1="197.67" x2="155.44" y2="197.67" xlink:href="#teal"/><linearGradient id="teal-8" x1="139.67" y1="189.78" x2="157.89" y2="189.78" xlink:href="#teal"/><linearGradient id="teal-9" x1="153.33" y1="188.72" x2="171.82" y2="188.72" xlink:href="#teal"/><linearGradient id="teal-10" x1="153.06" y1="192.92" x2="186.45" y2="192.92" xlink:href="#teal"/><linearGradient id="teal-11" x1="153.29" y1="195.57" x2="199.97" y2="195.57" xlink:href="#teal"/><linearGradient id="teal-12" x1="114.62" y1="272.8" x2="146.5" y2="272.8" xlink:href="#teal"/><linearGradient id="teal-13" x1="125.86" y1="267.7" x2="146.69" y2="267.7" xlink:href="#teal"/><linearGradient id="teal-14" x1="139.44" y1="268.01" x2="147.58" y2="268.01" xlink:href="#teal"/><linearGradient id="teal-15" x1="148.41" y1="267.09" x2="167.66" y2="267.09" xlink:href="#teal"/><linearGradient id="teal-16" x1="146.98" y1="268.63" x2="180.04" y2="268.63" xlink:href="#teal"/><linearGradient id="teal-17" x1="146.76" y1="274.56" x2="192.24" y2="274.56" xlink:href="#teal"/><linearGradient id="teal-18" x1="106.16" y1="339.05" x2="145.23" y2="339.05" xlink:href="#teal"/><linearGradient id="teal-19" x1="124.65" y1="335.34" x2="149.21" y2="335.34" xlink:href="#teal"/><linearGradient id="teal-20" x1="144.12" y1="337.86" x2="163.99" y2="337.86" xlink:href="#teal"/><linearGradient id="teal-21" x1="145.25" y1="340.64" x2="182.11" y2="340.64" xlink:href="#teal"/><linearGradient id="teal-22" x1="145.77" y1="350.26" x2="198.57" y2="350.26" xlink:href="#teal"/><linearGradient id="teal-23" x1="116.82" y1="420.32" x2="166.6" y2="420.32" xlink:href="#teal"/><linearGradient id="teal-24" x1="128.87" y1="414.65" x2="165.54" y2="414.65" xlink:href="#teal"/><linearGradient id="teal-25" x1="141.5" y1="412.52" x2="164.04" y2="412.52" xlink:href="#teal"/><linearGradient id="teal-26" x1="158.72" y1="413.07" x2="168.32" y2="413.07" xlink:href="#teal"/><linearGradient id="teal-27" x1="166.63" y1="408.3" x2="176.88" y2="408.3" xlink:href="#teal"/><linearGradient id="teal-28" x1="166.06" y1="414.74" x2="187.93" y2="414.74" xlink:href="#teal"/><linearGradient id="teal-29" x1="229.63" y1="341.99" x2="250.45" y2="341.99" xlink:href="#teal"/><linearGradient id="teal-30" x1="225.5" y1="243.12" x2="247.64" y2="243.12" xlink:href="#teal"/><linearGradient id="teal-31" x1="207.48" y1="245.95" x2="247.56" y2="245.95" xlink:href="#teal"/><linearGradient id="teal-32" x1="247.32" y1="239.42" x2="262.63" y2="239.42" xlink:href="#teal"/><linearGradient id="teal-33" x1="247.57" y1="242.48" x2="276.95" y2="242.48" xlink:href="#teal"/><linearGradient id="teal-34" x1="233.22" y1="296.01" x2="244.23" y2="296.01" xlink:href="#teal"/><linearGradient id="teal-35" x1="220.42" y1="296.9" x2="243.61" y2="296.9" xlink:href="#teal"/><linearGradient id="teal-36" x1="204.81" y1="303.03" x2="244.69" y2="303.03" xlink:href="#teal"/><linearGradient id="teal-37" x1="241.89" y1="297.36" x2="268.01" y2="297.36" xlink:href="#teal"/><linearGradient id="teal-38" x1="239.22" y1="300.77" x2="286.57" y2="300.77" xlink:href="#teal"/><linearGradient id="teal-39" x1="222.84" y1="355.59" x2="233.58" y2="355.59" xlink:href="#teal"/><linearGradient id="teal-40" x1="211.89" y1="355.88" x2="231.78" y2="355.88" xlink:href="#teal"/><linearGradient id="teal-41" x1="203.1" y1="356.33" x2="231.39" y2="356.33" xlink:href="#teal"/><linearGradient id="teal-42" x1="232.93" y1="356.24" x2="253" y2="356.24" xlink:href="#teal"/><linearGradient id="teal-43" x1="231.07" y1="360.98" x2="269.39" y2="360.98" xlink:href="#teal"/><linearGradient id="teal-44" x1="228.25" y1="367.33" x2="278.38" y2="367.33" xlink:href="#teal"/></defs><g><path class="cls-1" d="M180.36,453.85c-35.71-49.83-32.4-117.07-27.39-175.23,5.61-65.27,13.17-129.04-18.62-189.52-1.53-2.92-6.66-.85-5.39,2.27,13.9,34.04,22.74,66.88,23.5,103.89,.67,32.62-4.96,65.08-7.16,97.56-3.66,53.97-3.8,118.92,32.76,162.81,1.06,1.27,3.27-.43,2.3-1.78h0Z"/><path class="cls-37" d="M148.71,144.09c-19.05-1.51-35.62-15.77-43.4-32.6-1.23-2.67-5.71-.76-4.74,2,6.59,18.73,27.88,35.1,48.14,33.31,1.74-.15,1.75-2.57,0-2.7h0Z"/><path class="cls-38" d="M146.34,141.21c-7.15-6.04-13.31-13.01-18.54-20.77-4.92-7.29-7.61-15.46-11.49-23.25-.71-1.43-3.14-.78-3.03,.82,1.17,18,16.84,36.06,31.49,45.25,1.24,.78,2.73-1.08,1.58-2.05h0Z"/><path class="cls-40" d="M150.74,143.49c15.07-10.85,11.96-40.26,5.93-55.26-1.26-3.15-6.04-2.02-5.19,1.43,3.84,15.68,8.43,37.53-2.64,51.38-1.02,1.27,.33,3.58,1.89,2.45h0Z"/><path class="cls-39" d="M152.82,146.92c23.25-6.61,25.95-36.09,22.95-56.26-.54-3.61-5.98-2.06-5.47,1.51,2.6,18.05,.52,43.79-18.64,52.01-1.59,.68-.44,3.19,1.16,2.74h0Z"/><path class="cls-43" d="M153.98,218.92c-21.14-6.66-31.74-23.94-40.4-43.12-1.33-2.96-5.79-.81-5.07,2.13,4.4,17.84,24.26,45.18,45.15,43.36,1.34-.12,1.67-1.95,.32-2.37h0Z"/><path class="cls-44" d="M155.19,218.61c-4.75-6.21-9.73-12.25-14.12-18.73-4.92-7.27-6.99-15.05-9.44-23.31-.76-2.56-4.72-2.1-4.69,.63,.21,17,13.92,32.71,26.22,42.98,1.04,.86,2.97-.32,2.03-1.56h0Z"/><path class="cls-41" d="M157.77,216.48c-3.98-9.17-7.58-17.24-9.28-27.21-1.47-8.66-.98-18.45-4.1-26.72-.94-2.49-4.51-2.13-4.65,.63-.53,9.9,1.78,20.95,3.67,30.69,1.71,8.81,4.86,19.1,12.41,24.56,1.29,.93,2.43-.8,1.94-1.94h0Z"/><path class="cls-42" d="M154.79,218.28c19.47-3.89,17.68-42.64,16.19-56.76-.33-3.16-4.62-3.19-4.93,0-1.81,18.72,3.47,40.89-12.35,54.87-.91,.8,.07,2.09,1.1,1.88h0Z"/><path class="cls-5" d="M154.49,220.3c22.12-.7,32.44-34.08,31.95-52.18-.09-3.45-5.27-3.45-5.35,0-.4,16.46-7.76,45.8-26.99,49.33-1.62,.3-1.23,2.9,.39,2.85h0Z"/><path class="cls-6" d="M154.49,222.96c27.09-.18,49.69-25.82,44.82-53.01-.51-2.82-4.65-1.97-4.78,.65-.61,12.36-2,22.87-9.92,32.91-7.58,9.61-18.88,14.3-30.45,17.04-1.36,.33-1.05,2.42,.33,2.41h0Z"/><path class="cls-2" d="M146.21,295.03c-6.62-6.18-13.87-10.26-19.19-17.92-5.55-7.99-6.59-17.21-7.97-26.54-.39-2.61-4.05-1.66-4.27,.58-1.84,18.04,11.59,41.85,30.52,45.45,.86,.17,1.64-.88,.91-1.56h0Z"/><path class="cls-10" d="M146.51,294.03c-5.76-7.97-9.62-16.03-12.15-25.6-2.37-8.99-2.01-18.21-3.81-27.2-.4-2.01-3.75-2.07-4.1,0-2.73,16.07,4.04,44.96,18.53,54.31,.9,.58,2.18-.6,1.52-1.52h0Z"/><path class="cls-4" d="M147.55,292.69c-1.98-8.4-3.05-16.61-3.21-25.23-.15-7.97,1.95-15.85,1.46-23.74-.12-1.9-2.54-2.14-3.2-.43-5.57,14.39-3.34,36.32,3.24,50.13,.47,.99,1.94,.27,1.71-.72h0Z"/><path class="cls-3" d="M149.89,296.52c14.97-10.18,20.65-40.99,16.39-57.48-.64-2.47-3.89-1.68-4.15,.56-1.12,9.83-.58,19.36-2.64,29.21-2.04,9.78-7.25,17.64-11.03,26.62-.33,.78,.76,1.54,1.42,1.09h0Z"/><path class="cls-7" d="M148.66,296.43c21.67-6.48,34.12-32.47,30.87-54.1-.32-2.1-3.79-2.04-4.16,0-1.71,9.34-1.99,18.4-5.32,27.43-4.07,11.06-12.38,18.59-22.42,24.22-1.32,.74-.43,2.88,1.03,2.45h0Z"/><path class="cls-11" d="M148.3,297.28c22.59,1.9,44.48-22.02,43.93-43.94-.03-1.28-1.78-2.25-2.72-1.12-5.4,6.49-6.11,16.18-10.27,23.55-5.56,9.87-19.81,17.6-30.94,18.32-2.07,.13-2.04,3.02,0,3.19h0Z"/><path class="cls-8" d="M144.58,367.11c-23.78-10.2-28.63-34.61-33.41-57.25-.6-2.85-5.03-2.15-5,.68,.13,15.38,5.3,30.68,14.43,43,4.49,6.05,15.14,19.67,23.98,15.88,.88-.37,.88-1.93,0-2.31h0Z"/><path class="cls-9" d="M148.78,367.24c-16.91-17.26-16.8-41.42-18.9-63.86-.29-3.16-4.69-3.2-4.93,0-1.71,22.64,4.1,50.43,21.78,65.91,1.4,1.22,3.37-.7,2.05-2.05h0Z"/><path class="cls-14" d="M145.94,367.48c9.97-3.57,13.67-13.22,15.57-22.94,1.92-9.83,4.1-25.45,.69-35.06-.63-1.76-2.99-1.79-3.61,0-2.4,7.01-.45,16.54-.76,23.93-.47,11.21-2.22,25.37-13.02,31.38-1.43,.8-.46,3.25,1.13,2.68h0Z"/><path class="cls-12" d="M147.04,368.01c22.79-5.48,36.69-30.15,34.92-53.08-.16-2.05-2.76-2.34-3.48-.47-3.22,8.34-3.82,17.57-6.88,26.05-4.36,12.09-13.37,20.37-25.34,24.71-1.74,.63-1.07,3.24,.77,2.79h0Z"/><path class="cls-16" d="M147.2,369.75c19.16,2.17,48.11-17.07,51.33-36.71,.34-2.09-2.29-3.42-3.5-1.48-10.95,17.45-26.05,33.34-47.83,35.22-1.93,.17-1.89,2.75,0,2.97h0Z"/><path class="cls-25" d="M165.21,437.22c-21.29,.13-35.37-18.3-43.52-35.77-1.28-2.73-5.55-.78-4.77,2.01,5.51,19.73,27.1,40.52,48.67,36.55,1.6-.29,1.19-2.79-.38-2.79h0Z"/><path class="cls-23" d="M164.99,435.13c-16.45-10.48-24.58-24.73-32.15-42.1-1.05-2.41-4.33-.56-3.95,1.66,2.95,17.32,18.7,36.59,35.16,42.65,1.34,.49,2.04-1.51,.93-2.21h0Z"/><path class="cls-21" d="M163.79,432.66c-9.69-12.65-12.96-26.22-18.62-40.71-.89-2.28-4.01-1.4-3.64,1.01,2.13,13.74,9.17,32.26,20.33,41.19,.99,.79,2.84-.29,1.92-1.48h0Z"/><path class="cls-29" d="M168.32,435.34c-.56-14.4-.18-30.7-5.76-44.22-.93-2.26-4.39-1.47-3.76,1.04,3.57,14.27,3.38,29.44,7.47,43.46,.33,1.12,2.1,.93,2.06-.27h0Z"/><path class="cls-22" d="M169.48,436.14c6.74-17.66,9.4-36.59,5.78-55.32-.4-2.08-3.76-1.59-3.67,.5,.78,18.67,.91,36-4.87,54.05-.57,1.79,2.12,2.46,2.77,.77h0Z"/><path class="cls-24" d="M168.52,437.6c14.91-8.63,18.4-28.02,19.4-43.9,.15-2.36-3.63-2.87-4.11-.56-3.13,14.81-2.54,32.53-16.96,41.6-1.81,1.14-.18,3.94,1.68,2.86h0Z"/></g><g><path class="cls-28" d="M247.74,464.45c-11.03-15.67-12.12-40.23-12.83-58.6-.89-23.11,3.78-45.98,7.71-68.62,6.68-38.49,12.24-79.49,2.86-117.98-.56-2.29-4.49-1.84-4.18,.56,6.53,50.91-1.57,97.31-8.76,147.61-4.07,28.48-6.9,74.58,13.35,98.45,.86,1.01,2.62-.34,1.85-1.42h0Z"/><path class="cls-18" d="M246.94,261.39c-7.19-4.59-11.06-11.51-13.6-19.48-1.94-6.08-.79-13.4-3.43-19-.57-1.22-2.52-1.14-3.12,0-3.41,6.47,.79,17.81,3.21,24.08,2.85,7.39,7.83,14.87,15.78,17.16,1.7,.49,2.59-1.86,1.17-2.77h0Z"/><path class="cls-17" d="M246.17,261.31c-9.5-.7-16.17-2.12-23.41-8.91-6.05-5.68-10.12-14.06-8.86-22.43,.56-3.76-4.92-5.5-5.84-1.61-2.51,10.53,3.43,20.85,10.71,28.04,6.59,6.5,19.12,12.5,28.1,7.5,1.28-.71,.61-2.48-.7-2.59h0Z"/><path class="cls-19" d="M249.71,264.05c13.23-9.99,15.04-33.19,11.03-48.07-.61-2.26-3.79-1.67-3.92,.53-1.04,17.04,1.88,30.65-9.25,45.4-.93,1.23,.91,3.06,2.14,2.14h0Z"/><path class="cls-33" d="M248.92,266.27c22.61,1.07,30.01-27.11,27.6-45.35-.33-2.48-3.69-3.26-4.53-.61-2.32,7.37-1.57,15.72-3.25,23.31-2.53,11.41-9.42,16.64-20.19,19.93-1.52,.47-1.19,2.65,.37,2.72h0Z"/><path class="cls-32" d="M244.21,316.52c-1.07-6.85-3.73-13.12-4.43-20.17-.66-6.65,.48-13.29,0-19.92-.2-2.73-4.28-3.59-4.97-.67-2.77,11.74-2.77,33.35,7.34,41.97,.99,.84,2.27,.02,2.07-1.21h0Z"/><path class="cls-31" d="M242.57,315.87c-8.48-3.07-11.65-9.25-13.93-17.71-1.13-4.16-1.57-8.48-1.73-12.77-.11-2.91,.65-5.95-.08-8.77-.55-2.14-3.39-2.34-4.51-.59-4.45,6.99-.05,21.62,2.54,28.61,2.59,7.02,9.1,16.03,17.71,14.03,1.5-.35,1.26-2.34,0-2.8h0Z"/><path class="cls-30" d="M243.46,319.75c-8.83-1.34-16.26-4.48-22.94-10.52-7.67-6.93-8.8-14.5-9.67-24.12-.26-2.9-3.8-3.24-4.87-.66-3.94,9.43,2.89,20.65,9.12,27.35,6.94,7.46,18.08,13,28.37,11.24,1.62-.28,1.65-3.04,0-3.29h0Z"/><path class="cls-34" d="M243.01,319.19c17.13,5.53,24.55-31.2,25-41.92,.1-2.28-3.27-3.21-4.32-1.17-6.69,12.9-2.83,35.96-20.68,40.07-1.58,.36-1.4,2.56,0,3.01h0Z"/><path class="cls-15" d="M241.43,324.37c11.75-3.24,23.35-5.93,32.55-14.4,7.87-7.24,12.31-20.21,12.59-30.65,.07-2.78-3.67-2.94-4.56-.62-3.73,9.78-4.57,19.22-11.88,27.41-7.45,8.34-19.49,11.24-29.66,14.78-2.17,.75-1.31,4.11,.96,3.48h0Z"/><path class="cls-13" d="M232.97,372.09c-7.17-6.87-5.34-24.34-3.57-33.11,.66-3.28-3.76-4.42-4.94-1.36-2.48,6.37-1.56,14.62-.82,21.21,.58,5.19,1.55,13.72,6.96,16.32,1.92,.92,4.05-1.45,2.37-3.06h0Z"/><path class="cls-20" d="M231.05,375.25c-6.8-4.87-10.69-11.73-12.66-19.74-1.73-7.01,.33-13.18,.65-20.09,.1-2.09-2.73-2.62-3.75-1.02-9.01,14.11,1.34,35.9,14.12,43.66,1.83,1.11,3.31-1.61,1.64-2.81h0Z"/><path class="cls-27" d="M230.82,377.7c-5.57-3.91-10.28-6.68-14.32-12.5-6.33-9.11-6.89-20-7.92-30.61-.33-3.43-5.16-3.5-5.38,0-.8,12.42,2.79,25.62,10.3,35.57,2.82,3.73,12.03,13.57,17.32,9.57,.73-.55,.77-1.49,0-2.03h0Z"/><path class="cls-26" d="M234.73,375.96c6.37-1.48,10.59-9.65,13.12-15.08,2.8-6.02,6.9-16.48,4.34-23.07-.55-1.41-2.47-1.9-3.33-.43-2.91,4.96-2.75,12.09-4.48,17.64-1.13,3.62-2.74,7-4.61,10.3-1.83,3.24-4.82,5.41-6.64,8.56-.64,1.11,.4,2.36,1.6,2.08h0Z"/><path class="cls-36" d="M231.87,378.48c8.65,4.22,16.47-1.39,22.33-7.68,3.83-4.11,6.9-9.03,9.73-13.87,2.23-3.81,5.2-8.33,5.46-12.86,.1-1.74-2.33-2.77-3.49-1.45-4.52,5.17-6.81,12.85-10.59,18.67-4.54,6.98-12.57,17.81-22.16,14.18-1.75-.65-2.93,2.2-1.27,3.01h0Z"/><path class="cls-35" d="M229.22,381.67c19.73,9.43,45.84-7.1,49.12-28.3,.4-2.55-3.03-4.48-4.45-1.88-8.76,16.08-22.08,34.51-43.14,26.52-2.12-.8-3.57,2.68-1.54,3.65h0Z"/></g></svg>