<?xml version="1.0" encoding="UTF-8"?><svg id="coral" xmlns="http://www.w3.org/2000/svg" xmlns:xlink="http://www.w3.org/1999/xlink" viewBox="0 0 2072.73 1166.38"><defs><style>.cls-1{fill:url(#blue-14);}.cls-2{fill:url(#blue-15);}.cls-3{fill:url(#blue-13);}.cls-4{fill:url(#blue-12);}.cls-5{fill:url(#blue-11);}.cls-6{fill:url(#blue-10);}.cls-7{fill:url(#blue);}.cls-8{fill:url(#blue-4);}.cls-9{fill:url(#blue-2);}.cls-10{fill:url(#blue-3);}.cls-11{fill:url(#blue-8);}.cls-12{fill:url(#blue-7);}.cls-13{fill:url(#blue-6);}.cls-14{fill:url(#blue-5);}.cls-15{fill:url(#blue-9);}</style><linearGradient id="blue" x1="100.43" y1="195.6" x2="227.42" y2="195.6" gradientUnits="userSpaceOnUse"><stop offset="0" stop-color="#98c5cc"/><stop offset=".15" stop-color="#8ebec6"/><stop offset=".39" stop-color="#75abb9"/><stop offset=".69" stop-color="#4c8da2"/><stop offset=".99" stop-color="#1d6b89"/></linearGradient><linearGradient id="blue-2" x1="209.97" y1="243.45" x2="268.58" y2="243.45" xlink:href="#blue"/><linearGradient id="blue-3" x1="248.11" y1="191.79" x2="365.54" y2="191.79" xlink:href="#blue"/><linearGradient id="blue-4" x1="106.01" y1="146.21" x2="160.38" y2="146.21" xlink:href="#blue"/><linearGradient id="blue-5" x1="126.16" y1="141.35" x2="175.95" y2="141.35" xlink:href="#blue"/><linearGradient id="blue-6" x1="166.39" y1="137.4" x2="192.86" y2="137.4" xlink:href="#blue"/><linearGradient id="blue-7" x1="194.56" y1="137.81" x2="215.06" y2="137.81" xlink:href="#blue"/><linearGradient id="blue-8" x1="110.56" y1="178.38" x2="302.61" y2="178.38" xlink:href="#blue"/><linearGradient id="blue-9" x1="294.25" y1="158.75" x2="367.91" y2="158.75" xlink:href="#blue"/><linearGradient id="blue-10" x1="213.75" y1="138.73" x2="247.7" y2="138.73" xlink:href="#blue"/><linearGradient id="blue-11" x1="246.35" y1="142.46" x2="279.46" y2="142.46" xlink:href="#blue"/><linearGradient id="blue-12" x1="278.33" y1="138.6" x2="306.21" y2="138.6" xlink:href="#blue"/><linearGradient id="blue-13" x1="288.72" y1="134.91" x2="339.36" y2="134.91" xlink:href="#blue"/><linearGradient id="blue-14" x1="329.59" y1="138.13" x2="357.34" y2="138.13" xlink:href="#blue"/><linearGradient id="blue-15" x1="155.19" y1="200.78" x2="329.63" y2="200.78" xlink:href="#blue"/></defs><path class="cls-7" d="M224.11,244.43c11.65-25.73-9.53-49.94-30.63-61.77-26.84-15.04-58.79-19.08-84.54-36.28-6.2-4.14-12.1,5.96-5.84,9.98,21.63,13.89,47.6,19.25,71.22,28.71,12.28,4.92,24.2,11.33,33.22,21.16,9.83,10.73,8.89,24.22,11.39,37.52,.44,2.31,4.18,2.87,5.17,.67h0Z"/><path class="cls-9" d="M211.47,246.94c7.3,4.13,16.92,1.68,24.97,1.7,9.81,.02,21.72,1.23,30.36-4.12,3.24-2,1.72-6.55-1.85-6.83-9.27-.71-19.1,1.37-28.52,1.45-7.98,.08-15.5,1.47-23.43,2.1-2.88,.23-4.35,4.1-1.54,5.69h0Z"/><path class="cls-10" d="M254.2,241.69c.17-17.99,6.6-26.17,20.94-35.28,10.89-6.92,21.97-13.35,33.16-19.77,20.04-11.48,39.79-21.92,55.96-38.71,3.59-3.73-1.06-10.11-5.61-7.27-12.23,7.66-21.56,18.21-34.59,25.21-14.27,7.66-28.08,16.69-42.01,24.99-20.08,11.97-40.81,24.91-31.77,51.35,.71,2.09,3.89,1.79,3.91-.53h0Z"/><path class="cls-8" d="M160.38,172.44c-.22-16.7-23.55-17.59-24.64-32.66-.43-5.95-1.78-10.61-6.83-14.1-5.48-3.78-10.89-.94-15.83-6.53-3.09-3.49-7.62,.34-7.03,4.1,.68,4.39,3.74,8.03,8.25,9.14,2.27,.57,4.54,.86,6.86,1.11,5.4,.6,4.73,6.27,5.72,10.27,1.61,6.49,5.2,9.65,10.99,12.74,7.61,4.05,13.82,9.72,18.32,17.05,1.15,1.87,4.22,1.15,4.19-1.14h0Z"/><path class="cls-14" d="M174.93,176.68c.46-6.41,2.31-13.48-.5-19.66-3.44-7.56-9.15-11.71-15.19-17.19-5.72-5.19-3.17-15.85-7.18-22.1-4.09-6.37-9.4-9.73-16.21-12.83-7.4-3.37-13.81,7.68-6.39,10.93,6.71,2.93,12.2,5.01,14.32,12.93,1.44,5.41,1.98,10.25,5.01,15.08,2.39,3.8,6.69,6.27,10.41,8.48,10.29,6.12,9.6,15.17,12.25,24.83,.55,2,3.33,1.47,3.47-.47h0Z"/><path class="cls-13" d="M184.77,180.21c2.54-11.48,12.25-22.28,6.07-34.44-4.76-9.36-6.47-16.14-5.82-26.91,.5-8.3-4.01-13.53-5.99-21.31-2.05-8.02-14.54-4.6-12.39,3.42,1.61,6,6.08,11.48,5.77,17.89-.3,6.16-1.93,13,1.54,18.73,4.93,8.12,11.63,13.06,9.24,23.71-1.51,6.69-3.63,11.33-2.77,18.33,.28,2.29,3.77,3.24,4.35,.59h0Z"/><path class="cls-12" d="M199.45,187.14c1.61-14.87,17.75-21.78,14.27-38.72-1.98-9.62-4.76-17.34-1.19-27.03,3.61-9.81,2.59-18.41,1.51-28.65-.88-8.33-12.72-8.62-13.17,0-.53,10.19,.58,18.61-2.32,28.69-2.23,7.73-.65,15.18,1.69,22.64,3.45,11,1.1,17.96-3.86,27.87-2.59,5.18-1.9,10.3-1.1,15.77,.37,2.55,3.93,1.61,4.16-.56h0Z"/><path class="cls-11" d="M111.1,154.13c12.25,10.9,30.96,12.62,46.7,13.88,11.65,.93,23.08,1.21,34.52,3.91,12.64,2.98,18.67,10.62,26.07,20.32,8.61,11.3,21.2,17.73,34.88,10.34,9.07-4.9,15.77-11.23,26.07-13.69,7.25-1.73,13.89-.63,20.39-4.95,6.54-4.36,.79-14.46-6.19-10.6-6.16,3.41-14.44,2.79-21.28,4.45-6.69,1.62-12.48,5.57-17.84,9.69-21.32,16.4-27.32-10.43-41.54-19.62-13.69-8.86-30.1-10.21-45.97-10.9-10.35-.44-20.69-.84-30.97-2.28-7.94-1.12-15.49-3.56-23.55-3.68-1.54-.02-2.5,2.05-1.29,3.13h0Z"/><path class="cls-15" d="M295.74,178.04c8.61,5.17,20.76-1.94,28.77-5.8,13.34-6.42,23.68-20.56,39.07-22.73,6.75-.95,5.14-12.36-1.6-11.86-11.21,.83-22.06,8.07-30.72,14.74-6.08,4.7-11.81,9.13-18.77,12.44-5.48,2.61-11.89,4.21-16.74,7.88-1.8,1.36-2.16,4.03,0,5.33h0Z"/><path class="cls-6" d="M218.71,184.78c2.8-8.94,10.83-6.54,15.63-13.07,7.12-9.71,3.26-17.7,2.43-28.74-.43-5.75,10.96-11.15,10.92-18.78-.02-3.51-.29-6.68-1.9-9.89-3.02-6.03,.11-9.25,1.6-14.92,1.85-7.04-8.4-11.69-11.92-5.03-3.66,6.93-7.99,13.15-4.32,21.19,4.93,10.81-3.92,13.94-7.38,22.89-4.22,10.94,7.54,20.57-4.14,30.14-5.61,4.6-6.94,9.26-5.14,16.23,.56,2.16,3.58,2.01,4.21,0h0Z"/><path class="cls-5" d="M277.88,185.73c-5.04-4.32-12.22-4.75-16.43-10.69-5.32-7.5,8.85-20.29,9.88-28.63,.42-3.42-1.34-7.83-2.23-11.04-1.2-4.3,4.45-6.87,6.79-9.24,6.35-6.44,2.38-16.93,2-24.59-.47-9.5-13.74-9.27-14.58,0-.53,5.84,3.13,13.05-1.89,16.94-3.87,3-5.98,6.33-7.44,10.98-1.27,4.04,.38,9.05,1.51,12.9,1.91,6.49-2.5,9.39-6.02,14.19-11.67,15.93,12.29,32.39,25.59,33.84,1.09,.12,2.08-.69,2.65-1.52,.16-.24,.33-.49,.5-.73,.47-.7,.33-1.87-.31-2.41h0Z"/><path class="cls-4" d="M283.9,175.87c-.11,0-.22-.02-.33-.02-4.21-.29-3.08,6.98,.74,5.5,12.49-4.83,14.39-17.94,9.1-29.15-2.89-6.12-6.38-10.81,.68-15.84,2.23-1.58,5.23-3.58,6.54-6.06,4.3-8.1,2.85-16.53,5.27-25.11,2.32-8.21-9.75-13.49-13.86-5.84-3.15,5.86-2.86,11.08-2.49,17.67,.49,8.71-7.26,11.11-9.76,18.38-1.58,4.6-2.23,9.39-.22,14.01,4.76,10.95,8.14,16.31,1.57,27.82,1.28-.33,2.56-.67,3.83-1.01-.37-.16-.68-.33-1.08-.36h0Z"/><path class="cls-3" d="M294.56,162.59c2.79-5.73,8.42-6.11,14.05-7.67,5.54-1.53,10.8-4.94,13.74-10.03,3.32-5.77,4.5-11.74,4.95-18.33,.51-7.56,7.5-7.03,11.3-12.98,2.5-3.92-1.59-8.44-5.73-7.45-4.87,1.16-12.55,3.69-15.28,8.33-4.39,7.47-1.67,16.56-5.89,24.22-4.62,8.38-29.26,9.13-21.46,23.92,.84,1.6,3.51,1.68,4.33,0h0Z"/><path class="cls-1" d="M339.3,156.75c-3.46-7.57,1.65-14.05,7.35-18.28,5.35-3.98,5.59-10.08,9.45-15.04,3.93-5.05-2.23-11.73-7.18-7.18-3.93,3.6-4.55,8.51-7.72,12.54-2.58,3.29-6.33,4.98-8.66,8.66-4.43,6.98-3.73,16.2,1.16,22.57,2.53,3.3,7.37,.59,5.6-3.28h0Z"/><path class="cls-2" d="M221.87,241.36s9.21-26.41-13.44-41.62c-22.65-15.21-53.24-27.3-53.24-27.3l25.49-14.05,46.54,34.79s53.05-10.52,56.35-11.06c3.3-.54,46.06-9.68,46.06-9.68l-48.89,24.75-27.1,23.12,1.91,22.86-33.89-.16"/></svg>