<?xml version="1.0" encoding="utf-8"?>
<!-- Generator: Adobe Illustrator 27.0.0, SVG Export Plug-In . SVG Version: 6.00 Build 0)  -->
<svg version="1.1" id="home" xmlns="http://www.w3.org/2000/svg" xmlns:xlink="http://www.w3.org/1999/xlink" x="0px" y="0px"
	 viewBox="0 0 2263 1367.65" style="enable-background:new 0 0 2263 1367.65;" xml:space="preserve">
<style type="text/css">
	.st0{fill:#65908A;}
</style>
<path id="mtn_2" class="st0" d="M129.85,702.61c16.62-22.01,48.74-63.38,97.8-71.56c46.23-7.71,85.62,17.7,120.59,40.25
	c47.37,30.55,77.4,68.1,96.85,92.81c37.72,47.92,32.83,58.61,71.22,106.23c33.3,41.3,64.38,67.25,84.51,83.86
	c54.53,45.02,66.34,39.84,110.15,76.04c43.35,35.82,102.11,84.38,97.8,131.95c-5.72,63.2-120.16,95.85-160.47,107.35
	c-120.27,34.31-136.51-11.84-264.92,17.89c-69.51,16.09-91.5,35.77-207.95,62.62c-66.72,15.38-100.42,22.88-116.79,13.42
	C-51.1,1300.05,4.93,868.04,129.85,702.61z"/>
</svg>
