<?xml version="1.0" encoding="UTF-8"?><svg id="home" xmlns="http://www.w3.org/2000/svg" viewBox="0 0 2263 1367.65"><defs><style>.cls-1{fill:#65908a;}</style></defs><path id="mtn_2" class="cls-1" d="M129.85,268.97c16.62-22.01,48.74-63.38,97.8-71.56,46.23-7.71,85.62,17.7,120.59,40.25,47.37,30.55,77.4,68.1,96.85,92.81,37.72,47.92,32.83,58.61,71.22,106.23,33.3,41.3,64.38,67.25,84.51,83.86,54.53,45.02,66.34,39.84,110.15,76.04,43.35,35.82,102.11,84.38,97.8,131.95-5.72,63.2-120.16,95.85-160.47,107.35-120.27,34.31-136.51-11.84-264.92,17.89-69.51,16.09-91.5,35.77-207.95,62.62-66.72,15.38-100.42,22.88-116.79,13.42C-51.1,866.41,4.93,434.4,129.85,268.97Z"/></svg>