<?xml version="1.0" encoding="utf-8"?>
<!-- Generator: Adobe Illustrator 27.0.0, SVG Export Plug-In . SVG Version: 6.00 Build 0)  -->
<svg version="1.1" id="home" xmlns="http://www.w3.org/2000/svg" xmlns:xlink="http://www.w3.org/1999/xlink" x="0px" y="0px"
	 viewBox="0 0 2083.59 1367.65" style="enable-background:new 0 0 2083.59 1367.65;" xml:space="preserve">
<style type="text/css">
	.st0{fill:#0C2B53;}
	.st1{fill:#0D2C54;}
</style>
<g>
	<g id="tree">
		<path class="st0" d="M505.91,203.13c-6.42-7.97-78.61,16.4-133.87,71.21c-0.97,0.96,10.39,43.36,9.44,44.34
			c-1.23,1.26-14.79-38.88-16.01-37.59c-46.2,49.2-87.9,126.99-51.7,219.83c0,0,96.31-4.02,161.67-135.23
			c5.46-10.97,10.31-21.13,14.58-30.58c1.1-2.42-41.97,0.23-40.94-2.09c1.58-3.61,47.21-12.13,48.63-15.51
			C534.49,229.71,515.53,215.06,505.91,203.13L505.91,203.13z"/>
		<path class="st0" d="M308.74,506.99c0,0,76.54-127.65-5.49-217.99c-82.04-90.35-231.1-87.2-231.1-87.2s12.61,29.17,37.38,67.07
			c0.67,1.03,33.21-9.52,33.91-8.48c1.04,1.57-29.76,14.74-28.68,16.34c18.01,26.58,41.66,56.57,70.79,83.49
			c1.02,0.94,45.33-30.47,46.35-29.54c1.12,1.01-41.04,34.36-39.91,35.36c2.36,2.08,4.75,4.15,7.19,6.19
			C282.88,442.45,308.73,506.99,308.74,506.99L308.74,506.99z"/>
		<path class="st0" d="M320.17,469.26c0,0,81.08-67.02,183.36-12.27s75.77,182.07,75.77,182.07s-42.78-19.54-95.09-48.91
			c-1.31-0.73,6.09-48.35,4.77-49.1c-1.96-1.11-12.65,44.64-14.64,43.51C418.36,552.51,354.17,510.34,320.17,469.26L320.17,469.26z"
			/>
		<path class="st0" d="M320.17,469.26c0,0,126.42,23.56,128.72,134.44c0.58,27.6-1.49,52.21-4.91,73.62
			c-0.34,2.13-20.34-32.75-20.7-30.68c-0.33,1.86,18.98,40.66,18.63,42.45c-10.99,57.09-30.92,88.16-30.92,88.16
			s-32.31-103.61-93.74-142.97c-0.99-0.63,30.7-52.81,29.69-53.42c-1.92-1.14-36.56,49.33-38.52,48.32
			c-67.16-34.52-61.41-152.39,11.75-159.93V469.26z"/>
		<path class="st0" d="M320.17,469.26c0,0-99.45-31.32-163.11,75.69c-0.44,0.73,26.16,17.95,25.74,18.68
			c-1.58,2.73-30.1-11.04-31.51-8.35c-52.94,101.43,19.57,170.93,19.57,170.93s27.9-24.31,52.75-59.79
			c0.77-1.1-24.29-20.62-23.52-21.75c1.08-1.58,27.98,15.22,29.04,13.61c14.22-21.76,26.59-47.03,30.83-73.14
			c12.04-73.91,60.22-115.89,60.22-115.89L320.17,469.26z"/>
		<path class="st0" d="M314.21,485.16c0,0-68.8-149.41-189.3-123.18c-10.68,2.33-20.47,5.24-29.43,8.64
			c-1.01,0.38,15.13,51.91,14.14,52.3c-1.31,0.52-19.74-50.08-21.01-49.54C3.11,409.85-1.44,491.34,4.65,501.91
			c6.85,11.91,158.5,14.52,194.74-1.65c1.9-0.85-11.81-48.28-9.7-49.03c1.53-0.55,18.82,45.56,20.44,45.06
			c39.03-12.02,104.08-11.14,104.08-11.14V485.16z"/>
		<path class="st0" d="M349.94,578.26c-9.45-5.01-39.68-13.01-51.25-3.13c-11.57,9.89-17.25,67.28-13.03,72.3
			c4.23,5.01,48.68,10.03,57.39,0.03S349.94,578.26,349.94,578.26z"/>
		<path class="st0" d="M340.93,644.53c-9.45-5.01-39.68-13.01-51.25-3.13c-11.57,9.89-17.24,67.28-13.02,72.29
			c4.23,5.01,48.68,10.03,57.38,0.04C342.75,703.73,340.93,644.53,340.93,644.53L340.93,644.53z"/>
		<path class="st0" d="M332.86,702.37c-9.45-5.01-39.68-13.01-51.25-3.13c-11.58,9.89-17.25,67.28-13.03,72.3
			c4.22,5.01,48.68,10.03,57.39,0.03C334.68,761.57,332.86,702.37,332.86,702.37L332.86,702.37z"/>
		<path class="st0" d="M325.99,769.54c-9.11-5.61-38.76-15.55-50.94-6.42c-12.18,9.12-21.54,66.03-17.64,71.31
			c3.89,5.27,47.93,13.13,57.26,3.72c9.34-9.42,11.32-68.6,11.32-68.6L325.99,769.54z"/>
		<path class="st0" d="M313.2,836.17c-8.94-5.87-38.29-16.67-50.73-7.91c-12.45,8.76-23.47,65.37-19.73,70.75
			c3.73,5.39,47.53,14.55,57.13,5.4C309.48,895.28,313.2,836.17,313.2,836.17L313.2,836.17z"/>
		<path class="st0" d="M298.25,903.36c-8.94-5.88-38.28-16.68-50.73-7.91c-12.45,8.76-23.47,65.37-19.73,70.75
			c3.74,5.39,47.53,14.54,57.13,5.4C294.53,962.46,298.25,903.36,298.25,903.36L298.25,903.36z"/>
		<path class="st0" d="M283.79,973.38c-8.57-6.4-37.21-18.94-50.17-10.94c-12.95,8-27.33,63.86-23.93,69.44
			c3.41,5.6,46.57,17.36,56.71,8.82c10.13-8.55,17.38-67.32,17.38-67.32H283.79z"/>
		<path class="st0" d="M264.35,1040.4c-8.58-6.4-37.22-18.93-50.17-10.93c-12.95,8-27.34,63.85-23.93,69.44
			c3.41,5.6,46.57,17.36,56.71,8.81C257.09,1099.17,264.35,1040.4,264.35,1040.4L264.35,1040.4z"/>
		<path class="st0" d="M250.54,1103.07c-9.29-6.94-40.36-20.53-54.39-11.85c-14.04,8.67-29.64,69.23-25.94,75.29
			c3.69,6.07,50.49,18.82,61.48,9.55C242.68,1166.8,250.54,1103.07,250.54,1103.07z"/>
		<path class="st0" d="M235.85,1165.1c-9.56-7.14-41.5-21.11-55.93-12.19c-14.44,8.92-30.47,71.18-26.68,77.42
			c3.8,6.25,51.92,19.36,63.22,9.82C227.76,1230.63,235.84,1165.1,235.85,1165.1L235.85,1165.1z"/>
	</g>
	<g id="bushes">
		<path class="st1" d="M775.7,1361.5c3.25,1.96,6.41,4.04,9.55,6.15H34.68c0.54-22.91,1.91-45.79,4.37-68.58
			c3.64-33.77-15.82-63.38,28.53-91.7c6.41-4.09,13.82-7.64,21.86-10.5c21.59-7.7,47.76-10.54,71.41-6.15
			c1.32,0.24,2.62,0.51,3.92,0.8c1.12,0.25,2.22,0.51,3.32,0.8h0.01c11.68,2.94,22.15,7.41,32.69,11.81h0.01
			c3.97,1.66,7.94,3.3,11.99,4.85c6.28,2.4,12.73,4.57,19.62,6.19c10.15,2.39,20.72,3.51,31.51,3.92c0.07,0.01,0.14,0.01,0.21,0.01
			c21.14,0.82,43.14-1.01,64.55-1.03c11.78-0.02,23.39,0.51,34.57,2.34c0.2,0.03,0.4,0.06,0.6,0.1c3.1,0.51,6.16,1.13,9.19,1.86
			c1.93,0.47,3.8,0.97,5.65,1.53c0-0.01,0,0,0,0c10.43,3.06,19.67,7.32,28.36,12.12c2.94,1.62,5.8,3.3,8.64,5.03h0.01
			c4.29,2.59,8.49,5.27,12.69,7.95c7.64,4.87,15.3,9.74,23.48,14.09c9.07,4.83,18.79,9.03,29.86,11.89
			c14.04,3.63,29.43,4.86,43.72,8.1c25.29,5.75,44.64,16.77,63.73,28.06c14.78,8.74,29.41,17.64,46.54,24.38
			c4.38,1.72,8.91,3.3,13.66,4.7c22.82,6.73,50.8,8.21,79.07,8.21c-5.65,4.92-10.61,11.05-14.87,18.11
			c14.4-17.28,42.61-16.81,62.11-5.04L775.7,1361.5z"/>
		<path class="st1" d="M1219.41,1367.65h853.3c-1.76-40.65-6.84-81.25-15.25-121.6c-0.65-3.12-7.43-4.45-18.77-4.36
			c0,0.01-0.01,0-0.01,0c-9.4,0.06-21.94,1.09-36.71,2.87c-0.01-0.01-0.01,0-0.01,0c-5.11,0.6-10.47,1.3-16.08,2.09h-0.01
			c-10.96,1.52-22.8,3.34-35.25,5.4c-2.14,0.35-4.29,0.71-6.47,1.08c-8.41,1.42-17.07,2.93-25.9,4.53
			c-0.51,0.09-1.02,0.18-1.54,0.28c-3.82,0.69-7.66,1.39-11.53,2.11c-0.92,0.17-1.84,0.34-2.76,0.52
			c-8.37,1.55-16.84,3.17-25.34,4.83c-0.08,0.01-0.17,0.03-0.25,0.05c-19.61,3.82-39.4,7.85-58.56,11.88
			c-3.85,0.81-7.68,1.62-11.47,2.43c-6.29,1.34-12.48,2.67-18.56,4c-4.14,0.9-8.22,1.79-12.24,2.68
			c-50.36,11.12-90.64,21-102.33,24.97h-0.01c-0.05,0-0.08,0.03-0.12,0.04c-2.6,0.89-5.14,1.71-7.61,2.46h-0.02
			c-4.23,1.3-8.26,2.4-12.17,3.32c-0.06,0.02-0.11,0.04-0.17,0.05c-0.04,0.01-0.04,0.01,0,0c-36.36,8.63-60.57,2.79-105.88,2.37
			c-14.1-0.13-27.99,1.76-41.73,3.78c-0.99,0.14-1.98,0.28-2.97,0.43c-0.19,0.03-0.39,0.06-0.58,0.09
			c-33.87,5.04-72.48,13.61-111.76,20.77c-1.6,0.29-3.2,0.58-4.81,0.86c-2.2,0.4-4.41,0.79-6.61,1.17c-0.8,0.14-1.6,0.28-2.4,0.41
			c-8.27,1.42-16.54,2.75-24.78,3.95c-6.3,0.91-12.59,1.75-18.84,2.48c-27.25,3.21-53.85,4.55-78.42,2.31h-0.07
			c-17.43-1.59-34.2-5.09-51.16-8.06c-1.87-0.33-3.73-0.65-5.6-0.96c-3.69-0.61-7.39-1.19-11.09-1.73
			c-44.23-6.49-88.9-7.94-133.76-7.14c-6.04,0.1-12.08,0.25-18.13,0.44c-3.86,0.11-7.73,0.24-11.6,0.38
			c-10.31,0.38-20.62,0.84-30.94,1.36c-20.88,1.03-41.78,2.28-62.67,3.47c-2.33,0.12-4.65,0.25-6.98,0.38
			c-40.58,2.25-81.12,4.11-121.45,3.53c-12.27-0.18-25.52,0.1-39.17,0.39c10.03,3.67,18.2,10.59,24.59,19.69L1219.41,1367.65
			L1219.41,1367.65z"/>
		<path class="st1" d="M274.56,1251.83c-3.06-1.42-6.17-2.76-9.34-3.93c-9.76-3.57-19.63-7.26-27.76-13.93
			c-9.49-7.79-16.87-17.4-25.64-25.95c-15.16-14.79-42.03-21.75-60.99-10.01c19.42-16.2,42.62-22.86,66.98-12.32
			c-3.77-10.14-16.74-18.96-25.4-24.59c-11.67-7.58-32.49-19.38-46.87-18.02c10.41-4.47,31.11,0.55,41.55,3.66
			c5.92,1.79,13.02,4.74,18.52,7.7c5.04,2.7,9.1,8.04,14.63,9.65c-4.16-23.94-2.59-47.88,3.94-71.31
			c4.29-15.34,11.4-29.88,21.65-41.55c-7.82,18.02-14.29,35.59-16.5,55.07c-0.96,8.46-1.02,16.22-0.81,24.62
			c0.24,10.04,3.23,21.92,6.16,31.52c1.99,6.55,11.56,19.39,10.78,25.44c2.39-18.35,0.99-37.04,5.93-56.04
			c5.61-21.51,13.06-42.02,7.93-64.25c8.57,21.51,6.46,48.57,3.17,71.01c-1.15,7.87-12.95,33.41-7.21,38.52
			c13.44-23.38,26.03-52.44,28-79.6c0.75,30.29-8.49,57.2-14.46,85.7c13.76-7.24,39.92-69.66,31.73-82.72
			c14.99,23.97-8.59,77.09-18.98,100.2c9.6-11.07,13.4-29,24.4-40.76c9.42-10.06,29.14-25.4,43.23-27.15
			c-11.61,11.61-19.96,24.39-26.28,39.72c-4.56,11.04-13.45,30.31-10.95,41.89c9.82-14.79,17.94-29.81,34.16-39.19
			c15.16-8.77,32.59-6.99,47.1-11.1c-14.8,9.67-30.27,15.1-43.83,27.36c-8.55,7.73-16.46,16.52-23.48,25.67
			c12.2-7.28,27.84-9.21,41.01-15.24c16.12-7.38,32.43-14.39,49.88-17.94c12.4-2.54,37.07-7.54,48.8-1.13
			c-9.74-5.33-40.89,8.26-50.35,12.16c-18.35,7.57-50.23,17.17-60,36.21c23.61-7.32,42.21-14.73,68.09-12.36
			c20.33,1.86,40.09,4.03,59.72-4.18c-20.15,8.42-34.8,21.54-57.33,25.08c-8.59,1.35-16.87,2.09-25.38,2.5
			c-9.27,0.46-61.95-1.27-61.45,9.86c0.71,16.34,54.28,1,63.29-1.22c12.28-3.02,24.94-2.79,37.4-0.24
			c6.24,1.28,12.44,3.12,18.14,6.03c3.22,1.61,12.16,10.87,14.72,11c-10.38-0.53-22.24-6.01-33.29-7.42
			c-15.23-1.93-31.2-1.81-46.35,0.18c-13.24,1.75-25.2,7.2-38.87,8.29c-18.85,1.52-41.88-0.93-59.57-7.83
			C287.64,1258.25,281.19,1254.89,274.56,1251.83L274.56,1251.83z"/>
		<path class="st1" d="M127.29,1213.86c2.61,0.83,5.21,1.73,7.75,2.78c7.81,3.22,15.75,6.43,24.29,6.89
			c9.97,0.54,19.67-1.17,29.62-1.48c17.21-0.54,37.13,10.04,42.06,27.49c-2.74-20.37-12.99-37.11-33.38-44.16
			c7.82-4.01,20.44-2.17,28.72-0.79c11.16,1.86,30.11,6.22,37.99,14.94c-3.78-8.39-18.95-16.76-26.91-20.62
			c-4.54-2.18-10.41-4.31-15.33-5.55c-4.5-1.15-9.87-0.18-14.07-2.25c15.64-12.06,27.84-27.28,36.79-44.9
			c5.85-11.55,9.58-24.17,9.84-36.79c-5.2,15.09-10.98,29.18-20.35,42.07c-4.07,5.6-8.29,10.28-13.03,15.21
			c-5.66,5.88-13.97,11.36-21,15.51c-4.79,2.83-17.58,5.28-20.43,9.33c8.64-12.32,19.75-22.75,27.22-36.85
			c8.45-15.98,15.25-32.36,30.53-42.87c-16.94,8.19-30.54,25.57-40.9,40.82c-3.63,5.35-10.58,27.14-16.83,27.05
			c4.78-21.39,13.19-45.73,26.93-63.09c-17.08,17.75-26.32,38.95-38.39,59.31c-4.27-11.9,14.33-63.67,26.4-67.01
			c-22.15,6.14-37.18,50.92-43.64,70.49c0.32-11.91,7.89-24.74,7.76-37.83c-0.12-11.21-3.52-31.23-11-40.01
			c0.59,13.33-1.43,25.58-6.06,38.23c-3.33,9.12-8.58,25.55-16.44,31.12c2.24-14.26,5.61-27.72,1.04-42.24
			c-4.27-13.58-15.69-22.08-22.14-32.51c3.56,13.92,9.85,25.67,11.25,40.47c0.88,9.33,0.79,18.94-0.02,28.28
			c-3.31-11.06-11.63-20.81-16.21-31.65c-5.61-13.27-11.53-26.43-20.04-38.14c-6.04-8.33-18.08-24.87-28.63-27.47
			c8.77,2.16,19.97,27.41,23.5,34.94c6.84,14.61,20.68,37.88,16.09,54.65c-10.13-17.35-17.21-32.01-34.02-44.8
			c-13.21-10.05-26.24-19.6-33.5-35.3c7.45,16.11,9.03,32.02,20.59,46.51c4.41,5.52,8.97,10.52,13.84,15.43
			c5.3,5.36,37.83,33.25,31.42,39.66c-9.4,9.4-33.08-29.2-37.27-35.48c-5.7-8.55-13.42-15.37-22.28-20.68
			c-4.44-2.66-9.17-4.96-14.18-6.35c-2.81-0.81-13.26-0.16-14.87-1.49c6.51,5.38,16.63,8.61,24.03,13.83
			c10.19,7.21,19.7,16.05,27.68,25.56c6.98,8.32,11.15,18.15,18.74,26.31c10.47,11.26,25.61,22.44,40.01,28.02
			c5.49,2.12,11.2,3.65,16.85,5.45L127.29,1213.86z"/>
		<path class="st1" d="M1892.17,1306.9c-2.83,0.18-5.66,0.42-8.47,0.83c-8.64,1.26-17.41,2.49-26.08,0.81
			c-10.13-1.96-19.43-6.11-29.32-8.92c-17.11-4.86-39.75,0.74-49.07,16.99c7.87-19.74,22.35-33.93,44.56-35.89
			c-6.84-5.99-19.95-7.32-28.6-8.01c-11.66-0.93-31.75-1.33-41.84,5.43c5.9-7.46,23.21-12.04,32.16-13.91
			c5.09-1.04,11.52-1.7,16.76-1.71c4.8-0.02,9.94,2.3,14.67,1.28c-12.65-16.02-21.06-34.34-25.6-54.26
			c-2.96-13.05-3.53-26.63-0.62-39.36c1.42,16.44,3.67,32.01,9.83,47.29c2.67,6.63,5.73,12.39,9.25,18.52
			c4.19,7.32,11.15,14.9,17.15,20.83c4.09,4.04,16.3,9.71,18.14,14.49c-5.57-14.52-14.08-27.77-18.02-43.78
			c-4.46-18.14-7.15-36.27-19.83-50.65c14.93,12.47,24.19,33.3,30.74,51.2c2.29,6.28,3.79,29.86,10.07,31.34
			c0.58-22.65-1.73-49.16-11.14-70.02c12.67,22.08,16.6,45.66,23.58,69.1c7.27-10.85,1.64-67.44-9.63-73.81
			c20.66,11.72,24.48,60.4,26.04,81.63c2.67-12.02-1.7-26.78,1.73-39.87c2.94-11.2,11.38-30.42,21.08-37.35
			c-3.94,13.22-4.99,26-3.53,39.85c1.04,9.98,2.18,27.77,8.66,35.33c1.34-14.86,1.34-29.2,9.57-42.61
			c7.7-12.54,21.28-18.2,30.36-27.03c-7.07,13.06-16.33,23.26-21.45,37.74c-3.23,9.13-5.56,18.79-7.08,28.35
			c6.1-10.26,16.89-17.94,24.21-27.66c8.96-11.9,18.2-23.6,29.68-33.2c8.15-6.84,24.38-20.39,35.6-20.34
			c-9.33-0.04-26.91,22.46-32.34,29.12c-10.53,12.93-30.25,32.77-29.86,50.75c14.52-14.85,25.3-27.76,45.37-36.36
			c15.77-6.76,31.24-13.05,42.46-26.97c-11.52,14.28-17.1,29.83-32.33,41.45c-5.81,4.43-11.63,8.29-17.75,12
			c-6.66,4.04-46.29,23.83-41.46,31.86c7.06,11.79,40.51-20.96,46.28-26.21c7.86-7.14,17.31-12.03,27.53-15.13
			c5.12-1.54,10.44-2.67,15.81-2.8c3.02-0.1,13.33,3.17,15.28,2.24c-7.88,3.76-18.84,4.45-27.56,7.83
			c-12.03,4.67-23.78,11.14-34.18,18.67c-9.09,6.59-15.74,15.4-25.4,21.67c-13.32,8.66-31.31,16.06-47.15,18.03
			C1904.4,1306.43,1898.28,1306.52,1892.17,1306.9L1892.17,1306.9z"/>
		<path class="st1" d="M1666.69,1324.44c-0.07-0.52-0.23-1.03-0.45-1.51c-2-4.43-7.53-5.75-12.5-5.7c-0.08,0-0.15,0.01-0.23,0.01
			c-0.28,0.01-0.57,0.02-0.85,0.03c-5.21,0.27-10.84,1.24-15.34-1.41c-3.2-1.89-5.37-5.44-8.89-6.65
			c-6.54-2.26-11.26,3.95-16.58,6.33c-6.13,2.74-11.79,2.44-18.45,3.31c-0.19,0.03-0.38,0.09-0.57,0.12
			c2.36-2.67,5.85-4.18,8.66-6.45c3.1-2.49,5.26-7.35,2.61-10.32c-0.77-0.86-1.88-1.46-2.38-2.5c-2.11-4.39,11.2-6.89,13.29-7.53
			c1.18-0.37,2.36-0.82,3.47-1.39c2.17-1.11,4.07-2.68,5.04-4.88c0.13-0.3,0.23-0.6,0.3-0.92c0.8-3.23-1.13-7.24-4.45-7.35
			c-1.52-0.05-3.14,0.67-4.49-0.02c-2.24-1.15-1.19-4.52,0.73-6.27c0.16-0.14,0.32-0.27,0.49-0.39c2.54-1.78,5.71-2.59,8.04-4.63
			c2.34-2.04,3.35-6.23,0.82-8.03c-0.91-0.65-2.07-0.83-3.19-0.93c-6.56-0.62-13.2,0.72-19.13,3.57c-4.65,2.22-8.86,5.37-12.26,9.22
			c-1.88,2.12-3.51,4.46-4.82,6.97c-0.31,0.57-0.59,1.15-0.86,1.74c-2.08,4.58-3.48,9.93-7.64,12.76c-2.45,1.66-5.49,2.15-8.35,2.93
			c-3,0.82-5.85,2.06-8.55,3.58c-1.59-2.68-5.57-5.37-7.01-8.33c-1.97-4.05,1.36-7.63,5.33-9.51s8.85-2.94,11.63-5.84
			c0.12-0.13,0.24-0.25,0.35-0.38c0.9-1.03,1.53-2.16,1.94-3.37c3.05-8.78-5.04-21.59,0.56-30.26c2.37-3.66,4.17-7.62,5.37-11.78
			c0.01-0.03,0.02-0.06,0.02-0.09c1.57-5.41,2.13-11.16,1.63-17.04c-0.14-1.59-0.59-3.5-2.43-4.46c-6.45-3.38-7.78,9.85-8.74,12.18
			c-2.48,5.96-9.58,9.26-15.17,13.37c-12.86,9.45-16.33,24.95-21.01,38.62c-2.35,6.86-4.71,13.77-5.17,21.17
			c-7.29-0.13-13.18,4.12-13.57,9.82c-0.33,4.74,2.7,10.26,0.47,14.35c-1.36,2.48-4.39,3.9-6.87,5.64
			c-0.54,0.38-1.05,0.78-1.54,1.21c-1.22,1.03-2.28,2.18-3.24,3.39c-0.08-0.96-0.18-1.92-0.31-2.87
			c-0.72-5.62-2.26-11.01-5.38-15.73c-1.73-2.61-3.94-5.04-4.65-8.09c-1.17-5.05,2.1-10.02,2.56-15.17
			c0.56-6.2-3.51-12.52-9.38-14.58c0.75-8.03-0.09-16.12-0.92-24.15c-1.68-16-2.09-33.58-10.96-47.55
			c-3.86-6.08-9.05-11.74-10.13-18.85c-0.42-2.78,0.53-17.29-5.16-15.64c-1.62,0.47-2.27,2.38-2.62,4.03
			c-2.3,10.87-1.87,22.29,1.22,32.96c3.66,12.63-8.15,25.62-2.9,37.14c1.79,3.93,5.54,6.54,8.44,9.75c2.9,3.2,5.02,8.03,2.82,11.75
			c-2.19,3.72-8.15,5.46-7.79,9.76c0.23,2.74,3.04,4.35,5.09,6.17c3.9,3.46,5.67,9.14,4.43,14.2c-2.38-1.47-5.69,0.2-6.96,2.7
			c-0.36,0.69-0.58,1.43-0.73,2.19c-1.76-1.47-3.86-2.49-6.13-2.78c-0.81-6.95-2.98-13.66-5.14-20.31
			c-4.3-13.27-7.83-28.09-17.87-38.34c-4.36-4.46-9.78-8.32-11.98-14.16c-0.86-2.27-2.67-14.74-7.19-12.32
			c-1.3,0.69-1.51,2.42-1.5,3.89c0.01,9.62,2.43,19.24,6.98,27.72c5.38,10.05-2.29,23.19,4.24,32.01c2.23,3.01,5.87,4.55,8.91,6.74
			c1.29,0.93,2.51,2.13,3.39,3.48c0.13,0.18,0.23,0.35,0.34,0.53c0.98,1.71,1.41,3.6,0.79,5.45c-1.19,3.54-5.93,6.1-4.85,9.68
			c0.69,2.28,3.36,3.14,5.43,4.31c3.93,2.23,6.46,6.73,6.32,11.24c-1.36-0.48-2.75,0.09-3.82,1.07c-1.67-2.88-4.55-5.05-7.83-5.66
			c-2.02-0.38-4.26-0.26-5.94-1.46c-1.88-1.35-2.3-3.75-2.26-6.17c0.02-0.9,0.09-1.8,0.18-2.66c0.28-2.79,0.04-5-0.62-6.75
			c-1.73-4.6-6.39-5.97-12.41-6.02c-1.92-0.01-3.97-0.92-4.75-2.67c-0.17-0.37-0.27-0.75-0.34-1.14c-0.2-1.16-0.08-2.42-0.3-3.6
			c-0.57-2.91-3.58-5.13-6.53-4.81c-0.88,0.1-1.75,0.39-2.63,0.31c-0.18-0.02-0.36-0.04-0.53-0.08c-1.64-0.33-2.83-1.49-3.83-3.08
			c-2.92-4.6-4.24-12.72-10.18-13.85c-4.04-0.77-8.22,1.74-12.23,0.8c-7.04-1.66-10.76-7.55-18.66-4.09
			c-2.38,1.04-6.59,5.09-4.56,8.09c2.04,3.02,9.62-1.1,12.03,2c1.95,2.52,2.22,5.89,3.08,8.96c0.87,3.06,2.93,6.33,6.12,6.54
			c2.04,0.14,4.04-1.06,6.07-0.78c2.09,0.29,3.29,1.74,4.04,3.67c0.92,2.33,1.17,5.37,1.52,7.89c0.11,0.83,0.34,1.72,0.79,2.4
			c0.28,0.41,0.63,0.74,1.11,0.93c1.29,0.52,2.68-0.29,4.03-0.59c5.38-1.2,9.05,5.8,8.51,11.28c-0.08,0.78-0.2,1.54-0.35,2.28
			c-0.13,0.64-0.29,1.27-0.45,1.89c-0.19-0.48-0.37-0.94-0.58-1.38c-1.26-2.79-3.08-5.03-7.78-6.87c-4.33-1.69-7.23-0.23-10.94,0.05
			c-1,0.08-2.07,0.07-3.24-0.12c-2.66-0.41-5.06-1.54-7.45-2.81c-4.07-2.18-8.1-4.8-13.31-5.11c-2.59-0.15-5.12,0.58-7.33,1.9
			c-3.01,1.82-5.4,4.74-6.47,8.04c-0.39,1.21-0.62,2.5-0.39,3.74c0,0.01,0.01,0.03,0.01,0.04c0.71,3.69,5.12,5.51,8.89,5.33
			c2.89-0.15,5.7-1.06,8.55-1.51c0.88-0.14,1.77-0.24,2.66-0.26c3.07-0.06,6.07,0.98,8.57,2.74c3.41,2.39,5.92,6.12,6.48,10.24
			c0.03,0.25,0.06,0.5,0.08,0.75c0.28,3.61-0.3,8.18,2.86,9.94c3.46,1.92,8.01-1.78,11.59-0.09c0.23,0.11,0.45,0.24,0.65,0.39
			c1.49,1.05,2.25,2.97,2.57,4.81c0.23,1.35,0.3,2.75,0.29,4.17c-0.02,1.62-0.14,3.27-0.26,4.91c-0.07,0.81-0.13,1.62-0.17,2.42
			c-0.01,0.18-0.02,0.36-0.03,0.53c-0.11,2.73,0.05,5.32,0.93,7.61c-1.49-1.59-2.96-3.17-4.39-4.6c-1.19-1.18-2.36-2.25-3.52-3.13
			c-0.24-0.19-0.49-0.37-0.75-0.55c-0.35-0.24-0.71-0.48-1.08-0.7c-3.91-2.4-8.75-3.6-12.74-1.53c-1.64,0.85-2.98,2.18-4.56,3.14
			c-1.57,0.97-3.59,1.56-5.26,0.75c-0.04-0.02-0.09-0.04-0.13-0.07c-1-0.53-1.72-1.48-2.53-2.29c-3.36-3.32-9.07-3.59-13.03-1.2
			c-2.85,1.72-3.74,5.07-5.37,7.63c-0.7,1.09-1.54,2.04-2.72,2.66c-1.44,0.76-3.17,0.57-4.78,0.83c-5.82,0.92-6.64,6.3-8.94,10.57
			h23.93c0.66-0.48,1.4-0.87,2.24-1.12c2.83-0.85,5.51-0.28,7.72,1.12h233.55c5.39-1.27,11.27,0.17,15.18-5.21
			c3.38-4.66,1.02-9.92,2.23-15.23c0.91-3.99,3.74-7.82,7.74-8.66c7.39-1.55,13.52,7.21,21.06,6.96c1.91-0.06,3.95-0.87,4.8-2.58
			c0.66-1.33,0.48-2.91,0.84-4.35c0.65-2.57,2.99-4.41,5.49-5.27s5.19-0.93,7.82-1.15c4.2-0.36,8.36-1.15,12.4-2.34
			c1.96-0.58,4.13-1.48,4.8-3.41C1666.78,1325.78,1666.81,1325.1,1666.69,1324.44L1666.69,1324.44z"/>
		<path class="st1" d="M1723.55,1336.01c2.93,0.08,5.86,0.24,8.78,0.57c8.96,1,18.07,1.96,27-0.06
			c10.43-2.36,19.94-6.93,30.11-10.15c17.58-5.57,41.13-0.6,51.16,15.77c-8.62-19.99-23.94-34.07-46.96-35.32
			c6.93-6.38,20.45-8.19,29.38-9.2c12.03-1.36,32.81-2.44,43.4,4.15c-6.29-7.46-24.29-11.57-33.6-13.18
			c-5.29-0.9-11.95-1.35-17.38-1.19c-4.97,0.14-10.22,2.7-15.14,1.81c12.69-16.88,20.95-35.97,25.16-56.57
			c2.75-13.49,3-27.46-0.32-40.42c-1.07,16.92-3.02,32.99-9.02,48.88c-2.6,6.9-5.62,12.92-9.11,19.32
			c-4.16,7.65-11.17,15.68-17.24,21.96c-4.13,4.29-16.62,10.52-18.41,15.49c5.41-15.09,13.89-28.98,17.58-45.56
			c4.17-18.77,6.52-37.48,19.28-52.66c-15.14,13.3-24.21,35.01-30.55,53.6c-2.22,6.52-3.19,30.78-9.66,32.52
			c-1.15-23.23,0.6-50.52,9.82-72.25c-12.56,23.1-16.06,47.44-22.71,71.74c-7.79-10.89-3.33-69.17,8.17-76.1
			c-21.09,12.73-23.85,62.83-24.95,84.68c-3.05-12.25,1.1-27.55-2.76-40.87c-3.31-11.4-12.5-30.84-22.71-37.62
			c4.39,13.44,5.79,26.52,4.62,40.79c-0.84,10.28-1.58,28.58-8.1,36.56c-1.75-15.21-2.09-29.93-10.93-43.42
			c-8.27-12.61-22.45-17.95-32.06-26.71c7.63,13.17,17.45,23.32,23.1,38.01c3.56,9.26,6.2,19.1,8.01,28.86
			c-6.56-10.32-17.9-17.84-25.71-27.57c-9.56-11.91-19.4-23.61-31.5-33.07c-8.59-6.74-25.71-20.1-37.32-19.67
			c9.65-0.36,28.38,22.14,34.16,28.79c11.2,12.91,32.08,32.61,32.11,51.08c-15.37-14.75-26.84-27.64-47.8-35.78
			c-16.47-6.4-32.62-12.34-44.57-26.24c12.26,14.26,18.41,30.04,34.44,41.45c6.12,4.35,12.23,8.11,18.65,11.71
			c6.99,3.92,48.45,22.89,43.66,31.29c-7.01,12.34-42.4-20.14-48.5-25.33c-8.31-7.06-18.2-11.76-28.85-14.6
			c-5.34-1.41-10.86-2.39-16.42-2.34c-3.13,0-13.71,3.71-15.75,2.82c8.24,3.59,19.59,3.93,28.7,7.1c12.55,4.38,24.86,10.63,35.8,18
			c9.56,6.45,16.65,15.27,26.8,21.38c13.99,8.44,32.78,15.42,49.2,16.91c6.26,0.56,12.58,0.45,18.92,0.65L1723.55,1336.01z"/>
		<path class="st1" d="M687.57,1248.2c-1.99-7.01-12.5,1.13-14.85,2.03c-0.44,0.17-0.89,0.31-1.34,0.42
			c-0.34,0.09-0.69,0.16-1.04,0.23c-5.52,0.95-11.81-1.39-17.76-2.46c-15.71-2.82-29.34,5.32-42.49,11.33
			c-2.26,1.04-4.52,2.07-6.75,3.18c-2.49,1.24-4.94,2.56-7.29,4.08c-1.69,1.08-3.32,2.25-4.88,3.56c-4.92-5.39-12.05-6.73-16.46-3.1
			c-3.38,2.79-5.26,8.08-9.06,9.84c-0.33,0.16-0.67,0.28-1.03,0.38c-2.73,0.72-5.85-0.51-8.82-1.11c-0.41-0.08-0.81-0.15-1.22-0.21
			c-1.85-0.26-3.65-0.25-5.41-0.09c1.05-1.18,2.05-2.38,2.99-3.62c0.67-0.87,1.31-1.77,1.9-2.68c2.15-3.27,3.81-6.78,4.7-10.63
			c0.71-3.05,0.95-6.33,2.67-8.94c2.46-3.71,7.12-5,10.96-7.33c0.41-0.25,0.81-0.51,1.2-0.79c0.21-0.15,0.42-0.3,0.62-0.46
			c4.87-3.86,6.66-11.16,4.11-16.84c6.35-4.98,11.65-11.15,16.89-17.28c10.47-12.22,22.94-24.62,26.97-40.67
			c1.76-6.98,2.3-14.64,6.72-20.32c1.72-2.22,12.91-11.51,7.8-14.5c-1.46-0.86-3.29-0.02-4.73,0.86
			c-9.47,5.81-17.47,13.99-23.08,23.57c-6.65,11.35-24.2,11.71-28.95,23.45c-1.62,4-0.94,8.52-1.27,12.83
			c-0.33,4.3-2.37,9.17-6.58,10.14c-4.21,0.96-9.58-2.17-12.44,1.05c-1.83,2.05-1.08,5.2-0.98,7.94c0.17,5.21-2.73,10.41-7.26,12.99
			c-0.57-2.74-4.06-4-6.75-3.2c-0.75,0.22-1.43,0.57-2.09,0.98c-0.14-2.28-0.85-4.52-2.2-6.37c4.49-5.36,7.86-11.55,11.21-17.69
			c6.66-12.25,15-25.01,15.52-39.35c0.23-6.23-0.69-12.82,2.03-18.44c1.06-2.18,8.87-12.08,4-13.7c-1.39-0.46-2.8,0.58-3.86,1.59
			c-6.97,6.63-12.28,15.01-15.31,24.14c-3.59,10.82-18.41,14.3-20.31,25.1c-0.65,3.69,0.74,7.4,1.23,11.11
			c0.5,3.71-0.35,8.21-3.75,9.78c-3.39,1.58-8.51-0.1-10.36,3.15c-1.18,2.06,0.03,4.59,0.61,6.9c1.08,4.39-0.44,9.32-3.81,12.32
			c-0.58-1.32-1.95-1.93-3.41-2.03c0.95-3.19,0.54-6.78-1.27-9.58c-1.12-1.73-2.75-3.27-3.03-5.31c-0.43-3.15,2.46-5.65,4.97-7.59
			c8.04-6.24,5.97-12.18,0.3-18.24c-1.31-1.41-2.05-3.51-1.32-5.29c0.15-0.37,0.35-0.71,0.59-1.03c0.71-0.94,1.7-1.72,2.4-2.69
			c1.73-2.42,1.27-6.13-1-8.05c-0.67-0.57-1.48-1-2.03-1.69c-4.35-5.46,6.84-15.25,2.34-22.26c-2.22-3.46-6.92-4.77-8.99-8.32
			c-3.64-6.26-1.93-13.01-9.87-16.36c-2.4-1.02-8.24-1.28-9.02,2.25c-0.78,3.57,7.43,6.23,6.83,10.11c-0.49,3.15-2.75,5.67-4.38,8.4
			c-1.63,2.74-2.57,6.48-0.54,8.94c1.31,1.58,3.55,2.21,4.75,3.87c2.71,3.78-1.68,8.36-4.57,11.99c-0.84,1.05-1.61,2.42-1.11,3.67
			c0.51,1.29,2.06,1.74,3.2,2.52c4.58,3.08,2.02,10.56-2.32,13.93c-1.16,0.9-2.37,1.62-3.58,2.29c1.58-3.33,2.44-6.32,0.23-11.74
			c-2.23-5.48-6.55-5.76-9.71-10.33c-4.13-6-3.2-14.19-8.53-20.52c-3.96-4.7-11.29-5.76-16.71-3.18c-1.14,0.55-2.24,1.27-2.98,2.29
			c-2.23,3.06-0.51,7.54,2.23,10.16c2.74,2.61,6.33,4.21,8.99,6.91c5.27,5.35,5.48,14.86,0.45,20.43c-1.48,1.64-3.45,3.3-4.55,5.13
			c-0.35,0.6-0.61,1.2-0.73,1.84c-0.14,0.62-0.14,1.27,0.04,1.94c0.98,3.83,6.8,4.59,8.03,8.35c0.66,2.02-0.29,4.22-1.56,5.92
			c-2.21,2.96-5.52,5.33-8.44,7.8c-2.23,1.9-4.16,3.9-5.28,6.26c0.22-3.97,0.5-7.86,0.16-11.05c-0.55-5.2-3.07-10.78-8-12.49
			c-1.75-0.61-3.64-0.67-5.42-1.15c-0.08-0.02-0.16-0.04-0.24-0.07c-1.71-0.51-3.39-1.55-3.92-3.23c-0.28-0.89-0.21-1.84-0.15-2.78
			c0.01-0.26,0.03-0.52,0.03-0.78c0.09-4.72-3.64-9.05-8.1-10.28c-4.58-1.26-8.81,2.67-13.03,1.22c-1.54-0.54-2.6-1.92-3.89-2.91
			c-6.11-4.69-11.86,2.05-18.2,1.19c-0.79-0.11-1.68-0.31-2.64-0.53h-0.01c-3.87-0.88-8.74-2.03-11.11,1.54
			c-1.44,2.18-1.13,3.58,0.03,4.51c1.49,1.22,4.38,1.64,6.61,1.96c4.87,0.7,9.64,2.14,14.08,4.26c-1.58,0.99-0.61,3.59,0.99,4.54
			c3.26,1.94,7.02,0.63,10.6,0.54h0.01c1.6-0.05,3.17,0.15,4.64,1c2.9,1.66,4.36,4.44,4.63,7.4c0.25,2.65-0.44,5.44-1.88,7.72
			c-0.45,0.7-0.97,1.42-1.02,2.26c-0.06,1.1,0.69,2.08,1.48,2.86c1.54,1.52,3.37,2.75,5.35,3.6c1.68,0.72,3.54,1.23,4.76,2.58
			c1.19,1.32,1.47,3.12,1.19,4.9c-0.19,1.19-0.63,2.38-1.21,3.41c-0.48,0.83-1.04,1.61-1.62,2.38c-1.86-0.2-3.72-0.35-5.59-0.24
			c-3.37,0.19-6.89,1.36-8.93,4.05c-1.74,2.27-0.86,5-0.53,7.45c0.24,1.81,0.19,3.47-1.4,4.7c-0.87,0.69-1.9,1.08-2.97,1.37
			c-0.71,0.19-0.72,0.2-0.02,0.01c-0.87,0.24-1.78,0.41-2.66,0.61c-0.11-0.15-0.22-0.31-0.34-0.46c-1.4-1.95-2.88-3.93-5.05-4.9
			c-4.56-2.04-10.31,1.13-14.73-1.19c-2.16-1.13-3.49-3.34-4.91-5.32c-1.2-1.66-2.54-3.21-4-4.63c-2.19-2.14-4.65-4-7.3-5.55
			c-0.14-0.09-0.28-0.17-0.43-0.25c-4.17-2.39-8.77-4.04-13.5-4.86c-5.09-0.89-11.92-0.99-16.86,0.52c-1.96,0.6-3.33,1.28-4.21,2
			c-4.06,3.34,2.36,7.59,9.15,8.5c5.01,0.67,10.16,0.16,15.07,1.3c1.22,0.28,2.41,0.68,3.57,1.16c0.75,0.32,1.49,0.68,2.2,1.08
			c4.41,2.45,8.04,6.34,10.03,10.98c0.26,0.59,0.49,1.21,0.71,1.84c1.85,5.05,3.02,10.97,6.65,14.07c0.86,0.75,1.87,1.32,3.06,1.69
			c2.92,0.91,6.88,0.53,8.75,2.54c0.29,0.31,0.53,0.68,0.71,1.13c0.61,1.52,0.07,3.22-0.23,4.83
			c-2.32,12.53,12.17,21.95,23.35,20.33c3.25-0.47,6.51-1.62,9.75-1.07c1.68,0.29,3.22,1.04,4.69,1.92
			c0.84,0.49,1.65,1.02,2.45,1.56c0.72,0.48,1.36,1,1.95,1.54c1.17,1.08,2.11,2.27,3.02,3.59c0.46,0.66,0.9,1.36,1.37,2.09
			c1.42,2.24,3.18,4.32,5.18,6.14c-0.96,0.38-1.95,0.68-3.03,0.81c-8.49,0.97-14.37-10.04-23.4-1.66c-1.89,1.75-3.34,4.13-5.7,5.16
			c-3.21,1.39-6.83-0.17-10.22-1.05c-3.38-0.89-7.9-0.53-9.14,2.74c-0.78,2.04,0.13,4.38-0.39,6.49c-0.9,3.62-5.25,4.92-8.87,5.82
			c-4.73,1.18-9.72,3.02-12.41,7.09c-2.69,4.08-1.44,10.88,3.29,12.09c5.42,1.38,9.45-4.75,14.19-7.73
			c5.2-3.26,12.62-2.42,16.97,1.92c1.67,1.68,3.13,3.91,5.46,4.31c2.34,0.39,4.46-1.25,6.51-2.44c8.81-5.08,15.51,1.1,23.73,0.18
			c7.59-0.84,13.03,7.72,20.51,9.26c3.42,0.7,6.97-0.26,9.95-2.15c2.67,2.06,5.77,3.6,10.25,5.84c7.16,3.6,12.03,8.06,13.48,16.28
			c0.08,0.46,0.14,0.93,0.18,1.4h63.8c-0.21-0.24-0.42-0.47-0.65-0.69c5.86-2.79,12.27-6.79,17.92-4.96
			c3.31,1.08,5.65,3.56,8.14,5.65h15.41c2.02-1.85,3.82-4.08,6.34-5.57c3.52-2.08,8.24-2.67,11.6-0.34c2.06,1.43,3.2,3.54,4,5.91
			h32.08c-0.14-0.4-0.26-0.81-0.36-1.23c-0.84-3.63,0.24-7.64-1.3-11.03c-2.35-5.18-8.03-5.52-12.96-6.73
			c-1.06-0.25-2.09-0.55-3.04-0.94c-6.21-2.57-9.88-6.88-15.09-11.11c-0.15-0.12-0.33-0.21-0.48-0.33
			c3.56-0.13,7.05,1.36,10.63,1.84c1.19,0.16,2.48,0.11,3.72-0.15c1.79-0.37,3.46-1.19,4.5-2.45c0.6-0.72,0.99-1.59,1.07-2.61
			c0.09-1.15-0.24-2.36,0.18-3.44c1.73-4.55,12.7,3.39,14.6,4.46c3.17,1.79,6.98,3.09,10.41,1.86c3.42-1.23,5.56-5.98,3.15-8.7
			c-1.01-1.13-2.65-1.81-3.08-3.27c-0.77-2.61,3.01-4.23,5.67-3.69c0.18,0.04,0.37,0.08,0.55,0.13c1.48,0.36,2.91,0.96,4.35,1.48
			c1.3,0.48,2.62,0.91,4,1.04c3.09,0.29,6.82-1.87,6.39-4.94c-0.15-1.11-0.83-2.07-1.52-2.95c-1.91-2.43-4.15-4.58-6.62-6.42
			c-2.89-2.16-6.1-3.88-9.49-5.15c-4.45-1.64-9.19-2.49-13.92-2.43c-3.76,0.04-7.51,0.66-11.08,1.89c-0.52,0.18-1.04,0.37-1.56,0.57
			c-4.26,1.62-8.58,3.62-12.95,2.66c-0.03-0.01-0.05-0.01-0.08-0.02c-2.87-0.64-5.28-2.49-7.8-4.02c-2.65-1.61-5.52-2.83-8.48-3.74
			c0.85-3,0.07-7.74,1.22-10.82c0.24-0.65,0.56-1.2,0.95-1.66c2.12-2.53,6.16-2.36,9.62-1.01c1.29,0.5,2.58,1.11,3.86,1.73
			c2.82,1.35,5.62,2.67,8.38,2.69c4.25,0.03,7.38-2.45,10.19-5.74c2.2-2.58,4.2-5.65,6.4-8.39c2.78-3.47,5.87-6.42,10.05-7.2
			c4.69-0.87,9.18-2.5,13.34-4.8c1.88-1.03,3.69-2.2,5.42-3.5c2.52-1.9,4.88-4.07,7.05-6.5
			C687.06,1251.84,688.14,1250.19,687.57,1248.2L687.57,1248.2z"/>
		<path class="st1" d="M1039.37,1298.96c-1.88,1.59-3.68,3.23-5.41,4.9c-4.05,3.9-7.76,7.95-11.45,11.95
			c-2.55,2.74-5.08,5.46-7.72,8.08c-1.37,1.37-2.77,2.71-4.22,4.01c-5.25,4.75-11.06,9-18.14,12.29c-0.01,0-0.02,0.01-0.03,0.01
			c-7.83,3.63-15.57,6.54-23.63,9.16c-6.78,2.21-38.85,9.65-51.28,18.29H786.75c-6.39-9.1-14.56-16.02-24.59-19.69
			c-11.07,0.23-22.41,0.47-33.7,0.47c12.05-10.49,27.26-15.45,45.62-12.11c-2.69-3.76-6.63-6.96-11.04-9.68
			c-1.82-1.14-3.73-2.19-5.66-3.16c-3.82-1.92-7.73-3.56-11.32-4.94c-1.61-0.63-3.16-1.2-4.6-1.73c-1.85-0.67-3.88-1.39-6.04-2.11
			c-1.96-0.64-4.03-1.29-6.18-1.92c-1.79-0.53-3.64-1.04-5.52-1.52c-2.92-0.75-5.9-1.42-8.88-1.95c-2.12-0.39-4.24-0.7-6.32-0.93
			c-3.91-0.42-7.68-0.53-11.13-0.18c-0.82,0.07-1.62,0.18-2.4,0.32c-1.67,0.28-3.23,0.69-4.68,1.24c1.28-1.11,2.86-2.06,4.65-2.85
			c0.81-0.37,1.67-0.7,2.56-1.01c3.16-1.08,6.78-1.82,10.53-2.31c2.64-0.35,5.35-0.57,8-0.7c2.57-0.13,5.1-0.17,7.47-0.15
			c2.58,0.01,4.99,0.08,7.08,0.19c0.33,0.01,0.66,0.03,0.98,0.05c2.4,0.14,5.02,0.42,7.69,0.81c4.34,0.62,8.82,1.52,12.71,2.59
			c0.91,0.25,1.81,0.57,2.72,0.94c3.06,1.25,6.11,3.04,9.2,4.24c1.78,0.69,3.57,1.19,5.37,1.28c-1.05-2.13-2.05-4.28-3.01-6.43
			c-1.7-3.79-3.26-7.61-4.69-11.46c-5.3-14.2-8.84-28.83-10.74-43.73c-0.21-1.63-0.39-3.27-0.56-4.9c-0.34-3.31-0.61-6.63-0.79-9.96
			c-0.95-17.34,1.09-34.55,7.12-49.53c-1.29,17.16-1.8,33.79,0.38,50.82c0.03,0.25,0.07,0.5,0.1,0.75
			c0.48,3.63,1.09,7.27,1.84,10.95c1.87,9.19,4.38,17.43,7.36,26.27c0.43,1.27,0.91,2.57,1.43,3.87c1.3,3.3,2.87,6.68,4.58,10.03
			c3.21,6.29,6.92,12.48,10.36,17.88c4.09,6.42,17.56,17.56,18.81,24.17c-3.77-20.04-11.3-39.46-12.82-60.84
			c-1.71-24.21-1.32-47.83-13.62-70.04c15.37,20.56,22.3,49.75,26.56,74.35c1.49,8.62-1.44,38.68,5.79,42.61
			c5.22-28.19,7.74-62.18,0.65-91.43c10.75,31.87,10.74,62.72,14.42,94.41c10.87-11.19,15.42-83.97,3.21-95.7
			c22.39,21.53,17.23,83.8,14.86,110.93c5.6-14.18,3.32-34.13,10.03-49.4c5.76-13.07,19.69-34.36,32.69-39.82
			c-7.35,15.26-11.17,30.93-12.19,48.77c-0.74,12.86-2.93,35.53,3.31,47.14c4.57-18.18,7.43-36.15,19.96-50.23
			c11.72-13.17,29.11-15.76,41.74-23.82c-11.08,14.03-24.19,23.74-33.21,40.19c-5.68,10.37-10.4,21.71-14.13,33.19
			c9.35-10.83,23.79-16.89,34.49-26.65c13.1-11.94,26.5-23.54,42.14-31.78c2.22-1.18,4.89-2.58,7.84-4.05
			c3.05-1.51,6.4-3.09,9.88-4.55c9.96-4.17,20.99-7.34,28.95-5.1c-5.23-1.47-13.62,2.66-21.86,8.15c-3.99,2.65-7.95,5.62-11.5,8.43
			c-4.76,3.75-8.78,7.21-11.16,9.2c-1.04,0.87-2.13,1.76-3.27,2.68c-2.4,1.94-5,3.99-7.7,6.15c-13.34,10.69-28.98,24.07-33.74,39.68
			c-0.52,1.71-0.91,3.44-1.15,5.2c2.79-1.89,5.49-3.76,8.13-5.58c16.65-11.52,31.22-21.4,53.42-24.96c3.31-0.53,6.6-1.05,9.87-1.6
			c3.8-0.65,7.56-1.35,11.27-2.18c3.67-0.81,7.28-1.75,10.81-2.89c6.39-2.07,12.54-4.8,18.32-8.64
			C1035.47,1302.06,1037.45,1300.59,1039.37,1298.96L1039.37,1298.96z"/>
		<path class="st1" d="M1046.56,1357.81c-10.16,2.06-23.35-0.67-34.42,0.67c-12.71,1.54-25.44,4.71-37.38,9.17h-17.78
			c7.64-4.21,13.93-8.15,16.42-9.61c10.84-6.35,23.12-9.35,35.97-9.84c6.44-0.24,13.03,0.1,19.48,1.72
			C1032.43,1350.79,1043.78,1358.06,1046.56,1357.81L1046.56,1357.81z"/>
		<path class="st1" d="M786.75,1367.65c-6.39-9.1-14.56-16.02-24.59-19.69c-11.07,0.23-22.41,0.47-33.7,0.47
			c-5.65,4.92-10.61,11.05-14.87,18.11c14.4-17.28,42.61-16.81,62.11-5.04c3.25,1.96,6.41,4.04,9.55,6.15H786.75L786.75,1367.65z"/>
		<path class="st1" d="M776.71,1336.35c-8.38,0.85-21.07,2.42-27.36,8.82c4.57,0.37,8.84,1.32,12.81,2.79
			c-11.07,0.23-22.41,0.47-33.7,0.47c-5.65,4.92-10.61,11.05-14.87,18.11c14.4-17.28,42.61-16.81,62.11-5.04
			c3.25,1.96,6.41,4.04,9.55,6.15h-6.81c-10.26-4.93-22.42-5.72-32.35-2.47c-2.32,0.76-4.59,1.6-6.85,2.47H646.4
			c-9.59-3.43-19.03-8.21-26.94-13.46c-9.78-6.49-16.8-15.7-26.04-22.54c-10.58-7.81-22.42-14.5-34.41-19.27
			c-8.7-3.45-19.41-4.04-27.32-7.9c1.96,0.95,11.8-2.63,14.75-2.57c5.24,0.07,10.49,1.19,15.57,2.76
			c10.14,3.14,19.64,8.18,27.73,15.61c5.7,5.24,37.7,36.85,45.75,28.38c0.34-0.36,0.65-0.8,0.9-1.31c1.18-2.4-1.1-5.73-5.16-9.38
			c-10.37-9.33-32.3-20.71-37.14-23.72c-1.65-1.02-3.29-2.06-4.9-3.11c-4.44-2.9-8.77-5.95-13.11-9.32
			c-9.44-7.33-15.5-16.24-21.5-25.45c-0.81-1.23-1.61-2.47-2.42-3.71c-3.11-4.74-6.31-9.53-10.07-14.17
			c3.66,4.53,7.69,8.27,11.97,11.49c3.69,2.78,7.58,5.16,11.59,7.33c6.25,3.36,12.81,6.18,19.42,9.09
			c20.06,8.82,31.34,22.31,46.37,37.8c-0.22-5.99-2.41-12.16-5.64-18.21c-3.77-7.04-8.95-13.94-14.11-20.24
			c-4.46-5.45-8.9-10.45-12.39-14.73c-0.83-1.02-1.94-2.4-3.25-4.01c-5.88-7.17-15.84-18.92-23.66-23.93
			c-2.18-1.4-4.2-2.27-5.91-2.37c2.19,0.03,4.6,0.61,7.11,1.58c10.03,3.86,21.77,13.82,28.36,19.43c0.47,0.4,0.93,0.8,1.39,1.21
			c8.03,7.02,15.11,15.1,21.83,23.54c2.6,3.26,5.15,6.58,7.68,9.91c1.84,2.43,3.87,4.73,5.98,6.97
			c6.73,7.15,14.28,13.73,19.27,21.91c-1.68-8.19-3.88-16.43-6.63-24.37c-0.62-1.84-1.29-3.66-1.98-5.46
			c-1.66-4.31-3.62-8.26-5.75-12.01c-5.41-9.49-11.91-17.74-17.41-27.55c6.92,6.8,16.14,11.74,23.81,19.16
			c2.71,2.62,5.23,5.55,7.39,8.98c3.92,6.24,6.27,12.69,7.86,19.31c1.33,5.54,2.14,11.19,2.89,16.94c0.37,2.85,0.73,5.71,1.14,8.6
			c1.36-1.87,2.41-4.32,3.21-7.12c1.15-3.96,1.83-8.61,2.25-13.27c0.55-6.19,0.66-12.39,0.84-17.01c0.4-9.84-0.29-19.16-2.19-28.43
			c-0.83-4.05-1.88-8.08-3.19-12.15c-0.15-0.47-0.3-0.95-0.46-1.43c0.5,0.37,1,0.77,1.5,1.2c2.61,2.25,5.17,5.34,7.57,8.88
			c6.16,9.06,11.29,21.02,13.71,29.06c1.77,5.89,2.17,12.13,2.3,18.32c0.01,0.54,0.02,1.07,0.03,1.61
			c0.12,7.73-0.02,15.36,1.76,22.13c0.06-5.89,0.16-13.79,0.64-22.45c0.03-0.76,0.08-1.53,0.13-2.3
			c1.43-23.73,5.74-52.3,19.38-61.53c-7.43,5.59-10.54,37.52-8.85,59.22c0.13,1.67,0.28,3.27,0.47,4.79
			c0.76,6.28,2.01,11.26,3.74,13.81c0.93-4.29,1.77-8.59,2.58-12.88c0.41-2.14,0.81-4.28,1.21-6.42
			c3.42-18.35,6.85-36.55,15.01-53.93c-5.75,16.1-7.67,35.31-7.54,53.78c0.02,2.86,0.09,5.71,0.2,8.52
			c0.16,3.99,0.4,7.92,0.71,11.74c2.38-0.65,3.82-4.9,4.81-10.22c0.57-3.09,1-6.54,1.36-9.85c0.61-5.5,1.05-10.63,1.75-13.14
			c4.02-14.42,9.47-30.65,17.92-43.47c2.05-3.12,4.28-6.04,6.71-8.67c0.72-0.79,1.46-1.55,2.22-2.29c-0.75,1-1.45,2.01-2.12,3.04
			c-2.62,4.06-4.64,8.35-6.25,12.82c-4.28,11.81-5.69,24.82-7.89,37.84c-0.87,5.13-2.17,10-3.67,14.73
			c-1.19,3.71-2.5,7.33-3.85,10.91c-2.59,6.93-5.31,13.73-7.4,20.8c1.51-5.07,13.06-11.2,16.8-15.52c0.41-0.47,0.82-0.95,1.24-1.44
			c2.88-3.4,5.93-7.24,8.64-11.22c2.14-3.14,4.08-6.36,5.57-9.54c0.44-0.95,0.88-1.89,1.3-2.83c2.32-5.07,4.36-10,6.14-15.46
			c0.15-0.46,0.3-0.92,0.44-1.38c5.08-16.2,6.33-32.67,6.72-50.04c3.61,13.4,3.88,27.74,1.78,41.55c-1.04,6.81-2.49,13.45-4.36,19.9
			c-1.66,5.8-3.67,11.43-6.03,16.89c-0.75,1.74-1.53,3.45-2.36,5.15c-1.96,4.08-4.13,8.06-6.52,11.92
			c-0.77,1.26-1.57,2.51-2.39,3.74c2.64,0.57,5.35,0.02,8.05-0.58c2.06-0.46,4.13-0.94,6.16-0.96c5.1-0.05,11.4,0.56,16.42,1.6
			c8.84,1.86,25.97,6.46,32.16,14.26C807.56,1334.54,788.01,1335.22,776.71,1336.35L776.71,1336.35z"/>
		<path class="st1" d="M1435.59,1317.05c-5.37,0.13-10.69,1.26-15.81,2.8c-10.23,3.1-19.67,7.99-27.54,15.13
			c-1.13,1.03-3.31,3.1-6.15,5.69c-2.01,1.83-4.34,3.92-6.87,6.08c-0.43,0.37-0.87,0.74-1.32,1.11
			c-11.98,10.1-27.4,20.9-31.94,13.33c-1.5-2.5,1.3-6.14,6.08-10.08c0.66-0.55,1.36-1.1,2.09-1.66c8.7-6.63,21.9-13.79,29.1-17.76
			c1.85-1.02,3.31-1.83,4.19-2.36c6.12-3.71,11.95-7.56,17.76-12c6.84-5.22,11.73-11.23,16.09-17.57c4.13-6,7.78-12.28,12.16-18.46
			c1.28-1.82,2.63-3.63,4.08-5.42c-1.41,1.74-2.89,3.37-4.42,4.89c-3.77,3.74-7.9,6.85-12.26,9.58c-8.02,4.99-16.86,8.67-25.78,12.5
			c-1.45,0.62-2.86,1.27-4.22,1.94c-0.35,0.17-0.69,0.34-1.03,0.51c-8.56,4.33-15.37,9.54-21.75,15.4
			c-6.15,5.64-11.89,11.88-18.37,18.51c-0.21-9.49,5.2-19.51,11.89-28.75c3.04-4.2,6.34-8.23,9.51-11.98
			c2.27-2.69,4.47-5.24,6.45-7.59c0.7-0.84,1.37-1.65,2.01-2.43c2.58-3.16,7.91-9.91,13.8-16.12c6.28-6.62,13.2-12.63,18.08-12.98
			c-6.54,0.17-14.67,4.76-21.91,9.9c-5.17,3.67-9.88,7.62-13.23,10.43c-0.36,0.3-0.71,0.6-1.06,0.91
			c-5.36,4.59-10.24,9.64-14.83,14.95c-3.48,4.02-6.81,8.2-10.05,12.43c-1.26,1.63-2.5,3.27-3.74,4.91
			c-7.32,9.72-18.11,17.4-24.21,27.66c1.53-9.57,3.86-19.23,7.08-28.35c1-2.83,2.16-5.49,3.43-8.04c2.06-4.16,4.41-8.02,6.85-11.82
			c3.76-5.84,7.73-11.52,11.17-17.89c-9.08,8.84-22.67,14.49-30.36,27.03c-8.24,13.41-8.23,27.76-9.57,42.62
			c-6.48-7.56-7.62-25.35-8.67-35.33c-1.45-13.85-0.4-26.63,3.54-39.85c-9.71,6.93-18.15,26.14-21.08,37.35
			c-3.43,13.09,0.93,27.85-1.73,39.87c-1.56-21.12-5.34-69.34-25.68-81.41c11.02,7.38,16.46,62.86,9.27,73.59
			c-6.99-23.44-10.92-47.02-23.58-69.1c9.4,20.86,11.72,47.37,11.14,70.02c-6.29-1.48-7.78-25.07-10.08-31.35
			c-6.54-17.89-15.81-38.73-30.74-51.2c12.68,14.38,15.38,32.51,19.84,50.65c1.64,6.65,4.06,12.83,6.73,18.81
			c0.34,0.75,0.68,1.49,1.02,2.23c3.5,7.63,7.3,15,10.27,22.74c-1.84-4.78-14.05-10.45-18.14-14.49
			c-3.36-3.31-7.01-7.14-10.32-11.16c-1.87-2.28-3.64-4.63-5.16-6.97c-0.6-0.9-1.15-1.8-1.67-2.7c-3.52-6.12-6.58-11.88-9.25-18.52
			c-2.7-6.7-4.64-13.47-6.11-20.34c-1.07-5.07-1.88-10.2-2.52-15.4c-0.47-3.81-0.86-7.65-1.2-11.55c-1.53,6.71-2.1,13.66-1.87,20.64
			c0.19,5.46,0.88,10.94,1.98,16.34c0.16,0.8,0.33,1.59,0.51,2.38c2.17,9.5,5.21,18.64,9.18,27.34c1.38,3.04,2.88,6.03,4.5,8.96
			c3.45,6.26,7.42,12.26,11.92,17.97c-4.73,1.02-9.87-1.31-14.67-1.28c-3.45,0.01-7.41,0.29-11.17,0.8
			c-1.95,0.25-3.85,0.55-5.59,0.91c-1.42,0.3-3.04,0.66-4.8,1.1c-9.34,2.29-22.39,6.53-27.36,12.81
			c10.08-6.75,30.18-6.36,41.84-5.43c2.29,0.19,4.89,0.42,7.61,0.77c7.54,0.96,15.96,2.85,20.98,7.25
			c-4.98,0.44-9.57,1.49-13.78,3.09c-0.6,0.22-1.19,0.45-1.77,0.71c-2.24,0.94-4.36,2.04-6.38,3.3h155.43
			c0.1-0.06,0.2-0.13,0.3-0.19c7.04-4.57,12.49-10.49,18.44-15.92c1.13-1.02,2.27-2.03,3.46-3.01c1.13-0.95,2.29-1.86,3.5-2.74
			c0.5-0.36,1-0.72,1.51-1.07c10.02-7.08,21.22-13.15,32.67-17.6c8.72-3.38,19.68-4.07,27.56-7.83
			C1448.92,1320.22,1438.61,1316.95,1435.59,1317.05L1435.59,1317.05z"/>
		<path class="st1" d="M1239.95,1326.15c-6.3-3.65-15.24-6.14-22.33-7.65c-2.08-0.45-4-0.81-5.64-1.1
			c-1.66-0.28-3.46-0.52-5.31-0.71c-4.05-0.42-8.35-0.6-12.07-0.48c-4.96,0.14-10.22,2.69-15.14,1.81
			c7.27-9.67,13.08-20.06,17.52-31.05c1.33-3.29,2.53-6.64,3.61-10.03c1.61-5.06,2.95-10.23,4.03-15.49
			c2.75-13.5,3-27.46-0.32-40.43c-0.88,13.97-2.36,27.35-6.23,40.52c-0.81,2.79-1.74,5.58-2.79,8.36c-0.09,0.25-0.19,0.49-0.28,0.73
			c-2.54,6.6-5.46,12.42-8.83,18.6c-4.16,7.65-11.17,15.67-17.23,21.96c-4.14,4.29-16.62,10.52-18.41,15.49
			c5.41-15.09,13.89-28.98,17.57-45.56c4.17-18.77,6.52-37.47,19.29-52.66c-15.14,13.3-24.22,35.01-30.55,53.6
			c-2.22,6.52-3.19,30.79-9.66,32.52c-1.15-23.23,0.6-50.52,9.83-72.25c-12.57,23.1-16.06,47.44-22.71,71.74
			c-7.71-10.79-3.42-67.98,7.81-75.87c-20.76,13.06-23.51,62.72-24.6,84.45c-3.05-12.25,1.11-27.55-2.75-40.87
			c-3.31-11.4-12.51-30.84-22.71-37.62c4.39,13.43,5.79,26.52,4.62,40.78c-0.84,10.29-1.59,28.58-8.1,36.56
			c-1.75-15.2-2.09-29.93-10.94-43.41c-8.26-12.61-22.45-17.96-32.05-26.72c7.63,13.17,17.45,23.32,23.1,38.01
			c3.55,9.26,6.2,19.1,8.01,28.87c-6.56-10.33-17.91-17.84-25.71-27.57c-9.56-11.91-19.4-23.61-31.5-33.07
			c-8.53-6.7-25.48-19.93-37.09-19.68c9.72,0,28.2,22.19,33.93,28.8c11.2,12.91,32.08,32.61,32.11,51.07
			c-5.09-4.88-9.75-9.56-14.47-13.94c-0.17-0.15-0.34-0.31-0.51-0.47c-9.38-8.62-19.05-16.02-32.82-21.37
			c-3.52-1.37-7.03-2.72-10.48-4.12c-2.4-0.98-4.76-1.99-7.09-3.05c-10.04-4.57-19.38-10.2-27-19.07
			c6.65,7.74,11.51,15.93,17.12,23.62c1.73,2.37,3.52,4.69,5.47,6.93c3.38,3.91,7.2,7.59,11.85,10.9
			c6.12,4.35,12.24,8.12,18.65,11.71c1.16,0.65,3.28,1.72,5.98,3.09c2.15,1.09,4.67,2.37,7.38,3.78
			c12.64,6.59,29.26,16.03,30.59,22.2c0.18,0.8,0.1,1.55-0.29,2.23c-2.75,4.83-9.85,2.79-17.84-1.79
			c-6.79-3.91-14.23-9.65-20.18-14.56c-4.9-4.05-8.79-7.54-10.47-8.97l0,0c-8.31-7.07-18.2-11.77-28.84-14.6
			c-3.68-0.97-7.45-1.74-11.25-2.11c-1.72-0.16-3.45-0.25-5.18-0.23c-3.13,0-13.71,3.7-15.75,2.82c3.9,1.69,8.5,2.67,13.23,3.56
			c5.25,0.99,10.67,1.87,15.47,3.54c7.17,2.5,14.26,5.61,21.06,9.2c5.11,2.68,10.05,5.64,14.74,8.8c0.95,0.64,1.87,1.31,2.78,2
			c4.51,3.39,8.56,7.24,12.8,10.93c3.48,3.04,7.09,5.96,11.22,8.44c13.99,8.44,32.78,15.42,49.2,16.91
			c6.26,0.56,12.58,0.45,18.91,0.65c2.93,0.08,5.87,0.24,8.79,0.57c8.96,1,18.06,1.96,26.99-0.07c10.43-2.35,19.94-6.93,30.11-10.15
			c14.94-4.73,34.19-1.85,45.79,9.17c1.09,1.03,2.11,2.13,3.05,3.3h0.81c-0.66-1.37-1.36-2.71-2.09-4.01
			c-2.11-3.75-4.5-7.22-7.2-10.34c-1.68-1.97-3.48-3.79-5.4-5.46c-1.97-1.74-4.07-3.31-6.3-4.7c-6.9-4.34-15.03-7-24.45-7.51
			c6.92-6.38,20.45-8.19,29.38-9.2c2.64-0.3,5.7-0.58,8.99-0.78c3.68-0.21,7.65-0.31,11.61-0.18c6.49,0.2,12.97,1.01,18.19,2.91
			c1.68,0.61,3.23,1.34,4.61,2.2c-1.38-1.64-3.33-3.12-5.63-4.43L1239.95,1326.15z"/>
	</g>
</g>
</svg>
