<?xml version="1.0" encoding="UTF-8"?><svg id="home_copy" xmlns="http://www.w3.org/2000/svg" viewBox="0 0 2072.73 1166"><defs><style>.cls-1{fill:#0d2c54;}.cls-2{fill:#0c2b53;}</style></defs><g><g id="bushes"><path class="cls-1" d="M274.58,1050.18c-3.06-1.42-6.17-2.76-9.34-3.93-9.76-3.57-19.63-7.26-27.76-13.93-9.49-7.79-16.87-17.4-25.64-25.95-15.16-14.79-42.03-21.75-60.99-10.01,19.42-16.2,42.62-22.86,66.98-12.32-3.77-10.14-16.74-18.96-25.4-24.59-11.67-7.58-32.49-19.38-46.87-18.02,10.41-4.47,31.11,.55,41.55,3.66,5.92,1.79,13.02,4.74,18.52,7.7,5.04,2.7,9.1,8.04,14.63,9.65-4.16-23.94-2.59-47.88,3.94-71.31,4.29-15.34,11.4-29.88,21.65-41.55-7.82,18.02-14.29,35.59-16.5,55.07-.96,8.46-1.02,16.22-.81,24.62,.24,10.04,3.23,21.92,6.16,31.52,1.99,6.55,11.56,19.39,10.78,25.44,2.39-18.35,.99-37.04,5.93-56.04,5.61-21.51,13.06-42.02,7.93-64.25,8.57,21.51,6.46,48.57,3.17,71.01-1.15,7.87-12.95,33.41-7.21,38.52,13.44-23.38,26.03-52.44,28-79.6,.75,30.29-8.49,57.2-14.46,85.7,13.76-7.24,39.92-69.66,31.73-82.72,14.99,23.97-8.59,77.09-18.98,100.2,9.6-11.07,13.4-29,24.4-40.76,9.42-10.06,29.14-25.4,43.23-27.15-11.61,11.61-19.96,24.39-26.28,39.72-4.56,11.04-13.45,30.31-10.95,41.89,9.82-14.79,17.94-29.81,34.16-39.19,15.16-8.77,32.59-6.99,47.1-11.1-14.8,9.67-30.27,15.1-43.83,27.36-8.55,7.73-16.46,16.52-23.48,25.67,12.2-7.28,27.84-9.21,41.01-15.24,16.12-7.38,32.43-14.39,49.88-17.94,12.4-2.54,37.07-7.54,48.8-1.13-9.74-5.33-40.89,8.26-50.35,12.16-18.35,7.57-50.23,17.17-60,36.21,23.61-7.32,42.21-14.73,68.09-12.36,20.33,1.86,40.09,4.03,59.72-4.18-20.15,8.42-34.8,21.54-57.33,25.08-8.59,1.35-16.87,2.09-25.38,2.5-9.27,.46-61.95-1.27-61.45,9.86,.71,16.34,54.28,1,63.29-1.22,12.28-3.02,24.94-2.79,37.4-.24,6.24,1.28,12.44,3.12,18.14,6.03,3.22,1.61,12.16,10.87,14.72,11-10.38-.53-22.24-6.01-33.29-7.42-15.23-1.93-31.2-1.81-46.35,.18-13.24,1.75-25.2,7.2-38.87,8.29-18.85,1.52-41.88-.93-59.57-7.83-6.74-2.64-13.19-6-19.82-9.05Z"/><path class="cls-1" d="M1666.71,1122.79c-.07-.52-.23-1.03-.45-1.51-2-4.43-7.53-5.75-12.5-5.7-.08,0-.15,.01-.23,.01-.28,.01-.57,.02-.85,.03-5.21,.27-10.84,1.24-15.34-1.41-3.2-1.89-5.37-5.44-8.89-6.65-6.54-2.26-11.26,3.95-16.58,6.33-6.13,2.74-11.79,2.44-18.45,3.31-.19,.03-.38,.09-.57,.12,2.36-2.67,5.85-4.18,8.66-6.45,3.1-2.49,5.26-7.35,2.61-10.32-.77-.86-1.88-1.46-2.38-2.5-2.11-4.39,11.2-6.89,13.29-7.53,1.18-.37,2.36-.82,3.47-1.39,2.17-1.11,4.07-2.68,5.04-4.88,.13-.3,.23-.6,.3-.92,.8-3.23-1.13-7.24-4.45-7.35-1.52-.05-3.14,.67-4.49-.02-2.24-1.15-1.19-4.52,.73-6.27,.16-.14,.32-.27,.49-.39,2.54-1.78,5.71-2.59,8.04-4.63,2.34-2.04,3.35-6.23,.82-8.03-.91-.65-2.07-.83-3.19-.93-6.56-.62-13.2,.72-19.13,3.57-4.65,2.22-8.86,5.37-12.26,9.22-1.88,2.12-3.51,4.46-4.82,6.97-.31,.57-.59,1.15-.86,1.74-2.08,4.58-3.48,9.93-7.64,12.76-2.45,1.66-5.49,2.15-8.35,2.93-3,.82-5.85,2.06-8.55,3.58-1.59-2.68-5.57-5.37-7.01-8.33-1.97-4.05,1.36-7.63,5.33-9.51,3.97-1.88,8.85-2.94,11.63-5.84,.12-.13,.24-.25,.35-.38,.9-1.03,1.53-2.16,1.94-3.37,3.05-8.78-5.04-21.59,.56-30.26,2.37-3.66,4.17-7.62,5.37-11.78,.01-.03,.02-.06,.02-.09,1.57-5.41,2.13-11.16,1.63-17.04-.14-1.59-.59-3.5-2.43-4.46-6.45-3.38-7.78,9.85-8.74,12.18-2.48,5.96-9.58,9.26-15.17,13.37-12.86,9.45-16.33,24.95-21.01,38.62-2.35,6.86-4.71,13.77-5.17,21.17-7.29-.13-13.18,4.12-13.57,9.82-.33,4.74,2.7,10.26,.47,14.35-1.36,2.48-4.39,3.9-6.87,5.64-.54,.38-1.05,.78-1.54,1.21-1.22,1.03-2.28,2.18-3.24,3.39-.08-.96-.18-1.92-.31-2.87-.72-5.62-2.26-11.01-5.38-15.73-1.73-2.61-3.94-5.04-4.65-8.09-1.17-5.05,2.1-10.02,2.56-15.17,.56-6.2-3.51-12.52-9.38-14.58,.75-8.03-.09-16.12-.92-24.15-1.68-16-2.09-33.58-10.96-47.55-3.86-6.08-9.05-11.74-10.13-18.85-.42-2.78,.53-17.29-5.16-15.64-1.62,.47-2.27,2.38-2.62,4.03-2.3,10.87-1.87,22.29,1.22,32.96,3.66,12.63-8.15,25.62-2.9,37.14,1.79,3.93,5.54,6.54,8.44,9.75,2.9,3.2,5.02,8.03,2.82,11.75-2.19,3.72-8.15,5.46-7.79,9.76,.23,2.74,3.04,4.35,5.09,6.17,3.9,3.46,5.67,9.14,4.43,14.2-2.38-1.47-5.69,.2-6.96,2.7-.36,.69-.58,1.43-.73,2.19-1.76-1.47-3.86-2.49-6.13-2.78-.81-6.95-2.98-13.66-5.14-20.31-4.3-13.27-7.83-28.09-17.87-38.34-4.36-4.46-9.78-8.32-11.98-14.16-.86-2.27-2.67-14.74-7.19-12.32-1.3,.69-1.51,2.42-1.5,3.89,.01,9.62,2.43,19.24,6.98,27.72,5.38,10.05-2.29,23.19,4.24,32.01,2.23,3.01,5.87,4.55,8.91,6.74,1.29,.93,2.51,2.13,3.39,3.48,.13,.18,.23,.35,.34,.53,.98,1.71,1.41,3.6,.79,5.45-1.19,3.54-5.93,6.1-4.85,9.68,.69,2.28,3.36,3.14,5.43,4.31,3.93,2.23,6.46,6.73,6.32,11.24-1.36-.48-2.75,.09-3.82,1.07-1.67-2.88-4.55-5.05-7.83-5.66-2.02-.38-4.26-.26-5.94-1.46-1.88-1.35-2.3-3.75-2.26-6.17,.02-.9,.09-1.8,.18-2.66,.28-2.79,.04-5-.62-6.75-1.73-4.6-6.39-5.97-12.41-6.02-1.92-.01-3.97-.92-4.75-2.67-.17-.37-.27-.75-.34-1.14-.2-1.16-.08-2.42-.3-3.6-.57-2.91-3.58-5.13-6.53-4.81-.88,.1-1.75,.39-2.63,.31-.18-.02-.36-.04-.53-.08-1.64-.33-2.83-1.49-3.83-3.08-2.92-4.6-4.24-12.72-10.18-13.85-4.04-.77-8.22,1.74-12.23,.8-7.04-1.66-10.76-7.55-18.66-4.09-2.38,1.04-6.59,5.09-4.56,8.09,2.04,3.02,9.62-1.1,12.03,2,1.95,2.52,2.22,5.89,3.08,8.96,.87,3.06,2.93,6.33,6.12,6.54,2.04,.14,4.04-1.06,6.07-.78,2.09,.29,3.29,1.74,4.04,3.67,.92,2.33,1.17,5.37,1.52,7.89,.11,.83,.34,1.72,.79,2.4,.28,.41,.63,.74,1.11,.93,1.29,.52,2.68-.29,4.03-.59,5.38-1.2,9.05,5.8,8.51,11.28-.08,.78-.2,1.54-.35,2.28-.13,.64-.29,1.27-.45,1.89-.19-.48-.37-.94-.58-1.38-1.26-2.79-3.08-5.03-7.78-6.87-4.33-1.69-7.23-.23-10.94,.05-1,.08-2.07,.07-3.24-.12-2.66-.41-5.06-1.54-7.45-2.81-4.07-2.18-8.1-4.8-13.31-5.11-2.59-.15-5.12,.58-7.33,1.9-3.01,1.82-5.4,4.74-6.47,8.04-.39,1.21-.62,2.5-.39,3.74,0,.01,.01,.03,.01,.04,.71,3.69,5.12,5.51,8.89,5.33,2.89-.15,5.7-1.06,8.55-1.51,.88-.14,1.77-.24,2.66-.26,3.07-.06,6.07,.98,8.57,2.74,3.41,2.39,5.92,6.12,6.48,10.24,.03,.25,.06,.5,.08,.75,.28,3.61-.3,8.18,2.86,9.94,3.46,1.92,8.01-1.78,11.59-.09,.23,.11,.45,.24,.65,.39,1.49,1.05,2.25,2.97,2.57,4.81,.23,1.35,.3,2.75,.29,4.17-.02,1.62-.14,3.27-.26,4.91-.07,.81-.13,1.62-.17,2.42-.01,.18-.02,.36-.03,.53-.11,2.73,.05,5.32,.93,7.61-1.49-1.59-2.96-3.17-4.39-4.6-1.19-1.18-2.36-2.25-3.52-3.13-.24-.19-.49-.37-.75-.55-.35-.24-.71-.48-1.08-.7-3.91-2.4-8.75-3.6-12.74-1.53-1.64,.85-2.98,2.18-4.56,3.14-1.57,.97-3.59,1.56-5.26,.75-.04-.02-.09-.04-.13-.07-1-.53-1.72-1.48-2.53-2.29-3.36-3.32-9.07-3.59-13.03-1.2-2.85,1.72-3.74,5.07-5.37,7.63-.7,1.09-1.54,2.04-2.72,2.66-1.44,.76-3.17,.57-4.78,.83-5.82,.92-6.64,6.3-8.94,10.57h23.93c.66-.48,1.4-.87,2.24-1.12,2.83-.85,5.51-.28,7.72,1.12h233.55c5.39-1.27,11.27,.17,15.18-5.21,3.38-4.66,1.02-9.92,2.23-15.23,.91-3.99,3.74-7.82,7.74-8.66,7.39-1.55,13.52,7.21,21.06,6.96,1.91-.06,3.95-.87,4.8-2.58,.66-1.33,.48-2.91,.84-4.35,.65-2.57,2.99-4.41,5.49-5.27,2.5-.86,5.19-.93,7.82-1.15,4.2-.36,8.36-1.15,12.4-2.34,1.96-.58,4.13-1.48,4.8-3.41,.22-.63,.25-1.31,.13-1.97Z"/><path class="cls-1" d="M1723.57,1134.36c2.93,.08,5.86,.24,8.78,.57,8.96,1,18.07,1.96,27-.06,10.43-2.36,19.94-6.93,30.11-10.15,17.58-5.57,41.13-.6,51.16,15.77-8.62-19.99-23.94-34.07-46.96-35.32,6.93-6.38,20.45-8.19,29.38-9.2,12.03-1.36,32.81-2.44,43.4,4.15-6.29-7.46-24.29-11.57-33.6-13.18-5.29-.9-11.95-1.35-17.38-1.19-4.97,.14-10.22,2.7-15.14,1.81,12.69-16.88,20.95-35.97,25.16-56.57,2.75-13.49,3-27.46-.32-40.42-1.07,16.92-3.02,32.99-9.02,48.88-2.6,6.9-5.62,12.92-9.11,19.32-4.16,7.65-11.17,15.68-17.24,21.96-4.13,4.29-16.62,10.52-18.41,15.49,5.41-15.09,13.89-28.98,17.58-45.56,4.17-18.77,6.52-37.48,19.28-52.66-15.14,13.3-24.21,35.01-30.55,53.6-2.22,6.52-3.19,30.78-9.66,32.52-1.15-23.23,.6-50.52,9.82-72.25-12.56,23.1-16.06,47.44-22.71,71.74-7.79-10.89-3.33-69.17,8.17-76.1-21.09,12.73-23.85,62.83-24.95,84.68-3.05-12.25,1.1-27.55-2.76-40.87-3.31-11.4-12.5-30.84-22.71-37.62,4.39,13.44,5.79,26.52,4.62,40.79-.84,10.28-1.58,28.58-8.1,36.56-1.75-15.21-2.09-29.93-10.93-43.42-8.27-12.61-22.45-17.95-32.06-26.71,7.63,13.17,17.45,23.32,23.1,38.01,3.56,9.26,6.2,19.1,8.01,28.86-6.56-10.32-17.9-17.84-25.71-27.57-9.56-11.91-19.4-23.61-31.5-33.07-8.59-6.74-25.71-20.1-37.32-19.67,9.65-.36,28.38,22.14,34.16,28.79,11.2,12.91,32.08,32.61,32.11,51.08-15.37-14.75-26.84-27.64-47.8-35.78-16.47-6.4-32.62-12.34-44.57-26.24,12.26,14.26,18.41,30.04,34.44,41.45,6.12,4.35,12.23,8.11,18.65,11.71,6.99,3.92,48.45,22.89,43.66,31.29-7.01,12.34-42.4-20.14-48.5-25.33-8.31-7.06-18.2-11.76-28.85-14.6-5.34-1.41-10.86-2.39-16.42-2.34-3.13,0-13.71,3.71-15.75,2.82,8.24,3.59,19.59,3.93,28.7,7.1,12.55,4.38,24.86,10.63,35.8,18,9.56,6.45,16.65,15.27,26.8,21.38,13.99,8.44,32.78,15.42,49.2,16.91,6.26,.56,12.58,.45,18.92,.65Z"/><path class="cls-1" d="M687.59,1046.55c-1.99-7.01-12.5,1.13-14.85,2.03-.44,.17-.89,.31-1.34,.42-.34,.09-.69,.16-1.04,.23-5.52,.95-11.81-1.39-17.76-2.46-15.71-2.82-29.34,5.32-42.49,11.33-2.26,1.04-4.52,2.07-6.75,3.18-2.49,1.24-4.94,2.56-7.29,4.08-1.69,1.08-3.32,2.25-4.88,3.56-4.92-5.39-12.05-6.73-16.46-3.1-3.38,2.79-5.26,8.08-9.06,9.84-.33,.16-.67,.28-1.03,.38-2.73,.72-5.85-.51-8.82-1.11-.41-.08-.81-.15-1.22-.21-1.85-.26-3.65-.25-5.41-.09,1.05-1.18,2.05-2.38,2.99-3.62,.67-.87,1.31-1.77,1.9-2.68,2.15-3.27,3.81-6.78,4.7-10.63,.71-3.05,.95-6.33,2.67-8.94,2.46-3.71,7.12-5,10.96-7.33,.41-.25,.81-.51,1.2-.79,.21-.15,.42-.3,.62-.46,4.87-3.86,6.66-11.16,4.11-16.84,6.35-4.98,11.65-11.15,16.89-17.28,10.47-12.22,22.94-24.62,26.97-40.67,1.76-6.98,2.3-14.64,6.72-20.32,1.72-2.22,12.91-11.51,7.8-14.5-1.46-.86-3.29-.02-4.73,.86-9.47,5.81-17.47,13.99-23.08,23.57-6.65,11.35-24.2,11.71-28.95,23.45-1.62,4-.94,8.52-1.27,12.83-.33,4.3-2.37,9.17-6.58,10.14-4.21,.96-9.58-2.17-12.44,1.05-1.83,2.05-1.08,5.2-.98,7.94,.17,5.21-2.73,10.41-7.26,12.99-.57-2.74-4.06-4-6.75-3.2-.75,.22-1.43,.57-2.09,.98-.14-2.28-.85-4.52-2.2-6.37,4.49-5.36,7.86-11.55,11.21-17.69,6.66-12.25,15-25.01,15.52-39.35,.23-6.23-.69-12.82,2.03-18.44,1.06-2.18,8.87-12.08,4-13.7-1.39-.46-2.8,.58-3.86,1.59-6.97,6.63-12.28,15.01-15.31,24.14-3.59,10.82-18.41,14.3-20.31,25.1-.65,3.69,.74,7.4,1.23,11.11,.5,3.71-.35,8.21-3.75,9.78-3.39,1.58-8.51-.1-10.36,3.15-1.18,2.06,.03,4.59,.61,6.9,1.08,4.39-.44,9.32-3.81,12.32-.58-1.32-1.95-1.93-3.41-2.03,.95-3.19,.54-6.78-1.27-9.58-1.12-1.73-2.75-3.27-3.03-5.31-.43-3.15,2.46-5.65,4.97-7.59,8.04-6.24,5.97-12.18,.3-18.24-1.31-1.41-2.05-3.51-1.32-5.29,.15-.37,.35-.71,.59-1.03,.71-.94,1.7-1.72,2.4-2.69,1.73-2.42,1.27-6.13-1-8.05-.67-.57-1.48-1-2.03-1.69-4.35-5.46,6.84-15.25,2.34-22.26-2.22-3.46-6.92-4.77-8.99-8.32-3.64-6.26-1.93-13.01-9.87-16.36-2.4-1.02-8.24-1.28-9.02,2.25-.78,3.57,7.43,6.23,6.83,10.11-.49,3.15-2.75,5.67-4.38,8.4-1.63,2.74-2.57,6.48-.54,8.94,1.31,1.58,3.55,2.21,4.75,3.87,2.71,3.78-1.68,8.36-4.57,11.99-.84,1.05-1.61,2.42-1.11,3.67,.51,1.29,2.06,1.74,3.2,2.52,4.58,3.08,2.02,10.56-2.32,13.93-1.16,.9-2.37,1.62-3.58,2.29,1.58-3.33,2.44-6.32,.23-11.74-2.23-5.48-6.55-5.76-9.71-10.33-4.13-6-3.2-14.19-8.53-20.52-3.96-4.7-11.29-5.76-16.71-3.18-1.14,.55-2.24,1.27-2.98,2.29-2.23,3.06-.51,7.54,2.23,10.16,2.74,2.61,6.33,4.21,8.99,6.91,5.27,5.35,5.48,14.86,.45,20.43-1.48,1.64-3.45,3.3-4.55,5.13-.35,.6-.61,1.2-.73,1.84-.14,.62-.14,1.27,.04,1.94,.98,3.83,6.8,4.59,8.03,8.35,.66,2.02-.29,4.22-1.56,5.92-2.21,2.96-5.52,5.33-8.44,7.8-2.23,1.9-4.16,3.9-5.28,6.26,.22-3.97,.5-7.86,.16-11.05-.55-5.2-3.07-10.78-8-12.49-1.75-.61-3.64-.67-5.42-1.15-.08-.02-.16-.04-.24-.07-1.71-.51-3.39-1.55-3.92-3.23-.28-.89-.21-1.84-.15-2.78,.01-.26,.03-.52,.03-.78,.09-4.72-3.64-9.05-8.1-10.28-4.58-1.26-8.81,2.67-13.03,1.22-1.54-.54-2.6-1.92-3.89-2.91-6.11-4.69-11.86,2.05-18.2,1.19-.79-.11-1.68-.31-2.64-.53h-.01c-3.87-.88-8.74-2.03-11.11,1.54-1.44,2.18-1.13,3.58,.03,4.51,1.49,1.22,4.38,1.64,6.61,1.96,4.87,.7,9.64,2.14,14.08,4.26-1.58,.99-.61,3.59,.99,4.54,3.26,1.94,7.02,.63,10.6,.54h.01c1.6-.05,3.17,.15,4.64,1,2.9,1.66,4.36,4.44,4.63,7.4,.25,2.65-.44,5.44-1.88,7.72-.45,.7-.97,1.42-1.02,2.26-.06,1.1,.69,2.08,1.48,2.86,1.54,1.52,3.37,2.75,5.35,3.6,1.68,.72,3.54,1.23,4.76,2.58,1.19,1.32,1.47,3.12,1.19,4.9-.19,1.19-.63,2.38-1.21,3.41-.48,.83-1.04,1.61-1.62,2.38-1.86-.2-3.72-.35-5.59-.24-3.37,.19-6.89,1.36-8.93,4.05-1.74,2.27-.86,5-.53,7.45,.24,1.81,.19,3.47-1.4,4.7-.87,.69-1.9,1.08-2.97,1.37t-.02,.01c-.87,.24-1.78,.41-2.66,.61-.11-.15-.22-.31-.34-.46-1.4-1.95-2.88-3.93-5.05-4.9-4.56-2.04-10.31,1.13-14.73-1.19-2.16-1.13-3.49-3.34-4.91-5.32-1.2-1.66-2.54-3.21-4-4.63-2.19-2.14-4.65-4-7.3-5.55-.14-.09-.28-.17-.43-.25-4.17-2.39-8.77-4.04-13.5-4.86-5.09-.89-11.92-.99-16.86,.52-1.96,.6-3.33,1.28-4.21,2-4.06,3.34,2.36,7.59,9.15,8.5,5.01,.67,10.16,.16,15.07,1.3,1.22,.28,2.41,.68,3.57,1.16,.75,.32,1.49,.68,2.2,1.08,4.41,2.45,8.04,6.34,10.03,10.98,.26,.59,.49,1.21,.71,1.84,1.85,5.05,3.02,10.97,6.65,14.07,.86,.75,1.87,1.32,3.06,1.69,2.92,.91,6.88,.53,8.75,2.54,.29,.31,.53,.68,.71,1.13,.61,1.52,.07,3.22-.23,4.83-2.32,12.53,12.17,21.95,23.35,20.33,3.25-.47,6.51-1.62,9.75-1.07,1.68,.29,3.22,1.04,4.69,1.92,.84,.49,1.65,1.02,2.45,1.56,.72,.48,1.36,1,1.95,1.54,1.17,1.08,2.11,2.27,3.02,3.59,.46,.66,.9,1.36,1.37,2.09,1.42,2.24,3.18,4.32,5.18,6.14-.96,.38-1.95,.68-3.03,.81-8.49,.97-14.37-10.04-23.4-1.66-1.89,1.75-3.34,4.13-5.7,5.16-3.21,1.39-6.83-.17-10.22-1.05-3.38-.89-7.9-.53-9.14,2.74-.78,2.04,.13,4.38-.39,6.49-.9,3.62-5.25,4.92-8.87,5.82-4.73,1.18-9.72,3.02-12.41,7.09-2.69,4.08-1.44,10.88,3.29,12.09,5.42,1.38,9.45-4.75,14.19-7.73,5.2-3.26,12.62-2.42,16.97,1.92,1.67,1.68,3.13,3.91,5.46,4.31,2.34,.39,4.46-1.25,6.51-2.44,8.81-5.08,15.51,1.1,23.73,.18,7.59-.84,13.03,7.72,20.51,9.26,3.42,.7,6.97-.26,9.95-2.15,2.67,2.06,5.77,3.6,10.25,5.84,7.16,3.6,12.03,8.06,13.48,16.28,.08,.46,.14,.93,.18,1.4h63.8c-.21-.24-.42-.47-.65-.69,5.86-2.79,12.27-6.79,17.92-4.96,3.31,1.08,5.65,3.56,8.14,5.65h15.41c2.02-1.85,3.82-4.08,6.34-5.57,3.52-2.08,8.24-2.67,11.6-.34,2.06,1.43,3.2,3.54,4,5.91h32.08c-.14-.4-.26-.81-.36-1.23-.84-3.63,.24-7.64-1.3-11.03-2.35-5.18-8.03-5.52-12.96-6.73-1.06-.25-2.09-.55-3.04-.94-6.21-2.57-9.88-6.88-15.09-11.11-.15-.12-.33-.21-.48-.33,3.56-.13,7.05,1.36,10.63,1.84,1.19,.16,2.48,.11,3.72-.15,1.79-.37,3.46-1.19,4.5-2.45,.6-.72,.99-1.59,1.07-2.61,.09-1.15-.24-2.36,.18-3.44,1.73-4.55,12.7,3.39,14.6,4.46,3.17,1.79,6.98,3.09,10.41,1.86,3.42-1.23,5.56-5.98,3.15-8.7-1.01-1.13-2.65-1.81-3.08-3.27-.77-2.61,3.01-4.23,5.67-3.69,.18,.04,.37,.08,.55,.13,1.48,.36,2.91,.96,4.35,1.48,1.3,.48,2.62,.91,4,1.04,3.09,.29,6.82-1.87,6.39-4.94-.15-1.11-.83-2.07-1.52-2.95-1.91-2.43-4.15-4.58-6.62-6.42-2.89-2.16-6.1-3.88-9.49-5.15-4.45-1.64-9.19-2.49-13.92-2.43-3.76,.04-7.51,.66-11.08,1.89-.52,.18-1.04,.37-1.56,.57-4.26,1.62-8.58,3.62-12.95,2.66-.03-.01-.05-.01-.08-.02-2.87-.64-5.28-2.49-7.8-4.02-2.65-1.61-5.52-2.83-8.48-3.74,.85-3,.07-7.74,1.22-10.82,.24-.65,.56-1.2,.95-1.66,2.12-2.53,6.16-2.36,9.62-1.01,1.29,.5,2.58,1.11,3.86,1.73,2.82,1.35,5.62,2.67,8.38,2.69,4.25,.03,7.38-2.45,10.19-5.74,2.2-2.58,4.2-5.65,6.4-8.39,2.78-3.47,5.87-6.42,10.05-7.2,4.69-.87,9.18-2.5,13.34-4.8,1.88-1.03,3.69-2.2,5.42-3.5,2.52-1.9,4.88-4.07,7.05-6.5,1.06-1.19,2.14-2.84,1.57-4.83Z"/><path class="cls-1" d="M1039.39,1097.31c-1.88,1.59-3.68,3.23-5.41,4.9-4.05,3.9-7.76,7.95-11.45,11.95-2.55,2.74-5.08,5.46-7.72,8.08-1.37,1.37-2.77,2.71-4.22,4.01-5.25,4.75-11.06,9-18.14,12.29-.01,0-.02,.01-.03,.01-7.83,3.63-15.57,6.54-23.63,9.16-6.78,2.21-38.85,9.65-51.28,18.29h-130.74c-6.39-9.1-14.56-16.02-24.59-19.69-11.07,.23-22.41,.47-33.7,.47,12.05-10.49,27.26-15.45,45.62-12.11-2.69-3.76-6.63-6.96-11.04-9.68-1.82-1.14-3.73-2.19-5.66-3.16-3.82-1.92-7.73-3.56-11.32-4.94-1.61-.63-3.16-1.2-4.6-1.73-1.85-.67-3.88-1.39-6.04-2.11-1.96-.64-4.03-1.29-6.18-1.92-1.79-.53-3.64-1.04-5.52-1.52-2.92-.75-5.9-1.42-8.88-1.95-2.12-.39-4.24-.7-6.32-.93-3.91-.42-7.68-.53-11.13-.18-.82,.07-1.62,.18-2.4,.32-1.67,.28-3.23,.69-4.68,1.24,1.28-1.11,2.86-2.06,4.65-2.85,.81-.37,1.67-.7,2.56-1.01,3.16-1.08,6.78-1.82,10.53-2.31,2.64-.35,5.35-.57,8-.7,2.57-.13,5.1-.17,7.47-.15,2.58,.01,4.99,.08,7.08,.19,.33,.01,.66,.03,.98,.05,2.4,.14,5.02,.42,7.69,.81,4.34,.62,8.82,1.52,12.71,2.59,.91,.25,1.81,.57,2.72,.94,3.06,1.25,6.11,3.04,9.2,4.24,1.78,.69,3.57,1.19,5.37,1.28-1.05-2.13-2.05-4.28-3.01-6.43-1.7-3.79-3.26-7.61-4.69-11.46-5.3-14.2-8.84-28.83-10.74-43.73-.21-1.63-.39-3.27-.56-4.9-.34-3.31-.61-6.63-.79-9.96-.95-17.34,1.09-34.55,7.12-49.53-1.29,17.16-1.8,33.79,.38,50.82,.03,.25,.07,.5,.1,.75,.48,3.63,1.09,7.27,1.84,10.95,1.87,9.19,4.38,17.43,7.36,26.27,.43,1.27,.91,2.57,1.43,3.87,1.3,3.3,2.87,6.68,4.58,10.03,3.21,6.29,6.92,12.48,10.36,17.88,4.09,6.42,17.56,17.56,18.81,24.17-3.77-20.04-11.3-39.46-12.82-60.84-1.71-24.21-1.32-47.83-13.62-70.04,15.37,20.56,22.3,49.75,26.56,74.35,1.49,8.62-1.44,38.68,5.79,42.61,5.22-28.19,7.74-62.18,.65-91.43,10.75,31.87,10.74,62.72,14.42,94.41,10.87-11.19,15.42-83.97,3.21-95.7,22.39,21.53,17.23,83.8,14.86,110.93,5.6-14.18,3.32-34.13,10.03-49.4,5.76-13.07,19.69-34.36,32.69-39.82-7.35,15.26-11.17,30.93-12.19,48.77-.74,12.86-2.93,35.53,3.31,47.14,4.57-18.18,7.43-36.15,19.96-50.23,11.72-13.17,29.11-15.76,41.74-23.82-11.08,14.03-24.19,23.74-33.21,40.19-5.68,10.37-10.4,21.71-14.13,33.19,9.35-10.83,23.79-16.89,34.49-26.65,13.1-11.94,26.5-23.54,42.14-31.78,2.22-1.18,4.89-2.58,7.84-4.05,3.05-1.51,6.4-3.09,9.88-4.55,9.96-4.17,20.99-7.34,28.95-5.1-5.23-1.47-13.62,2.66-21.86,8.15-3.99,2.65-7.95,5.62-11.5,8.43-4.76,3.75-8.78,7.21-11.16,9.2-1.04,.87-2.13,1.76-3.27,2.68-2.4,1.94-5,3.99-7.7,6.15-13.34,10.69-28.98,24.07-33.74,39.68-.52,1.71-.91,3.44-1.15,5.2,2.79-1.89,5.49-3.76,8.13-5.58,16.65-11.52,31.22-21.4,53.42-24.96,3.31-.53,6.6-1.05,9.87-1.6,3.8-.65,7.56-1.35,11.27-2.18,3.67-.81,7.28-1.75,10.81-2.89,6.39-2.07,12.54-4.8,18.32-8.64,2.02-1.33,4-2.8,5.92-4.43Z"/><path class="cls-1" d="M1046.58,1156.16c-10.16,2.06-23.35-.67-34.42,.67-12.71,1.54-25.44,4.71-37.38,9.17h-17.78c7.64-4.21,13.93-8.15,16.42-9.61,10.84-6.35,23.12-9.35,35.97-9.84,6.44-.24,13.03,.1,19.48,1.72,3.58,.87,14.93,8.14,17.71,7.89Z"/><path class="cls-1" d="M786.77,1166c-6.39-9.1-14.56-16.02-24.59-19.69-11.07,.23-22.41,.47-33.7,.47-5.65,4.92-10.61,11.05-14.87,18.11,14.4-17.28,42.61-16.81,62.11-5.04,3.25,1.96,6.41,4.04,9.55,6.15h1.5Z"/><path class="cls-1" d="M776.73,1134.7c-8.38,.85-21.07,2.42-27.36,8.82,4.57,.37,8.84,1.32,12.81,2.79-11.07,.23-22.41,.47-33.7,.47-5.65,4.92-10.61,11.05-14.87,18.11,14.4-17.28,42.61-16.81,62.11-5.04,3.25,1.96,6.41,4.04,9.55,6.15h-6.81c-10.26-4.93-22.42-5.72-32.35-2.47-2.32,.76-4.59,1.6-6.85,2.47h-92.84c-9.59-3.43-19.03-8.21-26.94-13.46-9.78-6.49-16.8-15.7-26.04-22.54-10.58-7.81-22.42-14.5-34.41-19.27-8.7-3.45-19.41-4.04-27.32-7.9,1.96,.95,11.8-2.63,14.75-2.57,5.24,.07,10.49,1.19,15.57,2.76,10.14,3.14,19.64,8.18,27.73,15.61,5.7,5.24,37.7,36.85,45.75,28.38,.34-.36,.65-.8,.9-1.31,1.18-2.4-1.1-5.73-5.16-9.38-10.37-9.33-32.3-20.71-37.14-23.72-1.65-1.02-3.29-2.06-4.9-3.11-4.44-2.9-8.77-5.95-13.11-9.32-9.44-7.33-15.5-16.24-21.5-25.45-.81-1.23-1.61-2.47-2.42-3.71-3.11-4.74-6.31-9.53-10.07-14.17,3.66,4.53,7.69,8.27,11.97,11.49,3.69,2.78,7.58,5.16,11.59,7.33,6.25,3.36,12.81,6.18,19.42,9.09,20.06,8.82,31.34,22.31,46.37,37.8-.22-5.99-2.41-12.16-5.64-18.21-3.77-7.04-8.95-13.94-14.11-20.24-4.46-5.45-8.9-10.45-12.39-14.73-.83-1.02-1.94-2.4-3.25-4.01-5.88-7.17-15.84-18.92-23.66-23.93-2.18-1.4-4.2-2.27-5.91-2.37,2.19,.03,4.6,.61,7.11,1.58,10.03,3.86,21.77,13.82,28.36,19.43,.47,.4,.93,.8,1.39,1.21,8.03,7.02,15.11,15.1,21.83,23.54,2.6,3.26,5.15,6.58,7.68,9.91,1.84,2.43,3.87,4.73,5.98,6.97,6.73,7.15,14.28,13.73,19.27,21.91-1.68-8.19-3.88-16.43-6.63-24.37-.62-1.84-1.29-3.66-1.98-5.46-1.66-4.31-3.62-8.26-5.75-12.01-5.41-9.49-11.91-17.74-17.41-27.55,6.92,6.8,16.14,11.74,23.81,19.16,2.71,2.62,5.23,5.55,7.39,8.98,3.92,6.24,6.27,12.69,7.86,19.31,1.33,5.54,2.14,11.19,2.89,16.94,.37,2.85,.73,5.71,1.14,8.6,1.36-1.87,2.41-4.32,3.21-7.12,1.15-3.96,1.83-8.61,2.25-13.27,.55-6.19,.66-12.39,.84-17.01,.4-9.84-.29-19.16-2.19-28.43-.83-4.05-1.88-8.08-3.19-12.15-.15-.47-.3-.95-.46-1.43,.5,.37,1,.77,1.5,1.2,2.61,2.25,5.17,5.34,7.57,8.88,6.16,9.06,11.29,21.02,13.71,29.06,1.77,5.89,2.17,12.13,2.3,18.32,.01,.54,.02,1.07,.03,1.61,.12,7.73-.02,15.36,1.76,22.13,.06-5.89,.16-13.79,.64-22.45,.03-.76,.08-1.53,.13-2.3,1.43-23.73,5.74-52.3,19.38-61.53-7.43,5.59-10.54,37.52-8.85,59.22,.13,1.67,.28,3.27,.47,4.79,.76,6.28,2.01,11.26,3.74,13.81,.93-4.29,1.77-8.59,2.58-12.88,.41-2.14,.81-4.28,1.21-6.42,3.42-18.35,6.85-36.55,15.01-53.93-5.75,16.1-7.67,35.31-7.54,53.78,.02,2.86,.09,5.71,.2,8.52,.16,3.99,.4,7.92,.71,11.74,2.38-.65,3.82-4.9,4.81-10.22,.57-3.09,1-6.54,1.36-9.85,.61-5.5,1.05-10.63,1.75-13.14,4.02-14.42,9.47-30.65,17.92-43.47,2.05-3.12,4.28-6.04,6.71-8.67,.72-.79,1.46-1.55,2.22-2.29-.75,1-1.45,2.01-2.12,3.04-2.62,4.06-4.64,8.35-6.25,12.82-4.28,11.81-5.69,24.82-7.89,37.84-.87,5.13-2.17,10-3.67,14.73-1.19,3.71-2.5,7.33-3.85,10.91-2.59,6.93-5.31,13.73-7.4,20.8,1.51-5.07,13.06-11.2,16.8-15.52,.41-.47,.82-.95,1.24-1.44,2.88-3.4,5.93-7.24,8.64-11.22,2.14-3.14,4.08-6.36,5.57-9.54,.44-.95,.88-1.89,1.3-2.83,2.32-5.07,4.36-10,6.14-15.46,.15-.46,.3-.92,.44-1.38,5.08-16.2,6.33-32.67,6.72-50.04,3.61,13.4,3.88,27.74,1.78,41.55-1.04,6.81-2.49,13.45-4.36,19.9-1.66,5.8-3.67,11.43-6.03,16.89-.75,1.74-1.53,3.45-2.36,5.15-1.96,4.08-4.13,8.06-6.52,11.92-.77,1.26-1.57,2.51-2.39,3.74,2.64,.57,5.35,.02,8.05-.58,2.06-.46,4.13-.94,6.16-.96,5.1-.05,11.4,.56,16.42,1.6,8.84,1.86,25.97,6.46,32.16,14.26-10.22-7-29.77-6.32-41.07-5.19Z"/><path class="cls-1" d="M1435.61,1115.4c-5.37,.13-10.69,1.26-15.81,2.8-10.23,3.1-19.67,7.99-27.54,15.13-1.13,1.03-3.31,3.1-6.15,5.69-2.01,1.83-4.34,3.92-6.87,6.08-.43,.37-.87,.74-1.32,1.11-11.98,10.1-27.4,20.9-31.94,13.33-1.5-2.5,1.3-6.14,6.08-10.08,.66-.55,1.36-1.1,2.09-1.66,8.7-6.63,21.9-13.79,29.1-17.76,1.85-1.02,3.31-1.83,4.19-2.36,6.12-3.71,11.95-7.56,17.76-12,6.84-5.22,11.73-11.23,16.09-17.57,4.13-6,7.78-12.28,12.16-18.46,1.28-1.82,2.63-3.63,4.08-5.42-1.41,1.74-2.89,3.37-4.42,4.89-3.77,3.74-7.9,6.85-12.26,9.58-8.02,4.99-16.86,8.67-25.78,12.5-1.45,.62-2.86,1.27-4.22,1.94-.35,.17-.69,.34-1.03,.51-8.56,4.33-15.37,9.54-21.75,15.4-6.15,5.64-11.89,11.88-18.37,18.51-.21-9.49,5.2-19.51,11.89-28.75,3.04-4.2,6.34-8.23,9.51-11.98,2.27-2.69,4.47-5.24,6.45-7.59,.7-.84,1.37-1.65,2.01-2.43,2.58-3.16,7.91-9.91,13.8-16.12,6.28-6.62,13.2-12.63,18.08-12.98-6.54,.17-14.67,4.76-21.91,9.9-5.17,3.67-9.88,7.62-13.23,10.43-.36,.3-.71,.6-1.06,.91-5.36,4.59-10.24,9.64-14.83,14.95-3.48,4.02-6.81,8.2-10.05,12.43-1.26,1.63-2.5,3.27-3.74,4.91-7.32,9.72-18.11,17.4-24.21,27.66,1.53-9.57,3.86-19.23,7.08-28.35,1-2.83,2.16-5.49,3.43-8.04,2.06-4.16,4.41-8.02,6.85-11.82,3.76-5.84,7.73-11.52,11.17-17.89-9.08,8.84-22.67,14.49-30.36,27.03-8.24,13.41-8.23,27.76-9.57,42.62-6.48-7.56-7.62-25.35-8.67-35.33-1.45-13.85-.4-26.63,3.54-39.85-9.71,6.93-18.15,26.14-21.08,37.35-3.43,13.09,.93,27.85-1.73,39.87-1.56-21.12-5.34-69.34-25.68-81.41,11.02,7.38,16.46,62.86,9.27,73.59-6.99-23.44-10.92-47.02-23.58-69.1,9.4,20.86,11.72,47.37,11.14,70.02-6.29-1.48-7.78-25.07-10.08-31.35-6.54-17.89-15.81-38.73-30.74-51.2,12.68,14.38,15.38,32.51,19.84,50.65,1.64,6.65,4.06,12.83,6.73,18.81,.34,.75,.68,1.49,1.02,2.23,3.5,7.63,7.3,15,10.27,22.74-1.84-4.78-14.05-10.45-18.14-14.49-3.36-3.31-7.01-7.14-10.32-11.16-1.87-2.28-3.64-4.63-5.16-6.97-.6-.9-1.15-1.8-1.67-2.7-3.52-6.12-6.58-11.88-9.25-18.52-2.7-6.7-4.64-13.47-6.11-20.34-1.07-5.07-1.88-10.2-2.52-15.4-.47-3.81-.86-7.65-1.2-11.55-1.53,6.71-2.1,13.66-1.87,20.64,.19,5.46,.88,10.94,1.98,16.34,.16,.8,.33,1.59,.51,2.38,2.17,9.5,5.21,18.64,9.18,27.34,1.38,3.04,2.88,6.03,4.5,8.96,3.45,6.26,7.42,12.26,11.92,17.97-4.73,1.02-9.87-1.31-14.67-1.28-3.45,.01-7.41,.29-11.17,.8-1.95,.25-3.85,.55-5.59,.91-1.42,.3-3.04,.66-4.8,1.1-9.34,2.29-22.39,6.53-27.36,12.81,10.08-6.75,30.18-6.36,41.84-5.43,2.29,.19,4.89,.42,7.61,.77,7.54,.96,15.96,2.85,20.98,7.25-4.98,.44-9.57,1.49-13.78,3.09-.6,.22-1.19,.45-1.77,.71-2.24,.94-4.36,2.04-6.38,3.3h155.43c.1-.06,.2-.13,.3-.19,7.04-4.57,12.49-10.49,18.44-15.92,1.13-1.02,2.27-2.03,3.46-3.01,1.13-.95,2.29-1.86,3.5-2.74,.5-.36,1-.72,1.51-1.07,10.02-7.08,21.22-13.15,32.67-17.6,8.72-3.38,19.68-4.07,27.56-7.83-1.95,.93-12.26-2.34-15.28-2.24Z"/><path class="cls-1" d="M1239.97,1124.5c-6.3-3.65-15.24-6.14-22.33-7.65-2.08-.45-4-.81-5.64-1.1-1.66-.28-3.46-.52-5.31-.71-4.05-.42-8.35-.6-12.07-.48-4.96,.14-10.22,2.69-15.14,1.81,7.27-9.67,13.08-20.06,17.52-31.05,1.33-3.29,2.53-6.64,3.61-10.03,1.61-5.06,2.95-10.23,4.03-15.49,2.75-13.5,3-27.46-.32-40.43-.88,13.97-2.36,27.35-6.23,40.52-.81,2.79-1.74,5.58-2.79,8.36-.09,.25-.19,.49-.28,.73-2.54,6.6-5.46,12.42-8.83,18.6-4.16,7.65-11.17,15.67-17.23,21.96-4.14,4.29-16.62,10.52-18.41,15.49,5.41-15.09,13.89-28.98,17.57-45.56,4.17-18.77,6.52-37.47,19.29-52.66-15.14,13.3-24.22,35.01-30.55,53.6-2.22,6.52-3.19,30.79-9.66,32.52-1.15-23.23,.6-50.52,9.83-72.25-12.57,23.1-16.06,47.44-22.71,71.74-7.71-10.79-3.42-67.98,7.81-75.87-20.76,13.06-23.51,62.72-24.6,84.45-3.05-12.25,1.11-27.55-2.75-40.87-3.31-11.4-12.51-30.84-22.71-37.62,4.39,13.43,5.79,26.52,4.62,40.78-.84,10.29-1.59,28.58-8.1,36.56-1.75-15.2-2.09-29.93-10.94-43.41-8.26-12.61-22.45-17.96-32.05-26.72,7.63,13.17,17.45,23.32,23.1,38.01,3.55,9.26,6.2,19.1,8.01,28.87-6.56-10.33-17.91-17.84-25.71-27.57-9.56-11.91-19.4-23.61-31.5-33.07-8.53-6.7-25.48-19.93-37.09-19.68,9.72,0,28.2,22.19,33.93,28.8,11.2,12.91,32.08,32.61,32.11,51.07-5.09-4.88-9.75-9.56-14.47-13.94-.17-.15-.34-.31-.51-.47-9.38-8.62-19.05-16.02-32.82-21.37-3.52-1.37-7.03-2.72-10.48-4.12-2.4-.98-4.76-1.99-7.09-3.05-10.04-4.57-19.38-10.2-27-19.07,6.65,7.74,11.51,15.93,17.12,23.62,1.73,2.37,3.52,4.69,5.47,6.93,3.38,3.91,7.2,7.59,11.85,10.9,6.12,4.35,12.24,8.12,18.65,11.71,1.16,.65,3.28,1.72,5.98,3.09,2.15,1.09,4.67,2.37,7.38,3.78,12.64,6.59,29.26,16.03,30.59,22.2,.18,.8,.1,1.55-.29,2.23-2.75,4.83-9.85,2.79-17.84-1.79-6.79-3.91-14.23-9.65-20.18-14.56-4.9-4.05-8.79-7.54-10.47-8.97h0c-8.31-7.07-18.2-11.77-28.84-14.6-3.68-.97-7.45-1.74-11.25-2.11-1.72-.16-3.45-.25-5.18-.23-3.13,0-13.71,3.7-15.75,2.82,3.9,1.69,8.5,2.67,13.23,3.56,5.25,.99,10.67,1.87,15.47,3.54,7.17,2.5,14.26,5.61,21.06,9.2,5.11,2.68,10.05,5.64,14.74,8.8,.95,.64,1.87,1.31,2.78,2,4.51,3.39,8.56,7.24,12.8,10.93,3.48,3.04,7.09,5.96,11.22,8.44,13.99,8.44,32.78,15.42,49.2,16.91,6.26,.56,12.58,.45,18.91,.65,2.93,.08,5.87,.24,8.79,.57,8.96,1,18.06,1.96,26.99-.07,10.43-2.35,19.94-6.93,30.11-10.15,14.94-4.73,34.19-1.85,45.79,9.17,1.09,1.03,2.11,2.13,3.05,3.3h.81c-.66-1.37-1.36-2.71-2.09-4.01-2.11-3.75-4.5-7.22-7.2-10.34-1.68-1.97-3.48-3.79-5.4-5.46-1.97-1.74-4.07-3.31-6.3-4.7-6.9-4.34-15.03-7-24.45-7.51,6.92-6.38,20.45-8.19,29.38-9.2,2.64-.3,5.7-.58,8.99-.78,3.68-.21,7.65-.31,11.61-.18,6.49,.2,12.97,1.01,18.19,2.91,1.68,.61,3.23,1.34,4.61,2.2-1.38-1.64-3.33-3.12-5.63-4.43Z"/></g><path class="cls-1" d="M100.43,1166H785.27c-3.14-2.11-6.3-4.19-9.55-6.15-19.5-11.77-47.71-12.24-62.11,5.04,4.26-7.06,9.22-13.19,14.87-18.11-28.27,0-56.25-1.48-79.07-8.21-4.75-1.4-9.28-2.98-13.66-4.7-17.13-6.74-31.76-15.64-46.54-24.38-19.09-11.29-38.44-22.31-63.73-28.06-14.29-3.24-29.68-4.47-43.72-8.1-11.07-2.86-20.79-7.06-29.86-11.89-8.18-4.35-15.84-9.22-23.48-14.09-4.2-2.68-8.4-5.36-12.69-7.95h-.01c-2.84-1.73-5.7-3.41-8.64-5.03-8.69-4.8-17.93-9.06-28.36-12.12,0,0,0-.01,0,0-1.85-.56-3.72-1.06-5.65-1.53-3.03-.73-6.09-1.35-9.19-1.86-.2-.04-.4-.07-.6-.1-11.18-1.83-22.79-2.36-34.57-2.34-21.41,.02-43.41,1.85-64.55,1.03-.07,0-.14,0-.21-.01-10.79-.41-21.36-1.53-31.51-3.92-6.89-1.62-13.34-3.79-19.62-6.19-4.05-1.55-8.02-3.19-11.99-4.85h-.01c-10.54-4.4-21.01-8.87-32.69-11.81h-.01c-1.1-.29-2.2-.55-3.32-.8-1.3-.29-2.6-.56-3.92-.8-19.77-3.67-41.29-2.27-60.44,2.78v174.15Z"/><path class="cls-1" d="M226.37,1002.94c11.16,1.86,30.11,6.22,37.99,14.94-3.78-8.39-18.95-16.76-26.91-20.62-4.54-2.18-10.41-4.31-15.33-5.55-4.5-1.15-9.87-.18-14.07-2.25,15.64-12.06,27.84-27.28,36.79-44.9,5.85-11.55,9.58-24.17,9.84-36.79-5.2,15.09-10.98,29.18-20.35,42.07-4.07,5.6-8.29,10.28-13.03,15.21-5.66,5.88-13.97,11.36-21,15.51-4.79,2.83-17.58,5.28-20.43,9.33,8.64-12.32,19.75-22.75,27.22-36.85,8.45-15.98,15.25-32.36,30.53-42.87-16.94,8.19-30.54,25.57-40.9,40.82-3.63,5.35-10.58,27.14-16.83,27.05,4.78-21.39,13.19-45.73,26.93-63.09-17.08,17.75-26.32,38.95-38.39,59.31-4.27-11.9,14.33-63.67,26.4-67.01-22.15,6.14-37.18,50.92-43.64,70.49,.32-11.91,7.89-24.74,7.76-37.83-.12-11.21-3.52-31.23-11-40.01,.59,13.33-1.43,25.58-6.06,38.23-3.33,9.12-8.58,25.55-16.44,31.12,2.24-14.26,5.61-27.72,1.04-42.24-4.27-13.58-15.69-22.08-22.14-32.51,3.56,13.92,9.85,25.67,11.25,40.47,.88,9.33,.79,18.94-.02,28.28-3.07-10.26-10.44-19.38-15.15-29.3v68.14c3.34,1.82,6.7,3.42,10.03,4.71,5.49,2.12,11.2,3.65,16.85,5.45,2.61,.83,5.21,1.73,7.76,2.78,7.81,3.22,15.75,6.43,24.29,6.89,9.97,.54,19.67-1.17,29.62-1.48,17.21-.54,37.13,10.04,42.06,27.49-2.74-20.37-12.99-37.11-33.38-44.16,7.83-4.01,20.44-2.17,28.72-.79Z"/><path class="cls-1" d="M2020.43,1036.66c-2.29,.47-4.56,1.05-6.79,1.72-10.22,3.1-19.67,7.99-27.53,15.13-5.77,5.24-39.22,37.99-46.28,26.21-4.82-8.03,34.8-27.82,41.46-31.86,6.12-3.71,11.94-7.56,17.75-12,9.7-7.4,15.49-16.4,21.39-25.65v-5.29c-9.44,7.14-20.4,11.69-31.52,16.45-20.07,8.6-30.85,21.51-45.37,36.36-.39-17.97,19.33-37.82,29.86-50.75,5.43-6.66,23.01-29.16,32.34-29.12-11.23-.05-27.46,13.51-35.6,20.34-11.47,9.6-20.72,21.3-29.68,33.2-7.32,9.72-18.11,17.4-24.21,27.66,1.53-9.57,3.86-19.23,7.08-28.35,5.12-14.48,14.38-24.68,21.45-37.74-9.08,8.84-22.67,14.49-30.36,27.03-8.23,13.41-8.23,27.76-9.57,42.61-6.48-7.56-7.62-25.34-8.66-35.33-1.46-13.85-.4-26.63,3.53-39.85-9.71,6.93-18.14,26.14-21.08,37.35-3.42,13.09,.94,27.85-1.73,39.87-1.56-21.24-5.38-69.91-26.04-81.63,11.27,6.38,16.9,62.96,9.63,73.81-6.98-23.44-10.91-47.02-23.58-69.1,9.41,20.86,11.73,47.37,11.14,70.02-6.29-1.48-7.78-25.07-10.07-31.34-6.55-17.9-15.81-38.74-30.74-51.2,12.68,14.38,15.38,32.51,19.83,50.65,3.94,16.02,12.45,29.27,18.02,43.78-1.84-4.78-14.05-10.45-18.14-14.49-6-5.93-12.96-13.51-17.15-20.83-3.52-6.13-6.58-11.89-9.25-18.52-6.16-15.28-8.41-30.85-9.83-47.29-2.91,12.72-2.35,26.31,.62,39.36,4.54,19.92,12.95,38.24,25.6,54.26-4.73,1.02-9.87-1.3-14.67-1.28-5.24,.01-11.67,.67-16.76,1.71-8.96,1.87-26.26,6.44-32.16,13.91,10.08-6.75,30.18-6.36,41.84-5.43,8.65,.7,21.76,2.03,28.6,8.01-22.21,1.95-36.69,16.15-44.56,35.89,9.32-16.26,31.96-21.85,49.07-16.99,9.9,2.81,19.19,6.96,29.32,8.92,8.67,1.68,17.45,.46,26.08-.81,2.81-.41,5.64-.66,8.47-.83,6.12-.39,12.23-.49,18.26-1.23,15.83-1.98,33.82-9.37,47.15-18.03,9.66-6.27,16.32-15.08,25.4-21.67,10.4-7.53,22.15-14,34.18-18.67,1.06-.41,2.14-.78,3.26-1.12v-7.88Z"/><path class="cls-1" d="M2020.43,1040.99c-5.64,.48-11.82,1.12-18.44,1.92-.01-.01-.01,0-.01,0-5.11,.6-10.47,1.3-16.08,2.09h-.01c-10.96,1.52-22.8,3.34-35.25,5.4-2.14,.35-4.29,.71-6.47,1.08-8.41,1.42-17.07,2.93-25.9,4.53-.51,.09-1.02,.18-1.54,.28-3.82,.69-7.66,1.39-11.53,2.11-.92,.17-1.84,.34-2.76,.52-8.37,1.55-16.84,3.17-25.34,4.83-.08,.01-.17,.03-.25,.05-19.61,3.82-39.4,7.85-58.56,11.88-3.85,.81-7.68,1.62-11.47,2.43-6.29,1.34-12.48,2.67-18.56,4-4.14,.9-8.22,1.79-12.24,2.68-50.36,11.12-90.64,21-102.33,24.97h-.01c-.05,0-.08,.03-.12,.04-2.6,.89-5.14,1.71-7.61,2.46h-.02c-4.23,1.3-8.26,2.4-12.17,3.32-.06,.02-.11,.04-.17,.05t0,0c-36.36,8.63-60.57,2.79-105.88,2.37-14.1-.13-27.99,1.76-41.73,3.78-.99,.14-1.98,.28-2.97,.43-.19,.03-.39,.06-.58,.09-33.87,5.04-72.48,13.61-111.76,20.77-1.6,.29-3.2,.58-4.81,.86-2.2,.4-4.41,.79-6.61,1.17-.8,.14-1.6,.28-2.4,.41-8.27,1.42-16.54,2.75-24.78,3.95-6.3,.91-12.59,1.75-18.84,2.48-27.25,3.21-53.85,4.55-78.42,2.31h-.07c-17.43-1.59-34.2-5.09-51.16-8.06-1.87-.33-3.73-.65-5.6-.96-3.69-.61-7.39-1.19-11.09-1.73-44.23-6.49-88.9-7.94-133.76-7.14-6.04,.1-12.08,.25-18.13,.44-3.86,.11-7.73,.24-11.6,.38-10.31,.38-20.62,.84-30.94,1.36-20.88,1.03-41.78,2.28-62.67,3.47-2.33,.12-4.65,.25-6.98,.38-40.58,2.25-81.12,4.11-121.45,3.53-12.27-.18-25.52,.1-39.17,.39,10.03,3.67,18.2,10.59,24.59,19.69H2020.43v-125.01Z"/></g><g><g id="tree"><path class="cls-2" d="M320.19,267.61s81.08-67.02,183.36-12.27c102.28,54.75,75.77,182.07,75.77,182.07,0,0-42.78-19.54-95.09-48.91-1.31-.73,6.09-48.35,4.77-49.1-1.96-1.11-12.65,44.64-14.64,43.51-55.98-32.05-120.17-74.22-154.17-115.3Z"/><path class="cls-2" d="M320.19,267.61s126.42,23.56,128.72,134.44c.58,27.6-1.49,52.21-4.91,73.62-.34,2.13-20.34-32.75-20.7-30.68-.33,1.86,18.98,40.66,18.63,42.45-10.99,57.09-30.92,88.16-30.92,88.16,0,0-32.31-103.61-93.74-142.97-.99-.63,30.7-52.81,29.69-53.42-1.92-1.14-36.56,49.33-38.52,48.32-67.16-34.52-61.41-152.39,11.75-159.93Z"/><path class="cls-2" d="M320.19,267.61s-99.45-31.32-163.11,75.69c-.44,.73,26.16,17.95,25.74,18.68-1.58,2.73-30.1-11.04-31.51-8.35-52.94,101.43,19.57,170.93,19.57,170.93,0,0,27.9-24.31,52.75-59.79,.77-1.1-24.29-20.62-23.52-21.75,1.08-1.58,27.98,15.22,29.04,13.61,14.22-21.76,26.59-47.03,30.83-73.14,12.04-73.91,60.22-115.89,60.22-115.89Z"/><path class="cls-2" d="M349.96,376.61c-9.45-5.01-39.68-13.01-51.25-3.13-11.57,9.89-17.25,67.28-13.03,72.3,4.23,5.01,48.68,10.03,57.39,.03,8.71-10,6.89-69.2,6.89-69.2Z"/><path class="cls-2" d="M340.95,442.88c-9.45-5.01-39.68-13.01-51.25-3.13-11.57,9.89-17.24,67.28-13.02,72.29,4.23,5.01,48.68,10.03,57.38,.04,8.71-10,6.89-69.2,6.89-69.2Z"/><path class="cls-2" d="M332.88,500.72c-9.45-5.01-39.68-13.01-51.25-3.13-11.58,9.89-17.25,67.28-13.03,72.3,4.22,5.01,48.68,10.03,57.39,.03,8.71-10,6.89-69.2,6.89-69.2Z"/><path class="cls-2" d="M326.01,567.89c-9.11-5.61-38.76-15.55-50.94-6.42-12.18,9.12-21.54,66.03-17.64,71.31,3.89,5.27,47.93,13.13,57.26,3.72,9.34-9.42,11.32-68.6,11.32-68.6Z"/><path class="cls-2" d="M313.22,634.52c-8.94-5.87-38.29-16.67-50.73-7.91-12.45,8.76-23.47,65.37-19.73,70.75,3.73,5.39,47.53,14.55,57.13,5.4,9.61-9.13,13.33-68.24,13.33-68.24Z"/><path class="cls-2" d="M298.27,701.71c-8.94-5.88-38.28-16.68-50.73-7.91-12.45,8.76-23.47,65.37-19.73,70.75,3.74,5.39,47.53,14.54,57.13,5.4,9.61-9.14,13.33-68.24,13.33-68.24Z"/><path class="cls-2" d="M283.81,771.73c-8.57-6.4-37.21-18.94-50.17-10.94-12.95,8-27.33,63.86-23.93,69.44,3.41,5.6,46.57,17.36,56.71,8.82,10.13-8.55,17.38-67.32,17.38-67.32Z"/><path class="cls-2" d="M264.37,838.75c-8.58-6.4-37.22-18.93-50.17-10.93-12.95,8-27.34,63.85-23.93,69.44,3.41,5.6,46.57,17.36,56.71,8.81,10.13-8.55,17.39-67.32,17.39-67.32Z"/><path class="cls-2" d="M250.56,901.42c-9.29-6.94-40.36-20.53-54.39-11.85-14.04,8.67-29.64,69.23-25.94,75.29,3.69,6.07,50.49,18.82,61.48,9.55,10.99-9.26,18.85-72.99,18.85-72.99Z"/><path class="cls-2" d="M235.87,963.45c-9.56-7.14-41.5-21.11-55.93-12.19-14.44,8.92-30.47,71.18-26.68,77.42,3.8,6.25,51.92,19.36,63.22,9.82,11.3-9.52,19.38-75.05,19.38-75.05Z"/></g><path class="cls-2" d="M124.93,160.32c-8.76,1.91-16.91,4.22-24.5,6.86v20.59c4.32,14.9,9.8,33.26,9.22,33.49-.6,.24-4.75-10.15-9.22-21.47v110.14c40.51-.36,82.17-3.82,98.98-11.32,1.9-.85-11.81-48.28-9.7-49.03,1.53-.55,18.82,45.56,20.44,45.06,39.03-12.02,104.08-11.14,104.08-11.14,0,0-68.8-149.41-189.3-123.18Z"/><path class="cls-2" d="M303.27,87.35c-.41-.46-.84-.9-1.26-1.35H122.38c16.9,23.69,37.99,49.29,63.2,72.58,1.02,.94,45.33-30.47,46.35-29.54,1.12,1.01-41.04,34.36-39.91,35.36,2.36,2.08,4.75,4.15,7.19,6.19,83.7,70.22,109.55,134.76,109.55,134.76,0,0,76.54-127.65-5.49-217.99Z"/><path class="cls-2" d="M374.66,86c3.02,12.83,7.45,30.4,6.83,31.03-.9,.92-8.29-20-12.74-31.03h-9.24c-43.69,49.41-80.36,124.45-45.73,213.27,0,0,96.31-4.02,161.67-135.23,5.46-10.97,10.31-21.13,14.58-30.58,1.1-2.42-41.97,.23-40.94-2.09,1.58-3.61,47.21-12.13,48.63-15.51,4.64-11.07,8.39-20.98,11.38-29.86h-134.44Z"/></g></svg>