<?xml version="1.0" encoding="UTF-8"?><svg id="home" xmlns="http://www.w3.org/2000/svg" viewBox="0 0 2082.89 1191"><defs><style>.cls-1{fill:#0d2c54;}.cls-2{fill:#0c2b53;}</style></defs><g id="tree"><path class="cls-2" d="M515.09,1.48c-6.42-7.97-78.61,16.4-133.87,71.21-.97,.96,10.39,43.36,9.44,44.34-1.23,1.26-14.79-38.88-16.01-37.59-46.2,49.2-87.9,126.99-51.7,219.83,0,0,96.31-4.02,161.67-135.23,5.46-10.97,10.31-21.13,14.58-30.58,1.1-2.42-41.97,.23-40.94-2.09,1.58-3.61,47.21-12.13,48.63-15.51,36.78-87.8,17.82-102.45,8.21-114.38Z"/><path class="cls-2" d="M339.69,292.7s18.47-147.69-93.06-197.21C135.1,45.96,0,109.04,0,109.04c0,0,23.32,21.59,61.29,46.27,1.03,.67,26.54-22.12,27.6-21.45,1.58,1.02-21.27,25.5-19.64,26.53,27.21,17.04,60.96,34.93,98.48,47.79,1.31,.45,29.16-46.18,30.48-45.74,1.43,.47-23.67,48.01-22.23,48.47,3,.95,6.02,1.88,9.07,2.76,104.93,30.44,154.64,79.04,154.64,79.04Z"/><path class="cls-2" d="M330.35,292.61s81.08-67.02,183.36-12.27c102.28,54.75,75.77,182.07,75.77,182.07,0,0-42.78-19.54-95.09-48.91-1.31-.73,6.09-48.35,4.77-49.1-1.96-1.11-12.65,44.64-14.64,43.51-55.98-32.05-120.17-74.22-154.17-115.3Z"/><path class="cls-2" d="M330.35,292.61s126.42,23.56,128.72,134.44c.58,27.6-1.49,52.21-4.91,73.62-.34,2.13-20.34-32.75-20.7-30.68-.33,1.86,18.98,40.66,18.63,42.45-10.99,57.09-30.92,88.16-30.92,88.16,0,0-32.31-103.61-93.74-142.97-.99-.63,30.7-52.81,29.69-53.42-1.92-1.14-36.56,49.33-38.52,48.32-67.16-34.52-61.41-152.39,11.75-159.93Z"/><path class="cls-2" d="M330.35,292.61s-99.45-31.32-163.11,75.69c-.44,.73,26.16,17.95,25.74,18.68-1.58,2.73-30.1-11.04-31.51-8.35-52.94,101.43,19.57,170.93,19.57,170.93,0,0,27.9-24.31,52.75-59.79,.77-1.1-24.29-20.62-23.52-21.75,1.08-1.58,27.98,15.22,29.04,13.61,14.22-21.76,26.59-47.03,30.83-73.14,12.04-73.91,60.22-115.89,60.22-115.89Z"/><path class="cls-2" d="M324.39,293.51s-68.8-149.41-189.3-123.18c-10.68,2.33-20.47,5.24-29.43,8.64-1.01,.38,15.13,51.91,14.14,52.3-1.31,.52-19.74-50.08-21.01-49.54C13.29,218.2,8.74,299.69,14.83,310.26c6.85,11.91,158.5,14.52,194.74-1.65,1.9-.85-11.81-48.28-9.7-49.03,1.53-.55,18.82,45.56,20.44,45.06,39.03-12.02,104.08-11.14,104.08-11.14Z"/><path class="cls-2" d="M360.12,401.61c-9.45-5.01-39.68-13.01-51.25-3.13-11.57,9.89-17.25,67.28-13.03,72.3,4.23,5.01,48.68,10.03,57.39,.03,8.71-10,6.89-69.2,6.89-69.2Z"/><path class="cls-2" d="M351.11,467.88c-9.45-5.01-39.68-13.01-51.25-3.13-11.57,9.89-17.24,67.28-13.02,72.29,4.23,5.01,48.68,10.03,57.38,.04,8.71-10,6.89-69.2,6.89-69.2Z"/><path class="cls-2" d="M343.04,525.72c-9.45-5.01-39.68-13.01-51.25-3.13-11.58,9.89-17.25,67.28-13.03,72.3,4.22,5.01,48.68,10.03,57.39,.03,8.71-10,6.89-69.2,6.89-69.2Z"/><path class="cls-2" d="M336.17,592.89c-9.11-5.61-38.76-15.55-50.94-6.42-12.18,9.12-21.54,66.03-17.64,71.31,3.89,5.27,47.93,13.13,57.26,3.72,9.34-9.42,11.32-68.6,11.32-68.6Z"/><path class="cls-2" d="M323.38,659.52c-8.94-5.87-38.29-16.67-50.73-7.91-12.45,8.76-23.47,65.37-19.73,70.75,3.73,5.39,47.53,14.55,57.13,5.4,9.61-9.13,13.33-68.24,13.33-68.24Z"/><path class="cls-2" d="M308.43,726.71c-8.94-5.88-38.28-16.68-50.73-7.91-12.45,8.76-23.47,65.37-19.73,70.75,3.74,5.39,47.53,14.54,57.13,5.4,9.61-9.14,13.33-68.24,13.33-68.24Z"/><path class="cls-2" d="M293.97,796.73c-8.57-6.4-37.21-18.94-50.17-10.94-12.95,8-27.33,63.86-23.93,69.44,3.41,5.6,46.57,17.36,56.71,8.82,10.13-8.55,17.38-67.32,17.38-67.32Z"/><path class="cls-2" d="M274.53,863.75c-8.58-6.4-37.22-18.93-50.17-10.93-12.95,8-27.34,63.85-23.93,69.44,3.41,5.6,46.57,17.36,56.71,8.81,10.13-8.55,17.39-67.32,17.39-67.32Z"/><path class="cls-2" d="M260.72,926.42c-9.29-6.94-40.36-20.53-54.39-11.85-14.04,8.67-29.64,69.23-25.94,75.29,3.69,6.07,50.49,18.82,61.48,9.55,10.99-9.26,18.85-72.99,18.85-72.99Z"/><path class="cls-2" d="M246.03,988.45c-9.56-7.14-41.5-21.11-55.93-12.19-14.44,8.92-30.47,71.18-26.68,77.42,3.8,6.25,51.92,19.36,63.22,9.82,11.3-9.52,19.38-75.05,19.38-75.05Z"/></g><g id="bushes"><path class="cls-1" d="M2082.89,1191H44.86c.54-22.91,1.91-45.79,4.37-68.58,3.64-33.77-15.82-63.38,28.53-91.7,6.41-4.09,13.82-7.64,21.86-10.5,21.59-7.7,47.76-10.54,71.41-6.15,1.32,.24,2.62,.51,3.92,.8,1.12,.25,2.22,.51,3.32,.8h.01c11.68,2.94,22.15,7.41,32.69,11.81h.01c3.97,1.66,7.94,3.3,11.99,4.85,6.28,2.4,12.73,4.57,19.62,6.19,10.15,2.39,20.72,3.51,31.51,3.92,.07,.01,.14,.01,.21,.01,21.14,.82,43.14-1.01,64.55-1.03,11.78-.02,23.39,.51,34.57,2.34,.2,.03,.4,.06,.6,.1,3.1,.51,6.16,1.13,9.19,1.86,1.93,.47,3.8,.97,5.65,1.53,0-.01,0,0,0,0,10.43,3.06,19.67,7.32,28.36,12.12,2.94,1.62,5.8,3.3,8.64,5.03h.01c4.29,2.59,8.49,5.27,12.69,7.95,7.64,4.87,15.3,9.74,23.48,14.09,9.07,4.83,18.79,9.03,29.86,11.89,14.04,3.63,29.43,4.86,43.72,8.1,25.29,5.75,44.64,16.77,63.73,28.06,14.78,8.74,29.41,17.64,46.54,24.38,4.38,1.72,8.91,3.3,13.66,4.7,22.82,6.73,50.8,8.21,79.07,8.21,11.29,0,22.63-.24,33.7-.47,13.65-.29,26.9-.57,39.17-.39,40.33,.58,80.87-1.28,121.45-3.53,2.33-.13,4.65-.26,6.98-.38,20.89-1.19,41.79-2.44,62.67-3.47,10.32-.52,20.63-.98,30.94-1.36,3.87-.14,7.74-.27,11.6-.38,6.05-.19,12.09-.34,18.13-.44,44.86-.8,89.53,.65,133.76,7.14,3.7,.54,7.4,1.12,11.09,1.73,1.87,.31,3.73,.63,5.6,.96,16.96,2.97,33.73,6.47,51.16,8.06h.07c24.57,2.24,51.17,.9,78.42-2.31,6.25-.73,12.54-1.57,18.84-2.48,8.24-1.2,16.51-2.53,24.78-3.95,.8-.13,1.6-.27,2.4-.41,2.2-.38,4.41-.77,6.61-1.17,1.61-.28,3.21-.57,4.81-.86,39.28-7.16,77.89-15.73,111.76-20.77,.19-.03,.39-.06,.58-.09,.99-.15,1.98-.29,2.97-.43,13.74-2.02,27.63-3.91,41.73-3.78,45.31,.42,69.52,6.26,105.88-2.37t0,0c.06-.01,.11-.03,.17-.05,3.91-.92,7.94-2.02,12.17-3.32h.02c2.47-.75,5.01-1.57,7.61-2.46,.04-.01,.07-.03,.12-.04h.01c11.69-3.97,51.97-13.85,102.33-24.97,4.02-.89,8.1-1.78,12.24-2.68,6.08-1.33,12.27-2.66,18.56-4,3.79-.81,7.62-1.62,11.47-2.43,19.16-4.03,38.95-8.06,58.56-11.88,.08-.02,.17-.04,.25-.05,8.5-1.66,16.97-3.28,25.34-4.83,.92-.18,1.84-.35,2.76-.52,3.87-.72,7.71-1.42,11.53-2.11,.52-.1,1.03-.19,1.54-.28,8.83-1.6,17.49-3.11,25.9-4.53,2.18-.37,4.33-.73,6.47-1.08,12.45-2.06,24.29-3.88,35.25-5.4h.01c5.61-.79,10.97-1.49,16.08-2.09,0,0,0-.01,.01,0,14.77-1.78,27.31-2.81,36.71-2.87,0,0,.01,.01,.01,0,11.34-.09,18.12,1.24,18.77,4.36,8.41,40.35,13.49,80.95,15.25,121.6Z"/><path class="cls-1" d="M284.74,1075.18c-3.06-1.42-6.17-2.76-9.34-3.93-9.76-3.57-19.63-7.26-27.76-13.93-9.49-7.79-16.87-17.4-25.64-25.95-15.16-14.79-42.03-21.75-60.99-10.01,19.42-16.2,42.62-22.86,66.98-12.32-3.77-10.14-16.74-18.96-25.4-24.59-11.67-7.58-32.49-19.38-46.87-18.02,10.41-4.47,31.11,.55,41.55,3.66,5.92,1.79,13.02,4.74,18.52,7.7,5.04,2.7,9.1,8.04,14.63,9.65-4.16-23.94-2.59-47.88,3.94-71.31,4.29-15.34,11.4-29.88,21.65-41.55-7.82,18.02-14.29,35.59-16.5,55.07-.96,8.46-1.02,16.22-.81,24.62,.24,10.04,3.23,21.92,6.16,31.52,1.99,6.55,11.56,19.39,10.78,25.44,2.39-18.35,.99-37.04,5.93-56.04,5.61-21.51,13.06-42.02,7.93-64.25,8.57,21.51,6.46,48.57,3.17,71.01-1.15,7.87-12.95,33.41-7.21,38.52,13.44-23.38,26.03-52.44,28-79.6,.75,30.29-8.49,57.2-14.46,85.7,13.76-7.24,39.92-69.66,31.73-82.72,14.99,23.97-8.59,77.09-18.98,100.2,9.6-11.07,13.4-29,24.4-40.76,9.42-10.06,29.14-25.4,43.23-27.15-11.61,11.61-19.96,24.39-26.28,39.72-4.56,11.04-13.45,30.31-10.95,41.89,9.82-14.79,17.94-29.81,34.16-39.19,15.16-8.77,32.59-6.99,47.1-11.1-14.8,9.67-30.27,15.1-43.83,27.36-8.55,7.73-16.46,16.52-23.48,25.67,12.2-7.28,27.84-9.21,41.01-15.24,16.12-7.38,32.43-14.39,49.88-17.94,12.4-2.54,37.07-7.54,48.8-1.13-9.74-5.33-40.89,8.26-50.35,12.16-18.35,7.57-50.23,17.17-60,36.21,23.61-7.32,42.21-14.73,68.09-12.36,20.33,1.86,40.09,4.03,59.72-4.18-20.15,8.42-34.8,21.54-57.33,25.08-8.59,1.35-16.87,2.09-25.38,2.5-9.27,.46-61.95-1.27-61.45,9.86,.71,16.34,54.28,1,63.29-1.22,12.28-3.02,24.94-2.79,37.4-.24,6.24,1.28,12.44,3.12,18.14,6.03,3.22,1.61,12.16,10.87,14.72,11-10.38-.53-22.24-6.01-33.29-7.42-15.23-1.93-31.2-1.81-46.35,.18-13.24,1.75-25.2,7.2-38.87,8.29-18.85,1.52-41.88-.93-59.57-7.83-6.74-2.64-13.19-6-19.82-9.05Z"/><path class="cls-1" d="M137.47,1037.21c2.61,.83,5.21,1.73,7.75,2.78,7.81,3.22,15.75,6.43,24.29,6.89,9.97,.54,19.67-1.17,29.62-1.48,17.21-.54,37.13,10.04,42.06,27.49-2.74-20.37-12.99-37.11-33.38-44.16,7.82-4.01,20.44-2.17,28.72-.79,11.16,1.86,30.11,6.22,37.99,14.94-3.78-8.39-18.95-16.76-26.91-20.62-4.54-2.18-10.41-4.31-15.33-5.55-4.5-1.15-9.87-.18-14.07-2.25,15.64-12.06,27.84-27.28,36.79-44.9,5.85-11.55,9.58-24.17,9.84-36.79-5.2,15.09-10.98,29.18-20.35,42.07-4.07,5.6-8.29,10.28-13.03,15.21-5.66,5.88-13.97,11.36-21,15.51-4.79,2.83-17.58,5.28-20.43,9.33,8.64-12.32,19.75-22.75,27.22-36.85,8.45-15.98,15.25-32.36,30.53-42.87-16.94,8.19-30.54,25.57-40.9,40.82-3.63,5.35-10.58,27.14-16.83,27.05,4.78-21.39,13.19-45.73,26.93-63.09-17.08,17.75-26.32,38.95-38.39,59.31-4.27-11.9,14.33-63.67,26.4-67.01-22.15,6.14-37.18,50.92-43.64,70.49,.32-11.91,7.89-24.74,7.76-37.83-.12-11.21-3.52-31.23-11-40.01,.59,13.33-1.43,25.58-6.06,38.23-3.33,9.12-8.58,25.55-16.44,31.12,2.24-14.26,5.61-27.72,1.04-42.24-4.27-13.58-15.69-22.08-22.14-32.51,3.56,13.92,9.85,25.67,11.25,40.47,.88,9.33,.79,18.94-.02,28.28-3.31-11.06-11.63-20.81-16.21-31.65-5.61-13.27-11.53-26.43-20.04-38.14-6.04-8.33-18.08-24.87-28.63-27.47,8.77,2.16,19.97,27.41,23.5,34.94,6.84,14.61,20.68,37.88,16.09,54.65-10.13-17.35-17.21-32.01-34.02-44.8-13.21-10.05-26.24-19.6-33.5-35.3,7.45,16.11,9.03,32.02,20.59,46.51,4.41,5.52,8.97,10.52,13.84,15.43,5.3,5.36,37.83,33.25,31.42,39.66-9.4,9.4-33.08-29.2-37.27-35.48-5.7-8.55-13.42-15.37-22.28-20.68-4.44-2.66-9.17-4.96-14.18-6.35-2.81-.81-13.26-.16-14.87-1.49,6.51,5.38,16.63,8.61,24.03,13.83,10.19,7.21,19.7,16.05,27.68,25.56,6.98,8.32,11.15,18.15,18.74,26.31,10.47,11.26,25.61,22.44,40.01,28.02,5.49,2.12,11.2,3.65,16.85,5.45Z"/><path class="cls-1" d="M1902.35,1130.25c-2.83,.18-5.66,.42-8.47,.83-8.64,1.26-17.41,2.49-26.08,.81-10.13-1.96-19.43-6.11-29.32-8.92-17.11-4.86-39.75,.74-49.07,16.99,7.87-19.74,22.35-33.93,44.56-35.89-6.84-5.99-19.95-7.32-28.6-8.01-11.66-.93-31.75-1.33-41.84,5.43,5.9-7.46,23.21-12.04,32.16-13.91,5.09-1.04,11.52-1.7,16.76-1.71,4.8-.02,9.94,2.3,14.67,1.28-12.65-16.02-21.06-34.34-25.6-54.26-2.96-13.05-3.53-26.63-.62-39.36,1.42,16.44,3.67,32.01,9.83,47.29,2.67,6.63,5.73,12.39,9.25,18.52,4.19,7.32,11.15,14.9,17.15,20.83,4.09,4.04,16.3,9.71,18.14,14.49-5.57-14.52-14.08-27.77-18.02-43.78-4.46-18.14-7.15-36.27-19.83-50.65,14.93,12.47,24.19,33.3,30.74,51.2,2.29,6.28,3.79,29.86,10.07,31.34,.58-22.65-1.73-49.16-11.14-70.02,12.67,22.08,16.6,45.66,23.58,69.1,7.27-10.85,1.64-67.44-9.63-73.81,20.66,11.72,24.48,60.4,26.04,81.63,2.67-12.02-1.7-26.78,1.73-39.87,2.94-11.2,11.38-30.42,21.08-37.35-3.94,13.22-4.99,26-3.53,39.85,1.04,9.98,2.18,27.77,8.66,35.33,1.34-14.86,1.34-29.2,9.57-42.61,7.7-12.54,21.28-18.2,30.36-27.03-7.07,13.06-16.33,23.26-21.45,37.74-3.23,9.13-5.56,18.79-7.08,28.35,6.1-10.26,16.89-17.94,24.21-27.66,8.96-11.9,18.2-23.6,29.68-33.2,8.15-6.84,24.38-20.39,35.6-20.34-9.33-.04-26.91,22.46-32.34,29.12-10.53,12.93-30.25,32.77-29.86,50.75,14.52-14.85,25.3-27.76,45.37-36.36,15.77-6.76,31.24-13.05,42.46-26.97-11.52,14.28-17.1,29.83-32.33,41.45-5.81,4.43-11.63,8.29-17.75,12-6.66,4.04-46.29,23.83-41.46,31.86,7.06,11.79,40.51-20.96,46.28-26.21,7.86-7.14,17.31-12.03,27.53-15.13,5.12-1.54,10.44-2.67,15.81-2.8,3.02-.1,13.33,3.17,15.28,2.24-7.88,3.76-18.84,4.45-27.56,7.83-12.03,4.67-23.78,11.14-34.18,18.67-9.09,6.59-15.74,15.4-25.4,21.67-13.32,8.66-31.31,16.06-47.15,18.03-6.03,.75-12.15,.84-18.26,1.23Z"/><path class="cls-1" d="M1676.87,1147.79c-.07-.52-.23-1.03-.45-1.51-2-4.43-7.53-5.75-12.5-5.7-.08,0-.15,.01-.23,.01-.28,.01-.57,.02-.85,.03-5.21,.27-10.84,1.24-15.34-1.41-3.2-1.89-5.37-5.44-8.89-6.65-6.54-2.26-11.26,3.95-16.58,6.33-6.13,2.74-11.79,2.44-18.45,3.31-.19,.03-.38,.09-.57,.12,2.36-2.67,5.85-4.18,8.66-6.45,3.1-2.49,5.26-7.35,2.61-10.32-.77-.86-1.88-1.46-2.38-2.5-2.11-4.39,11.2-6.89,13.29-7.53,1.18-.37,2.36-.82,3.47-1.39,2.17-1.11,4.07-2.68,5.04-4.88,.13-.3,.23-.6,.3-.92,.8-3.23-1.13-7.24-4.45-7.35-1.52-.05-3.14,.67-4.49-.02-2.24-1.15-1.19-4.52,.73-6.27,.16-.14,.32-.27,.49-.39,2.54-1.78,5.71-2.59,8.04-4.63,2.34-2.04,3.35-6.23,.82-8.03-.91-.65-2.07-.83-3.19-.93-6.56-.62-13.2,.72-19.13,3.57-4.65,2.22-8.86,5.37-12.26,9.22-1.88,2.12-3.51,4.46-4.82,6.97-.31,.57-.59,1.15-.86,1.74-2.08,4.58-3.48,9.93-7.64,12.76-2.45,1.66-5.49,2.15-8.35,2.93-3,.82-5.85,2.06-8.55,3.58-1.59-2.68-5.57-5.37-7.01-8.33-1.97-4.05,1.36-7.63,5.33-9.51,3.97-1.88,8.85-2.94,11.63-5.84,.12-.13,.24-.25,.35-.38,.9-1.03,1.53-2.16,1.94-3.37,3.05-8.78-5.04-21.59,.56-30.26,2.37-3.66,4.17-7.62,5.37-11.78,.01-.03,.02-.06,.02-.09,1.57-5.41,2.13-11.16,1.63-17.04-.14-1.59-.59-3.5-2.43-4.46-6.45-3.38-7.78,9.85-8.74,12.18-2.48,5.96-9.58,9.26-15.17,13.37-12.86,9.45-16.33,24.95-21.01,38.62-2.35,6.86-4.71,13.77-5.17,21.17-7.29-.13-13.18,4.12-13.57,9.82-.33,4.74,2.7,10.26,.47,14.35-1.36,2.48-4.39,3.9-6.87,5.64-.54,.38-1.05,.78-1.54,1.21-1.22,1.03-2.28,2.18-3.24,3.39-.08-.96-.18-1.92-.31-2.87-.72-5.62-2.26-11.01-5.38-15.73-1.73-2.61-3.94-5.04-4.65-8.09-1.17-5.05,2.1-10.02,2.56-15.17,.56-6.2-3.51-12.52-9.38-14.58,.75-8.03-.09-16.12-.92-24.15-1.68-16-2.09-33.58-10.96-47.55-3.86-6.08-9.05-11.74-10.13-18.85-.42-2.78,.53-17.29-5.16-15.64-1.62,.47-2.27,2.38-2.62,4.03-2.3,10.87-1.87,22.29,1.22,32.96,3.66,12.63-8.15,25.62-2.9,37.14,1.79,3.93,5.54,6.54,8.44,9.75,2.9,3.2,5.02,8.03,2.82,11.75-2.19,3.72-8.15,5.46-7.79,9.76,.23,2.74,3.04,4.35,5.09,6.17,3.9,3.46,5.67,9.14,4.43,14.2-2.38-1.47-5.69,.2-6.96,2.7-.36,.69-.58,1.43-.73,2.19-1.76-1.47-3.86-2.49-6.13-2.78-.81-6.95-2.98-13.66-5.14-20.31-4.3-13.27-7.83-28.09-17.87-38.34-4.36-4.46-9.78-8.32-11.98-14.16-.86-2.27-2.67-14.74-7.19-12.32-1.3,.69-1.51,2.42-1.5,3.89,.01,9.62,2.43,19.24,6.98,27.72,5.38,10.05-2.29,23.19,4.24,32.01,2.23,3.01,5.87,4.55,8.91,6.74,1.29,.93,2.51,2.13,3.39,3.48,.13,.18,.23,.35,.34,.53,.98,1.71,1.41,3.6,.79,5.45-1.19,3.54-5.93,6.1-4.85,9.68,.69,2.28,3.36,3.14,5.43,4.31,3.93,2.23,6.46,6.73,6.32,11.24-1.36-.48-2.75,.09-3.82,1.07-1.67-2.88-4.55-5.05-7.83-5.66-2.02-.38-4.26-.26-5.94-1.46-1.88-1.35-2.3-3.75-2.26-6.17,.02-.9,.09-1.8,.18-2.66,.28-2.79,.04-5-.62-6.75-1.73-4.6-6.39-5.97-12.41-6.02-1.92-.01-3.97-.92-4.75-2.67-.17-.37-.27-.75-.34-1.14-.2-1.16-.08-2.42-.3-3.6-.57-2.91-3.58-5.13-6.53-4.81-.88,.1-1.75,.39-2.63,.31-.18-.02-.36-.04-.53-.08-1.64-.33-2.83-1.49-3.83-3.08-2.92-4.6-4.24-12.72-10.18-13.85-4.04-.77-8.22,1.74-12.23,.8-7.04-1.66-10.76-7.55-18.66-4.09-2.38,1.04-6.59,5.09-4.56,8.09,2.04,3.02,9.62-1.1,12.03,2,1.95,2.52,2.22,5.89,3.08,8.96,.87,3.06,2.93,6.33,6.12,6.54,2.04,.14,4.04-1.06,6.07-.78,2.09,.29,3.29,1.74,4.04,3.67,.92,2.33,1.17,5.37,1.52,7.89,.11,.83,.34,1.72,.79,2.4,.28,.41,.63,.74,1.11,.93,1.29,.52,2.68-.29,4.03-.59,5.38-1.2,9.05,5.8,8.51,11.28-.08,.78-.2,1.54-.35,2.28-.13,.64-.29,1.27-.45,1.89-.19-.48-.37-.94-.58-1.38-1.26-2.79-3.08-5.03-7.78-6.87-4.33-1.69-7.23-.23-10.94,.05-1,.08-2.07,.07-3.24-.12-2.66-.41-5.06-1.54-7.45-2.81-4.07-2.18-8.1-4.8-13.31-5.11-2.59-.15-5.12,.58-7.33,1.9-3.01,1.82-5.4,4.74-6.47,8.04-.39,1.21-.62,2.5-.39,3.74,0,.01,.01,.03,.01,.04,.71,3.69,5.12,5.51,8.89,5.33,2.89-.15,5.7-1.06,8.55-1.51,.88-.14,1.77-.24,2.66-.26,3.07-.06,6.07,.98,8.57,2.74,3.41,2.39,5.92,6.12,6.48,10.24,.03,.25,.06,.5,.08,.75,.28,3.61-.3,8.18,2.86,9.94,3.46,1.92,8.01-1.78,11.59-.09,.23,.11,.45,.24,.65,.39,1.49,1.05,2.25,2.97,2.57,4.81,.23,1.35,.3,2.75,.29,4.17-.02,1.62-.14,3.27-.26,4.91-.07,.81-.13,1.62-.17,2.42-.01,.18-.02,.36-.03,.53-.11,2.73,.05,5.32,.93,7.61-1.49-1.59-2.96-3.17-4.39-4.6-1.19-1.18-2.36-2.25-3.52-3.13-.24-.19-.49-.37-.75-.55-.35-.24-.71-.48-1.08-.7-3.91-2.4-8.75-3.6-12.74-1.53-1.64,.85-2.98,2.18-4.56,3.14-1.57,.97-3.59,1.56-5.26,.75-.04-.02-.09-.04-.13-.07-1-.53-1.72-1.48-2.53-2.29-3.36-3.32-9.07-3.59-13.03-1.2-2.85,1.72-3.74,5.07-5.37,7.63-.7,1.09-1.54,2.04-2.72,2.66-1.44,.76-3.17,.57-4.78,.83-5.82,.92-6.64,6.3-8.94,10.57h23.93c.66-.48,1.4-.87,2.24-1.12,2.83-.85,5.51-.28,7.72,1.12h233.55c5.39-1.27,11.27,.17,15.18-5.21,3.38-4.66,1.02-9.92,2.23-15.23,.91-3.99,3.74-7.82,7.74-8.66,7.39-1.55,13.52,7.21,21.06,6.96,1.91-.06,3.95-.87,4.8-2.58,.66-1.33,.48-2.91,.84-4.35,.65-2.57,2.99-4.41,5.49-5.27,2.5-.86,5.19-.93,7.82-1.15,4.2-.36,8.36-1.15,12.4-2.34,1.96-.58,4.13-1.48,4.8-3.41,.22-.63,.25-1.31,.13-1.97Z"/><path class="cls-1" d="M1733.73,1159.36c2.93,.08,5.86,.24,8.78,.57,8.96,1,18.07,1.96,27-.06,10.43-2.36,19.94-6.93,30.11-10.15,17.58-5.57,41.13-.6,51.16,15.77-8.62-19.99-23.94-34.07-46.96-35.32,6.93-6.38,20.45-8.19,29.38-9.2,12.03-1.36,32.81-2.44,43.4,4.15-6.29-7.46-24.29-11.57-33.6-13.18-5.29-.9-11.95-1.35-17.38-1.19-4.97,.14-10.22,2.7-15.14,1.81,12.69-16.88,20.95-35.97,25.16-56.57,2.75-13.49,3-27.46-.32-40.42-1.07,16.92-3.02,32.99-9.02,48.88-2.6,6.9-5.62,12.92-9.11,19.32-4.16,7.65-11.17,15.68-17.24,21.96-4.13,4.29-16.62,10.52-18.41,15.49,5.41-15.09,13.89-28.98,17.58-45.56,4.17-18.77,6.52-37.48,19.28-52.66-15.14,13.3-24.21,35.01-30.55,53.6-2.22,6.52-3.19,30.78-9.66,32.52-1.15-23.23,.6-50.52,9.82-72.25-12.56,23.1-16.06,47.44-22.71,71.74-7.79-10.89-3.33-69.17,8.17-76.1-21.09,12.73-23.85,62.83-24.95,84.68-3.05-12.25,1.1-27.55-2.76-40.87-3.31-11.4-12.5-30.84-22.71-37.62,4.39,13.44,5.79,26.52,4.62,40.79-.84,10.28-1.58,28.58-8.1,36.56-1.75-15.21-2.09-29.93-10.93-43.42-8.27-12.61-22.45-17.95-32.06-26.71,7.63,13.17,17.45,23.32,23.1,38.01,3.56,9.26,6.2,19.1,8.01,28.86-6.56-10.32-17.9-17.84-25.71-27.57-9.56-11.91-19.4-23.61-31.5-33.07-8.59-6.74-25.71-20.1-37.32-19.67,9.65-.36,28.38,22.14,34.16,28.79,11.2,12.91,32.08,32.61,32.11,51.08-15.37-14.75-26.84-27.64-47.8-35.78-16.47-6.4-32.62-12.34-44.57-26.24,12.26,14.26,18.41,30.04,34.44,41.45,6.12,4.35,12.23,8.11,18.65,11.71,6.99,3.92,48.45,22.89,43.66,31.29-7.01,12.34-42.4-20.14-48.5-25.33-8.31-7.06-18.2-11.76-28.85-14.6-5.34-1.41-10.86-2.39-16.42-2.34-3.13,0-13.71,3.71-15.75,2.82,8.24,3.59,19.59,3.93,28.7,7.1,12.55,4.38,24.86,10.63,35.8,18,9.56,6.45,16.65,15.27,26.8,21.38,13.99,8.44,32.78,15.42,49.2,16.91,6.26,.56,12.58,.45,18.92,.65Z"/><path class="cls-1" d="M1049.55,1122.31c-1.88,1.59-3.68,3.23-5.41,4.9-4.05,3.9-7.76,7.95-11.45,11.95-2.55,2.74-5.08,5.46-7.72,8.08-1.37,1.37-2.77,2.71-4.22,4.01-5.25,4.75-11.06,9-18.14,12.29-.01,0-.02,.01-.03,.01-7.83,3.63-15.57,6.54-23.63,9.16-6.78,2.21-38.85,9.65-51.28,18.29h-132.24c-3.14-2.11-6.3-4.19-9.55-6.15-19.5-11.77-47.71-12.24-62.11,5.04,4.26-7.06,9.22-13.19,14.87-18.11,12.05-10.49,27.26-15.45,45.62-12.11-2.69-3.76-6.63-6.96-11.04-9.68-1.82-1.14-3.73-2.19-5.66-3.16-3.82-1.92-7.73-3.56-11.32-4.94-1.61-.63-3.16-1.2-4.6-1.73-1.85-.67-3.88-1.39-6.04-2.11-1.96-.64-4.03-1.29-6.18-1.92-1.79-.53-3.64-1.04-5.52-1.52-2.92-.75-5.9-1.42-8.88-1.95-2.12-.39-4.24-.7-6.32-.93-3.91-.42-7.68-.53-11.13-.18-.82,.07-1.62,.18-2.4,.32-1.67,.28-3.23,.69-4.68,1.24,1.28-1.11,2.86-2.06,4.65-2.85,.81-.37,1.67-.7,2.56-1.01,3.16-1.08,6.78-1.82,10.53-2.31,2.64-.35,5.35-.57,8-.7,2.57-.13,5.1-.17,7.47-.15,2.58,.01,4.99,.08,7.08,.19,.33,.01,.66,.03,.98,.05,2.4,.14,5.02,.42,7.69,.81,4.34,.62,8.82,1.52,12.71,2.59,.91,.25,1.81,.57,2.72,.94,3.06,1.25,6.11,3.04,9.2,4.24,1.78,.69,3.57,1.19,5.37,1.28-1.05-2.13-2.05-4.28-3.01-6.43-1.7-3.79-3.26-7.61-4.69-11.46-5.3-14.2-8.84-28.83-10.74-43.73-.21-1.63-.39-3.27-.56-4.9-.34-3.31-.61-6.63-.79-9.96-.95-17.34,1.09-34.55,7.12-49.53-1.29,17.16-1.8,33.79,.38,50.82,.03,.25,.07,.5,.1,.75,.48,3.63,1.09,7.27,1.84,10.95,1.87,9.19,4.38,17.43,7.36,26.27,.43,1.27,.91,2.57,1.43,3.87,1.3,3.3,2.87,6.68,4.58,10.03,3.21,6.29,6.92,12.48,10.36,17.88,4.09,6.42,17.56,17.56,18.81,24.17-3.77-20.04-11.3-39.46-12.82-60.84-1.71-24.21-1.32-47.83-13.62-70.04,15.37,20.56,22.3,49.75,26.56,74.35,1.49,8.62-1.44,38.68,5.79,42.61,5.22-28.19,7.74-62.18,.65-91.43,10.75,31.87,10.74,62.72,14.42,94.41,10.87-11.19,15.42-83.97,3.21-95.7,22.39,21.53,17.23,83.8,14.86,110.93,5.6-14.18,3.32-34.13,10.03-49.4,5.76-13.07,19.69-34.36,32.69-39.82-7.35,15.26-11.17,30.93-12.19,48.77-.74,12.86-2.93,35.53,3.31,47.14,4.57-18.18,7.43-36.15,19.96-50.23,11.72-13.17,29.11-15.76,41.74-23.82-11.08,14.03-24.19,23.74-33.21,40.19-5.68,10.37-10.4,21.71-14.13,33.19,9.35-10.83,23.79-16.89,34.49-26.65,13.1-11.94,26.5-23.54,42.14-31.78,2.22-1.18,4.89-2.58,7.84-4.05,3.05-1.51,6.4-3.09,9.88-4.55,9.96-4.17,20.99-7.34,28.95-5.1-5.23-1.47-13.62,2.66-21.86,8.15-3.99,2.65-7.95,5.62-11.5,8.43-4.76,3.75-8.78,7.21-11.16,9.2-1.04,.87-2.13,1.76-3.27,2.68-2.4,1.94-5,3.99-7.7,6.15-13.34,10.69-28.98,24.07-33.74,39.68-.52,1.71-.91,3.44-1.15,5.2,2.79-1.89,5.49-3.76,8.13-5.58,16.65-11.52,31.22-21.4,53.42-24.96,3.31-.53,6.6-1.05,9.87-1.6,3.8-.65,7.56-1.35,11.27-2.18,3.67-.81,7.28-1.75,10.81-2.89,6.39-2.07,12.54-4.8,18.32-8.64,2.02-1.33,4-2.8,5.92-4.43Z"/><path class="cls-1" d="M1056.74,1181.16c-10.16,2.06-23.35-.67-34.42,.67-12.71,1.54-25.44,4.71-37.38,9.17h-17.78c7.64-4.21,13.93-8.15,16.42-9.61,10.84-6.35,23.12-9.35,35.97-9.84,6.44-.24,13.03,.1,19.48,1.72,3.58,.87,14.93,8.14,17.71,7.89Z"/><path class="cls-1" d="M786.89,1159.7c-8.38,.85-21.07,2.42-27.36,8.82,4.57,.37,8.84,1.32,12.81,2.79,10.03,3.67,18.2,10.59,24.59,19.69h-8.31c-10.26-4.93-22.42-5.72-32.35-2.47-2.32,.76-4.59,1.6-6.85,2.47h-92.84c-9.59-3.43-19.03-8.21-26.94-13.46-9.78-6.49-16.8-15.7-26.04-22.54-10.58-7.81-22.42-14.5-34.41-19.27-8.7-3.45-19.41-4.04-27.32-7.9,1.96,.95,11.8-2.63,14.75-2.57,5.24,.07,10.49,1.19,15.57,2.76,10.14,3.14,19.64,8.18,27.73,15.61,5.7,5.24,37.7,36.85,45.75,28.38,.34-.36,.65-.8,.9-1.31,1.18-2.4-1.1-5.73-5.16-9.38-10.37-9.33-32.3-20.71-37.14-23.72-1.65-1.02-3.29-2.06-4.9-3.11-4.44-2.9-8.77-5.95-13.11-9.32-9.44-7.33-15.5-16.24-21.5-25.45-.81-1.23-1.61-2.47-2.42-3.71-3.11-4.74-6.31-9.53-10.07-14.17,3.66,4.53,7.69,8.27,11.97,11.49,3.69,2.78,7.58,5.16,11.59,7.33,6.25,3.36,12.81,6.18,19.42,9.09,20.06,8.82,31.34,22.31,46.37,37.8-.22-5.99-2.41-12.16-5.64-18.21-3.77-7.04-8.95-13.94-14.11-20.24-4.46-5.45-8.9-10.45-12.39-14.73-.83-1.02-1.94-2.4-3.25-4.01-5.88-7.17-15.84-18.92-23.66-23.93-2.18-1.4-4.2-2.27-5.91-2.37,2.19,.03,4.6,.61,7.11,1.58,10.03,3.86,21.77,13.82,28.36,19.43,.47,.4,.93,.8,1.39,1.21,8.03,7.02,15.11,15.1,21.83,23.54,2.6,3.26,5.15,6.58,7.68,9.91,1.84,2.43,3.87,4.73,5.98,6.97,6.73,7.15,14.28,13.73,19.27,21.91-1.68-8.19-3.88-16.43-6.63-24.37-.62-1.84-1.29-3.66-1.98-5.46-1.66-4.31-3.62-8.26-5.75-12.01-5.41-9.49-11.91-17.74-17.41-27.55,6.92,6.8,16.14,11.74,23.81,19.16,2.71,2.62,5.23,5.55,7.39,8.98,3.92,6.24,6.27,12.69,7.86,19.31,1.33,5.54,2.14,11.19,2.89,16.94,.37,2.85,.73,5.71,1.14,8.6,1.36-1.87,2.41-4.32,3.21-7.12,1.15-3.96,1.83-8.61,2.25-13.27,.55-6.19,.66-12.39,.84-17.01,.4-9.84-.29-19.16-2.19-28.43-.83-4.05-1.88-8.08-3.19-12.15-.15-.47-.3-.95-.46-1.43,.5,.37,1,.77,1.5,1.2,2.61,2.25,5.17,5.34,7.57,8.88,6.16,9.06,11.29,21.02,13.71,29.06,1.77,5.89,2.17,12.13,2.3,18.32,.01,.54,.02,1.07,.03,1.61,.12,7.73-.02,15.36,1.76,22.13,.06-5.89,.16-13.79,.64-22.45,.03-.76,.08-1.53,.13-2.3,1.43-23.73,5.74-52.3,19.38-61.53-7.43,5.59-10.54,37.52-8.85,59.22,.13,1.67,.28,3.27,.47,4.79,.76,6.28,2.01,11.26,3.74,13.81,.93-4.29,1.77-8.59,2.58-12.88,.41-2.14,.81-4.28,1.21-6.42,3.42-18.35,6.85-36.55,15.01-53.93-5.75,16.1-7.67,35.31-7.54,53.78,.02,2.86,.09,5.71,.2,8.52,.16,3.99,.4,7.92,.71,11.74,2.38-.65,3.82-4.9,4.81-10.22,.57-3.09,1-6.54,1.36-9.85,.61-5.5,1.05-10.63,1.75-13.14,4.02-14.42,9.47-30.65,17.92-43.47,2.05-3.12,4.28-6.04,6.71-8.67,.72-.79,1.46-1.55,2.22-2.29-.75,1-1.45,2.01-2.12,3.04-2.62,4.06-4.64,8.35-6.25,12.82-4.28,11.81-5.69,24.82-7.89,37.84-.87,5.13-2.17,10-3.67,14.73-1.19,3.71-2.5,7.33-3.85,10.91-2.59,6.93-5.31,13.73-7.4,20.8,1.51-5.07,13.06-11.2,16.8-15.52,.41-.47,.82-.95,1.24-1.44,2.88-3.4,5.93-7.24,8.64-11.22,2.14-3.14,4.08-6.36,5.57-9.54,.44-.95,.88-1.89,1.3-2.83,2.32-5.07,4.36-10,6.14-15.46,.15-.46,.3-.92,.44-1.38,5.08-16.2,6.33-32.67,6.72-50.04,3.61,13.4,3.88,27.74,1.78,41.55-1.04,6.81-2.49,13.45-4.36,19.9-1.66,5.8-3.67,11.43-6.03,16.89-.75,1.74-1.53,3.45-2.36,5.15-1.96,4.08-4.13,8.06-6.52,11.92-.77,1.26-1.57,2.51-2.39,3.74,2.64,.57,5.35,.02,8.05-.58,2.06-.46,4.13-.94,6.16-.96,5.1-.05,11.4,.56,16.42,1.6,8.84,1.86,25.97,6.46,32.16,14.26-10.22-7-29.77-6.32-41.07-5.19Z"/><path class="cls-1" d="M1461.05,1142.64c-7.88,3.76-18.84,4.45-27.56,7.83-11.45,4.45-22.65,10.52-32.67,17.6-.51,.35-1.01,.71-1.51,1.07-1.21,.88-2.37,1.79-3.5,2.74-1.19,.98-2.33,1.99-3.46,3.01-5.95,5.43-11.4,11.35-18.44,15.92-.1,.06-.2,.13-.3,.19h-155.43c2.02-1.26,4.14-2.36,6.38-3.3,.58-.26,1.17-.49,1.77-.71,4.21-1.6,8.8-2.65,13.78-3.09-5.02-4.4-13.44-6.29-20.98-7.25-2.72-.35-5.32-.58-7.61-.77-11.66-.93-31.76-1.32-41.84,5.43,4.97-6.28,18.02-10.52,27.36-12.81,1.76-.44,3.38-.8,4.8-1.1,1.74-.36,3.64-.66,5.59-.91,3.76-.51,7.72-.79,11.17-.8,4.8-.03,9.94,2.3,14.67,1.28-4.5-5.71-8.47-11.71-11.92-17.97-1.62-2.93-3.12-5.92-4.5-8.96-3.97-8.7-7.01-17.84-9.18-27.34-.18-.79-.35-1.58-.51-2.38-1.1-5.4-1.79-10.88-1.98-16.34-.23-6.98,.34-13.93,1.87-20.64,.34,3.9,.73,7.74,1.2,11.55,.64,5.2,1.45,10.33,2.52,15.4,1.47,6.87,3.41,13.64,6.11,20.34,2.67,6.64,5.73,12.4,9.25,18.52,.52,.9,1.07,1.8,1.67,2.7,1.52,2.34,3.29,4.69,5.16,6.97,3.31,4.02,6.96,7.85,10.32,11.16,4.09,4.04,16.3,9.71,18.14,14.49-2.97-7.74-6.77-15.11-10.27-22.74-.34-.74-.68-1.48-1.02-2.23-2.67-5.98-5.09-12.16-6.73-18.81-4.46-18.14-7.16-36.27-19.84-50.65,14.93,12.47,24.2,33.31,30.74,51.2,2.3,6.28,3.79,29.87,10.08,31.35,.58-22.65-1.74-49.16-11.14-70.02,12.66,22.08,16.59,45.66,23.58,69.1,7.19-10.73,1.75-66.21-9.27-73.59,20.34,12.07,24.12,60.29,25.68,81.41,2.66-12.02-1.7-26.78,1.73-39.87,2.93-11.21,11.37-30.42,21.08-37.35-3.94,13.22-4.99,26-3.54,39.85,1.05,9.98,2.19,27.77,8.67,35.33,1.34-14.86,1.33-29.21,9.57-42.62,7.69-12.54,21.28-18.19,30.36-27.03-3.44,6.37-7.41,12.05-11.17,17.89-2.44,3.8-4.79,7.66-6.85,11.82-1.27,2.55-2.43,5.21-3.43,8.04-3.22,9.12-5.55,18.78-7.08,28.35,6.1-10.26,16.89-17.94,24.21-27.66,1.24-1.64,2.48-3.28,3.74-4.91,3.24-4.23,6.57-8.41,10.05-12.43,4.59-5.31,9.47-10.36,14.83-14.95,.35-.31,.7-.61,1.06-.91,3.35-2.81,8.06-6.76,13.23-10.43,7.24-5.14,15.37-9.73,21.91-9.9-4.88,.35-11.8,6.36-18.08,12.98-5.89,6.21-11.22,12.96-13.8,16.12-.64,.78-1.31,1.59-2.01,2.43-1.98,2.35-4.18,4.9-6.45,7.59-3.17,3.75-6.47,7.78-9.51,11.98-6.69,9.24-12.1,19.26-11.89,28.75,6.48-6.63,12.22-12.87,18.37-18.51,6.38-5.86,13.19-11.07,21.75-15.4,.34-.17,.68-.34,1.03-.51,1.36-.67,2.77-1.32,4.22-1.94,8.92-3.83,17.76-7.51,25.78-12.5,4.36-2.73,8.49-5.84,12.26-9.58,1.53-1.52,3.01-3.15,4.42-4.89-1.45,1.79-2.8,3.6-4.08,5.42-4.38,6.18-8.03,12.46-12.16,18.46-4.36,6.34-9.25,12.35-16.09,17.57-5.81,4.44-11.64,8.29-17.76,12-.88,.53-2.34,1.34-4.19,2.36-7.2,3.97-20.4,11.13-29.1,17.76-.73,.56-1.43,1.11-2.09,1.66-4.78,3.94-7.58,7.58-6.08,10.08,4.54,7.57,19.96-3.23,31.94-13.33,.45-.37,.89-.74,1.32-1.11,2.53-2.16,4.86-4.25,6.87-6.08,2.84-2.59,5.02-4.66,6.15-5.69,7.87-7.14,17.31-12.03,27.54-15.13,5.12-1.54,10.44-2.67,15.81-2.8,3.02-.1,13.33,3.17,15.28,2.24Z"/><path class="cls-1" d="M1255.76,1153.93c-1.38-.86-2.93-1.59-4.61-2.2-5.22-1.9-11.7-2.71-18.19-2.91-3.96-.13-7.93-.03-11.61,.18-3.29,.2-6.35,.48-8.99,.78-8.93,1.01-22.46,2.82-29.38,9.2,9.42,.51,17.55,3.17,24.45,7.51,2.23,1.39,4.33,2.96,6.3,4.7,1.92,1.67,3.72,3.49,5.4,5.46,2.7,3.12,5.09,6.59,7.2,10.34,.73,1.3,1.43,2.64,2.09,4.01h-.81c-.94-1.17-1.96-2.27-3.05-3.3-11.6-11.02-30.85-13.9-45.79-9.17-10.17,3.22-19.68,7.8-30.11,10.15-8.93,2.03-18.03,1.07-26.99,.07-2.92-.33-5.86-.49-8.79-.57-6.33-.2-12.65-.09-18.91-.65-16.42-1.49-35.21-8.47-49.2-16.91-4.13-2.48-7.74-5.4-11.22-8.44-4.24-3.69-8.29-7.54-12.8-10.93-.91-.69-1.83-1.36-2.78-2-4.69-3.16-9.63-6.12-14.74-8.8-6.8-3.59-13.89-6.7-21.06-9.2-4.8-1.67-10.22-2.55-15.47-3.54-4.73-.89-9.33-1.87-13.23-3.56,2.04,.88,12.62-2.82,15.75-2.82,1.73-.02,3.46,.07,5.18,.23,3.8,.37,7.57,1.14,11.25,2.11,10.64,2.83,20.53,7.53,28.84,14.59h0c1.68,1.44,5.57,4.93,10.47,8.98,5.95,4.91,13.39,10.65,20.18,14.56,7.99,4.58,15.09,6.62,17.84,1.79,.39-.68,.47-1.43,.29-2.23-1.33-6.17-17.95-15.61-30.59-22.2-2.71-1.41-5.23-2.69-7.38-3.78-2.7-1.37-4.82-2.44-5.98-3.09-6.41-3.59-12.53-7.36-18.65-11.71-4.65-3.31-8.47-6.99-11.85-10.9-1.95-2.24-3.74-4.56-5.47-6.93-5.61-7.69-10.47-15.88-17.12-23.62,7.62,8.87,16.96,14.5,27,19.07,2.33,1.06,4.69,2.07,7.09,3.05,3.45,1.4,6.96,2.75,10.48,4.12,13.77,5.35,23.44,12.75,32.82,21.37,.17,.16,.34,.32,.51,.47,4.72,4.38,9.38,9.06,14.47,13.94-.03-18.46-20.91-38.16-32.11-51.07-5.73-6.61-24.21-28.8-33.93-28.8,11.61-.25,28.56,12.98,37.09,19.68,12.1,9.46,21.94,21.16,31.5,33.07,7.8,9.73,19.15,17.24,25.71,27.57-1.81-9.77-4.46-19.61-8.01-28.87-5.65-14.69-15.47-24.84-23.1-38.01,9.6,8.76,23.79,14.11,32.05,26.72,8.85,13.48,9.19,28.21,10.94,43.41,6.51-7.98,7.26-26.27,8.1-36.56,1.17-14.26-.23-27.35-4.62-40.78,10.2,6.78,19.4,26.22,22.71,37.62,3.86,13.32-.3,28.62,2.75,40.87,1.09-21.73,3.84-71.39,24.6-84.45-11.23,7.89-15.52,65.08-7.81,75.87,6.65-24.3,10.14-48.64,22.71-71.74-9.23,21.73-10.98,49.02-9.83,72.25,6.47-1.73,7.44-26,9.66-32.52,6.33-18.59,15.41-40.3,30.55-53.6-12.77,15.19-15.12,33.89-19.29,52.66-3.68,16.58-12.16,30.47-17.57,45.56,1.79-4.97,14.27-11.2,18.41-15.49,6.06-6.29,13.07-14.31,17.23-21.96,3.37-6.18,6.29-12,8.83-18.6,.09-.24,.19-.48,.28-.73,1.05-2.78,1.98-5.57,2.79-8.36,3.87-13.17,5.35-26.55,6.23-40.52,3.32,12.97,3.07,26.93,.32,40.43-1.08,5.26-2.42,10.43-4.03,15.49-1.08,3.39-2.28,6.74-3.61,10.03-4.44,10.99-10.25,21.38-17.52,31.05,4.92,.88,10.18-1.67,15.14-1.81,3.72-.12,8.02,.06,12.07,.48,1.85,.19,3.65,.43,5.31,.71,1.64,.29,3.56,.65,5.64,1.1,7.09,1.51,16.03,4,22.33,7.65,2.3,1.31,4.25,2.79,5.63,4.43Z"/></g></svg>