<?xml version="1.0" encoding="UTF-8"?><svg id="home" xmlns="http://www.w3.org/2000/svg" viewBox="0 0 2083.59 1367.65"><defs><style>.cls-1{fill:#0d2c54;}.cls-2{fill:#0c2b53;}</style></defs><g id="tree"><path class="cls-2" d="M515.09,1.48c-6.42-7.97-78.61,16.4-133.87,71.21-.97,.96,10.39,43.36,9.44,44.34-1.23,1.26-14.79-38.88-16.01-37.59-46.2,49.2-87.9,126.99-51.7,219.83,0,0,96.31-4.02,161.67-135.23,5.46-10.97,10.31-21.13,14.58-30.58,1.1-2.42-41.97,.23-40.94-2.09,1.58-3.61,47.21-12.13,48.63-15.51,36.78-87.8,17.82-102.45,8.21-114.38Z"/><path class="cls-2" d="M339.69,292.7s18.47-147.69-93.06-197.21C135.1,45.96,0,109.04,0,109.04c0,0,23.32,21.59,61.29,46.27,1.03,.67,26.54-22.12,27.6-21.45,1.58,1.02-21.27,25.5-19.64,26.53,27.21,17.04,60.96,34.93,98.48,47.79,1.31,.45,29.16-46.18,30.48-45.74,1.43,.47-23.67,48.01-22.23,48.47,3,.95,6.02,1.88,9.07,2.76,104.93,30.44,154.64,79.04,154.64,79.04Z"/><path class="cls-2" d="M330.35,292.61s81.08-67.02,183.36-12.27c102.28,54.75,75.77,182.07,75.77,182.07,0,0-42.78-19.54-95.09-48.91-1.31-.73,6.09-48.35,4.77-49.1-1.96-1.11-12.65,44.64-14.64,43.51-55.98-32.05-120.17-74.22-154.17-115.3Z"/><path class="cls-2" d="M330.35,292.61s126.42,23.56,128.72,134.44c.58,27.6-1.49,52.21-4.91,73.62-.34,2.13-20.34-32.75-20.7-30.68-.33,1.86,18.98,40.66,18.63,42.45-10.99,57.09-30.92,88.16-30.92,88.16,0,0-32.31-103.61-93.74-142.97-.99-.63,30.7-52.81,29.69-53.42-1.92-1.14-36.56,49.33-38.52,48.32-67.16-34.52-61.41-152.39,11.75-159.93Z"/><path class="cls-2" d="M330.35,292.61s-99.45-31.32-163.11,75.69c-.44,.73,26.16,17.95,25.74,18.68-1.58,2.73-30.1-11.04-31.51-8.35-52.94,101.43,19.57,170.93,19.57,170.93,0,0,27.9-24.31,52.75-59.79,.77-1.1-24.29-20.62-23.52-21.75,1.08-1.58,27.98,15.22,29.04,13.61,14.22-21.76,26.59-47.03,30.83-73.14,12.04-73.91,60.22-115.89,60.22-115.89Z"/><path class="cls-2" d="M324.39,293.51s-68.8-149.41-189.3-123.18c-10.68,2.33-20.47,5.24-29.43,8.64-1.01,.38,15.13,51.91,14.14,52.3-1.31,.52-19.74-50.08-21.01-49.54C13.29,218.2,8.74,299.69,14.83,310.26c6.85,11.91,158.5,14.52,194.74-1.65,1.9-.85-11.81-48.28-9.7-49.03,1.53-.55,18.82,45.56,20.44,45.06,39.03-12.02,104.08-11.14,104.08-11.14Z"/><path class="cls-2" d="M360.12,401.61c-9.45-5.01-39.68-13.01-51.25-3.13-11.57,9.89-17.25,67.28-13.03,72.3,4.23,5.01,48.68,10.03,57.39,.03,8.71-10,6.89-69.2,6.89-69.2Z"/><path class="cls-2" d="M351.11,467.88c-9.45-5.01-39.68-13.01-51.25-3.13-11.57,9.89-17.24,67.28-13.02,72.29,4.23,5.01,48.68,10.03,57.38,.04,8.71-10,6.89-69.2,6.89-69.2Z"/><path class="cls-2" d="M343.04,525.72c-9.45-5.01-39.68-13.01-51.25-3.13-11.58,9.89-17.25,67.28-13.03,72.3,4.22,5.01,48.68,10.03,57.39,.03,8.71-10,6.89-69.2,6.89-69.2Z"/><path class="cls-2" d="M336.17,592.89c-9.11-5.61-38.76-15.55-50.94-6.42-12.18,9.12-21.54,66.03-17.64,71.31,3.89,5.27,47.93,13.13,57.26,3.72,9.34-9.42,11.32-68.6,11.32-68.6Z"/><path class="cls-2" d="M323.38,659.52c-8.94-5.87-38.29-16.67-50.73-7.91-12.45,8.76-23.47,65.37-19.73,70.75,3.73,5.39,47.53,14.55,57.13,5.4,9.61-9.13,13.33-68.24,13.33-68.24Z"/><path class="cls-2" d="M308.43,726.71c-8.94-5.88-38.28-16.68-50.73-7.91-12.45,8.76-23.47,65.37-19.73,70.75,3.74,5.39,47.53,14.54,57.13,5.4,9.61-9.14,13.33-68.24,13.33-68.24Z"/><path class="cls-2" d="M293.97,796.73c-8.57-6.4-37.21-18.94-50.17-10.94-12.95,8-27.33,63.86-23.93,69.44,3.41,5.6,46.57,17.36,56.71,8.82,10.13-8.55,17.38-67.32,17.38-67.32Z"/><path class="cls-2" d="M274.53,863.75c-8.58-6.4-37.22-18.93-50.17-10.93-12.95,8-27.34,63.85-23.93,69.44,3.41,5.6,46.57,17.36,56.71,8.81,10.13-8.55,17.39-67.32,17.39-67.32Z"/><path class="cls-2" d="M260.72,926.42c-9.29-6.94-40.36-20.53-54.39-11.85-14.04,8.67-29.64,69.23-25.94,75.29,3.69,6.07,50.49,18.82,61.48,9.55,10.99-9.26,18.85-72.99,18.85-72.99Z"/><path class="cls-2" d="M246.03,988.45c-9.56-7.14-41.5-21.11-55.93-12.19-14.44,8.92-30.47,71.18-26.68,77.42,3.8,6.25,51.92,19.36,63.22,9.82,11.3-9.52,19.38-75.05,19.38-75.05Z"/></g><g id="bushes"><path class="cls-1" d="M1001.42,1367.64c314.58,.41,629.19-11.61,941.23-36.06,41.02-3.29,81.8-8.61,121.52-15.48,4.06-.7,8.37-1.5,11.13-3.45,3.06-2.16,3.53-5.24,3.84-8.1,8.58-78.36,4.72-157.24-11.51-235.14-4.82-23.15-346.53,52.62-383.92,65.4-48.66,16.63-72.77,8.68-125.87,8.19-15.11-.14-30,2.05-44.69,4.22-74.15,10.96-171.19,39.05-248.21,32.04-.02,0-.04,0-.07,0-19.34-1.77-37.88-5.87-56.75-9.02-130.35-21.7-264.64,2.6-396.63,.69-47.15-.68-108.78,5.38-151.94-7.35-47.3-13.95-74.04-45.8-123.93-57.14-14.29-3.24-29.68-4.47-43.72-8.1-42.88-11.08-65.43-42.12-108.7-52.61-44.12-10.69-96.36,3.24-140.63-7.2-24.29-5.73-43.18-18.2-67.64-23.65-33.33-7.42-72.63,.17-97.19,15.85-44.35,28.33-24.89,57.93-28.53,91.7-5.53,51.37-5.57,103.27-2.98,154.72,2.23,44.41,42.72,54.44,112.29,59.49,279.67,20.3,561.25,30.64,842.87,31Z"/><path class="cls-1" d="M284.74,1075.18c-3.06-1.42-6.17-2.76-9.34-3.93-9.76-3.57-19.63-7.26-27.76-13.93-9.49-7.79-16.87-17.4-25.64-25.95-15.16-14.79-42.03-21.75-60.99-10.01,19.42-16.2,42.62-22.86,66.98-12.32-3.77-10.14-16.74-18.96-25.4-24.59-11.67-7.58-32.49-19.38-46.87-18.02,10.41-4.47,31.11,.55,41.55,3.66,5.92,1.79,13.02,4.74,18.52,7.7,5.04,2.7,9.1,8.04,14.63,9.65-4.16-23.94-2.59-47.88,3.94-71.31,4.29-15.34,11.4-29.88,21.65-41.55-7.82,18.02-14.29,35.59-16.5,55.07-.96,8.46-1.02,16.22-.81,24.62,.24,10.04,3.23,21.92,6.16,31.52,1.99,6.55,11.56,19.39,10.78,25.44,2.39-18.35,.99-37.04,5.93-56.04,5.61-21.51,13.06-42.02,7.93-64.25,8.57,21.51,6.46,48.57,3.17,71.01-1.15,7.87-12.95,33.41-7.21,38.52,13.44-23.38,26.03-52.44,28-79.6,.75,30.29-8.49,57.2-14.46,85.7,13.76-7.24,39.92-69.66,31.73-82.72,14.99,23.97-8.59,77.09-18.98,100.2,9.6-11.07,13.4-29,24.4-40.76,9.42-10.06,29.14-25.4,43.23-27.15-11.61,11.61-19.96,24.39-26.28,39.72-4.56,11.04-13.45,30.31-10.95,41.89,9.82-14.79,17.94-29.81,34.16-39.19,15.16-8.77,32.59-6.99,47.1-11.1-14.8,9.67-30.27,15.1-43.83,27.36-8.55,7.73-16.46,16.52-23.48,25.67,12.2-7.28,27.84-9.21,41.01-15.24,16.12-7.38,32.43-14.39,49.88-17.94,12.4-2.54,37.07-7.54,48.8-1.13-9.74-5.33-40.89,8.26-50.35,12.16-18.35,7.57-50.23,17.17-60,36.21,23.61-7.32,42.21-14.73,68.09-12.36,20.33,1.86,40.09,4.03,59.72-4.18-20.15,8.42-34.8,21.54-57.33,25.08-8.59,1.35-16.87,2.09-25.38,2.5-9.27,.46-61.95-1.27-61.45,9.86,.71,16.34,54.28,1,63.29-1.22,12.28-3.02,24.94-2.79,37.4-.24,6.24,1.28,12.44,3.12,18.14,6.03,3.22,1.61,12.16,10.87,14.72,11-10.38-.53-22.24-6.01-33.29-7.42-15.23-1.93-31.2-1.81-46.35,.18-13.24,1.75-25.2,7.2-38.87,8.29-18.85,1.52-41.88-.93-59.57-7.83-6.74-2.64-13.19-6-19.82-9.05Z"/><path class="cls-1" d="M137.47,1037.21c2.61,.83,5.21,1.73,7.75,2.78,7.81,3.22,15.75,6.43,24.29,6.89,9.97,.54,19.67-1.17,29.62-1.48,17.21-.54,37.13,10.04,42.06,27.49-2.74-20.37-12.99-37.11-33.38-44.16,7.82-4.01,20.44-2.17,28.72-.79,11.16,1.86,30.11,6.22,37.99,14.94-3.78-8.39-18.95-16.76-26.91-20.62-4.54-2.18-10.41-4.31-15.33-5.55-4.5-1.15-9.87-.18-14.07-2.25,15.64-12.06,27.84-27.28,36.79-44.9,5.85-11.55,9.58-24.17,9.84-36.79-5.2,15.09-10.98,29.18-20.35,42.07-4.07,5.6-8.29,10.28-13.03,15.21-5.66,5.88-13.97,11.36-21,15.51-4.79,2.83-17.58,5.28-20.43,9.33,8.64-12.32,19.75-22.75,27.22-36.85,8.45-15.98,15.25-32.36,30.53-42.87-16.94,8.19-30.54,25.57-40.9,40.82-3.63,5.35-10.58,27.14-16.83,27.05,4.78-21.39,13.19-45.73,26.93-63.09-17.08,17.75-26.32,38.95-38.39,59.31-4.27-11.9,14.33-63.67,26.4-67.01-22.15,6.14-37.18,50.92-43.64,70.49,.32-11.91,7.89-24.74,7.76-37.83-.12-11.21-3.52-31.23-11-40.01,.59,13.33-1.43,25.58-6.06,38.23-3.33,9.12-8.58,25.55-16.44,31.12,2.24-14.26,5.61-27.72,1.04-42.24-4.27-13.58-15.69-22.08-22.14-32.51,3.56,13.92,9.85,25.67,11.25,40.47,.88,9.33,.79,18.94-.02,28.28-3.31-11.06-11.63-20.81-16.21-31.65-5.61-13.27-11.53-26.43-20.04-38.14-6.04-8.33-18.08-24.87-28.63-27.47,8.77,2.16,19.97,27.41,23.5,34.94,6.84,14.61,20.68,37.88,16.09,54.65-10.13-17.35-17.21-32.01-34.02-44.8-13.21-10.05-26.24-19.6-33.5-35.3,7.45,16.11,9.03,32.02,20.59,46.51,4.41,5.52,8.97,10.52,13.84,15.43,5.3,5.36,37.83,33.25,31.42,39.66-9.4,9.4-33.08-29.2-37.27-35.48-5.7-8.55-13.42-15.37-22.28-20.68-4.44-2.66-9.17-4.96-14.18-6.35-2.81-.81-13.26-.16-14.87-1.49,6.51,5.38,16.63,8.61,24.03,13.83,10.19,7.21,19.7,16.05,27.68,25.56,6.98,8.32,11.15,18.15,18.74,26.31,10.47,11.26,25.61,22.44,40.01,28.02,5.49,2.12,11.2,3.65,16.85,5.45Z"/><path class="cls-1" d="M1902.35,1130.25c-2.83,.18-5.66,.42-8.47,.83-8.64,1.26-17.41,2.49-26.08,.81-10.13-1.96-19.43-6.11-29.32-8.92-17.11-4.86-39.75,.74-49.07,16.99,7.87-19.74,22.35-33.93,44.56-35.89-6.84-5.99-19.95-7.32-28.6-8.01-11.66-.93-31.75-1.33-41.84,5.43,5.9-7.46,23.21-12.04,32.16-13.91,5.09-1.04,11.52-1.7,16.76-1.71,4.8-.02,9.94,2.3,14.67,1.28-12.65-16.02-21.06-34.34-25.6-54.26-2.96-13.05-3.53-26.63-.62-39.36,1.42,16.44,3.67,32.01,9.83,47.29,2.67,6.63,5.73,12.39,9.25,18.52,4.19,7.32,11.15,14.9,17.15,20.83,4.09,4.04,16.3,9.71,18.14,14.49-5.57-14.52-14.08-27.77-18.02-43.78-4.46-18.14-7.15-36.27-19.83-50.65,14.93,12.47,24.19,33.3,30.74,51.2,2.29,6.28,3.79,29.86,10.07,31.34,.58-22.65-1.73-49.16-11.14-70.02,12.67,22.08,16.6,45.66,23.58,69.1,7.27-10.85,1.64-67.44-9.63-73.81,20.66,11.72,24.48,60.4,26.04,81.63,2.67-12.02-1.7-26.78,1.73-39.87,2.94-11.2,11.38-30.42,21.08-37.35-3.94,13.22-4.99,26-3.53,39.85,1.04,9.98,2.18,27.77,8.66,35.33,1.34-14.86,1.34-29.2,9.57-42.61,7.7-12.54,21.28-18.2,30.36-27.03-7.07,13.06-16.33,23.26-21.45,37.74-3.23,9.13-5.56,18.79-7.08,28.35,6.1-10.26,16.89-17.94,24.21-27.66,8.96-11.9,18.2-23.6,29.68-33.2,8.15-6.84,24.38-20.39,35.6-20.34-9.33-.04-26.91,22.46-32.34,29.12-10.53,12.93-30.25,32.77-29.86,50.75,14.52-14.85,25.3-27.76,45.37-36.36,15.77-6.76,31.24-13.05,42.46-26.97-11.52,14.28-17.1,29.83-32.33,41.45-5.81,4.43-11.63,8.29-17.75,12-6.66,4.04-46.29,23.83-41.46,31.86,7.06,11.79,40.51-20.96,46.28-26.21,7.86-7.14,17.31-12.03,27.53-15.13,5.12-1.54,10.44-2.67,15.81-2.8,3.02-.1,13.33,3.17,15.28,2.24-7.88,3.76-18.84,4.45-27.56,7.83-12.03,4.67-23.78,11.14-34.18,18.67-9.09,6.59-15.74,15.4-25.4,21.67-13.32,8.66-31.31,16.06-47.15,18.03-6.03,.75-12.15,.84-18.26,1.23Z"/><path class="cls-1" d="M1676.42,1146.28c-2.15-4.76-8.36-5.93-13.58-5.66-5.21,.27-10.84,1.24-15.34-1.41-3.21-1.89-5.38-5.43-8.9-6.65-6.53-2.26-11.26,3.96-16.58,6.33-6.14,2.74-11.79,2.44-18.45,3.31-.19,.03-.38,.09-.57,.12,2.36-2.67,5.84-4.18,8.66-6.44,3.1-2.5,5.26-7.36,2.61-10.32-.77-.86-1.87-1.46-2.38-2.5-2.11-4.39,11.2-6.89,13.29-7.53,3.48-1.07,7.04-2.94,8.51-6.27,1.46-3.33-.51-8.15-4.15-8.27-1.52-.05-3.14,.67-4.49-.02-2.42-1.24-1-5.09,1.22-6.66,2.54-1.78,5.7-2.6,8.04-4.63,2.34-2.04,3.34-6.23,.82-8.03-.91-.65-2.07-.82-3.19-.93-15.18-1.42-30.78,7.63-37.07,21.51-2.08,4.58-3.48,9.93-7.64,12.75-2.45,1.67-5.49,2.16-8.35,2.94-3,.82-5.85,2.06-8.55,3.58-1.59-2.68-5.57-5.38-7.01-8.33-1.97-4.05,1.36-7.63,5.33-9.51,3.97-1.88,8.84-2.94,11.63-5.84,8.17-8.48-3.62-24,2.85-34.01,5.46-8.45,7.9-18.47,7.02-28.91-.13-1.59-.59-3.5-2.43-4.47-6.45-3.37-7.78,9.85-8.75,12.18-2.48,5.97-9.58,9.26-15.17,13.37-12.86,9.45-16.32,24.95-21.01,38.63-2.35,6.86-4.71,13.77-5.17,21.17-7.3-.14-13.18,4.12-13.57,9.82-.33,4.74,2.7,10.26,.47,14.35-1.35,2.48-4.38,3.89-6.87,5.64-1.91,1.34-3.44,2.91-4.78,4.6-.56-6.65-2.03-13.08-5.69-18.6-1.73-2.61-3.94-5.04-4.65-8.09-1.17-5.04,2.1-10.01,2.56-15.17,.55-6.2-3.52-12.52-9.39-14.58,.76-8.03-.08-16.12-.92-24.14-1.67-16-2.09-33.58-10.96-47.56-3.86-6.08-9.05-11.74-10.12-18.85-.42-2.77,.53-17.28-5.16-15.64-1.62,.47-2.28,2.38-2.63,4.03-2.29,10.87-1.87,22.29,1.22,32.96,3.66,12.63-8.15,25.62-2.9,37.14,1.79,3.93,5.54,6.54,8.44,9.75,2.9,3.2,5.03,8.04,2.83,11.76-2.19,3.71-8.15,5.46-7.79,9.76,.23,2.74,3.03,4.35,5.09,6.17,3.9,3.46,5.67,9.14,4.43,14.2-2.38-1.47-5.7,.2-6.97,2.7-.35,.7-.57,1.44-.73,2.19-1.75-1.46-3.86-2.49-6.13-2.78-.81-6.95-2.98-13.65-5.13-20.3-4.3-13.27-7.83-28.09-17.87-38.34-4.37-4.46-9.79-8.32-11.98-14.16-.86-2.28-2.67-14.75-7.19-12.33-1.29,.69-1.5,2.43-1.5,3.89,.01,9.63,2.44,19.24,6.98,27.72,5.38,10.05-2.29,23.19,4.24,32.01,2.23,3.01,5.87,4.55,8.91,6.74,3.04,2.19,5.71,5.91,4.52,9.46-1.19,3.54-5.93,6.1-4.85,9.68,.69,2.28,3.36,3.14,5.43,4.32,3.93,2.23,6.46,6.72,6.32,11.24-1.36-.48-2.75,.09-3.82,1.07-1.67-2.88-4.55-5.05-7.83-5.66-2.03-.38-4.27-.26-5.94-1.46-2.58-1.85-2.4-5.67-2.09-8.83,1.01-10.12-4.72-12.71-13.03-12.77-1.92-.01-3.97-.92-4.75-2.68-.16-.36-.27-.74-.33-1.13-.2-1.17-.08-2.42-.31-3.6-.56-2.92-3.57-5.14-6.53-4.81-.88,.1-1.75,.39-2.63,.31-6.95-.6-6.36-15.45-14.54-17.01-4.04-.77-8.22,1.74-12.23,.8-7.04-1.66-10.77-7.55-18.67-4.09-2.38,1.04-6.59,5.1-4.56,8.09,2.05,3.02,9.63-1.1,12.03,2,1.95,2.52,2.22,5.9,3.09,8.96,.86,3.07,2.93,6.33,6.11,6.54,2.05,.14,4.04-1.06,6.08-.78,4.6,.63,4.91,6.97,5.55,11.56,.19,1.33,.66,2.83,1.91,3.33,1.29,.51,2.68-.29,4.03-.59,5.38-1.2,9.05,5.8,8.51,11.28-.14,1.46-.45,2.83-.8,4.17-1.33-3.44-2.91-6.12-8.36-8.25-5.51-2.15-8.68,.79-14.17-.07-7.2-1.13-12.5-7.43-20.77-7.92-6.13-.36-11.95,4.23-13.8,9.94-.39,1.2-.62,2.49-.39,3.73,.69,3.72,5.12,5.56,8.9,5.37,3.78-.19,7.42-1.69,11.21-1.77,7.5-.14,14.55,6.25,15.13,13.73,.28,3.61-.3,8.18,2.86,9.94,3.46,1.92,8.01-1.78,11.59-.09,1.92,.91,2.87,3.11,3.23,5.21,.63,3.65,.07,7.67-.14,11.49-.16,2.93-.03,5.7,.9,8.14-2.73-2.89-5.35-5.77-7.91-7.72-4.15-3.17-9.93-5.18-14.57-2.78-1.64,.85-2.98,2.18-4.56,3.14-1.58,.97-3.6,1.55-5.26,.75-1.07-.52-1.81-1.53-2.66-2.36-3.37-3.32-9.07-3.58-13.03-1.19-4.07,2.46-4.13,8.23-8.09,10.29-1.44,.75-3.17,.57-4.78,.82-7.61,1.2-6.67,10.02-11.67,14.03-3.1,2.49-9.93,5.46-8.72,10.68,1.35,5.86,6.12,2.12,9.26-.37,3.86-3.06,8.18-5.52,12.78-7.28-.37,1.82,2.19,2.91,3.98,2.4,5.28-1.49,6.33-8.43,11.61-10.01,6.06-1.81,11.46,2.86,12.86,8.41,.2,.81,.37,1.68,.95,2.29,.75,.81,1.98,.93,3.09,.89,2.16-.07,4.31-.55,6.3-1.4,1.67-.72,3.33-1.72,5.15-1.68,2.96,.07,5.15,2.9,6.01,5.73,.28,.92,.46,1.86,.62,2.81-1.42,1.22-2.81,2.47-4.02,3.89-2.18,2.57-3.75,5.93-3.21,9.26,.79,4.9,7.97,5.03,7.49,9.76-.2,2.01-1.41,3.72-2.44,5.47-2.56-.35-5.22-.75-7.6,.22-4.62,1.9-6.27,8.25-11,9.87-2.31,.79-4.82,.24-7.24-.09-10.04-1.37-20.38,1.78-28.46,7.78-4.14,3.08-8.91,7.97-11.23,12.6-5.15,10.3,4.54,8.87,11.03,3.64,3.93-3.17,7.1-7.26,11.31-10.04,5.95-3.93,13.78-4.83,20.46-2.37,6.66,2.45,13.75,8.03,19.94,4.55,3.09-1.74,5.87-5.65,9.17-4.35,1.52,.61,2.39,2.17,3.35,3.5,7.5,10.3,24.3,6.27,30.82-2.96,1.9-2.68,3.3-5.84,5.93-7.81,1.37-1.02,2.97-1.63,4.62-2.09h0c.93-.26,1.88-.49,2.81-.7,.85-.19,1.66-.3,2.46-.35,1.59-.11,3.1,.03,4.69,.28,.79,.13,1.61,.28,2.46,.45,2.6,.51,5.33,.66,8.02,.46-.39,.96-.85,1.89-1.5,2.76-5.13,6.83-17.17,3.52-17.3,15.84-.03,2.58,.7,5.26-.18,7.69-1.2,3.29-4.82,4.84-7.79,6.69-2.97,1.85-5.82,5.38-4.3,8.53,.95,1.96,3.27,2.91,4.44,4.75,2.01,3.14-.04,7.19-1.88,10.43-2.4,4.25-4.5,9.14-3.39,13.89s6.9,8.53,11.03,5.93c4.74-2.98,3.05-10.12,4.16-15.61,1.21-6.03,6.92-10.83,13.07-10.99,2.36-.06,4.99,.42,6.88-1.01,1.89-1.43,2.16-4.09,2.71-6.4,2.37-9.89,11.46-10.49,16.46-17.1,4.61-6.09,14.56-4.14,20.82-8.51,2.87-2,4.61-5.24,5.29-8.7,3.34-.52,6.58-1.72,11.3-3.42,7.53-2.72,14.13-3.19,21.09,1.42,4.22,2.87,7.39,7.08,11.6,9.97,8.68,5.1,19.39,6.03,28.49,1.39,6.88-3.51,18.27-11.29,26.42-7.66,2.8,1.25,3.99,4.54,6.23,6.62,3.97,3.68,10.13,2.88,15.54,3.09,7.36,.29,14.41,2.88,21.66,4.16,7.25,1.29,15.37,1.05,21.11-3.56,1.01-2.42-.87-5.22-3.26-6.31-2.38-1.09-5.11-1.01-7.71-1.25-8.1-.76-15.6-5.3-20.53-11.69-3.94-5.1-3.58-15.29-7.73-18.91-.93-.82-2.12-1.28-3.31-1.63-5.02-1.49-10.55-1.25-15.42,.68-1.17,.46-2.35,1.03-3.6,.97-1.8-.08-3.26-1.41-4.51-2.7-3-3.1-5.72-6.47-8.14-10.04-1.58-2.33-3.08-4.82-5.39-6.44-2.4-1.68-4.86-2.23-7.36-2.15,2-6.17,3.51-13.58,8.73-16.42,6.14-3.34,13.68,.07,18.38-6.4,3.38-4.66,1.02-9.92,2.24-15.23,.91-3.99,3.74-7.82,7.74-8.66,7.39-1.55,13.52,7.21,21.06,6.96,1.91-.06,3.95-.87,4.8-2.58,.66-1.33,.48-2.92,.84-4.36,.65-2.56,2.99-4.4,5.49-5.26,2.5-.86,5.19-.93,7.82-1.15,4.2-.36,8.36-1.14,12.39-2.34,1.96-.58,4.13-1.48,4.81-3.41,.39-1.13,.17-2.39-.32-3.48Z"/><path class="cls-1" d="M1733.73,1159.36c2.93,.08,5.86,.24,8.78,.57,8.96,1,18.07,1.96,27-.06,10.43-2.36,19.94-6.93,30.11-10.15,17.58-5.57,41.13-.6,51.16,15.77-8.62-19.99-23.94-34.07-46.96-35.32,6.93-6.38,20.45-8.19,29.38-9.2,12.03-1.36,32.81-2.44,43.4,4.15-6.29-7.46-24.29-11.57-33.6-13.18-5.29-.9-11.95-1.35-17.38-1.19-4.97,.14-10.22,2.7-15.14,1.81,12.69-16.88,20.95-35.97,25.16-56.57,2.75-13.49,3-27.46-.32-40.42-1.07,16.92-3.02,32.99-9.02,48.88-2.6,6.9-5.62,12.92-9.11,19.32-4.16,7.65-11.17,15.68-17.24,21.96-4.13,4.29-16.62,10.52-18.41,15.49,5.41-15.09,13.89-28.98,17.58-45.56,4.17-18.77,6.52-37.48,19.28-52.66-15.14,13.3-24.21,35.01-30.55,53.6-2.22,6.52-3.19,30.78-9.66,32.52-1.15-23.23,.6-50.52,9.82-72.25-12.56,23.1-16.06,47.44-22.71,71.74-7.79-10.89-3.33-69.17,8.17-76.1-21.09,12.73-23.85,62.83-24.95,84.68-3.05-12.25,1.1-27.55-2.76-40.87-3.31-11.4-12.5-30.84-22.71-37.62,4.39,13.44,5.79,26.52,4.62,40.79-.84,10.28-1.58,28.58-8.1,36.56-1.75-15.21-2.09-29.93-10.93-43.42-8.27-12.61-22.45-17.95-32.06-26.71,7.63,13.17,17.45,23.32,23.1,38.01,3.56,9.26,6.2,19.1,8.01,28.86-6.56-10.32-17.9-17.84-25.71-27.57-9.56-11.91-19.4-23.61-31.5-33.07-8.59-6.74-25.71-20.1-37.32-19.67,9.65-.36,28.38,22.14,34.16,28.79,11.2,12.91,32.08,32.61,32.11,51.08-15.37-14.75-26.84-27.64-47.8-35.78-16.47-6.4-32.62-12.34-44.57-26.24,12.26,14.26,18.41,30.04,34.44,41.45,6.12,4.35,12.23,8.11,18.65,11.71,6.99,3.92,48.45,22.89,43.66,31.29-7.01,12.34-42.4-20.14-48.5-25.33-8.31-7.06-18.2-11.76-28.85-14.6-5.34-1.41-10.86-2.39-16.42-2.34-3.13,0-13.71,3.71-15.75,2.82,8.24,3.59,19.59,3.93,28.7,7.1,12.55,4.38,24.86,10.63,35.8,18,9.56,6.45,16.65,15.27,26.8,21.38,13.99,8.44,32.78,15.42,49.2,16.91,6.26,.56,12.58,.45,18.92,.65Z"/><path class="cls-1" d="M674.69,1215.63c1.97-4.83-1.45-10.15-5.23-13.75-3.78-3.6-8.36-7.02-9.53-12.1-.83-3.63,.24-7.64-1.3-11.03-2.86-6.29-10.62-5.45-16-7.67-6.21-2.57-9.88-6.88-15.1-11.11-.15-.12-.33-.21-.48-.33,3.56-.12,7.06,1.36,10.63,1.85,3.94,.53,8.96-1.24,9.29-5.21,.1-1.15-.23-2.36,.18-3.44,1.73-4.55,12.7,3.39,14.61,4.46,3.17,1.79,6.98,3.09,10.4,1.86,3.42-1.23,5.57-5.98,3.15-8.7-1.01-1.13-2.65-1.81-3.08-3.27-.77-2.61,3.01-4.23,5.67-3.69,3.04,.61,5.81,2.35,8.9,2.65,3.09,.3,6.83-1.86,6.39-4.93-.16-1.11-.83-2.07-1.52-2.95-9.41-11.99-26.71-17.09-41.12-12.11-4.75,1.64-9.6,4.3-14.51,3.23-2.9-.63-5.34-2.5-7.87-4.04-2.66-1.61-5.52-2.83-8.48-3.74,.85-3,.07-7.74,1.22-10.82,1.58-4.22,6.47-4.26,10.57-2.67,4.1,1.59,8.22,4.39,12.24,4.42,11.77,.09,14.93-19.14,26.64-21.33,9.89-1.85,18.84-6.98,25.81-14.8,1.06-1.19,2.14-2.84,1.57-4.83-1.99-7-12.5,1.13-14.86,2.03-6.04,2.31-13.31-.58-20.14-1.81-15.71-2.83-29.34,5.32-42.48,11.33-6.59,3.01-13.23,6.06-18.92,10.81-4.92-5.39-12.06-6.73-16.46-3.1-3.67,3.03-5.58,9.02-10.09,10.21-2.73,.72-5.84-.5-8.82-1.11-2.28-.46-4.48-.49-6.63-.3,4.44-4.98,8.1-10.48,9.59-16.93,.71-3.05,.94-6.33,2.67-8.94,2.86-4.32,8.71-5.36,12.77-8.58,4.88-3.86,6.66-11.16,4.12-16.84,6.35-4.98,11.64-11.15,16.89-17.28,10.46-12.22,22.93-24.62,26.97-40.67,1.76-6.98,2.29-14.64,6.71-20.32,1.72-2.21,12.91-11.5,7.8-14.5-1.46-.86-3.29-.02-4.73,.87-9.46,5.81-17.47,13.98-23.08,23.56-6.65,11.35-24.2,11.71-28.95,23.45-1.62,4.01-.94,8.52-1.27,12.83-.33,4.31-2.37,9.18-6.59,10.14-4.2,.96-9.57-2.16-12.44,1.06-1.83,2.05-1.07,5.2-.98,7.94,.17,5.21-2.73,10.4-7.25,12.99-.58-2.74-4.07-4-6.75-3.2-.75,.22-1.44,.57-2.09,.98-.14-2.28-.85-4.52-2.2-6.36,4.49-5.37,7.86-11.55,11.2-17.7,6.67-12.25,15-25.01,15.53-39.35,.23-6.23-.7-12.82,2.03-18.44,1.06-2.19,8.87-12.08,4-13.7-1.39-.46-2.79,.58-3.86,1.59-6.98,6.63-12.29,15-15.31,24.14-3.59,10.82-18.41,14.29-20.31,25.1-.65,3.69,.74,7.39,1.24,11.11,.5,3.71-.36,8.21-3.75,9.79-3.39,1.57-8.51-.11-10.36,3.14-1.18,2.07,.03,4.6,.6,6.91,1.09,4.38-.44,9.31-3.81,12.32-.58-1.32-1.95-1.93-3.41-2.03,.95-3.19,.54-6.78-1.27-9.58-1.12-1.73-2.75-3.27-3.03-5.31-.43-3.15,2.46-5.64,4.97-7.59,8.04-6.23,5.97-12.17,.3-18.24-1.31-1.4-2.06-3.51-1.33-5.29,.15-.37,.36-.71,.59-1.02,.71-.95,1.7-1.72,2.4-2.7,1.73-2.42,1.27-6.13-1-8.05-.67-.57-1.48-1-2.03-1.69-4.35-5.46,6.84-15.24,2.34-22.26-2.22-3.46-6.92-4.77-8.99-8.32-3.64-6.25-1.93-13.01-9.87-16.36-2.39-1.01-8.23-1.28-9.01,2.26-.79,3.57,7.42,6.23,6.83,10.11-.49,3.15-2.75,5.67-4.38,8.41-1.63,2.73-2.58,6.48-.54,8.94,1.31,1.58,3.55,2.21,4.75,3.87,2.71,3.77-1.68,8.36-4.57,11.98-.84,1.05-1.6,2.43-1.11,3.68,.51,1.29,2.05,1.74,3.2,2.51,4.57,3.08,2.02,10.56-2.33,13.94-1.16,.9-2.37,1.62-3.58,2.29,1.58-3.33,2.44-6.32,.23-11.74-2.23-5.48-6.55-5.76-9.7-10.33-4.13-6-3.2-14.19-8.54-20.52-3.96-4.7-11.29-5.76-16.71-3.17-1.14,.54-2.23,1.27-2.98,2.29-2.23,3.06-.51,7.54,2.23,10.15,2.74,2.62,6.33,4.22,8.99,6.92,5.27,5.35,5.48,14.85,.45,20.43-2.42,2.69-6.15,5.41-5.24,8.91,.99,3.83,6.81,4.59,8.04,8.35,.66,2.02-.29,4.22-1.56,5.92-2.22,2.96-5.52,5.33-8.44,7.8-2.23,1.9-4.16,3.9-5.28,6.25,.22-3.96,.5-7.86,.16-11.05-.56-5.19-3.07-10.77-8-12.49-1.75-.61-3.63-.67-5.42-1.14-1.79-.48-3.6-1.54-4.16-3.3-.36-1.14-.14-2.36-.12-3.56,.09-4.72-3.64-9.05-8.1-10.28-4.58-1.26-8.81,2.66-13.03,1.21-1.54-.53-2.6-1.91-3.89-2.91-6.11-4.69-11.87,2.05-18.21,1.19-3.94-.54-10.8-3.45-13.75,1.02-3.32,5.01,2.67,5.9,6.64,6.47,4.87,.7,9.64,2.14,14.08,4.26-1.58,.99-.61,3.59,.99,4.54,4.72,2.81,10.48-1.21,15.25,1.53,5.49,3.15,5.81,10.29,2.74,15.12-.45,.71-.96,1.43-1.01,2.26-.07,1.1,.69,2.08,1.48,2.86,1.54,1.52,3.37,2.75,5.35,3.61,1.67,.72,3.54,1.23,4.76,2.58,1.99,2.2,1.44,5.73-.03,8.3-.48,.83-1.04,1.61-1.62,2.38-1.86-.19-3.72-.34-5.59-.24-3.37,.19-6.88,1.36-8.93,4.05-3.01,3.95,1.83,9.24-1.93,12.15-1.59,1.24-3.67,1.53-5.65,1.99-1.51-2.1-3.05-4.31-5.39-5.36-4.56-2.04-10.3,1.13-14.73-1.19-2.16-1.13-3.49-3.34-4.92-5.32-5.92-8.23-15.32-13.57-25.23-15.3-5.09-.89-11.92-.98-16.86,.52-11.02,3.35-3.31,9.39,4.95,10.5,5,.67,10.15,.16,15.07,1.3,6.94,1.61,12.99,6.67,15.8,13.22,2.8,6.52,3.64,15.5,10.42,17.6,3.39,1.05,8.14,.37,9.46,3.66,.61,1.52,.07,3.23-.23,4.84-2.32,12.53,12.17,21.95,23.35,20.33,3.25-.47,6.51-1.63,9.75-1.07,1.68,.29,3.22,1.04,4.7,1.91h0c.83,.5,1.65,1.02,2.45,1.56,.72,.49,1.36,1,1.95,1.54,1.17,1.08,2.11,2.27,3.02,3.6,.46,.66,.9,1.36,1.37,2.09,1.42,2.24,3.18,4.32,5.19,6.13-.96,.38-1.96,.69-3.04,.81-8.49,.97-14.37-10.04-23.4-1.66-1.89,1.76-3.33,4.13-5.7,5.16-3.21,1.39-6.83-.16-10.21-1.05-3.38-.89-7.9-.52-9.15,2.75-.77,2.04,.14,4.37-.39,6.49-.9,3.62-5.25,4.91-8.86,5.82-4.74,1.18-9.73,3.02-12.42,7.09s-1.44,10.88,3.29,12.08c5.42,1.39,9.44-4.75,14.19-7.72,5.21-3.27,12.62-2.43,16.97,1.92,1.67,1.67,3.13,3.91,5.47,4.3,2.34,.39,4.46-1.25,6.51-2.43,8.81-5.08,15.5,1.1,23.73,.18,7.59-.85,13.02,7.72,20.5,9.26,3.43,.7,6.97-.26,9.95-2.15,2.68,2.06,5.78,3.59,10.26,5.84,7.16,3.59,12.03,8.06,13.47,16.28,.82,5.04-.06,10.24,.74,15.28,2.27,9.8,8.96,18.22,18.6,21.63,7.28,2.58,20.77,5.49,23.74,13.9,1.02,2.89-.55,6.02-.52,9.08,.06,5.41,4.88,9.33,8.45,13.41,4.85,5.54,7.83,12.44,11.88,18.58,4.05,6.15,9.81,11.88,17.11,12.87,2.45-.93,3.19-4.22,2.34-6.7-.85-2.48-2.78-4.4-4.4-6.46-5.02-6.4-6.88-14.97-5.64-22.94,.99-6.37,8.63-13.12,8.41-18.62-.05-1.24-.53-2.42-1.09-3.52-2.37-4.67-6.35-8.51-11.1-10.73-1.14-.53-2.36-1-3.18-1.95-1.18-1.36-1.22-3.34-1.14-5.14,.19-4.31,.76-8.6,1.69-12.82,.61-2.75,1.38-5.56,.96-8.34-.43-2.89-1.73-5.06-3.5-6.82,5.86-2.79,12.27-6.8,17.92-4.96,6.64,2.16,9.36,9.98,17.3,8.93,5.71-.75,7.9-6.08,12.59-8.86,3.52-2.08,8.24-2.67,11.61-.34,6.21,4.29,4.07,14.77,9.44,20.07,1.36,1.34,3.35,2.27,5.17,1.71,1.42-.44,2.44-1.66,3.74-2.39,2.3-1.29,5.25-.86,7.6,.36,2.34,1.22,4.24,3.13,6.22,4.88,3.15,2.8,6.58,5.28,10.23,7.39,1.77,1.02,3.92,1.98,5.78,1.14,1.09-.49,1.85-1.52,2.3-2.62Z"/><path class="cls-1" d="M860.86,1215.13c-3.42-.72-6.86-1.34-10.3-1.76-10.59-1.28-21.33-2.65-31.37-7.63-11.73-5.81-22.02-14.09-33.3-20.89-19.51-11.76-47.71-12.24-62.11,5.04,13.36-22.13,33.52-35.13,60.49-30.22-6.99-9.77-22.41-15.77-32.62-19.51-13.76-5.03-37.73-12.18-51.15-7.05,8.55-7.4,30.17-7.4,41.26-6.78,6.3,.38,14.12,1.68,20.4,3.4,5.75,1.56,11.44,6.17,17.3,6.46-11.94-24.27-18.34-50.01-19.8-76.48-.94-17.33,1.1-34.55,7.12-49.53-1.58,21.07-2,41.34,2.32,62.52,1.87,9.2,4.38,17.43,7.37,26.27,3.56,10.56,10.37,22.37,16.37,31.79,4.09,6.42,17.56,17.56,18.81,24.17-3.77-20.04-11.3-39.46-12.82-60.84-1.71-24.21-1.32-47.83-13.62-70.04,15.37,20.57,22.3,49.75,26.56,74.35,1.49,8.62-1.43,38.68,5.79,42.61,5.22-28.19,7.74-62.18,.65-91.44,10.75,31.87,10.74,62.72,14.42,94.41,10.87-11.19,15.43-83.97,3.22-95.7,22.39,21.53,17.23,83.8,14.86,110.93,5.59-14.18,3.32-34.13,10.03-49.4,5.75-13.07,19.69-34.36,32.69-39.83-7.35,15.26-11.17,30.94-12.19,48.77-.74,12.86-2.93,35.53,3.31,47.14,4.57-18.18,7.43-36.16,19.96-50.23,11.71-13.17,29.1-15.76,41.73-23.82-11.07,14.03-24.18,23.75-33.2,40.2-5.68,10.37-10.4,21.7-14.14,33.19,9.35-10.84,23.79-16.89,34.49-26.65,13.1-11.94,26.5-23.55,42.14-31.78,11.11-5.87,33.24-17.48,46.67-13.7-11.15-3.14-36.69,19.23-44.51,25.78-15.18,12.72-42.75,31.05-45.86,53.71,20.34-13.8,35.82-26.41,61.55-30.55,20.22-3.25,39.98-6.02,56.19-19.74-16.64,14.08-26.42,31.72-46.96,41.24-7.84,3.63-15.57,6.54-23.64,9.15-8.78,2.86-60.14,14.54-55.98,26.2,6.09,17.11,52.65-12.86,60.61-17.52,10.84-6.35,23.12-9.35,35.97-9.84,6.44-.24,13.02,.11,19.48,1.73,3.64,.88,15.32,8.39,17.83,7.87-10.18,2.1-23.43-.66-34.54,.68-15.32,1.86-30.68,6.09-44.62,12.08-12.19,5.25-21.91,14.08-34.72,18.74-17.67,6.44-40.68,9.75-60.02,6.99-7.37-1.06-14.7-2.97-22.1-4.5Z"/><path class="cls-1" d="M694.51,1197.03c2.76,.15,5.54,.37,8.3,.77,8.49,1.22,17.1,2.4,25.45,.51,9.75-2.2,18.55-6.7,28.02-9.79,16.37-5.35,38.75,.27,48.81,17.3-8.85-20.73-23.81-35.53-45.56-37.3,6.3-6.41,18.99-7.98,27.37-8.82,11.3-1.14,30.84-1.81,41.07,5.19-6.2-7.8-23.33-12.41-32.16-14.27-5.02-1.03-11.32-1.65-16.43-1.59-4.68,.04-9.54,2.55-14.21,1.54,11.35-17.07,18.44-36.52,21.66-57.6,2.1-13.81,1.83-28.16-1.77-41.55-.39,17.37-1.65,33.83-6.72,50.04-2.2,7.03-4.83,13.15-7.89,19.66-3.64,7.78-9.96,15.87-15.45,22.2-3.74,4.32-15.28,10.45-16.79,15.52,4.55-15.39,12.04-29.49,14.91-46.44,3.25-19.2,4.78-38.37,16.26-53.71-13.79,13.35-21.55,35.46-26.85,54.43-1.86,6.65-1.89,31.57-7.92,33.21-1.94-23.89-1.28-51.9,6.63-74.04-11,23.47-13.41,48.41-18.8,73.23-7.74-11.36-5.66-71.15,4.93-78.03-19.42,12.63-20.2,64.06-20.44,86.49-3.32-12.65,.04-28.29-4.09-42.06-3.54-11.79-12.91-31.96-22.78-39.15,4.63,13.9,6.43,27.38,5.85,42.02-.42,10.55-.45,29.34-6.3,37.39-2.2-15.66-3.06-30.8-11.89-44.85-8.25-13.14-21.82-18.93-31.2-28.14,7.68,13.7,17.3,24.34,23.16,39.56,3.69,9.59,6.54,19.76,8.61,29.83-6.56-10.75-17.53-18.72-25.24-28.88-9.45-12.44-19.15-24.67-30.91-34.66-8.35-7.11-24.97-21.21-35.9-21.01,9.08-.16,27.56,23.36,33.25,30.32,11.03,13.51,31.44,34.2,32.14,53.17-15.03-15.48-26.31-28.97-46.37-37.79-15.76-6.93-31.21-13.38-42.97-27.92,12.08,14.92,18.45,31.27,33.98,43.34,5.92,4.6,11.83,8.6,18.01,12.43,6.73,4.18,46.51,24.56,42.3,33.09-6.16,12.53-40.71-21.6-46.65-27.06-8.09-7.44-17.59-12.48-27.73-15.62-5.08-1.56-10.33-2.69-15.57-2.75-2.95-.07-12.79,3.52-14.74,2.56,7.9,3.87,18.61,4.46,27.31,7.91,11.99,4.77,23.83,11.45,34.41,19.27,9.25,6.84,16.26,16.05,26.05,22.54,13.5,8.97,31.46,16.54,47,18.43,5.92,.71,11.88,.73,17.86,1.07Z"/><path class="cls-1" d="M1308.5,1210.07c-2.83,.18-5.66,.42-8.47,.83-8.64,1.26-17.41,2.49-26.08,.81-10.13-1.96-19.43-6.11-29.32-8.92-17.11-4.86-39.75,.74-49.07,16.99,7.87-19.74,22.35-33.93,44.56-35.89-6.84-5.99-19.95-7.32-28.6-8.01-11.66-.93-31.75-1.33-41.84,5.43,5.9-7.46,23.21-12.04,32.16-13.91,5.09-1.04,11.52-1.7,16.76-1.71,4.8-.02,9.94,2.3,14.67,1.28-12.65-16.02-21.06-34.34-25.6-54.26-2.96-13.05-3.53-26.63-.62-39.36,1.42,16.44,3.67,32.01,9.83,47.29,2.67,6.63,5.73,12.39,9.25,18.52,4.19,7.32,11.15,14.9,17.15,20.83,4.09,4.04,16.3,9.71,18.14,14.49-5.57-14.52-14.08-27.77-18.02-43.78-4.46-18.14-7.15-36.27-19.83-50.65,14.93,12.47,24.19,33.3,30.74,51.2,2.29,6.28,3.79,29.86,10.07,31.34,.58-22.65-1.73-49.16-11.14-70.02,12.67,22.08,16.6,45.66,23.58,69.1,7.27-10.85,1.64-67.44-9.63-73.81,20.66,11.72,24.48,60.4,26.04,81.63,2.67-12.02-1.7-26.78,1.73-39.87,2.94-11.2,11.38-30.42,21.08-37.35-3.94,13.22-4.99,26-3.53,39.85,1.04,9.98,2.18,27.77,8.66,35.33,1.34-14.86,1.34-29.2,9.57-42.61,7.7-12.54,21.28-18.2,30.36-27.03-7.07,13.06-16.33,23.26-21.45,37.74-3.23,9.13-5.56,18.79-7.08,28.35,6.1-10.26,16.89-17.94,24.21-27.66,8.96-11.9,18.2-23.6,29.68-33.2,8.15-6.84,24.38-20.39,35.6-20.34-9.33-.04-26.91,22.46-32.34,29.12-10.53,12.93-30.25,32.77-29.86,50.75,14.52-14.85,25.3-27.76,45.37-36.36,15.77-6.76,31.24-13.05,42.46-26.97-11.52,14.28-17.1,29.83-32.33,41.45-5.81,4.43-11.63,8.29-17.75,12-6.66,4.04-46.29,23.83-41.46,31.86,7.06,11.79,40.51-20.96,46.28-26.21,7.86-7.14,17.31-12.03,27.53-15.13,5.12-1.54,10.44-2.67,15.81-2.8,3.02-.1,13.33,3.17,15.28,2.24-7.88,3.76-18.84,4.45-27.56,7.83-12.03,4.67-23.78,11.14-34.18,18.67-9.09,6.59-15.74,15.4-25.4,21.67-13.32,8.66-31.31,16.06-47.15,18.03-6.03,.75-12.15,.84-18.26,1.23Z"/><path class="cls-1" d="M1112.89,1188.18c2.93,.08,5.86,.24,8.78,.57,8.96,1,18.07,1.96,27-.06,10.43-2.36,19.94-6.93,30.11-10.15,17.58-5.57,41.13-.6,51.16,15.77-8.62-19.99-23.94-34.07-46.96-35.32,6.93-6.38,20.45-8.19,29.38-9.2,12.03-1.36,32.81-2.44,43.4,4.15-6.29-7.46-24.29-11.57-33.6-13.18-5.29-.9-11.95-1.35-17.38-1.19-4.97,.14-10.22,2.7-15.14,1.81,12.69-16.88,20.95-35.97,25.16-56.57,2.75-13.49,3-27.46-.32-40.42-1.07,16.92-3.02,32.99-9.02,48.88-2.6,6.9-5.62,12.92-9.11,19.32-4.16,7.65-11.17,15.68-17.24,21.96-4.13,4.29-16.62,10.52-18.41,15.49,5.41-15.09,13.89-28.98,17.58-45.56,4.17-18.77,6.52-37.48,19.28-52.66-15.14,13.3-24.21,35.01-30.55,53.6-2.22,6.52-3.19,30.78-9.66,32.52-1.15-23.23,.6-50.52,9.82-72.25-12.56,23.1-16.06,47.44-22.71,71.74-7.79-10.89-3.33-69.17,8.17-76.1-21.09,12.73-23.85,62.83-24.95,84.68-3.05-12.25,1.1-27.55-2.76-40.87-3.31-11.4-12.5-30.84-22.71-37.62,4.39,13.44,5.79,26.52,4.62,40.79-.84,10.28-1.58,28.58-8.1,36.56-1.75-15.21-2.09-29.93-10.93-43.42-8.27-12.61-22.45-17.95-32.06-26.71,7.63,13.17,17.45,23.32,23.1,38.01,3.56,9.26,6.2,19.1,8.01,28.86-6.56-10.32-17.9-17.84-25.71-27.57-9.56-11.91-19.4-23.61-31.5-33.07-8.59-6.74-25.71-20.1-37.32-19.67,9.65-.36,28.38,22.14,34.16,28.79,11.2,12.91,32.08,32.61,32.11,51.08-15.37-14.75-26.84-27.64-47.8-35.78-16.47-6.4-32.62-12.34-44.57-26.24,12.26,14.26,18.41,30.04,34.44,41.45,6.12,4.35,12.23,8.11,18.65,11.71,6.99,3.92,48.45,22.89,43.66,31.29-7.01,12.34-42.4-20.14-48.5-25.33-8.31-7.06-18.2-11.76-28.85-14.6-5.34-1.41-10.86-2.39-16.42-2.34-3.13,0-13.71,3.71-15.75,2.82,8.24,3.59,19.59,3.93,28.7,7.1,12.55,4.38,24.86,10.63,35.8,18,9.56,6.45,16.65,15.27,26.8,21.38,13.99,8.44,32.78,15.42,49.2,16.91,6.26,.56,12.58,.45,18.92,.65Z"/></g></svg>