<?xml version="1.0" encoding="utf-8"?>
<!-- Generator: Adobe Illustrator 27.0.1, SVG Export Plug-In . SVG Version: 6.00 Build 0)  -->
<svg version="1.1" id="home_copy" xmlns="http://www.w3.org/2000/svg" xmlns:xlink="http://www.w3.org/1999/xlink" x="0px" y="0px"
	 viewBox="0 0 519 678.2" style="enable-background:new 0 0 519 678.2;" xml:space="preserve">
<style type="text/css">
	.st0{fill:#65908A;}
</style>
<path class="st0" d="M421,391.3c-43.8-36.2-55.6-31-110.1-76c-20.1-16.6-51.2-42.6-84.5-83.9c-38.4-47.6-33.5-58.3-71.2-106.2
	c-19.4-24.7-49.5-62.2-96.9-92.8C40.1,20.7,20.8,8.2,0,0v678.2c32.2-11.3,55.9-21.1,93.4-29.8c128.4-29.7,144.6,16.4,264.9-17.9
	c40.3-11.5,154.8-44.1,160.5-107.3C523.1,475.7,464.3,427.1,421,391.3L421,391.3z"/>
</svg>
