<?xml version="1.0" encoding="utf-8"?>
<!-- Generator: Adobe Illustrator 27.0.1, SVG Export Plug-In . SVG Version: 6.00 Build 0)  -->
<svg version="1.1" id="home_copy" xmlns="http://www.w3.org/2000/svg" xmlns:xlink="http://www.w3.org/1999/xlink" x="0px" y="0px"
	 viewBox="0 0 1920 1166.4" style="enable-background:new 0 0 1920 1166.4;" xml:space="preserve">
<style type="text/css">
	.st0{fill:#0D2C54;}
</style>
<g>
	<g id="bushes">
		<path class="st0" d="M174.1,1050.6c-3.1-1.4-6.2-2.8-9.3-3.9c-9.8-3.6-19.6-7.3-27.8-13.9c-9.5-7.8-16.9-17.4-25.6-26
			c-15.2-14.8-42-21.8-61-10c19.4-16.2,42.6-22.9,67-12.3c-3.8-10.1-16.7-19-25.4-24.6c-11.7-7.6-32.5-19.4-46.9-18
			c10.4-4.5,31.1,0.5,41.6,3.7c5.9,1.8,13,4.7,18.5,7.7c5,2.7,9.1,8,14.6,9.7c-4.2-23.9-2.6-47.9,3.9-71.3
			c4.3-15.3,11.4-29.9,21.7-41.5c-7.8,18-14.3,35.6-16.5,55.1c-1,8.5-1,16.2-0.8,24.6c0.2,10,3.2,21.9,6.2,31.5
			c2,6.5,11.6,19.4,10.8,25.4c2.4-18.3,1-37,5.9-56c5.6-21.5,13.1-42,7.9-64.2c8.6,21.5,6.5,48.6,3.2,71c-1.1,7.9-13,33.4-7.2,38.5
			c13.4-23.4,26-52.4,28-79.6c0.8,30.3-8.5,57.2-14.5,85.7c13.8-7.2,39.9-69.7,31.7-82.7c15,24-8.6,77.1-19,100.2
			c9.6-11.1,13.4-29,24.4-40.8c9.4-10.1,29.1-25.4,43.2-27.2c-11.6,11.6-20,24.4-26.3,39.7c-4.6,11-13.5,30.3-11,41.9
			c9.8-14.8,17.9-29.8,34.2-39.2c15.2-8.8,32.6-7,47.1-11.1c-14.8,9.7-30.3,15.1-43.8,27.4c-8.5,7.7-16.5,16.5-23.5,25.7
			c12.2-7.3,27.8-9.2,41-15.2c16.1-7.4,32.4-14.4,49.9-17.9c12.4-2.5,37.1-7.5,48.8-1.1c-9.7-5.3-40.9,8.3-50.4,12.2
			c-18.4,7.6-50.2,17.2-60,36.2c23.6-7.3,42.2-14.7,68.1-12.4c20.3,1.9,40.1,4,59.7-4.2c-20.1,8.4-34.8,21.5-57.3,25.1
			c-8.6,1.3-16.9,2.1-25.4,2.5c-9.3,0.5-62-1.3-61.5,9.9c0.7,16.3,54.3,1,63.3-1.2c12.3-3,24.9-2.8,37.4-0.2
			c6.2,1.3,12.4,3.1,18.1,6c3.2,1.6,12.2,10.9,14.7,11c-10.4-0.5-22.2-6-33.3-7.4c-15.2-1.9-31.2-1.8-46.4,0.2
			c-13.2,1.8-25.2,7.2-38.9,8.3c-18.9,1.5-41.9-0.9-59.6-7.8C187.2,1057,180.8,1053.6,174.1,1050.6L174.1,1050.6z"/>
		<path class="st0" d="M1566.3,1123.2c-0.1-0.5-0.2-1-0.4-1.5c-2-4.4-7.5-5.8-12.5-5.7c-0.1,0-0.2,0-0.2,0c-0.3,0-0.6,0-0.8,0
			c-5.2,0.3-10.8,1.2-15.3-1.4c-3.2-1.9-5.4-5.4-8.9-6.7c-6.5-2.3-11.3,3.9-16.6,6.3c-6.1,2.7-11.8,2.4-18.4,3.3
			c-0.2,0-0.4,0.1-0.6,0.1c2.4-2.7,5.8-4.2,8.7-6.4c3.1-2.5,5.3-7.3,2.6-10.3c-0.8-0.9-1.9-1.5-2.4-2.5c-2.1-4.4,11.2-6.9,13.3-7.5
			c1.2-0.4,2.4-0.8,3.5-1.4c2.2-1.1,4.1-2.7,5-4.9c0.1-0.3,0.2-0.6,0.3-0.9c0.8-3.2-1.1-7.2-4.4-7.3c-1.5-0.1-3.1,0.7-4.5,0
			c-2.2-1.2-1.2-4.5,0.7-6.3c0.2-0.1,0.3-0.3,0.5-0.4c2.5-1.8,5.7-2.6,8-4.6c2.3-2,3.3-6.2,0.8-8c-0.9-0.7-2.1-0.8-3.2-0.9
			c-6.6-0.6-13.2,0.7-19.1,3.6c-4.7,2.2-8.9,5.4-12.3,9.2c-1.9,2.1-3.5,4.5-4.8,7c-0.3,0.6-0.6,1.2-0.9,1.7
			c-2.1,4.6-3.5,9.9-7.6,12.8c-2.4,1.7-5.5,2.2-8.3,2.9c-3,0.8-5.8,2.1-8.6,3.6c-1.6-2.7-5.6-5.4-7-8.3c-2-4.1,1.4-7.6,5.3-9.5
			s8.8-2.9,11.6-5.8c0.1-0.1,0.2-0.2,0.3-0.4c0.9-1,1.5-2.2,1.9-3.4c3.1-8.8-5-21.6,0.6-30.3c2.4-3.7,4.2-7.6,5.4-11.8
			c0,0,0-0.1,0-0.1c1.6-5.4,2.1-11.2,1.6-17c-0.1-1.6-0.6-3.5-2.4-4.5c-6.4-3.4-7.8,9.8-8.7,12.2c-2.5,6-9.6,9.3-15.2,13.4
			c-12.9,9.4-16.3,24.9-21,38.6c-2.3,6.9-4.7,13.8-5.2,21.2c-7.3-0.1-13.2,4.1-13.6,9.8c-0.3,4.7,2.7,10.3,0.5,14.3
			c-1.4,2.5-4.4,3.9-6.9,5.6c-0.5,0.4-1.1,0.8-1.5,1.2c-1.2,1-2.3,2.2-3.2,3.4c-0.1-1-0.2-1.9-0.3-2.9c-0.7-5.6-2.3-11-5.4-15.7
			c-1.7-2.6-3.9-5-4.7-8.1c-1.2-5.1,2.1-10,2.6-15.2c0.6-6.2-3.5-12.5-9.4-14.6c0.8-8-0.1-16.1-0.9-24.2c-1.7-16-2.1-33.6-11-47.5
			c-3.9-6.1-9.1-11.7-10.1-18.8c-0.4-2.8,0.5-17.3-5.2-15.6c-1.6,0.5-2.3,2.4-2.6,4c-2.3,10.9-1.9,22.3,1.2,33
			c3.7,12.6-8.2,25.6-2.9,37.1c1.8,3.9,5.5,6.5,8.4,9.8c2.9,3.2,5,8,2.8,11.8c-2.2,3.7-8.2,5.5-7.8,9.8c0.2,2.7,3,4.3,5.1,6.2
			c3.9,3.5,5.7,9.1,4.4,14.2c-2.4-1.5-5.7,0.2-7,2.7c-0.4,0.7-0.6,1.4-0.7,2.2c-1.8-1.5-3.9-2.5-6.1-2.8c-0.8-6.9-3-13.7-5.1-20.3
			c-4.3-13.3-7.8-28.1-17.9-38.3c-4.4-4.5-9.8-8.3-12-14.2c-0.9-2.3-2.7-14.7-7.2-12.3c-1.3,0.7-1.5,2.4-1.5,3.9
			c0,9.6,2.4,19.2,7,27.7c5.4,10.1-2.3,23.2,4.2,32c2.2,3,5.9,4.6,8.9,6.7c1.3,0.9,2.5,2.1,3.4,3.5c0.1,0.2,0.2,0.3,0.3,0.5
			c1,1.7,1.4,3.6,0.8,5.4c-1.2,3.5-5.9,6.1-4.8,9.7c0.7,2.3,3.4,3.1,5.4,4.3c3.9,2.2,6.5,6.7,6.3,11.2c-1.4-0.5-2.8,0.1-3.8,1.1
			c-1.7-2.9-4.6-5.1-7.8-5.7c-2-0.4-4.3-0.3-5.9-1.5c-1.9-1.3-2.3-3.8-2.3-6.2c0-0.9,0.1-1.8,0.2-2.7c0.3-2.8,0-5-0.6-6.8
			c-1.7-4.6-6.4-6-12.4-6c-1.9,0-4-0.9-4.8-2.7c-0.2-0.4-0.3-0.8-0.3-1.1c-0.2-1.2-0.1-2.4-0.3-3.6c-0.6-2.9-3.6-5.1-6.5-4.8
			c-0.9,0.1-1.8,0.4-2.6,0.3c-0.2,0-0.4,0-0.5-0.1c-1.6-0.3-2.8-1.5-3.8-3.1c-2.9-4.6-4.2-12.7-10.2-13.8c-4-0.8-8.2,1.7-12.2,0.8
			c-7-1.7-10.8-7.6-18.7-4.1c-2.4,1-6.6,5.1-4.6,8.1c2,3,9.6-1.1,12,2c1.9,2.5,2.2,5.9,3.1,9c0.9,3.1,2.9,6.3,6.1,6.5
			c2,0.1,4-1.1,6.1-0.8c2.1,0.3,3.3,1.7,4,3.7c0.9,2.3,1.2,5.4,1.5,7.9c0.1,0.8,0.3,1.7,0.8,2.4c0.3,0.4,0.6,0.7,1.1,0.9
			c1.3,0.5,2.7-0.3,4-0.6c5.4-1.2,9.1,5.8,8.5,11.3c-0.1,0.8-0.2,1.5-0.3,2.3c-0.1,0.6-0.3,1.3-0.4,1.9c-0.2-0.5-0.4-0.9-0.6-1.4
			c-1.3-2.8-3.1-5-7.8-6.9c-4.3-1.7-7.2-0.2-10.9,0.1c-1,0.1-2.1,0.1-3.2-0.1c-2.7-0.4-5.1-1.5-7.4-2.8c-4.1-2.2-8.1-4.8-13.3-5.1
			c-2.6-0.2-5.1,0.6-7.3,1.9c-3,1.8-5.4,4.7-6.5,8c-0.4,1.2-0.6,2.5-0.4,3.7c0,0,0,0,0,0c0.7,3.7,5.1,5.5,8.9,5.3
			c2.9-0.2,5.7-1.1,8.6-1.5c0.9-0.1,1.8-0.2,2.7-0.3c3.1-0.1,6.1,1,8.6,2.7c3.4,2.4,5.9,6.1,6.5,10.2c0,0.2,0.1,0.5,0.1,0.8
			c0.3,3.6-0.3,8.2,2.9,9.9c3.5,1.9,8-1.8,11.6-0.1c0.2,0.1,0.4,0.2,0.7,0.4c1.5,1.1,2.2,3,2.6,4.8c0.2,1.3,0.3,2.8,0.3,4.2
			c0,1.6-0.1,3.3-0.3,4.9c-0.1,0.8-0.1,1.6-0.2,2.4c0,0.2,0,0.4,0,0.5c-0.1,2.7,0.1,5.3,0.9,7.6c-1.5-1.6-3-3.2-4.4-4.6
			c-1.2-1.2-2.4-2.2-3.5-3.1c-0.2-0.2-0.5-0.4-0.8-0.6c-0.3-0.2-0.7-0.5-1.1-0.7c-3.9-2.4-8.8-3.6-12.7-1.5c-1.6,0.8-3,2.2-4.6,3.1
			c-1.6,1-3.6,1.6-5.3,0.8c0,0-0.1,0-0.1-0.1c-1-0.5-1.7-1.5-2.5-2.3c-3.4-3.3-9.1-3.6-13-1.2c-2.8,1.7-3.7,5.1-5.4,7.6
			c-0.7,1.1-1.5,2-2.7,2.7c-1.4,0.8-3.2,0.6-4.8,0.8c-5.8,0.9-6.6,6.3-8.9,10.6h23.9c0.7-0.5,1.4-0.9,2.2-1.1
			c2.8-0.8,5.5-0.3,7.7,1.1h233.6c5.4-1.3,11.3,0.2,15.2-5.2c3.4-4.7,1-9.9,2.2-15.2c0.9-4,3.7-7.8,7.7-8.7c7.4-1.6,13.5,7.2,21.1,7
			c1.9-0.1,3.9-0.9,4.8-2.6c0.7-1.3,0.5-2.9,0.8-4.3c0.7-2.6,3-4.4,5.5-5.3s5.2-0.9,7.8-1.2c4.2-0.4,8.4-1.2,12.4-2.3
			c2-0.6,4.1-1.5,4.8-3.4C1566.4,1124.5,1566.4,1123.8,1566.3,1123.2L1566.3,1123.2z"/>
		<path class="st0" d="M1623.1,1134.7c2.9,0.1,5.9,0.2,8.8,0.6c9,1,18.1,2,27-0.1c10.4-2.4,19.9-6.9,30.1-10.2
			c17.6-5.6,41.1-0.6,51.2,15.8c-8.6-20-23.9-34.1-47-35.3c6.9-6.4,20.4-8.2,29.4-9.2c12-1.4,32.8-2.4,43.4,4.2
			c-6.3-7.5-24.3-11.6-33.6-13.2c-5.3-0.9-11.9-1.3-17.4-1.2c-5,0.1-10.2,2.7-15.1,1.8c12.7-16.9,20.9-36,25.2-56.6
			c2.8-13.5,3-27.5-0.3-40.4c-1.1,16.9-3,33-9,48.9c-2.6,6.9-5.6,12.9-9.1,19.3c-4.2,7.7-11.2,15.7-17.2,22
			c-4.1,4.3-16.6,10.5-18.4,15.5c5.4-15.1,13.9-29,17.6-45.6c4.2-18.8,6.5-37.5,19.3-52.7c-15.1,13.3-24.2,35-30.6,53.6
			c-2.2,6.5-3.2,30.8-9.7,32.5c-1.2-23.2,0.6-50.5,9.8-72.2c-12.6,23.1-16.1,47.4-22.7,71.7c-7.8-10.9-3.3-69.2,8.2-76.1
			c-21.1,12.7-23.8,62.8-24.9,84.7c-3.1-12.2,1.1-27.6-2.8-40.9c-3.3-11.4-12.5-30.8-22.7-37.6c4.4,13.4,5.8,26.5,4.6,40.8
			c-0.8,10.3-1.6,28.6-8.1,36.6c-1.8-15.2-2.1-29.9-10.9-43.4c-8.3-12.6-22.4-17.9-32.1-26.7c7.6,13.2,17.4,23.3,23.1,38
			c3.6,9.3,6.2,19.1,8,28.9c-6.6-10.3-17.9-17.8-25.7-27.6c-9.6-11.9-19.4-23.6-31.5-33.1c-8.6-6.7-25.7-20.1-37.3-19.7
			c9.7-0.4,28.4,22.1,34.2,28.8c11.2,12.9,32.1,32.6,32.1,51.1c-15.4-14.8-26.8-27.6-47.8-35.8c-16.5-6.4-32.6-12.3-44.6-26.2
			c12.3,14.3,18.4,30,34.4,41.4c6.1,4.3,12.2,8.1,18.7,11.7c7,3.9,48.4,22.9,43.7,31.3c-7,12.3-42.4-20.1-48.5-25.3
			c-8.3-7.1-18.2-11.8-28.8-14.6c-5.3-1.4-10.9-2.4-16.4-2.3c-3.1,0-13.7,3.7-15.8,2.8c8.2,3.6,19.6,3.9,28.7,7.1
			c12.6,4.4,24.9,10.6,35.8,18c9.6,6.4,16.7,15.3,26.8,21.4c14,8.4,32.8,15.4,49.2,16.9C1610.5,1134.7,1616.8,1134.5,1623.1,1134.7
			L1623.1,1134.7z"/>
		<path class="st0" d="M587.2,1046.9c-2-7-12.5,1.1-14.8,2c-0.4,0.2-0.9,0.3-1.3,0.4c-0.3,0.1-0.7,0.2-1,0.2
			c-5.5,0.9-11.8-1.4-17.8-2.5c-15.7-2.8-29.3,5.3-42.5,11.3c-2.3,1-4.5,2.1-6.8,3.2c-2.5,1.2-4.9,2.6-7.3,4.1
			c-1.7,1.1-3.3,2.2-4.9,3.6c-4.9-5.4-12-6.7-16.5-3.1c-3.4,2.8-5.3,8.1-9.1,9.8c-0.3,0.2-0.7,0.3-1,0.4c-2.7,0.7-5.8-0.5-8.8-1.1
			c-0.4-0.1-0.8-0.2-1.2-0.2c-1.8-0.3-3.7-0.2-5.4-0.1c1-1.2,2-2.4,3-3.6c0.7-0.9,1.3-1.8,1.9-2.7c2.2-3.3,3.8-6.8,4.7-10.6
			c0.7-3.1,1-6.3,2.7-8.9c2.5-3.7,7.1-5,11-7.3c0.4-0.2,0.8-0.5,1.2-0.8c0.2-0.2,0.4-0.3,0.6-0.5c4.9-3.9,6.7-11.2,4.1-16.8
			c6.3-5,11.7-11.2,16.9-17.3c10.5-12.2,22.9-24.6,27-40.7c1.8-7,2.3-14.6,6.7-20.3c1.7-2.2,12.9-11.5,7.8-14.5
			c-1.5-0.9-3.3,0-4.7,0.9c-9.5,5.8-17.5,14-23.1,23.6c-6.7,11.3-24.2,11.7-29,23.5c-1.6,4-0.9,8.5-1.3,12.8
			c-0.3,4.3-2.4,9.2-6.6,10.1c-4.2,1-9.6-2.2-12.4,1c-1.8,2-1.1,5.2-1,7.9c0.2,5.2-2.7,10.4-7.3,13c-0.6-2.7-4.1-4-6.8-3.2
			c-0.8,0.2-1.4,0.6-2.1,1c-0.1-2.3-0.8-4.5-2.2-6.4c4.5-5.4,7.9-11.5,11.2-17.7c6.7-12.2,15-25,15.5-39.3c0.2-6.2-0.7-12.8,2-18.4
			c1.1-2.2,8.9-12.1,4-13.7c-1.4-0.5-2.8,0.6-3.9,1.6c-7,6.6-12.3,15-15.3,24.1c-3.6,10.8-18.4,14.3-20.3,25.1
			c-0.7,3.7,0.7,7.4,1.2,11.1c0.5,3.7-0.3,8.2-3.8,9.8c-3.4,1.6-8.5-0.1-10.4,3.2c-1.2,2.1,0,4.6,0.6,6.9c1.1,4.4-0.4,9.3-3.8,12.3
			c-0.6-1.3-2-1.9-3.4-2c1-3.2,0.5-6.8-1.3-9.6c-1.1-1.7-2.8-3.3-3-5.3c-0.4-3.2,2.5-5.7,5-7.6c8-6.2,6-12.2,0.3-18.2
			c-1.3-1.4-2-3.5-1.3-5.3c0.2-0.4,0.3-0.7,0.6-1c0.7-0.9,1.7-1.7,2.4-2.7c1.7-2.4,1.3-6.1-1-8c-0.7-0.6-1.5-1-2-1.7
			c-4.4-5.5,6.8-15.2,2.3-22.3c-2.2-3.5-6.9-4.8-9-8.3c-3.6-6.3-1.9-13-9.9-16.4c-2.4-1-8.2-1.3-9,2.2c-0.8,3.6,7.4,6.2,6.8,10.1
			c-0.5,3.2-2.8,5.7-4.4,8.4c-1.6,2.7-2.6,6.5-0.5,8.9c1.3,1.6,3.5,2.2,4.8,3.9c2.7,3.8-1.7,8.4-4.6,12c-0.8,1-1.6,2.4-1.1,3.7
			c0.5,1.3,2.1,1.7,3.2,2.5c4.6,3.1,2,10.6-2.3,13.9c-1.2,0.9-2.4,1.6-3.6,2.3c1.6-3.3,2.4-6.3,0.2-11.7c-2.2-5.5-6.5-5.8-9.7-10.3
			c-4.1-6-3.2-14.2-8.5-20.5c-4-4.7-11.3-5.8-16.7-3.2c-1.1,0.5-2.2,1.3-3,2.3c-2.2,3.1-0.5,7.5,2.2,10.2c2.7,2.6,6.3,4.2,9,6.9
			c5.3,5.3,5.5,14.9,0.5,20.4c-1.5,1.6-3.5,3.3-4.5,5.1c-0.4,0.6-0.6,1.2-0.7,1.8c-0.1,0.6-0.1,1.3,0,1.9c1,3.8,6.8,4.6,8,8.3
			c0.7,2-0.3,4.2-1.6,5.9c-2.2,3-5.5,5.3-8.4,7.8c-2.2,1.9-4.2,3.9-5.3,6.3c0.2-4,0.5-7.9,0.2-11c-0.5-5.2-3.1-10.8-8-12.5
			c-1.8-0.6-3.6-0.7-5.4-1.2c-0.1,0-0.2,0-0.2-0.1c-1.7-0.5-3.4-1.5-3.9-3.2c-0.3-0.9-0.2-1.8-0.1-2.8c0-0.3,0-0.5,0-0.8
			c0.1-4.7-3.6-9-8.1-10.3c-4.6-1.3-8.8,2.7-13,1.2c-1.5-0.5-2.6-1.9-3.9-2.9c-6.1-4.7-11.9,2-18.2,1.2c-0.8-0.1-1.7-0.3-2.6-0.5h0
			c-3.9-0.9-8.7-2-11.1,1.5c-1.4,2.2-1.1,3.6,0,4.5c1.5,1.2,4.4,1.6,6.6,2c4.9,0.7,9.6,2.1,14.1,4.3c-1.6,1-0.6,3.6,1,4.5
			c3.3,1.9,7,0.6,10.6,0.5h0c1.6,0,3.2,0.2,4.6,1c2.9,1.7,4.4,4.4,4.6,7.4c0.2,2.7-0.4,5.4-1.9,7.7c-0.5,0.7-1,1.4-1,2.3
			c-0.1,1.1,0.7,2.1,1.5,2.9c1.5,1.5,3.4,2.8,5.4,3.6c1.7,0.7,3.5,1.2,4.8,2.6c1.2,1.3,1.5,3.1,1.2,4.9c-0.2,1.2-0.6,2.4-1.2,3.4
			c-0.5,0.8-1,1.6-1.6,2.4c-1.9-0.2-3.7-0.3-5.6-0.2c-3.4,0.2-6.9,1.4-8.9,4.1c-1.7,2.3-0.9,5-0.5,7.4c0.2,1.8,0.2,3.5-1.4,4.7
			c-0.9,0.7-1.9,1.1-3,1.4c-0.7,0.2-0.7,0.2,0,0c-0.9,0.2-1.8,0.4-2.7,0.6c-0.1-0.2-0.2-0.3-0.3-0.5c-1.4-1.9-2.9-3.9-5-4.9
			c-4.6-2-10.3,1.1-14.7-1.2c-2.2-1.1-3.5-3.3-4.9-5.3c-1.2-1.7-2.5-3.2-4-4.6c-2.2-2.1-4.6-4-7.3-5.5c-0.1-0.1-0.3-0.2-0.4-0.2
			c-4.2-2.4-8.8-4-13.5-4.9c-5.1-0.9-11.9-1-16.9,0.5c-2,0.6-3.3,1.3-4.2,2c-4.1,3.3,2.4,7.6,9.1,8.5c5,0.7,10.2,0.2,15.1,1.3
			c1.2,0.3,2.4,0.7,3.6,1.2c0.8,0.3,1.5,0.7,2.2,1.1c4.4,2.4,8,6.3,10,11c0.3,0.6,0.5,1.2,0.7,1.8c1.9,5.1,3,11,6.6,14.1
			c0.9,0.8,1.9,1.3,3.1,1.7c2.9,0.9,6.9,0.5,8.8,2.5c0.3,0.3,0.5,0.7,0.7,1.1c0.6,1.5,0.1,3.2-0.2,4.8
			c-2.3,12.5,12.2,21.9,23.4,20.3c3.2-0.5,6.5-1.6,9.8-1.1c1.7,0.3,3.2,1,4.7,1.9c0.8,0.5,1.6,1,2.5,1.6c0.7,0.5,1.4,1,2,1.5
			c1.2,1.1,2.1,2.3,3,3.6c0.5,0.7,0.9,1.4,1.4,2.1c1.4,2.2,3.2,4.3,5.2,6.1c-1,0.4-2,0.7-3,0.8c-8.5,1-14.4-10-23.4-1.7
			c-1.9,1.8-3.3,4.1-5.7,5.2c-3.2,1.4-6.8-0.2-10.2-1.1c-3.4-0.9-7.9-0.5-9.1,2.7c-0.8,2,0.1,4.4-0.4,6.5c-0.9,3.6-5.2,4.9-8.9,5.8
			c-4.7,1.2-9.7,3-12.4,7.1c-2.7,4.1-1.4,10.9,3.3,12.1c5.4,1.4,9.5-4.8,14.2-7.7c5.2-3.3,12.6-2.4,17,1.9c1.7,1.7,3.1,3.9,5.5,4.3
			c2.3,0.4,4.5-1.2,6.5-2.4c8.8-5.1,15.5,1.1,23.7,0.2c7.6-0.8,13,7.7,20.5,9.3c3.4,0.7,7-0.3,10-2.2c2.7,2.1,5.8,3.6,10.2,5.8
			c7.2,3.6,12,8.1,13.5,16.3c0.1,0.5,0.1,0.9,0.2,1.4h63.8c-0.2-0.2-0.4-0.5-0.7-0.7c5.9-2.8,12.3-6.8,17.9-5
			c3.3,1.1,5.7,3.6,8.1,5.7h15.4c2-1.8,3.8-4.1,6.3-5.6c3.5-2.1,8.2-2.7,11.6-0.3c2.1,1.4,3.2,3.5,4,5.9h32.1
			c-0.1-0.4-0.3-0.8-0.4-1.2c-0.8-3.6,0.2-7.6-1.3-11c-2.3-5.2-8-5.5-13-6.7c-1.1-0.2-2.1-0.6-3-0.9c-6.2-2.6-9.9-6.9-15.1-11.1
			c-0.2-0.1-0.3-0.2-0.5-0.3c3.6-0.1,7,1.4,10.6,1.8c1.2,0.2,2.5,0.1,3.7-0.2c1.8-0.4,3.5-1.2,4.5-2.4c0.6-0.7,1-1.6,1.1-2.6
			c0.1-1.2-0.2-2.4,0.2-3.4c1.7-4.6,12.7,3.4,14.6,4.5c3.2,1.8,7,3.1,10.4,1.9c3.4-1.2,5.6-6,3.2-8.7c-1-1.1-2.7-1.8-3.1-3.3
			c-0.8-2.6,3-4.2,5.7-3.7c0.2,0,0.4,0.1,0.5,0.1c1.5,0.4,2.9,1,4.3,1.5c1.3,0.5,2.6,0.9,4,1c3.1,0.3,6.8-1.9,6.4-4.9
			c-0.2-1.1-0.8-2.1-1.5-2.9c-1.9-2.4-4.2-4.6-6.6-6.4c-2.9-2.2-6.1-3.9-9.5-5.2c-4.5-1.6-9.2-2.5-13.9-2.4c-3.8,0-7.5,0.7-11.1,1.9
			c-0.5,0.2-1,0.4-1.6,0.6c-4.3,1.6-8.6,3.6-13,2.7c0,0,0,0-0.1,0c-2.9-0.6-5.3-2.5-7.8-4c-2.7-1.6-5.5-2.8-8.5-3.7
			c0.8-3,0.1-7.7,1.2-10.8c0.2-0.7,0.6-1.2,1-1.7c2.1-2.5,6.2-2.4,9.6-1c1.3,0.5,2.6,1.1,3.9,1.7c2.8,1.3,5.6,2.7,8.4,2.7
			c4.2,0,7.4-2.4,10.2-5.7c2.2-2.6,4.2-5.7,6.4-8.4c2.8-3.5,5.9-6.4,10-7.2c4.7-0.9,9.2-2.5,13.3-4.8c1.9-1,3.7-2.2,5.4-3.5
			c2.5-1.9,4.9-4.1,7-6.5C586.7,1050.6,587.7,1048.9,587.2,1046.9L587.2,1046.9z"/>
		<path class="st0" d="M939,1097.7c-1.9,1.6-3.7,3.2-5.4,4.9c-4.1,3.9-7.8,7.9-11.5,11.9c-2.5,2.7-5.1,5.5-7.7,8.1
			c-1.4,1.4-2.8,2.7-4.2,4c-5.2,4.8-11.1,9-18.1,12.3c0,0,0,0,0,0c-7.8,3.6-15.6,6.5-23.6,9.2c-6.8,2.2-38.8,9.7-51.3,18.3H686.3
			c-6.4-9.1-14.6-16-24.6-19.7c-11.1,0.2-22.4,0.5-33.7,0.5c12-10.5,27.3-15.4,45.6-12.1c-2.7-3.8-6.6-7-11-9.7
			c-1.8-1.1-3.7-2.2-5.7-3.2c-3.8-1.9-7.7-3.6-11.3-4.9c-1.6-0.6-3.2-1.2-4.6-1.7c-1.8-0.7-3.9-1.4-6-2.1c-2-0.6-4-1.3-6.2-1.9
			c-1.8-0.5-3.6-1-5.5-1.5c-2.9-0.8-5.9-1.4-8.9-1.9c-2.1-0.4-4.2-0.7-6.3-0.9c-3.9-0.4-7.7-0.5-11.1-0.2c-0.8,0.1-1.6,0.2-2.4,0.3
			c-1.7,0.3-3.2,0.7-4.7,1.2c1.3-1.1,2.9-2.1,4.7-2.8c0.8-0.4,1.7-0.7,2.6-1c3.2-1.1,6.8-1.8,10.5-2.3c2.6-0.3,5.3-0.6,8-0.7
			c2.6-0.1,5.1-0.2,7.5-0.2c2.6,0,5,0.1,7.1,0.2c0.3,0,0.7,0,1,0.1c2.4,0.1,5,0.4,7.7,0.8c4.3,0.6,8.8,1.5,12.7,2.6
			c0.9,0.2,1.8,0.6,2.7,0.9c3.1,1.2,6.1,3,9.2,4.2c1.8,0.7,3.6,1.2,5.4,1.3c-1-2.1-2-4.3-3-6.4c-1.7-3.8-3.3-7.6-4.7-11.5
			c-5.3-14.2-8.8-28.8-10.7-43.7c-0.2-1.6-0.4-3.3-0.6-4.9c-0.3-3.3-0.6-6.6-0.8-10c-1-17.3,1.1-34.5,7.1-49.5
			c-1.3,17.2-1.8,33.8,0.4,50.8c0,0.2,0.1,0.5,0.1,0.8c0.5,3.6,1.1,7.3,1.8,10.9c1.9,9.2,4.4,17.4,7.4,26.3c0.4,1.3,0.9,2.6,1.4,3.9
			c1.3,3.3,2.9,6.7,4.6,10c3.2,6.3,6.9,12.5,10.4,17.9c4.1,6.4,17.6,17.6,18.8,24.2c-3.8-20-11.3-39.5-12.8-60.8
			c-1.7-24.2-1.3-47.8-13.6-70c15.4,20.6,22.3,49.8,26.6,74.4c1.5,8.6-1.4,38.7,5.8,42.6c5.2-28.2,7.7-62.2,0.7-91.4
			c10.8,31.9,10.7,62.7,14.4,94.4c10.9-11.2,15.4-84,3.2-95.7c22.4,21.5,17.2,83.8,14.9,110.9c5.6-14.2,3.3-34.1,10-49.4
			c5.8-13.1,19.7-34.4,32.7-39.8c-7.3,15.3-11.2,30.9-12.2,48.8c-0.7,12.9-2.9,35.5,3.3,47.1c4.6-18.2,7.4-36.2,20-50.2
			c11.7-13.2,29.1-15.8,41.7-23.8c-11.1,14-24.2,23.7-33.2,40.2c-5.7,10.4-10.4,21.7-14.1,33.2c9.3-10.8,23.8-16.9,34.5-26.7
			c13.1-11.9,26.5-23.5,42.1-31.8c2.2-1.2,4.9-2.6,7.8-4.1c3-1.5,6.4-3.1,9.9-4.6c10-4.2,21-7.3,29-5.1c-5.2-1.5-13.6,2.7-21.9,8.2
			c-4,2.7-8,5.6-11.5,8.4c-4.8,3.8-8.8,7.2-11.2,9.2c-1,0.9-2.1,1.8-3.3,2.7c-2.4,1.9-5,4-7.7,6.2c-13.3,10.7-29,24.1-33.7,39.7
			c-0.5,1.7-0.9,3.4-1.2,5.2c2.8-1.9,5.5-3.8,8.1-5.6c16.7-11.5,31.2-21.4,53.4-25c3.3-0.5,6.6-1.1,9.9-1.6
			c3.8-0.7,7.6-1.3,11.3-2.2c3.7-0.8,7.3-1.8,10.8-2.9c6.4-2.1,12.5-4.8,18.3-8.6C935.1,1100.8,937,1099.3,939,1097.7L939,1097.7z"
			/>
		<path class="st0" d="M946.1,1156.5c-10.2,2.1-23.3-0.7-34.4,0.7c-12.7,1.5-25.4,4.7-37.4,9.2h-17.8c7.6-4.2,13.9-8.2,16.4-9.6
			c10.8-6.3,23.1-9.3,36-9.8c6.4-0.2,13,0.1,19.5,1.7C932,1149.5,943.4,1156.8,946.1,1156.5L946.1,1156.5z"/>
		<path class="st0" d="M686.3,1166.4c-6.4-9.1-14.6-16-24.6-19.7c-11.1,0.2-22.4,0.5-33.7,0.5c-5.7,4.9-10.6,11.1-14.9,18.1
			c14.4-17.3,42.6-16.8,62.1-5c3.2,2,6.4,4,9.5,6.2H686.3L686.3,1166.4z"/>
		<path class="st0" d="M676.3,1135.1c-8.4,0.8-21.1,2.4-27.4,8.8c4.6,0.4,8.8,1.3,12.8,2.8c-11.1,0.2-22.4,0.5-33.7,0.5
			c-5.7,4.9-10.6,11.1-14.9,18.1c14.4-17.3,42.6-16.8,62.1-5c3.2,2,6.4,4,9.5,6.2H678c-10.3-4.9-22.4-5.7-32.3-2.5
			c-2.3,0.8-4.6,1.6-6.8,2.5H546c-9.6-3.4-19-8.2-26.9-13.5c-9.8-6.5-16.8-15.7-26-22.5c-10.6-7.8-22.4-14.5-34.4-19.3
			c-8.7-3.4-19.4-4-27.3-7.9c2,0.9,11.8-2.6,14.8-2.6c5.2,0.1,10.5,1.2,15.6,2.8c10.1,3.1,19.6,8.2,27.7,15.6
			c5.7,5.2,37.7,36.8,45.8,28.4c0.3-0.4,0.7-0.8,0.9-1.3c1.2-2.4-1.1-5.7-5.2-9.4c-10.4-9.3-32.3-20.7-37.1-23.7
			c-1.7-1-3.3-2.1-4.9-3.1c-4.4-2.9-8.8-5.9-13.1-9.3c-9.4-7.3-15.5-16.2-21.5-25.4c-0.8-1.2-1.6-2.5-2.4-3.7
			c-3.1-4.7-6.3-9.5-10.1-14.2c3.7,4.5,7.7,8.3,12,11.5c3.7,2.8,7.6,5.2,11.6,7.3c6.2,3.4,12.8,6.2,19.4,9.1
			c20.1,8.8,31.3,22.3,46.4,37.8c-0.2-6-2.4-12.2-5.6-18.2c-3.8-7-9-13.9-14.1-20.2c-4.5-5.4-8.9-10.4-12.4-14.7
			c-0.8-1-1.9-2.4-3.2-4c-5.9-7.2-15.8-18.9-23.7-23.9c-2.2-1.4-4.2-2.3-5.9-2.4c2.2,0,4.6,0.6,7.1,1.6c10,3.9,21.8,13.8,28.4,19.4
			c0.5,0.4,0.9,0.8,1.4,1.2c8,7,15.1,15.1,21.8,23.5c2.6,3.3,5.2,6.6,7.7,9.9c1.8,2.4,3.9,4.7,6,7c6.7,7.2,14.3,13.7,19.3,21.9
			c-1.7-8.2-3.9-16.4-6.6-24.4c-0.6-1.8-1.3-3.7-2-5.5c-1.7-4.3-3.6-8.3-5.8-12c-5.4-9.5-11.9-17.7-17.4-27.6
			c6.9,6.8,16.1,11.7,23.8,19.2c2.7,2.6,5.2,5.6,7.4,9c3.9,6.2,6.3,12.7,7.9,19.3c1.3,5.5,2.1,11.2,2.9,16.9
			c0.4,2.8,0.7,5.7,1.1,8.6c1.4-1.9,2.4-4.3,3.2-7.1c1.2-4,1.8-8.6,2.2-13.3c0.5-6.2,0.7-12.4,0.8-17c0.4-9.8-0.3-19.2-2.2-28.4
			c-0.8-4.1-1.9-8.1-3.2-12.2c-0.2-0.5-0.3-0.9-0.5-1.4c0.5,0.4,1,0.8,1.5,1.2c2.6,2.2,5.2,5.3,7.6,8.9c6.2,9.1,11.3,21,13.7,29.1
			c1.8,5.9,2.2,12.1,2.3,18.3c0,0.5,0,1.1,0,1.6c0.1,7.7,0,15.4,1.8,22.1c0.1-5.9,0.2-13.8,0.6-22.4c0-0.8,0.1-1.5,0.1-2.3
			c1.4-23.7,5.7-52.3,19.4-61.5c-7.4,5.6-10.5,37.5-8.8,59.2c0.1,1.7,0.3,3.3,0.5,4.8c0.8,6.3,2,11.3,3.7,13.8
			c0.9-4.3,1.8-8.6,2.6-12.9c0.4-2.1,0.8-4.3,1.2-6.4c3.4-18.3,6.8-36.6,15-53.9c-5.8,16.1-7.7,35.3-7.5,53.8c0,2.9,0.1,5.7,0.2,8.5
			c0.2,4,0.4,7.9,0.7,11.7c2.4-0.7,3.8-4.9,4.8-10.2c0.6-3.1,1-6.5,1.4-9.8c0.6-5.5,1-10.6,1.8-13.1c4-14.4,9.5-30.7,17.9-43.5
			c2-3.1,4.3-6,6.7-8.7c0.7-0.8,1.5-1.6,2.2-2.3c-0.8,1-1.5,2-2.1,3c-2.6,4.1-4.6,8.3-6.2,12.8c-4.3,11.8-5.7,24.8-7.9,37.8
			c-0.9,5.1-2.2,10-3.7,14.7c-1.2,3.7-2.5,7.3-3.8,10.9c-2.6,6.9-5.3,13.7-7.4,20.8c1.5-5.1,13.1-11.2,16.8-15.5
			c0.4-0.5,0.8-0.9,1.2-1.4c2.9-3.4,5.9-7.2,8.6-11.2c2.1-3.1,4.1-6.4,5.6-9.5c0.4-0.9,0.9-1.9,1.3-2.8c2.3-5.1,4.4-10,6.1-15.5
			c0.2-0.5,0.3-0.9,0.4-1.4c5.1-16.2,6.3-32.7,6.7-50c3.6,13.4,3.9,27.7,1.8,41.6c-1,6.8-2.5,13.4-4.4,19.9
			c-1.7,5.8-3.7,11.4-6,16.9c-0.8,1.7-1.5,3.4-2.4,5.2c-2,4.1-4.1,8.1-6.5,11.9c-0.8,1.3-1.6,2.5-2.4,3.7c2.6,0.6,5.3,0,8-0.6
			c2.1-0.5,4.1-0.9,6.2-1c5.1-0.1,11.4,0.6,16.4,1.6c8.8,1.9,26,6.5,32.2,14.3C707.2,1133.3,687.6,1133.9,676.3,1135.1L676.3,1135.1
			z"/>
		<path class="st0" d="M1335.2,1115.8c-5.4,0.1-10.7,1.3-15.8,2.8c-10.2,3.1-19.7,8-27.5,15.1c-1.1,1-3.3,3.1-6.2,5.7
			c-2,1.8-4.3,3.9-6.9,6.1c-0.4,0.4-0.9,0.7-1.3,1.1c-12,10.1-27.4,20.9-31.9,13.3c-1.5-2.5,1.3-6.1,6.1-10.1
			c0.7-0.6,1.4-1.1,2.1-1.7c8.7-6.6,21.9-13.8,29.1-17.8c1.8-1,3.3-1.8,4.2-2.4c6.1-3.7,11.9-7.6,17.8-12
			c6.8-5.2,11.7-11.2,16.1-17.6c4.1-6,7.8-12.3,12.2-18.5c1.3-1.8,2.6-3.6,4.1-5.4c-1.4,1.7-2.9,3.4-4.4,4.9
			c-3.8,3.7-7.9,6.8-12.3,9.6c-8,5-16.9,8.7-25.8,12.5c-1.4,0.6-2.9,1.3-4.2,1.9c-0.3,0.2-0.7,0.3-1,0.5
			c-8.6,4.3-15.4,9.5-21.8,15.4c-6.2,5.6-11.9,11.9-18.4,18.5c-0.2-9.5,5.2-19.5,11.9-28.8c3-4.2,6.3-8.2,9.5-12
			c2.3-2.7,4.5-5.2,6.4-7.6c0.7-0.8,1.4-1.7,2-2.4c2.6-3.2,7.9-9.9,13.8-16.1c6.3-6.6,13.2-12.6,18.1-13c-6.5,0.2-14.7,4.8-21.9,9.9
			c-5.2,3.7-9.9,7.6-13.2,10.4c-0.4,0.3-0.7,0.6-1.1,0.9c-5.4,4.6-10.2,9.6-14.8,14.9c-3.5,4-6.8,8.2-10.1,12.4
			c-1.3,1.6-2.5,3.3-3.7,4.9c-7.3,9.7-18.1,17.4-24.2,27.7c1.5-9.6,3.9-19.2,7.1-28.3c1-2.8,2.2-5.5,3.4-8c2.1-4.2,4.4-8,6.8-11.8
			c3.8-5.8,7.7-11.5,11.2-17.9c-9.1,8.8-22.7,14.5-30.4,27c-8.2,13.4-8.2,27.8-9.6,42.6c-6.5-7.6-7.6-25.3-8.7-35.3
			c-1.4-13.8-0.4-26.6,3.5-39.8c-9.7,6.9-18.2,26.1-21.1,37.3c-3.4,13.1,0.9,27.8-1.7,39.9c-1.6-21.1-5.3-69.3-25.7-81.4
			c11,7.4,16.5,62.9,9.3,73.6c-7-23.4-10.9-47-23.6-69.1c9.4,20.9,11.7,47.4,11.1,70c-6.3-1.5-7.8-25.1-10.1-31.3
			c-6.5-17.9-15.8-38.7-30.7-51.2c12.7,14.4,15.4,32.5,19.8,50.7c1.6,6.7,4.1,12.8,6.7,18.8c0.3,0.8,0.7,1.5,1,2.2
			c3.5,7.6,7.3,15,10.3,22.7c-1.8-4.8-14.1-10.4-18.1-14.5c-3.4-3.3-7-7.1-10.3-11.2c-1.9-2.3-3.6-4.6-5.2-7
			c-0.6-0.9-1.2-1.8-1.7-2.7c-3.5-6.1-6.6-11.9-9.2-18.5c-2.7-6.7-4.6-13.5-6.1-20.3c-1.1-5.1-1.9-10.2-2.5-15.4
			c-0.5-3.8-0.9-7.7-1.2-11.6c-1.5,6.7-2.1,13.7-1.9,20.6c0.2,5.5,0.9,10.9,2,16.3c0.2,0.8,0.3,1.6,0.5,2.4
			c2.2,9.5,5.2,18.6,9.2,27.3c1.4,3,2.9,6,4.5,9c3.4,6.3,7.4,12.3,11.9,18c-4.7,1-9.9-1.3-14.7-1.3c-3.4,0-7.4,0.3-11.2,0.8
			c-1.9,0.2-3.8,0.6-5.6,0.9c-1.4,0.3-3,0.7-4.8,1.1c-9.3,2.3-22.4,6.5-27.4,12.8c10.1-6.8,30.2-6.4,41.8-5.4
			c2.3,0.2,4.9,0.4,7.6,0.8c7.5,1,16,2.8,21,7.2c-5,0.4-9.6,1.5-13.8,3.1c-0.6,0.2-1.2,0.4-1.8,0.7c-2.2,0.9-4.4,2-6.4,3.3H1263
			c0.1-0.1,0.2-0.1,0.3-0.2c7-4.6,12.5-10.5,18.4-15.9c1.1-1,2.3-2,3.5-3c1.1-0.9,2.3-1.9,3.5-2.7c0.5-0.4,1-0.7,1.5-1.1
			c10-7.1,21.2-13.2,32.7-17.6c8.7-3.4,19.7-4.1,27.6-7.8C1348.5,1118.9,1338.2,1115.7,1335.2,1115.8L1335.2,1115.8z"/>
		<path class="st0" d="M1139.5,1124.9c-6.3-3.7-15.2-6.1-22.3-7.7c-2.1-0.4-4-0.8-5.6-1.1c-1.7-0.3-3.5-0.5-5.3-0.7
			c-4.1-0.4-8.3-0.6-12.1-0.5c-5,0.1-10.2,2.7-15.1,1.8c7.3-9.7,13.1-20.1,17.5-31.1c1.3-3.3,2.5-6.6,3.6-10
			c1.6-5.1,2.9-10.2,4-15.5c2.8-13.5,3-27.5-0.3-40.4c-0.9,14-2.4,27.4-6.2,40.5c-0.8,2.8-1.7,5.6-2.8,8.4c-0.1,0.2-0.2,0.5-0.3,0.7
			c-2.5,6.6-5.5,12.4-8.8,18.6c-4.2,7.7-11.2,15.7-17.2,22c-4.1,4.3-16.6,10.5-18.4,15.5c5.4-15.1,13.9-29,17.6-45.6
			c4.2-18.8,6.5-37.5,19.3-52.7c-15.1,13.3-24.2,35-30.6,53.6c-2.2,6.5-3.2,30.8-9.7,32.5c-1.2-23.2,0.6-50.5,9.8-72.2
			c-12.6,23.1-16.1,47.4-22.7,71.7c-7.7-10.8-3.4-68,7.8-75.9c-20.8,13.1-23.5,62.7-24.6,84.4c-3.1-12.2,1.1-27.6-2.8-40.9
			c-3.3-11.4-12.5-30.8-22.7-37.6c4.4,13.4,5.8,26.5,4.6,40.8c-0.8,10.3-1.6,28.6-8.1,36.6c-1.8-15.2-2.1-29.9-10.9-43.4
			c-8.3-12.6-22.4-18-32.1-26.7c7.6,13.2,17.4,23.3,23.1,38c3.6,9.3,6.2,19.1,8,28.9c-6.6-10.3-17.9-17.8-25.7-27.6
			c-9.6-11.9-19.4-23.6-31.5-33.1c-8.5-6.7-25.5-19.9-37.1-19.7c9.7,0,28.2,22.2,33.9,28.8c11.2,12.9,32.1,32.6,32.1,51.1
			c-5.1-4.9-9.8-9.6-14.5-13.9c-0.2-0.2-0.3-0.3-0.5-0.5c-9.4-8.6-19-16-32.8-21.4c-3.5-1.4-7-2.7-10.5-4.1c-2.4-1-4.8-2-7.1-3.1
			c-10-4.6-19.4-10.2-27-19.1c6.7,7.7,11.5,15.9,17.1,23.6c1.7,2.4,3.5,4.7,5.5,6.9c3.4,3.9,7.2,7.6,11.8,10.9
			c6.1,4.3,12.2,8.1,18.7,11.7c1.2,0.7,3.3,1.7,6,3.1c2.2,1.1,4.7,2.4,7.4,3.8c12.6,6.6,29.3,16,30.6,22.2c0.2,0.8,0.1,1.6-0.3,2.2
			c-2.8,4.8-9.8,2.8-17.8-1.8c-6.8-3.9-14.2-9.7-20.2-14.6c-4.9-4.1-8.8-7.5-10.5-9l0,0c-8.3-7.1-18.2-11.8-28.8-14.6
			c-3.7-1-7.5-1.7-11.2-2.1c-1.7-0.2-3.5-0.2-5.2-0.2c-3.1,0-13.7,3.7-15.8,2.8c3.9,1.7,8.5,2.7,13.2,3.6c5.2,1,10.7,1.9,15.5,3.5
			c7.2,2.5,14.3,5.6,21.1,9.2c5.1,2.7,10,5.6,14.7,8.8c1,0.6,1.9,1.3,2.8,2c4.5,3.4,8.6,7.2,12.8,10.9c3.5,3,7.1,6,11.2,8.4
			c14,8.4,32.8,15.4,49.2,16.9c6.3,0.6,12.6,0.4,18.9,0.7c2.9,0.1,5.9,0.2,8.8,0.6c9,1,18.1,2,27-0.1c10.4-2.3,19.9-6.9,30.1-10.2
			c14.9-4.7,34.2-1.8,45.8,9.2c1.1,1,2.1,2.1,3.1,3.3h0.8c-0.7-1.4-1.4-2.7-2.1-4c-2.1-3.8-4.5-7.2-7.2-10.3c-1.7-2-3.5-3.8-5.4-5.5
			c-2-1.7-4.1-3.3-6.3-4.7c-6.9-4.3-15-7-24.4-7.5c6.9-6.4,20.4-8.2,29.4-9.2c2.6-0.3,5.7-0.6,9-0.8c3.7-0.2,7.7-0.3,11.6-0.2
			c6.5,0.2,13,1,18.2,2.9c1.7,0.6,3.2,1.3,4.6,2.2C1143.8,1127.7,1141.9,1126.2,1139.5,1124.9L1139.5,1124.9z"/>
	</g>
	<path class="st0" d="M0,1166.4h684.8c-3.1-2.1-6.3-4.2-9.5-6.2c-19.5-11.8-47.7-12.2-62.1,5c4.3-7.1,9.2-13.2,14.9-18.1
		c-28.3,0-56.2-1.5-79.1-8.2c-4.8-1.4-9.3-3-13.7-4.7c-17.1-6.7-31.8-15.6-46.5-24.4c-19.1-11.3-38.4-22.3-63.7-28.1
		c-14.3-3.2-29.7-4.5-43.7-8.1c-11.1-2.9-20.8-7.1-29.9-11.9c-8.2-4.3-15.8-9.2-23.5-14.1c-4.2-2.7-8.4-5.4-12.7-7.9h0
		c-2.8-1.7-5.7-3.4-8.6-5c-8.7-4.8-17.9-9.1-28.4-12.1c0,0,0,0,0,0c-1.9-0.6-3.7-1.1-5.6-1.5c-3-0.7-6.1-1.3-9.2-1.9
		c-0.2,0-0.4-0.1-0.6-0.1c-11.2-1.8-22.8-2.4-34.6-2.3c-21.4,0-43.4,1.8-64.5,1c-0.1,0-0.1,0-0.2,0c-10.8-0.4-21.4-1.5-31.5-3.9
		c-6.9-1.6-13.3-3.8-19.6-6.2c-4.1-1.5-8-3.2-12-4.8h0c-10.5-4.4-21-8.9-32.7-11.8h0c-1.1-0.3-2.2-0.5-3.3-0.8
		c-1.3-0.3-2.6-0.6-3.9-0.8c-19.8-3.7-41.3-2.3-60.4,2.8L0,1166.4L0,1166.4z"/>
	<path class="st0" d="M125.9,1003.3c11.2,1.9,30.1,6.2,38,14.9c-3.8-8.4-19-16.8-26.9-20.6c-4.5-2.2-10.4-4.3-15.3-5.5
		c-4.5-1.2-9.9-0.2-14.1-2.2c15.6-12.1,27.8-27.3,36.8-44.9c5.9-11.5,9.6-24.2,9.8-36.8c-5.2,15.1-11,29.2-20.4,42.1
		c-4.1,5.6-8.3,10.3-13,15.2c-5.7,5.9-14,11.4-21,15.5c-4.8,2.8-17.6,5.3-20.4,9.3c8.6-12.3,19.8-22.8,27.2-36.8
		c8.4-16,15.2-32.4,30.5-42.9c-16.9,8.2-30.5,25.6-40.9,40.8c-3.6,5.3-10.6,27.1-16.8,27c4.8-21.4,13.2-45.7,26.9-63.1
		c-17.1,17.8-26.3,39-38.4,59.3c-4.3-11.9,14.3-63.7,26.4-67c-22.1,6.1-37.2,50.9-43.6,70.5c0.3-11.9,7.9-24.7,7.8-37.8
		c-0.1-11.2-3.5-31.2-11-40c0.6,13.3-1.4,25.6-6.1,38.2c-3.3,9.1-8.6,25.5-16.4,31.1c2.2-14.3,5.6-27.7,1-42.2
		c-4.3-13.6-15.7-22.1-22.1-32.5c3.6,13.9,9.8,25.7,11.2,40.5c0.9,9.3,0.8,18.9,0,28.3C12.1,953.4,4.7,944.2,0,934.3v68.1
		c3.3,1.8,6.7,3.4,10,4.7c5.5,2.1,11.2,3.7,16.8,5.5c2.6,0.8,5.2,1.7,7.8,2.8c7.8,3.2,15.8,6.4,24.3,6.9c10,0.5,19.7-1.2,29.6-1.5
		c17.2-0.5,37.1,10,42.1,27.5c-2.7-20.4-13-37.1-33.4-44.2C105.1,1000.1,117.7,1002,125.9,1003.3L125.9,1003.3z"/>
	<path class="st0" d="M1920,1037c-2.3,0.5-4.6,1.1-6.8,1.7c-10.2,3.1-19.7,8-27.5,15.1c-5.8,5.2-39.2,38-46.3,26.2
		c-4.8-8,34.8-27.8,41.5-31.9c6.1-3.7,11.9-7.6,17.8-12c9.7-7.4,15.5-16.4,21.4-25.7v-5.3c-9.4,7.1-20.4,11.7-31.5,16.5
		c-20.1,8.6-30.8,21.5-45.4,36.4c-0.4-18,19.3-37.8,29.9-50.8c5.4-6.7,23-29.2,32.3-29.1c-11.2,0-27.5,13.5-35.6,20.3
		c-11.5,9.6-20.7,21.3-29.7,33.2c-7.3,9.7-18.1,17.4-24.2,27.7c1.5-9.6,3.9-19.2,7.1-28.3c5.1-14.5,14.4-24.7,21.4-37.7
		c-9.1,8.8-22.7,14.5-30.4,27c-8.2,13.4-8.2,27.8-9.6,42.6c-6.5-7.6-7.6-25.3-8.7-35.3c-1.5-13.8-0.4-26.6,3.5-39.8
		c-9.7,6.9-18.1,26.1-21.1,37.3c-3.4,13.1,0.9,27.8-1.7,39.9c-1.6-21.2-5.4-69.9-26-81.6c11.3,6.4,16.9,63,9.6,73.8
		c-7-23.4-10.9-47-23.6-69.1c9.4,20.9,11.7,47.4,11.1,70c-6.3-1.5-7.8-25.1-10.1-31.3c-6.6-17.9-15.8-38.7-30.7-51.2
		c12.7,14.4,15.4,32.5,19.8,50.6c3.9,16,12.4,29.3,18,43.8c-1.8-4.8-14.1-10.4-18.1-14.5c-6-5.9-13-13.5-17.2-20.8
		c-3.5-6.1-6.6-11.9-9.2-18.5c-6.2-15.3-8.4-30.8-9.8-47.3c-2.9,12.7-2.3,26.3,0.6,39.4c4.5,19.9,12.9,38.2,25.6,54.3
		c-4.7,1-9.9-1.3-14.7-1.3c-5.2,0-11.7,0.7-16.8,1.7c-9,1.9-26.3,6.4-32.2,13.9c10.1-6.8,30.2-6.4,41.8-5.4c8.7,0.7,21.8,2,28.6,8
		c-22.2,1.9-36.7,16.2-44.6,35.9c9.3-16.3,32-21.8,49.1-17c9.9,2.8,19.2,7,29.3,8.9c8.7,1.7,17.4,0.5,26.1-0.8
		c2.8-0.4,5.6-0.7,8.5-0.8c6.1-0.4,12.2-0.5,18.3-1.2c15.8-2,33.8-9.4,47.2-18c9.7-6.3,16.3-15.1,25.4-21.7
		c10.4-7.5,22.2-14,34.2-18.7c1.1-0.4,2.1-0.8,3.3-1.1L1920,1037L1920,1037z"/>
	<path class="st0" d="M1920,1041.4c-5.6,0.5-11.8,1.1-18.4,1.9c0,0,0,0,0,0c-5.1,0.6-10.5,1.3-16.1,2.1h0c-11,1.5-22.8,3.3-35.2,5.4
		c-2.1,0.3-4.3,0.7-6.5,1.1c-8.4,1.4-17.1,2.9-25.9,4.5c-0.5,0.1-1,0.2-1.5,0.3c-3.8,0.7-7.7,1.4-11.5,2.1c-0.9,0.2-1.8,0.3-2.8,0.5
		c-8.4,1.6-16.8,3.2-25.3,4.8c-0.1,0-0.2,0-0.2,0.1c-19.6,3.8-39.4,7.8-58.6,11.9c-3.8,0.8-7.7,1.6-11.5,2.4
		c-6.3,1.3-12.5,2.7-18.6,4c-4.1,0.9-8.2,1.8-12.2,2.7c-50.4,11.1-90.6,21-102.3,25h0c-0.1,0-0.1,0-0.1,0c-2.6,0.9-5.1,1.7-7.6,2.5
		h0c-4.2,1.3-8.3,2.4-12.2,3.3c-0.1,0-0.1,0-0.2,0.1c0,0,0,0,0,0c-36.4,8.6-60.6,2.8-105.9,2.4c-14.1-0.1-28,1.8-41.7,3.8
		c-1,0.1-2,0.3-3,0.4c-0.2,0-0.4,0.1-0.6,0.1c-33.9,5-72.5,13.6-111.8,20.8c-1.6,0.3-3.2,0.6-4.8,0.9c-2.2,0.4-4.4,0.8-6.6,1.2
		c-0.8,0.1-1.6,0.3-2.4,0.4c-8.3,1.4-16.5,2.8-24.8,3.9c-6.3,0.9-12.6,1.8-18.8,2.5c-27.2,3.2-53.8,4.6-78.4,2.3h-0.1
		c-17.4-1.6-34.2-5.1-51.2-8.1c-1.9-0.3-3.7-0.7-5.6-1c-3.7-0.6-7.4-1.2-11.1-1.7c-44.2-6.5-88.9-7.9-133.8-7.1
		c-6,0.1-12.1,0.2-18.1,0.4c-3.9,0.1-7.7,0.2-11.6,0.4c-10.3,0.4-20.6,0.8-30.9,1.4c-20.9,1-41.8,2.3-62.7,3.5
		c-2.3,0.1-4.7,0.2-7,0.4c-40.6,2.2-81.1,4.1-121.5,3.5c-12.3-0.2-25.5,0.1-39.2,0.4c10,3.7,18.2,10.6,24.6,19.7H1920V1041.4
		L1920,1041.4z"/>
</g>
<g id="tree">
	<path class="st0" d="M405.3,1.5c-6.4-8-78.6,16.4-133.9,71.2c-1,1,10.4,43.4,9.4,44.3c-1.2,1.3-14.8-38.9-16-37.6
		c-46.2,49.2-87.9,127-51.7,219.8c0,0,96.3-4,161.7-135.2c5.5-11,10.3-21.1,14.6-30.6c1.1-2.4-42,0.2-40.9-2.1
		c1.6-3.6,47.2-12.1,48.6-15.5C433.9,28.1,414.9,13.4,405.3,1.5L405.3,1.5z"/>
	<path class="st0" d="M219.6,267.6c0,0,81.1-67,183.4-12.3s75.8,182.1,75.8,182.1s-42.8-19.5-95.1-48.9c-1.3-0.7,6.1-48.4,4.8-49.1
		c-2-1.1-12.6,44.6-14.6,43.5C317.8,350.9,253.6,308.7,219.6,267.6L219.6,267.6z"/>
	<path class="st0" d="M219.6,267.6c0,0,126.4,23.6,128.7,134.4c0.6,27.6-1.5,52.2-4.9,73.6c-0.3,2.1-20.3-32.8-20.7-30.7
		c-0.3,1.9,19,40.7,18.6,42.5c-11,57.1-30.9,88.2-30.9,88.2s-32.3-103.6-93.7-143c-1-0.6,30.7-52.8,29.7-53.4
		c-1.9-1.1-36.6,49.3-38.5,48.3C140.7,393,146.4,275.1,219.6,267.6L219.6,267.6z"/>
	<path class="st0" d="M219.6,267.6c0,0-99.5-31.3-163.1,75.7c-0.4,0.7,26.2,18,25.7,18.7c-1.6,2.7-30.1-11-31.5-8.4
		C-2.2,455.1,70.3,524.6,70.3,524.6s27.9-24.3,52.8-59.8c0.8-1.1-24.3-20.6-23.5-21.8c1.1-1.6,28,15.2,29,13.6
		c14.2-21.8,26.6-47,30.8-73.1C171.4,309.6,219.6,267.6,219.6,267.6L219.6,267.6z"/>
	<path class="st0" d="M249.4,376.6c-9.5-5-39.7-13-51.2-3.1c-11.6,9.9-17.2,67.3-13,72.3c4.2,5,48.7,10,57.4,0
		C251.2,435.8,249.4,376.6,249.4,376.6L249.4,376.6z"/>
	<path class="st0" d="M240.4,442.9c-9.5-5-39.7-13-51.2-3.1c-11.6,9.9-17.2,67.3-13,72.3c4.2,5,48.7,10,57.4,0
		C242.2,502.1,240.4,442.9,240.4,442.9L240.4,442.9z"/>
	<path class="st0" d="M232.3,500.7c-9.5-5-39.7-13-51.2-3.1c-11.6,9.9-17.2,67.3-13,72.3c4.2,5,48.7,10,57.4,0
		C234.1,559.9,232.3,500.7,232.3,500.7L232.3,500.7z"/>
	<path class="st0" d="M225.4,567.9c-9.1-5.6-38.8-15.5-50.9-6.4c-12.2,9.1-21.5,66-17.6,71.3c3.9,5.3,47.9,13.1,57.3,3.7
		C223.4,627.1,225.4,567.9,225.4,567.9L225.4,567.9z"/>
	<path class="st0" d="M212.6,634.5c-8.9-5.9-38.3-16.7-50.7-7.9c-12.5,8.8-23.5,65.4-19.7,70.8c3.7,5.4,47.5,14.5,57.1,5.4
		C208.9,693.6,212.6,634.5,212.6,634.5L212.6,634.5z"/>
	<path class="st0" d="M197.7,701.7c-8.9-5.9-38.3-16.7-50.7-7.9c-12.4,8.8-23.5,65.4-19.7,70.8c3.7,5.4,47.5,14.5,57.1,5.4
		C194,760.8,197.7,701.7,197.7,701.7L197.7,701.7z"/>
	<path class="st0" d="M183.2,771.7c-8.6-6.4-37.2-18.9-50.2-10.9c-12.9,8-27.3,63.9-23.9,69.4c3.4,5.6,46.6,17.4,56.7,8.8
		C176,830.5,183.2,771.7,183.2,771.7L183.2,771.7z"/>
	<path class="st0" d="M163.8,838.8c-8.6-6.4-37.2-18.9-50.2-10.9s-27.3,63.8-23.9,69.4c3.4,5.6,46.6,17.4,56.7,8.8
		C156.5,897.5,163.8,838.8,163.8,838.8L163.8,838.8z"/>
	<path class="st0" d="M150,901.4c-9.3-6.9-40.4-20.5-54.4-11.8c-14,8.7-29.6,69.2-25.9,75.3c3.7,6.1,50.5,18.8,61.5,9.5
		C142.1,965.1,150,901.4,150,901.4z"/>
	<path class="st0" d="M135.3,963.5c-9.6-7.1-41.5-21.1-55.9-12.2c-14.4,8.9-30.5,71.2-26.7,77.4c3.8,6.2,51.9,19.4,63.2,9.8
		C127.2,1029,135.3,963.5,135.3,963.5L135.3,963.5z"/>
</g>
<path class="st0" d="M24.3,160.3c-8.7,1.9-16.8,4.2-24.3,6.8v21.2c4.3,14.8,9.6,32.7,9.1,32.9c-0.6,0.2-4.7-9.9-9.1-21v109.7
	c40.5-0.4,82-3.8,98.8-11.3c1.9-0.9-11.8-48.3-9.7-49c1.5-0.6,18.8,45.6,20.4,45.1c39-12,104.1-11.1,104.1-11.1
	S144.8,134.1,24.3,160.3L24.3,160.3z"/>
<path class="st0" d="M202.7,87.3C142.8,21.4,47.3,5.3,0,1.4v51.7c2.8,4.5,5.8,9.3,8.9,14.2c0.7,1,33.2-9.5,33.9-8.5
	c1,1.6-29.8,14.7-28.7,16.3c18,26.6,41.7,56.6,70.8,83.5c1,0.9,45.3-30.5,46.4-29.5c1.1,1-41,34.4-39.9,35.4
	c2.4,2.1,4.8,4.1,7.2,6.2c83.7,70.2,109.6,134.8,109.6,134.8S284.7,177.7,202.7,87.3L202.7,87.3z"/>
</svg>
