<?xml version="1.0" encoding="utf-8"?>
<!-- Generator: Adobe Illustrator 27.0.1, SVG Export Plug-In . SVG Version: 6.00 Build 0)  -->
<svg version="1.1" id="home_copy" xmlns="http://www.w3.org/2000/svg" xmlns:xlink="http://www.w3.org/1999/xlink" x="0px" y="0px"
	 viewBox="0 0 849.5 741" style="enable-background:new 0 0 849.5 741;" xml:space="preserve">
<style type="text/css">
	.st0{fill:#59A0AA;}
</style>
<path class="st0" d="M795.4,182.8c16.6-56.1,55.8-67.7,54-106c-1.7-36.4-38.8-63.1-60.3-76.8H107c-5.6,4.4-11.1,9-16.6,13.8
	C55,44.7,24.9,80.2,0,118.9V741h434.1c10.9-3.7,22.1-7.4,33.4-11.2c162.4-54.7,192.8-104.7,203-136c19.4-59.7-21.5-92.8,6-155
	c31.5-71.3,101-63.2,121-132C812,256.5,778.1,241,795.4,182.8L795.4,182.8z"/>
</svg>
