<?xml version="1.0" encoding="utf-8"?>
<!-- Generator: Adobe Illustrator 27.0.1, SVG Export Plug-In . SVG Version: 6.00 Build 0)  -->
<svg version="1.1" id="email" xmlns="http://www.w3.org/2000/svg" xmlns:xlink="http://www.w3.org/1999/xlink" x="0px" y="0px"
	 viewBox="0 0 69 69" style="enable-background:new 0 0 69 69;" xml:space="preserve">
<style type="text/css">
	.st0{fill:none;stroke:#0B2A54;stroke-width:2.5;stroke-miterlimit:10;}
	.st1{fill:#0B2A54;}
</style>
<g>
	<circle id="outline" class="st0" cx="34.5" cy="34.5" r="33.2"/>
	<g id="mail-w">
		<path class="st1" d="M34.5,35.7l18.4-16c-0.6-0.3-1.2-0.5-1.9-0.5H18c-0.7,0-1.3,0.2-1.9,0.5L34.5,35.7z"/>
		<path class="st1" d="M55,23.2c0-0.8-0.2-1.5-0.6-2.1L40.9,32.7l13.6,15c0.3-0.5,0.5-1.2,0.5-1.8L55,23.2C55,23.2,55,23.2,55,23.2z
			"/>
		<path class="st1" d="M14.6,21c-0.4,0.6-0.6,1.4-0.6,2.1v22.7c0,0.7,0.2,1.3,0.5,1.9l13.4-15.1L14.6,21C14.6,21,14.6,21,14.6,21z"
			/>
		<path class="st1" d="M39.5,34l-5,4.3l-5-4.4L15.9,49.2c0.6,0.4,1.3,0.6,2.1,0.6h33c0.8,0,1.6-0.2,2.2-0.7L39.5,34L39.5,34L39.5,34
			z"/>
	</g>
</g>
</svg>
