<?xml version="1.0" encoding="UTF-8"?><svg id="email" xmlns="http://www.w3.org/2000/svg" viewBox="0 0 69.19 69"><defs><style>.cls-1{fill:#d2d2d1;}</style></defs><path id="g-fill" class="cls-1" d="M34.5,0C15.45,0,0,15.45,0,34.5s15.45,34.5,34.5,34.5,34.5-15.45,34.5-34.5S53.55,0,34.5,0ZM17.99,19.17H51.01c.69,0,1.33,.19,1.9,.5l-18.41,15.99-18.41-15.99c.57-.31,1.21-.5,1.9-.5Zm-4,26.66V23.17c0-.79,.23-1.51,.63-2.13l13.33,11.57-13.44,15.14c-.32-.57-.51-1.22-.51-1.92Zm37.02,4H17.99c-.78,0-1.5-.23-2.11-.62l13.58-15.29,5.05,4.38,4.95-4.3,13.78,15.15c-.64,.42-1.4,.67-2.22,.67Zm4-4c0,.66-.17,1.27-.45,1.81l-13.6-14.95,13.43-11.66c.39,.62,.63,1.35,.63,2.13v22.66Z"/></svg>