<?xml version="1.0" encoding="utf-8"?>
<!-- Generator: Adobe Illustrator 27.0.1, SVG Export Plug-In . SVG Version: 6.00 Build 0)  -->
<svg version="1.1" id="facebook" xmlns="http://www.w3.org/2000/svg" xmlns:xlink="http://www.w3.org/1999/xlink" x="0px" y="0px"
	 viewBox="0 0 69 69" style="enable-background:new 0 0 69 69;" xml:space="preserve">
<style type="text/css">
	.st0{fill:none;stroke:#0B2A54;stroke-width:2.5;stroke-miterlimit:10;}
	.st1{fill:#0B2A54;}
</style>
<g>
	<circle id="outline" class="st0" cx="34.5" cy="34.5" r="33.2"/>
	<path id="fb" class="st1" d="M23.5,36.3v-7.5h6.4c0.1,0,0.1,0,0.1-0.1v-5.3c0-0.7,0-1.5,0.1-2.2c0.1-0.7,0.3-1.4,0.5-2.1
		c0.4-1.1,0.9-2,1.7-2.9c0.9-1,2-1.7,3.3-2.2c1.1-0.4,2.3-0.6,3.5-0.6h0c0.5,0,0.9,0,1.4,0h0.1c0.3,0,0.7,0,1,0
		c0.7,0,1.5,0.1,2.2,0.1c0.5,0,0.9,0.1,1.3,0.1c0.1,0,0.1,0,0.2,0v6.7h-3.7c-0.4,0-0.8,0-1.2,0c-0.3,0-0.7,0.1-1,0.2
		c-0.5,0.2-1,0.5-1.2,1c-0.2,0.3-0.3,0.6-0.4,0.9c-0.1,0.4-0.1,0.9-0.1,1.3v4.8c0,0.1,0,0.1,0.1,0.1h7.3c0,0,0,0,0,0v0
		c0,0.2-0.1,0.5-0.1,0.7c-0.1,0.5-0.1,1-0.2,1.5c-0.1,0.5-0.1,1-0.2,1.5c-0.1,0.6-0.2,1.2-0.2,1.8c-0.1,0.6-0.2,1.2-0.2,1.8
		c0,0.1-0.1,0.1-0.1,0.1h-6.2c-0.1,0-0.2,0-0.2,0.2v19c0,0-0.1,0-0.1,0H30V36.3c0,0-0.1,0-0.1,0L23.5,36.3L23.5,36.3L23.5,36.3z"/>
</g>
</svg>
