<?xml version="1.0" encoding="utf-8"?>
<!-- Generator: Adobe Illustrator 27.0.0, SVG Export Plug-In . SVG Version: 6.00 Build 0)  -->
<svg version="1.1" id="facebook" xmlns="http://www.w3.org/2000/svg" xmlns:xlink="http://www.w3.org/1999/xlink" x="0px" y="0px"
	 viewBox="0 0 69.2 69" style="enable-background:new 0 0 69.2 69;" xml:space="preserve">
<style type="text/css">
	.st0{fill:#0B2A54;}
</style>
<path id="g-fill" class="st0" d="M34.5,0C15.4,0,0,15.4,0,34.5S15.4,69,34.5,69S69,53.5,69,34.5S53.5,0,34.5,0z M45.4,13.9
	c0,2.1,0,4.3,0,6.4c0,0,0,0.1,0,0.1c0,0-0.1,0-0.1,0c-1.2,0-2.4,0-3.5,0c-0.4,0-0.8,0-1.2,0c-0.3,0-0.7,0.1-1,0.2
	c-0.5,0.2-1,0.5-1.2,1c-0.2,0.3-0.3,0.6-0.4,0.9c-0.1,0.4-0.1,0.9-0.1,1.3c0,1.6,0,3.2,0,4.8c0,0.1,0,0.1,0.1,0.1c2.4,0,4.8,0,7.2,0
	c0,0,0.1,0,0.1,0c0,0,0,0,0,0s0,0,0,0c0,0.2-0.1,0.5-0.1,0.7c-0.1,0.5-0.1,1-0.2,1.5c-0.1,0.5-0.1,1-0.2,1.5
	c-0.1,0.6-0.2,1.2-0.2,1.8c-0.1,0.6-0.2,1.2-0.2,1.8c0,0.1,0,0.1-0.1,0.1h-6.2c-0.1,0-0.2,0-0.2,0.2c0,6.3,0,12.7,0,19
	c0,0-0.1,0-0.1,0c-2.4,0-4.9,0-7.3,0c-0.1,0-0.2,0-0.3,0c0,0,0-0.1,0-0.1c0-6.3,0-12.6,0-18.9c0,0,0-0.1,0-0.1c0,0-0.1,0-0.1,0
	c-2.1,0-4.2,0-6.3,0c0,0-0.1,0-0.1,0v-7.5c0,0,0.1,0,0.1,0c2.1,0,4.2,0,6.3,0c0.1,0,0.1,0,0.1-0.1c0-1.8,0-3.6,0-5.3
	c0-0.7,0-1.5,0.1-2.2c0.1-0.7,0.3-1.4,0.5-2.1c0.4-1.1,0.9-2,1.7-2.9c0.9-1,2-1.7,3.3-2.2c1.1-0.4,2.3-0.6,3.5-0.6c0,0,0,0,0,0
	c0.5,0,0.9,0,1.4,0c0,0,0,0,0.1,0c0.3,0,0.7,0,1,0c0.7,0,1.5,0.1,2.2,0.1c0.5,0,0.9,0.1,1.3,0.1c0.1,0,0.1,0,0.2,0
	C45.4,13.7,45.4,13.8,45.4,13.9L45.4,13.9z"/>
</svg>
