<?xml version="1.0" encoding="UTF-8"?><svg id="facebook" xmlns="http://www.w3.org/2000/svg" viewBox="0 0 69.19 69"><defs><style>.cls-1{fill:#fff;}.cls-2{fill:none;stroke:#fff;stroke-miterlimit:10;stroke-width:2.5px;}</style></defs><g id="w-outline"><circle id="outline" class="cls-2" cx="34.5" cy="34.5" r="33.25"/><path id="fb" class="cls-1" d="M23.55,36.34c0-2.5,0-5,0-7.5,.03,0,.07,0,.1,0,2.09,0,4.18,0,6.26,0,.14,0,.12,.02,.12-.12,0-1.78,0-3.56,0-5.34,0-.72,.04-1.45,.15-2.16,.11-.72,.28-1.43,.53-2.12,.39-1.06,.94-2.01,1.7-2.85,.92-1.01,2.04-1.73,3.33-2.2,1.11-.41,2.27-.6,3.45-.64,.02,0,.04,0,.05,0,.46-.01,.92,0,1.38,0,.03,0,.05,0,.08,0,.32,0,.65,.01,.97,.02,.74,.03,1.49,.06,2.23,.12,.45,.03,.89,.07,1.33,.12,.06,0,.13,0,.19,.03,0,.04,0,.09,0,.13,0,2.14,0,4.29,0,6.43,0,.05,0,.09,0,.14-.04,0-.07,0-.11,0-1.18,0-2.36,0-3.55,0-.41,0-.83,0-1.24,.05-.35,.04-.69,.11-1.02,.24-.52,.19-.95,.5-1.25,.98-.18,.29-.3,.6-.37,.94-.09,.42-.13,.85-.13,1.29,0,1.61,0,3.22,0,4.82,0,.14-.02,.12,.12,.12,2.39,0,4.78,0,7.17,0,.03,0,.06,0,.09,0,.02,0,.03,.01,.03,.03,0,.02,0,.04,0,.05-.03,.24-.06,.49-.09,.73-.06,.49-.13,.99-.19,1.48-.06,.49-.13,.99-.19,1.48-.08,.59-.15,1.17-.23,1.76-.08,.61-.16,1.22-.24,1.83-.02,.12-.02,.12-.14,.12-2.06,0-4.11,0-6.17,0q-.15,0-.15,.15c0,6.35,0,12.7,0,19.05-.04,.02-.09,.01-.13,.02-2.44,0-4.88,0-7.32,0-.09,0-.19,0-.28,0,0-.05,0-.09,0-.14,0-6.31,0-12.63,0-18.94,0-.05,0-.09,0-.14-.03-.03-.07-.01-.1-.01-2.09,0-4.18,0-6.27,0-.03,0-.07,0-.1,0Z"/></g></svg>