<?xml version="1.0" encoding="utf-8"?>
<!-- Generator: Adobe Illustrator 27.0.1, SVG Export Plug-In . SVG Version: 6.00 Build 0)  -->
<svg version="1.1" id="instagram" xmlns="http://www.w3.org/2000/svg" xmlns:xlink="http://www.w3.org/1999/xlink" x="0px" y="0px"
	 viewBox="0 0 69 69" style="enable-background:new 0 0 69 69;" xml:space="preserve">
<style type="text/css">
	.st0{fill:none;stroke:#0B2A54;stroke-width:2.5;stroke-miterlimit:10;}
	.st1{fill:#0B2A54;}
</style>
<g>
	<circle id="outline" class="st0" cx="34.5" cy="34.5" r="33.2"/>
	<g id="ig-g">
		<path class="st1" d="M55.2,26.3v16.5c0,0.5-0.1,1-0.1,1.5c-0.1,1.4-0.4,2.8-1,4.1c-1.4,3.1-3.7,5.1-7,6.1
			c-1.5,0.5-3.2,0.6-4.8,0.6c-1.7,0-3.3,0-5,0c-3.7,0-7.4,0-11.1-0.1c-1.7,0-3.5-0.3-5.1-1c-2.1-0.8-3.7-2.1-5-3.9
			c-1.2-1.8-1.8-3.8-2-6c-0.1-1.3-0.1-2.5-0.2-3.8c-0.1-4.8-0.1-9.6,0.1-14.4c0.1-1.9,0.4-3.7,1.1-5.4c0.6-1.4,1.5-2.7,2.7-3.7
			c1.8-1.6,4-2.4,6.4-2.7c1.3-0.1,2.6-0.2,3.9-0.2c5.4-0.1,10.7-0.2,16.1,0.1c2,0.1,4,0.7,5.7,1.8c1.8,1.2,3.2,2.8,4,4.8
			c0.6,1.4,0.9,2.9,1,4.5C55.1,25.6,55.1,25.9,55.2,26.3L55.2,26.3L55.2,26.3z M34.3,51.4L34.3,51.4c2.7,0,5.5,0,8.2-0.1
			c1.4,0,2.8-0.2,4.2-0.7c1.6-0.6,2.8-1.7,3.6-3.2c0.7-1.2,1-2.6,1-4c0.1-1.6,0.1-3.2,0.1-4.8c0-3.7,0-7.4-0.1-11.1
			c0-1.3-0.1-2.6-0.4-3.9c-0.4-1.8-1.3-3.2-2.8-4.3c-1.2-0.8-2.5-1.2-3.8-1.4c-1.3-0.1-2.6-0.2-3.9-0.2c-4.5-0.1-8.9-0.1-13.4,0
			c-0.9,0-1.8,0.1-2.6,0.2c-1.3,0.2-2.4,0.6-3.5,1.3c-1.6,1.1-2.5,2.8-2.9,4.7c-0.3,1.3-0.3,2.6-0.3,4c-0.1,5-0.1,9.9,0,14.9
			c0,1,0.1,2,0.4,2.9c0.3,1.2,0.9,2.4,1.8,3.3c1.3,1.3,2.9,2,4.8,2.2c1.6,0.2,3.1,0.2,4.7,0.2C31.1,51.4,32.7,51.4,34.3,51.4
			C34.3,51.4,34.3,51.4,34.3,51.4z"/>
		<path class="st1" d="M45.2,34.5c0,5.8-4.8,10.6-10.6,10.6c-5.8,0-10.6-4.8-10.6-10.6c0-5.8,4.7-10.5,10.6-10.6
			C40.4,23.9,45.2,28.7,45.2,34.5L45.2,34.5L45.2,34.5z M34.6,27.7c-3.8,0-6.9,3.1-6.9,6.8s3,6.9,6.8,6.9s6.9-3.1,6.9-6.9
			S38.4,27.6,34.6,27.7z"/>
		<path class="st1" d="M43.1,23.5c0-1.4,1.1-2.5,2.5-2.5s2.5,1.1,2.5,2.5S47,26,45.6,26C44.3,26,43.1,24.9,43.1,23.5z"/>
	</g>
</g>
</svg>
