<?xml version="1.0" encoding="UTF-8"?><svg id="instagram" xmlns="http://www.w3.org/2000/svg" viewBox="0 0 69.19 69"><defs><style>.cls-1{fill:#d2d2d1;}</style></defs><g id="g-fill"><path class="cls-1" d="M34.5,0C15.45,0,0,15.45,0,34.5s15.45,34.5,34.5,34.5,34.5-15.45,34.5-34.5S53.55,0,34.5,0Zm20.65,42.73c-.05,.5-.1,1-.14,1.5-.11,1.41-.39,2.78-.96,4.08-1.37,3.11-3.7,5.13-6.95,6.11-1.55,.46-3.15,.61-4.75,.64-1.67,.03-3.33,.05-5,.04-3.71-.02-7.41-.03-11.12-.09-1.74-.03-3.45-.32-5.09-.95-2.06-.8-3.72-2.11-4.96-3.94-1.22-1.8-1.78-3.82-1.97-5.96-.11-1.26-.15-2.53-.18-3.8-.09-4.79-.07-9.58,.09-14.37,.06-1.85,.35-3.66,1.11-5.37,.63-1.43,1.5-2.69,2.69-3.72,1.84-1.61,4.02-2.45,6.42-2.72,1.28-.14,2.58-.18,3.87-.2,5.37-.1,10.74-.2,16.11,.15,2.04,.13,3.95,.68,5.68,1.8,1.83,1.19,3.19,2.77,4.05,4.79,.6,1.43,.89,2.93,1.02,4.47,.03,.36,.06,.73,.09,1.09v16.46Z"/><path class="cls-1" d="M51.03,23.55c-.41-1.77-1.29-3.24-2.79-4.3-1.15-.81-2.46-1.23-3.84-1.37-1.29-.13-2.59-.2-3.89-.22-4.47-.06-8.94-.12-13.41,.05-.88,.03-1.77,.11-2.65,.22-1.26,.16-2.44,.58-3.48,1.32-1.61,1.15-2.5,2.75-2.88,4.66-.26,1.31-.28,2.64-.31,3.97-.1,4.96-.09,9.92,.04,14.88,.03,.99,.15,1.98,.4,2.94,.32,1.24,.88,2.36,1.79,3.28,1.31,1.33,2.94,2,4.75,2.17,1.56,.15,3.14,.19,4.71,.23,1.61,.04,3.22,0,4.84,0,0,0,0,.01,0,.02,2.73-.04,5.45-.07,8.18-.11,1.42-.02,2.82-.19,4.16-.7,1.6-.6,2.81-1.66,3.63-3.17,.69-1.25,.96-2.62,1.04-4.03,.09-1.6,.14-3.21,.14-4.81,0-3.71-.03-7.43-.06-11.14,0-1.32-.09-2.62-.39-3.91Zm-16.4,21.57c-5.84,0-10.61-4.77-10.6-10.6,0-5.83,4.74-10.55,10.57-10.59,5.85-.03,10.65,4.78,10.63,10.59,0,5.82-4.77,10.59-10.59,10.6Zm10.99-19.11c-1.36,0-2.49-1.13-2.49-2.5,0-1.37,1.11-2.47,2.5-2.47,1.38,0,2.47,1.09,2.47,2.48,0,1.39-1.1,2.5-2.48,2.49Z"/><path class="cls-1" d="M34.63,27.65c-3.78,0-6.85,3.07-6.85,6.85,0,3.79,3.05,6.86,6.83,6.86,3.79,0,6.87-3.07,6.87-6.86,0-3.77-3.08-6.85-6.85-6.85Z"/></g></svg>