<?xml version="1.0" encoding="utf-8"?>
<!-- Generator: Adobe Illustrator 27.0.0, SVG Export Plug-In . SVG Version: 6.00 Build 0)  -->
<svg version="1.1" id="instagram" xmlns="http://www.w3.org/2000/svg" xmlns:xlink="http://www.w3.org/1999/xlink" x="0px" y="0px"
	 viewBox="0 0 69.2 69" style="enable-background:new 0 0 69.2 69;" xml:space="preserve">
<style type="text/css">
	.st0{fill:#0B2A54;}
</style>
<g id="g-fill">
	<path class="st0" d="M34.5,0C15.4,0,0,15.4,0,34.5S15.4,69,34.5,69S69,53.5,69,34.5S53.5,0,34.5,0z M55.2,42.7c0,0.5-0.1,1-0.1,1.5
		c-0.1,1.4-0.4,2.8-1,4.1c-1.4,3.1-3.7,5.1-7,6.1c-1.5,0.5-3.2,0.6-4.8,0.6c-1.7,0-3.3,0-5,0c-3.7,0-7.4,0-11.1-0.1
		c-1.7,0-3.5-0.3-5.1-1c-2.1-0.8-3.7-2.1-5-3.9c-1.2-1.8-1.8-3.8-2-6c-0.1-1.3-0.1-2.5-0.2-3.8c-0.1-4.8-0.1-9.6,0.1-14.4
		c0.1-1.9,0.4-3.7,1.1-5.4c0.6-1.4,1.5-2.7,2.7-3.7c1.8-1.6,4-2.4,6.4-2.7c1.3-0.1,2.6-0.2,3.9-0.2c5.4-0.1,10.7-0.2,16.1,0.1
		c2,0.1,4,0.7,5.7,1.8c1.8,1.2,3.2,2.8,4,4.8c0.6,1.4,0.9,2.9,1,4.5c0,0.4,0.1,0.7,0.1,1.1L55.2,42.7L55.2,42.7z"/>
	<path class="st0" d="M51,23.5c-0.4-1.8-1.3-3.2-2.8-4.3c-1.2-0.8-2.5-1.2-3.8-1.4c-1.3-0.1-2.6-0.2-3.9-0.2
		c-4.5-0.1-8.9-0.1-13.4,0c-0.9,0-1.8,0.1-2.6,0.2c-1.3,0.2-2.4,0.6-3.5,1.3c-1.6,1.1-2.5,2.8-2.9,4.7c-0.3,1.3-0.3,2.6-0.3,4
		c-0.1,5-0.1,9.9,0,14.9c0,1,0.1,2,0.4,2.9c0.3,1.2,0.9,2.4,1.8,3.3c1.3,1.3,2.9,2,4.8,2.2c1.6,0.2,3.1,0.2,4.7,0.2
		c1.6,0,3.2,0,4.8,0c0,0,0,0,0,0c2.7,0,5.5-0.1,8.2-0.1c1.4,0,2.8-0.2,4.2-0.7c1.6-0.6,2.8-1.7,3.6-3.2c0.7-1.2,1-2.6,1-4
		c0.1-1.6,0.1-3.2,0.1-4.8c0-3.7,0-7.4-0.1-11.1C51.4,26.1,51.3,24.8,51,23.5L51,23.5z M34.6,45.1c-5.8,0-10.6-4.8-10.6-10.6
		c0-5.8,4.7-10.5,10.6-10.6c5.8,0,10.7,4.8,10.6,10.6C45.2,40.3,40.5,45.1,34.6,45.1L34.6,45.1z M45.6,26c-1.4,0-2.5-1.1-2.5-2.5
		s1.1-2.5,2.5-2.5c1.4,0,2.5,1.1,2.5,2.5S47,26,45.6,26z"/>
	<path class="st0" d="M34.6,27.6c-3.8,0-6.9,3.1-6.9,6.9c0,3.8,3,6.9,6.8,6.9c3.8,0,6.9-3.1,6.9-6.9C41.5,30.7,38.4,27.6,34.6,27.6z
		"/>
</g>
</svg>
