<?xml version="1.0" encoding="utf-8"?>
<!-- Generator: Adobe Illustrator 27.0.0, SVG Export Plug-In . SVG Version: 6.00 Build 0)  -->
<svg version="1.1" id="linkedin" xmlns="http://www.w3.org/2000/svg" xmlns:xlink="http://www.w3.org/1999/xlink" x="0px" y="0px"
	 viewBox="0 0 69.2 69" style="enable-background:new 0 0 69.2 69;" xml:space="preserve">
<style type="text/css">
	.st0{fill:#0B2A54;}
</style>
<path id="w-fill" class="st0" d="M34.5,0C15.4,0,0,15.4,0,34.5S15.4,69,34.5,69S69,53.5,69,34.5S53.5,0,34.5,0z M26.3,49
	c0,0.1,0,0.1,0,0.2h-6.6c0,0,0-0.1,0-0.1c0-6.5,0-13,0-19.4v-0.2h6.6c0,0,0,0.1,0,0.1c0,0,0,0.1,0,0.1C26.3,36,26.3,42.5,26.3,49
	L26.3,49z M26.6,24.4c-0.3,1-0.9,1.6-1.8,2c-0.4,0.2-0.9,0.3-1.3,0.3c-0.5,0-1,0-1.5-0.1c-1.2-0.3-2.1-1-2.5-2.2
	c-0.1-0.4-0.2-0.8-0.2-1.2c0-1.8,1.3-2.8,2.4-3.2c0.3-0.1,0.5-0.1,0.8-0.2c0,0,0.1,0,0.1,0h0.7c0.1,0,0.2,0,0.4,0
	c1.1,0.2,2,0.7,2.6,1.7c0.2,0.4,0.3,0.8,0.4,1.3C26.8,23.4,26.8,23.9,26.6,24.4z M50,49.1h-6.6c0-1,0-2,0-3c0-2.6,0-5.1,0-7.7
	c0-0.5,0-1-0.2-1.5c-0.1-0.5-0.2-0.9-0.5-1.3c-0.4-0.7-0.9-1.1-1.7-1.3c-0.4-0.1-0.9-0.1-1.3-0.1c-0.7,0-1.2,0.2-1.8,0.7
	c-0.4,0.3-0.7,0.7-1,1.2c-0.2,0.4-0.4,0.8-0.4,1.2c0,0.3-0.1,0.7-0.1,1c0,3.6,0,7.2,0,10.8c0,0.1,0,0.1,0,0.2H30c0-0.1,0-0.1,0-0.2
	c0-5.3,0-10.5,0-15.8c0-1,0-2,0-3c0-0.2,0-0.4,0-0.6c0,0,0-0.1,0-0.1h6.6v2.8c0.1,0,0.1-0.1,0.1-0.1c0.4-0.6,0.8-1.1,1.3-1.5
	c0.9-0.8,1.9-1.3,3-1.5c0.8-0.1,1.5-0.2,2.3-0.1c0.8,0.1,1.6,0.2,2.4,0.6c1.5,0.7,2.7,1.8,3.4,3.3c0.4,0.8,0.6,1.5,0.7,2.4
	c0.1,0.5,0.1,0.9,0.2,1.4c0,0.2,0,0.3,0,0.5c0,0,0,0.1,0,0.1L50,49.1L50,49.1z"/>
</svg>
