<?xml version="1.0" encoding="UTF-8"?><svg id="linkedin" xmlns="http://www.w3.org/2000/svg" viewBox="0 0 69.19 69"><defs><style>.cls-1{fill:#fff;}.cls-2{fill:none;stroke:#fff;stroke-miterlimit:10;stroke-width:2.5px;}</style></defs><g id="w-outline"><circle id="outline" class="cls-2" cx="34.69" cy="34.5" r="33.25"/><g id="li"><path class="cls-1" d="M29.98,49.14c0-.06,0-.13,0-.19,.02-5.27,.04-10.53,.05-15.8,0-1.01-.02-2.02-.03-3.04,0-.2-.01-.39-.02-.59,0-.04,0-.08,0-.13h6.56v2.75c.06-.02,.08-.07,.1-.11,.38-.56,.81-1.07,1.32-1.51,.88-.77,1.89-1.26,3.03-1.48,.76-.15,1.52-.16,2.29-.1,.82,.07,1.61,.24,2.37,.57,1.55,.68,2.68,1.8,3.42,3.32,.36,.76,.6,1.55,.74,2.38,.08,.45,.12,.91,.17,1.37,.02,.15,0,.3,.01,.45,0,.05,.01,.09,.02,.14v11.97h-6.56c0-1.02,0-2.03,0-3.05,0-2.56,0-5.12,0-7.68,0-.52-.05-1.03-.15-1.53-.09-.47-.24-.92-.48-1.34-.38-.66-.94-1.1-1.68-1.3-.44-.12-.89-.14-1.34-.11-.65,.05-1.24,.25-1.75,.66-.41,.33-.74,.72-1.01,1.17-.22,.39-.4,.79-.44,1.24-.03,.33-.06,.66-.06,.99,0,3.58,0,7.16,0,10.75,0,.06,0,.13,0,.19h-6.56Z"/><path class="cls-1" d="M19.77,49.14s0-.09,0-.14c0-6.48,0-12.96,0-19.44v-.17h6.56s0,.06,.01,.1c0,.03,0,.07,0,.1,0,6.45,0,12.91,0,19.36,0,.06-.01,.13-.02,.19h-6.56Z"/><path class="cls-1" d="M23.47,19.86c.12,.02,.23,.03,.35,.05,1.13,.17,2,.72,2.57,1.73,.22,.4,.33,.83,.38,1.29,.05,.48,.03,.96-.12,1.43-.3,.95-.94,1.61-1.84,2.01-.41,.19-.85,.28-1.29,.31-.49,.04-.97,.03-1.45-.08-1.23-.29-2.08-1.02-2.5-2.22-.13-.38-.19-.77-.18-1.17,.05-1.84,1.28-2.83,2.43-3.17,.27-.08,.55-.13,.82-.16,.04,0,.08-.02,.12-.02,.24,0,.48,0,.71,0Z"/></g></g></svg>