<?xml version="1.0" encoding="utf-8"?>
<!-- Generator: Adobe Illustrator 27.0.1, SVG Export Plug-In . SVG Version: 6.00 Build 0)  -->
<svg version="1.1" id="linkedin" xmlns="http://www.w3.org/2000/svg" xmlns:xlink="http://www.w3.org/1999/xlink" x="0px" y="0px"
	 viewBox="0 0 69.2 69" style="enable-background:new 0 0 69.2 69;" xml:space="preserve">
<style type="text/css">
	.st0{fill:none;stroke:#D2D2D1;stroke-width:2.5;stroke-miterlimit:10;}
	.st1{fill:#D1D1D1;}
</style>
<circle id="outline" class="st0" cx="34.7" cy="34.5" r="33.2"/>
<g id="li">
	<path class="st1" d="M29.8,49.1c0-0.1,0-0.1,0-0.2c0-5.3,0-10.5,0-15.8c0-1,0-2,0-3c0-0.2,0-0.4,0-0.6c0,0,0-0.1,0-0.1h6.6v2.7
		c0.1,0,0.1-0.1,0.1-0.1c0.4-0.6,0.8-1.1,1.3-1.5c0.9-0.8,1.9-1.3,3-1.5c0.8-0.1,1.5-0.2,2.3-0.1c0.8,0.1,1.6,0.2,2.4,0.6
		c1.5,0.7,2.7,1.8,3.4,3.3c0.4,0.8,0.6,1.5,0.7,2.4c0.1,0.5,0.1,0.9,0.2,1.4c0,0.2,0,0.3,0,0.5c0,0,0,0.1,0,0.1v12h-6.6c0-1,0-2,0-3
		c0-2.6,0-5.1,0-7.7c0-0.5,0-1-0.2-1.5c-0.1-0.5-0.2-0.9-0.5-1.3c-0.4-0.7-0.9-1.1-1.7-1.3c-0.4-0.1-0.9-0.1-1.3-0.1
		c-0.7,0-1.2,0.2-1.8,0.7c-0.4,0.3-0.7,0.7-1,1.2c-0.2,0.4-0.4,0.8-0.4,1.2c0,0.3-0.1,0.7-0.1,1c0,3.6,0,7.2,0,10.8
		c0,0.1,0,0.1,0,0.2L29.8,49.1L29.8,49.1z"/>
	<path class="st1" d="M19.6,49.1c0,0,0-0.1,0-0.1c0-6.5,0-13,0-19.4v-0.2h6.6c0,0,0,0.1,0,0.1c0,0,0,0.1,0,0.1c0,6.5,0,12.9,0,19.4
		c0,0.1,0,0.1,0,0.2H19.6L19.6,49.1z"/>
	<path class="st1" d="M23.3,19.9c0.1,0,0.2,0,0.4,0c1.1,0.2,2,0.7,2.6,1.7c0.2,0.4,0.3,0.8,0.4,1.3c0,0.5,0,1-0.1,1.4
		c-0.3,1-0.9,1.6-1.8,2c-0.4,0.2-0.9,0.3-1.3,0.3c-0.5,0-1,0-1.5-0.1c-1.2-0.3-2.1-1-2.5-2.2c-0.1-0.4-0.2-0.8-0.2-1.2
		c0-1.8,1.3-2.8,2.4-3.2c0.3-0.1,0.5-0.1,0.8-0.2c0,0,0.1,0,0.1,0C22.8,19.9,23,19.9,23.3,19.9z"/>
</g>
</svg>
