<?xml version="1.0" encoding="utf-8"?>
<!-- Generator: Adobe Illustrator 27.0.1, SVG Export Plug-In . SVG Version: 6.00 Build 0)  -->
<svg version="1.1" id="linkedin" xmlns="http://www.w3.org/2000/svg" xmlns:xlink="http://www.w3.org/1999/xlink" x="0px" y="0px"
	 viewBox="0 0 69 69" style="enable-background:new 0 0 69 69;" xml:space="preserve">
<style type="text/css">
	.st0{fill:none;stroke:#0B2A54;stroke-width:2.5;stroke-miterlimit:10;}
	.st1{fill:#0B2A54;}
</style>
<g>
	<circle id="outline" class="st0" cx="34.5" cy="34.5" r="33.2"/>
	<g id="li">
		<path class="st1" d="M29.6,49.1V49c0-5.3,0-10.5,0-15.8c0-1,0-2,0-3c0-0.2,0-0.4,0-0.6v-0.1h6.6v2.7c0.1,0,0.1-0.1,0.1-0.1
			c0.4-0.6,0.8-1.1,1.3-1.5c0.9-0.8,1.9-1.3,3-1.5c0.8-0.1,1.5-0.2,2.3-0.1c0.8,0.1,1.6,0.2,2.4,0.6c1.5,0.7,2.7,1.8,3.4,3.3
			c0.4,0.8,0.6,1.5,0.7,2.4c0.1,0.5,0.1,0.9,0.2,1.4c0,0.2,0,0.3,0,0.5c0,0,0,0.1,0,0.1v12h-6.6V38.4c0-0.5,0-1-0.2-1.5
			c-0.1-0.5-0.2-0.9-0.5-1.3c-0.4-0.7-0.9-1.1-1.7-1.3c-0.4-0.1-0.9-0.1-1.3-0.1c-0.7,0-1.2,0.2-1.8,0.7c-0.4,0.3-0.7,0.7-1,1.2
			c-0.2,0.4-0.4,0.8-0.4,1.2c0,0.3-0.1,0.7-0.1,1v10.9L29.6,49.1L29.6,49.1z"/>
		<path class="st1" d="M19.4,49.1V29.4h6.6c0,0,0,0.1,0,0.1v19.5c0,0.1,0,0.1,0,0.2C25.9,49.1,19.4,49.1,19.4,49.1z"/>
		<path class="st1" d="M23.1,19.9c0.1,0,0.2,0,0.4,0c1.1,0.2,2,0.7,2.6,1.7c0.2,0.4,0.3,0.8,0.4,1.3c0,0.5,0,1-0.1,1.4
			c-0.3,1-0.9,1.6-1.8,2c-0.4,0.2-0.9,0.3-1.3,0.3c-0.5,0-1,0-1.5-0.1c-1.2-0.3-2.1-1-2.5-2.2C19.1,24,19,23.6,19,23.2
			c0-1.8,1.3-2.8,2.4-3.2c0.3-0.1,0.5-0.1,0.8-0.2c0,0,0.1,0,0.1,0C22.4,19.9,23.1,19.9,23.1,19.9z"/>
	</g>
</g>
</svg>
