<?xml version="1.0" encoding="UTF-8"?><svg id="twitter" xmlns="http://www.w3.org/2000/svg" viewBox="0 0 69.19 69"><defs><style>.cls-1{fill:#d2d2d1;}</style></defs><path id="g-fill" class="cls-1" d="M34.5,0C15.45,0,0,15.45,0,34.5s15.45,34.5,34.5,34.5,34.5-15.45,34.5-34.5S53.55,0,34.5,0Zm19.38,22.52c-.63,.92-1.35,1.77-2.16,2.54-.5,.48-1.02,.92-1.58,1.32-.08,.06-.11,.12-.11,.22,.02,.57,.02,1.13,0,1.7-.03,.67-.09,1.34-.17,2.01-.21,1.59-.58,3.14-1.11,4.66-.63,1.81-1.46,3.53-2.51,5.14-.75,1.16-1.59,2.24-2.54,3.25-1.47,1.56-3.12,2.88-4.98,3.95-1.81,1.04-3.73,1.8-5.76,2.29-.77,.18-1.54,.33-2.32,.43-.53,.07-1.05,.12-1.58,.16-.85,.07-1.71,.07-2.57,.04-.85-.03-1.71-.11-2.55-.23-1.24-.19-2.45-.47-3.64-.85-1.78-.57-3.46-1.36-5.04-2.34-.05-.03-.09-.06-.13-.11,.69,.05,1.38,.1,2.07,.09,.69-.01,1.38-.07,2.07-.17,.69-.1,1.37-.25,2.05-.44,.67-.19,1.32-.42,1.96-.69,.64-.27,1.26-.58,1.85-.94,.59-.35,1.17-.74,1.74-1.19-2.29-.1-4.2-.95-5.74-2.6-.78-.84-1.34-1.82-1.71-2.94,.61,.09,1.2,.16,1.79,.13,.59-.03,1.17-.1,1.74-.29-.09-.02-.18-.05-.27-.07-2.29-.6-4.01-1.94-5.14-4.02-.42-.78-.69-1.61-.83-2.48-.06-.38-.09-.77-.1-1.16,0-.03,0-.06,0-.09,0-.06,.02-.08,.08-.05,.04,.02,.07,.04,.11,.06,.84,.44,1.73,.72,2.67,.84,.23,.03,.47,.04,.71,.05-.31-.25-.63-.48-.92-.75-.3-.27-.57-.56-.82-.87-.26-.31-.48-.65-.69-1-.2-.35-.37-.7-.52-1.08-.15-.37-.26-.75-.36-1.14-.09-.39-.15-.78-.18-1.18-.03-.4-.03-.8,0-1.2,.03-.4,.09-.8,.18-1.2,.09-.39,.21-.77,.35-1.14,.14-.37,.32-.73,.51-1.07,.07,0,.1,.06,.13,.1,.97,1.18,2.05,2.24,3.23,3.2,1.41,1.14,2.94,2.1,4.58,2.88,1.55,.73,3.17,1.28,4.85,1.65,.75,.16,1.51,.29,2.28,.38,.41,.05,.83,.07,1.24,.11,.03,0,.05,0,.08,0,.1,0,.11-.01,.09-.11-.06-.27-.1-.55-.13-.82-.05-.47-.06-.93-.03-1.4,.03-.5,.11-.99,.24-1.47,.32-1.22,.89-2.32,1.73-3.27,.69-.79,1.5-1.42,2.44-1.89,.81-.41,1.67-.67,2.58-.78,.5-.06,1-.08,1.49-.05,1.24,.08,2.41,.42,3.5,1.05,.64,.37,1.21,.81,1.72,1.34,.09,.09,.17,.11,.29,.09,1.67-.36,3.25-.95,4.73-1.81,.04-.02,.07-.04,.11-.06,0,0,.01,0,.02,0,.01,.35-.72,1.74-1.3,2.48-.59,.74-1.29,1.36-2.12,1.88,.08,.02,.13,0,.19,0,.06,0,.12-.01,.17-.02,1.38-.21,2.72-.58,4-1.13,.04-.02,.07-.04,.12-.03h0c0,.06-.04,.1-.07,.14Z"/></svg>