<?xml version="1.0" encoding="utf-8"?>
<!-- Generator: Adobe Illustrator 27.0.0, SVG Export Plug-In . SVG Version: 6.00 Build 0)  -->
<svg version="1.1" id="twitter" xmlns="http://www.w3.org/2000/svg" xmlns:xlink="http://www.w3.org/1999/xlink" x="0px" y="0px"
	 viewBox="0 0 69.2 69" style="enable-background:new 0 0 69.2 69;" xml:space="preserve">
<style type="text/css">
	.st0{fill:#0B2A54;}
</style>
<path id="g-fill" class="st0" d="M34.5,0C15.4,0,0,15.4,0,34.5S15.4,69,34.5,69S69,53.5,69,34.5S53.5,0,34.5,0z M53.9,22.5
	c-0.6,0.9-1.3,1.8-2.2,2.5c-0.5,0.5-1,0.9-1.6,1.3c-0.1,0.1-0.1,0.1-0.1,0.2c0,0.6,0,1.1,0,1.7c0,0.7-0.1,1.3-0.2,2
	c-0.2,1.6-0.6,3.1-1.1,4.7c-0.6,1.8-1.5,3.5-2.5,5.1c-0.8,1.2-1.6,2.2-2.5,3.2c-1.5,1.6-3.1,2.9-5,4c-1.8,1-3.7,1.8-5.8,2.3
	c-0.8,0.2-1.5,0.3-2.3,0.4c-0.5,0.1-1,0.1-1.6,0.2c-0.9,0.1-1.7,0.1-2.6,0c-0.9,0-1.7-0.1-2.5-0.2c-1.2-0.2-2.5-0.5-3.6-0.8
	c-1.8-0.6-3.5-1.4-5-2.3c-0.1,0-0.1-0.1-0.1-0.1c0.7,0,1.4,0.1,2.1,0.1s1.4-0.1,2.1-0.2s1.4-0.2,2-0.4c0.7-0.2,1.3-0.4,2-0.7
	s1.3-0.6,1.9-0.9c0.6-0.3,1.2-0.7,1.7-1.2c-2.3-0.1-4.2-1-5.7-2.6c-0.8-0.8-1.3-1.8-1.7-2.9c0.6,0.1,1.2,0.2,1.8,0.1
	s1.2-0.1,1.7-0.3c-0.1,0-0.2,0-0.3-0.1c-2.3-0.6-4-1.9-5.1-4c-0.4-0.8-0.7-1.6-0.8-2.5c-0.1-0.4-0.1-0.8-0.1-1.2c0,0,0-0.1,0-0.1
	c0-0.1,0-0.1,0.1,0c0,0,0.1,0,0.1,0.1c0.8,0.4,1.7,0.7,2.7,0.8c0.2,0,0.5,0,0.7,0c-0.3-0.2-0.6-0.5-0.9-0.8
	c-0.3-0.3-0.6-0.6-0.8-0.9c-0.3-0.3-0.5-0.6-0.7-1c-0.2-0.4-0.4-0.7-0.5-1.1c-0.1-0.4-0.3-0.8-0.4-1.1c-0.1-0.4-0.1-0.8-0.2-1.2
	s0-0.8,0-1.2c0-0.4,0.1-0.8,0.2-1.2c0.1-0.4,0.2-0.8,0.4-1.1c0.1-0.4,0.3-0.7,0.5-1.1c0.1,0,0.1,0.1,0.1,0.1c1,1.2,2,2.2,3.2,3.2
	c1.4,1.1,2.9,2.1,4.6,2.9c1.5,0.7,3.2,1.3,4.9,1.6c0.8,0.2,1.5,0.3,2.3,0.4c0.4,0,0.8,0.1,1.2,0.1c0,0,0,0,0.1,0
	c0.1,0,0.1,0,0.1-0.1c-0.1-0.3-0.1-0.5-0.1-0.8c0-0.5-0.1-0.9,0-1.4c0-0.5,0.1-1,0.2-1.5c0.3-1.2,0.9-2.3,1.7-3.3
	c0.7-0.8,1.5-1.4,2.4-1.9c0.8-0.4,1.7-0.7,2.6-0.8c0.5-0.1,1-0.1,1.5,0c1.2,0.1,2.4,0.4,3.5,1c0.6,0.4,1.2,0.8,1.7,1.3
	c0.1,0.1,0.2,0.1,0.3,0.1c1.7-0.4,3.2-1,4.7-1.8c0,0,0.1,0,0.1-0.1c0,0,0,0,0,0c0,0.4-0.7,1.7-1.3,2.5c-0.6,0.7-1.3,1.4-2.1,1.9
	c0.1,0,0.1,0,0.2,0c0.1,0,0.1,0,0.2,0C51.2,23.4,52.6,23,53.9,22.5C53.9,22.4,53.9,22.4,53.9,22.5L53.9,22.5
	C54,22.5,53.9,22.5,53.9,22.5L53.9,22.5z"/>
</svg>
