<?xml version="1.0" encoding="utf-8"?>
<!-- Generator: Adobe Illustrator 27.0.1, SVG Export Plug-In . SVG Version: 6.00 Build 0)  -->
<svg version="1.1" id="sealife" xmlns="http://www.w3.org/2000/svg" xmlns:xlink="http://www.w3.org/1999/xlink" x="0px" y="0px"
	 viewBox="0 0 417 324.5" style="enable-background:new 0 0 417 324.5;" xml:space="preserve">
<style type="text/css">
	.st0{fill:url(#SVGID_1_);}
	.st1{fill:url(#SVGID_00000183968766322458427590000016489595948980848782_);}
	.st2{fill:url(#SVGID_00000013187507301973923280000006142526840741722266_);}
	.st3{fill:url(#SVGID_00000082358605176393886710000007859028539808872863_);}
	.st4{fill:url(#SVGID_00000103230118428194173100000002428510932585528207_);}
	.st5{fill:url(#SVGID_00000041991838875567234350000007071525366234037890_);}
	.st6{fill:url(#SVGID_00000124866747639755454780000015740210855290473885_);}
	.st7{fill:url(#SVGID_00000173861350084507431430000010853859789210229120_);}
	.st8{fill:url(#SVGID_00000069391361611402833110000016223224225040844734_);}
	.st9{fill:url(#SVGID_00000077284664392547822660000007011549306356290457_);}
	.st10{fill:url(#SVGID_00000004547533453762812090000001145249789523430326_);}
	.st11{fill:url(#SVGID_00000035516019743765134220000012697867528954917812_);}
	.st12{fill:url(#SVGID_00000162321188636509509520000016627446330631119028_);}
	.st13{fill:url(#SVGID_00000137815246811387228090000002637587474072633520_);}
	.st14{fill:url(#SVGID_00000068665467634209024840000000720500463547762308_);}
	.st15{fill:#FFFFFF;}
	.st16{fill:#0B2A54;}
	.st17{fill:url(#SVGID_00000097471955538379509630000007110352916892069811_);}
	.st18{fill:url(#SVGID_00000052804101320662225660000003830485597775590305_);}
	.st19{fill:url(#SVGID_00000160900645412206769040000001714444296191959956_);}
	.st20{fill:url(#SVGID_00000083798895017561396550000002126870953427993506_);}
	.st21{fill:url(#SVGID_00000090270389624100901340000003529967653655251353_);}
	.st22{fill:url(#SVGID_00000165942990183497151980000004087783398396673200_);}
	.st23{fill:url(#SVGID_00000129905207957678479840000002532780026426502058_);}
	.st24{fill:url(#SVGID_00000008856841355261590270000016482385523742061491_);}
	.st25{fill:url(#SVGID_00000155137122306352660080000007393890420811993011_);}
	.st26{fill:url(#SVGID_00000147942956827970151190000004356310595868808112_);}
	.st27{fill:url(#SVGID_00000145054330907129203820000014400405494504846229_);}
	.st28{fill:url(#SVGID_00000013872177105430138580000011849508461589774227_);}
	.st29{fill:url(#SVGID_00000025421723932871456260000009530794972889700272_);}
	.st30{fill:url(#SVGID_00000095296308115389656820000003159426641178667909_);}
	.st31{fill:url(#SVGID_00000151538069825254187240000009604510351776482457_);}
	.st32{fill:url(#SVGID_00000027569783630683502940000003355917170537083795_);}
	.st33{fill:url(#SVGID_00000039117043937878270050000011540737478359454133_);}
</style>
<linearGradient id="SVGID_1_" gradientUnits="userSpaceOnUse" x1="301.8191" y1="854.8263" x2="417.0293" y2="854.8263" gradientTransform="matrix(1 0 0 -1 0 993.2452)">
	<stop  offset="0" style="stop-color:#F5C4B0"/>
	<stop  offset="0.26" style="stop-color:#F4BCA6"/>
	<stop  offset="0.69" style="stop-color:#F1A98D"/>
	<stop  offset="0.99" style="stop-color:#EF9977"/>
</linearGradient>
<path class="st0" d="M415.9,196.2c-1.1,0.5-2.1,1.1-3.2,1.5c-2.1,0.9-4.2,1.7-6.3,2.3h0c-13.7,4.1-28.8,3.5-43,0.9
	c-8.1-1.5-16.2-3.6-23.3-7.8c-4.8-2.9-10.7-8-16.4-14.3c-11.2-12.2-21.8-28.6-21.9-40c-0.1-7.3,2.7-14.8,7-22l0,0
	c7.9-13.1,20.9-24.9,31.4-31.1c12.8-7.6,27.6-11.7,42.5-11.8c2.3,0,4.6,0,6.9,0.2c5.5,0.4,10.9,1.3,16.1,2.8c0,1.3-0.1,2.6-0.2,3.9
	c-0.1,1.3-0.2,2.6-0.4,3.9c-3.9,26.4-25.7,49.8-52.2,54.3c20.9,1.2,43.7,6.1,56.1,22.9c3.9,5.2,6.4,11.4,7.5,17.8
	c0.3,1.6,0.4,3.2,0.5,4.8C417.2,188.4,416.8,192.3,415.9,196.2L415.9,196.2z"/>
<linearGradient id="SVGID_00000173880349996715673930000011996034481676837539_" gradientUnits="userSpaceOnUse" x1="122.0005" y1="712.5757" x2="301.8181" y2="712.5757" gradientTransform="matrix(1 0 0 -1 0 993.2452)">
	<stop  offset="0" style="stop-color:#F5C4B0"/>
	<stop  offset="0.26" style="stop-color:#F4BCA6"/>
	<stop  offset="0.69" style="stop-color:#F1A98D"/>
	<stop  offset="0.99" style="stop-color:#EF9977"/>
</linearGradient>
<path style="fill:url(#SVGID_00000173880349996715673930000011996034481676837539_);" d="M301.5,263.2c-0.4,2-1.2,3.9-2.3,5.6
	c-1.3,2-3,3.8-4.9,5.4c-1.6,1.4-3.5,2.7-5.2,3.8c-15.2,9.6-33.4,14.6-51.3,14c4.9,2.1,8,9.3,5.9,14.8c-0.5,1.3-1.2,2.6-2.1,3.7
	c-1.1,1.4-2.3,2.7-3.8,3.7c-3.5,2.7-8,4.5-12.2,5.8c-25.6,7.8-53.7,5.2-78.4-5c-5-2.1-10.2-4.8-14.5-8.3
	c-5.6-4.5-9.8-10.2-10.6-17.3l27.5-16.6h0l10.6-6.4l46.1-27.9c21.1-2.1,42.5-2.2,63.6-0.1c2.2,0.2,4.4,0.5,6.6,0.8
	c5.4,0.8,10.7,2.2,15.3,5C298.2,248.1,303,255.7,301.5,263.2L301.5,263.2z"/>
<linearGradient id="SVGID_00000052825707249935375980000010076642702704129183_" gradientUnits="userSpaceOnUse" x1="45.9905" y1="924.0339" x2="257.3106" y2="924.0339" gradientTransform="matrix(1 0 0 -1 0 993.2452)">
	<stop  offset="0" style="stop-color:#F5C4B0"/>
	<stop  offset="0.26" style="stop-color:#F4BCA6"/>
	<stop  offset="0.69" style="stop-color:#F1A98D"/>
	<stop  offset="0.99" style="stop-color:#EF9977"/>
</linearGradient>
<path style="fill:url(#SVGID_00000052825707249935375980000010076642702704129183_);" d="M248.6,84.8c-1.6,2.9-3.2,5.9-4.5,8.8
	L103,125.5l-5.2,1.2L46,138.4c0.5-5.4,1.2-10.7,2.2-16l0,0C58.6,70,96.7,23.4,146.7,3.9C158.9-0.9,175.4-3,183,7.8
	c0.2,0.2,0.3,0.5,0.5,0.8c0.5,0.8,1,1.8,1.3,2.7c2.4,6.2,1.2,13.7-2,19.6c-3,5.5-7.6,10-12.4,14.2c11.7-9.2,26.6-14.5,41.5-14.6
	c2.3,0,4.7,0.1,6.6,1.4c0.2,0.1,0.4,0.3,0.6,0.4c0.7,0.5,1.2,1.1,1.5,1.8c2.7,4.8-1.9,12.7-6.7,17.1c7-3.1,14.3-6.2,22-6.5
	c5.8-0.2,12,1.6,16.2,5.5c1.1,1,2.1,2.2,2.9,3.6c0.1,0.2,0.3,0.5,0.4,0.8C260.5,64.3,254.2,74.6,248.6,84.8L248.6,84.8z"/>
<linearGradient id="SVGID_00000159430826176693349610000017351980442106372527_" gradientUnits="userSpaceOnUse" x1="89.5786" y1="934.4969" x2="184.8305" y2="934.4969" gradientTransform="matrix(1 0 0 -1 0 993.2452)">
	<stop  offset="0" style="stop-color:#F5C4B0"/>
	<stop  offset="0.26" style="stop-color:#F4BCA6"/>
	<stop  offset="0.69" style="stop-color:#F1A98D"/>
	<stop  offset="0.99" style="stop-color:#EF9977"/>
</linearGradient>
<path style="fill:url(#SVGID_00000159430826176693349610000017351980442106372527_);" d="M184.8,11.3c-28.6,18-53.6,41.8-73.4,69.3
	c-6.2,8.6-11.9,17.7-17,27c-1.6,2.9-6.1,0.3-4.5-2.6c3.9-7.1,8.2-14,12.7-20.7c21.1-30.9,48.9-56.6,80.8-75.7
	C184,9.4,184.5,10.4,184.8,11.3L184.8,11.3z"/>
<linearGradient id="SVGID_00000129884333931713365630000000745563139502026416_" gradientUnits="userSpaceOnUse" x1="177.3108" y1="941.0254" x2="220.6805" y2="941.0254" gradientTransform="matrix(1 0 0 -1 0 993.2452)">
	<stop  offset="0" style="stop-color:#F5C4B0"/>
	<stop  offset="0.26" style="stop-color:#F4BCA6"/>
	<stop  offset="0.69" style="stop-color:#F1A98D"/>
	<stop  offset="0.99" style="stop-color:#EF9977"/>
</linearGradient>
<path style="fill:url(#SVGID_00000129884333931713365630000000745563139502026416_);" d="M220.7,34.1c-14.2,9.9-27.2,22-38.3,34.9
	c-0.8,0.9-1.5,1.8-2.3,2.7c-1.4,1.7-3.7-0.7-2.4-2.4c0.1-0.2,0.3-0.3,0.4-0.5c8.4-10.4,17.8-19.8,28.4-27.9
	c4.1-3.1,8.3-5.9,12.6-8.6C219.8,32.8,220.3,33.4,220.7,34.1L220.7,34.1z"/>
<linearGradient id="SVGID_00000145033143528993187510000014294327051459483521_" gradientUnits="userSpaceOnUse" x1="213.0444" y1="920.2308" x2="255.0605" y2="920.2308" gradientTransform="matrix(1 0 0 -1 0 993.2452)">
	<stop  offset="0" style="stop-color:#F5C4B0"/>
	<stop  offset="0.26" style="stop-color:#F4BCA6"/>
	<stop  offset="0.69" style="stop-color:#F1A98D"/>
	<stop  offset="0.99" style="stop-color:#EF9977"/>
</linearGradient>
<path style="fill:url(#SVGID_00000145033143528993187510000014294327051459483521_);" d="M255.1,53.8c-4.8,3.3-9.5,6.8-13.9,10.8
	c-4.4,4-8.5,8.4-12.2,13c-4.4,5.4-8.4,11.1-11.9,17.1c-1.4,2.4-5.1,0.3-3.8-2.2c3-5.6,6.6-11.2,10.8-16.4
	c7.8-10.1,17.4-19.1,28.1-25.9C253.3,51.2,254.3,52.4,255.1,53.8L255.1,53.8z"/>
<linearGradient id="SVGID_00000131357635798759596290000009358808595473033363_" gradientUnits="userSpaceOnUse" x1="317.2683" y1="891.9532" x2="389.5905" y2="891.9532" gradientTransform="matrix(1 0 0 -1 0 993.2452)">
	<stop  offset="0" style="stop-color:#F5C4B0"/>
	<stop  offset="0.26" style="stop-color:#F4BCA6"/>
	<stop  offset="0.69" style="stop-color:#F1A98D"/>
	<stop  offset="0.99" style="stop-color:#EF9977"/>
</linearGradient>
<path style="fill:url(#SVGID_00000131357635798759596290000009358808595473033363_);" d="M389.6,74.1c-25.6,11.7-48.5,29-66.1,51.2
	c-0.6,0.8-1.2,1.5-1.8,2.3c-2.2,2.8-6-0.2-3.8-3c0.5-0.6,1-1.2,1.5-1.8c17-21.1,38.7-38.1,63.3-48.9C385,73.8,387.3,73.9,389.6,74.1
	L389.6,74.1z"/>
<linearGradient id="SVGID_00000114780011879166998330000013110480720833678527_" gradientUnits="userSpaceOnUse" x1="422.7805" y1="924.1949" x2="424.2509" y2="924.1949" gradientTransform="matrix(1 0 0 -1 0 993.2452)">
	<stop  offset="0" style="stop-color:#F5C4B0"/>
	<stop  offset="0.26" style="stop-color:#F4BCA6"/>
	<stop  offset="0.69" style="stop-color:#F1A98D"/>
	<stop  offset="0.99" style="stop-color:#EF9977"/>
</linearGradient>
<path style="fill:url(#SVGID_00000114780011879166998330000013110480720833678527_);" d="M424.2,68.9l-0.5,0.6
	c-0.3,0.4-0.7,0.2-0.9-0.1c-0.1-0.1-0.1-0.3,0.1-0.5l0,0c0,0,0.1-0.1,0.1-0.1l0.6-0.5c0.1-0.1,0.2-0.1,0.2-0.1c0,0,0.1,0,0.2,0.1
	C424.2,68.5,424.3,68.7,424.2,68.9L424.2,68.9z"/>
<linearGradient id="SVGID_00000103245288262789834360000008118212204769552052_" gradientUnits="userSpaceOnUse" x1="318.5274" y1="885.1557" x2="405.5305" y2="885.1557" gradientTransform="matrix(1 0 0 -1 0 993.2452)">
	<stop  offset="0" style="stop-color:#F5C4B0"/>
	<stop  offset="0.26" style="stop-color:#F4BCA6"/>
	<stop  offset="0.69" style="stop-color:#F1A98D"/>
	<stop  offset="0.99" style="stop-color:#EF9977"/>
</linearGradient>
<path style="fill:url(#SVGID_00000103245288262789834360000008118212204769552052_);" d="M327.2,127.9c27.5-13.7,53-30.1,78.4-47.1
	c-0.1,1.3-0.2,2.6-0.4,3.9c-22.9,18.1-48.7,33.1-74.6,46.2c-2.9,1.5-5.8,2.9-8.7,4.3c-2.4,1.2-4.6-2.5-2.1-3.6
	C322.2,130.4,324.7,129.1,327.2,127.9L327.2,127.9z"/>
<linearGradient id="SVGID_00000065071608906684145670000010738924113039101352_" gradientUnits="userSpaceOnUse" x1="422.7805" y1="924.4026" x2="424.1405" y2="924.4026" gradientTransform="matrix(1 0 0 -1 0 993.2452)">
	<stop  offset="0" style="stop-color:#F5C4B0"/>
	<stop  offset="0.26" style="stop-color:#F4BCA6"/>
	<stop  offset="0.69" style="stop-color:#F1A98D"/>
	<stop  offset="0.99" style="stop-color:#EF9977"/>
</linearGradient>
<path style="fill:url(#SVGID_00000065071608906684145670000010738924113039101352_);" d="M424.1,68.3
	C424.1,68.3,424.1,68.3,424.1,68.3c-0.5,0.4-0.9,0.8-1.3,1.2c-0.1-0.1-0.1-0.3,0.1-0.5l0,0c0.3-0.2,0.7-0.4,1-0.7
	C423.9,68.3,424,68.2,424.1,68.3C424.1,68.2,424.2,68.3,424.1,68.3L424.1,68.3z"/>
<linearGradient id="SVGID_00000152976997520731858800000017554718698774680251_" gradientUnits="userSpaceOnUse" x1="314.7723" y1="828.4777" x2="416.9705" y2="828.4777" gradientTransform="matrix(1 0 0 -1 0 993.2452)">
	<stop  offset="0" style="stop-color:#F5C4B0"/>
	<stop  offset="0.26" style="stop-color:#F4BCA6"/>
	<stop  offset="0.69" style="stop-color:#F1A98D"/>
	<stop  offset="0.99" style="stop-color:#EF9977"/>
</linearGradient>
<path style="fill:url(#SVGID_00000152976997520731858800000017554718698774680251_);" d="M417,184.4c-21.2-22.4-50.7-35.9-81.7-37.1
	c-6.6-0.3-13.2,0-19.9,0.9c-0.8,0.1-0.9-1.2-0.2-1.3c6.8-1.2,13.6-1.8,20.3-1.8c30.8,0,59.9,12.7,80.9,34.5
	C416.7,181.2,416.9,182.8,417,184.4L417,184.4z"/>
<linearGradient id="SVGID_00000171714688886006301070000007630731700586660263_" gradientUnits="userSpaceOnUse" x1="321.891" y1="814.9421" x2="412.6605" y2="814.9421" gradientTransform="matrix(1 0 0 -1 0 993.2452)">
	<stop  offset="0" style="stop-color:#F5C4B0"/>
	<stop  offset="0.26" style="stop-color:#F4BCA6"/>
	<stop  offset="0.69" style="stop-color:#F1A98D"/>
	<stop  offset="0.99" style="stop-color:#EF9977"/>
</linearGradient>
<path style="fill:url(#SVGID_00000171714688886006301070000007630731700586660263_);" d="M412.7,197.7c-2.1,0.9-4.2,1.7-6.3,2.3h0
	c-2.2-0.6-4.3-1.3-6.5-2.1c-8.6-3.2-17-7-25.4-10.8c-15.2-6.9-30-14.3-44.4-22.7c-2.4-1.4-4.8-2.9-7.2-4.3c-2.2-1.3-0.3-4.5,2-3.4
	c2.3,1.1,4.5,2.3,6.8,3.4c13.1,6.5,26.3,13.1,39.5,19.4c7.7,3.7,15.5,7.3,23.4,10.8C400.3,192.9,406.4,196.3,412.7,197.7
	L412.7,197.7z"/>
<linearGradient id="SVGID_00000163772237898076237140000001252902788788525480_" gradientUnits="userSpaceOnUse" x1="225.896" y1="730.1507" x2="299.2005" y2="730.1507" gradientTransform="matrix(1 0 0 -1 0 993.2452)">
	<stop  offset="0" style="stop-color:#F5C4B0"/>
	<stop  offset="0.26" style="stop-color:#F4BCA6"/>
	<stop  offset="0.69" style="stop-color:#F1A98D"/>
	<stop  offset="0.99" style="stop-color:#EF9977"/>
</linearGradient>
<path style="fill:url(#SVGID_00000163772237898076237140000001252902788788525480_);" d="M299.2,268.7c-1.3,2-3,3.8-4.9,5.4
	c-16.8-0.8-33.6-4.5-49.2-10.5c-6.4-2.4-12.5-5.2-18.3-8.2c-2.2-1.1-0.3-4.2,1.9-3.3c7,3.1,14,5.8,21.2,8.1c9.6,3,19.4,5.4,29.4,6.8
	C286,268.1,292.6,268.5,299.2,268.7L299.2,268.7z"/>
<linearGradient id="SVGID_00000168802216959452032800000016971895309069515149_" gradientUnits="userSpaceOnUse" x1="177.6487" y1="692.6654" x2="241.5005" y2="692.6654" gradientTransform="matrix(1 0 0 -1 0 993.2452)">
	<stop  offset="0" style="stop-color:#F5C4B0"/>
	<stop  offset="0.26" style="stop-color:#F4BCA6"/>
	<stop  offset="0.69" style="stop-color:#F1A98D"/>
	<stop  offset="0.99" style="stop-color:#EF9977"/>
</linearGradient>
<path style="fill:url(#SVGID_00000168802216959452032800000016971895309069515149_);" d="M241.5,310.4c-1.1,1.4-2.3,2.7-3.8,3.7
	c-0.5-0.1-0.9-0.1-1.4-0.2c-18.1-2.7-35.5-8.9-50.9-18.7c-2.4-1.5-4.8-3.2-7.1-4.9c-1.7-1.3-0.1-4.3,1.7-3c3.1,2.2,6.3,4.3,9.6,6.2
	c14.3,8.4,30.3,13.7,46.8,16.2C238.2,310,239.8,310.2,241.5,310.4L241.5,310.4z"/>
<linearGradient id="SVGID_00000181770260367879765940000013858531798081129399_" gradientUnits="userSpaceOnUse" x1="0" y1="804.8915" x2="335.5841" y2="804.8915" gradientTransform="matrix(1 0 0 -1 0 993.2452)">
	<stop  offset="0" style="stop-color:#F5C4B0"/>
	<stop  offset="0.26" style="stop-color:#F4BCA6"/>
	<stop  offset="0.69" style="stop-color:#F1A98D"/>
	<stop  offset="0.99" style="stop-color:#EF9977"/>
</linearGradient>
<path style="fill:url(#SVGID_00000181770260367879765940000013858531798081129399_);" d="M187.4,294.5
	c-24.7,9.8-58.1,13.8-84.7,13.4c-29.6-0.4-59.6-8.9-83.1-27.5C3.9,267.9,0,267.4,0,245.4C0,228.7,3,212,7.3,196
	c6.2-23.1,17-44.9,32.1-63.5c36.2-44.7,95.8-69.1,153-62.8c41.3,4.6,79,23.8,113.9,45.5c17.2,10.7,34.3,14.9,28.1,36.8
	C315.6,217.4,248.8,270.3,187.4,294.5L187.4,294.5z"/>
<path class="st15" d="M18.1,219.1c0.1,7.9,1.3,16,5.2,22.9c7.4,13,23,18.9,37.5,22.3c10,2.4,20.9,4,30.2-0.3
	c12-5.5,17.8-19,21.8-31.5c5.3-16.5,7.8-34.2-4.8-48C94.9,170,81.5,162,61.2,161.1C33.9,159.8,17.7,196.5,18.1,219.1L18.1,219.1z"/>
<path class="st16" d="M68.3,207c-2.4-4.5-9.5-3.4-11.7,0.7c-2.7,4.8-0.1,11.1,5.3,12.5c2.4,0.6,5,0.5,7.2-0.8
	c2.7-1.6,4.3-4.3,4.5-7.4c0.1-2.5-1-5-2.7-6.8c-0.6-0.7-1.5-1.4-2.3-1.8c-1.7-0.9-2.7-1-4.6-1.2c0.7,0.1,1.4,0.2,2,0.3
	c-0.7-0.1-1.5-0.3-2.2-0.3c-1.3,0-2.9,0.4-4,1.1c-1.2,0.8-2.3,1.8-3,3c-1.2,2.4-1.4,5.2,0,7.6c1.3,2.1,3.9,3.9,6.5,3.7
	c1.6-0.1,3.1-0.2,4.5-1.2c-0.6,0.3-1.2,0.5-1.8,0.8c0.1,0,0.1,0,0.1,0c-0.7,0.1-1.4,0.2-2,0.3c0.2,0,0.3,0,0.5,0l-2-0.3
	c0.2,0,0.3,0.1,0.5,0.1c-0.6-0.2-1.2-0.5-1.8-0.8c0.2,0.1,0.3,0.2,0.4,0.3c-0.5-0.4-1-0.8-1.5-1.2c0.2,0.1,0.3,0.3,0.5,0.5
	c-0.4-0.5-0.8-1-1.2-1.5c0.1,0.1,0.2,0.3,0.3,0.4l-0.7-1.8c0.1,0.2,0.1,0.3,0.1,0.5c-0.1-0.6-0.2-1.3-0.3-2c0,0.1,0,0.2,0,0.3
	c0.1-0.6,0.2-1.3,0.3-1.9c0,0.2-0.1,0.3-0.1,0.5c0.2-0.6,0.5-1.2,0.7-1.7c-0.1,0.1-0.1,0.2-0.2,0.3c0.4-0.5,0.8-1,1.1-1.5
	c-0.1,0.1-0.2,0.2-0.4,0.3c0.5-0.4,1-0.8,1.4-1.1c-0.1,0.1-0.3,0.2-0.4,0.2c0.6-0.2,1.1-0.5,1.7-0.7c-0.2,0.1-0.3,0.1-0.5,0.1
	c0.6-0.1,1.3-0.2,1.9-0.2c-0.3,0-0.6,0-0.9,0c0.6,0.1,1.2,0.2,1.9,0.2c-0.3-0.1-0.7-0.1-1-0.2c0.5,0.2,1.1,0.5,1.6,0.7
	c-0.1-0.1-0.3-0.1-0.4-0.2c0.4,0.4,0.9,0.7,1.4,1c-0.1-0.1-0.2-0.2-0.4-0.3c0.3,0.5,0.7,0.9,1,1.3c-0.1-0.2-0.2-0.3-0.3-0.5
	c0.2,0.5,0.4,1,0.6,1.5c-0.1-0.1-0.1-0.3-0.1-0.4c0.1,0.6,0.1,1.1,0.2,1.7c-0.1-0.8-0.2-1.6-0.3-2.4c0.1,0.5,0.1,1.1,0.2,1.6
	c0-0.2,0-0.4,0-0.5c-0.1,0.5-0.1,1-0.2,1.5c0-0.2,0.1-0.5,0.2-0.7c-0.2,0.4-0.4,0.8-0.5,1.3c0.1-0.1,0.1-0.2,0.2-0.3
	c0.2-0.4,0.3-1.1,0.6-1.4c0.3-0.3-0.5,1.1-0.3,0.7c0.2-0.3-0.8,0.9-0.4,0.5C68.9,210.3,69,208.5,68.3,207L68.3,207L68.3,207z"/>
<linearGradient id="SVGID_00000084492116695583280860000002771883923043322299_" gradientUnits="userSpaceOnUse" x1="92.6587" y1="793.7109" x2="164.5182" y2="793.7109" gradientTransform="matrix(1 0 0 -1 0 993.2452)">
	<stop  offset="0" style="stop-color:#F5C4B0"/>
	<stop  offset="0.26" style="stop-color:#F4BCA6"/>
	<stop  offset="0.69" style="stop-color:#F1A98D"/>
	<stop  offset="0.99" style="stop-color:#EF9977"/>
</linearGradient>
<path style="fill:url(#SVGID_00000084492116695583280860000002771883923043322299_);" d="M93.5,124.2
	c52.6,28.8,76.4,92.4,55.9,148.8c-1.8,5,6.2,7.2,7.9,2.2c10.6-30.5,9.5-64.2-3.9-93.7c-11.8-26-32.8-47.4-58.2-60.2
	C93.3,120.3,91.6,123.2,93.5,124.2L93.5,124.2L93.5,124.2z"/>
<linearGradient id="SVGID_00000005227342585740908460000006851322343924123326_" gradientUnits="userSpaceOnUse" x1="152.8311" y1="810.2589" x2="198.8384" y2="810.2589" gradientTransform="matrix(1 0 0 -1 0 993.2452)">
	<stop  offset="0" style="stop-color:#F5C4B0"/>
	<stop  offset="0.26" style="stop-color:#F4BCA6"/>
	<stop  offset="0.69" style="stop-color:#F1A98D"/>
	<stop  offset="0.99" style="stop-color:#EF9977"/>
</linearGradient>
<path style="fill:url(#SVGID_00000005227342585740908460000006851322343924123326_);" d="M155,187.7c4.1-5.6,5.8-12.7,10-18.4
	c0.5-0.6,5.2-7.1,6.1-6.7c2.8,1.3-3.8,7.4-4.4,8c-3,2.8-1.8,9,2.6,9.8c2.9,0.5,5.7,1.2,8.4,2.4c1.5,0.7,3,1.5,4.3,2.4
	c1.1,0.8,2.7,2.8,3.8,3.1c0.9,0.3,3.5-0.3,2.7-1.3c-0.5-0.5-2.5-0.9-3.2-1.1c-2.2-0.7-4.5-1.2-6.9-0.9c-5.4,0.7-9.1,8.3-3.1,11.4
	c2.1,1.1,4.1,2.3,5.8,4c0.9,0.8,1.7,1.7,2.4,2.7c1,2.7,2.5,2.1,4.2-1.8c-0.5-0.9-5.4-2.6-6.5-3.1c-2.3-1.1-4.5-2.3-6.8-3.4
	c-4.8-2.4-8.2-4-6.9-9.9c0.7-3.1,2.2-9.1,5.8-9.7c-2.7-1.5-5.5-3.1-8.2-4.7c1.7,8,3.3,16.1,5,24.1l8.3-8.3c-1.1-0.3-1.8-1-2.1-2.1
	c-3-5-12.6-3.3-11.8,3.2c0.8,6.2,4.1,10.3,10.3,11.9c5.2,1.4,9.4-3.3,8.3-8.3c-1.7-8-3.5-16-5.2-24c-0.8-3.8-4.8-5.2-8.2-4.7
	c-9.6,1.5-14.1,13.3-15.4,21.7c-2.2,13.1,7.1,18.7,17.6,23.6c6.6,3.1,20.5,11.4,24.7,0.3c3.4-8.9-8.4-18.6-15.2-22.1
	c-1,3.8-2.1,7.6-3.1,11.4c4.5-0.6,8.3,3,13.1,2c4.9-1.1,7.9-5.8,7.5-10.6c-1.1-11.7-16.6-18-26.5-19.4c0.9,3.3,1.7,6.5,2.6,9.8
	c4.5-4.6,9-10.3,7.6-17.2c-1.2-5.7-6.7-10.5-12.7-9.1c-6.2,1.4-10.3,9-12.7,14.3c-2.8,6-5.8,14.1-3.3,20.6
	C154,188.1,154.6,188.2,155,187.7L155,187.7L155,187.7z"/>
<linearGradient id="SVGID_00000077298575347474154580000012205887120473651626_" gradientUnits="userSpaceOnUse" x1="129.3576" y1="873.9368" x2="153.4137" y2="873.9368" gradientTransform="matrix(1 0 0 -1 0 993.2452)">
	<stop  offset="0" style="stop-color:#F5C4B0"/>
	<stop  offset="0.26" style="stop-color:#F4BCA6"/>
	<stop  offset="0.69" style="stop-color:#F1A98D"/>
	<stop  offset="0.99" style="stop-color:#EF9977"/>
</linearGradient>
<path style="fill:url(#SVGID_00000077298575347474154580000012205887120473651626_);" d="M129.4,108.5c0.7,1.8,1.7,2.4,3.3,3.7
	c2.2,1.7,4.2,3.4,6,5.5c3.2,3.8,5.5,8.5,7.8,12.9c2.1,4,7.5,1.1,6.8-2.9c-1.1-6-4.4-10.8-8.9-14.8c-3.2-2.8-9.3-8-13.8-6.4
	C129.8,106.8,129.1,107.7,129.4,108.5L129.4,108.5L129.4,108.5z"/>
<linearGradient id="SVGID_00000005986761038684541540000016065230361310756280_" gradientUnits="userSpaceOnUse" x1="185.8233" y1="748.377" x2="194.9525" y2="748.377" gradientTransform="matrix(1 0 0 -1 0 993.2452)">
	<stop  offset="0" style="stop-color:#F5C4B0"/>
	<stop  offset="0.26" style="stop-color:#F4BCA6"/>
	<stop  offset="0.69" style="stop-color:#F1A98D"/>
	<stop  offset="0.99" style="stop-color:#EF9977"/>
</linearGradient>
<path style="fill:url(#SVGID_00000005986761038684541540000016065230361310756280_);" d="M189.2,230.1c0.9,4.6,2.1,8.8,1.7,13.5
	c-0.4,5-2.4,9.5-4.8,13.9c-1.1,2,1.7,4.4,3.2,2.5c6.3-8.1,8.2-22.3,1.1-30.6C189.9,228.7,189.1,229.4,189.2,230.1L189.2,230.1
	L189.2,230.1z"/>
<linearGradient id="SVGID_00000095316199467169456300000013590042322516862653_" gradientUnits="userSpaceOnUse" x1="147.5335" y1="898.9156" x2="164.737" y2="898.9156" gradientTransform="matrix(1 0 0 -1 0 993.2452)">
	<stop  offset="0" style="stop-color:#F5C4B0"/>
	<stop  offset="0.26" style="stop-color:#F4BCA6"/>
	<stop  offset="0.69" style="stop-color:#F1A98D"/>
	<stop  offset="0.99" style="stop-color:#EF9977"/>
</linearGradient>
<path style="fill:url(#SVGID_00000095316199467169456300000013590042322516862653_);" d="M148.2,85.6c6.3,4.3,10.3,10.7,11.5,18.2
	c0.5,3.2,5.8,1.9,4.9-1.4c-2.2-8.3-7.5-15.2-15.1-19.2C148,82.3,146.7,84.6,148.2,85.6L148.2,85.6z"/>
<linearGradient id="SVGID_00000169544869246840576620000003231845366701629102_" gradientUnits="userSpaceOnUse" x1="186.6544" y1="882.9816" x2="200.1301" y2="882.9816" gradientTransform="matrix(1 0 0 -1 0 993.2452)">
	<stop  offset="0" style="stop-color:#F5C4B0"/>
	<stop  offset="0.26" style="stop-color:#F4BCA6"/>
	<stop  offset="0.69" style="stop-color:#F1A98D"/>
	<stop  offset="0.99" style="stop-color:#EF9977"/>
</linearGradient>
<path style="fill:url(#SVGID_00000169544869246840576620000003231845366701629102_);" d="M186.8,99.6c1.7,3.4,4,6.2,5.5,9.8
	c1.4,3.5,2,7.3,2.6,11c0.5,3.1,5.1,2.2,5.2-0.7c0.4-7.9-4.5-18.5-12.3-21.4C187,97.9,186.4,99,186.8,99.6L186.8,99.6L186.8,99.6z"/>
<linearGradient id="SVGID_00000047778144819928664650000016314758367767024828_" gradientUnits="userSpaceOnUse" x1="212.839" y1="902.4182" x2="225.7746" y2="902.4182" gradientTransform="matrix(1 0 0 -1 0 993.2452)">
	<stop  offset="0" style="stop-color:#F5C4B0"/>
	<stop  offset="0.26" style="stop-color:#F4BCA6"/>
	<stop  offset="0.69" style="stop-color:#F1A98D"/>
	<stop  offset="0.99" style="stop-color:#EF9977"/>
</linearGradient>
<path style="fill:url(#SVGID_00000047778144819928664650000016314758367767024828_);" d="M213.2,83.8c4.3,3.8,6.5,8.6,7.9,14.1
	c0.8,3.1,5.3,1.8,4.7-1.3c-1.2-6.3-5.8-11.4-11.4-14.4C213.4,81.7,212.3,83,213.2,83.8L213.2,83.8L213.2,83.8z"/>
<linearGradient id="SVGID_00000162327467723532401850000013508992717596635070_" gradientUnits="userSpaceOnUse" x1="171.0012" y1="855.6481" x2="185.5109" y2="855.6481" gradientTransform="matrix(1 0 0 -1 0 993.2452)">
	<stop  offset="0" style="stop-color:#F5C4B0"/>
	<stop  offset="0.26" style="stop-color:#F4BCA6"/>
	<stop  offset="0.69" style="stop-color:#F1A98D"/>
	<stop  offset="0.99" style="stop-color:#EF9977"/>
</linearGradient>
<path style="fill:url(#SVGID_00000162327467723532401850000013508992717596635070_);" d="M171.1,125c6.5,6.5,10.1,14.4,9.8,23.7
	c-0.1,2.4,3.6,2.9,4.1,0.6c2.2-10.2-3.2-21.7-13.5-24.9C171.1,124.3,170.8,124.8,171.1,125L171.1,125z"/>
<linearGradient id="SVGID_00000139985719224610969490000016905715992723566722_" gradientUnits="userSpaceOnUse" x1="218.0349" y1="855.0236" x2="229.5198" y2="855.0236" gradientTransform="matrix(1 0 0 -1 0 993.2452)">
	<stop  offset="0" style="stop-color:#F5C4B0"/>
	<stop  offset="0.26" style="stop-color:#F4BCA6"/>
	<stop  offset="0.69" style="stop-color:#F1A98D"/>
	<stop  offset="0.99" style="stop-color:#EF9977"/>
</linearGradient>
<path style="fill:url(#SVGID_00000139985719224610969490000016905715992723566722_);" d="M218.2,127.6c2.1,3.1,4.1,5.6,5.2,9.3
	c1.1,3.5,1.2,7,1,10.6c-0.1,2.7,4.3,3.4,4.8,0.6c1.3-7.8-2.4-18.2-10-21.7C218.6,126.2,217.7,126.9,218.2,127.6L218.2,127.6
	L218.2,127.6z"/>
<linearGradient id="SVGID_00000006682569036027893230000006274382905066566299_" gradientUnits="userSpaceOnUse" x1="246.9573" y1="873.1129" x2="256.396" y2="873.1129" gradientTransform="matrix(1 0 0 -1 0 993.2452)">
	<stop  offset="0" style="stop-color:#F5C4B0"/>
	<stop  offset="0.26" style="stop-color:#F4BCA6"/>
	<stop  offset="0.69" style="stop-color:#F1A98D"/>
	<stop  offset="0.99" style="stop-color:#EF9977"/>
</linearGradient>
<path style="fill:url(#SVGID_00000006682569036027893230000006274382905066566299_);" d="M247.1,108.1c4.8,7,5.4,14.7,3.6,22.8
	c-0.6,2.9,3.4,4,4.4,1.2c3.2-8.9,0-18.6-6.4-25.3C248,106,246.4,107.1,247.1,108.1L247.1,108.1z"/>
<linearGradient id="SVGID_00000032615502115018541970000006989793089658639805_" gradientUnits="userSpaceOnUse" x1="204.4353" y1="824.5892" x2="218.4813" y2="824.5892" gradientTransform="matrix(1 0 0 -1 0 993.2452)">
	<stop  offset="0" style="stop-color:#F5C4B0"/>
	<stop  offset="0.26" style="stop-color:#F4BCA6"/>
	<stop  offset="0.69" style="stop-color:#F1A98D"/>
	<stop  offset="0.99" style="stop-color:#EF9977"/>
</linearGradient>
<path style="fill:url(#SVGID_00000032615502115018541970000006989793089658639805_);" d="M204.5,154.4c5.5,8.5,9.1,16.7,8.4,27
	c-0.2,3.5,5,3.4,5.3,0c1.1-10.5-3.2-22.6-12.9-27.9C204.9,153.1,204.2,153.8,204.5,154.4L204.5,154.4L204.5,154.4z"/>
<linearGradient id="SVGID_00000110462624784441883080000014475145438714800553_" gradientUnits="userSpaceOnUse" x1="215.706" y1="766.7809" x2="227.564" y2="766.7809" gradientTransform="matrix(1 0 0 -1 0 993.2452)">
	<stop  offset="0" style="stop-color:#F5C4B0"/>
	<stop  offset="0.26" style="stop-color:#F4BCA6"/>
	<stop  offset="0.69" style="stop-color:#F1A98D"/>
	<stop  offset="0.99" style="stop-color:#EF9977"/>
</linearGradient>
<path style="fill:url(#SVGID_00000110462624784441883080000014475145438714800553_);" d="M215.8,210.7c1.4,4.4,3.8,8.2,4.6,12.9
	c0.9,5.2,0.4,10.5-1.3,15.5c-1.5,4.6,6,6.7,7.3,2c2.7-10.1,1.2-25.7-8.8-31.7C216.7,208.8,215.4,209.7,215.8,210.7L215.8,210.7
	L215.8,210.7z"/>
<linearGradient id="SVGID_00000055691737686944722150000006430861902391309988_" gradientUnits="userSpaceOnUse" x1="237.6831" y1="794.0638" x2="246.4375" y2="794.0638" gradientTransform="matrix(1 0 0 -1 0 993.2452)">
	<stop  offset="0" style="stop-color:#F5C4B0"/>
	<stop  offset="0.26" style="stop-color:#F4BCA6"/>
	<stop  offset="0.69" style="stop-color:#F1A98D"/>
	<stop  offset="0.99" style="stop-color:#EF9977"/>
</linearGradient>
<path style="fill:url(#SVGID_00000055691737686944722150000006430861902391309988_);" d="M239.3,183.6c4.5,10,3.8,18.4-1.3,28
	c-1.5,2.8,2.4,5,4.2,2.5c6.5-8.8,5.2-23.1-2.4-30.9C239.6,182.9,239.2,183.3,239.3,183.6L239.3,183.6L239.3,183.6z"/>
<linearGradient id="SVGID_00000048469718301299527290000007716643662820743835_" gradientUnits="userSpaceOnUse" x1="250.6805" y1="827.0042" x2="262.5704" y2="827.0042" gradientTransform="matrix(1 0 0 -1 0 993.2452)">
	<stop  offset="0" style="stop-color:#F5C4B0"/>
	<stop  offset="0.26" style="stop-color:#F4BCA6"/>
	<stop  offset="0.69" style="stop-color:#F1A98D"/>
	<stop  offset="0.99" style="stop-color:#EF9977"/>
</linearGradient>
<path style="fill:url(#SVGID_00000048469718301299527290000007716643662820743835_);" d="M250.8,153.6c4.1,7.5,6.6,14.1,5.1,22.8
	c-0.7,4,5.3,5.7,6.1,1.7c1.9-9.3-1.3-20.8-9.9-25.8C251.3,151.7,250.3,152.8,250.8,153.6L250.8,153.6L250.8,153.6z"/>
<linearGradient id="SVGID_00000029008969504755511340000011892377146267578511_" gradientUnits="userSpaceOnUse" x1="275.8748" y1="795.6391" x2="286.8657" y2="795.6391" gradientTransform="matrix(1 0 0 -1 0 993.2452)">
	<stop  offset="0" style="stop-color:#F5C4B0"/>
	<stop  offset="0.26" style="stop-color:#F4BCA6"/>
	<stop  offset="0.69" style="stop-color:#F1A98D"/>
	<stop  offset="0.99" style="stop-color:#EF9977"/>
</linearGradient>
<path style="fill:url(#SVGID_00000029008969504755511340000011892377146267578511_);" d="M275.9,183.5c0.8,4.3,2.6,8.3,3.4,12.7
	c0.8,4.7,0.6,9.4,0.5,14.2c-0.1,3.7,5.9,4.7,6.5,0.9c1.6-9.5-0.5-22.4-7.8-29.3C277.4,180.8,275.6,182,275.9,183.5L275.9,183.5
	L275.9,183.5z"/>
<linearGradient id="SVGID_00000075845645641082575180000014710602778308761779_" gradientUnits="userSpaceOnUse" x1="272.9205" y1="854.9925" x2="282.0605" y2="854.9925" gradientTransform="matrix(1 0 0 -1 0 993.2452)">
	<stop  offset="0" style="stop-color:#F5C4B0"/>
	<stop  offset="0.26" style="stop-color:#F4BCA6"/>
	<stop  offset="0.69" style="stop-color:#F1A98D"/>
	<stop  offset="0.99" style="stop-color:#EF9977"/>
</linearGradient>
<path style="fill:url(#SVGID_00000075845645641082575180000014710602778308761779_);" d="M273.1,125.3c3.8,8.5,4.9,15.6,2.1,24.7
	c-0.9,2.7,3.5,4.6,4.7,2c4-9,2.9-21.3-4.7-28.2C274,122.6,272.4,124,273.1,125.3L273.1,125.3L273.1,125.3z"/>
<linearGradient id="SVGID_00000031917726760328236150000008209285010735775661_" gradientUnits="userSpaceOnUse" x1="300.3625" y1="842.7274" x2="312.4952" y2="842.7274" gradientTransform="matrix(1 0 0 -1 0 993.2452)">
	<stop  offset="0" style="stop-color:#F5C4B0"/>
	<stop  offset="0.26" style="stop-color:#F4BCA6"/>
	<stop  offset="0.69" style="stop-color:#F1A98D"/>
	<stop  offset="0.99" style="stop-color:#EF9977"/>
</linearGradient>
<path style="fill:url(#SVGID_00000031917726760328236150000008209285010735775661_);" d="M300.5,136.4c4.2,9,6.2,17.2,5.1,27.2
	c-0.4,3.6,5.9,4.5,6.4,0.9c1.7-10.6-1.2-22.3-9.2-29.8C301.6,133.5,299.8,134.9,300.5,136.4L300.5,136.4z"/>
</svg>
