<?xml version="1.0" encoding="UTF-8"?><svg id="sealife" xmlns="http://www.w3.org/2000/svg" xmlns:xlink="http://www.w3.org/1999/xlink" viewBox="0 0 2072.73 1166.38"><defs><style>.cls-1{fill:#fff;}.cls-2{fill:#0b2a54;}.cls-3{fill:url(#orange-5);}.cls-4{fill:url(#orange-4);}.cls-5{fill:url(#orange-8);}.cls-6{fill:url(#orange-9);}.cls-7{fill:url(#orange-6);}.cls-8{fill:url(#orange-3);}.cls-9{fill:url(#orange-7);}.cls-10{fill:url(#orange-2);}.cls-11{fill:url(#orange-16);}.cls-12{fill:url(#orange-18);}.cls-13{fill:url(#orange-19);}.cls-14{fill:url(#orange-31);}.cls-15{fill:url(#orange-30);}.cls-16{fill:url(#orange-17);}.cls-17{fill:url(#orange-32);}.cls-18{fill:url(#orange-15);}.cls-19{fill:url(#orange-14);}.cls-20{fill:url(#orange-12);}.cls-21{fill:url(#orange-13);}.cls-22{fill:url(#orange-11);}.cls-23{fill:url(#orange-10);}.cls-24{fill:url(#orange-24);}.cls-25{fill:url(#orange-25);}.cls-26{fill:url(#orange-22);}.cls-27{fill:url(#orange-23);}.cls-28{fill:url(#orange-20);}.cls-29{fill:url(#orange-21);}.cls-30{fill:url(#orange-28);}.cls-31{fill:url(#orange-26);}.cls-32{fill:url(#orange-27);}.cls-33{fill:url(#orange-29);}.cls-34{fill:url(#orange);}</style><linearGradient id="orange" x1="402.24" y1="224.8" x2="517.47" y2="224.8" gradientUnits="userSpaceOnUse"><stop offset="0" stop-color="#f5c4b0"/><stop offset=".26" stop-color="#f4bca6"/><stop offset=".69" stop-color="#f1a98d"/><stop offset=".99" stop-color="#ef9977"/></linearGradient><linearGradient id="orange-2" x1="222.42" y1="367.04" x2="402.24" y2="367.04" xlink:href="#orange"/><linearGradient id="orange-3" x1="146.43" y1="155.58" x2="357.75" y2="155.58" xlink:href="#orange"/><linearGradient id="orange-4" x1="190.02" y1="145.13" x2="285.27" y2="145.13" xlink:href="#orange"/><linearGradient id="orange-5" x1="277.75" y1="138.61" x2="321.12" y2="138.61" xlink:href="#orange"/><linearGradient id="orange-6" x1="313.49" y1="159.39" x2="355.5" y2="159.39" xlink:href="#orange"/><linearGradient id="orange-7" x1="417.71" y1="187.67" x2="490.02" y2="187.67" xlink:href="#orange"/><linearGradient id="orange-8" x1="523.22" y1="155.43" x2="524.69" y2="155.43" xlink:href="#orange"/><linearGradient id="orange-9" x1="418.98" y1="194.46" x2="505.97" y2="194.46" xlink:href="#orange"/><linearGradient id="orange-10" x1="523.22" y1="155.22" x2="524.58" y2="155.22" xlink:href="#orange"/><linearGradient id="orange-11" x1="415.21" y1="251.13" x2="517.41" y2="251.13" xlink:href="#orange"/><linearGradient id="orange-12" x1="422.33" y1="264.68" x2="513.1" y2="264.68" xlink:href="#orange"/><linearGradient id="orange-13" x1="326.34" y1="349.47" x2="399.64" y2="349.47" xlink:href="#orange"/><linearGradient id="orange-14" x1="278.08" y1="386.96" x2="341.93" y2="386.96" xlink:href="#orange"/><linearGradient id="orange-15" x1="100.43" y1="274.72" x2="436.01" y2="274.72" xlink:href="#orange"/><linearGradient id="orange-16" x1="193.1" y1="285.9" x2="264.96" y2="285.9" xlink:href="#orange"/><linearGradient id="orange-17" x1="253.28" y1="269.35" x2="299.28" y2="269.35" xlink:href="#orange"/><linearGradient id="orange-18" x1="229.79" y1="205.68" x2="253.85" y2="205.68" xlink:href="#orange"/><linearGradient id="orange-19" x1="286.27" y1="331.25" x2="295.4" y2="331.25" xlink:href="#orange"/><linearGradient id="orange-20" x1="247.97" y1="180.71" x2="265.18" y2="180.71" xlink:href="#orange"/><linearGradient id="orange-21" x1="287.1" y1="196.64" x2="300.57" y2="196.64" xlink:href="#orange"/><linearGradient id="orange-22" x1="313.27" y1="177.21" x2="326.21" y2="177.21" xlink:href="#orange"/><linearGradient id="orange-23" x1="271.44" y1="223.98" x2="285.95" y2="223.98" xlink:href="#orange"/><linearGradient id="orange-24" x1="318.47" y1="224.6" x2="329.96" y2="224.6" xlink:href="#orange"/><linearGradient id="orange-25" x1="347.39" y1="206.51" x2="356.83" y2="206.51" xlink:href="#orange"/><linearGradient id="orange-26" x1="304.87" y1="255.03" x2="318.92" y2="255.03" xlink:href="#orange"/><linearGradient id="orange-27" x1="316.14" y1="312.84" x2="328" y2="312.84" xlink:href="#orange"/><linearGradient id="orange-28" x1="338.13" y1="285.56" x2="346.89" y2="285.56" xlink:href="#orange"/><linearGradient id="orange-29" x1="351.12" y1="252.62" x2="363" y2="252.62" xlink:href="#orange"/><linearGradient id="orange-30" x1="376.32" y1="283.98" x2="387.3" y2="283.98" xlink:href="#orange"/><linearGradient id="orange-31" x1="373.36" y1="224.62" x2="382.5" y2="224.62" xlink:href="#orange"/><linearGradient id="orange-32" x1="400.8" y1="236.9" x2="412.93" y2="236.9" xlink:href="#orange"/></defs><path class="cls-34" d="M516.32,282.58c-1.06,.55-2.12,1.06-3.21,1.52-2.06,.9-4.17,1.67-6.32,2.31h-.01c-13.68,4.14-28.77,3.45-42.99,.85-8.09-1.48-16.21-3.59-23.26-7.84-4.78-2.89-10.69-8.04-16.39-14.26-11.24-12.2-21.78-28.55-21.88-40.03-.07-7.27,2.68-14.81,6.97-21.97h0c7.88-13.11,20.91-24.86,31.37-31.12,12.77-7.64,27.63-11.66,42.51-11.8,2.31-.04,4.63,.04,6.93,.21,5.46,.38,10.86,1.3,16.13,2.76-.01,1.3-.07,2.6-.18,3.89-.08,1.3-.24,2.61-.43,3.9-3.85,26.44-25.74,49.79-52.25,54.3,20.85,1.16,43.69,6.08,56.11,22.87,3.87,5.23,6.4,11.41,7.47,17.83,.27,1.59,.44,3.19,.52,4.8,.21,3.95-.14,7.92-1.09,11.77Z"/><path class="cls-10" d="M401.97,349.55c-.4,2.02-1.22,3.87-2.32,5.56-1.29,2.02-3,3.82-4.9,5.43-1.65,1.41-3.45,2.67-5.25,3.82-15.21,9.65-33.35,14.56-51.34,13.97,4.87,2.15,8.01,9.33,5.85,14.79-.53,1.34-1.23,2.56-2.06,3.67-1.06,1.41-2.34,2.66-3.77,3.74-3.52,2.72-7.96,4.53-12.25,5.84-25.56,7.78-53.72,5.16-78.4-5.05-5.04-2.08-10.19-4.83-14.52-8.29-5.63-4.51-9.84-10.24-10.57-17.3l27.52-16.63h.01l10.56-6.38,46.15-27.88c21.12-2.15,42.45-2.18,63.57-.13,2.18,.21,4.38,.45,6.56,.79,5.41,.81,10.7,2.18,15.32,5.02,6.49,3.97,11.34,11.59,9.86,19.05Z"/><path class="cls-8" d="M349.05,171.15c-1.64,2.95-3.21,5.91-4.45,8.84l-141.14,31.92-5.22,1.17-51.81,11.72c.46-5.37,1.22-10.7,2.25-15.98h0c10.34-52.47,48.47-99.09,98.43-118.56,12.26-4.77,28.75-6.84,36.32,3.94,.18,.25,.34,.51,.5,.77,.53,.85,.98,1.76,1.34,2.68,2.42,6.18,1.23,13.66-2.03,19.59-3.04,5.54-7.56,10.03-12.35,14.21,11.74-9.24,26.59-14.49,41.54-14.58,2.28-.01,4.67,.12,6.57,1.36,.2,.13,.38,.26,.56,.4,.66,.52,1.17,1.13,1.55,1.79,2.72,4.82-1.91,12.66-6.68,17.14,7.03-3.12,14.3-6.25,21.99-6.51,5.82-.19,12,1.65,16.18,5.52,1.13,1.04,2.11,2.23,2.89,3.58,.15,.25,.3,.51,.43,.77,5.01,9.75-1.26,20.03-6.88,30.22Z"/><path class="cls-4" d="M285.27,97.65c-28.62,18.05-53.62,41.82-73.38,69.35-6.2,8.65-11.88,17.66-17.01,26.99-1.62,2.95-6.13,.32-4.52-2.63,3.91-7.13,8.16-14.03,12.71-20.68,21.12-30.85,48.91-56.55,80.85-75.71,.53,.85,.98,1.76,1.34,2.68Z"/><path class="cls-3" d="M321.12,120.43c-14.22,9.89-27.18,22.01-38.3,34.87-.78,.89-1.55,1.8-2.31,2.7-1.39,1.66-3.69-.71-2.36-2.36,.13-.17,.27-.33,.42-.5,8.41-10.38,17.76-19.81,28.38-27.93,4.06-3.11,8.28-5.94,12.62-8.58,.66,.52,1.17,1.13,1.55,1.79Z"/><path class="cls-7" d="M355.5,140.16c-4.84,3.29-9.5,6.82-13.86,10.82-4.41,4.03-8.47,8.4-12.22,13.02-4.4,5.4-8.35,11.15-11.9,17.15-1.42,2.41-5.08,.26-3.75-2.19,3.05-5.62,6.65-11.16,10.75-16.44,7.8-10.06,17.36-19.14,28.09-25.94,1.13,1.04,2.11,2.23,2.89,3.58Z"/><path class="cls-9" d="M490.02,160.46c-25.58,11.73-48.5,29.03-66.05,51.23-.6,.75-1.2,1.51-1.78,2.28-2.16,2.82-6.01-.2-3.84-2.97,.49-.62,.97-1.23,1.46-1.84,16.98-21.1,38.69-38.06,63.29-48.91,2.31-.04,4.63,.04,6.93,.21Z"/><path class="cls-5" d="M524.63,155.29l-.5,.64c-.3,.4-.72,.24-.87-.06-.07-.15-.06-.34,.08-.51h0s.07-.07,.11-.11l.64-.5c.07-.06,.15-.07,.23-.06,.05,0,.11,.01,.15,.05,.18,.11,.3,.36,.15,.55Z"/><path class="cls-6" d="M427.61,214.25c27.5-13.68,53-30.07,78.36-47.13-.08,1.3-.24,2.61-.43,3.9-22.94,18.09-48.68,33.14-74.63,46.23-2.91,1.47-5.82,2.91-8.73,4.33-2.44,1.19-4.58-2.49-2.13-3.65,2.54-1.2,5.05-2.42,7.56-3.68Z"/><path class="cls-23" d="M524.56,154.66s-.06,.05-.08,.08c-.4,.37-.81,.75-1.21,1.13-.07-.15-.06-.34,.08-.51h0c.32-.23,.65-.45,.97-.66,.06-.05,.11-.08,.17-.12,.06-.04,.12,.05,.07,.08Z"/><path class="cls-22" d="M517.41,270.81c-21.21-22.45-50.66-35.89-81.68-37.12-6.57-.27-13.21,.01-19.87,.88-.75,.09-.9-1.17-.18-1.3,6.8-1.22,13.57-1.81,20.28-1.8,30.75,.04,59.92,12.66,80.92,34.55,.27,1.59,.44,3.19,.52,4.8Z"/><path class="cls-20" d="M513.1,284.1c-2.06,.9-4.17,1.67-6.32,2.31h-.01c-2.16-.58-4.32-1.32-6.48-2.11-8.61-3.17-17.01-7.01-25.37-10.77-15.23-6.86-30.02-14.3-44.42-22.67-2.42-1.41-4.83-2.85-7.22-4.31-2.16-1.32-.26-4.47,1.97-3.37,2.28,1.14,4.55,2.27,6.83,3.4,13.13,6.54,26.27,13.05,39.48,19.39,7.74,3.71,15.55,7.31,23.41,10.77,5.81,2.55,11.84,5.95,18.12,7.34Z"/><path class="cls-21" d="M399.64,355.12c-1.29,2.02-3,3.82-4.9,5.43-16.76-.75-33.65-4.55-49.17-10.47-6.36-2.42-12.48-5.18-18.27-8.24-2.19-1.15-.26-4.23,1.91-3.26,6.95,3.1,14.03,5.82,21.23,8.11,9.57,3.05,19.36,5.35,29.37,6.8,6.62,.95,13.22,1.43,19.83,1.64Z"/><path class="cls-19" d="M341.93,396.79c-1.06,1.41-2.34,2.66-3.77,3.74-.45-.06-.9-.12-1.35-.19-18.1-2.7-35.53-8.88-50.89-18.74-2.42-1.54-4.79-3.19-7.1-4.92-1.74-1.3-.06-4.28,1.74-2.97,3.1,2.24,6.29,4.33,9.56,6.24,14.34,8.41,30.32,13.69,46.81,16.19,1.67,.25,3.34,.47,5.01,.65Z"/><path class="cls-18" d="M287.8,380.88c-24.74,9.76-58.05,13.83-84.67,13.44-29.63-.44-59.61-8.9-83.05-27.51-15.73-12.49-19.69-13.01-19.64-35.07,.04-16.62,3.01-33.32,7.3-49.35,6.18-23.07,17.01-44.94,32.07-63.51,36.2-44.65,95.83-69.12,152.96-62.77,41.31,4.59,79.03,23.84,113.86,45.5,17.17,10.68,34.33,14.87,28.08,36.77-18.63,65.35-85.52,118.29-146.9,142.51Z"/><path class="cls-1" d="M118.51,305.46c.12,7.92,1.26,16.05,5.19,22.93,7.42,13.01,22.95,18.85,37.53,22.29,10,2.35,20.9,3.96,30.22-.33,11.96-5.51,17.83-18.97,21.82-31.52,5.27-16.55,7.83-34.22-4.77-48.04-13.16-14.42-26.52-22.38-46.82-23.31-27.35-1.26-43.5,35.43-43.17,57.99Z"/><path class="cls-2" d="M168.72,293.42c-2.39-4.51-9.49-3.35-11.73,.7-2.66,4.8-.05,11.11,5.29,12.55,2.39,.65,5.03,.45,7.2-.81,2.71-1.57,4.3-4.34,4.46-7.44,.13-2.52-.99-4.99-2.68-6.82-.65-.71-1.48-1.35-2.32-1.81-1.66-.92-2.73-.97-4.61-1.21,.68,.09,1.36,.18,2.03,.27-.66-.1-1.52-.3-2.19-.3-1.31,0-2.88,.41-3.96,1.09-1.17,.75-2.33,1.8-2.98,3.05-1.24,2.43-1.41,5.16,0,7.58,1.26,2.15,3.9,3.91,6.48,3.72,1.62-.12,3.08-.22,4.47-1.17-.61,.26-1.22,.51-1.83,.77,.05-.02,.1-.03,.15-.05-.67,.09-1.35,.18-2.02,.27,.17-.01,.31,0,.48,.01l-2.01-.27c.17,.04,.32,.08,.48,.15-.6-.25-1.2-.51-1.8-.76,.16,.08,.3,.16,.45,.27-.5-.39-1.01-.78-1.51-1.17,.19,.15,.34,.31,.49,.49-.39-.5-.77-1-1.16-1.5,.1,.15,.18,.28,.26,.44l-.74-1.76c.06,.16,.1,.31,.14,.48-.09-.65-.17-1.3-.26-1.95,.01,.11,.02,.22,0,.33,.09-.65,.17-1.29,.26-1.94-.03,.18-.07,.33-.14,.5,.24-.58,.49-1.16,.73-1.73-.05,.1-.11,.2-.17,.29,.38-.49,.75-.98,1.13-1.46-.11,.13-.21,.24-.35,.34,.48-.37,.97-.75,1.45-1.12-.14,.09-.27,.17-.42,.24,.57-.24,1.14-.48,1.71-.72-.16,.06-.31,.1-.48,.13,.63-.08,1.26-.17,1.89-.25-.29,.04-.56,.04-.85,0,.62,.08,1.25,.17,1.87,.25-.33-.07-.66-.12-.98-.25,.54,.23,1.09,.46,1.63,.69-.15-.07-.28-.15-.42-.25,.45,.35,.91,.7,1.36,1.05-.13-.11-.24-.21-.35-.34,.34,.45,.69,.89,1.03,1.34-.11-.16-.18-.3-.26-.47,.22,.52,.44,1.03,.65,1.55-.05-.13-.08-.26-.11-.4,.08,.57,.15,1.13,.23,1.7-.09-.81-.19-1.61-.32-2.42,.07,.54,.14,1.07,.22,1.61-.02-.19-.02-.36,0-.54-.07,.51-.14,1.01-.2,1.52,.04-.25,.09-.48,.18-.72-.18,.42-.35,.84-.53,1.26,.05-.12,.12-.23,.17-.34,.17-.36,.31-1.11,.57-1.4,.26-.29-.51,1.07-.31,.73,.18-.3-.75,.86-.35,.46,1.2-1.18,1.34-3.01,.57-4.45h0Z"/><path class="cls-11" d="M193.96,210.61c52.57,28.81,76.38,92.38,55.89,148.77-1.81,4.97,6.19,7.18,7.93,2.19,10.64-30.49,9.53-64.23-3.86-93.69-11.83-26.01-32.76-47.39-58.22-60.24-1.97-.99-3.7,1.9-1.74,2.98h0Z"/><path class="cls-16" d="M255.42,274.05c4.14-5.6,5.79-12.68,10.01-18.38,.46-.61,5.22-7.06,6.06-6.69,2.82,1.26-3.79,7.42-4.43,8.04-2.96,2.84-1.81,8.98,2.57,9.75,2.9,.51,5.71,1.19,8.4,2.42,1.5,.68,2.95,1.49,4.32,2.41,1.12,.76,2.66,2.75,3.78,3.12,.91,.29,3.53-.33,2.68-1.34-.45-.54-2.46-.89-3.24-1.14-2.24-.71-4.49-1.19-6.85-.89-5.39,.69-9.09,8.29-3.09,11.4,2.13,1.1,4.06,2.28,5.79,3.96,.87,.83,1.66,1.74,2.36,2.72,1.04,2.68,2.45,2.08,4.23-1.81-.46-.93-5.43-2.58-6.46-3.1-2.26-1.14-4.52-2.27-6.77-3.41-4.77-2.42-8.24-3.97-6.89-9.88,.7-3.06,2.19-9.14,5.75-9.67-2.73-1.55-5.47-3.1-8.2-4.66,1.66,8.03,3.33,16.06,4.99,24.09l8.31-8.31c-1.08-.3-1.78-.99-2.1-2.09-2.95-5-12.64-3.34-11.81,3.2,.79,6.22,4.14,10.29,10.32,11.93,5.19,1.38,9.39-3.33,8.32-8.32-1.72-8.01-3.45-16.02-5.17-24.04-.82-3.8-4.81-5.19-8.2-4.66-9.58,1.51-14.06,13.27-15.44,21.67-2.17,13.14,7.14,18.71,17.59,23.65,6.62,3.13,20.54,11.38,24.71,.32,3.36-8.92-8.38-18.64-15.16-22.14-1.03,3.8-2.06,7.6-3.09,11.4,4.48-.58,8.31,3.05,13.07,1.98,4.9-1.1,7.92-5.78,7.45-10.65-1.12-11.66-16.62-17.97-26.51-19.39,.86,3.25,1.72,6.5,2.57,9.75,4.5-4.59,9.05-10.29,7.58-17.16-1.21-5.68-6.71-10.46-12.72-9.09-6.21,1.41-10.29,9.04-12.68,14.27-2.76,6.03-5.75,14.07-3.28,20.61,.21,.56,.87,.63,1.22,.16h0Z"/><path class="cls-12" d="M229.88,194.91c.74,1.82,1.74,2.44,3.34,3.67,2.19,1.67,4.21,3.35,6,5.46,3.21,3.76,5.5,8.5,7.76,12.87,2.06,3.98,7.52,1.05,6.81-2.87-1.08-5.99-4.4-10.82-8.94-14.78-3.18-2.77-9.32-8.01-13.8-6.39-.77,.28-1.52,1.16-1.16,2.05h0Z"/><path class="cls-13" d="M289.64,316.43c.85,4.62,2.1,8.75,1.69,13.52-.43,5.04-2.36,9.51-4.82,13.88-1.1,1.95,1.74,4.39,3.23,2.49,6.32-8.06,8.22-22.29,1.1-30.6-.51-.6-1.33,.06-1.21,.7h0Z"/><path class="cls-28" d="M248.62,171.98c6.31,4.28,10.31,10.7,11.53,18.21,.52,3.19,5.8,1.89,4.93-1.36-2.2-8.27-7.53-15.16-15.06-19.25-1.59-.86-2.87,1.4-1.4,2.4h0Z"/><path class="cls-29" d="M287.19,186.02c1.66,3.38,4.02,6.24,5.47,9.78,1.44,3.52,2,7.26,2.65,10.99,.53,3.09,5.11,2.16,5.24-.71,.37-7.86-4.52-18.53-12.29-21.45-.84-.32-1.4,.72-1.07,1.39h0Z"/><path class="cls-26" d="M313.59,170.13c4.3,3.76,6.51,8.62,7.85,14.08,.75,3.08,5.32,1.76,4.72-1.3-1.25-6.32-5.77-11.37-11.35-14.35-.96-.51-2.1,.79-1.21,1.57h0Z"/><path class="cls-27" d="M271.55,211.42c6.5,6.54,10.09,14.36,9.76,23.71-.08,2.35,3.64,2.91,4.15,.56,2.21-10.16-3.18-21.69-13.53-24.92-.38-.12-.65,.38-.38,.65h0Z"/><path class="cls-24" d="M318.6,213.99c2.07,3.13,4.1,5.65,5.25,9.32,1.1,3.5,1.2,7,1.03,10.64-.13,2.71,4.34,3.4,4.81,.65,1.34-7.82-2.37-18.16-10.02-21.68-.64-.3-1.54,.35-1.06,1.06h0Z"/><path class="cls-25" d="M347.57,194.49c4.82,6.98,5.35,14.7,3.62,22.81-.61,2.89,3.41,3.97,4.4,1.21,3.19-8.9-.04-18.62-6.36-25.3-.81-.85-2.35,.28-1.66,1.28h0Z"/><path class="cls-31" d="M304.97,240.74c5.48,8.48,9.1,16.66,8.44,27.02-.22,3.47,4.98,3.35,5.34,0,1.11-10.52-3.19-22.58-12.86-27.93-.56-.31-1.29,.33-.91,.91h0Z"/><path class="cls-32" d="M316.2,297.11c1.42,4.37,3.77,8.24,4.6,12.85,.93,5.21,.37,10.49-1.27,15.48-1.52,4.62,6.04,6.73,7.29,2.01,2.68-10.14,1.24-25.74-8.82-31.72-.89-.53-2.13,.35-1.8,1.38h0Z"/><path class="cls-30" d="M339.76,270.01c4.46,10.01,3.76,18.43-1.3,28.03-1.5,2.84,2.38,4.96,4.22,2.47,6.53-8.83,5.22-23.13-2.4-30.9-.28-.29-.67,.08-.52,.4h0Z"/><path class="cls-33" d="M351.24,240c4.14,7.48,6.59,14.1,5.12,22.77-.67,3.96,5.29,5.72,6.11,1.68,1.88-9.29-1.29-20.79-9.87-25.82-.88-.51-1.85,.5-1.37,1.37h0Z"/><path class="cls-15" d="M376.35,269.92c.84,4.3,2.62,8.34,3.35,12.68,.8,4.73,.63,9.43,.55,14.2-.07,3.66,5.92,4.67,6.55,.89,1.59-9.52-.46-22.42-7.76-29.34-1.22-1.15-3,.02-2.69,1.57h0Z"/><path class="cls-14" d="M373.49,211.67c3.78,8.51,4.94,15.62,2.08,24.67-.86,2.71,3.49,4.65,4.67,1.97,3.98-8.99,2.87-21.29-4.66-28.25-1.17-1.08-2.7,.27-2.1,1.62h0Z"/><path class="cls-17" d="M400.96,222.77c4.25,8.96,6.19,17.24,5.08,27.21-.41,3.64,5.87,4.53,6.44,.87,1.66-10.6-1.18-22.31-9.25-29.83-1.24-1.16-2.96,.29-2.27,1.75h0Z"/></svg>