<?xml version="1.0" encoding="UTF-8"?><svg id="scuba" xmlns="http://www.w3.org/2000/svg" xmlns:xlink="http://www.w3.org/1999/xlink" viewBox="0 0 2072.73 1166.38"><defs><style>.cls-1{fill:url(#linear-gradient);}.cls-2{letter-spacing:0em;}.cls-3{fill:url(#back);}.cls-4{fill:#061526;}.cls-5{fill:#ec8b64;}.cls-6{fill:#6baab1;}.cls-7{fill:#6c6d6d;}.cls-8{fill:#ac7d6a;}.cls-9{fill:#aa9371;}.cls-10{fill:#d5ac99;}.cls-11{fill:#e0b89a;}.cls-12{fill:#0b2a54;}.cls-13{fill:#4e5656;}.cls-14{fill:url(#orange-4);}.cls-15{fill:url(#orange-3);}.cls-16{fill:url(#orange-2);}.cls-17{fill:#fff;font-family:Ragile, Ragile;font-size:21.47px;}.cls-18{letter-spacing:0em;}.cls-19{letter-spacing:0em;}.cls-20{letter-spacing:-.01em;}.cls-21{fill:url(#radial-gradient);}.cls-22{letter-spacing:-.04em;}.cls-23{letter-spacing:0em;}.cls-24{fill:url(#orange);}.cls-25{fill:url(#back-2);}.cls-26{fill:url(#back-3);}.cls-27{fill:url(#screen);}.cls-28{fill:#9fd1da;opacity:.59;}</style><linearGradient id="back" x1="336.7" y1="165.27" x2="400.7" y2="229.26" gradientUnits="userSpaceOnUse"><stop offset="0" stop-color="#4a88a0"/><stop offset=".24" stop-color="#417e96"/><stop offset=".64" stop-color="#2c667d"/><stop offset=".99" stop-color="#144b61"/></linearGradient><linearGradient id="screen" x1="280.39" y1="240.76" x2="437.13" y2="240.76" gradientUnits="userSpaceOnUse"><stop offset="0" stop-color="#98c5cc"/><stop offset=".17" stop-color="#8ebfc7"/><stop offset=".45" stop-color="#75b0ba"/><stop offset=".8" stop-color="#4c99a5"/><stop offset=".99" stop-color="#338b99"/></linearGradient><linearGradient id="back-2" x1="356.78" y1="246.31" x2="379.24" y2="268.77" xlink:href="#back"/><linearGradient id="back-3" x1="118.85" y1="176.84" x2="179.08" y2="237.07" xlink:href="#back"/><linearGradient id="orange" x1="625.79" y1="-291.2" x2="625.79" y2="-300.6" gradientTransform="translate(-117.48 685.63) rotate(-28.95)" gradientUnits="userSpaceOnUse"><stop offset="0" stop-color="#f5c4b0"/><stop offset=".26" stop-color="#f4bca6"/><stop offset=".69" stop-color="#f1a98d"/><stop offset=".99" stop-color="#ef9977"/></linearGradient><linearGradient id="linear-gradient" x1="623.92" y1="-291.52" x2="614.57" y2="-291.52" gradientTransform="translate(-117.48 685.63) rotate(-28.95)" gradientUnits="userSpaceOnUse"><stop offset="0" stop-color="#f5c4b0"/><stop offset=".26" stop-color="#f4bca6"/><stop offset=".69" stop-color="#f1a98d"/><stop offset=".99" stop-color="#ef9977"/></linearGradient><linearGradient id="orange-2" x1="621.14" y1="-287.65" x2="621.14" y2="-278.55" xlink:href="#orange"/><linearGradient id="orange-3" x1="627.68" y1="-287.42" x2="632.41" y2="-279.22" xlink:href="#orange"/><linearGradient id="orange-4" x1="629.57" y1="-287.31" x2="636.11" y2="-293.85" xlink:href="#orange"/><radialGradient id="radial-gradient" cx="625.79" cy="-288.87" fx="625.79" fy="-288.87" r="1.99" gradientTransform="translate(-117.48 685.63) rotate(-28.95)" gradientUnits="userSpaceOnUse"><stop offset="0" stop-color="#f5c4b0"/><stop offset=".26" stop-color="#f4bca6"/><stop offset=".69" stop-color="#f1a98d"/><stop offset=".99" stop-color="#ef9977"/></radialGradient></defs><path class="cls-11" d="M179.03,259.69l-.21-5.97s-.71-3.59-.55-10.03c.04-1.67,.38-3.32,.98-4.88,.72-1.89,1.79-4.37,2.79-5.55,1.24-1.45,.07-3.66-1.62-3.26-1.69,.4-5.21,4.32-6.89,10.24-1.68,5.92-5.51-2.97-6.97-6.19-1.46-3.22-6.43-12.96-7.78-13.3-1.97-.49-2.86,1.53-1.33,4.71,1.55,3.22,5.44,13.03,3.71,13.72-1.71,.68-8.9-15.8-8.9-15.8,0,0-.97-3.77-3-3.04-3.66,1.31,5.27,18.26,6.16,19.86,.62,1.11-1.24,1.92-1.84,.7-.62-1.26-6.79-16.6-10.54-15.3-2.87,1,7.22,14.01,6.73,17.91-.49,3.89-6.65-10.65-9.35-9.58-1.01,.39-1.7,.83,3.04,8.67,4.86,8.03,21.57,27.64,21.57,27.64l14.1-10.89"/><path class="cls-12" d="M292.64,203.79s-19.04-4.64-35.23,33.13c-26.04,60.73-79.4,12.6-79.4,12.6l-21.45,10.41s28.85,45.83,82.98,33.47c24.78-5.65,40.46-25.75,49.39-44.16,16.41-33.81,3.7-45.44,3.7-45.44Z"/><path class="cls-3" d="M336.34,193.47l52.45,47.7,25.78-26.61-52.83-48.8c-7.5-6.92-19.14-6.6-26.24,.72h0c-7.4,7.62-7.02,19.86,.84,27Z"/><path class="cls-12" d="M366.91,292.93s129.01,58.18,171.06,42.8c42.05-15.39,53.31-96.1,53.31-96.1l-39.53,.7s-13.46,59.38-31.8,55.09c-22.08-5.17-104.93-43.07-104.93-43.07l-48.1,40.59Z"/><path class="cls-12" d="M437.13,221.41s22.19-4.24,42.51,0c20.32,4.24,77.88,11.1,102.36,0,27.2-12.33,77.52-45.14,77.52-45.14l23.33,26.33s-66.41,81.59-155.79,71.97c-87.67-9.44-113.19-6.88-113.19-6.88l23.26-46.28"/><path class="cls-9" d="M240.41,155.32c-5.27,.51-10.61-3.31-11.83-8.46-1.6-6.74,3.21-13.24,4.16-20.09,.68-4.86-.63-9.78-.54-14.68,.08-4.91,2.2-10.44,6.89-11.92,2.85-.9,6.16-.11,8.76-1.59,2.57-1.46,3.56-4.61,5.26-7.03,3.81-5.41,12.21-6.85,17.61-3.03,1.86,1.32,3.37,3.13,5.41,4.14,4.22,2.07,9.19,.12,13.64-1.39,3.47-1.18,7.17-2.09,10.78-1.45,3.61,.64,7.09,3.19,7.81,6.78,.47,2.33-.23,4.81,.46,7.09,1.16,3.85,5.67,5.51,9.64,6.13,5.29,.83,10.84,.84,15.68,3.14,4.84,2.29,8.72,7.94,6.75,12.92-1.01,2.56-3.32,4.4-4.53,6.87-2.69,5.52,.81,11.98,.76,18.12-.06,7.54-5.69,14.13-12.39,17.57-6.71,3.44-14.39,4.33-21.88,5.17l-23.13-36.68-28.1,4.49-11.22,13.9Z"/><path class="cls-11" d="M287.13,203.61c-1.22-3.13-7.7-15.23-7.7-15.23-3,1-9.9,2.25-21.1-5.22-9-6-20.82-34.51-20.82-34.51l13.98-21.57,29.23,4.84,31.53,54.43-25.11,17.26Z"/><path class="cls-27" d="M437.13,221.41c-.52,1.04-38.14,84.75-38.14,84.75-44.28-13.88-66.27-35.92-68.79-36.96-2.53-1.04-29.33-15.27-32.32-18.22-4.16-4.09-4.21-12.73-3.93-17.16l-13.56-27.24,6.47-3.43-3.35-5.57,23.99-19.44,4.61,7.98,1.86-1.28s15.13-10.88,23.59-9.33c8.48,1.55,24.22,39.91,24.22,39.91l29.64,19.87s46.23-14.92,45.71-13.88Z"/><path class="cls-8" d="M279.43,188.38s5.49-3.38,9.56-12.5c0,0,2.51,8.45-8.56,14.5l-1-2Z"/><path class="cls-6" d="M351.01,231.09c.25,.12-.09,1.54-1.52,3.36-1.39,1.8-4.05,3.9-7.57,4.72-3.53,.81-6.83,.08-8.88-.92-2.08-1.01-3.01-2.13-2.83-2.35,.19-.28,1.4,.34,3.39,.87,1.98,.54,4.83,.91,7.82,.22,2.98-.69,5.38-2.28,6.92-3.63,1.56-1.35,2.38-2.43,2.67-2.27Z"/><path class="cls-11" d="M280.07,288.21l-3.81-4.6s-2.76-2.41-6.58-7.6c-.99-1.35-1.73-2.86-2.21-4.46-.58-1.94-1.26-4.55-1.18-6.09,.09-1.91-2.18-2.94-3.28-1.59-1.09,1.35-1.48,6.61,.82,12.32,2.3,5.71-6.18,1.02-9.3-.63-3.12-1.65-13.01-6.32-14.28-5.76-1.86,.82-1.33,2.96,1.83,4.54,3.19,1.6,12.28,6.98,11.33,8.59-.94,1.58-16.71-7.06-16.71-7.06,0,0-3.07-2.39-4.23-.57-2.1,3.28,15.34,11.23,17.02,11.95,1.17,.5,.2,2.28-1.03,1.68-1.26-.62-15.53-8.98-17.7-5.66-1.66,2.55,14.28,6.67,16.28,10.05,1.99,3.38-11.78-4.36-13.27-1.86-.55,.93-.84,1.7,7.71,5,8.76,3.38,33.97,8.68,33.97,8.68l4.5-17.24"/><path class="cls-12" d="M335.77,174.5s-17.9,7.98-7.61,47.76c16.54,63.97-55.11,58.53-55.11,58.53l-10.61,21.35s50.86,18.61,86.13-24.27c16.14-19.62,17.93-45.54,12.07-65.15-11.17-37.36-24.87-38.22-24.87-38.22Z"/><path class="cls-12" d="M289.16,142.82l-1.28-2.01c-4.96-7.82-15.36-10.05-23.09-4.96l-19.69,12.97c-7.09,4.67-9.5,13.94-5.58,21.47l1.19,2.29c2.09,4.02,6.57,6.26,11.02,5.41,4.4-.84,9.07-3.25,9.68-9.58,1.2-12.34,6.71-5.01,11.01-5.88,3.81-.77,14.45-1.74,17.75-12.17,.8-2.53,.4-5.29-1.02-7.53Zm-4.16,7.92c-2.76,8.46-11.67,9.24-14.86,9.86-3.61,.7-8.22-5.24-9.22,4.76-.52,5.13-4.42,7.08-8.11,7.76-3.73,.69-7.48-1.12-9.23-4.38l-1-1.85c-3.28-6.1-1.26-13.61,4.67-17.4l16.49-10.51c6.47-4.13,15.18-2.31,19.33,4.02l1.07,1.63c1.19,1.81,1.53,4.05,.86,6.1Z"/><path class="cls-28" d="M242.59,166.9l1,1.85c1.75,3.26,5.5,5.07,9.23,4.38,3.68-.68,7.59-2.63,8.11-7.76,1.01-10,5.62-4.06,9.22-4.76,3.19-.62,12.1-1.41,14.86-9.86,.67-2.05,.33-4.29-.86-6.1l-1.07-1.63c-4.15-6.33-12.86-8.15-19.33-4.02l-16.49,10.51c-5.93,3.78-7.95,11.3-4.67,17.4Z"/><path class="cls-9" d="M238.27,151.28c5.6-3.17,10.19-8.1,12.94-13.92,.47-1,.94-2.08,1.85-2.72,1.12-.78,2.61-.68,3.98-.58,6.15,.48,12.35,.37,18.48-.32,3.02-.34,6.27-.94,8.36-3.14-5.05-2.94-10.51-5.18-16.17-6.64-4.84-1.24-9.9-1.91-14.83-1.09-4.93,.82-9.71,3.26-12.65,7.3-3.21,4.43-3.88,10.16-4.38,15.61-.09,.89-.16,1.81,.09,2.67,.24,.86,.9,1.67,1.78,1.83"/><path class="cls-12" d="M666.37,174.5l98.97,74.95-22.84,28.93s-89.53-94.41-85.87-100.24c3.66-5.83,9.74-3.63,9.74-3.63Z"/><path class="cls-12" d="M562.59,235.75l98.97,74.95-22.84,28.93s-89.53-94.41-85.88-100.24c3.66-5.83,9.75-3.63,9.75-3.63Z"/><path class="cls-10" d="M289.76,141.23l3.73,5.67c1.67-.12,3.27-1.02,4.23-2.4,.96-1.37,1.26-3.18,.8-4.79-.29-1-.89-1.94-1.8-2.44-1.23-.67-2.79-.39-3.99,.33-1.2,.72-2.09,1.83-2.97,2.92"/><polygon class="cls-12" points="281.63 138.7 289.76 132.22 292.73 137.61 287.16 143.82 281.63 138.7"/><polygon class="cls-25" points="377.27 225.81 351.08 284.19 359.03 288.98 385.12 231.07 377.27 225.81"/><path class="cls-4" d="M265.78,153.16c.55,.15,1.54-2.69,4.32-4.52,2.77-1.88,5.76-1.71,5.84-2.28,.05-.26-.68-.68-2.01-.78-1.31-.1-3.21,.22-4.95,1.38s-2.76,2.79-3.16,4.05c-.42,1.26-.3,2.1-.05,2.15Z"/><path class="cls-4" d="M250.93,161.65c.49,.13,1.36-2.38,3.83-4,2.45-1.67,5.1-1.52,5.17-2.02,.04-.23-.61-.61-1.78-.69-1.16-.09-2.85,.2-4.38,1.22s-2.45,2.48-2.8,3.59c-.38,1.11-.27,1.86-.04,1.9Z"/><path class="cls-4" d="M281.09,163.89c-.83,0-1.51,4.35-5.04,8-3.49,3.71-7.82,4.63-7.8,5.45,0,.38,1.16,.69,3.09,.31,1.9-.37,4.56-1.56,6.75-3.85,2.19-2.29,3.24-4.98,3.49-6.89,.28-1.92-.11-3.05-.49-3.02Z"/><g><polygon class="cls-13" points="134.47 250.63 222.42 232.14 198.15 224.51 111.34 242.76 134.47 250.63"/><rect class="cls-7" x="105.22" y="178.63" width="87.83" height="55.65" transform="translate(-39.29 35.1) rotate(-11.87)"/></g><polygon class="cls-26" points="103.34 192.36 184.59 175.43 194.34 221.81 113.49 238.63 103.34 192.36"/><text class="cls-17" transform="translate(184.39 206.68) rotate(167.94) scale(.75 -1)"><tspan class="cls-23" x="0" y="0">a</tspan><tspan class="cls-2" x="12.56" y="0">u</tspan><tspan class="cls-19" x="25.68" y="0">h</tspan><tspan class="cls-22" x="38.37" y="0">a</tspan><tspan class="cls-20" x="50.22" y="0">c</tspan><tspan class="cls-18" x="62.3" y="0">k :)</tspan></text><g><g><g><path class="cls-5" d="M289.82,119.73c-.39-.58-1.09-1.16-1.86-1.05-.18,.03-.32,.1-.43,.16-.13,.07-.16,.09-.23,.07-.07-.02-.15-.06-.23-.11-.15-.08-.34-.19-.58-.18-.27,0-.49,.12-.67,.21-.1,.05-.19,.1-.28,.12-.08,.02-.14,.02-.26,0-.21-.03-.51-.08-.98,.18-.43,.24-.57,.52-.67,.72-.02,.04-.04,.08-.06,.11-.08,.14-.14,.18-.27,.25-.08,.04-.17,.1-.28,.18-.26,.19-.43,.45-.49,.75-.02,.11-.02,.2-.02,.29,0,.04,0,.11,0,.12-.02,.05-.07,.08-.18,.15-.08,.05-.18,.11-.27,.19-.18,.18-.31,.41-.38,.69-.11,.45-.04,1,.19,1.54,.36,.82,1.02,1.62,2,2.43,.45,.37,.96,.73,1.52,1.08h0c.56,.35,1.18,.69,1.86,1.02,.2,.1,.41,.2,.62,.29,.09,.04,.19,.08,.28,.12,.09,.04,.19,.03,.27-.02,.04-.03,.08-.06,.1-.11,0,0,0-.01,.01-.02,.02-.03,.03-.06,.05-.08,0-.01,.02-.03,.03-.04,0-.01,.02-.03,.03-.04,.01-.02,.03-.04,.04-.06,.01-.02,.02-.03,.03-.04,.02-.02,.04-.04,.06-.06,.01-.01,.02-.03,.03-.04h0s.03-.03,.05-.05c0,0,0,0,0,0,.02-.02,.03-.03,.05-.05,.02-.02,.04-.04,.07-.06,.02-.02,.04-.03,.05-.04,0,0,.02-.02,.03-.02,.02-.02,.04-.03,.07-.05,.03-.02,.07-.05,.1-.07,.02-.01,.05-.03,.07-.04s.05-.03,.07-.04c.04-.02,.07-.04,.11-.05,.03-.01,.05-.02,.08-.03,.01,0,.02,0,.04-.01,.02,0,.04-.02,.07-.02,.03,0,.06-.02,.09-.03,.02,0,.04-.01,.06-.02,0,0,0,0,0,0,.02,0,.04,0,.07-.01h0s.03,0,.05,0c.04,0,.09-.01,.13-.02,.01,0,.02,0,.03,0,.03,0,.06,0,.1,0,.02,0,.03,0,.05,0,.02,0,.03,0,.05,0,.02,0,.05,0,.07,0,.05,0,.1,0,.15-.03,0,0,0,0,.01,0,.08-.04,.14-.12,.15-.22,.02-.1,.03-.2,.04-.3,.03-.22,.06-.45,.08-.68,.08-.76,.12-1.46,.12-2.12h0s0,0,0,0c0-.66-.04-1.28-.11-1.86-.17-1.27-.49-2.24-1-2.99Zm.4,3.06c.15,1.12,.14,2.38-.01,3.84-.02,.23-.05,.47-.09,.7-.05,0-.11,0-.16,.01-.02,0-.04,0-.05,0-.02,0-.05,0-.07,.01-.02,0-.05,0-.07,.01-.02,0-.05,0-.07,.01-.09,.02-.19,.05-.28,.08h-.01s-.02,.01-.04,.02c0,0-.02,0-.03,0-.02,0-.05,.02-.07,.03-.02,0-.04,.02-.06,.02-.01,0-.03,.01-.04,.02-.02,0-.03,.02-.05,.02-.04,.02-.08,.04-.12,.06s-.08,.04-.11,.07c-.02,.01-.03,.02-.05,.03,0,0,0,0,0,0,0,0-.02,.01-.03,.02-.02,.01-.03,.02-.05,.03-.02,.01-.04,.03-.06,.04,0,0-.02,.01-.02,.02,0,0-.02,.01-.02,.02,0,0-.01,0-.02,.01-.06,.04-.11,.09-.16,.14-.02,.02-.03,.03-.05,.05-.02,.02-.03,.03-.05,.05-.02,.02-.03,.04-.05,.05-.02,.02-.03,.04-.05,.05-.01,.01-.02,.03-.04,.04-.03,.04-.07,.09-.1,.13-.21-.1-.43-.2-.64-.3-1.32-.65-2.39-1.31-3.26-2.03-.91-.75-1.51-1.48-1.84-2.21-.11-.24-.27-.71-.16-1.15,.04-.17,.11-.3,.21-.4,.04-.04,.09-.07,.16-.11,.15-.09,.35-.21,.44-.47,.04-.12,.04-.25,.03-.35,0-.05,0-.11,0-.13,.05-.2,.17-.33,.27-.4,.08-.06,.14-.1,.22-.14,.16-.09,.33-.19,.5-.47,.03-.05,.05-.09,.07-.14,.09-.18,.16-.32,.43-.47,.29-.16,.43-.14,.6-.12,.14,.02,.31,.05,.52-.02,.14-.04,.26-.1,.37-.16,.15-.08,.28-.14,.42-.15,.08,0,.17,.05,.27,.11,.11,.06,.24,.13,.39,.17,.29,.07,.5-.05,.65-.13,.08-.05,.15-.08,.23-.09,.5-.07,1,.38,1.28,.79,.45,.66,.74,1.56,.9,2.73Z"/><path class="cls-24" d="M290.23,122.8c.15,1.12,.14,2.38-.01,3.84-.02,.23-.05,.47-.09,.7-.05,0-.11,0-.16,.01-.02,0-.04,0-.05,0-.02,0-.05,0-.07,.01-.02,0-.05,0-.07,.01-.02,0-.05,0-.07,.01-.09,.02-.19,.05-.28,.08h-.01s-.02,.01-.04,.02l-.64-2.98c-.03-.16-.19-.26-.35-.23-.16,.03-.26,.19-.23,.35l.51,2.38-1.75-1.7c-.12-.11-.31-.11-.42,0s-.11,.31,0,.42l2.19,2.13s-.02,.01-.02,.02c0,0-.01,0-.02,.01-.06,.04-.11,.09-.16,.14-.02,.02-.03,.03-.05,.05-.02,.02-.03,.03-.05,.05-.02,.02-.03,.04-.05,.05-.02,.02-.03,.04-.05,.05-.01,.01-.02,.03-.04,.04-.03,.04-.07,.09-.1,.13-.21-.1-.43-.2-.64-.3-1.32-.65-2.39-1.31-3.26-2.03-.91-.75-1.51-1.48-1.84-2.21-.11-.24-.27-.71-.16-1.15,.04-.17,.11-.3,.21-.4,.04-.04,.09-.07,.16-.11,.15-.09,.35-.21,.44-.47,.04-.12,.04-.25,.03-.35,0-.05,0-.11,0-.13,.05-.2,.17-.33,.27-.4,.08-.06,.14-.1,.22-.14,.16-.09,.33-.19,.5-.47,.03-.05,.05-.09,.07-.14,.09-.18,.16-.32,.43-.47,.29-.16,.43-.14,.6-.12,.14,.02,.31,.05,.52-.02,.14-.04,.26-.1,.37-.16,.15-.08,.28-.14,.42-.15,.08,0,.17,.05,.27,.11,.11,.06,.24,.13,.39,.17,.29,.07,.5-.05,.65-.13,.08-.05,.15-.08,.23-.09,.5-.07,1,.38,1.28,.79,.45,.66,.74,1.56,.9,2.73Z"/></g><g><path class="cls-5" d="M288.26,128.84c-.09-.05-.18-.09-.28-.14-.2-.1-.41-.19-.62-.29-.69-.31-1.35-.57-1.98-.77h0c-.63-.21-1.22-.36-1.8-.47-1.26-.23-2.29-.23-3.15,.02-.22,.06-.43,.15-.62,.26-.54,.3-.87,.71-.95,1.19-.03,.18,0,.34,.02,.46,.03,.14,.03,.18,0,.24-.04,.06-.1,.12-.17,.19-.13,.12-.29,.26-.35,.49-.08,.26-.04,.5,0,.71,.02,.11,.03,.21,.03,.3,0,.08-.03,.14-.08,.24-.1,.19-.23,.46-.13,.99,.09,.48,.32,.7,.48,.86,.03,.03,.06,.06,.09,.09,.11,.12,.12,.19,.15,.34,.02,.09,.04,.19,.08,.32,.11,.3,.3,.55,.56,.7,.09,.06,.19,.08,.27,.11,.04,.01,.1,.03,.12,.04,.04,.03,.06,.09,.09,.22,.02,.1,.05,.21,.1,.31,.11,.23,.29,.42,.54,.57,.4,.25,.94,.35,1.52,.29,.73-.07,1.5-.34,2.34-.8,.19-.11,.39-.22,.59-.35,.5-.32,1-.68,1.5-1.11h0c.51-.42,1.02-.91,1.54-1.45,.16-.16,.31-.33,.47-.5,.07-.08,.14-.15,.21-.23,.07-.08,.09-.18,.07-.27-.01-.04-.03-.08-.06-.12-.02-.02-.04-.04-.05-.06-.01-.01-.02-.02-.03-.04,0,0,0,0-.01-.01-.01-.01-.02-.03-.03-.04-.01-.02-.02-.03-.04-.05s-.02-.03-.03-.05c-.01-.02-.02-.03-.03-.05-.01-.02-.02-.04-.03-.06-.01-.02-.02-.03-.03-.05-.02-.03-.03-.06-.05-.1,0-.02-.02-.03-.02-.05,0-.02-.01-.03-.02-.05,0-.01-.01-.03-.02-.04,0,0,0,0,0,0,0-.01-.01-.03-.02-.04,0,0,0-.01,0-.02,0-.01,0-.03-.01-.04,0,0,0,0,0,0,0-.01-.01-.03-.01-.05,0-.02-.01-.04-.02-.06,0-.03-.02-.06-.02-.09,0,0,0,0,0,0,0,0,0,0,0,0,0,0,0,0,0-.01,0,0,0,0,0-.01,0,0,0,0,0-.02,0-.04-.01-.08-.02-.12,0-.01,0-.03,0-.04,0-.01,0-.02,0-.03,0-.01,0-.03,0-.04,0,0,0,0,0-.01,0-.01,0-.03,0-.04,0-.02,0-.03,0-.05,0-.02,0-.04,0-.06,0-.02,0-.04,0-.06,0-.02,0-.04,0-.06,0-.02,0-.04,0-.06,0-.05,.01-.09,.02-.14,0-.02,0-.03,0-.05,0-.05,.02-.09,.03-.14,0-.02,0-.03,.01-.05,0-.02,0-.03,.01-.05,0-.02,.02-.05,.03-.07,.02-.05,.02-.1,.02-.15-.01-.09-.07-.18-.16-.22Zm-3.49,5.62c-.19,.12-.38,.23-.56,.33-.77,.42-1.46,.66-2.11,.73-.26,.03-.76,.04-1.15-.2-.15-.09-.25-.2-.32-.33-.02-.05-.04-.11-.05-.18-.04-.17-.09-.4-.31-.57-.1-.08-.22-.11-.32-.14-.05-.01-.1-.03-.13-.04-.17-.1-.26-.27-.3-.38-.03-.09-.05-.17-.06-.25-.04-.19-.08-.38-.3-.62-.04-.04-.07-.08-.11-.11-.14-.14-.26-.26-.31-.55-.06-.33,0-.45,.08-.61,.06-.12,.14-.28,.14-.5,0-.14-.02-.28-.04-.4-.03-.17-.05-.31,0-.45,.02-.07,.1-.14,.19-.23,.09-.09,.2-.18,.28-.32,.15-.26,.11-.49,.08-.66-.02-.09-.03-.17-.02-.24,.06-.37,.39-.62,.65-.77,.15-.08,.32-.16,.5-.21,.77-.22,1.71-.23,2.87,0,1.11,.21,2.31,.6,3.65,1.2,.22,.1,.43,.2,.64,.3-.02,.07-.04,.15-.05,.22-.01,.07-.02,.14-.03,.2-.01,.11-.01,.23-.01,.34,0,.02,0,.03,0,.05,0,.02,0,.04,0,.06,0,.02,0,.04,0,.06,0,.02,0,.04,0,.06,0,.02,0,.04,0,.06,0,0,0,0,0,0,0,0,0,0,0,.01,0,.02,0,.04,0,.06,0,.02,0,.04,.01,.06,0,.02,0,.04,.01,.06,0,.02,0,.03,.01,.05,0,.03,.02,.06,.03,.09,0,.02,0,.03,.02,.05h0s.01,.04,.02,.06c0,.01,0,.03,.01,.04,0,0,0,.01,0,.02,0,.02,.01,.03,.02,.05,0,.01,0,.02,.01,.04,0,.02,.01,.03,.02,.05,0,.02,.01,.03,.02,.05,0,.02,.02,.04,.03,.06,0,0,0,0,0,0,.02,.04,.04,.07,.06,.11,.01,.02,.02,.04,.04,.06,0,0,.01,.02,.02,.03h0s.02,.03,.03,.05c0,0,0,.01,.01,.02,.03,.05,.06,.09,.1,.14-.16,.17-.32,.35-.48,.52-1.02,1.06-1.98,1.87-2.94,2.47Z"/><path class="cls-1" d="M284.32,129.98c-.02,.16,.1,.31,.27,.33l2.42,.25-2.16,1.14c-.15,.08-.2,.26-.12,.4,.08,.15,.26,.2,.4,.13l2.7-1.42s0,.01,0,.02c0,.02,.01,.03,.02,.05,0,.01,0,.02,.01,.04,0,.02,.01,.03,.02,.05,0,.02,.01,.03,.02,.05,0,.02,.02,.04,.03,.06,0,0,0,0,0,0,.02,.04,.04,.07,.06,.11,.01,.02,.02,.04,.04,.06,0,0,0,.02,.02,.03h0s.02,.03,.03,.05c0,0,0,.01,.01,.02,.03,.05,.06,.1,.1,.14-.16,.17-.32,.35-.48,.52-1.02,1.06-1.98,1.87-2.94,2.47-.19,.12-.38,.23-.56,.33-.77,.42-1.46,.66-2.11,.73-.26,.03-.76,.04-1.15-.2-.15-.09-.25-.2-.32-.33-.02-.05-.04-.11-.05-.18-.04-.17-.09-.4-.31-.57-.1-.08-.22-.11-.32-.14-.05-.01-.1-.03-.13-.04-.17-.1-.26-.27-.3-.38-.03-.09-.05-.17-.06-.25-.04-.19-.08-.38-.3-.62-.04-.04-.07-.08-.11-.11-.14-.14-.26-.26-.31-.55-.06-.33,0-.45,.08-.61,.06-.12,.14-.28,.14-.5,0-.14-.02-.28-.04-.4-.03-.17-.05-.31,0-.45,.02-.07,.1-.14,.19-.23,.09-.09,.2-.18,.28-.32,.15-.26,.11-.49,.08-.66-.02-.09-.03-.17-.02-.24,.06-.37,.39-.62,.65-.77,.15-.08,.32-.16,.5-.21,.77-.22,1.71-.23,2.87,0,1.11,.21,2.31,.6,3.65,1.2,.22,.1,.43,.2,.64,.3-.07,.25-.1,.51-.09,.77l-3.03-.31c-.16-.02-.31,.1-.33,.27Z"/></g><g><path class="cls-5" d="M291.64,132.12c-.05-.09-.1-.18-.15-.27-.05-.09-.14-.14-.23-.15-.04,0-.09,0-.13,.02h0s0,0-.01,0c-.41,.19-.87,.23-1.3,.13-.03,0-.06-.02-.09-.02s-.06-.02-.09-.03c-.02,0-.04-.01-.07-.02-.02,0-.04-.02-.06-.03-.02,0-.04-.02-.06-.03-.04-.02-.08-.04-.12-.06-.02-.01-.04-.02-.06-.03-.02-.01-.03-.02-.05-.03-.02-.01-.04-.03-.07-.04-.02-.01-.04-.02-.05-.04,0,0,0,0,0,0-.02-.01-.04-.03-.06-.04,0,0,0,0,0,0,0,0,0,0,0,0s0,0,0,0c-.04-.03-.09-.05-.13-.06-.09-.02-.19,.01-.26,.08-.07,.07-.14,.15-.21,.22h0c-.16,.16-.31,.33-.46,.5-.51,.56-.95,1.11-1.34,1.64h0c-.39,.53-.72,1.06-1.01,1.57-.61,1.12-.92,2.1-.95,3-.02,.7,.2,1.58,.89,1.94,.16,.09,.32,.1,.44,.12,.15,.02,.18,.03,.23,.08,.05,.05,.08,.13,.12,.22,.07,.16,.16,.35,.36,.49,.22,.15,.46,.19,.67,.23,.11,.02,.21,.03,.3,.06,.08,.03,.12,.07,.21,.15,.15,.15,.37,.36,.9,.43,.48,.06,.76-.08,.97-.19,.04-.02,.08-.04,.11-.06,.15-.07,.22-.06,.37-.04,.09,.01,.2,.02,.33,.02,.23,0,.44-.06,.63-.16,.08-.04,.15-.09,.21-.15,.08-.07,.14-.15,.19-.23,.02-.03,.06-.09,.07-.1,0,0,0,0,0,0,.04-.02,.13-.02,.23,0,.1,0,.21,.02,.33,0,.15-.02,.3-.07,.45-.15,.09-.05,.18-.11,.26-.18,.36-.3,.62-.78,.75-1.36,.19-.88,.13-1.9-.19-3.14-.15-.57-.34-1.16-.59-1.77-.25-.61-.55-1.25-.91-1.92-.11-.2-.22-.4-.33-.6Zm-.2,.88c.69,1.3,1.16,2.46,1.44,3.56,.3,1.15,.36,2.08,.19,2.87-.1,.44-.29,.81-.55,1.03-.05,.05-.11,.09-.17,.12-.08,.04-.16,.07-.24,.08-.05,0-.12,0-.19,0-.16-.02-.37-.04-.57,.08-.02,.01-.04,.02-.06,.04-.11,.07-.18,.18-.23,.26-.03,.04-.06,.09-.08,.11-.12,.11-.28,.16-.46,.17-.1,0-.17,0-.25-.02-.19-.02-.38-.04-.68,.09-.05,.02-.09,.05-.14,.07-.18,.09-.32,.16-.62,.13-.33-.04-.43-.14-.56-.26-.1-.1-.22-.22-.43-.29-.14-.05-.27-.07-.4-.09-.17-.03-.31-.05-.43-.13-.06-.04-.11-.14-.16-.25-.05-.12-.11-.25-.22-.36-.2-.23-.43-.25-.6-.28-.1-.01-.17-.02-.24-.06-.45-.23-.58-.9-.57-1.39,.03-.8,.31-1.7,.88-2.74,.54-.99,1.28-2.01,2.27-3.1,.16-.18,.32-.35,.48-.52,0,0,.02,.01,.02,.02,.02,.02,.05,.03,.07,.04,.02,.01,.05,.03,.07,.04,.01,0,.03,.02,.05,.02,0,0,0,0,0,0,.01,0,.03,.01,.04,.02,.02,0,.04,.02,.06,.03,.02,0,.04,.02,.06,.03,0,0,0,0,0,0,.02,0,.04,.02,.06,.03,.02,0,.05,.02,.07,.03,.05,.02,.09,.03,.14,.05,.01,0,.03,0,.04,.01,.25,.07,.51,.1,.78,.1,.26,0,.51-.05,.76-.13h0c.12,.2,.23,.41,.34,.62Z"/><path class="cls-16" d="M291.44,133c.69,1.3,1.16,2.46,1.44,3.56,.3,1.15,.36,2.08,.19,2.87-.1,.44-.29,.81-.55,1.03-.05,.05-.11,.09-.17,.12-.08,.04-.16,.07-.24,.08-.05,0-.12,0-.19,0-.16-.02-.37-.04-.57,.08-.02,.01-.04,.02-.06,.04-.11,.07-.18,.18-.23,.26-.03,.04-.06,.09-.08,.11-.12,.11-.28,.16-.46,.17-.1,0-.17,0-.25-.02-.19-.02-.38-.04-.68,.09-.05,.02-.09,.05-.14,.07-.18,.09-.32,.16-.62,.13-.33-.04-.43-.14-.56-.26-.1-.1-.22-.22-.43-.29-.14-.05-.27-.07-.4-.09-.17-.03-.31-.05-.43-.13-.06-.04-.11-.14-.16-.25-.05-.12-.11-.25-.22-.36-.2-.23-.43-.25-.6-.28-.1-.01-.17-.02-.24-.06-.45-.23-.58-.9-.57-1.39,.03-.8,.31-1.7,.88-2.74,.54-.99,1.28-2.01,2.27-3.1,.16-.18,.32-.35,.48-.52,0,0,.02,.01,.02,.02,.02,.02,.05,.03,.07,.04,.02,.01,.05,.03,.07,.04,.02,0,.03,.02,.05,.02,0,0,0,0,0,0,.01,0,.03,.01,.04,.02,.02,0,.04,.02,.06,.03,.02,0,.04,.02,.06,.03,0,0,0,0,0,0,.02,0,.04,.02,.06,.03,.02,0,.05,.02,.07,.03,.04,.02,.09,.03,.14,.05,.01,0,.03,0,.04,.01l-1.24,2.79c-.07,.15,0,.33,.15,.39,.15,.07,.33,0,.39-.15l.99-2.23,.41,2.4c.03,.16,.18,.27,.34,.24,.03,0,.07-.02,.09-.03,.11-.06,.17-.18,.15-.31l-.52-3.01c.25,0,.51-.05,.76-.14,.12,.2,.23,.41,.34,.62Z"/></g><g><path class="cls-5" d="M300.47,129.68c-.78-.45-1.77-.71-3.05-.79-.59-.04-1.21-.03-1.87,.01h0c-.66,.05-1.36,.14-2.1,.27-.22,.04-.45,.08-.67,.13-.1,.02-.2,.04-.3,.06-.1,.02-.18,.09-.21,.18-.02,.05-.03,.1-.02,.15,0,0,0,0,0,.01,0,0,0,0,0,0,0,0,0,.02,0,.02,0,.02,0,.04,0,.07,0,.02,0,.04,0,.06,0,.02,0,.03,0,.05,0,.02,0,.03,0,.05,0,.01,0,.03,0,.04,0,.02,0,.03,0,.05,0,.02,0,.04,0,.06,0,.02,0,.04,0,.06,0,0,0,.02,0,.03,0,.02,0,.04,0,.05,0,.02,0,.04-.01,.06,0,.02,0,.03-.01,.05,0,.02,0,.04-.01,.06,0,.03-.01,.06-.02,.08,0,.02-.01,.04-.02,.06,0,.03-.02,.06-.03,.09,0,.02-.01,.03-.02,.05-.15,.36-.41,.68-.75,.91,0,0,0,0-.01,0h0s-.07,.06-.09,.1c-.04,.08-.05,.19,0,.28,.05,.09,.1,.18,.14,.27,.11,.2,.22,.4,.33,.59,.38,.66,.76,1.25,1.15,1.79,.39,.53,.78,1.01,1.18,1.44,.88,.93,1.72,1.53,2.56,1.83,.67,.24,1.36,.23,1.83-.03,.11-.06,.21-.13,.29-.22,.13-.13,.2-.27,.25-.38,.06-.13,.08-.17,.14-.19,.06-.03,.15-.04,.25-.05,.15-.02,.32-.04,.48-.13,.03-.02,.07-.04,.1-.06,.22-.16,.33-.38,.42-.57,.05-.1,.1-.19,.15-.26,.04-.05,.08-.08,.14-.11,.02-.01,.04-.02,.07-.04,.03-.01,.06-.03,.09-.05,.19-.1,.41-.27,.6-.68,.21-.44,.16-.75,.12-.98,0-.04-.01-.09-.02-.12-.02-.16,.01-.23,.07-.36,.04-.08,.08-.18,.12-.31,.09-.31,.08-.62-.04-.89-.04-.1-.1-.18-.16-.25-.03-.03-.07-.08-.07-.1-.01-.05,0-.11,.06-.23,.04-.09,.08-.19,.1-.31,.04-.25,0-.51-.1-.78-.18-.43-.55-.83-1.06-1.13Zm.51,1.35c.07,.16,.09,.31,.06,.45,0,.05-.04,.11-.06,.18-.07,.16-.16,.38-.08,.64,.04,.12,.12,.22,.18,.3,.03,.04,.07,.08,.08,.11,.08,.18,.05,.37,.02,.49-.03,.09-.06,.16-.09,.24-.08,.17-.16,.35-.12,.68,0,.05,.01,.1,.02,.15,.03,.2,.06,.36-.07,.63-.06,.14-.12,.22-.18,.28-.06,.06-.11,.1-.17,.13-.02,.01-.05,.03-.07,.04-.03,.01-.05,.03-.08,.04-.1,.05-.22,.13-.33,.28-.09,.12-.15,.23-.21,.35-.08,.15-.15,.28-.25,.37-.06,.05-.17,.06-.28,.07-.13,.02-.27,.03-.41,.09-.02,.01-.05,.02-.07,.04-.22,.12-.31,.31-.38,.45-.04,.09-.07,.15-.13,.21-.05,.05-.1,.09-.17,.12-.38,.21-.94,.13-1.34-.01-.76-.27-1.52-.82-2.33-1.68-.78-.82-1.51-1.84-2.25-3.11-.12-.2-.23-.41-.34-.62h0c.2-.17,.37-.36,.52-.57,.15-.22,.26-.46,.33-.71,.02-.06,.03-.12,.05-.18,0-.02,.01-.05,.01-.07,0-.02,0-.05,.01-.07,0,0,0,0,0,0,0-.02,0-.05,.01-.07,0-.02,0-.04,0-.06,0-.02,0-.03,0-.05,0,0,0,0,0,0,0-.02,0-.03,0-.05,0-.02,0-.04,0-.06,0-.04,0-.08,0-.12,0,0,0,0,0-.01,.23-.05,.46-.09,.69-.13,1.45-.25,2.7-.34,3.83-.27,1.18,.07,2.09,.31,2.78,.71,.23,.13,.64,.42,.81,.84Z"/><path class="cls-15" d="M300.97,131.03c.07,.16,.09,.31,.06,.45,0,.05-.04,.11-.06,.18-.07,.16-.16,.38-.08,.64,.04,.12,.12,.22,.18,.3,.03,.04,.07,.08,.08,.11,.08,.18,.05,.37,.02,.49-.03,.09-.06,.16-.09,.24-.08,.17-.16,.35-.12,.68,0,.05,.01,.1,.02,.15,.03,.2,.06,.36-.07,.63-.06,.14-.12,.22-.18,.28-.06,.06-.11,.1-.17,.13-.02,.01-.05,.03-.07,.04-.03,.01-.05,.03-.08,.04-.1,.05-.22,.13-.33,.28-.09,.12-.15,.23-.21,.35-.08,.15-.15,.28-.25,.37-.06,.05-.17,.06-.28,.07-.13,.02-.27,.03-.41,.09-.02,.01-.05,.02-.07,.04-.22,.12-.31,.31-.38,.45-.04,.09-.07,.15-.13,.21-.05,.05-.1,.09-.17,.12-.38,.21-.94,.13-1.34-.01-.76-.27-1.52-.82-2.33-1.68-.78-.82-1.51-1.84-2.25-3.11-.12-.2-.23-.41-.34-.62,.2-.17,.38-.36,.52-.57l2.27,2.04c.1,.09,.24,.1,.34,.04,.03-.02,.05-.04,.08-.06,.11-.12,.1-.31-.02-.42l-1.81-1.63,2.41,.35c.16,.02,.31-.09,.34-.25,.02-.16-.09-.31-.25-.34l-3.02-.44c.02-.06,.03-.12,.05-.18,0-.02,.01-.05,.01-.07,0-.02,0-.05,.01-.07,0,0,0,0,0,0,0-.02,0-.05,.01-.07,0-.02,0-.04,0-.06,0-.02,0-.03,0-.05,0,0,0,0,0,0,0-.02,0-.03,0-.05,0-.02,0-.04,0-.06,0-.04,0-.08,0-.12,0,0,0,0,0-.01,.23-.05,.46-.09,.69-.13,1.45-.25,2.7-.34,3.83-.27,1.18,.07,2.09,.31,2.78,.71,.23,.13,.64,.42,.81,.84Z"/></g><g><path class="cls-5" d="M299.44,122.27c-.08-.08-.15-.15-.2-.23-.05-.07-.06-.13-.08-.24-.04-.21-.08-.51-.48-.88-.36-.33-.67-.38-.89-.42-.04,0-.09-.01-.12-.02-.16-.03-.21-.08-.32-.18-.06-.06-.15-.13-.26-.21-.26-.18-.56-.27-.86-.24-.11,0-.2,.04-.28,.08-.04,.01-.1,.04-.12,.04-.05,0-.1-.04-.2-.13-.07-.07-.16-.14-.27-.2-.22-.12-.48-.17-.77-.15-.28,.02-.57,.11-.86,.27-.19,.1-.37,.24-.54,.39-.67,.6-1.22,1.47-1.69,2.65-.22,.55-.4,1.14-.56,1.78h0s0,0,0,0c-.16,.64-.29,1.33-.4,2.09-.03,.23-.06,.45-.08,.68-.01,.1-.02,.2-.03,.31-.01,.1,.03,.19,.1,.26,.04,.03,.08,.06,.14,.07,0,0,.02,0,.03,0,.02,0,.03,0,.05,.01,.02,0,.03,0,.05,.01,.07,.02,.14,.04,.21,.07,.09,.03,.18,.07,.26,.12,.02,.01,.04,.02,.06,.04,.03,.02,.07,.04,.1,.06h.02s0,.02,.01,.02c.01,0,.02,.02,.03,.03,0,0,.02,.01,.02,.02,.01,0,.02,.02,.03,.03,0,0,.01,0,.02,.01,.02,.02,.05,.04,.07,.06,0,0,0,0,.01,.01,0,0,0,0,0,0,0,0,0,0,0,0,0,0,0,0,0,0,0,0,0,0,0,0h0s0,0,0,0c.01,.01,.03,.03,.04,.04,0,0,.02,.02,.03,.03,.01,.01,.02,.02,.03,.04,0,0,.02,.02,.02,.03,0,0,0,0,0,0,.01,.01,.02,.03,.03,.04,0,0,.02,.02,.02,.03,.01,.01,.02,.02,.03,.04,0,0,0,0,0,0,0,.01,.02,.03,.03,.04,.01,.01,.02,.03,.03,.04,.01,.02,.02,.03,.03,.05,.02,.03,.04,.06,.06,.09,0,.02,.02,.04,.03,.05,.01,.02,.02,.04,.03,.06,0,.02,.02,.03,.02,.05,0,.02,.02,.04,.02,.06,0,0,0,0,0,.01,0,.01,.01,.03,.02,.04,0,.01,0,.02,.01,.03,0,0,0,.01,0,.02,0,.02,.01,.03,.02,.05,0,.02,0,.03,.01,.05,0,0,0,.02,0,.03,.01,.05,.04,.1,.07,.13,.07,.07,.16,.1,.26,.09,.1-.02,.2-.03,.3-.05h0c.22-.04,.45-.08,.67-.13,.74-.16,1.42-.34,2.05-.54h0c.63-.2,1.21-.43,1.74-.68,.22-.1,.42-.21,.61-.31,.84-.46,1.47-.97,1.92-1.55,.43-.55,.77-1.39,.42-2.09-.08-.17-.2-.27-.29-.36-.11-.1-.13-.13-.14-.2,0-.07,.01-.16,.03-.25,.03-.17,.08-.38,0-.61-.09-.26-.26-.43-.41-.58Zm-.15,.78c.03,.07,0,.17-.02,.29-.03,.12-.05,.27-.04,.42,.03,.3,.2,.46,.32,.58,.07,.07,.12,.12,.16,.19,.22,.45-.05,1.07-.36,1.46-.2,.26-.44,.5-.73,.73s-.62,.45-1.01,.66c-.18,.1-.37,.2-.58,.3-1.02,.49-2.22,.87-3.66,1.18-.23,.05-.46,.09-.69,.14,0,0,0,0,0,0,0,0,0,0,0,0-.02-.05-.04-.1-.06-.15,0,0,0-.01,0-.02,0-.01-.01-.03-.02-.04l-.02-.03s-.02-.04-.03-.06c-.02-.04-.04-.07-.06-.11,0,0,0,0,0,0-.01-.02-.02-.04-.04-.06,0-.01-.02-.03-.03-.04-.01-.02-.02-.03-.03-.05,0-.01-.02-.02-.02-.03,0-.01-.02-.03-.03-.04,0,0,0-.01-.01-.02,0-.01-.02-.02-.03-.03-.01-.02-.03-.03-.04-.05h0s-.02-.03-.04-.04c-.02-.02-.04-.05-.07-.07-.01-.01-.02-.02-.03-.04-.01-.01-.03-.03-.04-.04-.01-.01-.02-.02-.03-.03-.01,0-.02-.02-.03-.03-.01,0-.02-.02-.03-.03-.01-.01-.03-.02-.04-.04,0,0,0,0,0,0,0,0-.02-.01-.02-.02,0,0-.02-.01-.02-.02-.02-.01-.03-.03-.05-.04-.02-.01-.03-.02-.05-.04-.01,0-.03-.02-.04-.03-.04-.03-.08-.05-.12-.07-.02-.01-.04-.02-.06-.03-.03-.02-.06-.04-.1-.05,0,0,0,0,0,0-.03-.02-.07-.03-.1-.05-.03-.02-.07-.03-.1-.04-.02,0-.04-.02-.06-.03-.04-.01-.08-.03-.11-.04-.01,0-.03,0-.04-.01,.03-.23,.05-.47,.09-.7,.21-1.46,.51-2.67,.92-3.73,.43-1.1,.94-1.89,1.53-2.43,.14-.12,.28-.23,.43-.31,.21-.12,.42-.18,.61-.2,.17-.01,.32,.01,.45,.08,.04,.02,.09,.07,.15,.12,.13,.11,.31,.27,.58,.28,.13,0,.25-.04,.34-.08,.04-.02,.1-.04,.13-.04,.2-.02,.37,.06,.47,.14,.08,.06,.14,.11,.2,.16,.14,.13,.28,.26,.6,.33,.05,.01,.1,.02,.15,.03,.2,.03,.36,.06,.58,.26,.25,.23,.27,.37,.3,.54,.02,.14,.05,.31,.18,.49,.08,.12,.18,.21,.27,.3,.12,.12,.22,.23,.27,.36Z"/><path class="cls-14" d="M299.29,123.05c.03,.07,0,.17-.02,.29-.03,.12-.05,.27-.04,.42,.03,.3,.2,.46,.32,.58,.07,.07,.12,.12,.16,.19,.22,.45-.05,1.07-.36,1.46-.2,.26-.44,.5-.73,.73s-.62,.45-1.01,.66c-.18,.1-.37,.2-.58,.3-1.02,.49-2.22,.87-3.66,1.18-.23,.05-.46,.09-.69,.14,0,0,0,0,0,0,0,0,0,0,0,0-.02-.05-.04-.1-.06-.15,0,0,0-.01,0-.02,0-.01-.01-.03-.02-.04l-.02-.03s-.02-.04-.03-.06c-.02-.04-.04-.07-.06-.11,0,0,0,0,0,0-.01-.02-.02-.04-.04-.06,0-.01-.02-.03-.03-.04-.01-.02-.02-.03-.03-.05,0-.01-.02-.02-.02-.03,0-.01-.02-.03-.03-.04,0,0,0-.01-.01-.02l2.64-1.53c.14-.08,.19-.27,.11-.41-.08-.14-.27-.19-.41-.11l-2.11,1.22,1.08-2.19c.07-.15,.01-.33-.14-.4-.15-.07-.33-.01-.4,.14l-1.35,2.74c-.21-.14-.45-.26-.69-.33,.03-.23,.05-.47,.09-.7,.21-1.46,.51-2.67,.92-3.73,.43-1.1,.94-1.89,1.53-2.43,.14-.12,.28-.23,.43-.31,.21-.12,.42-.18,.61-.2,.17-.01,.32,.01,.45,.08,.04,.02,.09,.07,.15,.12,.13,.11,.31,.27,.58,.28,.13,0,.25-.04,.34-.08,.04-.02,.1-.04,.13-.04,.2-.02,.37,.06,.47,.14,.08,.06,.14,.11,.2,.16,.14,.13,.28,.26,.6,.33,.05,.01,.1,.02,.15,.03,.2,.03,.36,.06,.58,.26,.25,.23,.27,.37,.3,.54,.02,.14,.05,.31,.18,.49,.08,.12,.18,.21,.27,.3,.12,.12,.22,.23,.27,.36Z"/></g></g><path class="cls-5" d="M288.73,124.51l.64,2.98,.08,.36c.03,.13-.03,.26-.15,.32s-.26,.04-.35-.05l-.27-.26-2.19-2.13c-.12-.11-.12-.3,0-.42s.3-.12,.42,0l1.75,1.7-.51-2.38c-.03-.16,.07-.32,.23-.35,.16-.03,.32,.07,.35,.23Z"/><path class="cls-5" d="M288.31,130.28s0,.01,0,.02c0,0,0,0,0,0,0,0,0,0,0,0,0,0,0,0,0,.01,0,0,0,0,0,0,.01,.12-.05,.24-.15,.29h0s-.33,.18-.33,.18l-2.7,1.42c-.15,.08-.33,.02-.4-.13-.08-.15-.02-.33,.12-.4l2.16-1.14-2.42-.25c-.16-.02-.28-.16-.27-.33,.02-.16,.16-.28,.33-.27l3.03,.31h0s.37,.04,.37,.04c.12,.01,.22,.1,.26,.22Z"/><path class="cls-5" d="M290.28,132.15l.06,.36h0s.52,3.01,.52,3.01c.02,.13-.04,.25-.15,.31-.03,.02-.06,.03-.09,.03-.16,.03-.32-.08-.34-.24l-.41-2.4-.99,2.23c-.07,.15-.24,.22-.39,.15-.15-.07-.22-.24-.15-.39l1.24-2.79h0s.15-.34,.15-.34c.05-.12,.18-.19,.31-.18,.13,.02,.23,.12,.26,.25Z"/><path class="cls-5" d="M296.02,131.43c-.02,.16-.17,.28-.34,.25l-2.41-.35,1.81,1.63c.12,.11,.13,.3,.02,.42-.02,.03-.05,.05-.08,.06-.11,.06-.25,.05-.34-.04l-2.27-2.04h0s-.27-.25-.27-.25c-.1-.09-.13-.23-.07-.35,.06-.12,.18-.19,.31-.17l.36,.05h0s3.02,.44,3.02,.44c.16,.02,.28,.17,.25,.34Z"/><path class="cls-5" d="M295.05,126.39c.08,.14,.03,.33-.11,.41l-2.64,1.53-.32,.19h0c-.11,.06-.24,.05-.33-.02,0,0,0,0,0,0,0,0,0,0,0,0,0,0,0,0,0,0,0,0,0,0,0,0-.09-.09-.11-.23-.06-.34l.16-.33h0s1.35-2.74,1.35-2.74c.07-.15,.25-.21,.4-.14,.15,.07,.21,.25,.14,.4l-1.08,2.19,2.11-1.22c.14-.08,.32-.03,.41,.11Z"/><g><path class="cls-5" d="M292.47,128.56s0,0,0,0c-.01-.02-.02-.04-.04-.06,0-.01-.02-.03-.03-.04-.01-.02-.02-.03-.03-.05,0-.01-.02-.02-.02-.03,0-.01-.02-.03-.03-.04,0,0,0-.01-.01-.02,0-.01-.02-.02-.03-.03-.01-.02-.03-.03-.04-.05h0s-.02-.03-.04-.04c-.02-.02-.04-.05-.07-.07-.01-.01-.02-.02-.03-.04-.01-.01-.03-.03-.04-.04-.01-.01-.02-.02-.03-.03-.01,0-.02-.02-.03-.03-.01,0-.02-.02-.03-.03-.01-.01-.03-.02-.04-.04,0,0,0,0,0,0,0,0-.02-.01-.02-.02,0,0-.02-.01-.02-.02-.02-.01-.03-.03-.05-.04-.02-.01-.03-.02-.05-.04-.01,0-.03-.02-.04-.03-.04-.03-.08-.05-.12-.07-.02-.01-.04-.02-.06-.03-.03-.02-.06-.04-.1-.05,0,0,0,0,0,0-.03-.02-.07-.03-.1-.05-.03-.02-.07-.03-.1-.04-.02,0-.04-.02-.06-.03-.04-.01-.08-.03-.11-.04-.12-.04-.23-.07-.35-.09-.09-.02-.18-.03-.28-.04-.11,0-.21,0-.32,0-.05,0-.11,0-.16,.01-.02,0-.04,0-.05,0-.02,0-.05,0-.07,.01-.02,0-.05,0-.07,.01-.02,0-.05,0-.07,.01-.09,.02-.19,.05-.28,.08h-.01s-.02,.01-.04,.02c0,0-.02,0-.03,0-.02,0-.05,.02-.07,.03-.02,0-.04,.02-.06,.02-.01,0-.03,.01-.04,.02-.02,0-.03,.02-.05,.02-.04,.02-.08,.04-.12,.06s-.08,.04-.11,.07c-.02,.01-.03,.02-.05,.03,0,0,0,0,0,0,0,0-.02,.01-.03,.02-.02,.01-.03,.02-.05,.03-.02,.01-.04,.03-.06,.04,0,0-.02,.01-.02,.02,0,0-.02,.01-.02,.02,0,0-.01,0-.02,.01-.06,.04-.11,.09-.16,.14-.02,.02-.03,.03-.05,.05-.02,.02-.03,.03-.05,.05-.02,.02-.03,.04-.05,.05-.02,.02-.03,.04-.05,.05-.01,.01-.02,.03-.04,.04-.03,.04-.07,.09-.1,.13-.06,.09-.12,.18-.17,.27-.04,.08-.08,.17-.12,.25-.07,.17-.12,.34-.15,.52-.01,.07-.02,.14-.03,.2-.01,.11-.01,.23,0,.34,0,.02,0,.03,0,.05,0,.02,0,.04,0,.06,0,.02,0,.04,0,.06,0,.02,0,.04,0,.06,0,.02,0,.04,0,.06,0,0,0,0,0,0,0,0,0,0,0,.01,0,.02,0,.04,0,.06,0,.02,0,.04,.01,.06,0,.02,0,.04,.01,.06,0,.02,0,.03,.01,.05,0,.03,.02,.06,.03,.09,0,.02,0,.03,.02,.05h0s.01,.04,.02,.06c0,.01,0,.03,.01,.04,0,0,0,.01,0,.02,0,.02,.01,.03,.02,.05,0,.01,0,.02,.01,.04,0,.02,.01,.03,.02,.05,0,.02,.01,.03,.02,.05,0,.02,.02,.04,.03,.06,0,0,0,0,0,0,.02,.04,.04,.07,.06,.11,.01,.02,.02,.04,.04,.06,0,0,.01,.02,.02,.03h0s.02,.03,.03,.05c0,0,0,.01,.01,.02,.03,.05,.06,.1,.1,.14,.06,.09,.13,.17,.21,.24h0c.06,.07,.13,.13,.2,.19,.08,.07,.17,.13,.26,.19,0,0,.02,.01,.02,.02,.02,.02,.05,.03,.07,.04,.02,.01,.05,.03,.07,.04,.01,0,.03,.02,.05,.02,0,0,0,0,0,0,.01,0,.03,.01,.04,.02,.02,0,.04,.02,.06,.03,.02,0,.04,.02,.06,.03,0,0,0,0,0,0,.02,0,.04,.02,.06,.03,.02,0,.05,.02,.07,.03,.04,.02,.09,.03,.14,.05,.01,0,.03,0,.04,.01,.25,.07,.51,.11,.78,.1,.25,0,.51-.05,.76-.14,.1-.03,.2-.07,.3-.12,.04-.02,.08-.04,.12-.06s.08-.05,.12-.07c.09-.06,.18-.12,.26-.19,.2-.17,.38-.36,.52-.57,.15-.22,.26-.46,.33-.71,.02-.06,.03-.12,.05-.18,0-.02,.01-.05,.01-.07,0-.02,0-.05,.01-.07,0,0,0,0,0,0,0-.02,0-.05,.01-.07,0-.02,0-.04,0-.06,0-.02,0-.03,0-.05,0,0,0,0,0,0,0-.02,0-.03,0-.05,0-.02,0-.04,0-.06,0-.04,0-.08,0-.12,0-.11,0-.22-.02-.33h0c-.01-.09-.03-.18-.05-.27-.03-.11-.06-.21-.1-.31,0,0,0,0,0,0-.02-.05-.04-.1-.06-.15,0,0,0-.01,0-.02,0-.01-.01-.03-.02-.04l-.02-.03s-.02-.04-.03-.06c-.02-.04-.04-.07-.06-.11Zm-1.13,3.04h0s-.07,.05-.11,.07-.07,.04-.11,.06h0c-.42,.2-.89,.24-1.31,.13-.03,0-.06-.01-.09-.02-.03,0-.06-.02-.09-.03-.02,0-.04-.01-.07-.02-.02,0-.04-.02-.06-.03-.02,0-.04-.02-.06-.03-.04-.02-.08-.04-.12-.06-.02-.01-.04-.02-.06-.03-.02-.01-.03-.02-.05-.03-.02-.01-.04-.03-.07-.04-.02-.01-.04-.02-.05-.04,0,0,0,0,0,0-.02-.01-.04-.03-.06-.04,0,0,0,0,0,0,0,0,0,0,0,0s0,0,0,0c-.07-.05-.13-.11-.19-.18-.02-.02-.04-.04-.05-.06-.01-.01-.02-.02-.03-.04,0,0,0,0-.01-.01-.01-.01-.02-.03-.03-.04-.01-.02-.02-.03-.04-.05-.01-.02-.02-.03-.03-.05-.01-.02-.02-.03-.03-.05-.01-.02-.02-.04-.03-.06-.01-.02-.02-.03-.03-.05-.02-.03-.03-.06-.05-.1,0-.02-.02-.03-.02-.05,0-.02-.01-.03-.02-.05,0-.01-.01-.03-.02-.04,0,0,0,0,0,0,0-.01-.01-.03-.02-.04,0,0,0-.01,0-.02,0-.01,0-.03-.01-.04,0,0,0,0,0,0,0-.01-.01-.03-.01-.05,0-.02-.01-.04-.02-.06,0-.03-.02-.06-.02-.09,0,0,0,0,0,0,0,0,0,0,0,0,0,0,0,0,0-.01,0,0,0,0,0-.01,0,0,0,0,0-.02,0-.04-.01-.08-.02-.12,0-.01,0-.03,0-.04,0-.01,0-.02,0-.03,0-.01,0-.03,0-.04,0,0,0,0,0-.01,0-.01,0-.03,0-.04,0-.02,0-.03,0-.05,0-.02,0-.04,0-.06,0-.02,0-.04,0-.06,0-.02,0-.04,0-.06,0-.02,0-.04,0-.06,0-.05,.01-.09,.02-.14,0-.02,0-.03,0-.05,.01-.05,.02-.09,.03-.14,0-.02,0-.03,.01-.05,0-.02,0-.03,.01-.05,0-.02,.02-.05,.03-.07,.04-.1,.08-.19,.13-.28,.02-.03,.03-.06,.05-.08,0-.01,.02-.03,.03-.04,0-.01,.02-.03,.03-.04,.01-.02,.03-.04,.04-.06,.01-.01,.02-.03,.03-.04,.02-.02,.04-.04,.06-.06,.01-.01,.02-.03,.03-.04h0s.03-.03,.05-.05c0,0,0,0,0,0,.02-.02,.03-.03,.05-.05,.02-.02,.04-.04,.07-.06,.02-.02,.04-.03,.05-.04,0,0,.02-.02,.03-.02,.02-.02,.04-.03,.07-.05,.03-.02,.07-.05,.1-.07,.02-.01,.05-.03,.07-.04s.05-.03,.07-.04c.04-.02,.07-.04,.11-.05,.03-.01,.05-.02,.08-.03,.01,0,.02,0,.04-.01,.02,0,.04-.02,.07-.02,.03,0,.06-.02,.09-.03,.02,0,.04-.01,.06-.02,0,0,0,0,0,0,.02,0,.04,0,.07-.01h0s.03,0,.05,0c.04,0,.09-.01,.13-.02,.01,0,.02,0,.03,0,.03,0,.06,0,.1,0,.02,0,.03,0,.05,0,.02,0,.03,0,.05,0,.13,0,.26,.02,.38,.04,.02,0,.03,0,.05,.01,.02,0,.03,0,.05,.01,.07,.02,.14,.04,.21,.07,.09,.03,.18,.07,.26,.12,.02,.01,.04,.02,.06,.04,.03,.02,.07,.04,.1,.06h.02s0,.02,.01,.02c.01,0,.02,.02,.03,.03,0,0,.02,.01,.02,.02,.01,0,.02,.02,.03,.03,0,0,.01,0,.02,.01,.02,.02,.05,.04,.07,.06,0,0,0,0,.01,.01,0,0,0,0,0,0,0,0,0,0,0,0,0,0,0,0,0,0,0,0,0,0,0,0,0,0,0,0,0,0,.01,.01,.03,.03,.04,.04,0,0,.02,.02,.03,.03,.01,.01,.02,.02,.03,.04,0,0,.02,.02,.02,.03,0,0,0,0,0,0,.01,.01,.02,.03,.03,.04,0,0,.02,.02,.02,.03,.01,.01,.02,.02,.03,.04,0,0,0,0,0,0,0,.01,.02,.03,.03,.04,.01,.01,.02,.03,.03,.04,.01,.02,.02,.03,.03,.05,.02,.03,.04,.06,.06,.09,0,.02,.02,.04,.03,.05,.01,.02,.02,.04,.03,.06,0,.02,.02,.03,.02,.05,0,.02,.02,.04,.02,.06,0,0,0,0,0,.01,0,.01,.01,.03,.02,.04,0,.01,0,.02,.01,.03,0,0,0,.01,0,.02,0,.02,.01,.03,.02,.05,0,.02,0,.03,.01,.05,.03,.11,.05,.21,.06,.32,0,0,0,0,0,0,0,0,0,.02,0,.02,0,.02,0,.04,0,.07,0,.02,0,.04,0,.06,0,.02,0,.03,0,.05,0,.02,0,.03,0,.05,0,.01,0,.03,0,.04,0,.02,0,.03,0,.05,0,.02,0,.04,0,.06,0,.02,0,.04,0,.06,0,0,0,.02,0,.03,0,.02,0,.04,0,.05,0,.02,0,.04-.01,.06,0,.02,0,.03-.01,.05,0,.02,0,.04-.01,.06,0,.03-.01,.06-.02,.08,0,.02-.01,.04-.02,.06,0,.03-.02,.06-.03,.09,0,.02-.01,.03-.02,.05-.15,.37-.41,.69-.76,.91Z"/><path class="cls-21" d="M292.01,128.96s.02,.04,.03,.05c.01,.02,.02,.04,.03,.06,0,.02,.02,.03,.02,.05,0,.02,.02,.04,.02,.06,0,0,0,0,0,.01,0,.01,.01,.03,.02,.04,0,.01,0,.02,.01,.03,0,0,0,.01,0,.02,0,.02,.01,.03,.02,.05,0,.02,0,.03,.01,.05,.03,.11,.05,.21,.06,.32,0,0,0,0,0,0,0,0,0,.02,0,.02,0,.02,0,.04,0,.07,0,.02,0,.04,0,.06,0,.02,0,.03,0,.05,0,.02,0,.03,0,.05,0,.01,0,.03,0,.04,0,.02,0,.03,0,.05,0,.02,0,.04,0,.06,0,.02,0,.04,0,.06,0,0,0,.02,0,.03,0,.02,0,.04,0,.05,0,.02,0,.04-.01,.06,0,.02,0,.03-.01,.05,0,.02,0,.04-.01,.06,0,.03-.01,.06-.02,.08,0,.02-.01,.04-.02,.06,0,.03-.02,.06-.03,.09,0,.02-.01,.03-.02,.05-.15,.36-.41,.68-.75,.91,0,0,0,0-.01,0h0s-.07,.05-.11,.07-.07,.04-.11,.06h0s0,0-.01,0c-.41,.19-.87,.23-1.3,.13-.03,0-.06-.02-.09-.02s-.06-.02-.09-.03c-.02,0-.04-.01-.07-.02-.02,0-.04-.02-.06-.03-.02,0-.04-.02-.06-.03-.04-.02-.08-.04-.12-.06-.02-.01-.04-.02-.06-.03-.02-.01-.03-.02-.05-.03-.02-.01-.04-.03-.07-.04-.02-.01-.04-.02-.05-.04,0,0,0,0,0,0-.02-.01-.04-.03-.06-.04,0,0,0,0,0,0,0,0,0,0,0,0s0,0,0,0c-.07-.05-.13-.11-.19-.18-.02-.02-.04-.04-.05-.06-.01-.01-.02-.02-.03-.04,0,0,0,0-.01-.01-.01-.01-.02-.03-.03-.04-.01-.02-.02-.03-.04-.05s-.02-.03-.03-.05c-.01-.02-.02-.03-.03-.05-.01-.02-.02-.04-.03-.06-.01-.02-.02-.03-.03-.05-.02-.03-.03-.06-.05-.1,0-.02-.02-.03-.02-.05,0-.02-.01-.03-.02-.05,0-.01-.01-.03-.02-.04,0,0,0,0,0,0,0-.01-.01-.03-.02-.04,0,0,0-.01,0-.02,0-.01,0-.03-.01-.04,0,0,0,0,0,0,0-.01-.01-.03-.01-.05,0-.02-.01-.04-.02-.06,0-.03-.02-.06-.02-.09,0,0,0,0,0,0,0,0,0,0,0,0,0,0,0,0,0-.01,0,0,0,0,0,0,0,0,0,0,0,0,0,0,0,0,0-.02,0-.04-.01-.08-.02-.12,0-.01,0-.03,0-.04,0-.01,0-.02,0-.03,0-.01,0-.03,0-.04,0,0,0,0,0-.01,0-.01,0-.03,0-.04,0-.02,0-.03,0-.05,0-.02,0-.04,0-.06,0-.02,0-.04,0-.06,0-.02,0-.04,0-.06,0-.02,0-.04,0-.06,0-.05,.01-.09,.02-.14,0-.02,0-.03,0-.05,.01-.05,.02-.09,.03-.14,0-.02,0-.03,.01-.05,0-.02,0-.03,.01-.05,0-.02,.02-.05,.03-.07,.04-.1,.08-.19,.13-.28,.02-.03,.03-.06,.05-.08,0-.01,.02-.03,.03-.04,0-.01,.02-.03,.03-.04,.01-.02,.03-.04,.04-.06,.01-.01,.02-.03,.03-.04,.02-.02,.04-.04,.06-.06,.01-.01,.02-.03,.03-.04h0s.03-.03,.05-.05c0,0,0,0,0,0,.02-.02,.03-.03,.05-.05,.02-.02,.04-.04,.07-.06,.02-.02,.04-.03,.05-.04,0,0,.02-.02,.03-.02,.02-.02,.04-.03,.07-.05,.03-.02,.07-.05,.1-.07,.02-.01,.05-.03,.07-.04s.05-.03,.07-.04c.04-.02,.07-.04,.11-.05,.03-.01,.05-.02,.08-.03,.01,0,.02,0,.04-.01,.02,0,.04-.02,.07-.02,.03,0,.06-.02,.09-.03,.02,0,.04-.01,.06-.02,0,0,0,0,0,0,.02,0,.04,0,.07-.01h0s.03,0,.05,0c.04,0,.09-.01,.13-.02,.01,0,.02,0,.03,0,.03,0,.06,0,.1,0,.02,0,.03,0,.05,0,.02,0,.03,0,.05,0,.13,0,.26,.02,.38,.04,.02,0,.03,0,.05,.01,.02,0,.03,0,.05,.01,.07,.02,.14,.04,.21,.07,.09,.03,.18,.07,.26,.12,.02,.01,.04,.02,.06,.04,.03,.02,.07,.04,.1,.06h.02s0,.02,.01,.02c.01,0,.02,.02,.03,.03,0,0,.02,.01,.02,.02,.01,0,.02,.02,.03,.03,0,0,.01,0,.02,.01,.02,.02,.05,.04,.07,.06,0,0,0,0,.01,.01,0,0,0,0,0,0,0,0,0,0,0,0,0,0,0,0,0,0,0,0,0,0,0,0,0,0,0,0,0,0,.01,.01,.03,.03,.04,.04,0,0,.02,.02,.03,.03,.01,.01,.02,.02,.03,.04,0,0,.02,.02,.02,.03,0,0,0,0,0,0,.01,.01,.02,.03,.03,.04,0,0,.02,.02,.02,.03,.01,.01,.02,.02,.03,.04,0,0,0,0,0,0,0,.01,.02,.03,.03,.04,.01,.01,.02,.03,.03,.04,.01,.02,.02,.03,.03,.05,.02,.03,.04,.06,.06,.09Z"/></g></g></svg>