<?xml version="1.0" encoding="utf-8"?>
<!-- Generator: Adobe Illustrator 27.0.1, SVG Export Plug-In . SVG Version: 6.00 Build 0)  -->
<svg version="1.1" id="scuba" xmlns="http://www.w3.org/2000/svg" xmlns:xlink="http://www.w3.org/1999/xlink" x="0px" y="0px"
	 viewBox="0 0 664.9 253.3" style="enable-background:new 0 0 664.9 253.3;" xml:space="preserve">
<style type="text/css">
	.st0{fill:#E0B89A;}
	.st1{fill:#0B2A54;}
	.st2{fill:url(#SVGID_1_);}
	.st3{fill:#AA9371;}
	.st4{fill:url(#SVGID_00000169537258702644677380000008374719289615725207_);}
	.st5{fill:#AC7D6A;}
	.st6{fill:#6BAAB1;}
	.st7{opacity:0.59;fill:#9FD1DA;enable-background:new    ;}
	.st8{fill:#D5AC99;}
	.st9{fill:url(#SVGID_00000140729459805501012620000006391252783309809305_);}
	.st10{fill:#061526;}
	.st11{fill:#4E5656;}
	.st12{fill:#6C6D6D;}
	.st13{fill:url(#SVGID_00000002380109856317473470000015862828481108045742_);}
	.st14{fill:#FFFFFF;}
	.st15{font-family:'Ragile';}
	.st16{font-size:18.487px;}
	.st17{fill:#EC8B64;}
	.st18{fill:url(#SVGID_00000127751300198812554900000000197797177683343536_);}
	.st19{fill:url(#SVGID_00000137108747754281159220000003862717056277763977_);}
	.st20{fill:url(#SVGID_00000081624224438890710370000007293649100231760267_);}
	.st21{fill:url(#SVGID_00000131339426124873339930000009228577810129676679_);}
	.st22{fill:url(#SVGID_00000142858723535166125410000013421015672012257682_);}
	.st23{fill:url(#SVGID_00000029730103869484422650000006310910712151152318_);}
</style>
<path class="st0" d="M586.3,173.3l0.2-6c0,0,0.7-3.6,0.5-10c0-1.7-0.4-3.3-1-4.9c-0.7-1.9-1.8-4.4-2.8-5.6c-1.2-1.4-0.1-3.7,1.6-3.3
	c1.7,0.4,5.2,4.3,6.9,10.2s5.5-3,7-6.2s6.4-13,7.8-13.3c2-0.5,2.9,1.5,1.3,4.7c-1.6,3.2-5.4,13-3.7,13.7c1.7,0.7,8.9-15.8,8.9-15.8
	s1-3.8,3-3c3.7,1.3-5.3,18.3-6.2,19.9c-0.6,1.1,1.2,1.9,1.8,0.7c0.6-1.3,6.8-16.6,10.5-15.3c2.9,1-7.2,14-6.7,17.9
	c0.5,3.9,6.7-10.6,9.4-9.6c1,0.4,1.7,0.8-3,8.7c-4.9,8-21.6,27.6-21.6,27.6L586.2,173"/>
<path class="st1" d="M472.7,117.4c0,0,19-4.6,35.2,33.1c26,60.7,79.4,12.6,79.4,12.6l21.5,10.4c0,0-28.9,45.8-83,33.5
	c-24.8-5.6-40.5-25.8-49.4-44.2C460,129.1,472.7,117.4,472.7,117.4L472.7,117.4z"/>
<linearGradient id="SVGID_1_" gradientUnits="userSpaceOnUse" x1="236.2723" y1="914.3453" x2="300.268" y2="850.3596" gradientTransform="matrix(-1 0 0 -1 664.9172 993.2539)">
	<stop  offset="0" style="stop-color:#4A88A0"/>
	<stop  offset="0.24" style="stop-color:#417E96"/>
	<stop  offset="0.64" style="stop-color:#2C667D"/>
	<stop  offset="0.99" style="stop-color:#144B61"/>
</linearGradient>
<path class="st2" d="M429,107.1l-52.5,47.7l-25.8-26.6l52.8-48.8c7.5-6.9,19.1-6.6,26.2,0.7l0,0C437.2,87.7,436.9,100,429,107.1
	L429,107.1z"/>
<path class="st1" d="M398.4,206.6c0,0-129,58.2-171.1,42.8c-42-15.4-53.3-96.1-53.3-96.1l39.5,0.7c0,0,13.5,59.4,31.8,55.1
	c22.1-5.2,104.9-43.1,104.9-43.1L398.4,206.6L398.4,206.6z"/>
<path class="st1" d="M328.2,135c0,0-22.2-4.2-42.5,0s-77.9,11.1-102.4,0c-27.2-12.3-77.5-45.1-77.5-45.1l-23.3,26.3
	c0,0,66.4,81.6,155.8,72c87.7-9.4,113.2-6.9,113.2-6.9L328.2,135"/>
<path class="st3" d="M524.9,68.9c5.3,0.5,10.6-3.3,11.8-8.5c1.6-6.7-3.2-13.2-4.2-20.1c-0.7-4.9,0.6-9.8,0.5-14.7
	c-0.1-4.9-2.2-10.4-6.9-11.9c-2.8-0.9-6.2-0.1-8.8-1.6c-2.6-1.5-3.6-4.6-5.3-7c-3.8-5.4-12.2-6.8-17.6-3c-1.9,1.3-3.4,3.1-5.4,4.1
	c-4.2,2.1-9.2,0.1-13.6-1.4c-3.5-1.2-7.2-2.1-10.8-1.4s-7.1,3.2-7.8,6.8c-0.5,2.3,0.2,4.8-0.5,7.1c-1.2,3.8-5.7,5.5-9.6,6.1
	c-5.3,0.8-10.8,0.8-15.7,3.1c-4.8,2.3-8.7,7.9-6.8,12.9c1,2.6,3.3,4.4,4.5,6.9c2.7,5.5-0.8,12-0.8,18.1c0.1,7.5,5.7,14.1,12.4,17.6
	c6.7,3.4,14.4,4.3,21.9,5.2l23.1-36.7l28.1,4.5L524.9,68.9L524.9,68.9z"/>
<path class="st0" d="M478.2,117.2c1.2-3.1,7.7-15.2,7.7-15.2c3,1,9.9,2.2,21.1-5.2c9-6,20.8-34.5,20.8-34.5l-14-21.6l-29.2,4.8
	L453.1,100L478.2,117.2L478.2,117.2z"/>
<linearGradient id="SVGID_00000165933254673999297390000011538065357201653120_" gradientUnits="userSpaceOnUse" x1="179.9672" y1="838.8676" x2="336.7115" y2="838.8676" gradientTransform="matrix(-1 0 0 -1 664.9172 993.2539)">
	<stop  offset="0" style="stop-color:#98C5CC"/>
	<stop  offset="0.17" style="stop-color:#8EBFC7"/>
	<stop  offset="0.45" style="stop-color:#75B0BA"/>
	<stop  offset="0.8" style="stop-color:#4C99A5"/>
	<stop  offset="0.99" style="stop-color:#338B99"/>
</linearGradient>
<path style="fill:url(#SVGID_00000165933254673999297390000011538065357201653120_);" d="M328.2,135c0.5,1,38.1,84.8,38.1,84.8
	c44.3-13.9,66.3-35.9,68.8-37c2.5-1,29.3-15.3,32.3-18.2c4.2-4.1,4.2-12.7,3.9-17.2l13.6-27.2l-6.5-3.4l3.4-5.6l-24-19.4l-4.6,8
	l-1.9-1.3c0,0-15.1-10.9-23.6-9.3c-8.5,1.6-24.2,39.9-24.2,39.9l-29.6,19.9C373.9,148.9,327.7,134,328.2,135L328.2,135z"/>
<path class="st5" d="M485.9,102c0,0-5.5-3.4-9.6-12.5c0,0-2.5,8.4,8.6,14.5L485.9,102z"/>
<path class="st6" d="M414.3,144.7c-0.2,0.1,0.1,1.5,1.5,3.4c1.4,1.8,4,3.9,7.6,4.7c3.5,0.8,6.8,0.1,8.9-0.9c2.1-1,3-2.1,2.8-2.4
	c-0.2-0.3-1.4,0.3-3.4,0.9c-2,0.5-4.8,0.9-7.8,0.2c-3-0.7-5.4-2.3-6.9-3.6C415.4,145.6,414.6,144.6,414.3,144.7L414.3,144.7z"/>
<path class="st0" d="M485.3,201.8l3.8-4.6c0,0,2.8-2.4,6.6-7.6c1-1.4,1.7-2.9,2.2-4.5c0.6-1.9,1.3-4.5,1.2-6.1
	c-0.1-1.9,2.2-2.9,3.3-1.6c1.1,1.4,1.5,6.6-0.8,12.3c-2.3,5.7,6.2,1,9.3-0.6c3.1-1.6,13-6.3,14.3-5.8c1.9,0.8,1.3,3-1.8,4.5
	c-3.2,1.6-12.3,7-11.3,8.6c0.9,1.6,16.7-7.1,16.7-7.1s3.1-2.4,4.2-0.6c2.1,3.3-15.3,11.2-17,12c-1.2,0.5-0.2,2.3,1,1.7
	c1.3-0.6,15.5-9,17.7-5.7c1.7,2.5-14.3,6.7-16.3,10c-2,3.4,11.8-4.4,13.3-1.9c0.5,0.9,0.8,1.7-7.7,5c-8.8,3.4-34,8.7-34,8.7
	l-4.5-17.2"/>
<path class="st1" d="M429.6,88.1c0,0,17.9,8,7.6,47.8c-16.5,64,55.1,58.5,55.1,58.5l10.6,21.4c0,0-50.9,18.6-86.1-24.3
	c-16.1-19.6-17.9-45.5-12.1-65.1C415.9,89,429.6,88.1,429.6,88.1L429.6,88.1z"/>
<path class="st1" d="M476.2,56.4l1.3-2c5-7.8,15.4-10.1,23.1-5l19.7,13c7.1,4.7,9.5,13.9,5.6,21.5l-1.2,2.3c-2.1,4-6.6,6.3-11,5.4
	c-4.4-0.8-9.1-3.2-9.7-9.6c-1.2-12.3-6.7-5-11-5.9c-3.8-0.8-14.5-1.7-17.8-12.2C474.4,61.5,474.8,58.7,476.2,56.4L476.2,56.4z
	 M480.3,64.4c2.8,8.5,11.7,9.2,14.9,9.9c3.6,0.7,8.2-5.2,9.2,4.8c0.5,5.1,4.4,7.1,8.1,7.8c3.7,0.7,7.5-1.1,9.2-4.4l1-1.9
	c3.3-6.1,1.3-13.6-4.7-17.4l-16.5-10.5c-6.5-4.1-15.2-2.3-19.3,4l-1.1,1.6C480,60.1,479.7,62.3,480.3,64.4L480.3,64.4z"/>
<path class="st7" d="M522.8,80.5l-1,1.9c-1.8,3.3-5.5,5.1-9.2,4.4c-3.7-0.7-7.6-2.6-8.1-7.8c-1-10-5.6-4.1-9.2-4.8
	c-3.2-0.6-12.1-1.4-14.9-9.9c-0.7-2.1-0.3-4.3,0.9-6.1l1.1-1.6c4.1-6.3,12.9-8.1,19.3-4l16.5,10.5C524,66.9,526,74.4,522.8,80.5
	L522.8,80.5z"/>
<path class="st3" d="M527.1,64.9c-5.6-3.2-10.2-8.1-12.9-13.9c-0.5-1-0.9-2.1-1.8-2.7c-1.1-0.8-2.6-0.7-4-0.6
	c-6.1,0.5-12.4,0.4-18.5-0.3c-3-0.3-6.3-0.9-8.4-3.1c5-2.9,10.5-5.2,16.2-6.6c4.8-1.2,9.9-1.9,14.8-1.1c4.9,0.8,9.7,3.3,12.7,7.3
	c3.2,4.4,3.9,10.2,4.4,15.6c0.1,0.9,0.2,1.8-0.1,2.7c-0.2,0.9-0.9,1.7-1.8,1.8"/>
<path class="st1" d="M99,88.1L0,163.1L22.8,192c0,0,89.5-94.4,85.9-100.2C105.1,85.9,99,88.1,99,88.1L99,88.1z"/>
<path class="st1" d="M202.7,149.4l-99,75l22.8,28.9c0,0,89.5-94.4,85.9-100.2C208.8,147.2,202.7,149.4,202.7,149.4L202.7,149.4z"/>
<path class="st8" d="M475.6,54.9l-3.7,5.7c-1.7-0.1-3.3-1-4.2-2.4c-1-1.4-1.3-3.2-0.8-4.8c0.3-1,0.9-1.9,1.8-2.4
	c1.2-0.7,2.8-0.4,4,0.3c1.2,0.7,2.1,1.8,3,2.9"/>
<polygon class="st1" points="483.7,52.3 475.6,45.8 472.6,51.2 478.2,57.4 "/>
<linearGradient id="SVGID_00000092436280978097556780000018144516768174252470_" gradientUnits="userSpaceOnUse" x1="256.3522" y1="833.322" x2="278.8172" y2="810.8569" gradientTransform="matrix(-1 0 0 -1 664.9172 993.2539)">
	<stop  offset="0" style="stop-color:#4A88A0"/>
	<stop  offset="0.24" style="stop-color:#417E96"/>
	<stop  offset="0.64" style="stop-color:#2C667D"/>
	<stop  offset="0.99" style="stop-color:#144B61"/>
</linearGradient>
<polygon style="fill:url(#SVGID_00000092436280978097556780000018144516768174252470_);" points="388.1,139.4 414.3,197.8 
	406.3,202.6 380.2,144.7 "/>
<path class="st10" d="M499.6,66.8c-0.5,0.1-1.5-2.7-4.3-4.5c-2.8-1.9-5.8-1.7-5.8-2.3c0-0.3,0.7-0.7,2-0.8c1.3-0.1,3.2,0.2,5,1.4
	s2.8,2.8,3.2,4.1C499.9,65.9,499.8,66.7,499.6,66.8L499.6,66.8z"/>
<path class="st10" d="M514.4,75.3c-0.5,0.1-1.4-2.4-3.8-4c-2.4-1.7-5.1-1.5-5.2-2c0-0.2,0.6-0.6,1.8-0.7c1.2-0.1,2.9,0.2,4.4,1.2
	s2.4,2.5,2.8,3.6C514.8,74.5,514.6,75.2,514.4,75.3L514.4,75.3z"/>
<path class="st10" d="M484.2,77.5c0.8,0,1.5,4.4,5,8c3.5,3.7,7.8,4.6,7.8,5.4c0,0.4-1.2,0.7-3.1,0.3c-1.9-0.4-4.6-1.6-6.8-3.9
	c-2.2-2.3-3.2-5-3.5-6.9C483.5,78.6,483.9,77.5,484.2,77.5L484.2,77.5z"/>
<g>
	<polygon class="st11" points="630.9,164.3 542.9,145.8 567.2,138.1 654,156.4 	"/>
	
		<rect x="588.4" y="76.2" transform="matrix(0.2057 -0.9786 0.9786 0.2057 371.9434 698.4308)" class="st12" width="55.6" height="87.8"/>
</g>
<linearGradient id="SVGID_00000003820498562810567810000012689600470696698269_" gradientUnits="userSpaceOnUse" x1="18.4322" y1="902.782" x2="78.6572" y2="842.5569" gradientTransform="matrix(-1 0 0 -1 664.9172 993.2539)">
	<stop  offset="0" style="stop-color:#4A88A0"/>
	<stop  offset="0.24" style="stop-color:#417E96"/>
	<stop  offset="0.64" style="stop-color:#2C667D"/>
	<stop  offset="0.99" style="stop-color:#144B61"/>
</linearGradient>
<polygon style="fill:url(#SVGID_00000003820498562810567810000012689600470696698269_);" points="662,106 580.8,89.1 571,135.4 
	651.8,152.3 "/>
<text transform="matrix(0.7376 0.1356 -0.1808 0.9835 582.7347 123.4182)" class="st14 st15 st16">a</text>
<text transform="matrix(0.7376 0.1356 -0.1808 0.9835 590.7124 124.8845)" class="st14 st15 st16">u</text>
<text transform="matrix(0.7376 0.1356 -0.1808 0.9835 599.0455 126.4161)" class="st14 st15 st16">h</text>
<text transform="matrix(0.7376 0.1356 -0.1808 0.9835 607.1058 127.8975)" class="st14 st15 st16">a</text>
<text transform="matrix(0.7376 0.1356 -0.1808 0.9835 614.632 129.2808)" class="st14 st15 st16">c</text>
<text transform="matrix(0.7376 0.1356 -0.1808 0.9835 622.3041 130.6919)" class="st14 st15 st16">ks :)</text>
<g>
	<g>
		<g>
			<path class="st17" d="M475.5,33.4c0.4-0.6,1.1-1.2,1.9-1.1c0.2,0,0.3,0.1,0.4,0.2c0.1,0.1,0.2,0.1,0.2,0.1s0.1-0.1,0.2-0.1
				c0.1-0.1,0.3-0.2,0.6-0.2c0.3,0,0.5,0.1,0.7,0.2c0.1,0.1,0.2,0.1,0.3,0.1c0.1,0,0.1,0,0.3,0c0.2,0,0.5-0.1,1,0.2
				c0.4,0.2,0.6,0.5,0.7,0.7c0,0,0,0.1,0.1,0.1c0.1,0.1,0.1,0.2,0.3,0.2c0.1,0,0.2,0.1,0.3,0.2c0.3,0.2,0.4,0.4,0.5,0.8
				c0,0.1,0,0.2,0,0.3c0,0,0,0.1,0,0.1c0,0.1,0.1,0.1,0.2,0.2c0.1,0.1,0.2,0.1,0.3,0.2c0.2,0.2,0.3,0.4,0.4,0.7c0.1,0.4,0,1-0.2,1.5
				c-0.4,0.8-1,1.6-2,2.4c-0.5,0.4-1,0.7-1.5,1.1l0,0c-0.6,0.3-1.2,0.7-1.9,1c-0.2,0.1-0.4,0.2-0.6,0.3c-0.1,0-0.2,0.1-0.3,0.1
				s-0.2,0-0.3,0c0,0-0.1-0.1-0.1-0.1c0,0,0,0,0,0c0,0,0-0.1,0-0.1c0,0,0,0,0,0c0,0,0,0,0,0c0,0,0,0,0-0.1s0,0,0,0c0,0,0,0-0.1-0.1
				c0,0,0,0,0,0l0,0c0,0,0,0,0-0.1l0,0c0,0,0,0,0-0.1s0,0-0.1-0.1c0,0,0,0,0,0c0,0,0,0,0,0c0,0,0,0-0.1-0.1s-0.1-0.1-0.1-0.1
				c0,0,0,0-0.1,0s0,0-0.1,0c0,0-0.1,0-0.1-0.1c0,0,0,0-0.1,0c0,0,0,0,0,0c0,0,0,0-0.1,0s-0.1,0-0.1,0c0,0,0,0-0.1,0l0,0
				c0,0,0,0-0.1,0l0,0c0,0,0,0,0,0c0,0-0.1,0-0.1,0c0,0,0,0,0,0c0,0-0.1,0-0.1,0c0,0,0,0,0,0s0,0,0,0s0,0-0.1,0c0,0-0.1,0-0.1,0
				c0,0,0,0,0,0c-0.1,0-0.1-0.1-0.1-0.2c0-0.1,0-0.2,0-0.3c0-0.2-0.1-0.4-0.1-0.7c-0.1-0.8-0.1-1.5-0.1-2.1l0,0l0,0
				c0-0.7,0-1.3,0.1-1.9C474.7,35.1,475,34.1,475.5,33.4L475.5,33.4z M475.1,36.4c-0.1,1.1-0.1,2.4,0,3.8c0,0.2,0,0.5,0.1,0.7
				c0,0,0.1,0,0.2,0c0,0,0,0,0,0c0,0,0,0,0.1,0c0,0,0,0,0.1,0c0,0,0,0,0.1,0c0.1,0,0.2,0.1,0.3,0.1h0c0,0,0,0,0,0c0,0,0,0,0,0
				c0,0,0,0,0.1,0c0,0,0,0,0.1,0c0,0,0,0,0,0c0,0,0,0,0,0c0,0,0.1,0,0.1,0.1s0.1,0,0.1,0.1c0,0,0,0,0,0l0,0c0,0,0,0,0,0c0,0,0,0,0,0
				s0,0,0.1,0c0,0,0,0,0,0c0,0,0,0,0,0c0,0,0,0,0,0c0.1,0,0.1,0.1,0.2,0.1c0,0,0,0,0,0c0,0,0,0,0,0.1s0,0,0,0.1c0,0,0,0,0,0.1
				c0,0,0,0,0,0c0,0,0.1,0.1,0.1,0.1c0.2-0.1,0.4-0.2,0.6-0.3c1.3-0.7,2.4-1.3,3.3-2c0.9-0.8,1.5-1.5,1.8-2.2
				c0.1-0.2,0.3-0.7,0.2-1.2c0-0.2-0.1-0.3-0.2-0.4c0,0-0.1-0.1-0.2-0.1c-0.1-0.1-0.4-0.2-0.4-0.5c0-0.1,0-0.2,0-0.3
				c0-0.1,0-0.1,0-0.1c0-0.2-0.2-0.3-0.3-0.4c-0.1-0.1-0.1-0.1-0.2-0.1c-0.2-0.1-0.3-0.2-0.5-0.5c0-0.1,0-0.1-0.1-0.1
				c-0.1-0.2-0.2-0.3-0.4-0.5c-0.3-0.2-0.4-0.1-0.6-0.1c-0.1,0-0.3,0.1-0.5,0c-0.1,0-0.3-0.1-0.4-0.2c-0.1-0.1-0.3-0.1-0.4-0.2
				c-0.1,0-0.2,0.1-0.3,0.1c-0.1,0.1-0.2,0.1-0.4,0.2c-0.3,0.1-0.5-0.1-0.6-0.1c-0.1-0.1-0.1-0.1-0.2-0.1c-0.5-0.1-1,0.4-1.3,0.8
				C475.6,34.3,475.3,35.2,475.1,36.4L475.1,36.4z"/>
			
				<linearGradient id="SVGID_00000161617770266653299340000012039399666940731542_" gradientUnits="userSpaceOnUse" x1="608.1656" y1="1605.5406" x2="608.1656" y2="1614.9407" gradientTransform="matrix(-0.875 -0.484 0.484 -0.875 231.1915 1740.8271)">
				<stop  offset="0" style="stop-color:#F5C4B0"/>
				<stop  offset="0.26" style="stop-color:#F4BCA6"/>
				<stop  offset="0.69" style="stop-color:#F1A98D"/>
				<stop  offset="0.99" style="stop-color:#EF9977"/>
			</linearGradient>
			<path style="fill:url(#SVGID_00000161617770266653299340000012039399666940731542_);" d="M475.1,36.4c-0.1,1.1-0.1,2.4,0,3.8
				c0,0.2,0,0.5,0.1,0.7c0,0,0.1,0,0.2,0c0,0,0,0,0,0c0,0,0,0,0.1,0c0,0,0,0,0.1,0c0,0,0,0,0.1,0c0.1,0,0.2,0.1,0.3,0.1h0
				c0,0,0,0,0,0l0.6-3c0-0.2,0.2-0.3,0.4-0.2s0.3,0.2,0.2,0.3l-0.5,2.4l1.8-1.7c0.1-0.1,0.3-0.1,0.4,0s0.1,0.3,0,0.4l-2.2,2.1
				c0,0,0,0,0,0c0,0,0,0,0,0c0.1,0,0.1,0.1,0.2,0.1c0,0,0,0,0,0.1s0,0,0,0.1s0,0,0,0.1c0,0,0,0,0,0.1c0,0,0,0,0,0
				c0,0,0.1,0.1,0.1,0.1c0.2-0.1,0.4-0.2,0.6-0.3c1.3-0.7,2.4-1.3,3.3-2c0.9-0.8,1.5-1.5,1.8-2.2c0.1-0.2,0.3-0.7,0.2-1.2
				c0-0.2-0.1-0.3-0.2-0.4c0,0-0.1-0.1-0.2-0.1c-0.1-0.1-0.4-0.2-0.4-0.5c0-0.1,0-0.2,0-0.3c0-0.1,0-0.1,0-0.1
				c0-0.2-0.2-0.3-0.3-0.4c-0.1-0.1-0.1-0.1-0.2-0.1c-0.2-0.1-0.3-0.2-0.5-0.5c0-0.1,0-0.1-0.1-0.1c-0.1-0.2-0.2-0.3-0.4-0.5
				c-0.3-0.2-0.4-0.1-0.6-0.1c-0.1,0-0.3,0.1-0.5,0c-0.1,0-0.3-0.1-0.4-0.2c-0.1-0.1-0.3-0.1-0.4-0.2c-0.1,0-0.2,0.1-0.3,0.1
				c-0.1,0.1-0.2,0.1-0.4,0.2c-0.3,0.1-0.5-0.1-0.6-0.1c-0.1-0.1-0.1-0.1-0.2-0.1c-0.5-0.1-1,0.4-1.3,0.8
				C475.6,34.3,475.3,35.2,475.1,36.4L475.1,36.4z"/>
		</g>
		<g>
			<path class="st17" d="M477.1,42.5c0.1-0.1,0.2-0.1,0.3-0.1c0.2-0.1,0.4-0.2,0.6-0.3c0.7-0.3,1.4-0.6,2-0.8l0,0
				c0.6-0.2,1.2-0.4,1.8-0.5c1.3-0.2,2.3-0.2,3.1,0c0.2,0.1,0.4,0.2,0.6,0.3c0.5,0.3,0.9,0.7,1,1.2c0,0.2,0,0.3,0,0.5
				c0,0.1,0,0.2,0,0.2c0,0.1,0.1,0.1,0.2,0.2c0.1,0.1,0.3,0.3,0.4,0.5c0.1,0.3,0,0.5,0,0.7c0,0.1,0,0.2,0,0.3c0,0.1,0,0.1,0.1,0.2
				c0.1,0.2,0.2,0.5,0.1,1c-0.1,0.5-0.3,0.7-0.5,0.9c0,0-0.1,0.1-0.1,0.1c-0.1,0.1-0.1,0.2-0.1,0.3c0,0.1,0,0.2-0.1,0.3
				c-0.1,0.3-0.3,0.6-0.6,0.7c-0.1,0.1-0.2,0.1-0.3,0.1c0,0-0.1,0-0.1,0c0,0-0.1,0.1-0.1,0.2c0,0.1,0,0.2-0.1,0.3
				c-0.1,0.2-0.3,0.4-0.5,0.6c-0.4,0.2-0.9,0.4-1.5,0.3c-0.7-0.1-1.5-0.3-2.3-0.8c-0.2-0.1-0.4-0.2-0.6-0.4c-0.5-0.3-1-0.7-1.5-1.1
				l0,0c-0.5-0.4-1-0.9-1.5-1.4c-0.2-0.2-0.3-0.3-0.5-0.5c-0.1-0.1-0.1-0.1-0.2-0.2c-0.1-0.1-0.1-0.2-0.1-0.3c0,0,0-0.1,0.1-0.1
				c0,0,0,0,0-0.1c0,0,0,0,0,0c0,0,0,0,0,0s0,0,0,0c0,0,0,0,0-0.1s0,0,0-0.1s0,0,0-0.1s0,0,0-0.1s0,0,0-0.1c0,0,0-0.1,0-0.1
				c0,0,0,0,0-0.1s0,0,0-0.1c0,0,0,0,0,0l0,0c0,0,0,0,0,0c0,0,0,0,0,0c0,0,0,0,0,0l0,0c0,0,0,0,0-0.1s0,0,0-0.1c0,0,0-0.1,0-0.1l0,0
				l0,0c0,0,0,0,0,0c0,0,0,0,0,0c0,0,0,0,0,0c0,0,0-0.1,0-0.1c0,0,0,0,0,0s0,0,0,0s0,0,0,0c0,0,0,0,0,0s0,0,0,0c0,0,0,0,0-0.1
				s0,0,0-0.1s0,0,0-0.1s0,0,0-0.1s0,0,0-0.1c0-0.1,0-0.1,0-0.1c0,0,0,0,0-0.1c0-0.1,0-0.1,0-0.1c0,0,0,0,0-0.1c0,0,0,0,0-0.1
				c0,0,0-0.1,0-0.1c0-0.1,0-0.1,0-0.1C476.9,42.6,476.9,42.5,477.1,42.5L477.1,42.5z M480.6,48.1c0.2,0.1,0.4,0.2,0.6,0.3
				c0.8,0.4,1.5,0.7,2.1,0.7c0.3,0,0.8,0,1.1-0.2c0.1-0.1,0.2-0.2,0.3-0.3c0-0.1,0-0.1,0-0.2c0-0.2,0.1-0.4,0.3-0.6
				c0.1-0.1,0.2-0.1,0.3-0.1c0,0,0.1,0,0.1,0c0.2-0.1,0.3-0.3,0.3-0.4c0-0.1,0-0.2,0.1-0.2c0-0.2,0.1-0.4,0.3-0.6
				c0,0,0.1-0.1,0.1-0.1c0.1-0.1,0.3-0.3,0.3-0.6c0.1-0.3,0-0.4-0.1-0.6c-0.1-0.1-0.1-0.3-0.1-0.5c0-0.1,0-0.3,0-0.4
				c0-0.2,0-0.3,0-0.4c0-0.1-0.1-0.1-0.2-0.2s-0.2-0.2-0.3-0.3c-0.1-0.3-0.1-0.5-0.1-0.7c0-0.1,0-0.2,0-0.2
				c-0.1-0.4-0.4-0.6-0.6-0.8c-0.1-0.1-0.3-0.2-0.5-0.2c-0.8-0.2-1.7-0.2-2.9,0c-1.1,0.2-2.3,0.6-3.6,1.2c-0.2,0.1-0.4,0.2-0.6,0.3
				c0,0.1,0,0.1,0,0.2c0,0.1,0,0.1,0,0.2c0,0.1,0,0.2,0,0.3c0,0,0,0,0,0.1s0,0,0,0.1s0,0,0,0.1s0,0,0,0.1s0,0,0,0.1l0,0c0,0,0,0,0,0
				c0,0,0,0,0,0.1s0,0,0,0.1c0,0,0,0,0,0.1c0,0,0,0,0,0.1c0,0,0,0.1,0,0.1c0,0,0,0,0,0.1l0,0c0,0,0,0,0,0.1c0,0,0,0,0,0c0,0,0,0,0,0
				c0,0,0,0,0,0.1c0,0,0,0,0,0c0,0,0,0,0,0.1c0,0,0,0,0,0.1c0,0,0,0,0,0.1l0,0c0,0,0,0.1-0.1,0.1c0,0,0,0,0,0.1c0,0,0,0,0,0l0,0
				c0,0,0,0,0,0.1c0,0,0,0,0,0c0,0.1-0.1,0.1-0.1,0.1c0.2,0.2,0.3,0.4,0.5,0.5C478.7,46.7,479.7,47.5,480.6,48.1L480.6,48.1z"/>
			
				<linearGradient id="SVGID_00000107585780071167690870000015373205229693083552_" gradientUnits="userSpaceOnUse" x1="606.2901" y1="1605.8737" x2="596.9401" y2="1605.8737" gradientTransform="matrix(-0.875 -0.484 0.484 -0.875 231.1915 1740.8271)">
				<stop  offset="0" style="stop-color:#F5C4B0"/>
				<stop  offset="0.26" style="stop-color:#F4BCA6"/>
				<stop  offset="0.69" style="stop-color:#F1A98D"/>
				<stop  offset="0.99" style="stop-color:#EF9977"/>
			</linearGradient>
			<path style="fill:url(#SVGID_00000107585780071167690870000015373205229693083552_);" d="M481,43.6c0,0.2-0.1,0.3-0.3,0.3
				l-2.4,0.2l2.2,1.1c0.1,0.1,0.2,0.3,0.1,0.4c-0.1,0.1-0.3,0.2-0.4,0.1l-2.7-1.4c0,0,0,0,0,0c0,0,0,0,0,0.1c0,0,0,0,0,0
				c0,0,0,0,0,0.1c0,0,0,0,0,0.1c0,0,0,0,0,0.1l0,0c0,0,0,0.1-0.1,0.1c0,0,0,0,0,0.1c0,0,0,0,0,0l0,0c0,0,0,0,0,0.1c0,0,0,0,0,0
				c0,0.1-0.1,0.1-0.1,0.1c0.2,0.2,0.3,0.4,0.5,0.5c1,1.1,2,1.9,2.9,2.5c0.2,0.1,0.4,0.2,0.6,0.3c0.8,0.4,1.5,0.7,2.1,0.7
				c0.3,0,0.8,0,1.1-0.2c0.1-0.1,0.2-0.2,0.3-0.3c0-0.1,0-0.1,0-0.2c0-0.2,0.1-0.4,0.3-0.6c0.1-0.1,0.2-0.1,0.3-0.1c0,0,0.1,0,0.1,0
				c0.2-0.1,0.3-0.3,0.3-0.4c0-0.1,0-0.2,0.1-0.2c0-0.2,0.1-0.4,0.3-0.6c0,0,0.1-0.1,0.1-0.1c0.1-0.1,0.3-0.3,0.3-0.6
				c0.1-0.3,0-0.4-0.1-0.6c-0.1-0.1-0.1-0.3-0.1-0.5c0-0.1,0-0.3,0-0.4c0-0.2,0-0.3,0-0.4c0-0.1-0.1-0.1-0.2-0.2s-0.2-0.2-0.3-0.3
				c-0.1-0.3-0.1-0.5-0.1-0.7c0-0.1,0-0.2,0-0.2c-0.1-0.4-0.4-0.6-0.6-0.8c-0.1-0.1-0.3-0.2-0.5-0.2c-0.8-0.2-1.7-0.2-2.9,0
				c-1.1,0.2-2.3,0.6-3.6,1.2c-0.2,0.1-0.4,0.2-0.6,0.3c0.1,0.2,0.1,0.5,0.1,0.8l3-0.3C480.9,43.3,481,43.5,481,43.6L481,43.6z"/>
		</g>
		<g>
			<path class="st17" d="M473.7,45.7c0-0.1,0.1-0.2,0.1-0.3c0-0.1,0.1-0.1,0.2-0.1c0,0,0.1,0,0.1,0l0,0c0,0,0,0,0,0
				c0.4,0.2,0.9,0.2,1.3,0.1c0,0,0.1,0,0.1,0s0.1,0,0.1,0c0,0,0,0,0.1,0c0,0,0,0,0.1,0c0,0,0,0,0.1,0c0,0,0.1,0,0.1-0.1
				c0,0,0,0,0.1,0s0,0,0,0s0,0,0.1,0c0,0,0,0,0,0l0,0c0,0,0,0,0.1,0l0,0l0,0l0,0c0,0,0.1-0.1,0.1-0.1c0.1,0,0.2,0,0.3,0.1
				s0.1,0.1,0.2,0.2l0,0c0.2,0.2,0.3,0.3,0.5,0.5c0.5,0.6,1,1.1,1.3,1.6l0,0c0.4,0.5,0.7,1.1,1,1.6c0.6,1.1,0.9,2.1,1,3
				c0,0.7-0.2,1.6-0.9,1.9c-0.2,0.1-0.3,0.1-0.4,0.1c-0.1,0-0.2,0-0.2,0.1c0,0.1-0.1,0.1-0.1,0.2c-0.1,0.2-0.2,0.4-0.4,0.5
				c-0.2,0.1-0.5,0.2-0.7,0.2c-0.1,0-0.2,0-0.3,0.1c-0.1,0-0.1,0.1-0.2,0.1c-0.1,0.1-0.4,0.4-0.9,0.4c-0.5,0.1-0.8-0.1-1-0.2
				c0,0-0.1,0-0.1-0.1c-0.1-0.1-0.2-0.1-0.4,0c-0.1,0-0.2,0-0.3,0c-0.2,0-0.4-0.1-0.6-0.2c-0.1,0-0.1-0.1-0.2-0.1
				c-0.1-0.1-0.1-0.1-0.2-0.2c0,0-0.1-0.1-0.1-0.1l0,0c0,0-0.1,0-0.2,0c-0.1,0-0.2,0-0.3,0c-0.1,0-0.3-0.1-0.5-0.1
				c-0.1-0.1-0.2-0.1-0.3-0.2c-0.4-0.3-0.6-0.8-0.8-1.4c-0.2-0.9-0.1-1.9,0.2-3.1c0.1-0.6,0.3-1.2,0.6-1.8s0.5-1.2,0.9-1.9
				C473.4,46.1,473.5,45.9,473.7,45.7L473.7,45.7z M473.9,46.6c-0.7,1.3-1.2,2.5-1.4,3.6c-0.3,1.1-0.4,2.1-0.2,2.9
				c0.1,0.4,0.3,0.8,0.5,1c0,0.1,0.1,0.1,0.2,0.1c0.1,0,0.2,0.1,0.2,0.1c0,0,0.1,0,0.2,0c0.2,0,0.4,0,0.6,0.1c0,0,0,0,0.1,0
				c0.1,0.1,0.2,0.2,0.2,0.3c0,0,0.1,0.1,0.1,0.1c0.1,0.1,0.3,0.2,0.5,0.2c0.1,0,0.2,0,0.2,0c0.2,0,0.4,0,0.7,0.1
				c0,0,0.1,0.1,0.1,0.1c0.2,0.1,0.3,0.2,0.6,0.1c0.3,0,0.4-0.1,0.6-0.3c0.1-0.1,0.2-0.2,0.4-0.3c0.1-0.1,0.3-0.1,0.4-0.1
				c0.2,0,0.3-0.1,0.4-0.1c0.1,0,0.1-0.1,0.2-0.2c0-0.1,0.1-0.2,0.2-0.4c0.2-0.2,0.4-0.2,0.6-0.3c0.1,0,0.2,0,0.2-0.1
				c0.5-0.2,0.6-0.9,0.6-1.4c0-0.8-0.3-1.7-0.9-2.7c-0.5-1-1.3-2-2.3-3.1c-0.2-0.2-0.3-0.4-0.5-0.5c0,0,0,0,0,0c0,0,0,0-0.1,0
				c0,0,0,0-0.1,0c0,0,0,0,0,0l0,0c0,0,0,0,0,0c0,0,0,0-0.1,0c0,0,0,0-0.1,0l0,0c0,0,0,0-0.1,0c0,0,0,0-0.1,0c0,0-0.1,0-0.1,0.1
				c0,0,0,0,0,0c-0.2,0.1-0.5,0.1-0.8,0.1c-0.3,0-0.5-0.1-0.8-0.1l0,0C474.1,46.2,474,46.4,473.9,46.6L473.9,46.6z"/>
			
				<linearGradient id="SVGID_00000142155967907984453250000012872682328861312155_" gradientUnits="userSpaceOnUse" x1="603.4887" y1="1601.9907" x2="603.4887" y2="1592.8931" gradientTransform="matrix(-0.875 -0.484 0.484 -0.875 231.1915 1740.8271)">
				<stop  offset="0" style="stop-color:#F5C4B0"/>
				<stop  offset="0.26" style="stop-color:#F4BCA6"/>
				<stop  offset="0.69" style="stop-color:#F1A98D"/>
				<stop  offset="0.99" style="stop-color:#EF9977"/>
			</linearGradient>
			<path style="fill:url(#SVGID_00000142155967907984453250000012872682328861312155_);" d="M473.9,46.6c-0.7,1.3-1.2,2.5-1.4,3.6
				c-0.3,1.1-0.4,2.1-0.2,2.9c0.1,0.4,0.3,0.8,0.5,1c0,0.1,0.1,0.1,0.2,0.1c0.1,0,0.2,0.1,0.2,0.1c0,0,0.1,0,0.2,0
				c0.2,0,0.4,0,0.6,0.1c0,0,0,0,0.1,0c0.1,0.1,0.2,0.2,0.2,0.3c0,0,0.1,0.1,0.1,0.1c0.1,0.1,0.3,0.2,0.5,0.2c0.1,0,0.2,0,0.2,0
				c0.2,0,0.4,0,0.7,0.1c0,0,0.1,0.1,0.1,0.1c0.2,0.1,0.3,0.2,0.6,0.1c0.3,0,0.4-0.1,0.6-0.3c0.1-0.1,0.2-0.2,0.4-0.3
				c0.1-0.1,0.3-0.1,0.4-0.1c0.2,0,0.3-0.1,0.4-0.1c0.1,0,0.1-0.1,0.2-0.2c0-0.1,0.1-0.2,0.2-0.4c0.2-0.2,0.4-0.2,0.6-0.3
				c0.1,0,0.2,0,0.2-0.1c0.5-0.2,0.6-0.9,0.6-1.4c0-0.8-0.3-1.7-0.9-2.7c-0.5-1-1.3-2-2.3-3.1c-0.2-0.2-0.3-0.4-0.5-0.5c0,0,0,0,0,0
				c0,0,0,0-0.1,0c0,0,0,0-0.1,0c0,0,0,0,0,0l0,0c0,0,0,0,0,0c0,0,0,0-0.1,0c0,0,0,0-0.1,0l0,0c0,0,0,0-0.1,0c0,0,0,0-0.1,0
				c0,0-0.1,0-0.1,0.1c0,0,0,0,0,0l1.2,2.8c0.1,0.1,0,0.3-0.1,0.4c-0.1,0.1-0.3,0-0.4-0.1l-1-2.2l-0.4,2.4c0,0.2-0.2,0.3-0.3,0.2
				c0,0-0.1,0-0.1,0c-0.1-0.1-0.2-0.2-0.1-0.3l0.5-3c-0.2,0-0.5-0.1-0.8-0.1C474.2,46.2,474.1,46.4,473.9,46.6L473.9,46.6z"/>
		</g>
		<g>
			<path class="st17" d="M464.9,43.3c0.8-0.4,1.8-0.7,3-0.8c0.6,0,1.2,0,1.9,0l0,0c0.7,0.1,1.4,0.1,2.1,0.3c0.2,0,0.5,0.1,0.7,0.1
				c0.1,0,0.2,0,0.3,0.1c0.1,0,0.2,0.1,0.2,0.2c0,0.1,0,0.1,0,0.1c0,0,0,0,0,0l0,0v0c0,0,0,0,0,0.1c0,0,0,0,0,0.1s0,0,0,0.1
				s0,0,0,0.1c0,0,0,0,0,0c0,0,0,0,0,0.1s0,0,0,0.1s0,0,0,0.1c0,0,0,0,0,0c0,0,0,0,0,0.1c0,0,0,0,0,0.1c0,0,0,0,0,0.1c0,0,0,0,0,0.1
				c0,0,0,0.1,0,0.1c0,0,0,0,0,0.1c0,0,0,0.1,0,0.1c0,0,0,0,0,0.1c0.1,0.4,0.4,0.7,0.8,0.9c0,0,0,0,0,0l0,0c0,0,0.1,0.1,0.1,0.1
				c0,0.1,0,0.2,0,0.3s-0.1,0.2-0.1,0.3c-0.1,0.2-0.2,0.4-0.3,0.6c-0.4,0.7-0.8,1.2-1.1,1.8c-0.4,0.5-0.8,1-1.2,1.4
				c-0.9,0.9-1.7,1.5-2.6,1.8c-0.7,0.2-1.4,0.2-1.8,0c-0.1-0.1-0.2-0.1-0.3-0.2c-0.1-0.1-0.2-0.3-0.2-0.4c-0.1-0.1-0.1-0.2-0.1-0.2
				c-0.1,0-0.1,0-0.2-0.1c-0.1,0-0.3,0-0.5-0.1c0,0-0.1,0-0.1-0.1c-0.2-0.2-0.3-0.4-0.4-0.6c0-0.1-0.1-0.2-0.1-0.3
				c0-0.1-0.1-0.1-0.1-0.1c0,0,0,0-0.1,0c0,0-0.1,0-0.1-0.1c-0.2-0.1-0.4-0.3-0.6-0.7c-0.2-0.4-0.2-0.8-0.1-1c0,0,0-0.1,0-0.1
				c0-0.2,0-0.2-0.1-0.4c0-0.1-0.1-0.2-0.1-0.3c-0.1-0.3-0.1-0.6,0-0.9c0-0.1,0.1-0.2,0.2-0.2c0,0,0.1-0.1,0.1-0.1
				c0-0.1,0-0.1-0.1-0.2c0-0.1-0.1-0.2-0.1-0.3c0-0.2,0-0.5,0.1-0.8C464,44,464.4,43.6,464.9,43.3L464.9,43.3z M464.4,44.7
				c-0.1,0.2-0.1,0.3-0.1,0.4c0,0.1,0,0.1,0.1,0.2c0.1,0.2,0.2,0.4,0.1,0.6c0,0.1-0.1,0.2-0.2,0.3c0,0-0.1,0.1-0.1,0.1
				c-0.1,0.2,0,0.4,0,0.5c0,0.1,0.1,0.2,0.1,0.2c0.1,0.2,0.2,0.4,0.1,0.7c0,0.1,0,0.1,0,0.1c0,0.2-0.1,0.4,0.1,0.6
				c0.1,0.1,0.1,0.2,0.2,0.3s0.1,0.1,0.2,0.1c0,0,0,0,0.1,0c0,0,0,0,0.1,0c0.1,0.1,0.2,0.1,0.3,0.3c0.1,0.1,0.1,0.2,0.2,0.4
				c0.1,0.1,0.1,0.3,0.2,0.4c0.1,0.1,0.2,0.1,0.3,0.1c0.1,0,0.3,0,0.4,0.1c0,0,0,0,0.1,0c0.2,0.1,0.3,0.3,0.4,0.4
				c0,0.1,0.1,0.1,0.1,0.2c0,0.1,0.1,0.1,0.2,0.1c0.4,0.2,0.9,0.1,1.3,0c0.8-0.3,1.5-0.8,2.3-1.7c0.8-0.8,1.5-1.8,2.2-3.1
				c0.1-0.2,0.2-0.4,0.3-0.6l0,0c-0.2-0.2-0.4-0.4-0.5-0.6c-0.1-0.2-0.3-0.5-0.3-0.7c0-0.1,0-0.1,0-0.2c0,0,0-0.1,0-0.1s0-0.1,0-0.1
				l0,0c0,0,0-0.1,0-0.1c0,0,0,0,0-0.1s0,0,0-0.1l0,0c0,0,0,0,0-0.1s0,0,0-0.1c0,0,0-0.1,0-0.1c0,0,0,0,0,0
				c-0.2-0.1-0.5-0.1-0.7-0.1c-1.5-0.2-2.7-0.3-3.8-0.3c-1.2,0.1-2.1,0.3-2.8,0.7C464.9,44,464.5,44.3,464.4,44.7L464.4,44.7z"/>
			
				<linearGradient id="SVGID_00000029749314251338811780000002018722461008430730_" gradientUnits="userSpaceOnUse" x1="610.035" y1="1601.7565" x2="614.7676" y2="1593.552" gradientTransform="matrix(-0.875 -0.484 0.484 -0.875 231.1915 1740.8271)">
				<stop  offset="0" style="stop-color:#F5C4B0"/>
				<stop  offset="0.26" style="stop-color:#F4BCA6"/>
				<stop  offset="0.69" style="stop-color:#F1A98D"/>
				<stop  offset="0.99" style="stop-color:#EF9977"/>
			</linearGradient>
			<path style="fill:url(#SVGID_00000029749314251338811780000002018722461008430730_);" d="M464.4,44.7c-0.1,0.2-0.1,0.3-0.1,0.4
				c0,0.1,0,0.1,0.1,0.2c0.1,0.2,0.2,0.4,0.1,0.6c0,0.1-0.1,0.2-0.2,0.3c0,0-0.1,0.1-0.1,0.1c-0.1,0.2,0,0.4,0,0.5
				c0,0.1,0.1,0.2,0.1,0.2c0.1,0.2,0.2,0.4,0.1,0.7c0,0.1,0,0.1,0,0.1c0,0.2-0.1,0.4,0.1,0.6c0.1,0.1,0.1,0.2,0.2,0.3
				s0.1,0.1,0.2,0.1c0,0,0,0,0.1,0c0,0,0,0,0.1,0c0.1,0.1,0.2,0.1,0.3,0.3c0.1,0.1,0.1,0.2,0.2,0.4c0.1,0.1,0.1,0.3,0.2,0.4
				c0.1,0.1,0.2,0.1,0.3,0.1c0.1,0,0.3,0,0.4,0.1c0,0,0,0,0.1,0c0.2,0.1,0.3,0.3,0.4,0.4c0,0.1,0.1,0.1,0.1,0.2
				c0,0.1,0.1,0.1,0.2,0.1c0.4,0.2,0.9,0.1,1.3,0c0.8-0.3,1.5-0.8,2.3-1.7c0.8-0.8,1.5-1.8,2.2-3.1c0.1-0.2,0.2-0.4,0.3-0.6
				c-0.2-0.2-0.4-0.4-0.5-0.6l-2.3,2c-0.1,0.1-0.2,0.1-0.3,0c0,0,0,0-0.1-0.1c-0.1-0.1-0.1-0.3,0-0.4L472,45l-2.4,0.4
				c-0.2,0-0.3-0.1-0.3-0.2c0-0.2,0.1-0.3,0.2-0.3l3-0.4c0-0.1,0-0.1,0-0.2c0,0,0-0.1,0-0.1s0-0.1,0-0.1l0,0c0,0,0-0.1,0-0.1
				c0,0,0,0,0-0.1s0,0,0-0.1l0,0c0,0,0,0,0-0.1s0,0,0-0.1c0,0,0-0.1,0-0.1c0,0,0,0,0,0c-0.2-0.1-0.5-0.1-0.7-0.1
				c-1.5-0.2-2.7-0.3-3.8-0.3c-1.2,0.1-2.1,0.3-2.8,0.7C464.9,44,464.5,44.3,464.4,44.7L464.4,44.7z"/>
		</g>
		<g>
			<path class="st17" d="M465.9,35.9c0.1-0.1,0.1-0.2,0.2-0.2c0-0.1,0.1-0.1,0.1-0.2c0-0.2,0.1-0.5,0.5-0.9c0.4-0.3,0.7-0.4,0.9-0.4
				c0,0,0.1,0,0.1,0c0.2,0,0.2-0.1,0.3-0.2c0.1-0.1,0.1-0.1,0.3-0.2c0.3-0.2,0.6-0.3,0.9-0.2c0.1,0,0.2,0,0.3,0.1c0,0,0.1,0,0.1,0
				c0,0,0.1,0,0.2-0.1c0.1-0.1,0.2-0.1,0.3-0.2c0.2-0.1,0.5-0.2,0.8-0.2c0.3,0,0.6,0.1,0.9,0.3c0.2,0.1,0.4,0.2,0.5,0.4
				c0.7,0.6,1.2,1.5,1.7,2.7c0.2,0.6,0.4,1.1,0.6,1.8l0,0l0,0c0.2,0.6,0.3,1.3,0.4,2.1c0,0.2,0.1,0.4,0.1,0.7c0,0.1,0,0.2,0,0.3
				c0,0.1,0,0.2-0.1,0.3c0,0-0.1,0.1-0.1,0.1c0,0,0,0,0,0c0,0,0,0,0,0c0,0,0,0,0,0c-0.1,0-0.1,0-0.2,0.1c-0.1,0-0.2,0.1-0.3,0.1
				c0,0,0,0-0.1,0c0,0-0.1,0-0.1,0.1h0c0,0,0,0,0,0s0,0,0,0c0,0,0,0,0,0c0,0,0,0,0,0c0,0,0,0,0,0c0,0,0,0-0.1,0.1c0,0,0,0,0,0l0,0
				l0,0l0,0l0,0l0,0l0,0c0,0,0,0,0,0c0,0,0,0,0,0s0,0,0,0c0,0,0,0,0,0l0,0c0,0,0,0,0,0c0,0,0,0,0,0c0,0,0,0,0,0l0,0c0,0,0,0,0,0
				s0,0,0,0c0,0,0,0,0,0.1c0,0,0,0.1-0.1,0.1c0,0,0,0,0,0.1c0,0,0,0,0,0.1c0,0,0,0,0,0.1s0,0,0,0.1c0,0,0,0,0,0s0,0,0,0c0,0,0,0,0,0
				c0,0,0,0,0,0c0,0,0,0,0,0.1c0,0,0,0,0,0.1c0,0,0,0,0,0c0,0.1,0,0.1-0.1,0.1c-0.1,0.1-0.2,0.1-0.3,0.1c-0.1,0-0.2,0-0.3-0.1l0,0
				c-0.2,0-0.5-0.1-0.7-0.1c-0.7-0.2-1.4-0.3-2-0.5l0,0c-0.6-0.2-1.2-0.4-1.7-0.7c-0.2-0.1-0.4-0.2-0.6-0.3c-0.8-0.5-1.5-1-1.9-1.6
				c-0.4-0.6-0.8-1.4-0.4-2.1c0.1-0.2,0.2-0.3,0.3-0.4c0.1-0.1,0.1-0.1,0.1-0.2c0-0.1,0-0.2,0-0.2c0-0.2-0.1-0.4,0-0.6
				C465.6,36.2,465.8,36,465.9,35.9L465.9,35.9z M466,36.7c0,0.1,0,0.2,0,0.3c0,0.1,0,0.3,0,0.4c0,0.3-0.2,0.5-0.3,0.6
				c-0.1,0.1-0.1,0.1-0.2,0.2c-0.2,0.4,0,1.1,0.4,1.5c0.2,0.3,0.4,0.5,0.7,0.7s0.6,0.4,1,0.7c0.2,0.1,0.4,0.2,0.6,0.3
				c1,0.5,2.2,0.9,3.7,1.2c0.2,0.1,0.5,0.1,0.7,0.1l0,0l0,0c0-0.1,0-0.1,0.1-0.1c0,0,0,0,0,0c0,0,0,0,0,0l0,0c0,0,0,0,0-0.1
				c0,0,0-0.1,0.1-0.1l0,0c0,0,0,0,0-0.1c0,0,0,0,0,0c0,0,0,0,0-0.1c0,0,0,0,0,0s0,0,0,0c0,0,0,0,0,0c0,0,0,0,0,0c0,0,0,0,0-0.1l0,0
				c0,0,0,0,0,0c0,0,0-0.1,0.1-0.1c0,0,0,0,0,0c0,0,0,0,0,0s0,0,0,0c0,0,0,0,0,0c0,0,0,0,0,0c0,0,0,0,0,0l0,0c0,0,0,0,0,0
				c0,0,0,0,0,0c0,0,0,0,0,0s0,0,0,0c0,0,0,0,0,0c0,0,0.1-0.1,0.1-0.1c0,0,0,0,0.1,0c0,0,0.1,0,0.1-0.1l0,0c0,0,0.1,0,0.1-0.1
				c0,0,0.1,0,0.1,0c0,0,0,0,0.1,0c0,0,0.1,0,0.1,0c0,0,0,0,0,0c0-0.2,0-0.5-0.1-0.7c-0.2-1.5-0.5-2.7-0.9-3.7
				c-0.4-1.1-0.9-1.9-1.5-2.4c-0.1-0.1-0.3-0.2-0.4-0.3c-0.2-0.1-0.4-0.2-0.6-0.2c-0.2,0-0.3,0-0.5,0.1c0,0-0.1,0.1-0.1,0.1
				c-0.1,0.1-0.3,0.3-0.6,0.3c-0.1,0-0.2,0-0.3-0.1c0,0-0.1,0-0.1,0c-0.2,0-0.4,0.1-0.5,0.1c-0.1,0.1-0.1,0.1-0.2,0.2
				c-0.1,0.1-0.3,0.3-0.6,0.3c0,0-0.1,0-0.1,0c-0.2,0-0.4,0.1-0.6,0.3c-0.2,0.2-0.3,0.4-0.3,0.5c0,0.1,0,0.3-0.2,0.5
				c-0.1,0.1-0.2,0.2-0.3,0.3C466.2,36.5,466.1,36.6,466,36.7L466,36.7z"/>
			
				<linearGradient id="SVGID_00000001665180278337512270000008540379490822292889_" gradientUnits="userSpaceOnUse" x1="611.9368" y1="1601.6547" x2="618.4708" y2="1608.1887" gradientTransform="matrix(-0.875 -0.484 0.484 -0.875 231.1915 1740.8271)">
				<stop  offset="0" style="stop-color:#F5C4B0"/>
				<stop  offset="0.26" style="stop-color:#F4BCA6"/>
				<stop  offset="0.69" style="stop-color:#F1A98D"/>
				<stop  offset="0.99" style="stop-color:#EF9977"/>
			</linearGradient>
			<path style="fill:url(#SVGID_00000001665180278337512270000008540379490822292889_);" d="M466,36.7c0,0.1,0,0.2,0,0.3
				c0,0.1,0,0.3,0,0.4c0,0.3-0.2,0.5-0.3,0.6c-0.1,0.1-0.1,0.1-0.2,0.2c-0.2,0.4,0,1.1,0.4,1.5c0.2,0.3,0.4,0.5,0.7,0.7
				s0.6,0.4,1,0.7c0.2,0.1,0.4,0.2,0.6,0.3c1,0.5,2.2,0.9,3.7,1.2c0.2,0.1,0.5,0.1,0.7,0.1l0,0l0,0c0-0.1,0-0.1,0.1-0.1c0,0,0,0,0,0
				c0,0,0,0,0,0l0,0c0,0,0,0,0-0.1c0,0,0-0.1,0.1-0.1l0,0c0,0,0,0,0-0.1c0,0,0,0,0,0c0,0,0,0,0-0.1c0,0,0,0,0,0s0,0,0,0c0,0,0,0,0,0
				l-2.6-1.5c-0.1-0.1-0.2-0.3-0.1-0.4c0.1-0.1,0.3-0.2,0.4-0.1l2.1,1.2l-1.1-2.2c-0.1-0.2,0-0.3,0.1-0.4c0.1-0.1,0.3,0,0.4,0.1
				l1.4,2.7c0.2-0.1,0.5-0.3,0.7-0.3c0-0.2,0-0.5-0.1-0.7c-0.2-1.5-0.5-2.7-0.9-3.7c-0.4-1.1-0.9-1.9-1.5-2.4
				c-0.1-0.1-0.3-0.2-0.4-0.3c-0.2-0.1-0.4-0.2-0.6-0.2c-0.2,0-0.3,0-0.5,0.1c0,0-0.1,0.1-0.1,0.1c-0.1,0.1-0.3,0.3-0.6,0.3
				c-0.1,0-0.2,0-0.3-0.1c0,0-0.1,0-0.1,0c-0.2,0-0.4,0.1-0.5,0.1c-0.1,0.1-0.1,0.1-0.2,0.2c-0.1,0.1-0.3,0.3-0.6,0.3
				c0,0-0.1,0-0.1,0c-0.2,0-0.4,0.1-0.6,0.3c-0.2,0.2-0.3,0.4-0.3,0.5c0,0.1,0,0.3-0.2,0.5c-0.1,0.1-0.2,0.2-0.3,0.3
				C466.2,36.5,466.1,36.6,466,36.7L466,36.7z"/>
		</g>
	</g>
	<path class="st17" d="M476.6,38.1l-0.6,3l-0.1,0.4c0,0.1,0,0.3,0.1,0.3s0.3,0,0.4-0.1l0.3-0.3l2.2-2.1c0.1-0.1,0.1-0.3,0-0.4
		s-0.3-0.1-0.4,0l-1.8,1.7l0.5-2.4c0-0.2-0.1-0.3-0.2-0.3S476.6,38,476.6,38.1L476.6,38.1z"/>
	<path class="st17" d="M477,43.9C477,43.9,477,43.9,477,43.9L477,43.9L477,43.9C477,43.9,477,43.9,477,43.9L477,43.9
		c0,0.1,0,0.3,0.1,0.3l0,0l0.3,0.2l2.7,1.4c0.1,0.1,0.3,0,0.4-0.1c0.1-0.1,0-0.3-0.1-0.4l-2.2-1.1l2.4-0.2c0.2,0,0.3-0.2,0.3-0.3
		c0-0.2-0.2-0.3-0.3-0.3l-3,0.3l0,0l-0.4,0C477.2,43.7,477.1,43.8,477,43.9L477,43.9z"/>
	<path class="st17" d="M475.1,45.8l-0.1,0.4l0,0l-0.5,3c0,0.1,0,0.2,0.1,0.3c0,0,0.1,0,0.1,0c0.2,0,0.3-0.1,0.3-0.2l0.4-2.4l1,2.2
		c0.1,0.1,0.2,0.2,0.4,0.1c0.1-0.1,0.2-0.2,0.1-0.4l-1.2-2.8l0,0l-0.1-0.3c0-0.1-0.2-0.2-0.3-0.2C475.2,45.5,475.1,45.6,475.1,45.8
		L475.1,45.8z"/>
	<path class="st17" d="M469.3,45.1c0,0.2,0.2,0.3,0.3,0.2l2.4-0.4l-1.8,1.6c-0.1,0.1-0.1,0.3,0,0.4c0,0,0,0.1,0.1,0.1
		c0.1,0.1,0.2,0.1,0.3,0l2.3-2l0,0l0.3-0.2c0.1-0.1,0.1-0.2,0.1-0.4c-0.1-0.1-0.2-0.2-0.3-0.2l-0.4,0.1l0,0l-3,0.4
		C469.4,44.7,469.3,44.9,469.3,45.1L469.3,45.1z"/>
	<path class="st17" d="M470.3,40c-0.1,0.1,0,0.3,0.1,0.4L473,42l0.3,0.2l0,0c0.1,0.1,0.2,0.1,0.3,0l0,0l0,0l0,0l0,0
		c0.1-0.1,0.1-0.2,0.1-0.3l-0.2-0.3l0,0l-1.4-2.7c-0.1-0.2-0.2-0.2-0.4-0.1s-0.2,0.2-0.1,0.4l1.1,2.2l-2.1-1.2
		C470.5,39.9,470.3,39.9,470.3,40L470.3,40z"/>
	<g>
		<path class="st17" d="M472.9,42.2L472.9,42.2C472.9,42.2,472.9,42.1,472.9,42.2C472.9,42.1,472.9,42.1,472.9,42.2
			c0.1-0.1,0.1-0.1,0.1-0.1c0,0,0,0,0,0s0,0,0,0c0,0,0,0,0,0c0,0,0,0,0,0c0,0,0,0,0-0.1l0,0c0,0,0,0,0,0c0,0,0-0.1,0.1-0.1
			c0,0,0,0,0,0c0,0,0,0,0,0s0,0,0,0c0,0,0,0,0,0c0,0,0,0,0,0s0,0,0,0l0,0c0,0,0,0,0,0c0,0,0,0,0,0c0,0,0,0,0,0s0,0,0,0c0,0,0,0,0,0
			c0,0,0.1-0.1,0.1-0.1c0,0,0,0,0.1,0c0,0,0.1,0,0.1-0.1l0,0c0,0,0.1,0,0.1-0.1c0,0,0.1,0,0.1,0c0,0,0,0,0.1,0c0,0,0.1,0,0.1,0
			c0.1,0,0.2-0.1,0.4-0.1c0.1,0,0.2,0,0.3,0c0.1,0,0.2,0,0.3,0c0,0,0.1,0,0.2,0c0,0,0,0,0,0c0,0,0,0,0.1,0c0,0,0,0,0.1,0
			c0,0,0,0,0.1,0c0.1,0,0.2,0.1,0.3,0.1h0c0,0,0,0,0,0c0,0,0,0,0,0c0,0,0,0,0.1,0c0,0,0,0,0.1,0c0,0,0,0,0,0c0,0,0,0,0,0
			c0,0,0.1,0,0.1,0.1s0.1,0,0.1,0.1c0,0,0,0,0,0l0,0c0,0,0,0,0,0c0,0,0,0,0,0s0,0,0.1,0c0,0,0,0,0,0c0,0,0,0,0,0c0,0,0,0,0,0
			c0.1,0,0.1,0.1,0.2,0.1c0,0,0,0,0,0.1s0,0,0,0.1s0,0,0,0.1c0,0,0,0,0,0.1c0,0,0,0,0,0c0,0,0.1,0.1,0.1,0.1
			c0.1,0.1,0.1,0.2,0.2,0.3c0,0.1,0.1,0.2,0.1,0.2c0.1,0.2,0.1,0.3,0.1,0.5c0,0.1,0,0.1,0,0.2c0,0.1,0,0.2,0,0.3c0,0,0,0,0,0.1
			s0,0,0,0.1s0,0,0,0.1s0,0,0,0.1s0,0,0,0.1l0,0c0,0,0,0,0,0c0,0,0,0,0,0.1s0,0,0,0.1c0,0,0,0,0,0.1c0,0,0,0,0,0.1c0,0,0,0.1,0,0.1
			c0,0,0,0,0,0.1l0,0c0,0,0,0,0,0.1c0,0,0,0,0,0c0,0,0,0,0,0c0,0,0,0,0,0.1c0,0,0,0,0,0c0,0,0,0,0,0.1c0,0,0,0,0,0.1c0,0,0,0,0,0.1
			l0,0c0,0,0,0.1-0.1,0.1c0,0,0,0,0,0.1c0,0,0,0,0,0l0,0c0,0,0,0,0,0.1c0,0,0,0,0,0c0,0.1-0.1,0.1-0.1,0.1c-0.1,0.1-0.1,0.2-0.2,0.2
			l0,0c-0.1,0.1-0.1,0.1-0.2,0.2c-0.1,0.1-0.2,0.1-0.3,0.2c0,0,0,0,0,0c0,0,0,0-0.1,0c0,0,0,0-0.1,0c0,0,0,0,0,0l0,0c0,0,0,0,0,0
			c0,0,0,0-0.1,0c0,0,0,0-0.1,0l0,0c0,0,0,0-0.1,0c0,0,0,0-0.1,0c0,0-0.1,0-0.1,0.1c0,0,0,0,0,0c-0.2,0.1-0.5,0.1-0.8,0.1
			c-0.2,0-0.5-0.1-0.8-0.1c-0.1,0-0.2-0.1-0.3-0.1c0,0-0.1,0-0.1-0.1s-0.1-0.1-0.1-0.1c-0.1-0.1-0.2-0.1-0.3-0.2
			c-0.2-0.2-0.4-0.4-0.5-0.6c-0.1-0.2-0.3-0.5-0.3-0.7c0-0.1,0-0.1,0-0.2c0,0,0-0.1,0-0.1s0-0.1,0-0.1l0,0c0,0,0-0.1,0-0.1
			c0,0,0,0,0-0.1s0,0,0-0.1l0,0c0,0,0,0,0-0.1s0,0,0-0.1c0,0,0-0.1,0-0.1c0-0.1,0-0.2,0-0.3l0,0c0-0.1,0-0.2,0-0.3
			c0-0.1,0.1-0.2,0.1-0.3l0,0c0-0.1,0-0.1,0.1-0.1c0,0,0,0,0,0c0,0,0,0,0,0l0,0C472.8,42.3,472.8,42.3,472.9,42.2
			C472.9,42.2,472.9,42.2,472.9,42.2L472.9,42.2z M474,45.2L474,45.2c0,0,0.1,0.1,0.1,0.1s0.1,0,0.1,0.1l0,0
			c0.4,0.2,0.9,0.2,1.3,0.1c0,0,0.1,0,0.1,0c0,0,0.1,0,0.1,0c0,0,0,0,0.1,0c0,0,0,0,0.1,0c0,0,0,0,0.1,0c0,0,0.1,0,0.1-0.1
			c0,0,0,0,0.1,0s0,0,0,0s0,0,0.1,0c0,0,0,0,0,0l0,0c0,0,0,0,0.1,0l0,0l0,0l0,0c0.1-0.1,0.1-0.1,0.2-0.2c0,0,0,0,0-0.1c0,0,0,0,0,0
			c0,0,0,0,0,0s0,0,0,0c0,0,0,0,0-0.1c0,0,0,0,0-0.1s0,0,0-0.1s0,0,0-0.1s0,0,0-0.1c0,0,0-0.1,0-0.1c0,0,0,0,0-0.1s0,0,0-0.1
			c0,0,0,0,0,0l0,0c0,0,0,0,0,0c0,0,0,0,0,0c0,0,0,0,0,0l0,0c0,0,0,0,0-0.1s0,0,0-0.1c0,0,0-0.1,0-0.1l0,0l0,0c0,0,0,0,0,0
			c0,0,0,0,0,0c0,0,0,0,0,0c0,0,0-0.1,0-0.1c0,0,0,0,0,0s0,0,0,0s0,0,0,0c0,0,0,0,0,0s0,0,0,0c0,0,0,0,0-0.1s0,0,0-0.1s0,0,0-0.1
			s0,0,0-0.1s0,0,0-0.1c0-0.1,0-0.1,0-0.1c0,0,0,0,0-0.1c0-0.1,0-0.1,0-0.1c0,0,0,0,0-0.1c0,0,0,0,0-0.1c0,0,0-0.1,0-0.1
			c0-0.1-0.1-0.2-0.1-0.3c0,0,0-0.1,0-0.1c0,0,0,0,0,0c0,0,0,0,0,0c0,0,0,0,0-0.1c0,0,0,0,0,0c0,0,0,0-0.1-0.1c0,0,0,0,0,0l0,0
			c0,0,0,0,0-0.1l0,0c0,0,0,0,0-0.1s0,0-0.1-0.1c0,0,0,0,0,0c0,0,0,0,0,0c0,0,0,0-0.1-0.1s-0.1-0.1-0.1-0.1c0,0,0,0-0.1,0s0,0-0.1,0
			c0,0-0.1,0-0.1-0.1c0,0,0,0-0.1,0c0,0,0,0,0,0c0,0,0,0-0.1,0s-0.1,0-0.1,0c0,0,0,0-0.1,0l0,0c0,0,0,0-0.1,0l0,0c0,0,0,0,0,0
			c0,0-0.1,0-0.1,0c0,0,0,0,0,0c0,0-0.1,0-0.1,0c0,0,0,0,0,0s0,0,0,0c-0.1,0-0.3,0-0.4,0c0,0,0,0,0,0c0,0,0,0,0,0
			c-0.1,0-0.1,0-0.2,0.1c-0.1,0-0.2,0.1-0.3,0.1c0,0,0,0-0.1,0c0,0-0.1,0-0.1,0.1h0c0,0,0,0,0,0s0,0,0,0c0,0,0,0,0,0c0,0,0,0,0,0
			c0,0,0,0,0,0c0,0,0,0-0.1,0.1c0,0,0,0,0,0l0,0l0,0l0,0l0,0l0,0c0,0,0,0,0,0c0,0,0,0,0,0s0,0,0,0c0,0,0,0,0,0l0,0c0,0,0,0,0,0
			c0,0,0,0,0,0c0,0,0,0,0,0l0,0c0,0,0,0,0,0s0,0,0,0c0,0,0,0,0,0.1c0,0,0,0.1-0.1,0.1c0,0,0,0,0,0.1c0,0,0,0,0,0.1c0,0,0,0,0,0.1
			s0,0,0,0.1c0,0,0,0,0,0s0,0,0,0c0,0,0,0,0,0c0,0,0,0,0,0c0,0,0,0,0,0.1c0,0,0,0,0,0.1c0,0.1,0,0.2-0.1,0.3l0,0v0c0,0,0,0,0,0.1
			c0,0,0,0,0,0.1s0,0,0,0.1s0,0,0,0.1c0,0,0,0,0,0c0,0,0,0,0,0.1s0,0,0,0.1s0,0,0,0.1c0,0,0,0,0,0c0,0,0,0,0,0.1c0,0,0,0,0,0.1
			c0,0,0,0,0,0.1c0,0,0,0,0,0.1c0,0,0,0.1,0,0.1c0,0,0,0,0,0.1c0,0,0,0.1,0,0.1c0,0,0,0,0,0.1C473.4,44.7,473.6,45,474,45.2
			L474,45.2z"/>
		
			<radialGradient id="SVGID_00000163780935826872894640000007359700917847577992_" cx="608.1601" cy="1603.2107" r="1.99" gradientTransform="matrix(-0.875 -0.484 0.484 -0.875 231.1915 1740.8271)" gradientUnits="userSpaceOnUse">
			<stop  offset="0" style="stop-color:#F5C4B0"/>
			<stop  offset="0.26" style="stop-color:#F4BCA6"/>
			<stop  offset="0.69" style="stop-color:#F1A98D"/>
			<stop  offset="0.99" style="stop-color:#EF9977"/>
		</radialGradient>
		<path style="fill:url(#SVGID_00000163780935826872894640000007359700917847577992_);" d="M473.3,42.6
			C473.3,42.6,473.3,42.6,473.3,42.6c0,0.1,0,0.1-0.1,0.1c0,0,0,0,0,0.1s0,0,0,0.1c0,0,0,0,0,0s0,0,0,0c0,0,0,0,0,0c0,0,0,0,0,0
			c0,0,0,0,0,0.1c0,0,0,0,0,0.1c0,0.1,0,0.2-0.1,0.3l0,0v0c0,0,0,0,0,0.1c0,0,0,0,0,0.1s0,0,0,0.1s0,0,0,0.1c0,0,0,0,0,0
			c0,0,0,0,0,0.1s0,0,0,0.1s0,0,0,0.1c0,0,0,0,0,0c0,0,0,0,0,0.1c0,0,0,0,0,0.1c0,0,0,0,0,0.1c0,0,0,0,0,0.1c0,0,0,0.1,0,0.1
			c0,0,0,0,0,0.1c0,0,0,0.1,0,0.1c0,0,0,0,0,0.1c0.1,0.4,0.4,0.7,0.8,0.9c0,0,0,0,0,0l0,0c0,0,0.1,0.1,0.1,0.1s0.1,0,0.1,0.1l0,0
			c0,0,0,0,0,0c0.4,0.2,0.9,0.2,1.3,0.1c0,0,0.1,0,0.1,0s0.1,0,0.1,0c0,0,0,0,0.1,0c0,0,0,0,0.1,0c0,0,0,0,0.1,0c0,0,0.1,0,0.1-0.1
			c0,0,0,0,0.1,0s0,0,0,0s0,0,0.1,0c0,0,0,0,0,0l0,0c0,0,0,0,0.1,0l0,0l0,0l0,0c0.1-0.1,0.1-0.1,0.2-0.2c0,0,0,0,0-0.1c0,0,0,0,0,0
			c0,0,0,0,0,0s0,0,0,0c0,0,0,0,0-0.1s0,0,0-0.1s0,0,0-0.1s0,0,0-0.1s0,0,0-0.1c0,0,0-0.1,0-0.1c0,0,0,0,0-0.1s0,0,0-0.1
			c0,0,0,0,0,0l0,0c0,0,0,0,0,0c0,0,0,0,0,0c0,0,0,0,0,0l0,0c0,0,0,0,0-0.1s0,0,0-0.1c0,0,0-0.1,0-0.1l0,0l0,0c0,0,0,0,0,0l0,0l0,0
			c0,0,0,0,0,0c0,0,0-0.1,0-0.1c0,0,0,0,0,0s0,0,0,0s0,0,0,0c0,0,0,0,0,0s0,0,0,0c0,0,0,0,0-0.1s0,0,0-0.1s0,0,0-0.1s0,0,0-0.1
			s0,0,0-0.1c0-0.1,0-0.1,0-0.1c0,0,0,0,0-0.1c0-0.1,0-0.1,0-0.1c0,0,0,0,0-0.1c0,0,0,0,0-0.1c0,0,0-0.1,0-0.1
			c0-0.1-0.1-0.2-0.1-0.3c0,0,0-0.1,0-0.1c0,0,0,0,0,0c0,0,0,0,0,0c0,0,0,0,0-0.1c0,0,0,0,0,0c0,0,0,0-0.1-0.1c0,0,0,0,0,0l0,0
			c0,0,0,0,0-0.1l0,0c0,0,0,0,0-0.1s0,0-0.1-0.1c0,0,0,0,0,0c0,0,0,0,0,0c0,0,0,0-0.1-0.1s-0.1-0.1-0.1-0.1c0,0,0,0-0.1,0s0,0-0.1,0
			c0,0-0.1,0-0.1-0.1c0,0,0,0-0.1,0c0,0,0,0,0,0c0,0,0,0-0.1,0s-0.1,0-0.1,0c0,0,0,0-0.1,0l0,0c0,0,0,0-0.1,0l0,0c0,0,0,0,0,0
			c0,0-0.1,0-0.1,0c0,0,0,0,0,0c0,0-0.1,0-0.1,0c0,0,0,0,0,0s0,0,0,0c-0.1,0-0.3,0-0.4,0c0,0,0,0,0,0c0,0,0,0,0,0
			c-0.1,0-0.1,0-0.2,0.1c-0.1,0-0.2,0.1-0.3,0.1c0,0,0,0-0.1,0c0,0-0.1,0-0.1,0.1h0c0,0,0,0,0,0s0,0,0,0c0,0,0,0,0,0c0,0,0,0,0,0
			c0,0,0,0,0,0c0,0,0,0-0.1,0.1c0,0,0,0,0,0l0,0l0,0l0,0l0,0l0,0c0,0,0,0,0,0c0,0,0,0,0,0s0,0,0,0c0,0,0,0,0,0l0,0c0,0,0,0,0,0
			c0,0,0,0,0,0c0,0,0,0,0,0l0,0c0,0,0,0,0,0S473.4,42.5,473.3,42.6C473.4,42.5,473.4,42.5,473.3,42.6
			C473.4,42.6,473.3,42.6,473.3,42.6L473.3,42.6z"/>
	</g>
</g>
</svg>
