<?xml version="1.0" encoding="UTF-8"?><svg id="bubbles" xmlns="http://www.w3.org/2000/svg" xmlns:xlink="http://www.w3.org/1999/xlink" viewBox="0 0 2072.73 1166.38"><defs><style>.cls-1{fill:url(#linear-gradient);}.cls-2{fill:url(#linear-gradient-3);}.cls-3{fill:url(#linear-gradient-4);}.cls-4{fill:url(#linear-gradient-2);}.cls-5{fill:url(#linear-gradient-6);}.cls-6{fill:url(#linear-gradient-7);}.cls-7{fill:url(#linear-gradient-5);}.cls-8{fill:none;stroke:#fff;stroke-linecap:round;stroke-miterlimit:10;stroke-width:5px;}</style><linearGradient id="linear-gradient" x1="558.06" y1="321.01" x2="710.8" y2="473.74" gradientUnits="userSpaceOnUse"><stop offset="0" stop-color="#c1dce0"/><stop offset=".33" stop-color="#b7d6db"/><stop offset=".88" stop-color="#9ec8cf"/><stop offset="1" stop-color="#98c5cc"/></linearGradient><linearGradient id="linear-gradient-2" x1="862.25" y1="451.19" x2="938.62" y2="527.56" xlink:href="#linear-gradient"/><linearGradient id="linear-gradient-3" x1="763.25" y1="554.19" x2="839.62" y2="630.56" xlink:href="#linear-gradient"/><linearGradient id="linear-gradient-4" x1="795.06" y1="823.01" x2="947.8" y2="975.74" xlink:href="#linear-gradient"/><linearGradient id="linear-gradient-5" x1="647.25" y1="1004.19" x2="723.62" y2="1080.56" xlink:href="#linear-gradient"/><linearGradient id="linear-gradient-6" x1="575.99" y1="705.45" x2="682.57" y2="812.03" xlink:href="#linear-gradient"/><linearGradient id="linear-gradient-7" x1="763.26" y1="158.81" x2="869.84" y2="265.39" xlink:href="#linear-gradient"/></defs><g><circle class="cls-1" cx="634.43" cy="397.38" r="108"/><path class="cls-8" d="M551.56,394.24c-1.4-39.09,26.28-72.86,62.88-78.86"/></g><g><circle class="cls-4" cx="900.43" cy="489.38" r="54"/><path class="cls-8" d="M858.99,487.81c-.7-19.55,13.14-36.43,31.44-39.43"/></g><g><circle class="cls-2" cx="801.43" cy="592.38" r="54"/><path class="cls-8" d="M759.99,590.81c-.7-19.55,13.14-36.43,31.44-39.43"/></g><g><circle class="cls-3" cx="871.43" cy="899.38" r="108"/><path class="cls-8" d="M788.56,896.24c-1.4-39.09,26.28-72.86,62.88-78.86"/></g><g><circle class="cls-7" cx="685.43" cy="1042.38" r="54"/><path class="cls-8" d="M643.99,1040.81c-.7-19.55,13.14-36.43,31.44-39.43"/></g><g><circle class="cls-5" cx="629.28" cy="758.74" r="75.36"/><path class="cls-8" d="M571.45,756.55c-.97-27.28,18.34-50.84,43.88-55.03"/></g><g><circle class="cls-6" cx="816.55" cy="212.1" r="75.36"/><path class="cls-8" d="M758.72,209.91c-.97-27.28,18.34-50.84,43.88-55.03"/></g></svg>