<?xml version="1.0" encoding="UTF-8"?><svg id="fishes" xmlns="http://www.w3.org/2000/svg" xmlns:xlink="http://www.w3.org/1999/xlink" viewBox="0 0 2072.73 1166.38"><defs><style>.cls-1{fill:url(#linear-gradient);}.cls-2{fill:url(#linear-gradient-8);}.cls-3{fill:url(#linear-gradient-9);}.cls-4{fill:url(#linear-gradient-3);}.cls-5{fill:url(#linear-gradient-4);}.cls-6{fill:url(#linear-gradient-2);}.cls-7{fill:url(#linear-gradient-6);}.cls-8{fill:url(#linear-gradient-7);}.cls-9{fill:url(#linear-gradient-5);}.cls-10{fill:url(#linear-gradient-14);}.cls-11{fill:url(#linear-gradient-18);}.cls-12{fill:url(#linear-gradient-22);}.cls-13{fill:url(#linear-gradient-20);}.cls-14{fill:url(#linear-gradient-21);}.cls-15{fill:url(#linear-gradient-15);}.cls-16{fill:url(#linear-gradient-19);}.cls-17{fill:url(#linear-gradient-16);}.cls-18{fill:url(#linear-gradient-17);}.cls-19{fill:url(#linear-gradient-13);}.cls-20{fill:url(#linear-gradient-12);}.cls-21{fill:url(#linear-gradient-10);}.cls-22{fill:url(#linear-gradient-11);}</style><linearGradient id="linear-gradient" x1="884.99" y1="124.85" x2="1028.19" y2="124.85" gradientUnits="userSpaceOnUse"><stop offset="0" stop-color="#637790"/><stop offset=".35" stop-color="#6c7f96"/><stop offset=".93" stop-color="#8595a9"/><stop offset="1" stop-color="#8998ac"/></linearGradient><linearGradient id="linear-gradient-2" x1="863.82" y1="240.01" x2="990.38" y2="240.01" xlink:href="#linear-gradient"/><linearGradient id="linear-gradient-3" x1="703.07" y1="195.32" x2="854.16" y2="195.32" xlink:href="#linear-gradient"/><linearGradient id="linear-gradient-4" x1="747.76" y1="317.13" x2="872.96" y2="317.13" xlink:href="#linear-gradient"/><linearGradient id="linear-gradient-5" x1="440.48" y1="498.22" x2="565.43" y2="498.22" xlink:href="#linear-gradient"/><linearGradient id="linear-gradient-6" x1="100.43" y1="446.82" x2="259.03" y2="446.82" xlink:href="#linear-gradient"/><linearGradient id="linear-gradient-7" x1="736.15" y1="99.51" x2="854.64" y2="99.51" xlink:href="#linear-gradient"/><linearGradient id="linear-gradient-8" x1="615.51" y1="414.92" x2="687.14" y2="414.92" xlink:href="#linear-gradient"/><linearGradient id="linear-gradient-9" x1="622.2" y1="149.63" x2="694.09" y2="149.63" xlink:href="#linear-gradient"/><linearGradient id="linear-gradient-10" x1="152.52" y1="317.07" x2="225.74" y2="317.07" xlink:href="#linear-gradient"/><linearGradient id="linear-gradient-11" x1="464.1" y1="323.5" x2="523.72" y2="323.5" xlink:href="#linear-gradient"/><linearGradient id="linear-gradient-12" x1="328.96" y1="475.33" x2="388.69" y2="475.33" xlink:href="#linear-gradient"/><linearGradient id="linear-gradient-13" x1="1020.52" y1="279.4" x2="1096.11" y2="279.4" xlink:href="#linear-gradient"/><linearGradient id="linear-gradient-14" x1="926.8" y1="331.86" x2="987.07" y2="331.86" xlink:href="#linear-gradient"/><linearGradient id="linear-gradient-15" x1="240.21" y1="251.82" x2="359.58" y2="251.82" xlink:href="#linear-gradient"/><linearGradient id="linear-gradient-16" x1="747.09" y1="402.42" x2="872.37" y2="402.42" xlink:href="#linear-gradient"/><linearGradient id="linear-gradient-17" x1="618.78" y1="296.25" x2="727.3" y2="296.25" xlink:href="#linear-gradient"/><linearGradient id="linear-gradient-18" x1="440.98" y1="232.72" x2="591.7" y2="232.72" xlink:href="#linear-gradient"/><linearGradient id="linear-gradient-19" x1="259.4" y1="352.11" x2="430.31" y2="352.11" xlink:href="#linear-gradient"/><linearGradient id="linear-gradient-20" x1="443.12" y1="419.11" x2="563.06" y2="419.11" xlink:href="#linear-gradient"/><linearGradient id="linear-gradient-21" x1="214.16" y1="519.04" x2="303.93" y2="519.04" xlink:href="#linear-gradient"/><linearGradient id="linear-gradient-22" x1="1037.71" y1="195.77" x2="1194.98" y2="195.77" xlink:href="#linear-gradient"/></defs><path class="cls-1" d="M1028.19,145.39c.03,.71-10.03-24.93-59.62-34.27,0,.09-18.47-3.77-44.14,4.71,0-.08-15.06,3.87-19.44,3.61,0-.07-12.99-12.89-19.99-19.68,0-.07,7.4,13.18,9.09,16.79,1.69,3.53,3.93,6.79,.67,13.04,0-.05-5.03,11.47-6.26,13.66,0-.02,8.4-5.79,11.84-11.63,1.43-2.46,4.82-9.2,6.42-9.14,1.6,.08,10.55,.68,27.42,7.58,71.78,31.21,94.06,16.69,94,15.33Z"/><path class="cls-6" d="M990.38,235.32c0,.22-8.68-16.06-52.52-13.8,0,.07-16.32,.52-39.13,10.87,0-.05-13.37,5.22-17.26,5.61,0-.04-11.46-8.13-17.64-12.59,0-.04,6.51,9.3,7.99,11.85,1.48,2.51,3.45,4.72,.53,10.01,0-.04-4.52,9.59-5.62,11.46,0-.01,7.48-5.65,10.57-10.66,1.28-2.11,4.33-7.79,5.74-7.98,1.42-.18,9.36-.93,24.27,1.69,63.42,12.16,83.11-5.75,83.08-6.45Z"/><path class="cls-4" d="M854.16,187.5c0-.13-8.66-13.41-61.69-11.1,0,.16-19.74,.25-48.26,10.38,0-.05-16.61,5.1-21.31,5.27,0,.03-12.82-10.24-19.75-16.62,0,.02,6.77,11.93,8.27,14.97,1.5,3.09,3.62,5.77-.44,11.73,0-.06-6.4,10.91-7.9,13.06,0-.02,9.51-6.24,13.73-11.83,1.76-2.37,6.01-8.71,7.73-8.82,1.71-.17,11.3-.32,28.88,2.77,74.68,11.93,100.72-10.19,100.74-9.81Z"/><path class="cls-5" d="M872.96,304.98c0,.22-7.78-17.5-51.53-11.37,0,.05-16.28,2-39.5,15.79,0-.03-13.56,7-17.44,7.63,0-.03-10.87-9.16-16.73-14.31,0-.03,5.89,10.91,7.22,13.86,1.32,2.92,3.14,5.46-.05,11.8,0-.02-5.01,11.39-6.2,13.55,0,0,7.72-6.79,11.05-12.83,1.39-2.52,4.73-9.38,6.14-9.68,1.41-.29,9.32-1.52,23.96,.64,62.27,9.9,83.09-14.73,83.08-15.1Z"/><path class="cls-9" d="M565.43,483.49c0-.13-7.66-14.75-51.26-5.1,0-.08-16.21,3.53-39.49,16.1,0,.04-13.6,6.14-17.49,6.46,0,.03-10.85-8.69-16.72-14.08,0,.04,5.88,10.58,7.19,13.21,1.31,2.67,3.12,5.05-.12,10.32,0,.04-5.1,9.33-6.32,10.94,0,.01,7.79-5.04,11.18-10.06,1.41-2.05,4.79-7.9,6.21-8.14,1.42-.22,9.34-.9,23.98,.96,62.18,7.87,82.84-20.5,82.83-20.6Z"/><path class="cls-7" d="M259.03,466.4c-.02-.58-9.53-17.25-64.79-22.93,0-.09-20.56-2.32-50.16,1.75,0,.08-17.3,.85-22.25-.95,0,.12-13.88-17.98-21.4-29.12,0,.06,7.56,18.01,9.24,22.38,1.69,4.46,4.01,8.72-.09,14.22,0-.02-6.43,10.33-7.96,12.14,0,0,9.88-3.12,14.16-8.19,1.78-2.1,6.06-8.19,7.87-7.69,1.8,.4,11.91,4.18,30.51,13.52,78.86,35.93,104.81,3.36,104.87,4.87Z"/><path class="cls-8" d="M854.64,95.29c0-.06-7.16-12.01-48.58-8.15,0-.06-15.4,1.4-37.59,8.78,0,.02-12.95,3.48-16.64,3.51,0,.02-10.18-6.57-15.68-10.63,0,.04,5.45,7.69,6.66,9.55,1.21,1.91,2.9,3.65-.22,7.11,0,.03-4.94,6.14-6.11,7.18,0,0,7.44-3.1,10.7-6.35,1.36-1.33,4.63-5.18,5.97-5.27,1.35-.08,8.86-.16,22.71,2.06,58.87,10.12,78.81-7.18,78.79-7.79Z"/><path class="cls-2" d="M687.14,403.6s-4.45-9.59-29.45-3.02c0-.01-9.3,2.33-22.59,11.35,0,0-7.77,4.57-9.99,5,0,0-6.24-5.13-9.6-8.12,0,0,3.39,6.38,4.15,8.06,.76,1.68,1.8,3.14-.03,6.86,0,0-2.87,6.61-3.56,7.83,0,0,4.43-3.96,6.35-7.51,.8-1.47,2.71-5.54,3.52-5.75,.81-.21,5.34-1.09,13.73-.35,35.67,3.38,47.48-14.24,47.48-14.35Z"/><path class="cls-3" d="M694.09,141.43s-4.38-8.13-29.51-4.35c0,.03-9.35,1.23-22.71,8.57,0-.01-7.81,3.69-10.04,3.95,0,.01-6.25-5.42-9.63-8.71,0,.01,3.4,6.53,4.15,8.21,.76,1.7,1.81,3.17-.03,6.65,0,0-2.89,6.25-3.58,7.42,0,0,4.45-3.63,6.37-6.92,.8-1.37,2.72-5.14,3.54-5.28,.81-.15,5.36-.62,13.78,.6,35.73,4.73,47.65-10.35,47.66-10.15Z"/><path class="cls-21" d="M225.74,330.3c0-.15-4.53-11.4-30.04-16.56,0-.06-9.49-1.97-23.09-.16,0,.03-7.96,.26-10.24-.62,0,0-6.39-8.67-9.84-13.54,0,0,3.47,8.22,4.25,10.32,.78,2.1,1.85,4.16-.03,6.73,0,.01-2.96,4.77-3.66,5.53,0,0,4.55-1.18,6.52-3.56,.82-.97,2.78-3.88,3.61-3.64,.83,.25,5.48,2.02,14.07,7.32,36.51,22.45,48.46,8.04,48.46,8.18Z"/><path class="cls-22" d="M523.72,316.04s-3.7-8.17-24.49-4.09c0,0-7.73,1.41-18.78,8.34,0,0-6.46,3.41-8.31,3.59,0,.01-5.22-5.25-8.04-8.43,0,.01,2.85,6.25,3.49,7.84,.64,1.6,1.52,3.03,0,6.21,0,0-2.38,5.69-2.94,6.71,0,0,3.68-3.14,5.27-6.16,.66-1.24,2.24-4.73,2.91-4.85,.67-.12,4.45-.46,11.44,.84,29.69,5.26,39.45-10.11,39.45-9.99Z"/><path class="cls-20" d="M388.69,472.09s-3.61-6.04-24.49-4.01c0-.02-7.77,.7-18.93,4.93,0,0-6.52,2.02-8.38,2.04,0,0-5.16-3.88-7.94-6.22,0,0,2.78,4.45,3.39,5.57,.62,1.13,1.48,2.15-.08,4.23,0,0-2.46,3.71-3.04,4.37,0,0,3.73-1.9,5.37-3.86,.68-.81,2.31-3.1,2.99-3.14,.68-.05,4.47-.07,11.46,1.19,29.69,5.28,39.67-5.08,39.67-5.08Z"/><path class="cls-19" d="M1096.11,276.37c0,.06-4.79-13.3-31.14-11.69,0,.01-9.81,.44-23.74,8.69,0,0-8.15,3.96-10.49,4.02,0-.02-6.63-8.01-10.21-12.47,0-.02,3.64,8.79,4.45,11.14,.82,2.33,1.93,4.42,.05,8.81,0,0-2.96,7.92-3.67,9.37,0,0,4.63-4.16,6.61-8.31,.83-1.72,2.8-6.51,3.65-6.59,.85-.08,5.63-.17,14.49,2.84,37.69,13.12,50.01-5.72,50.01-5.81Z"/><path class="cls-10" d="M987.07,336.65c0,.09-3.78-10-24.82-11.61,0,.02-7.83-.74-18.97,3.99,0-.02-6.51,2.16-8.38,2.02,0-.01-5.27-6.38-8.11-9.97,0-.01,2.88,6.75,3.52,8.52,.65,1.77,1.53,3.39,.01,6.44,0,0-2.38,5.57-2.95,6.59,0,0,3.7-2.72,5.29-5.59,.66-1.19,2.25-4.52,2.93-4.51,.68,.01,4.49,.34,11.55,3.28,30.01,12.63,39.93,.91,39.92,.83Z"/><path class="cls-15" d="M359.58,256.41c0-.11-7.49-19.7-49.05-18.77,0-.1-15.45,.32-37.52,10.4,0,.05-12.91,4.35-16.63,3.75,0,.01-10.5-13.83-16.17-21.81,0,0,5.75,14.57,7.04,18.27,1.29,3.71,3.06,7.2,.04,13.07,0,.04-4.75,10.58-5.88,12.34,0,.02,7.38-4.4,10.54-9.93,1.32-2.26,4.47-8.85,5.82-8.78,1.35,.07,8.92,1.26,22.94,7.43,59.56,25.62,78.85-6.35,78.87-5.96Z"/><path class="cls-17" d="M872.37,390.49c0,.16-7.91-20.33-51.62-13.39,0,0-16.26,2.36-39.43,17.39,0-.01-13.54,7.48-17.42,8.01,0-.05-10.93-10.54-16.82-16.33,0-.04,5.95,12.19,7.29,15.5,1.34,3.26,3.17,6.16,0,13,0,0-4.97,12.26-6.16,14.51,0,0,7.71-6.97,11.03-13.49,1.38-2.7,4.69-10.19,6.11-10.47,1.42-.27,9.32-1.37,24,1.58,62.44,13.69,83.04-15.87,83.02-16.31Z"/><path class="cls-18" d="M727.3,280.19s-6.65-12.69-44.57-4.75c0,.05-14.11,2.69-34.27,15.32,0-.02-11.77,6.45-15.14,7.06,0,.02-9.44-7.82-14.55-12.6,0,.02,5.14,9.81,6.28,12.34,1.15,2.55,2.73,4.74-.04,10.3,0-.01-4.35,9.94-5.39,11.81,0,0,6.71-6,9.6-11.28,1.21-2.2,4.11-8.22,5.34-8.51,1.23-.31,8.09-1.46,20.79-.31,53.95,4.42,71.93-19.58,71.94-19.38Z"/><path class="cls-11" d="M591.7,215.9s-9.31-20.13-61.89-13.2c0,.05-19.56,2.23-47.42,19.59,0,0-16.29,8.47-20.96,8.71,0,.08-13.26-15.49-20.45-25.27,0,.09,7.31,18.41,8.94,22.91,1.63,4.62,3.87,8.72,.08,17.35,0,.03-5.94,15.46-7.37,18.22,0,0,9.27-8.25,13.24-16.39,1.65-3.37,5.61-12.83,7.31-13.06,1.7-.28,11.25-.57,28.91,3.69,74.97,15.74,99.56-23.66,99.6-22.54Z"/><path class="cls-16" d="M430.31,358.96c-.02-.48-10.47-22.33-69.97-20.19,0-.21-22.12,.86-53.9,11.62,0,.13-18.59,4.21-23.93,2.9,0,.09-15-18.74-23.12-30.05,0,.05,8.18,19.5,10.01,24.3,1.83,4.86,4.35,9.5-.05,16.38,0,.06-6.91,12.47-8.57,14.48,0,.04,10.66-4.35,15.25-10.82,1.91-2.62,6.5-10.43,8.44-10.17,1.94,.21,12.83,2.83,32.89,11.27,85.16,33.09,112.88-11.01,112.93-9.71Z"/><path class="cls-13" d="M563.06,400.12c0-.06-7.4-14.93-49.24-3.85,0-.03-15.56,3.98-37.84,18.51,0,.02-13.02,7.27-16.74,7.84,0,.02-10.46-8.92-16.12-14.45,0,.04,5.69,11.19,6.97,14,1.27,2.86,3.03,5.36-.05,11.35,0,.02-4.83,10.64-5.99,12.54,0,0,7.44-6.13,10.65-11.85,1.34-2.35,4.55-8.96,5.91-9.28,1.36-.32,8.96-1.47,23.01-.14,59.7,5.33,79.44-24.79,79.44-24.68Z"/><path class="cls-14" d="M303.93,525.36c0-.09-5.37-8.76-36.75-10.5,0,.02-11.67-.85-28.43,3.22,0,0-9.78,1.72-12.58,1.31,0,.05-7.79-7.84-12.01-12.77,0,.04,4.22,8.46,5.16,10.52,.94,2.1,2.24,4.04-.09,7.26,0-.01-3.66,5.93-4.52,7.02,0,0,5.58-2.66,8.01-5.64,1.01-1.25,3.44-4.75,4.46-4.65,1.02,.06,6.72,1,17.21,4.49,44.56,13.53,59.51-.71,59.53-.25Z"/><path class="cls-12" d="M1194.98,180.45c0-.08-10.6-24.75-65.09-12.65,0-.15-20.27,4.48-48.87,22.17,0,.06-16.77,8.62-21.64,9.14,0-.07-14.08-11.43-21.67-17.66,0-.03,7.88,13.23,9.66,16.79,1.78,3.51,4.18,6.69,.4,13.9,0,.06-5.9,12.75-7.34,14.94,0,.03,9.51-6.84,13.49-13.77,1.66-2.83,5.59-10.9,7.36-11.23,1.77-.28,11.69-1.54,30.22,1.66,78.89,16.35,103.52-22.25,103.47-23.3Z"/></svg>