<?xml version="1.0" encoding="utf-8"?>
<!-- Generator: Adobe Illustrator 27.0.1, SVG Export Plug-In . SVG Version: 6.00 Build 0)  -->
<svg version="1.1" id="fishes" xmlns="http://www.w3.org/2000/svg" xmlns:xlink="http://www.w3.org/1999/xlink" x="0px" y="0px"
	 viewBox="0 0 1094.6 445.1" style="enable-background:new 0 0 1094.6 445.1;" xml:space="preserve">
<style type="text/css">
	.st0{fill:url(#SVGID_1_);}
	.st1{fill:url(#SVGID_00000036947363236074628700000008629143306277481868_);}
	.st2{fill:url(#SVGID_00000116917261026876505170000016152817978790958223_);}
	.st3{fill:url(#SVGID_00000134961302147165142110000012437966819358669476_);}
	.st4{fill:url(#SVGID_00000090987274944279306730000005496598687362385567_);}
	.st5{fill:url(#SVGID_00000052103242486927218020000008546845410784938677_);}
	.st6{fill:url(#SVGID_00000118375449990265209820000012050627842508507540_);}
	.st7{fill:url(#SVGID_00000063605997716570009500000000972747480579536801_);}
	.st8{fill:url(#SVGID_00000020370578003067436640000010144325369375325568_);}
	.st9{fill:url(#SVGID_00000096741277738160340620000003652761939126754432_);}
	.st10{fill:url(#SVGID_00000047043798894458269440000002955693962277814202_);}
	.st11{fill:url(#SVGID_00000009555372362112159030000010113976304677131965_);}
	.st12{fill:url(#SVGID_00000170995683895262116860000004407541903945415564_);}
	.st13{fill:url(#SVGID_00000124840546898098663620000011991284042790330245_);}
	.st14{fill:url(#SVGID_00000096765528464915712270000014767023345390662793_);}
	.st15{fill:url(#SVGID_00000098206304754630091480000008733510400326853265_);}
	.st16{fill:url(#SVGID_00000042737641705812229060000006597355161940817566_);}
	.st17{fill:url(#SVGID_00000030469635185337874970000008961797995830244020_);}
	.st18{fill:url(#SVGID_00000130643085086623457750000005395191792780577720_);}
	.st19{fill:url(#SVGID_00000059300626241319315230000000351640469773977259_);}
	.st20{fill:url(#SVGID_00000065035852229706203680000005991376972042815671_);}
	.st21{fill:url(#SVGID_00000029741989411797927940000011618414105925894591_);}
</style>
<linearGradient id="SVGID_1_" gradientUnits="userSpaceOnUse" x1="784.5699" y1="954.7774" x2="927.76" y2="954.7774" gradientTransform="matrix(1 0 0 -1 0 993.2552)">
	<stop  offset="0" style="stop-color:#637790"/>
	<stop  offset="0.35" style="stop-color:#6C7F96"/>
	<stop  offset="0.93" style="stop-color:#8595A9"/>
	<stop  offset="1" style="stop-color:#8998AC"/>
</linearGradient>
<path class="st0" d="M927.8,59c0,0.7-10-24.9-59.6-34.3c0,0.1-18.5-3.8-44.1,4.7c0-0.1-15.1,3.9-19.4,3.6c0-0.1-13-12.9-20-19.7
	c0-0.1,7.4,13.2,9.1,16.8c1.7,3.5,3.9,6.8,0.7,13c0-0.1-5,11.5-6.3,13.7c0,0,8.4-5.8,11.8-11.6c1.4-2.5,4.8-9.2,6.4-9.1
	c1.6,0.1,10.5,0.7,27.4,7.6C905.5,74.9,927.8,60.4,927.8,59L927.8,59z"/>
<linearGradient id="SVGID_00000121964995756515963970000000127438306432980664_" gradientUnits="userSpaceOnUse" x1="763.4" y1="839.6103" x2="889.9601" y2="839.6103" gradientTransform="matrix(1 0 0 -1 0 993.2552)">
	<stop  offset="0" style="stop-color:#637790"/>
	<stop  offset="0.35" style="stop-color:#6C7F96"/>
	<stop  offset="0.93" style="stop-color:#8595A9"/>
	<stop  offset="1" style="stop-color:#8998AC"/>
</linearGradient>
<path style="fill:url(#SVGID_00000121964995756515963970000000127438306432980664_);" d="M890,148.9c0,0.2-8.7-16.1-52.5-13.8
	c0,0.1-16.3,0.5-39.1,10.9c0-0.1-13.4,5.2-17.3,5.6c0,0-11.5-8.1-17.6-12.6c0,0,6.5,9.3,8,11.9c1.5,2.5,3.5,4.7,0.5,10
	c0,0-4.5,9.6-5.6,11.5c0,0,7.5-5.6,10.6-10.7c1.3-2.1,4.3-7.8,5.7-8c1.4-0.2,9.4-0.9,24.3,1.7C870.3,167.6,890,149.7,890,148.9
	L890,148.9z"/>
<linearGradient id="SVGID_00000008869953198823662760000014184668551157166527_" gradientUnits="userSpaceOnUse" x1="602.65" y1="884.3176" x2="753.73" y2="884.3176" gradientTransform="matrix(1 0 0 -1 0 993.2552)">
	<stop  offset="0" style="stop-color:#637790"/>
	<stop  offset="0.35" style="stop-color:#6C7F96"/>
	<stop  offset="0.93" style="stop-color:#8595A9"/>
	<stop  offset="1" style="stop-color:#8998AC"/>
</linearGradient>
<path style="fill:url(#SVGID_00000008869953198823662760000014184668551157166527_);" d="M753.7,101.1c0-0.1-8.7-13.4-61.7-11.1
	c0,0.2-19.7,0.2-48.3,10.4c0-0.1-16.6,5.1-21.3,5.3c0,0-12.8-10.2-19.8-16.6c0,0,6.8,11.9,8.3,15c1.5,3.1,3.6,5.8-0.4,11.7
	c0-0.1-6.4,10.9-7.9,13.1c0,0,9.5-6.2,13.7-11.8c1.8-2.4,6-8.7,7.7-8.8c1.7-0.2,11.3-0.3,28.9,2.8
	C727.7,122.9,753.7,100.7,753.7,101.1L753.7,101.1z"/>
<linearGradient id="SVGID_00000049916019267591112400000013469877468999649164_" gradientUnits="userSpaceOnUse" x1="647.3301" y1="762.5026" x2="772.5301" y2="762.5026" gradientTransform="matrix(1 0 0 -1 0 993.2552)">
	<stop  offset="0" style="stop-color:#637790"/>
	<stop  offset="0.35" style="stop-color:#6C7F96"/>
	<stop  offset="0.93" style="stop-color:#8595A9"/>
	<stop  offset="1" style="stop-color:#8998AC"/>
</linearGradient>
<path style="fill:url(#SVGID_00000049916019267591112400000013469877468999649164_);" d="M772.5,218.6c0,0.2-7.8-17.5-51.5-11.4
	c0,0-16.3,2-39.5,15.8c0,0-13.6,7-17.4,7.6c0,0-10.9-9.2-16.7-14.3c0,0,5.9,10.9,7.2,13.9c1.3,2.9,3.1,5.5,0,11.8
	c0,0-5,11.4-6.2,13.5c0,0,7.7-6.8,11-12.8c1.4-2.5,4.7-9.4,6.1-9.7c1.4-0.3,9.3-1.5,24,0.6C751.7,243.6,772.5,219,772.5,218.6
	L772.5,218.6z"/>
<linearGradient id="SVGID_00000018950424478780263490000001952106238220441261_" gradientUnits="userSpaceOnUse" x1="340.04" y1="581.409" x2="465" y2="581.409" gradientTransform="matrix(1 0 0 -1 0 993.2552)">
	<stop  offset="0" style="stop-color:#637790"/>
	<stop  offset="0.35" style="stop-color:#6C7F96"/>
	<stop  offset="0.93" style="stop-color:#8595A9"/>
	<stop  offset="1" style="stop-color:#8998AC"/>
</linearGradient>
<path style="fill:url(#SVGID_00000018950424478780263490000001952106238220441261_);" d="M465,397.1c0-0.1-7.7-14.8-51.3-5.1
	c0-0.1-16.2,3.5-39.5,16.1c0,0-13.6,6.1-17.5,6.5c0,0-10.9-8.7-16.7-14.1c0,0,5.9,10.6,7.2,13.2c1.3,2.7,3.1,5-0.1,10.3
	c0,0-5.1,9.3-6.3,10.9c0,0,7.8-5,11.2-10.1c1.4-2,4.8-7.9,6.2-8.1c1.4-0.2,9.3-0.9,24,1C444.3,425.6,465,397.2,465,397.1L465,397.1z
	"/>
<linearGradient id="SVGID_00000033343635765938184370000001950201968659080892_" gradientUnits="userSpaceOnUse" x1="0" y1="632.8087" x2="158.6" y2="632.8087" gradientTransform="matrix(1 0 0 -1 0 993.2552)">
	<stop  offset="0" style="stop-color:#637790"/>
	<stop  offset="0.35" style="stop-color:#6C7F96"/>
	<stop  offset="0.93" style="stop-color:#8595A9"/>
	<stop  offset="1" style="stop-color:#8998AC"/>
</linearGradient>
<path style="fill:url(#SVGID_00000033343635765938184370000001950201968659080892_);" d="M158.6,380c0-0.6-9.5-17.2-64.8-22.9
	c0-0.1-20.6-2.3-50.2,1.8c0,0.1-17.3,0.9-22.2-1c0,0.1-13.9-18-21.4-29.1c0,0.1,7.6,18,9.2,22.4c1.7,4.5,4,8.7-0.1,14.2
	c0,0-6.4,10.3-8,12.1c0,0,9.9-3.1,14.2-8.2c1.8-2.1,6.1-8.2,7.9-7.7c1.8,0.4,11.9,4.2,30.5,13.5C132.6,411.1,158.5,378.5,158.6,380z
	"/>
<linearGradient id="SVGID_00000116932099602591359690000003134215604402223548_" gradientUnits="userSpaceOnUse" x1="635.72" y1="980.1214" x2="754.22" y2="980.1214" gradientTransform="matrix(1 0 0 -1 0 993.2552)">
	<stop  offset="0" style="stop-color:#637790"/>
	<stop  offset="0.35" style="stop-color:#6C7F96"/>
	<stop  offset="0.93" style="stop-color:#8595A9"/>
	<stop  offset="1" style="stop-color:#8998AC"/>
</linearGradient>
<path style="fill:url(#SVGID_00000116932099602591359690000003134215604402223548_);" d="M754.2,8.9c0-0.1-7.2-12-48.6-8.2
	c0-0.1-15.4,1.4-37.6,8.8c0,0-13,3.5-16.6,3.5c0,0-10.2-6.6-15.7-10.6c0,0,5.5,7.7,6.7,9.6c1.2,1.9,2.9,3.7-0.2,7.1
	c0,0-4.9,6.1-6.1,7.2c0,0,7.4-3.1,10.7-6.3c1.4-1.3,4.6-5.2,6-5.3c1.3-0.1,8.9-0.2,22.7,2.1C734.3,26.8,754.2,9.5,754.2,8.9
	L754.2,8.9z"/>
<linearGradient id="SVGID_00000040555691596233130540000015829531105812666259_" gradientUnits="userSpaceOnUse" x1="515.08" y1="664.7079" x2="586.72" y2="664.7079" gradientTransform="matrix(1 0 0 -1 0 993.2552)">
	<stop  offset="0" style="stop-color:#637790"/>
	<stop  offset="0.35" style="stop-color:#6C7F96"/>
	<stop  offset="0.93" style="stop-color:#8595A9"/>
	<stop  offset="1" style="stop-color:#8998AC"/>
</linearGradient>
<path style="fill:url(#SVGID_00000040555691596233130540000015829531105812666259_);" d="M586.7,317.2c0,0-4.5-9.6-29.5-3
	c0,0-9.3,2.3-22.6,11.4c0,0-7.8,4.6-10,5c0,0-6.2-5.1-9.6-8.1c0,0,3.4,6.4,4.2,8.1s1.8,3.1,0,6.9c0,0-2.9,6.6-3.6,7.8
	c0,0,4.4-4,6.3-7.5c0.8-1.5,2.7-5.5,3.5-5.8s5.3-1.1,13.7-0.4C574.9,335,586.7,317.3,586.7,317.2L586.7,317.2z"/>
<linearGradient id="SVGID_00000030454181326525863360000000441047334302398097_" gradientUnits="userSpaceOnUse" x1="521.77" y1="930.0038" x2="593.66" y2="930.0038" gradientTransform="matrix(1 0 0 -1 0 993.2552)">
	<stop  offset="0" style="stop-color:#637790"/>
	<stop  offset="0.35" style="stop-color:#6C7F96"/>
	<stop  offset="0.93" style="stop-color:#8595A9"/>
	<stop  offset="1" style="stop-color:#8998AC"/>
</linearGradient>
<path style="fill:url(#SVGID_00000030454181326525863360000000441047334302398097_);" d="M593.7,55.1c0,0-4.4-8.1-29.5-4.4
	c0,0-9.3,1.2-22.7,8.6c0,0-7.8,3.7-10,3.9c0,0-6.2-5.4-9.6-8.7c0,0,3.4,6.5,4.2,8.2c0.8,1.7,1.8,3.2,0,6.6c0,0-2.9,6.2-3.6,7.4
	c0,0,4.5-3.6,6.4-6.9c0.8-1.4,2.7-5.1,3.5-5.3c0.8-0.1,5.4-0.6,13.8,0.6C581.7,69.9,593.7,54.8,593.7,55.1L593.7,55.1z"/>
<linearGradient id="SVGID_00000177478123385406755330000009781326340251628423_" gradientUnits="userSpaceOnUse" x1="52.1" y1="762.5551" x2="125.32" y2="762.5551" gradientTransform="matrix(1 0 0 -1 0 993.2552)">
	<stop  offset="0" style="stop-color:#637790"/>
	<stop  offset="0.35" style="stop-color:#6C7F96"/>
	<stop  offset="0.93" style="stop-color:#8595A9"/>
	<stop  offset="1" style="stop-color:#8998AC"/>
</linearGradient>
<path style="fill:url(#SVGID_00000177478123385406755330000009781326340251628423_);" d="M125.3,243.9c0-0.1-4.5-11.4-30-16.6
	c0-0.1-9.5-2-23.1-0.2c0,0-8,0.3-10.2-0.6c0,0-6.4-8.7-9.8-13.5c0,0,3.5,8.2,4.2,10.3s1.9,4.2,0,6.7c0,0-3,4.8-3.7,5.5
	c0,0,4.6-1.2,6.5-3.6c0.8-1,2.8-3.9,3.6-3.6c0.8,0.2,5.5,2,14.1,7.3C113.4,258.2,125.3,243.8,125.3,243.9L125.3,243.9z"/>
<linearGradient id="SVGID_00000008148767190080541750000010298391155670589361_" gradientUnits="userSpaceOnUse" x1="363.67" y1="756.1183" x2="423.29" y2="756.1183" gradientTransform="matrix(1 0 0 -1 0 993.2552)">
	<stop  offset="0" style="stop-color:#637790"/>
	<stop  offset="0.35" style="stop-color:#6C7F96"/>
	<stop  offset="0.93" style="stop-color:#8595A9"/>
	<stop  offset="1" style="stop-color:#8998AC"/>
</linearGradient>
<path style="fill:url(#SVGID_00000008148767190080541750000010298391155670589361_);" d="M423.3,229.7c0,0-3.7-8.2-24.5-4.1
	c0,0-7.7,1.4-18.8,8.3c0,0-6.5,3.4-8.3,3.6c0,0-5.2-5.2-8-8.4c0,0,2.9,6.2,3.5,7.8c0.6,1.6,1.5,3,0,6.2c0,0-2.4,5.7-2.9,6.7
	c0,0,3.7-3.1,5.3-6.2c0.7-1.2,2.2-4.7,2.9-4.9s4.5-0.5,11.4,0.8C413.5,244.9,423.3,229.6,423.3,229.7L423.3,229.7z"/>
<linearGradient id="SVGID_00000014619244887976789220000013339044662360373146_" gradientUnits="userSpaceOnUse" x1="228.52" y1="604.2961" x2="288.28" y2="604.2961" gradientTransform="matrix(1 0 0 -1 0 993.2552)">
	<stop  offset="0" style="stop-color:#637790"/>
	<stop  offset="0.35" style="stop-color:#6C7F96"/>
	<stop  offset="0.93" style="stop-color:#8595A9"/>
	<stop  offset="1" style="stop-color:#8998AC"/>
</linearGradient>
<path style="fill:url(#SVGID_00000014619244887976789220000013339044662360373146_);" d="M288.3,385.7c0,0-3.6-6-24.5-4
	c0,0-7.8,0.7-18.9,4.9c0,0-6.5,2-8.4,2c0,0-5.2-3.9-7.9-6.2c0,0,2.8,4.5,3.4,5.6c0.6,1.1,1.5,2.1-0.1,4.2c0,0-2.5,3.7-3,4.4
	c0,0,3.7-1.9,5.4-3.9c0.7-0.8,2.3-3.1,3-3.1c0.7,0,4.5-0.1,11.5,1.2C278.3,396.1,288.3,385.7,288.3,385.7L288.3,385.7z"/>
<linearGradient id="SVGID_00000090275283344732899840000006528404444088257196_" gradientUnits="userSpaceOnUse" x1="920.1" y1="800.2349" x2="995.6901" y2="800.2349" gradientTransform="matrix(1 0 0 -1 0 993.2552)">
	<stop  offset="0" style="stop-color:#637790"/>
	<stop  offset="0.35" style="stop-color:#6C7F96"/>
	<stop  offset="0.93" style="stop-color:#8595A9"/>
	<stop  offset="1" style="stop-color:#8998AC"/>
</linearGradient>
<path style="fill:url(#SVGID_00000090275283344732899840000006528404444088257196_);" d="M995.7,190c0,0.1-4.8-13.3-31.1-11.7
	c0,0-9.8,0.4-23.7,8.7c0,0-8.2,4-10.5,4c0,0-6.6-8-10.2-12.5c0,0,3.6,8.8,4.5,11.1c0.8,2.3,1.9,4.4,0.1,8.8c0,0-3,7.9-3.7,9.4
	c0,0,4.6-4.2,6.6-8.3c0.8-1.7,2.8-6.5,3.7-6.6s5.6-0.2,14.5,2.8C983.4,208.9,995.7,190.1,995.7,190L995.7,190z"/>
<linearGradient id="SVGID_00000090274113037523312550000002665074509790836619_" gradientUnits="userSpaceOnUse" x1="826.36" y1="747.7726" x2="886.64" y2="747.7726" gradientTransform="matrix(1 0 0 -1 0 993.2552)">
	<stop  offset="0" style="stop-color:#637790"/>
	<stop  offset="0.35" style="stop-color:#6C7F96"/>
	<stop  offset="0.93" style="stop-color:#8595A9"/>
	<stop  offset="1" style="stop-color:#8998AC"/>
</linearGradient>
<path style="fill:url(#SVGID_00000090274113037523312550000002665074509790836619_);" d="M886.6,250.3c0,0.1-3.8-10-24.8-11.6
	c0,0-7.8-0.7-19,4c0,0-6.5,2.2-8.4,2c0,0-5.3-6.4-8.1-10c0,0,2.9,6.8,3.5,8.5c0.7,1.8,1.5,3.4,0,6.4c0,0-2.4,5.6-3,6.6
	c0,0,3.7-2.7,5.3-5.6c0.7-1.2,2.2-4.5,2.9-4.5c0.7,0,4.5,0.3,11.5,3.3C876.7,262.1,886.6,250.3,886.6,250.3L886.6,250.3z"/>
<linearGradient id="SVGID_00000165924684763894277620000017196981799602758534_" gradientUnits="userSpaceOnUse" x1="139.78" y1="827.8076" x2="259.15" y2="827.8076" gradientTransform="matrix(1 0 0 -1 0 993.2552)">
	<stop  offset="0" style="stop-color:#637790"/>
	<stop  offset="0.35" style="stop-color:#6C7F96"/>
	<stop  offset="0.93" style="stop-color:#8595A9"/>
	<stop  offset="1" style="stop-color:#8998AC"/>
</linearGradient>
<path style="fill:url(#SVGID_00000165924684763894277620000017196981799602758534_);" d="M259.1,170c0-0.1-7.5-19.7-49-18.8
	c0-0.1-15.5,0.3-37.5,10.4c0,0.1-12.9,4.4-16.6,3.8c0,0-10.5-13.8-16.2-21.8c0,0,5.8,14.6,7,18.3c1.3,3.7,3.1,7.2,0,13.1
	c0,0-4.8,10.6-5.9,12.3c0,0,7.4-4.4,10.5-9.9c1.3-2.3,4.5-8.9,5.8-8.8s8.9,1.3,22.9,7.4C239.8,201.6,259.1,169.7,259.1,170
	L259.1,170z"/>
<linearGradient id="SVGID_00000150067860214162066740000005092268504576528306_" gradientUnits="userSpaceOnUse" x1="646.65" y1="677.2053" x2="771.9401" y2="677.2053" gradientTransform="matrix(1 0 0 -1 0 993.2552)">
	<stop  offset="0" style="stop-color:#637790"/>
	<stop  offset="0.35" style="stop-color:#6C7F96"/>
	<stop  offset="0.93" style="stop-color:#8595A9"/>
	<stop  offset="1" style="stop-color:#8998AC"/>
</linearGradient>
<path style="fill:url(#SVGID_00000150067860214162066740000005092268504576528306_);" d="M771.9,304.1c0,0.2-7.9-20.3-51.6-13.4
	c0,0-16.3,2.4-39.4,17.4c0,0-13.5,7.5-17.4,8c0,0-10.9-10.5-16.8-16.3c0,0,6,12.2,7.3,15.5c1.3,3.3,3.2,6.2,0,13
	c0,0-5,12.3-6.2,14.5c0,0,7.7-7,11-13.5c1.4-2.7,4.7-10.2,6.1-10.5c1.4-0.3,9.3-1.4,24,1.6C751.4,334.1,772,304.6,771.9,304.1
	L771.9,304.1z"/>
<linearGradient id="SVGID_00000150790481472186897390000007104509465772364221_" gradientUnits="userSpaceOnUse" x1="518.34" y1="783.379" x2="626.87" y2="783.379" gradientTransform="matrix(1 0 0 -1 0 993.2552)">
	<stop  offset="0" style="stop-color:#637790"/>
	<stop  offset="0.35" style="stop-color:#6C7F96"/>
	<stop  offset="0.93" style="stop-color:#8595A9"/>
	<stop  offset="1" style="stop-color:#8998AC"/>
</linearGradient>
<path style="fill:url(#SVGID_00000150790481472186897390000007104509465772364221_);" d="M626.9,193.8c0,0-6.7-12.7-44.6-4.8
	c0,0-14.1,2.7-34.3,15.3c0,0-11.8,6.5-15.1,7.1c0,0-9.4-7.8-14.5-12.6c0,0,5.1,9.8,6.3,12.3c1.2,2.5,2.7,4.7,0,10.3
	c0,0-4.3,9.9-5.4,11.8c0,0,6.7-6,9.6-11.3c1.2-2.2,4.1-8.2,5.3-8.5c1.2-0.3,8.1-1.5,20.8-0.3C608.9,217.6,626.8,193.6,626.9,193.8
	L626.9,193.8z"/>
<linearGradient id="SVGID_00000148651328304737646910000016918773493723487375_" gradientUnits="userSpaceOnUse" x1="340.55" y1="846.8986" x2="491.27" y2="846.8986" gradientTransform="matrix(1 0 0 -1 0 993.2552)">
	<stop  offset="0" style="stop-color:#637790"/>
	<stop  offset="0.35" style="stop-color:#6C7F96"/>
	<stop  offset="0.93" style="stop-color:#8595A9"/>
	<stop  offset="1" style="stop-color:#8998AC"/>
</linearGradient>
<path style="fill:url(#SVGID_00000148651328304737646910000016918773493723487375_);" d="M491.3,129.5c0,0-9.3-20.1-61.9-13.2
	c0,0.1-19.6,2.2-47.4,19.6c0,0-16.3,8.5-21,8.7c0,0.1-13.3-15.5-20.5-25.3c0,0.1,7.3,18.4,8.9,22.9c1.6,4.6,3.9,8.7,0.1,17.4
	c0,0-5.9,15.5-7.4,18.2c0,0,9.3-8.2,13.2-16.4c1.6-3.4,5.6-12.8,7.3-13.1c1.7-0.3,11.2-0.6,28.9,3.7
	C466.6,167.8,491.2,128.4,491.3,129.5L491.3,129.5z"/>
<linearGradient id="SVGID_00000054242976825016864910000011955980140905877900_" gradientUnits="userSpaceOnUse" x1="158.96" y1="727.4995" x2="329.88" y2="727.4995" gradientTransform="matrix(1 0 0 -1 0 993.2552)">
	<stop  offset="0" style="stop-color:#637790"/>
	<stop  offset="0.35" style="stop-color:#6C7F96"/>
	<stop  offset="0.93" style="stop-color:#8595A9"/>
	<stop  offset="1" style="stop-color:#8998AC"/>
</linearGradient>
<path style="fill:url(#SVGID_00000054242976825016864910000011955980140905877900_);" d="M329.9,272.6c0-0.5-10.5-22.3-70-20.2
	c0-0.2-22.1,0.9-53.9,11.6c0,0.1-18.6,4.2-23.9,2.9c0,0.1-15-18.7-23.1-30c0,0,8.2,19.5,10,24.3c1.8,4.9,4.4,9.5,0,16.4
	c0,0.1-6.9,12.5-8.6,14.5c0,0,10.7-4.4,15.2-10.8c1.9-2.6,6.5-10.4,8.4-10.2c1.9,0.2,12.8,2.8,32.9,11.3
	C302.1,315.4,329.8,271.3,329.9,272.6L329.9,272.6z"/>
<linearGradient id="SVGID_00000124161979520681041200000007372527570695688320_" gradientUnits="userSpaceOnUse" x1="342.69" y1="660.5135" x2="462.6301" y2="660.5135" gradientTransform="matrix(1 0 0 -1 0 993.2552)">
	<stop  offset="0" style="stop-color:#637790"/>
	<stop  offset="0.35" style="stop-color:#6C7F96"/>
	<stop  offset="0.93" style="stop-color:#8595A9"/>
	<stop  offset="1" style="stop-color:#8998AC"/>
</linearGradient>
<path style="fill:url(#SVGID_00000124161979520681041200000007372527570695688320_);" d="M462.6,313.7c0-0.1-7.4-14.9-49.2-3.9
	c0,0-15.6,4-37.8,18.5c0,0-13,7.3-16.7,7.8c0,0-10.5-8.9-16.1-14.5c0,0,5.7,11.2,7,14c1.3,2.9,3,5.4,0,11.4c0,0-4.8,10.6-6,12.5
	c0,0,7.4-6.1,10.6-11.9c1.3-2.4,4.5-9,5.9-9.3c1.4-0.3,9-1.5,23-0.1C442.9,343.7,462.6,313.6,462.6,313.7L462.6,313.7z"/>
<linearGradient id="SVGID_00000013914639706208038140000015397120331156497057_" gradientUnits="userSpaceOnUse" x1="113.73" y1="560.5826" x2="203.5" y2="560.5826" gradientTransform="matrix(1 0 0 -1 0 993.2552)">
	<stop  offset="0" style="stop-color:#637790"/>
	<stop  offset="0.35" style="stop-color:#6C7F96"/>
	<stop  offset="0.93" style="stop-color:#8595A9"/>
	<stop  offset="1" style="stop-color:#8998AC"/>
</linearGradient>
<path style="fill:url(#SVGID_00000013914639706208038140000015397120331156497057_);" d="M203.5,439c0-0.1-5.4-8.8-36.8-10.5
	c0,0-11.7-0.8-28.4,3.2c0,0-9.8,1.7-12.6,1.3c0,0-7.8-7.8-12-12.8c0,0,4.2,8.5,5.2,10.5c0.9,2.1,2.2,4-0.1,7.3c0,0-3.7,5.9-4.5,7
	c0,0,5.6-2.7,8-5.6c1-1.2,3.4-4.8,4.5-4.7c1,0.1,6.7,1,17.2,4.5C188.5,452.8,203.5,438.5,203.5,439L203.5,439z"/>
<linearGradient id="SVGID_00000032607909184445250310000002794276204159205504_" gradientUnits="userSpaceOnUse" x1="937.28" y1="883.8572" x2="1094.55" y2="883.8572" gradientTransform="matrix(1 0 0 -1 0 993.2552)">
	<stop  offset="0" style="stop-color:#637790"/>
	<stop  offset="0.35" style="stop-color:#6C7F96"/>
	<stop  offset="0.93" style="stop-color:#8595A9"/>
	<stop  offset="1" style="stop-color:#8998AC"/>
</linearGradient>
<path style="fill:url(#SVGID_00000032607909184445250310000002794276204159205504_);" d="M1094.6,94.1c0-0.1-10.6-24.8-65.1-12.6
	c0-0.1-20.3,4.5-48.9,22.2c0,0.1-16.8,8.6-21.6,9.1c0-0.1-14.1-11.4-21.7-17.7c0,0,7.9,13.2,9.7,16.8c1.8,3.5,4.2,6.7,0.4,13.9
	c0,0.1-5.9,12.8-7.3,14.9c0,0,9.5-6.8,13.5-13.8c1.7-2.8,5.6-10.9,7.4-11.2c1.8-0.3,11.7-1.5,30.2,1.7
	C1070,133.7,1094.6,95.1,1094.6,94.1L1094.6,94.1z"/>
</svg>
