<?xml version="1.0" encoding="UTF-8"?><svg id="sealife" xmlns="http://www.w3.org/2000/svg" xmlns:xlink="http://www.w3.org/1999/xlink" viewBox="0 0 2072.73 1166.38"><defs><style>.cls-1{fill:url(#linear-gradient);}.cls-2{fill:url(#linear-gradient-3);}.cls-3{fill:url(#linear-gradient-4);}.cls-4{fill:url(#linear-gradient-2);}.cls-5{fill:url(#linear-gradient-5);}</style><linearGradient id="linear-gradient" x1="511.71" y1="298.79" x2="655.79" y2="298.79" gradientUnits="userSpaceOnUse"><stop offset="0" stop-color="#b4cac6"/><stop offset=".35" stop-color="#aac3be"/><stop offset=".93" stop-color="#91b3ab"/><stop offset="1" stop-color="#8eb1a9"/></linearGradient><linearGradient id="linear-gradient-2" x1="100.43" y1="189.19" x2="310.48" y2="189.19" xlink:href="#linear-gradient"/><linearGradient id="linear-gradient-3" x1="267.12" y1="374.1" x2="394.06" y2="374.1" xlink:href="#linear-gradient"/><linearGradient id="linear-gradient-4" x1="492.16" y1="404.06" x2="602.63" y2="404.06" xlink:href="#linear-gradient"/><linearGradient id="linear-gradient-5" x1="244.18" y1="271.99" x2="587.69" y2="271.99" xlink:href="#linear-gradient"/></defs><path class="cls-1" d="M523.71,295.43c32.67,3.71,132.52,84.57,132.08,20.99-.15-22.25-17.79-44.07-36.68-53.33-39.95-19.58-69.53,12.91-107.4,17.33l12,15Z"/><path class="cls-4" d="M275.27,292c14.42-58.6,65.52-122.88,9.74-174.68-42.46-39.43-173.61-51.81-183.9,27.67-8.04,62.1,57.85,74.04,99,65.92,19.23-3.8,47.3-18.17,59.55,6.75,11.35,23.09-26.65,50.57,6.61,65.34l9,9Z"/><path class="cls-2" d="M311.08,301.79c10.19,63.12,19.9,65.4,66.08,98.18,34.42,24.44,11.14,44.48-24.07,48.83-85.8,10.59-120.71-120.17-42-150v3Z"/><path class="cls-3" d="M548.1,337.79c-.2,40.22-2.1,46.29,23.84,68.92,10.38,9.05,27.91,14.28,30.32,29.93,4.1,26.65-27.16,36.1-48.16,33.16-23.79-3.34-40.71-23.78-51.07-45.16-15.99-32.97-15.45-56.98,9.07-83.85l36-3Z"/><path class="cls-5" d="M263.15,325.03c43.15,32.2,148.12,42.68,189.5,44.01,32.59,1.04,113.1,20.06,129.68-11.02,11.5-21.56,1.79-69.98-4.06-92.65-16.71-64.77-77.8-101.47-163.3-96.72-53.15,2.95-125.33,20.71-151.23,60.64-10.68,16.47-17.12,41.87-19.33,60.34-1.67,14,5.72,25.69,18.73,35.4Z"/></svg>