<?xml version="1.0" encoding="utf-8"?>
<!-- Generator: Adobe Illustrator 27.0.1, SVG Export Plug-In . SVG Version: 6.00 Build 0)  -->
<svg version="1.1" id="sealife" xmlns="http://www.w3.org/2000/svg" xmlns:xlink="http://www.w3.org/1999/xlink" x="0px" y="0px"
	 viewBox="0 0 555.4 383.9" style="enable-background:new 0 0 555.4 383.9;" xml:space="preserve">
<style type="text/css">
	.st0{fill:url(#SVGID_1_);}
	.st1{fill:url(#SVGID_00000046322916468564214300000010492814042839184284_);}
	.st2{fill:url(#SVGID_00000046299280414631236880000015736204391590651038_);}
	.st3{fill:url(#SVGID_00000002347756471582277130000006842268863660403091_);}
	.st4{fill:url(#SVGID_00000063616547000604833390000011941639882271170968_);}
</style>
<linearGradient id="SVGID_1_" gradientUnits="userSpaceOnUse" x1="411.2726" y1="780.8292" x2="555.3541" y2="780.8292" gradientTransform="matrix(1 0 0 -1 0 993.2455)">
	<stop  offset="0" style="stop-color:#B4CAC6"/>
	<stop  offset="0.35" style="stop-color:#AAC3BE"/>
	<stop  offset="0.93" style="stop-color:#91B3AB"/>
	<stop  offset="1" style="stop-color:#8EB1A9"/>
</linearGradient>
<path class="st0" d="M423.3,209.1c32.7,3.7,132.5,84.6,132.1,21c-0.2-22.2-17.8-44.1-36.7-53.3c-39.9-19.6-69.5,12.9-107.4,17.3
	L423.3,209.1L423.3,209.1z"/>
<linearGradient id="SVGID_00000027571363386546726130000003038418216858328705_" gradientUnits="userSpaceOnUse" x1="0" y1="890.4341" x2="210.0459" y2="890.4341" gradientTransform="matrix(1 0 0 -1 0 993.2455)">
	<stop  offset="0" style="stop-color:#B4CAC6"/>
	<stop  offset="0.35" style="stop-color:#AAC3BE"/>
	<stop  offset="0.93" style="stop-color:#91B3AB"/>
	<stop  offset="1" style="stop-color:#8EB1A9"/>
</linearGradient>
<path style="fill:url(#SVGID_00000027571363386546726130000003038418216858328705_);" d="M174.8,205.6
	c14.4-58.6,65.5-122.9,9.7-174.7C142.1-8.5,11-20.9,0.7,58.6c-8,62.1,57.9,74,99,65.9c19.2-3.8,47.3-18.2,59.5,6.8
	c11.4,23.1-26.6,50.6,6.6,65.3L174.8,205.6L174.8,205.6z"/>
<linearGradient id="SVGID_00000156587843540876095030000012443409574409974150_" gradientUnits="userSpaceOnUse" x1="166.6844" y1="705.5186" x2="293.6236" y2="705.5186" gradientTransform="matrix(1 0 0 -1 0 993.2455)">
	<stop  offset="0" style="stop-color:#B4CAC6"/>
	<stop  offset="0.35" style="stop-color:#AAC3BE"/>
	<stop  offset="0.93" style="stop-color:#91B3AB"/>
	<stop  offset="1" style="stop-color:#8EB1A9"/>
</linearGradient>
<path style="fill:url(#SVGID_00000156587843540876095030000012443409574409974150_);" d="M210.6,215.4
	c10.2,63.1,19.9,65.4,66.1,98.2c34.4,24.4,11.1,44.5-24.1,48.8c-85.8,10.6-120.7-120.2-42-150L210.6,215.4L210.6,215.4z"/>
<linearGradient id="SVGID_00000067955576116253928330000013455718652338282392_" gradientUnits="userSpaceOnUse" x1="391.7211" y1="675.57" x2="502.1886" y2="675.57" gradientTransform="matrix(1 0 0 -1 0 993.2455)">
	<stop  offset="0" style="stop-color:#B4CAC6"/>
	<stop  offset="0.35" style="stop-color:#AAC3BE"/>
	<stop  offset="0.93" style="stop-color:#91B3AB"/>
	<stop  offset="1" style="stop-color:#8EB1A9"/>
</linearGradient>
<path style="fill:url(#SVGID_00000067955576116253928330000013455718652338282392_);" d="M447.7,251.4c-0.2,40.2-2.1,46.3,23.8,68.9
	c10.4,9,27.9,14.3,30.3,29.9c4.1,26.6-27.2,36.1-48.2,33.2c-23.8-3.3-40.7-23.8-51.1-45.2c-16-33-15.5-57,9.1-83.9L447.7,251.4
	L447.7,251.4z"/>
<linearGradient id="SVGID_00000000196653924313970450000012327942831214290085_" gradientUnits="userSpaceOnUse" x1="143.7389" y1="807.6292" x2="487.2523" y2="807.6292" gradientTransform="matrix(1 0 0 -1 0 993.2455)">
	<stop  offset="0" style="stop-color:#B4CAC6"/>
	<stop  offset="0.35" style="stop-color:#AAC3BE"/>
	<stop  offset="0.93" style="stop-color:#91B3AB"/>
	<stop  offset="1" style="stop-color:#8EB1A9"/>
</linearGradient>
<path style="fill:url(#SVGID_00000000196653924313970450000012327942831214290085_);" d="M162.7,238.7
	c43.1,32.2,148.1,42.7,189.5,44c32.6,1,113.1,20.1,129.7-11c11.5-21.6,1.8-70-4.1-92.6C461.1,114.2,400,77.5,314.5,82.3
	c-53.1,2.9-125.3,20.7-151.2,60.6c-10.7,16.5-17.1,41.9-19.3,60.3C142.3,217.3,149.7,228.9,162.7,238.7L162.7,238.7z"/>
</svg>
